<?xml version="1.0" encoding="UTF-8" standalone="no"?>
<!DOCTYPE svg PUBLIC "-//W3C//DTD SVG 1.1//EN"
 "http://www.w3.org/Graphics/SVG/1.1/DTD/svg11.dtd">
<!-- Generated by graphviz version 13.1.2 (20250808.2320)
 -->
<!-- Title: isSquareAttacked Pages: 1 -->
<!--zoomable 220 -->

<svg id="main" version="1.1" xmlns="http://www.w3.org/2000/svg" xmlns:xlink="http://www.w3.org/1999/xlink" xml:space="preserve" onload="init(evt)">

<style type="text/css"><![CDATA[
.node, .edge {opacity: 0.7;}
.node.selected, .edge.selected {opacity: 1;}
.edge:hover path { stroke: red; }
.edge:hover polygon { stroke: red; fill: red; }
]]></style>

<defs>
  <circle id="rim" cx="0" cy="0" r="7"/>
  <circle id="rim2" cx="0" cy="0" r="3.5"/>
  <g id="zoomPlus">
    <use xlink:href="#rim" fill="#404040"><set attributeName="fill" to="#808080" begin="zoomplus.mouseover" end="zoomplus.mouseout"/></use>
    <path d="M-4,0h8M0,-4v8" fill="none" stroke="white" stroke-width="1.5" pointer-events="none"/>
  </g>
  <g id="zoomMin">
    <use xlink:href="#rim" fill="#404040"><set attributeName="fill" to="#808080" begin="zoomminus.mouseover" end="zoomminus.mouseout"/></use>
    <path d="M-4,0h8" fill="none" stroke="white" stroke-width="1.5" pointer-events="none"/>
  </g>
  <g id="arrowUp" transform="translate(30 24)">
    <use xlink:href="#rim"/>
    <path pointer-events="none" fill="none" stroke="white" stroke-width="1.5" d="M0,-3.0v7 M-2.5,-0.5L0,-3.0L2.5,-0.5"/>
  </g>
  <g id="arrowRight" transform="rotate(90) translate(36 -43)">
    <use xlink:href="#rim"/>
    <path pointer-events="none" fill="none" stroke="white" stroke-width="1.5" d="M0,-3.0v7 M-2.5,-0.5L0,-3.0L2.5,-0.5"/>
  </g>
  <g id="arrowDown" transform="rotate(180) translate(-30 -48)">
    <use xlink:href="#rim"/>
    <path pointer-events="none" fill="none" stroke="white" stroke-width="1.5" d="M0,-3.0v7 M-2.5,-0.5L0,-3.0L2.5,-0.5"/>
  </g>
  <g id="arrowLeft" transform="rotate(270) translate(-36 17)">
    <use xlink:href="#rim"/>
    <path pointer-events="none" fill="none" stroke="white" stroke-width="1.5" d="M0,-3.0v7 M-2.5,-0.5L0,-3.0L2.5,-0.5"/>
  </g>
  <g id="resetDef">
    <use xlink:href="#rim2" fill="#404040"><set attributeName="fill" to="#808080" begin="reset.mouseover" end="reset.mouseout"/></use>
  </g>
</defs>
<script type="application/ecmascript">
var viewWidth = 523;
var viewHeight = 220;
var sectionId = 'dynsection-3';
</script>
<script type="application/ecmascript" xlink:href="svg.min.js"/>
<svg id="graph" class="graph">
<g id="viewport">
<title>isSquareAttacked</title>
<!-- Node1 -->
<g id="Node000001" class="node">
<title>Node1</title>
<g id="a_Node000001"><a xlink:title="Determines if a given square is attacked by a given side.">
<polygon fill="#999999" stroke="#666666" points="515,-105 421.75,-105 421.75,-85 515,-85 515,-105"/>
<text xml:space="preserve" text-anchor="middle" x="468.38" y="-91.5" font-family="Helvetica,sans-Serif" font-size="10.00">isSquareAttacked</text>
</a>
</g>
</g>
<!-- Node2 -->
<g id="Node000002" class="node">
<title>Node2</title>
<g id="a_Node000002"><a xlink:href="move__generator_8cpp.html#a4d7178784dec62b5c55f61f52c432fdf" target="_top" xlink:title="Generate all pseudo&#45;legal moves for the side to move.">
<polygon fill="white" stroke="#666666" points="385.75,-105 291.75,-105 291.75,-85 385.75,-85 385.75,-105"/>
<text xml:space="preserve" text-anchor="middle" x="338.75" y="-91.5" font-family="Helvetica,sans-Serif" font-size="10.00">generateAllMoves</text>
</a>
</g>
</g>
<!-- Node1&#45;&gt;Node2 -->
<g id="edge1_Node000001_Node000002" class="edge">
<title>Node1&#45;&gt;Node2</title>
<g id="a_edge1_Node000001_Node000002"><a xlink:title=" ">
<path fill="none" stroke="#63b8ff" d="M409.85,-95C401.92,-95 393.87,-95 386.19,-95"/>
<polygon fill="#63b8ff" stroke="#63b8ff" points="409.79,-98.5 419.79,-95 409.79,-91.5 409.79,-98.5"/>
</a>
</g>
</g>
<!-- Node9 -->
<g id="Node000009" class="node">
<title>Node9</title>
<g id="a_Node000009"><a xlink:href="make__move_8cpp.html#a1b56f6dd56425f5fcc2c84f44025d4f5" target="_top" xlink:title="Make a move; returns non&#45;zero if legal (king not left in check).">
<polygon fill="white" stroke="#666666" points="370.75,-152 306.75,-152 306.75,-132 370.75,-132 370.75,-152"/>
<text xml:space="preserve" text-anchor="middle" x="338.75" y="-138.5" font-family="Helvetica,sans-Serif" font-size="10.00">makeMove</text>
</a>
</g>
</g>
<!-- Node1&#45;&gt;Node9 -->
<g id="edge10_Node000001_Node000009" class="edge">
<title>Node1&#45;&gt;Node9</title>
<g id="a_edge10_Node000001_Node000009"><a xlink:title=" ">
<path fill="none" stroke="#63b8ff" d="M428.37,-109.37C408.88,-116.54 385.74,-125.06 367.99,-131.6"/>
<polygon fill="#63b8ff" stroke="#63b8ff" points="429.46,-112.69 437.63,-105.95 427.04,-106.13 429.46,-112.69"/>
</a>
</g>
</g>
<!-- Node10 -->
<g id="Node000010" class="node">
<title>Node10</title>
<g id="a_Node000010"><a xlink:href="make__move_8cpp.html#a9c21455a32eaf2bdea582755aa32aa4d" target="_top" xlink:title="Make a null move (side to move toggles, no pieces moved).">
<polygon fill="white" stroke="#666666" points="379.38,-67 298.12,-67 298.12,-47 379.38,-47 379.38,-67"/>
<text xml:space="preserve" text-anchor="middle" x="338.75" y="-53.5" font-family="Helvetica,sans-Serif" font-size="10.00">makeNullMove</text>
</a>
</g>
</g>
<!-- Node1&#45;&gt;Node10 -->
<g id="edge15_Node000001_Node000010" class="edge">
<title>Node1&#45;&gt;Node10</title>
<g id="a_edge15_Node000001_Node000010"><a xlink:title=" ">
<path fill="none" stroke="#63b8ff" d="M421.33,-81.29C406.01,-76.73 389.2,-71.72 374.85,-67.45"/>
<polygon fill="#63b8ff" stroke="#63b8ff" points="420.13,-84.58 430.71,-84.08 422.13,-77.88 420.13,-84.58"/>
</a>
</g>
</g>
<!-- Node3 -->
<g id="Node000003" class="node">
<title>Node3</title>
<g id="a_Node000003"><a xlink:href="interactive__helpers_8cpp.html#a37716374c6b9557c96dfddf75ab56e72" target="_top" xlink:title="Build list of legal moves that originate from from.">
<polygon fill="white" stroke="#666666" points="255.75,-190 164.75,-190 164.75,-170 255.75,-170 255.75,-190"/>
<text xml:space="preserve" text-anchor="middle" x="210.25" y="-176.5" font-family="Helvetica,sans-Serif" font-size="10.00">LegalMovesFrom</text>
</a>
</g>
</g>
<!-- Node2&#45;&gt;Node3 -->
<g id="edge2_Node000002_Node000003" class="edge">
<title>Node2&#45;&gt;Node3</title>
<g id="a_edge2_Node000002_Node000003"><a xlink:title=" ">
<path fill="none" stroke="#63b8ff" d="M308.67,-111.08C302.87,-114.73 296.97,-118.78 291.75,-123 273.65,-137.62 274.85,-147.71 255.75,-161 251.06,-164.26 245.72,-167.13 240.41,-169.59"/>
<polygon fill="#63b8ff" stroke="#63b8ff" points="310.12,-114.29 316.89,-106.14 306.52,-108.29 310.12,-114.29"/>
</a>
</g>
</g>
<!-- Node4 -->
<g id="Node000004" class="node">
<title>Node4</title>
<g id="a_Node000004"><a xlink:href="move__generator_8cpp.html#a4edc18741a17d00498b72b349879e30d" target="_top" xlink:title="Check if a given move exists in the current position.">
<polygon fill="white" stroke="#666666" points="244.12,-152 176.38,-152 176.38,-132 244.12,-132 244.12,-152"/>
<text xml:space="preserve" text-anchor="middle" x="210.25" y="-138.5" font-family="Helvetica,sans-Serif" font-size="10.00">moveExists</text>
</a>
</g>
</g>
<!-- Node2&#45;&gt;Node4 -->
<g id="edge3_Node000002_Node000004" class="edge">
<title>Node2&#45;&gt;Node4</title>
<g id="a_edge3_Node000002_Node000004"><a xlink:title=" ">
<path fill="none" stroke="#63b8ff" d="M299.08,-109.37C279.77,-116.54 256.84,-125.06 239.25,-131.6"/>
<polygon fill="#63b8ff" stroke="#63b8ff" points="300.1,-112.72 308.26,-105.96 297.66,-106.16 300.1,-112.72"/>
</a>
</g>
</g>
<!-- Node5 -->
<g id="Node000005" class="node">
<title>Node5</title>
<g id="a_Node000005"><a xlink:href="notation_8cpp.html#a62cf95674b846c7a13035e3c92ab1bcd" target="_top" xlink:title="Parse a move from coordinate notation.">
<polygon fill="white" stroke="#666666" points="255,-20 165.5,-20 165.5,0 255,0 255,-20"/>
<text xml:space="preserve" text-anchor="middle" x="210.25" y="-6.5" font-family="Helvetica,sans-Serif" font-size="10.00">parseMoveString</text>
</a>
</g>
</g>
<!-- Node2&#45;&gt;Node5 -->
<g id="edge4_Node000002_Node000005" class="edge">
<title>Node2&#45;&gt;Node5</title>
<g id="a_edge4_Node000002_Node000005"><a xlink:title=" ">
<path fill="none" stroke="#63b8ff" d="M297.2,-79.57C295.31,-78.44 293.48,-77.25 291.75,-76 271.84,-61.58 274.89,-49.43 255.75,-34 249.33,-28.82 241.62,-24.21 234.44,-20.45"/>
<polygon fill="#63b8ff" stroke="#63b8ff" points="295.15,-82.45 305.64,-83.97 298.38,-76.24 295.15,-82.45"/>
</a>
</g>
</g>
<!-- Node6 -->
<g id="Node000006" class="node">
<title>Node6</title>
<g id="a_Node000006"><a xlink:href="perft_8cpp.html#a84c7e465b44101a59f96b9c21ed0224b" target="_top" xlink:title="Runs a perft search from a given board state.">
<polygon fill="white" stroke="#666666" points="228.75,-96 191.75,-96 191.75,-76 228.75,-76 228.75,-96"/>
<text xml:space="preserve" text-anchor="middle" x="210.25" y="-82.5" font-family="Helvetica,sans-Serif" font-size="10.00">Perft</text>
</a>
</g>
</g>
<!-- Node2&#45;&gt;Node6 -->
<g id="edge5_Node000002_Node000006" class="edge">
<title>Node2&#45;&gt;Node6</title>
<g id="a_edge5_Node000002_Node000006"><a xlink:title=" ">
<path fill="none" stroke="#63b8ff" d="M280.04,-90.89C261.64,-89.59 242.61,-88.23 229.24,-87.28"/>
<polygon fill="#63b8ff" stroke="#63b8ff" points="279.63,-94.37 289.85,-91.59 280.13,-87.39 279.63,-94.37"/>
</a>
</g>
</g>
<!-- Node7 -->
<g id="Node000007" class="node">
<title>Node7</title>
<g id="a_Node000007"><a xlink:href="perft_8cpp.html#a1b6b13d186dab20a18cec1a6b041220b" target="_top" xlink:title="Executes a perft test and prints move breakdown and timing.">
<polygon fill="white" stroke="#666666" points="128.75,-96 73,-96 73,-76 128.75,-76 128.75,-96"/>
<text xml:space="preserve" text-anchor="middle" x="100.88" y="-82.5" font-family="Helvetica,sans-Serif" font-size="10.00">PerftTest</text>
</a>
</g>
</g>
<!-- Node2&#45;&gt;Node7 -->
<g id="edge9_Node000002_Node000007" class="edge">
<title>Node2&#45;&gt;Node7</title>
<g id="a_edge9_Node000002_Node000007"><a xlink:title=" ">
<path fill="none" stroke="#63b8ff" d="M303.44,-80.47C288.99,-75.1 271.83,-69.67 255.75,-67 215.85,-60.38 204.76,-61.09 164.75,-67 152.79,-68.77 139.96,-72.33 129.02,-75.9"/>
<polygon fill="#63b8ff" stroke="#63b8ff" points="301.89,-83.62 312.48,-83.97 304.42,-77.1 301.89,-83.62"/>
</a>
</g>
</g>
<!-- Node6&#45;&gt;Node6 -->
<g id="edge6_Node000006_Node000006" class="edge">
<title>Node6&#45;&gt;Node6</title>
<g id="a_edge6_Node000006_Node000006"><a xlink:title=" ">
<path fill="none" stroke="#63b8ff" d="M229.58,-107.44C227.09,-111.3 220.65,-114 210.25,-114 191.24,-114 185.44,-104.98 192.87,-96.34"/>
<polygon fill="#63b8ff" stroke="#63b8ff" points="233.07,-107.07 227.89,-97.83 226.18,-108.28 233.07,-107.07"/>
</a>
</g>
</g>
<!-- Node6&#45;&gt;Node7 -->
<g id="edge7_Node000006_Node000007" class="edge">
<title>Node6&#45;&gt;Node7</title>
<g id="a_edge7_Node000006_Node000007"><a xlink:title=" ">
<path fill="none" stroke="#63b8ff" d="M180.16,-86C164.19,-86 144.52,-86 128.9,-86"/>
<polygon fill="#63b8ff" stroke="#63b8ff" points="180.01,-89.5 190.01,-86 180.01,-82.5 180.01,-89.5"/>
</a>
</g>
</g>
<!-- Node8 -->
<g id="Node000008" class="node">
<title>Node8</title>
<g id="a_Node000008"><a xlink:href="main_8cpp.html#ae66f6b31b5ad750f1fe042a706a4e3d4" target="_top" xlink:title=" ">
<polygon fill="white" stroke="#666666" points="37,-96 0,-96 0,-76 37,-76 37,-96"/>
<text xml:space="preserve" text-anchor="middle" x="18.5" y="-82.5" font-family="Helvetica,sans-Serif" font-size="10.00">main</text>
</a>
</g>
</g>
<!-- Node7&#45;&gt;Node8 -->
<g id="edge8_Node000007_Node000008" class="edge">
<title>Node7&#45;&gt;Node8</title>
<g id="a_edge8_Node000007_Node000008"><a xlink:title=" ">
<path fill="none" stroke="#63b8ff" d="M61.39,-86C52.98,-86 44.47,-86 37.34,-86"/>
<polygon fill="#63b8ff" stroke="#63b8ff" points="61.15,-89.5 71.15,-86 61.15,-82.5 61.15,-89.5"/>
</a>
</g>
</g>
<!-- Node9&#45;&gt;Node3 -->
<g id="edge11_Node000009_Node000003" class="edge">
<title>Node9&#45;&gt;Node3</title>
<g id="a_edge11_Node000009_Node000003"><a xlink:title=" ">
<path fill="none" stroke="#63b8ff" d="M295.74,-154.62C279.66,-159.45 261.51,-164.9 246.17,-169.51"/>
<polygon fill="#63b8ff" stroke="#63b8ff" points="296.46,-158.06 305.03,-151.83 294.45,-151.35 296.46,-158.06"/>
</a>
</g>
</g>
<!-- Node9&#45;&gt;Node4 -->
<g id="edge12_Node000009_Node000004" class="edge">
<title>Node9&#45;&gt;Node4</title>
<g id="a_edge12_Node000009_Node000004"><a xlink:title=" ">
<path fill="none" stroke="#63b8ff" d="M295.38,-142C278.76,-142 259.97,-142 244.37,-142"/>
<polygon fill="#63b8ff" stroke="#63b8ff" points="294.97,-145.5 304.97,-142 294.97,-138.5 294.97,-145.5"/>
</a>
</g>
</g>
<!-- Node9&#45;&gt;Node6 -->
<g id="edge13_Node000009_Node000006" class="edge">
<title>Node9&#45;&gt;Node6</title>
<g id="a_edge13_Node000009_Node000006"><a xlink:title=" ">
<path fill="none" stroke="#63b8ff" d="M303.75,-126.95C279.63,-116.27 248.23,-102.37 228.92,-93.82"/>
<polygon fill="#63b8ff" stroke="#63b8ff" points="302.31,-130.14 312.87,-130.99 305.14,-123.74 302.31,-130.14"/>
</a>
</g>
</g>
<!-- Node9&#45;&gt;Node7 -->
<g id="edge14_Node000009_Node000007" class="edge">
<title>Node9&#45;&gt;Node7</title>
<g id="a_edge14_Node000009_Node000007"><a xlink:title=" ">
<path fill="none" stroke="#63b8ff" d="M319.61,-159.56C304.07,-173.28 280.37,-191.28 255.75,-199 217.16,-211.1 199.61,-219.5 164.75,-199 125.85,-176.13 109.27,-119.51 103.95,-96.24"/>
<polygon fill="#63b8ff" stroke="#63b8ff" points="321.64,-162.44 326.64,-153.1 316.9,-157.29 321.64,-162.44"/>
</a>
</g>
</g>
</g>
</svg>

<g id="navigator" transform="translate(0 0)" fill="#404254">
  <rect fill="#f2f5e9" fill-opacity="0.5" stroke="#606060" stroke-width=".5" x="0" y="0" width="60" height="60"/>
  <use id="zoomplus" xlink:href="#zoomPlus" x="17" y="9" onmousedown="handleZoom(evt,'in')"/>
  <use id="zoomminus" xlink:href="#zoomMin" x="42" y="9" onmousedown="handleZoom(evt,'out')"/>
  <use id="reset" xlink:href="#resetDef" x="30" y="36" onmousedown="handleReset()"/>
   <use id="arrowup" xlink:href="#arrowUp" x="0" y="0" onmousedown="handlePan(0,-1)"/>
  <use id="arrowright" xlink:href="#arrowRight" x="0" y="0" onmousedown="handlePan(1,0)"/>
  <use id="arrowdown" xlink:href="#arrowDown" x="0" y="0" onmousedown="handlePan(0,1)"/>
  <use id="arrowleft" xlink:href="#arrowLeft" x="0" y="0" onmousedown="handlePan(-1,0)"/>
</g>
<svg viewBox="0 0 15 15" width="100%" height="30px" preserveAspectRatio="xMaxYMin meet">
 <g id="arrow_out" transform="scale(0.3 0.3)">
  <a xlink:href="attack_8h_afdbecfb12eca8947bb7288387c9ce534_icgraph_org.svg" target="_base">
   <rect id="button" ry="5" rx="5" y="6" x="6" height="38" width="38"
        fill="#f2f5e9" fill-opacity="0.5" stroke="#606060" stroke-width="1.0"/>
   <path id="arrow"
     d="M 11.500037,31.436501 C 11.940474,20.09759 22.043105,11.32322 32.158766,21.979434 L 37.068811,17.246167 C 37.068811,17.246167 37.088388,32 37.088388,32 L 22.160133,31.978069 C 22.160133,31.978069 26.997745,27.140456 26.997745,27.140456 C 18.528582,18.264221 13.291696,25.230495 11.500037,31.436501 z"
     style="fill:#404040;"/>
  </a>
 </g>
</svg>

<style type='text/css'>
<![CDATA[
[data-mouse-over-selected='false'] { opacity: 0.7; }
[data-mouse-over-selected='true']  { opacity: 1.0; }
]]>
</style>
<script type="application/ecmascript"><![CDATA[
document.addEventListener('DOMContentLoaded', (event) => {
  highlightEdges();
  highlightAdjacentNodes();
});
]]></script>
</svg>
