<?xml version="1.0" encoding="UTF-8" standalone="no"?>
<!DOCTYPE svg PUBLIC "-//W3C//DTD SVG 1.1//EN"
 "http://www.w3.org/Graphics/SVG/1.1/DTD/svg11.dtd">
<!-- Generated by graphviz version 13.1.2 (20250808.2320)
 -->
<!-- Title: isSquareAttacked Pages: 1 -->
<svg width="496pt" height="218pt"
 viewBox="0.00 0.00 496.00 218.00" xmlns="http://www.w3.org/2000/svg" xmlns:xlink="http://www.w3.org/1999/xlink">
<g id="graph0" class="graph" transform="scale(1 1) rotate(0) translate(4 214)">
<title>isSquareAttacked</title>
<!-- Node1 -->
<g id="Node000001" class="node">
<title>Node1</title>
<g id="a_Node000001"><a xlink:title="Determines if a given square is attacked by a given side.">
<polygon fill="#999999" stroke="#666666" points="93.25,-96 0,-96 0,-76 93.25,-76 93.25,-96"/>
<text xml:space="preserve" text-anchor="middle" x="46.62" y="-82.5" font-family="Helvetica,sans-Serif" font-size="10.00">isSquareAttacked</text>
</a>
</g>
</g>
<!-- Node2 -->
<g id="Node000002" class="node">
<title>Node2</title>
<g id="a_Node000002"><a xlink:href="board_8cpp.html#a27f071824f45c724e8ddd02c72b39871" target="_top" xlink:title="Performs a full internal consistency check of the board state.">
<polygon fill="white" stroke="#666666" points="230.38,-172 137.12,-172 137.12,-152 230.38,-152 230.38,-172"/>
<text xml:space="preserve" text-anchor="middle" x="183.75" y="-158.5" font-family="Helvetica,sans-Serif" font-size="10.00">isBoardStateValid</text>
</a>
</g>
</g>
<!-- Node1&#45;&gt;Node2 -->
<g id="edge1_Node000001_Node000002" class="edge">
<title>Node1&#45;&gt;Node2</title>
<g id="a_edge1_Node000001_Node000002"><a xlink:title=" ">
<path fill="none" stroke="#63b8ff" d="M62.57,-96.46C78.64,-107.48 105.14,-125 129.25,-138 134.85,-141.02 140.91,-143.99 146.86,-146.77"/>
<polygon fill="#63b8ff" stroke="#63b8ff" points="145.41,-149.96 155.97,-150.88 148.29,-143.58 145.41,-149.96"/>
</a>
</g>
</g>
<!-- Node4 -->
<g id="Node000004" class="node">
<title>Node4</title>
<g id="a_Node000004"><a xlink:href="validate_8cpp.html#ad5a569564ef016ed02a4fef23d89d9c4" target="_top" xlink:title="Checks if a given square index refers to a valid on&#45;board square.">
<polygon fill="white" stroke="#666666" points="487.75,-172 421.5,-172 421.5,-152 487.75,-152 487.75,-172"/>
<text xml:space="preserve" text-anchor="middle" x="454.62" y="-158.5" font-family="Helvetica,sans-Serif" font-size="10.00">SqOnBoard</text>
</a>
</g>
</g>
<!-- Node1&#45;&gt;Node4 -->
<g id="edge9_Node000001_Node000004" class="edge">
<title>Node1&#45;&gt;Node4</title>
<g id="a_edge9_Node000001_Node000004"><a xlink:title=" ">
<path fill="none" stroke="#63b8ff" d="M89.43,-96.42C102.17,-99.41 116.24,-102.53 129.25,-105 242.36,-126.51 272.89,-119.04 385.5,-143 393.59,-144.72 402.14,-146.85 410.35,-149.06"/>
<polygon fill="#63b8ff" stroke="#63b8ff" points="409.23,-152.38 419.8,-151.68 411.1,-145.63 409.23,-152.38"/>
</a>
</g>
</g>
<!-- Node6 -->
<g id="Node000006" class="node">
<title>Node6</title>
<g id="a_Node000006"><a xlink:href="validate_8cpp.html#aac5a1baab60b7b72d85de73be258f91b" target="_top" xlink:title="Checks if the given piece code is empty, valid, or OFFBOARD.">
<polygon fill="white" stroke="#666666" points="238.25,-96 129.25,-96 129.25,-76 238.25,-76 238.25,-96"/>
<text xml:space="preserve" text-anchor="middle" x="183.75" y="-82.5" font-family="Helvetica,sans-Serif" font-size="10.00">PceValidEmptyOffbrd</text>
</a>
</g>
</g>
<!-- Node1&#45;&gt;Node6 -->
<g id="edge6_Node000001_Node000006" class="edge">
<title>Node1&#45;&gt;Node6</title>
<g id="a_edge6_Node000001_Node000006"><a xlink:title=" ">
<path fill="none" stroke="#63b8ff" d="M93.75,-86C101.44,-86 109.54,-86 117.6,-86"/>
<polygon fill="#63b8ff" stroke="#63b8ff" points="117.4,-89.5 127.4,-86 117.4,-82.5 117.4,-89.5"/>
</a>
</g>
</g>
<!-- Node7 -->
<g id="Node000007" class="node">
<title>Node7</title>
<g id="a_Node000007"><a xlink:href="validate_8cpp.html#ad7a2e012bffa6db3df97e7742c9d731d" target="_top" xlink:title="Checks if the given side identifier is valid.">
<polygon fill="white" stroke="#666666" points="212,-58 155.5,-58 155.5,-38 212,-38 212,-58"/>
<text xml:space="preserve" text-anchor="middle" x="183.75" y="-44.5" font-family="Helvetica,sans-Serif" font-size="10.00">SideValid</text>
</a>
</g>
</g>
<!-- Node1&#45;&gt;Node7 -->
<g id="edge7_Node000001_Node000007" class="edge">
<title>Node1&#45;&gt;Node7</title>
<g id="a_edge7_Node000001_Node000007"><a xlink:title=" ">
<path fill="none" stroke="#63b8ff" d="M84.91,-75.52C103.28,-70.35 125.42,-64.12 143.99,-58.9"/>
<polygon fill="#63b8ff" stroke="#63b8ff" points="144.88,-62.28 153.56,-56.21 142.99,-55.55 144.88,-62.28"/>
</a>
</g>
</g>
<!-- Node8 -->
<g id="Node000008" class="node">
<title>Node8</title>
<g id="a_Node000008"><a xlink:href="validate_8cpp.html#a48b5f0e20cf731ceeeb659fbc27b972c" target="_top" xlink:title="Checks if a given square index is within the 120&#45;based range.">
<polygon fill="white" stroke="#666666" points="209.75,-20 157.75,-20 157.75,0 209.75,0 209.75,-20"/>
<text xml:space="preserve" text-anchor="middle" x="183.75" y="-6.5" font-family="Helvetica,sans-Serif" font-size="10.00">SqIs120</text>
</a>
</g>
</g>
<!-- Node1&#45;&gt;Node8 -->
<g id="edge8_Node000001_Node000008" class="edge">
<title>Node1&#45;&gt;Node8</title>
<g id="a_edge8_Node000001_Node000008"><a xlink:title=" ">
<path fill="none" stroke="#63b8ff" d="M60.23,-75.58C75.7,-63.17 103.13,-42.45 129.25,-29 134.78,-26.15 140.84,-23.55 146.83,-21.25"/>
<polygon fill="#63b8ff" stroke="#63b8ff" points="147.75,-24.64 155.97,-17.96 145.38,-18.06 147.75,-24.64"/>
</a>
</g>
</g>
<!-- Node3 -->
<g id="Node000003" class="node">
<title>Node3</title>
<g id="a_Node000003"><a xlink:href="hash__keys_8cpp.html#a8c1832e1dfd853cce944ddd2df57dd53" target="_top" xlink:title="Generates a Zobrist hash key for the given board position.">
<polygon fill="white" stroke="#666666" points="385.5,-210 274.25,-210 274.25,-190 385.5,-190 385.5,-210"/>
<text xml:space="preserve" text-anchor="middle" x="329.88" y="-196.5" font-family="Helvetica,sans-Serif" font-size="10.00">generatePositionKeys</text>
</a>
</g>
</g>
<!-- Node2&#45;&gt;Node3 -->
<g id="edge2_Node000002_Node000003" class="edge">
<title>Node2&#45;&gt;Node3</title>
<g id="a_edge2_Node000002_Node000003"><a xlink:title=" ">
<path fill="none" stroke="#63b8ff" d="M224.51,-172.48C241.13,-176.87 260.64,-182.01 278.27,-186.66"/>
<polygon fill="#63b8ff" stroke="#63b8ff" points="277.22,-190 287.78,-189.16 279,-183.23 277.22,-190"/>
</a>
</g>
</g>
<!-- Node5 -->
<g id="Node000005" class="node">
<title>Node5</title>
<g id="a_Node000005"><a xlink:href="board_8cpp.html#addbaf4fbab51f8032e0e7aabbffeab96" target="_top" xlink:title="Validate that piece list array is consistent with board state.">
<polygon fill="white" stroke="#666666" points="372.38,-172 287.38,-172 287.38,-152 372.38,-152 372.38,-172"/>
<text xml:space="preserve" text-anchor="middle" x="329.88" y="-158.5" font-family="Helvetica,sans-Serif" font-size="10.00">isPieceListValid</text>
</a>
</g>
</g>
<!-- Node2&#45;&gt;Node5 -->
<g id="edge4_Node000002_Node000005" class="edge">
<title>Node2&#45;&gt;Node5</title>
<g id="a_edge4_Node000002_Node000005"><a xlink:title=" ">
<path fill="none" stroke="#63b8ff" d="M230.75,-162C245.19,-162 261.25,-162 276.12,-162"/>
<polygon fill="#63b8ff" stroke="#63b8ff" points="275.7,-165.5 285.7,-162 275.7,-158.5 275.7,-165.5"/>
</a>
</g>
</g>
<!-- Node3&#45;&gt;Node4 -->
<g id="edge3_Node000003_Node000004" class="edge">
<title>Node3&#45;&gt;Node4</title>
<g id="a_edge3_Node000003_Node000004"><a xlink:title=" ">
<path fill="none" stroke="#63b8ff" d="M364.74,-189.52C378.9,-185.13 395.53,-179.98 410.55,-175.34"/>
<polygon fill="#63b8ff" stroke="#63b8ff" points="411.17,-178.81 419.69,-172.5 409.1,-172.12 411.17,-178.81"/>
</a>
</g>
</g>
<!-- Node5&#45;&gt;Node4 -->
<g id="edge5_Node000005_Node000004" class="edge">
<title>Node5&#45;&gt;Node4</title>
<g id="a_edge5_Node000005_Node000004"><a xlink:title=" ">
<path fill="none" stroke="#63b8ff" d="M372.78,-162C384.78,-162 397.88,-162 409.99,-162"/>
<polygon fill="#63b8ff" stroke="#63b8ff" points="409.7,-165.5 419.7,-162 409.7,-158.5 409.7,-165.5"/>
</a>
</g>
</g>
</g>
</svg>
