<?xml version="1.0" encoding="UTF-8" standalone="no"?>
<!DOCTYPE svg PUBLIC "-//W3C//DTD SVG 1.1//EN"
 "http://www.w3.org/Graphics/SVG/1.1/DTD/svg11.dtd">
<!-- Generated by graphviz version 13.1.2 (20250808.2320)
 -->
<!-- Title: bitboards.cpp Pages: 1 -->
<svg width="235pt" height="252pt"
 viewBox="0.00 0.00 235.00 252.00" xmlns="http://www.w3.org/2000/svg" xmlns:xlink="http://www.w3.org/1999/xlink">

<svg id="main" version="1.1" xmlns="http://www.w3.org/2000/svg" xmlns:xlink="http://www.w3.org/1999/xlink" xml:space="preserve">

<style type="text/css"><![CDATA[
.node, .edge {opacity: 0.7;}
.node.selected, .edge.selected {opacity: 1;}
.edge:hover path { stroke: red; }
.edge:hover polygon { stroke: red; fill: red; }
]]></style>
<script type="application/ecmascript" xlink:href="svg.min.js"/>
<svg id="graph" class="graph">
<g id="graph0" class="graph" transform="scale(1 1) rotate(0) translate(4 248)">
<title>bitboards.cpp</title>
<!-- Node1 -->
<g id="Node000001" class="node">
<title>Node1</title>
<g id="a_Node000001"><a xlink:title=" ">
<polygon fill="#999999" stroke="#666666" points="97.88,-244 23.38,-244 23.38,-224 97.88,-224 97.88,-244"/>
<text xml:space="preserve" text-anchor="middle" x="60.62" y="-230.5" font-family="Helvetica,sans-Serif" font-size="10.00">bitboards.cpp</text>
</a>
</g>
</g>
<!-- Node2 -->
<g id="Node000002" class="node">
<title>Node2</title>
<g id="a_Node000002"><a xlink:title=" ">
<polygon fill="#e0e0e0" stroke="#999999" points="45.25,-76 0,-76 0,-56 45.25,-56 45.25,-76"/>
<text xml:space="preserve" text-anchor="middle" x="22.62" y="-62.5" font-family="Helvetica,sans-Serif" font-size="10.00">stdio.h</text>
</a>
</g>
</g>
<!-- Node1&#45;&gt;Node2 -->
<g id="edge1_Node000001_Node000002" class="edge">
<title>Node1&#45;&gt;Node2</title>
<g id="a_edge1_Node000001_Node000002"><a xlink:title=" ">
<path fill="none" stroke="#63b8ff" d="M58.47,-223.6C52.49,-197.46 35.56,-123.48 27.29,-87.36"/>
<polygon fill="#63b8ff" stroke="#63b8ff" points="30.73,-86.74 25.09,-77.77 23.91,-88.3 30.73,-86.74"/>
</a>
</g>
</g>
<!-- Node3 -->
<g id="Node000003" class="node">
<title>Node3</title>
<g id="a_Node000003"><a xlink:href="defs_8h.html" target="_top" xlink:title=" ">
<polygon fill="white" stroke="#666666" points="121.12,-132 78.12,-132 78.12,-112 121.12,-112 121.12,-132"/>
<text xml:space="preserve" text-anchor="middle" x="99.62" y="-118.5" font-family="Helvetica,sans-Serif" font-size="10.00">defs.h</text>
</a>
</g>
</g>
<!-- Node1&#45;&gt;Node3 -->
<g id="edge2_Node000001_Node000003" class="edge">
<title>Node1&#45;&gt;Node3</title>
<g id="a_edge2_Node000001_Node000003"><a xlink:title=" ">
<path fill="none" stroke="#63b8ff" d="M62.95,-223.62C66.19,-210.87 72.5,-187.43 79.62,-168 82.75,-159.48 86.72,-150.29 90.3,-142.45"/>
<polygon fill="#63b8ff" stroke="#63b8ff" points="93.4,-144.07 94.48,-133.53 87.07,-141.1 93.4,-144.07"/>
</a>
</g>
</g>
<!-- Node7 -->
<g id="Node000007" class="node">
<title>Node7</title>
<g id="a_Node000007"><a xlink:href="setup_8h.html" target="_top" xlink:title=" ">
<polygon fill="white" stroke="#666666" points="136.75,-188 88.5,-188 88.5,-168 136.75,-168 136.75,-188"/>
<text xml:space="preserve" text-anchor="middle" x="112.62" y="-174.5" font-family="Helvetica,sans-Serif" font-size="10.00">setup.h</text>
</a>
</g>
</g>
<!-- Node1&#45;&gt;Node7 -->
<g id="edge8_Node000001_Node000007" class="edge">
<title>Node1&#45;&gt;Node7</title>
<g id="a_edge8_Node000001_Node000007"><a xlink:title=" ">
<path fill="none" stroke="#63b8ff" d="M69.68,-223.59C76.84,-216.16 87.03,-205.58 95.69,-196.58"/>
<polygon fill="#63b8ff" stroke="#63b8ff" points="98.21,-199.02 102.62,-189.39 93.16,-194.16 98.21,-199.02"/>
</a>
</g>
</g>
<!-- Node3&#45;&gt;Node2 -->
<g id="edge4_Node000003_Node000002" class="edge">
<title>Node3&#45;&gt;Node2</title>
<g id="a_edge4_Node000003_Node000002"><a xlink:title=" ">
<path fill="none" stroke="#63b8ff" d="M86.21,-111.59C75.02,-103.74 58.81,-92.38 45.57,-83.09"/>
<polygon fill="#63b8ff" stroke="#63b8ff" points="47.58,-80.22 37.38,-77.35 43.56,-85.96 47.58,-80.22"/>
</a>
</g>
</g>
<!-- Node4 -->
<g id="Node000004" class="node">
<title>Node4</title>
<g id="a_Node000004"><a xlink:title=" ">
<polygon fill="#e0e0e0" stroke="#999999" points="110.38,-76 62.88,-76 62.88,-56 110.38,-56 110.38,-76"/>
<text xml:space="preserve" text-anchor="middle" x="86.62" y="-62.5" font-family="Helvetica,sans-Serif" font-size="10.00">stdlib.h</text>
</a>
</g>
</g>
<!-- Node3&#45;&gt;Node4 -->
<g id="edge3_Node000003_Node000004" class="edge">
<title>Node3&#45;&gt;Node4</title>
<g id="a_edge3_Node000003_Node000004"><a xlink:title=" ">
<path fill="none" stroke="#63b8ff" d="M97.36,-111.59C95.76,-104.93 93.55,-95.75 91.55,-87.44"/>
<polygon fill="#63b8ff" stroke="#63b8ff" points="94.96,-86.67 89.22,-77.77 88.16,-88.31 94.96,-86.67"/>
</a>
</g>
</g>
<!-- Node5 -->
<g id="Node000005" class="node">
<title>Node5</title>
<g id="a_Node000005"><a xlink:href="board__data_8h.html" target="_top" xlink:title=" ">
<polygon fill="white" stroke="#666666" points="227.25,-76 128,-76 128,-56 227.25,-56 227.25,-76"/>
<text xml:space="preserve" text-anchor="middle" x="177.62" y="-62.5" font-family="Helvetica,sans-Serif" font-size="10.00">board/board_data.h</text>
</a>
</g>
</g>
<!-- Node3&#45;&gt;Node5 -->
<g id="edge5_Node000003_Node000005" class="edge">
<title>Node3&#45;&gt;Node5</title>
<g id="a_edge5_Node000003_Node000005"><a xlink:title=" ">
<path fill="none" stroke="#63b8ff" d="M107.94,-111.59C117.9,-103.59 134.44,-91.93 148.99,-82.54"/>
<polygon fill="#63b8ff" stroke="#63b8ff" points="150.76,-85.57 157.37,-77.28 147.04,-79.64 150.76,-85.57"/>
</a>
</g>
</g>
<!-- Node5&#45;&gt;Node3 -->
<g id="edge7_Node000005_Node000003" class="edge">
<title>Node5&#45;&gt;Node3</title>
<g id="a_edge7_Node000005_Node000003"><a xlink:title=" ">
<path fill="none" stroke="#63b8ff" d="M169.44,-76.3C159.48,-84.32 142.82,-96.06 128.18,-105.5"/>
<polygon fill="#63b8ff" stroke="#63b8ff" points="126.37,-102.51 119.76,-110.79 130.09,-108.44 126.37,-102.51"/>
</a>
</g>
</g>
<!-- Node6 -->
<g id="Node000006" class="node">
<title>Node6</title>
<g id="a_Node000006"><a xlink:title=" ">
<polygon fill="#e0e0e0" stroke="#999999" points="196.5,-20 158.75,-20 158.75,0 196.5,0 196.5,-20"/>
<text xml:space="preserve" text-anchor="middle" x="177.62" y="-6.5" font-family="Helvetica,sans-Serif" font-size="10.00">array</text>
</a>
</g>
</g>
<!-- Node5&#45;&gt;Node6 -->
<g id="edge6_Node000005_Node000006" class="edge">
<title>Node5&#45;&gt;Node6</title>
<g id="a_edge6_Node000005_Node000006"><a xlink:title=" ">
<path fill="none" stroke="#63b8ff" d="M177.62,-55.59C177.62,-49.01 177.62,-39.96 177.62,-31.73"/>
<polygon fill="#63b8ff" stroke="#63b8ff" points="181.13,-31.81 177.63,-21.81 174.13,-31.81 181.13,-31.81"/>
</a>
</g>
</g>
<!-- Node7&#45;&gt;Node3 -->
<g id="edge9_Node000007_Node000003" class="edge">
<title>Node7&#45;&gt;Node3</title>
<g id="a_edge9_Node000007_Node000003"><a xlink:title=" ">
<path fill="none" stroke="#63b8ff" d="M110.36,-167.59C108.76,-160.93 106.55,-151.75 104.55,-143.44"/>
<polygon fill="#63b8ff" stroke="#63b8ff" points="107.96,-142.67 102.22,-133.77 101.16,-144.31 107.96,-142.67"/>
</a>
</g>
</g>
</g>
</svg>
</svg>

<style type='text/css'>
<![CDATA[
[data-mouse-over-selected='false'] { opacity: 0.7; }
[data-mouse-over-selected='true']  { opacity: 1.0; }
]]>
</style>
<script type="application/ecmascript"><![CDATA[
document.addEventListener('DOMContentLoaded', (event) => {
  highlightEdges();
  highlightAdjacentNodes();
});
]]></script>
</svg>
