<?xml version="1.0" encoding="UTF-8" standalone="no"?>
<!DOCTYPE svg PUBLIC "-//W3C//DTD SVG 1.1//EN"
 "http://www.w3.org/Graphics/SVG/1.1/DTD/svg11.dtd">
<!-- Generated by graphviz version 13.1.2 (20250808.2320)
 -->
<!-- Title: mirrorBoardPosition Pages: 1 -->
<svg width="496pt" height="161pt"
 viewBox="0.00 0.00 496.00 161.00" xmlns="http://www.w3.org/2000/svg" xmlns:xlink="http://www.w3.org/1999/xlink">
<g id="graph0" class="graph" transform="scale(1 1) rotate(0) translate(4 157)">
<title>mirrorBoardPosition</title>
<!-- Node1 -->
<g id="Node000001" class="node">
<title>Node1</title>
<g id="a_Node000001"><a xlink:title="Flip the board vertically, swapping colors and positions.">
<polygon fill="#999999" stroke="#666666" points="101.5,-96 0,-96 0,-76 101.5,-76 101.5,-96"/>
<text xml:space="preserve" text-anchor="middle" x="50.75" y="-82.5" font-family="Helvetica,sans-Serif" font-size="10.00">mirrorBoardPosition</text>
</a>
</g>
</g>
<!-- Node2 -->
<g id="Node000002" class="node">
<title>Node2</title>
<g id="a_Node000002"><a xlink:href="hash__keys_8cpp.html#a8c1832e1dfd853cce944ddd2df57dd53" target="_top" xlink:title="Generates a Zobrist hash key for the given board position.">
<polygon fill="white" stroke="#666666" points="385.5,-153 274.25,-153 274.25,-133 385.5,-133 385.5,-153"/>
<text xml:space="preserve" text-anchor="middle" x="329.88" y="-139.5" font-family="Helvetica,sans-Serif" font-size="10.00">generatePositionKeys</text>
</a>
</g>
</g>
<!-- Node1&#45;&gt;Node2 -->
<g id="edge1_Node000001_Node000002" class="edge">
<title>Node1&#45;&gt;Node2</title>
<g id="a_edge1_Node000001_Node000002"><a xlink:title=" ">
<path fill="none" stroke="#63b8ff" d="M70.53,-96.42C87.49,-105.31 113.41,-117.64 137.5,-124 178.31,-134.77 225.49,-139.54 262.79,-141.6"/>
<polygon fill="#63b8ff" stroke="#63b8ff" points="262.35,-145.09 272.52,-142.09 262.7,-138.09 262.35,-145.09"/>
</a>
</g>
</g>
<!-- Node4 -->
<g id="Node000004" class="node">
<title>Node4</title>
<g id="a_Node000004"><a xlink:href="board_8cpp.html#a27f071824f45c724e8ddd02c72b39871" target="_top" xlink:title="Performs a full internal consistency check of the board state.">
<polygon fill="white" stroke="#666666" points="234.5,-115 141.25,-115 141.25,-95 234.5,-95 234.5,-115"/>
<text xml:space="preserve" text-anchor="middle" x="187.88" y="-101.5" font-family="Helvetica,sans-Serif" font-size="10.00">isBoardStateValid</text>
</a>
</g>
</g>
<!-- Node1&#45;&gt;Node4 -->
<g id="edge3_Node000001_Node000004" class="edge">
<title>Node1&#45;&gt;Node4</title>
<g id="a_edge3_Node000001_Node000004"><a xlink:title=" ">
<path fill="none" stroke="#63b8ff" d="M101.68,-93.02C110.87,-94.31 120.54,-95.67 129.92,-96.99"/>
<polygon fill="#63b8ff" stroke="#63b8ff" points="129.28,-100.44 139.67,-98.36 130.26,-93.5 129.28,-100.44"/>
</a>
</g>
</g>
<!-- Node6 -->
<g id="Node000006" class="node">
<title>Node6</title>
<g id="a_Node000006"><a xlink:href="board_8cpp.html#a450b9988728615700e2d0677aa92d871" target="_top" xlink:title="Reset board to empty state.">
<polygon fill="white" stroke="#666666" points="231.12,-77 144.62,-77 144.62,-57 231.12,-57 231.12,-77"/>
<text xml:space="preserve" text-anchor="middle" x="187.88" y="-63.5" font-family="Helvetica,sans-Serif" font-size="10.00">resetBoardState</text>
</a>
</g>
</g>
<!-- Node1&#45;&gt;Node6 -->
<g id="edge7_Node000001_Node000006" class="edge">
<title>Node1&#45;&gt;Node6</title>
<g id="a_edge7_Node000001_Node000006"><a xlink:title=" ">
<path fill="none" stroke="#63b8ff" d="M101.68,-78.98C111.84,-77.55 122.57,-76.04 132.87,-74.59"/>
<polygon fill="#63b8ff" stroke="#63b8ff" points="133.34,-78.06 142.75,-73.2 132.36,-71.13 133.34,-78.06"/>
</a>
</g>
</g>
<!-- Node7 -->
<g id="Node000007" class="node">
<title>Node7</title>
<g id="a_Node000007"><a xlink:href="board_8cpp.html#ac392f2ff8c0f063425f09403c43d4cc5" target="_top" xlink:title="Update piece lists, material counts, and pawn bitboards from scratch.">
<polygon fill="white" stroke="#666666" points="238.25,-39 137.5,-39 137.5,-19 238.25,-19 238.25,-39"/>
<text xml:space="preserve" text-anchor="middle" x="187.88" y="-25.5" font-family="Helvetica,sans-Serif" font-size="10.00">updateListsMaterial</text>
</a>
</g>
</g>
<!-- Node1&#45;&gt;Node7 -->
<g id="edge8_Node000001_Node000007" class="edge">
<title>Node1&#45;&gt;Node7</title>
<g id="a_edge8_Node000001_Node000007"><a xlink:title=" ">
<path fill="none" stroke="#63b8ff" d="M74.55,-75.53C91.75,-67.72 115.98,-56.9 137.5,-48 141.09,-46.52 144.84,-45 148.6,-43.51"/>
<polygon fill="#63b8ff" stroke="#63b8ff" points="149.65,-46.86 157.69,-39.96 147.1,-40.34 149.65,-46.86"/>
</a>
</g>
</g>
<!-- Node3 -->
<g id="Node000003" class="node">
<title>Node3</title>
<g id="a_Node000003"><a xlink:href="validate_8cpp.html#ad5a569564ef016ed02a4fef23d89d9c4" target="_top" xlink:title="Checks if a given square index refers to a valid on&#45;board square.">
<polygon fill="white" stroke="#666666" points="487.75,-134 421.5,-134 421.5,-114 487.75,-114 487.75,-134"/>
<text xml:space="preserve" text-anchor="middle" x="454.62" y="-120.5" font-family="Helvetica,sans-Serif" font-size="10.00">SqOnBoard</text>
</a>
</g>
</g>
<!-- Node2&#45;&gt;Node3 -->
<g id="edge2_Node000002_Node000003" class="edge">
<title>Node2&#45;&gt;Node3</title>
<g id="a_edge2_Node000002_Node000003"><a xlink:title=" ">
<path fill="none" stroke="#63b8ff" d="M385.79,-134.5C393.94,-133.24 402.24,-131.95 410.11,-130.74"/>
<polygon fill="#63b8ff" stroke="#63b8ff" points="410.43,-134.23 419.78,-129.24 409.36,-127.31 410.43,-134.23"/>
</a>
</g>
</g>
<!-- Node4&#45;&gt;Node2 -->
<g id="edge4_Node000004_Node000002" class="edge">
<title>Node4&#45;&gt;Node2</title>
<g id="a_edge4_Node000004_Node000002"><a xlink:title=" ">
<path fill="none" stroke="#63b8ff" d="M227.5,-115.48C243.57,-119.85 262.42,-124.96 279.47,-129.59"/>
<polygon fill="#63b8ff" stroke="#63b8ff" points="278.35,-132.91 288.91,-132.15 280.18,-126.16 278.35,-132.91"/>
</a>
</g>
</g>
<!-- Node5 -->
<g id="Node000005" class="node">
<title>Node5</title>
<g id="a_Node000005"><a xlink:href="board_8cpp.html#addbaf4fbab51f8032e0e7aabbffeab96" target="_top" xlink:title="Validate that piece list array is consistent with board state.">
<polygon fill="white" stroke="#666666" points="372.38,-115 287.38,-115 287.38,-95 372.38,-95 372.38,-115"/>
<text xml:space="preserve" text-anchor="middle" x="329.88" y="-101.5" font-family="Helvetica,sans-Serif" font-size="10.00">isPieceListValid</text>
</a>
</g>
</g>
<!-- Node4&#45;&gt;Node5 -->
<g id="edge5_Node000004_Node000005" class="edge">
<title>Node4&#45;&gt;Node5</title>
<g id="a_edge5_Node000004_Node000005"><a xlink:title=" ">
<path fill="none" stroke="#63b8ff" d="M234.72,-105C247.92,-105 262.44,-105 276.04,-105"/>
<polygon fill="#63b8ff" stroke="#63b8ff" points="275.68,-108.5 285.68,-105 275.68,-101.5 275.68,-108.5"/>
</a>
</g>
</g>
<!-- Node5&#45;&gt;Node3 -->
<g id="edge6_Node000005_Node000003" class="edge">
<title>Node5&#45;&gt;Node3</title>
<g id="a_edge6_Node000005_Node000003"><a xlink:title=" ">
<path fill="none" stroke="#63b8ff" d="M372.78,-111.49C384.78,-113.34 397.88,-115.37 409.99,-117.25"/>
<polygon fill="#63b8ff" stroke="#63b8ff" points="409.3,-120.68 419.72,-118.75 410.37,-113.76 409.3,-120.68"/>
</a>
</g>
</g>
<!-- Node8 -->
<g id="Node000008" class="node">
<title>Node8</title>
<g id="a_Node000008"><a xlink:href="validate_8cpp.html#aac5a1baab60b7b72d85de73be258f91b" target="_top" xlink:title="Checks if the given piece code is empty, valid, or OFFBOARD.">
<polygon fill="white" stroke="#666666" points="384.38,-58 275.38,-58 275.38,-38 384.38,-38 384.38,-58"/>
<text xml:space="preserve" text-anchor="middle" x="329.88" y="-44.5" font-family="Helvetica,sans-Serif" font-size="10.00">PceValidEmptyOffbrd</text>
</a>
</g>
</g>
<!-- Node7&#45;&gt;Node8 -->
<g id="edge9_Node000007_Node000008" class="edge">
<title>Node7&#45;&gt;Node8</title>
<g id="a_edge9_Node000007_Node000008"><a xlink:title=" ">
<path fill="none" stroke="#63b8ff" d="M238.63,-35.75C246.73,-36.85 255.23,-38.01 263.64,-39.15"/>
<polygon fill="#63b8ff" stroke="#63b8ff" points="263.13,-42.61 273.51,-40.49 264.07,-35.67 263.13,-42.61"/>
</a>
</g>
</g>
<!-- Node9 -->
<g id="Node000009" class="node">
<title>Node9</title>
<g id="a_Node000009"><a xlink:href="validate_8cpp.html#ad7a2e012bffa6db3df97e7742c9d731d" target="_top" xlink:title="Checks if the given side identifier is valid.">
<polygon fill="white" stroke="#666666" points="358.12,-20 301.62,-20 301.62,0 358.12,0 358.12,-20"/>
<text xml:space="preserve" text-anchor="middle" x="329.88" y="-6.5" font-family="Helvetica,sans-Serif" font-size="10.00">SideValid</text>
</a>
</g>
</g>
<!-- Node7&#45;&gt;Node9 -->
<g id="edge10_Node000007_Node000009" class="edge">
<title>Node7&#45;&gt;Node9</title>
<g id="a_edge10_Node000007_Node000009"><a xlink:title=" ">
<path fill="none" stroke="#63b8ff" d="M238.63,-22.25C255.58,-19.95 274.26,-17.41 290.21,-15.25"/>
<polygon fill="#63b8ff" stroke="#63b8ff" points="290.33,-18.76 299.77,-13.95 289.39,-11.83 290.33,-18.76"/>
</a>
</g>
</g>
</g>
</svg>
