<?xml version="1.0" encoding="UTF-8" standalone="no"?>
<!DOCTYPE svg PUBLIC "-//W3C//DTD SVG 1.1//EN"
 "http://www.w3.org/Graphics/SVG/1.1/DTD/svg11.dtd">
<!-- Generated by graphviz version 13.1.2 (20250808.2320)
 -->
<!-- Title: board_data.h Pages: 1 -->
<svg width="1698pt" height="252pt"
 viewBox="0.00 0.00 1698.00 252.00" xmlns="http://www.w3.org/2000/svg" xmlns:xlink="http://www.w3.org/1999/xlink">
<g id="graph0" class="graph" transform="scale(1 1) rotate(0) translate(4 248)">
<title>board_data.h</title>
<!-- Node1 -->
<g id="Node000001" class="node">
<title>Node1</title>
<g id="a_Node000001"><a xlink:title=" ">
<polygon fill="#999999" stroke="#666666" points="918.85,-244 846.6,-244 846.6,-224 918.85,-224 918.85,-244"/>
<text xml:space="preserve" text-anchor="middle" x="882.73" y="-230.5" font-family="Helvetica,sans-Serif" font-size="10.00">board_data.h</text>
</a>
</g>
</g>
<!-- Node2 -->
<g id="Node000002" class="node">
<title>Node2</title>
<g id="a_Node000002"><a xlink:href="board_8cpp.html" target="_top" xlink:title=" ">
<polygon fill="white" stroke="#666666" points="1395.1,-20 1336.35,-20 1336.35,0 1395.1,0 1395.1,-20"/>
<text xml:space="preserve" text-anchor="middle" x="1365.73" y="-6.5" font-family="Helvetica,sans-Serif" font-size="10.00">board.cpp</text>
</a>
</g>
</g>
<!-- Node1&#45;&gt;Node2 -->
<g id="edge1_Node000001_Node000002" class="edge">
<title>Node1&#45;&gt;Node2</title>
<g id="a_edge1_Node000001_Node000002"><a xlink:title=" ">
<path fill="none" stroke="#63b8ff" d="M930.23,-230.81C1074.65,-222.92 1502.19,-190.08 1560.73,-76 1564.78,-68.09 1566.26,-62.96 1560.73,-56 1540.39,-30.44 1444.76,-18.15 1395.39,-13.43"/>
<polygon fill="#63b8ff" stroke="#63b8ff" points="930.45,-227.29 920.64,-231.31 930.82,-234.28 930.45,-227.29"/>
</a>
</g>
</g>
<!-- Node3 -->
<g id="Node000003" class="node">
<title>Node3</title>
<g id="a_Node000003"><a xlink:href="board__data_8cpp.html" target="_top" xlink:title=" ">
<polygon fill="white" stroke="#666666" points="1690.1,-188 1607.35,-188 1607.35,-168 1690.1,-168 1690.1,-188"/>
<text xml:space="preserve" text-anchor="middle" x="1648.73" y="-174.5" font-family="Helvetica,sans-Serif" font-size="10.00">board_data.cpp</text>
</a>
</g>
</g>
<!-- Node1&#45;&gt;Node3 -->
<g id="edge2_Node000001_Node000003" class="edge">
<title>Node1&#45;&gt;Node3</title>
<g id="a_edge2_Node000001_Node000003"><a xlink:title=" ">
<path fill="none" stroke="#63b8ff" d="M930.57,-231.61C1045.3,-227.91 1345.05,-216.15 1593.73,-188 1598.05,-187.51 1602.56,-186.91 1607.04,-186.27"/>
<polygon fill="#63b8ff" stroke="#63b8ff" points="930.49,-228.11 920.61,-231.92 930.71,-235.1 930.49,-228.11"/>
</a>
</g>
</g>
<!-- Node4 -->
<g id="Node000004" class="node">
<title>Node4</title>
<g id="a_Node000004"><a xlink:href="defs_8h.html" target="_top" xlink:title=" ">
<polygon fill="white" stroke="#666666" points="904.23,-188 861.23,-188 861.23,-168 904.23,-168 904.23,-188"/>
<text xml:space="preserve" text-anchor="middle" x="882.73" y="-174.5" font-family="Helvetica,sans-Serif" font-size="10.00">defs.h</text>
</a>
</g>
</g>
<!-- Node1&#45;&gt;Node4 -->
<g id="edge3_Node000001_Node000004" class="edge">
<title>Node1&#45;&gt;Node4</title>
<g id="a_edge3_Node000001_Node000004"><a xlink:title=" ">
<path fill="none" stroke="#63b8ff" d="M876.15,-212.43C875.69,-204.11 876.14,-194.93 877.48,-188.3"/>
<polygon fill="#63b8ff" stroke="#63b8ff" points="872.64,-212.57 877.28,-222.09 879.59,-211.75 872.64,-212.57"/>
</a>
</g>
</g>
<!-- Node13 -->
<g id="Node000013" class="node">
<title>Node13</title>
<g id="a_Node000013"><a xlink:href="interactive__helpers_8cpp.html" target="_top" xlink:title=" ">
<polygon fill="white" stroke="#666666" points="426.98,-20 310.48,-20 310.48,0 426.98,0 426.98,-20"/>
<text xml:space="preserve" text-anchor="middle" x="368.73" y="-6.5" font-family="Helvetica,sans-Serif" font-size="10.00">interactive_helpers.cpp</text>
</a>
</g>
</g>
<!-- Node1&#45;&gt;Node13 -->
<g id="edge65_Node000001_Node000013" class="edge">
<title>Node1&#45;&gt;Node13</title>
<g id="a_edge65_Node000001_Node000013"><a xlink:title=" ">
<path fill="none" stroke="#63b8ff" d="M835,-231.74C700.39,-227.89 319.58,-214.87 197.73,-188 100.5,-166.56 38.74,-169.2 3.73,-76 0.6,-67.68 -2.16,-62.66 3.73,-56 23.66,-33.46 212.13,-19.72 310.14,-14.03"/>
<polygon fill="#63b8ff" stroke="#63b8ff" points="834.53,-235.23 844.62,-232.01 834.72,-228.23 834.53,-235.23"/>
</a>
</g>
</g>
<!-- Node14 -->
<g id="Node000014" class="node">
<title>Node14</title>
<g id="a_Node000014"><a xlink:href="main_8cpp.html" target="_top" xlink:title=" ">
<polygon fill="white" stroke="#666666" points="500.6,-20 444.85,-20 444.85,0 500.6,0 500.6,-20"/>
<text xml:space="preserve" text-anchor="middle" x="472.73" y="-6.5" font-family="Helvetica,sans-Serif" font-size="10.00">main.cpp</text>
</a>
</g>
</g>
<!-- Node1&#45;&gt;Node14 -->
<g id="edge66_Node000001_Node000014" class="edge">
<title>Node1&#45;&gt;Node14</title>
<g id="a_edge66_Node000001_Node000014"><a xlink:title=" ">
<path fill="none" stroke="#63b8ff" d="M834.76,-232.68C666.49,-230.38 108.08,-212.45 12.73,-76 -41.59,1.72 342.14,-35.27 435.73,-20 438.6,-19.53 441.57,-18.96 444.54,-18.33"/>
<polygon fill="#63b8ff" stroke="#63b8ff" points="834.63,-236.18 844.67,-232.8 834.72,-229.18 834.63,-236.18"/>
</a>
</g>
</g>
<!-- Node4&#45;&gt;Node1 -->
<g id="edge20_Node000004_Node000001" class="edge">
<title>Node4&#45;&gt;Node1</title>
<g id="a_edge20_Node000004_Node000001"><a xlink:title=" ">
<path fill="none" stroke="#63b8ff" d="M889.31,-199.73C889.75,-207.96 889.31,-217.01 887.99,-223.59"/>
<polygon fill="#63b8ff" stroke="#63b8ff" points="892.79,-199.33 888.15,-189.8 885.84,-200.14 892.79,-199.33"/>
</a>
</g>
</g>
<!-- Node5 -->
<g id="Node000005" class="node">
<title>Node5</title>
<g id="a_Node000005"><a xlink:href="attack_8cpp.html" target="_top" xlink:title=" ">
<polygon fill="white" stroke="#666666" points="1239.6,-132 1177.85,-132 1177.85,-112 1239.6,-112 1239.6,-132"/>
<text xml:space="preserve" text-anchor="middle" x="1208.73" y="-118.5" font-family="Helvetica,sans-Serif" font-size="10.00">attack.cpp</text>
</a>
</g>
</g>
<!-- Node4&#45;&gt;Node5 -->
<g id="edge4_Node000004_Node000005" class="edge">
<title>Node4&#45;&gt;Node5</title>
<g id="a_edge4_Node000004_Node000005"><a xlink:title=" ">
<path fill="none" stroke="#63b8ff" d="M915.94,-172.11C968.59,-164.25 1074.41,-148.08 1163.73,-132 1168.27,-131.18 1173.07,-130.27 1177.77,-129.35"/>
<polygon fill="#63b8ff" stroke="#63b8ff" points="915.51,-168.63 906.13,-173.56 916.54,-175.55 915.51,-168.63"/>
</a>
</g>
</g>
<!-- Node6 -->
<g id="Node000006" class="node">
<title>Node6</title>
<g id="a_Node000006"><a xlink:href="attack_8h.html" target="_top" xlink:title=" ">
<polygon fill="white" stroke="#666666" points="765.35,-132 714.1,-132 714.1,-112 765.35,-112 765.35,-132"/>
<text xml:space="preserve" text-anchor="middle" x="739.73" y="-118.5" font-family="Helvetica,sans-Serif" font-size="10.00">attack.h</text>
</a>
</g>
</g>
<!-- Node4&#45;&gt;Node6 -->
<g id="edge5_Node000004_Node000006" class="edge">
<title>Node4&#45;&gt;Node6</title>
<g id="a_edge5_Node000004_Node000006"><a xlink:title=" ">
<path fill="none" stroke="#63b8ff" d="M850.53,-164.84C824.49,-155.01 788.37,-141.37 764.54,-132.37"/>
<polygon fill="#63b8ff" stroke="#63b8ff" points="849,-168.01 859.59,-168.26 851.47,-161.46 849,-168.01"/>
</a>
</g>
</g>
<!-- Node7 -->
<g id="Node000007" class="node">
<title>Node7</title>
<g id="a_Node000007"><a xlink:href="make__move_8cpp.html" target="_top" xlink:title=" ">
<polygon fill="white" stroke="#666666" points="669.73,-76 581.73,-76 581.73,-56 669.73,-56 669.73,-76"/>
<text xml:space="preserve" text-anchor="middle" x="625.73" y="-62.5" font-family="Helvetica,sans-Serif" font-size="10.00">make_move.cpp</text>
</a>
</g>
</g>
<!-- Node4&#45;&gt;Node7 -->
<g id="edge26_Node000004_Node000007" class="edge">
<title>Node4&#45;&gt;Node7</title>
<g id="a_edge26_Node000004_Node000007"><a xlink:title=" ">
<path fill="none" stroke="#63b8ff" d="M849.72,-173.08C812.8,-167.71 751.96,-155.88 704.73,-132 675.88,-117.42 648.12,-90.72 634.48,-76.5"/>
<polygon fill="#63b8ff" stroke="#63b8ff" points="848.94,-176.51 859.33,-174.4 849.9,-169.57 848.94,-176.51"/>
</a>
</g>
</g>
<!-- Node9 -->
<g id="Node000009" class="node">
<title>Node9</title>
<g id="a_Node000009"><a xlink:href="bitboard_8h.html" target="_top" xlink:title=" ">
<polygon fill="white" stroke="#666666" points="1354.1,-132 1295.35,-132 1295.35,-112 1354.1,-112 1354.1,-132"/>
<text xml:space="preserve" text-anchor="middle" x="1324.73" y="-118.5" font-family="Helvetica,sans-Serif" font-size="10.00">bitboard.h</text>
</a>
</g>
</g>
<!-- Node4&#45;&gt;Node9 -->
<g id="edge8_Node000004_Node000009" class="edge">
<title>Node4&#45;&gt;Node9</title>
<g id="a_edge8_Node000004_Node000009"><a xlink:title=" ">
<path fill="none" stroke="#63b8ff" d="M915.74,-174.33C984.24,-168.57 1146.67,-153.7 1281.73,-132 1286.09,-131.3 1290.69,-130.45 1295.19,-129.56"/>
<polygon fill="#63b8ff" stroke="#63b8ff" points="915.63,-170.83 905.96,-175.15 916.21,-177.81 915.63,-170.83"/>
</a>
</g>
</g>
<!-- Node10 -->
<g id="Node000010" class="node">
<title>Node10</title>
<g id="a_Node000010"><a xlink:href="bitboards_8cpp.html" target="_top" xlink:title=" ">
<polygon fill="white" stroke="#666666" points="1337.98,-76 1263.48,-76 1263.48,-56 1337.98,-56 1337.98,-76"/>
<text xml:space="preserve" text-anchor="middle" x="1300.73" y="-62.5" font-family="Helvetica,sans-Serif" font-size="10.00">bitboards.cpp</text>
</a>
</g>
</g>
<!-- Node4&#45;&gt;Node10 -->
<g id="edge10_Node000004_Node000010" class="edge">
<title>Node4&#45;&gt;Node10</title>
<g id="a_edge10_Node000004_Node000010"><a xlink:title=" ">
<path fill="none" stroke="#63b8ff" d="M915.91,-176.09C994.95,-173.42 1191.97,-163.69 1248.73,-132 1271.94,-119.04 1288.65,-91.13 1296.21,-76.46"/>
<polygon fill="#63b8ff" stroke="#63b8ff" points="916.1,-172.58 906.22,-176.4 916.32,-179.58 916.1,-172.58"/>
</a>
</g>
</g>
<!-- Node11 -->
<g id="Node000011" class="node">
<title>Node11</title>
<g id="a_Node000011"><a xlink:href="board_8h.html" target="_top" xlink:title=" ">
<polygon fill="white" stroke="#666666" points="362.85,-132 314.6,-132 314.6,-112 362.85,-112 362.85,-132"/>
<text xml:space="preserve" text-anchor="middle" x="338.73" y="-118.5" font-family="Helvetica,sans-Serif" font-size="10.00">board.h</text>
</a>
</g>
</g>
<!-- Node4&#45;&gt;Node11 -->
<g id="edge11_Node000004_Node000011" class="edge">
<title>Node4&#45;&gt;Node11</title>
<g id="a_edge11_Node000004_Node000011"><a xlink:title=" ">
<path fill="none" stroke="#63b8ff" d="M849.46,-175.7C768.23,-172.16 553.52,-160.64 376.73,-132 372.31,-131.28 367.64,-130.34 363.15,-129.33"/>
<polygon fill="#63b8ff" stroke="#63b8ff" points="849.24,-179.19 859.37,-176.12 849.53,-172.2 849.24,-179.19"/>
</a>
</g>
</g>
<!-- Node12 -->
<g id="Node000012" class="node">
<title>Node12</title>
<g id="a_Node000012"><a xlink:href="interactive__helpers_8h.html" target="_top" xlink:title=" ">
<polygon fill="white" stroke="#666666" points="201.73,-76 95.73,-76 95.73,-56 201.73,-56 201.73,-76"/>
<text xml:space="preserve" text-anchor="middle" x="148.73" y="-62.5" font-family="Helvetica,sans-Serif" font-size="10.00">interactive_helpers.h</text>
</a>
</g>
</g>
<!-- Node4&#45;&gt;Node12 -->
<g id="edge24_Node000004_Node000012" class="edge">
<title>Node4&#45;&gt;Node12</title>
<g id="a_edge24_Node000004_Node000012"><a xlink:title=" ">
<path fill="none" stroke="#63b8ff" d="M849.59,-176.31C739,-173.73 383.45,-163.15 273.73,-132 262.37,-128.78 197.09,-93.47 165.65,-76.29"/>
<polygon fill="#63b8ff" stroke="#63b8ff" points="849.37,-179.8 859.45,-176.53 849.53,-172.81 849.37,-179.8"/>
</a>
</g>
</g>
<!-- Node4&#45;&gt;Node14 -->
<g id="edge25_Node000004_Node000014" class="edge">
<title>Node4&#45;&gt;Node14</title>
<g id="a_edge25_Node000004_Node000014"><a xlink:title=" ">
<path fill="none" stroke="#63b8ff" d="M915.26,-167.42C973.6,-148.72 1085.9,-104.89 1040.73,-56 1003.81,-16.04 610.86,-11.53 501.07,-11.05"/>
<polygon fill="#63b8ff" stroke="#63b8ff" points="914.32,-164.05 905.81,-170.37 916.4,-170.73 914.32,-164.05"/>
</a>
</g>
</g>
<!-- Node15 -->
<g id="Node000015" class="node">
<title>Node15</title>
<g id="a_Node000015"><a xlink:href="perft_8cpp.html" target="_top" xlink:title=" ">
<polygon fill="white" stroke="#666666" points="373.85,-76 319.6,-76 319.6,-56 373.85,-56 373.85,-76"/>
<text xml:space="preserve" text-anchor="middle" x="346.73" y="-62.5" font-family="Helvetica,sans-Serif" font-size="10.00">perft.cpp</text>
</a>
</g>
</g>
<!-- Node4&#45;&gt;Node15 -->
<g id="edge49_Node000004_Node000015" class="edge">
<title>Node4&#45;&gt;Node15</title>
<g id="a_edge49_Node000004_Node000015"><a xlink:title=" ">
<path fill="none" stroke="#63b8ff" d="M849.37,-176.79C754.96,-175.74 487.63,-169.43 409.73,-132 383.38,-119.34 362.06,-90.76 352.37,-76.08"/>
<polygon fill="#63b8ff" stroke="#63b8ff" points="849.21,-180.29 859.25,-176.89 849.28,-173.29 849.21,-180.29"/>
</a>
</g>
</g>
<!-- Node16 -->
<g id="Node000016" class="node">
<title>Node16</title>
<g id="a_Node000016"><a xlink:href="perft_8h.html" target="_top" xlink:title=" ">
<polygon fill="white" stroke="#666666" points="263.6,-76 219.85,-76 219.85,-56 263.6,-56 263.6,-76"/>
<text xml:space="preserve" text-anchor="middle" x="241.73" y="-62.5" font-family="Helvetica,sans-Serif" font-size="10.00">perft.h</text>
</a>
</g>
</g>
<!-- Node4&#45;&gt;Node16 -->
<g id="edge50_Node000004_Node000016" class="edge">
<title>Node4&#45;&gt;Node16</title>
<g id="a_edge50_Node000004_Node000016"><a xlink:title=" ">
<path fill="none" stroke="#63b8ff" d="M849.47,-177.42C741.68,-178.33 403.31,-177.41 305.73,-132 279.02,-119.57 257.34,-90.89 247.47,-76.13"/>
<polygon fill="#63b8ff" stroke="#63b8ff" points="849.4,-180.92 859.36,-177.33 849.33,-173.92 849.4,-180.92"/>
</a>
</g>
</g>
<!-- Node17 -->
<g id="Node000017" class="node">
<title>Node17</title>
<g id="a_Node000017"><a xlink:href="hash__keys_8cpp.html" target="_top" xlink:title=" ">
<polygon fill="white" stroke="#666666" points="1245.73,-76 1163.73,-76 1163.73,-56 1245.73,-56 1245.73,-76"/>
<text xml:space="preserve" text-anchor="middle" x="1204.73" y="-62.5" font-family="Helvetica,sans-Serif" font-size="10.00">hash_keys.cpp</text>
</a>
</g>
</g>
<!-- Node4&#45;&gt;Node17 -->
<g id="edge21_Node000004_Node000017" class="edge">
<title>Node4&#45;&gt;Node17</title>
<g id="a_edge21_Node000004_Node000017"><a xlink:title=" ">
<path fill="none" stroke="#63b8ff" d="M915.69,-176.55C964.89,-174.69 1059.38,-166.47 1130.73,-132 1159.06,-118.31 1184.89,-90.72 1197.18,-76.28"/>
<polygon fill="#63b8ff" stroke="#63b8ff" points="915.88,-173.04 906,-176.85 916.1,-180.04 915.88,-173.04"/>
</a>
</g>
</g>
<!-- Node18 -->
<g id="Node000018" class="node">
<title>Node18</title>
<g id="a_Node000018"><a xlink:href="hash__keys_8h.html" target="_top" xlink:title=" ">
<polygon fill="white" stroke="#666666" points="1551.48,-76 1479.98,-76 1479.98,-56 1551.48,-56 1551.48,-76"/>
<text xml:space="preserve" text-anchor="middle" x="1515.73" y="-62.5" font-family="Helvetica,sans-Serif" font-size="10.00">hash_keys.h</text>
</a>
</g>
</g>
<!-- Node4&#45;&gt;Node18 -->
<g id="edge22_Node000004_Node000018" class="edge">
<title>Node4&#45;&gt;Node18</title>
<g id="a_edge22_Node000004_Node000018"><a xlink:title=" ">
<path fill="none" stroke="#63b8ff" d="M915.81,-177.52C1023.04,-178.74 1359.56,-178.67 1455.73,-132 1481.42,-119.53 1501.45,-90.87 1510.48,-76.12"/>
<polygon fill="#63b8ff" stroke="#63b8ff" points="916.02,-174.03 905.98,-177.4 915.93,-181.03 916.02,-174.03"/>
</a>
</g>
</g>
<!-- Node19 -->
<g id="Node000019" class="node">
<title>Node19</title>
<g id="a_Node000019"><a xlink:href="make__move_8h.html" target="_top" xlink:title=" ">
<polygon fill="white" stroke="#666666" points="609.48,-132 531.98,-132 531.98,-112 609.48,-112 609.48,-132"/>
<text xml:space="preserve" text-anchor="middle" x="570.73" y="-118.5" font-family="Helvetica,sans-Serif" font-size="10.00">make_move.h</text>
</a>
</g>
</g>
<!-- Node4&#45;&gt;Node19 -->
<g id="edge27_Node000004_Node000019" class="edge">
<title>Node4&#45;&gt;Node19</title>
<g id="a_edge27_Node000004_Node000019"><a xlink:title=" ">
<path fill="none" stroke="#63b8ff" d="M849.73,-171.29C791.79,-161.26 672.02,-140.53 609.95,-129.79"/>
<polygon fill="#63b8ff" stroke="#63b8ff" points="848.84,-174.69 859.3,-172.94 850.04,-167.79 848.84,-174.69"/>
</a>
</g>
</g>
<!-- Node20 -->
<g id="Node000020" class="node">
<title>Node20</title>
<g id="a_Node000020"><a xlink:href="misc_8h.html" target="_top" xlink:title=" ">
<polygon fill="white" stroke="#666666" points="220.35,-132 175.1,-132 175.1,-112 220.35,-112 220.35,-132"/>
<text xml:space="preserve" text-anchor="middle" x="197.73" y="-118.5" font-family="Helvetica,sans-Serif" font-size="10.00">misc.h</text>
</a>
</g>
</g>
<!-- Node4&#45;&gt;Node20 -->
<g id="edge33_Node000004_Node000020" class="edge">
<title>Node4&#45;&gt;Node20</title>
<g id="a_edge33_Node000004_Node000020"><a xlink:title=" ">
<path fill="none" stroke="#63b8ff" d="M849.51,-176.67C753.61,-175.3 468.23,-168.24 234.73,-132 230.15,-131.29 225.31,-130.3 220.7,-129.23"/>
<polygon fill="#63b8ff" stroke="#63b8ff" points="849.2,-180.17 859.25,-176.8 849.29,-173.17 849.2,-180.17"/>
</a>
</g>
</g>
<!-- Node22 -->
<g id="Node000022" class="node">
<title>Node22</title>
<g id="a_Node000022"><a xlink:href="move__generator_8h.html" target="_top" xlink:title=" ">
<polygon fill="white" stroke="#666666" points="892.73,-132 798.73,-132 798.73,-112 892.73,-112 892.73,-132"/>
<text xml:space="preserve" text-anchor="middle" x="845.73" y="-118.5" font-family="Helvetica,sans-Serif" font-size="10.00">move_generator.h</text>
</a>
</g>
</g>
<!-- Node4&#45;&gt;Node22 -->
<g id="edge36_Node000004_Node000022" class="edge">
<title>Node4&#45;&gt;Node22</title>
<g id="a_edge36_Node000004_Node000022"><a xlink:title=" ">
<path fill="none" stroke="#63b8ff" d="M869.81,-158.15C863.82,-149.4 856.96,-139.39 852.1,-132.3"/>
<polygon fill="#63b8ff" stroke="#63b8ff" points="866.89,-160.07 875.43,-166.35 872.66,-156.12 866.89,-160.07"/>
</a>
</g>
</g>
<!-- Node23 -->
<g id="Node000023" class="node">
<title>Node23</title>
<g id="a_Node000023"><a xlink:href="notation_8cpp.html" target="_top" xlink:title=" ">
<polygon fill="white" stroke="#666666" points="955.35,-76 886.1,-76 886.1,-56 955.35,-56 955.35,-76"/>
<text xml:space="preserve" text-anchor="middle" x="920.73" y="-62.5" font-family="Helvetica,sans-Serif" font-size="10.00">notation.cpp</text>
</a>
</g>
</g>
<!-- Node4&#45;&gt;Node23 -->
<g id="edge43_Node000004_Node000023" class="edge">
<title>Node4&#45;&gt;Node23</title>
<g id="a_edge43_Node000004_Node000023"><a xlink:title=" ">
<path fill="none" stroke="#63b8ff" d="M891.53,-157.51C894.92,-149.67 898.71,-140.48 901.73,-132 908.66,-112.51 915.04,-89.09 918.35,-76.36"/>
<polygon fill="#63b8ff" stroke="#63b8ff" points="888.43,-155.87 887.58,-166.43 894.83,-158.7 888.43,-155.87"/>
</a>
</g>
</g>
<!-- Node25 -->
<g id="Node000025" class="node">
<title>Node25</title>
<g id="a_Node000025"><a xlink:href="notation_8h.html" target="_top" xlink:title=" ">
<polygon fill="white" stroke="#666666" points="477.1,-132 418.35,-132 418.35,-112 477.1,-112 477.1,-132"/>
<text xml:space="preserve" text-anchor="middle" x="447.73" y="-118.5" font-family="Helvetica,sans-Serif" font-size="10.00">notation.h</text>
</a>
</g>
</g>
<!-- Node4&#45;&gt;Node25 -->
<g id="edge44_Node000004_Node000025" class="edge">
<title>Node4&#45;&gt;Node25</title>
<g id="a_edge44_Node000004_Node000025"><a xlink:title=" ">
<path fill="none" stroke="#63b8ff" d="M849.48,-172.87C767.32,-162.67 555.67,-136.4 477.4,-126.68"/>
<polygon fill="#63b8ff" stroke="#63b8ff" points="849,-176.34 859.35,-174.1 849.86,-169.39 849,-176.34"/>
</a>
</g>
</g>
<!-- Node26 -->
<g id="Node000026" class="node">
<title>Node26</title>
<g id="a_Node000026"><a xlink:href="setup_8h.html" target="_top" xlink:title=" ">
<polygon fill="white" stroke="#666666" points="1121.85,-132 1073.6,-132 1073.6,-112 1121.85,-112 1121.85,-132"/>
<text xml:space="preserve" text-anchor="middle" x="1097.73" y="-118.5" font-family="Helvetica,sans-Serif" font-size="10.00">setup.h</text>
</a>
</g>
</g>
<!-- Node4&#45;&gt;Node26 -->
<g id="edge51_Node000004_Node000026" class="edge">
<title>Node4&#45;&gt;Node26</title>
<g id="a_edge51_Node000004_Node000026"><a xlink:title=" ">
<path fill="none" stroke="#63b8ff" d="M915.61,-168.74C959.03,-157.84 1034.51,-138.88 1073.24,-129.15"/>
<polygon fill="#63b8ff" stroke="#63b8ff" points="914.84,-165.33 905.99,-171.16 916.54,-172.11 914.84,-165.33"/>
</a>
</g>
</g>
<!-- Node27 -->
<g id="Node000027" class="node">
<title>Node27</title>
<g id="a_Node000027"><a xlink:href="validate_8cpp.html" target="_top" xlink:title=" ">
<polygon fill="white" stroke="#666666" points="1461.98,-76 1393.48,-76 1393.48,-56 1461.98,-56 1461.98,-76"/>
<text xml:space="preserve" text-anchor="middle" x="1427.73" y="-62.5" font-family="Helvetica,sans-Serif" font-size="10.00">validate.cpp</text>
</a>
</g>
</g>
<!-- Node4&#45;&gt;Node27 -->
<g id="edge62_Node000004_Node000027" class="edge">
<title>Node4&#45;&gt;Node27</title>
<g id="a_edge62_Node000004_Node000027"><a xlink:title=" ">
<path fill="none" stroke="#63b8ff" d="M916.03,-176.87C1030.56,-176.07 1403.21,-170.51 1438.73,-132 1452.85,-116.69 1441.33,-90.29 1433.49,-76.32"/>
<polygon fill="#63b8ff" stroke="#63b8ff" points="916.05,-173.37 906.08,-176.93 916.1,-180.37 916.05,-173.37"/>
</a>
</g>
</g>
<!-- Node28 -->
<g id="Node000028" class="node">
<title>Node28</title>
<g id="a_Node000028"><a xlink:href="validate_8h.html" target="_top" xlink:title=" ">
<polygon fill="white" stroke="#666666" points="1429.73,-132 1371.73,-132 1371.73,-112 1429.73,-112 1429.73,-132"/>
<text xml:space="preserve" text-anchor="middle" x="1400.73" y="-118.5" font-family="Helvetica,sans-Serif" font-size="10.00">validate.h</text>
</a>
</g>
</g>
<!-- Node4&#45;&gt;Node28 -->
<g id="edge63_Node000004_Node000028" class="edge">
<title>Node4&#45;&gt;Node28</title>
<g id="a_edge63_Node000004_Node000028"><a xlink:title=" ">
<path fill="none" stroke="#63b8ff" d="M915.86,-175.48C994.07,-171.56 1196.14,-159.4 1362.73,-132 1365.54,-131.54 1368.45,-130.99 1371.35,-130.38"/>
<polygon fill="#63b8ff" stroke="#63b8ff" points="915.72,-171.99 905.9,-175.97 916.06,-178.98 915.72,-171.99"/>
</a>
</g>
</g>
<!-- Node6&#45;&gt;Node7 -->
<g id="edge6_Node000006_Node000007" class="edge">
<title>Node6&#45;&gt;Node7</title>
<g id="a_edge6_Node000006_Node000007"><a xlink:title=" ">
<path fill="none" stroke="#63b8ff" d="M709.63,-106.75C689.45,-97.18 663.42,-84.85 645.74,-76.48"/>
<polygon fill="#63b8ff" stroke="#63b8ff" points="707.96,-109.83 718.5,-110.95 710.96,-103.5 707.96,-109.83"/>
</a>
</g>
</g>
<!-- Node8 -->
<g id="Node000008" class="node">
<title>Node8</title>
<g id="a_Node000008"><a xlink:href="move__generator_8cpp.html" target="_top" xlink:title=" ">
<polygon fill="white" stroke="#666666" points="791.98,-76 687.48,-76 687.48,-56 791.98,-56 791.98,-76"/>
<text xml:space="preserve" text-anchor="middle" x="739.73" y="-62.5" font-family="Helvetica,sans-Serif" font-size="10.00">move_generator.cpp</text>
</a>
</g>
</g>
<!-- Node6&#45;&gt;Node8 -->
<g id="edge7_Node000006_Node000008" class="edge">
<title>Node6&#45;&gt;Node8</title>
<g id="a_edge7_Node000006_Node000008"><a xlink:title=" ">
<path fill="none" stroke="#63b8ff" d="M739.73,-100.13C739.73,-91.9 739.73,-82.85 739.73,-76.3"/>
<polygon fill="#63b8ff" stroke="#63b8ff" points="736.23,-100.08 739.73,-110.08 743.23,-100.08 736.23,-100.08"/>
</a>
</g>
</g>
<!-- Node9&#45;&gt;Node2 -->
<g id="edge9_Node000009_Node000002" class="edge">
<title>Node9&#45;&gt;Node2</title>
<g id="a_edge9_Node000009_Node000002"><a xlink:title=" ">
<path fill="none" stroke="#63b8ff" d="M1335.24,-101.35C1339.15,-93.58 1343.43,-84.5 1346.73,-76 1354.2,-56.7 1360.38,-33.22 1363.51,-20.42"/>
<polygon fill="#63b8ff" stroke="#63b8ff" points="1332.14,-99.73 1330.63,-110.21 1338.35,-102.95 1332.14,-99.73"/>
</a>
</g>
</g>
<!-- Node11&#45;&gt;Node2 -->
<g id="edge12_Node000011_Node000002" class="edge">
<title>Node11&#45;&gt;Node2</title>
<g id="a_edge12_Node000011_Node000002"><a xlink:title=" ">
<path fill="none" stroke="#63b8ff" d="M373.99,-108.64C419.34,-93.35 500.82,-67.89 572.73,-56 723.91,-31.01 1210.28,-15.49 1335.89,-11.84"/>
<polygon fill="#63b8ff" stroke="#63b8ff" points="373.04,-105.27 364.7,-111.81 375.3,-111.9 373.04,-105.27"/>
</a>
</g>
</g>
<!-- Node11&#45;&gt;Node12 -->
<g id="edge13_Node000011_Node000012" class="edge">
<title>Node11&#45;&gt;Node12</title>
<g id="a_edge13_Node000011_Node000012"><a xlink:title=" ">
<path fill="none" stroke="#63b8ff" d="M303.23,-110.91C268.49,-101.04 215.99,-86.12 182.03,-76.46"/>
<polygon fill="#63b8ff" stroke="#63b8ff" points="302.24,-114.27 312.82,-113.64 304.16,-107.54 302.24,-114.27"/>
</a>
</g>
</g>
<!-- Node11&#45;&gt;Node14 -->
<g id="edge16_Node000011_Node000014" class="edge">
<title>Node11&#45;&gt;Node14</title>
<g id="a_edge16_Node000011_Node000014"><a xlink:title=" ">
<path fill="none" stroke="#63b8ff" d="M321.7,-103.29C310.54,-89.48 299.85,-70.31 310.73,-56 314.85,-50.57 399.39,-29.06 444.66,-17.86"/>
<polygon fill="#63b8ff" stroke="#63b8ff" points="319.02,-105.54 328.25,-110.73 324.27,-100.91 319.02,-105.54"/>
</a>
</g>
</g>
<!-- Node11&#45;&gt;Node15 -->
<g id="edge17_Node000011_Node000015" class="edge">
<title>Node11&#45;&gt;Node15</title>
<g id="a_edge17_Node000011_Node000015"><a xlink:title=" ">
<path fill="none" stroke="#63b8ff" d="M341.77,-100.43C343.01,-92.11 344.37,-82.93 345.35,-76.3"/>
<polygon fill="#63b8ff" stroke="#63b8ff" points="338.34,-99.69 340.34,-110.1 345.27,-100.72 338.34,-99.69"/>
</a>
</g>
</g>
<!-- Node11&#45;&gt;Node16 -->
<g id="edge18_Node000011_Node000016" class="edge">
<title>Node11&#45;&gt;Node16</title>
<g id="a_edge18_Node000011_Node000016"><a xlink:title=" ">
<path fill="none" stroke="#63b8ff" d="M311.93,-106.08C294.93,-96.62 273.45,-84.66 258.75,-76.48"/>
<polygon fill="#63b8ff" stroke="#63b8ff" points="310.07,-109.05 320.51,-110.86 313.47,-102.94 310.07,-109.05"/>
</a>
</g>
</g>
<!-- Node12&#45;&gt;Node13 -->
<g id="edge14_Node000012_Node000013" class="edge">
<title>Node12&#45;&gt;Node13</title>
<g id="a_edge14_Node000012_Node000013"><a xlink:title=" ">
<path fill="none" stroke="#63b8ff" d="M198.38,-52.81C238.3,-43.01 293.57,-29.45 330.2,-20.46"/>
<polygon fill="#63b8ff" stroke="#63b8ff" points="197.65,-49.39 188.77,-55.17 199.31,-56.19 197.65,-49.39"/>
</a>
</g>
</g>
<!-- Node12&#45;&gt;Node14 -->
<g id="edge15_Node000012_Node000014" class="edge">
<title>Node12&#45;&gt;Node14</title>
<g id="a_edge15_Node000012_Node000014"><a xlink:title=" ">
<path fill="none" stroke="#63b8ff" d="M213.01,-55.56C284.17,-44.99 394.29,-28.27 435.73,-20 438.58,-19.43 441.54,-18.79 444.5,-18.12"/>
<polygon fill="#63b8ff" stroke="#63b8ff" points="212.82,-52.05 203.44,-56.98 213.84,-58.97 212.82,-52.05"/>
</a>
</g>
</g>
<!-- Node16&#45;&gt;Node14 -->
<g id="edge19_Node000016_Node000014" class="edge">
<title>Node16&#45;&gt;Node14</title>
<g id="a_edge19_Node000016_Node000014"><a xlink:title=" ">
<path fill="none" stroke="#63b8ff" d="M274.73,-56.72C275.74,-56.48 276.74,-56.24 277.73,-56 347.78,-39.27 365.62,-36.51 435.73,-20 438.56,-19.33 441.51,-18.63 444.45,-17.92"/>
<polygon fill="#63b8ff" stroke="#63b8ff" points="274.14,-53.26 265.26,-59.04 275.81,-60.06 274.14,-53.26"/>
</a>
</g>
</g>
<!-- Node18&#45;&gt;Node2 -->
<g id="edge23_Node000018_Node000002" class="edge">
<title>Node18&#45;&gt;Node2</title>
<g id="a_edge23_Node000018_Node000002"><a xlink:title=" ">
<path fill="none" stroke="#63b8ff" d="M1479.04,-51.79C1452.11,-42.1 1416.17,-29.16 1392.06,-20.48"/>
<polygon fill="#63b8ff" stroke="#63b8ff" points="1477.58,-54.99 1488.17,-55.08 1479.95,-48.4 1477.58,-54.99"/>
</a>
</g>
</g>
<!-- Node19&#45;&gt;Node7 -->
<g id="edge30_Node000019_Node000007" class="edge">
<title>Node19&#45;&gt;Node7</title>
<g id="a_edge30_Node000019_Node000007"><a xlink:title=" ">
<path fill="none" stroke="#63b8ff" d="M588.48,-103.57C597.72,-94.5 608.64,-83.78 616.26,-76.3"/>
<polygon fill="#63b8ff" stroke="#63b8ff" points="586.07,-101.03 581.39,-110.53 590.97,-106.03 586.07,-101.03"/>
</a>
</g>
</g>
<!-- Node19&#45;&gt;Node8 -->
<g id="edge31_Node000019_Node000008" class="edge">
<title>Node19&#45;&gt;Node8</title>
<g id="a_edge31_Node000019_Node000008"><a xlink:title=" ">
<path fill="none" stroke="#63b8ff" d="M610.86,-108.18C641.32,-98.44 682.52,-85.28 710.06,-76.48"/>
<polygon fill="#63b8ff" stroke="#63b8ff" points="610.07,-104.76 601.61,-111.13 612.2,-111.42 610.07,-104.76"/>
</a>
</g>
</g>
<!-- Node19&#45;&gt;Node13 -->
<g id="edge28_Node000019_Node000013" class="edge">
<title>Node19&#45;&gt;Node13</title>
<g id="a_edge28_Node000019_Node000013"><a xlink:title=" ">
<path fill="none" stroke="#63b8ff" d="M543.64,-106.25C501.4,-83.25 421.05,-39.49 385.9,-20.35"/>
<polygon fill="#63b8ff" stroke="#63b8ff" points="541.72,-109.19 552.17,-110.9 545.07,-103.04 541.72,-109.19"/>
</a>
</g>
</g>
<!-- Node19&#45;&gt;Node14 -->
<g id="edge29_Node000019_Node000014" class="edge">
<title>Node19&#45;&gt;Node14</title>
<g id="a_edge29_Node000019_Node000014"><a xlink:title=" ">
<path fill="none" stroke="#63b8ff" d="M554.88,-103.22C533.83,-79.58 497.39,-38.68 481.06,-20.35"/>
<polygon fill="#63b8ff" stroke="#63b8ff" points="552.1,-105.35 561.36,-110.49 557.32,-100.7 552.1,-105.35"/>
</a>
</g>
</g>
<!-- Node19&#45;&gt;Node15 -->
<g id="edge32_Node000019_Node000015" class="edge">
<title>Node19&#45;&gt;Node15</title>
<g id="a_edge32_Node000019_Node000015"><a xlink:title=" ">
<path fill="none" stroke="#63b8ff" d="M520.65,-108.93C475.36,-98.01 410.38,-82.35 374.02,-73.58"/>
<polygon fill="#63b8ff" stroke="#63b8ff" points="519.69,-112.3 530.24,-111.24 521.34,-105.49 519.69,-112.3"/>
</a>
</g>
</g>
<!-- Node20&#45;&gt;Node15 -->
<g id="edge35_Node000020_Node000015" class="edge">
<title>Node20&#45;&gt;Node15</title>
<g id="a_edge35_Node000020_Node000015"><a xlink:title=" ">
<path fill="none" stroke="#63b8ff" d="M231.22,-108.86C258.3,-99.05 295.89,-85.42 320.74,-76.42"/>
<polygon fill="#63b8ff" stroke="#63b8ff" points="230.31,-105.47 222.1,-112.17 232.7,-112.05 230.31,-105.47"/>
</a>
</g>
</g>
<!-- Node21 -->
<g id="Node000021" class="node">
<title>Node21</title>
<g id="a_Node000021"><a xlink:href="misc_8cpp.html" target="_top" xlink:title=" ">
<polygon fill="white" stroke="#666666" points="77.6,-76 21.85,-76 21.85,-56 77.6,-56 77.6,-76"/>
<text xml:space="preserve" text-anchor="middle" x="49.73" y="-62.5" font-family="Helvetica,sans-Serif" font-size="10.00">misc.cpp</text>
</a>
</g>
</g>
<!-- Node20&#45;&gt;Node21 -->
<g id="edge34_Node000020_Node000021" class="edge">
<title>Node20&#45;&gt;Node21</title>
<g id="a_edge34_Node000020_Node000021"><a xlink:title=" ">
<path fill="none" stroke="#63b8ff" d="M163.79,-108.62C136.99,-98.84 100.15,-85.4 75.67,-76.47"/>
<polygon fill="#63b8ff" stroke="#63b8ff" points="162.58,-111.9 173.18,-112.04 164.98,-105.33 162.58,-111.9"/>
</a>
</g>
</g>
<!-- Node22&#45;&gt;Node8 -->
<g id="edge39_Node000022_Node000008" class="edge">
<title>Node22&#45;&gt;Node8</title>
<g id="a_edge39_Node000022_Node000008"><a xlink:title=" ">
<path fill="none" stroke="#63b8ff" d="M817.22,-106.48C798.53,-96.96 774.62,-84.78 758.33,-76.48"/>
<polygon fill="#63b8ff" stroke="#63b8ff" points="815.41,-109.49 825.91,-110.91 818.59,-103.25 815.41,-109.49"/>
</a>
</g>
</g>
<!-- Node22&#45;&gt;Node13 -->
<g id="edge37_Node000022_Node000013" class="edge">
<title>Node22&#45;&gt;Node13</title>
<g id="a_edge37_Node000022_Node000013"><a xlink:title=" ">
<path fill="none" stroke="#63b8ff" d="M837.6,-101.13C830.31,-86.04 818.07,-66.2 800.73,-56 730.48,-14.67 516.68,-29.43 435.73,-20 432.93,-19.67 430.07,-19.33 427.18,-18.97"/>
<polygon fill="#63b8ff" stroke="#63b8ff" points="834.34,-102.41 841.6,-110.12 840.73,-99.56 834.34,-102.41"/>
</a>
</g>
</g>
<!-- Node22&#45;&gt;Node14 -->
<g id="edge38_Node000022_Node000014" class="edge">
<title>Node22&#45;&gt;Node14</title>
<g id="a_edge38_Node000022_Node000014"><a xlink:title=" ">
<path fill="none" stroke="#63b8ff" d="M847.76,-100.56C847.99,-86.04 845.61,-67.2 833.73,-56 785.94,-10.93 577.49,-9.39 501,-10.4"/>
<polygon fill="#63b8ff" stroke="#63b8ff" points="844.27,-100.2 847.15,-110.39 851.26,-100.63 844.27,-100.2"/>
</a>
</g>
</g>
<!-- Node22&#45;&gt;Node15 -->
<g id="edge41_Node000022_Node000015" class="edge">
<title>Node22&#45;&gt;Node15</title>
<g id="a_edge41_Node000022_Node000015"><a xlink:title=" ">
<path fill="none" stroke="#63b8ff" d="M787.21,-113.48C782.99,-112.97 778.79,-112.47 774.73,-112 623.69,-94.49 442.32,-76.38 374.29,-69.69"/>
<polygon fill="#63b8ff" stroke="#63b8ff" points="786.53,-116.93 796.88,-114.67 787.39,-109.98 786.53,-116.93"/>
</a>
</g>
</g>
<!-- Node22&#45;&gt;Node23 -->
<g id="edge40_Node000022_Node000023" class="edge">
<title>Node22&#45;&gt;Node23</title>
<g id="a_edge40_Node000022_Node000023"><a xlink:title=" ">
<path fill="none" stroke="#63b8ff" d="M867.95,-105C880.84,-95.72 896.63,-84.35 907.56,-76.48"/>
<polygon fill="#63b8ff" stroke="#63b8ff" points="866.09,-102.03 860.02,-110.71 870.18,-107.71 866.09,-102.03"/>
</a>
</g>
</g>
<!-- Node24 -->
<g id="Node000024" class="node">
<title>Node24</title>
<g id="a_Node000024"><a xlink:href="setup_8cpp.html" target="_top" xlink:title=" ">
<polygon fill="white" stroke="#666666" points="1032.1,-76 973.35,-76 973.35,-56 1032.1,-56 1032.1,-76"/>
<text xml:space="preserve" text-anchor="middle" x="1002.73" y="-62.5" font-family="Helvetica,sans-Serif" font-size="10.00">setup.cpp</text>
</a>
</g>
</g>
<!-- Node22&#45;&gt;Node24 -->
<g id="edge42_Node000022_Node000024" class="edge">
<title>Node22&#45;&gt;Node24</title>
<g id="a_edge42_Node000022_Node000024"><a xlink:title=" ">
<path fill="none" stroke="#63b8ff" d="M883.75,-107.92C911.98,-98.21 949.81,-85.2 975.17,-76.48"/>
<polygon fill="#63b8ff" stroke="#63b8ff" points="882.82,-104.54 874.5,-111.1 885.1,-111.16 882.82,-104.54"/>
</a>
</g>
</g>
<!-- Node25&#45;&gt;Node13 -->
<g id="edge45_Node000025_Node000013" class="edge">
<title>Node25&#45;&gt;Node13</title>
<g id="a_edge45_Node000025_Node000013"><a xlink:title=" ">
<path fill="none" stroke="#63b8ff" d="M434.5,-102.58C417.46,-78.86 388.49,-38.52 375.44,-20.35"/>
<polygon fill="#63b8ff" stroke="#63b8ff" points="431.43,-104.31 440.11,-110.39 437.12,-100.23 431.43,-104.31"/>
</a>
</g>
</g>
<!-- Node25&#45;&gt;Node14 -->
<g id="edge46_Node000025_Node000014" class="edge">
<title>Node25&#45;&gt;Node14</title>
<g id="a_edge46_Node000025_Node000014"><a xlink:title=" ">
<path fill="none" stroke="#63b8ff" d="M452.35,-100.64C457.79,-76.72 466.58,-38.03 470.6,-20.35"/>
<polygon fill="#63b8ff" stroke="#63b8ff" points="449,-99.62 450.19,-110.15 455.82,-101.17 449,-99.62"/>
</a>
</g>
</g>
<!-- Node25&#45;&gt;Node15 -->
<g id="edge48_Node000025_Node000015" class="edge">
<title>Node25&#45;&gt;Node15</title>
<g id="a_edge48_Node000025_Node000015"><a xlink:title=" ">
<path fill="none" stroke="#63b8ff" d="M420.32,-106.35C402.54,-96.84 379.9,-84.74 364.46,-76.48"/>
<polygon fill="#63b8ff" stroke="#63b8ff" points="418.33,-109.25 428.8,-110.88 421.63,-103.08 418.33,-109.25"/>
</a>
</g>
</g>
<!-- Node25&#45;&gt;Node23 -->
<g id="edge47_Node000025_Node000023" class="edge">
<title>Node25&#45;&gt;Node23</title>
<g id="a_edge47_Node000025_Node000023"><a xlink:title=" ">
<path fill="none" stroke="#63b8ff" d="M488.45,-116.06C499.57,-114.73 511.61,-113.3 522.73,-112 656.89,-96.37 816.6,-78.55 885.85,-70.86"/>
<polygon fill="#63b8ff" stroke="#63b8ff" points="488.3,-112.55 478.79,-117.22 489.14,-119.5 488.3,-112.55"/>
</a>
</g>
</g>
<!-- Node26&#45;&gt;Node2 -->
<g id="edge53_Node000026_Node000002" class="edge">
<title>Node26&#45;&gt;Node2</title>
<g id="a_edge53_Node000026_Node000002"><a xlink:title=" ">
<path fill="none" stroke="#63b8ff" d="M1109.06,-102.51C1119.18,-87.61 1135.37,-67.35 1154.73,-56 1212.72,-21.98 1293.12,-13.55 1336,-11.54"/>
<polygon fill="#63b8ff" stroke="#63b8ff" points="1106.38,-100.21 1103.89,-110.51 1112.26,-104.02 1106.38,-100.21"/>
</a>
</g>
</g>
<!-- Node26&#45;&gt;Node7 -->
<g id="edge57_Node000026_Node000007" class="edge">
<title>Node26&#45;&gt;Node7</title>
<g id="a_edge57_Node000026_Node000007"><a xlink:title=" ">
<path fill="none" stroke="#63b8ff" d="M1061.92,-117.9C989.42,-111.46 820.14,-95.58 678.73,-76 675.86,-75.6 672.91,-75.17 669.94,-74.72"/>
<polygon fill="#63b8ff" stroke="#63b8ff" points="1061.33,-121.36 1071.6,-118.75 1061.94,-114.39 1061.33,-121.36"/>
</a>
</g>
</g>
<!-- Node26&#45;&gt;Node8 -->
<g id="edge58_Node000026_Node000008" class="edge">
<title>Node26&#45;&gt;Node8</title>
<g id="a_edge58_Node000026_Node000008"><a xlink:title=" ">
<path fill="none" stroke="#63b8ff" d="M1061.74,-115.57C998.27,-106 866.22,-86.08 792.46,-74.95"/>
<polygon fill="#63b8ff" stroke="#63b8ff" points="1061.21,-119.03 1071.62,-117.06 1062.26,-112.11 1061.21,-119.03"/>
</a>
</g>
</g>
<!-- Node26&#45;&gt;Node10 -->
<g id="edge52_Node000026_Node000010" class="edge">
<title>Node26&#45;&gt;Node10</title>
<g id="a_edge52_Node000026_Node000010"><a xlink:title=" ">
<path fill="none" stroke="#63b8ff" d="M1133,-111.62C1170.08,-101.75 1228.08,-86.32 1265.24,-76.44"/>
<polygon fill="#63b8ff" stroke="#63b8ff" points="1132.44,-108.14 1123.67,-114.1 1134.24,-114.91 1132.44,-108.14"/>
</a>
</g>
</g>
<!-- Node26&#45;&gt;Node14 -->
<g id="edge56_Node000026_Node000014" class="edge">
<title>Node26&#45;&gt;Node14</title>
<g id="a_edge56_Node000026_Node000014"><a xlink:title=" ">
<path fill="none" stroke="#63b8ff" d="M1095.89,-100.47C1093.4,-85.62 1087.53,-66.41 1073.73,-56 1027.56,-21.2 613.2,-12.95 500.77,-11.34"/>
<polygon fill="#63b8ff" stroke="#63b8ff" points="1092.39,-100.64 1097.1,-110.13 1099.33,-99.77 1092.39,-100.64"/>
</a>
</g>
</g>
<!-- Node26&#45;&gt;Node17 -->
<g id="edge54_Node000026_Node000017" class="edge">
<title>Node26&#45;&gt;Node17</title>
<g id="a_edge54_Node000026_Node000017"><a xlink:title=" ">
<path fill="none" stroke="#63b8ff" d="M1126.5,-106.48C1145.37,-96.96 1169.5,-84.78 1185.94,-76.48"/>
<polygon fill="#63b8ff" stroke="#63b8ff" points="1125.07,-103.28 1117.71,-110.91 1128.22,-109.53 1125.07,-103.28"/>
</a>
</g>
</g>
<!-- Node26&#45;&gt;Node18 -->
<g id="edge55_Node000026_Node000018" class="edge">
<title>Node26&#45;&gt;Node18</title>
<g id="a_edge55_Node000026_Node000018"><a xlink:title=" ">
<path fill="none" stroke="#63b8ff" d="M1133.29,-116.44C1144.61,-115 1157.19,-113.42 1168.73,-112 1302.89,-95.5 1337.24,-97.27 1470.73,-76 1473.72,-75.52 1476.81,-74.99 1479.91,-74.43"/>
<polygon fill="#63b8ff" stroke="#63b8ff" points="1133.02,-112.95 1123.54,-117.68 1133.9,-119.89 1133.02,-112.95"/>
</a>
</g>
</g>
<!-- Node26&#45;&gt;Node23 -->
<g id="edge59_Node000026_Node000023" class="edge">
<title>Node26&#45;&gt;Node23</title>
<g id="a_edge59_Node000026_Node000023"><a xlink:title=" ">
<path fill="none" stroke="#63b8ff" d="M1062.35,-110.21C1029.98,-100.33 982.56,-85.87 951.67,-76.44"/>
<polygon fill="#63b8ff" stroke="#63b8ff" points="1061.08,-113.48 1071.67,-113.05 1063.12,-106.78 1061.08,-113.48"/>
</a>
</g>
</g>
<!-- Node26&#45;&gt;Node24 -->
<g id="edge60_Node000026_Node000024" class="edge">
<title>Node26&#45;&gt;Node24</title>
<g id="a_edge60_Node000026_Node000024"><a xlink:title=" ">
<path fill="none" stroke="#63b8ff" d="M1071.48,-106.08C1054.83,-96.62 1033.79,-84.66 1019.4,-76.48"/>
<polygon fill="#63b8ff" stroke="#63b8ff" points="1069.44,-108.95 1079.86,-110.85 1072.9,-102.86 1069.44,-108.95"/>
</a>
</g>
</g>
<!-- Node26&#45;&gt;Node27 -->
<g id="edge61_Node000026_Node000027" class="edge">
<title>Node26&#45;&gt;Node27</title>
<g id="a_edge61_Node000026_Node000027"><a xlink:title=" ">
<path fill="none" stroke="#63b8ff" d="M1133.33,-115.17C1197.11,-104.74 1330.06,-82.98 1393.11,-72.66"/>
<polygon fill="#63b8ff" stroke="#63b8ff" points="1133.06,-111.67 1123.75,-116.74 1134.19,-118.58 1133.06,-111.67"/>
</a>
</g>
</g>
<!-- Node28&#45;&gt;Node27 -->
<g id="edge64_Node000028_Node000027" class="edge">
<title>Node28&#45;&gt;Node27</title>
<g id="a_edge64_Node000028_Node000027"><a xlink:title=" ">
<path fill="none" stroke="#63b8ff" d="M1410.44,-101.58C1414.74,-92.97 1419.61,-83.24 1423.08,-76.3"/>
<polygon fill="#63b8ff" stroke="#63b8ff" points="1407.45,-99.73 1406.11,-110.24 1413.71,-102.86 1407.45,-99.73"/>
</a>
</g>
</g>
</g>
</svg>
