<?xml version="1.0" encoding="UTF-8" standalone="no"?>
<!DOCTYPE svg PUBLIC "-//W3C//DTD SVG 1.1//EN"
 "http://www.w3.org/Graphics/SVG/1.1/DTD/svg11.dtd">
<!-- Generated by graphviz version 13.1.2 (20250808.2320)
 -->
<!-- Title: board.cpp Pages: 1 -->
<svg width="478pt" height="308pt"
 viewBox="0.00 0.00 478.00 308.00" xmlns="http://www.w3.org/2000/svg" xmlns:xlink="http://www.w3.org/1999/xlink">

<svg id="main" version="1.1" xmlns="http://www.w3.org/2000/svg" xmlns:xlink="http://www.w3.org/1999/xlink" xml:space="preserve">

<style type="text/css"><![CDATA[
.node, .edge {opacity: 0.7;}
.node.selected, .edge.selected {opacity: 1;}
.edge:hover path { stroke: red; }
.edge:hover polygon { stroke: red; fill: red; }
]]></style>
<script type="application/ecmascript" xlink:href="svg.min.js"/>
<svg id="graph" class="graph">
<g id="graph0" class="graph" transform="scale(1 1) rotate(0) translate(4 304)">
<title>board.cpp</title>
<!-- Node1 -->
<g id="Node000001" class="node">
<title>Node1</title>
<g id="a_Node000001"><a xlink:title=" ">
<polygon fill="#999999" stroke="#666666" points="195.12,-300 136.38,-300 136.38,-280 195.12,-280 195.12,-300"/>
<text xml:space="preserve" text-anchor="middle" x="165.75" y="-286.5" font-family="Helvetica,sans-Serif" font-size="10.00">board.cpp</text>
</a>
</g>
</g>
<!-- Node2 -->
<g id="Node000002" class="node">
<title>Node2</title>
<g id="a_Node000002"><a xlink:title=" ">
<polygon fill="#e0e0e0" stroke="#999999" points="53.5,-244 0,-244 0,-224 53.5,-224 53.5,-244"/>
<text xml:space="preserve" text-anchor="middle" x="26.75" y="-230.5" font-family="Helvetica,sans-Serif" font-size="10.00">iostream</text>
</a>
</g>
</g>
<!-- Node1&#45;&gt;Node2 -->
<g id="edge1_Node000001_Node000002" class="edge">
<title>Node1&#45;&gt;Node2</title>
<g id="a_edge1_Node000001_Node000002"><a xlink:title=" ">
<path fill="none" stroke="#63b8ff" d="M141.54,-279.59C119.45,-271.01 86.55,-258.23 61.63,-248.55"/>
<polygon fill="#63b8ff" stroke="#63b8ff" points="63.15,-245.39 52.56,-245.03 60.62,-251.91 63.15,-245.39"/>
</a>
</g>
</g>
<!-- Node3 -->
<g id="Node000003" class="node">
<title>Node3</title>
<g id="a_Node000003"><a xlink:href="board_8h.html" target="_top" xlink:title=" ">
<polygon fill="white" stroke="#666666" points="317.88,-244 269.62,-244 269.62,-224 317.88,-224 317.88,-244"/>
<text xml:space="preserve" text-anchor="middle" x="293.75" y="-230.5" font-family="Helvetica,sans-Serif" font-size="10.00">board.h</text>
</a>
</g>
</g>
<!-- Node1&#45;&gt;Node3 -->
<g id="edge2_Node000001_Node000003" class="edge">
<title>Node1&#45;&gt;Node3</title>
<g id="a_edge2_Node000001_Node000003"><a xlink:title=" ">
<path fill="none" stroke="#63b8ff" d="M188.05,-279.59C208.11,-271.13 237.87,-258.58 260.7,-248.94"/>
<polygon fill="#63b8ff" stroke="#63b8ff" points="262.03,-252.18 269.89,-245.07 259.31,-245.73 262.03,-252.18"/>
</a>
</g>
</g>
<!-- Node7 -->
<g id="Node000007" class="node">
<title>Node7</title>
<g id="a_Node000007"><a xlink:href="board__data_8h.html" target="_top" xlink:title=" ">
<polygon fill="white" stroke="#666666" points="171.38,-76 72.12,-76 72.12,-56 171.38,-56 171.38,-76"/>
<text xml:space="preserve" text-anchor="middle" x="121.75" y="-62.5" font-family="Helvetica,sans-Serif" font-size="10.00">board/board_data.h</text>
</a>
</g>
</g>
<!-- Node1&#45;&gt;Node7 -->
<g id="edge10_Node000001_Node000007" class="edge">
<title>Node1&#45;&gt;Node7</title>
<g id="a_edge10_Node000001_Node000007"><a xlink:title=" ">
<path fill="none" stroke="#63b8ff" d="M157.01,-279.64C142,-262.84 111.87,-225.81 100.75,-188 90.47,-153.02 103.29,-110.78 112.94,-86.59"/>
<polygon fill="#63b8ff" stroke="#63b8ff" points="116.04,-88.24 116.72,-77.66 109.6,-85.51 116.04,-88.24"/>
</a>
</g>
</g>
<!-- Node10 -->
<g id="Node000010" class="node">
<title>Node10</title>
<g id="a_Node000010"><a xlink:href="bitboard_8h.html" target="_top" xlink:title=" ">
<polygon fill="white" stroke="#666666" points="469.5,-188 386,-188 386,-168 469.5,-168 469.5,-188"/>
<text xml:space="preserve" text-anchor="middle" x="427.75" y="-174.5" font-family="Helvetica,sans-Serif" font-size="10.00">../util/bitboard.h</text>
</a>
</g>
</g>
<!-- Node1&#45;&gt;Node10 -->
<g id="edge11_Node000001_Node000010" class="edge">
<title>Node1&#45;&gt;Node10</title>
<g id="a_edge11_Node000001_Node000010"><a xlink:title=" ">
<path fill="none" stroke="#63b8ff" d="M195.46,-283.48C228.48,-276.72 282.94,-263.68 326.75,-244 356.2,-230.77 386.98,-209.76 406.7,-195.23"/>
<polygon fill="#63b8ff" stroke="#63b8ff" points="408.58,-198.19 414.48,-189.39 404.38,-192.6 408.58,-198.19"/>
</a>
</g>
</g>
<!-- Node11 -->
<g id="Node000011" class="node">
<title>Node11</title>
<g id="a_Node000011"><a xlink:href="setup_8h.html" target="_top" xlink:title=" ">
<polygon fill="white" stroke="#666666" points="183.25,-188 110.25,-188 110.25,-168 183.25,-168 183.25,-188"/>
<text xml:space="preserve" text-anchor="middle" x="146.75" y="-174.5" font-family="Helvetica,sans-Serif" font-size="10.00">../util/setup.h</text>
</a>
</g>
</g>
<!-- Node1&#45;&gt;Node11 -->
<g id="edge13_Node000001_Node000011" class="edge">
<title>Node1&#45;&gt;Node11</title>
<g id="a_edge13_Node000001_Node000011"><a xlink:title=" ">
<path fill="none" stroke="#63b8ff" d="M160.52,-279.7C155.86,-270.84 149.38,-256.97 146.75,-244 143.79,-229.4 143.89,-212.58 144.67,-199.7"/>
<polygon fill="#63b8ff" stroke="#63b8ff" points="148.15,-200.13 145.47,-189.88 141.17,-199.56 148.15,-200.13"/>
</a>
</g>
</g>
<!-- Node12 -->
<g id="Node000012" class="node">
<title>Node12</title>
<g id="a_Node000012"><a xlink:href="hash__keys_8h.html" target="_top" xlink:title=" ">
<polygon fill="white" stroke="#666666" points="251.88,-244 155.62,-244 155.62,-224 251.88,-224 251.88,-244"/>
<text xml:space="preserve" text-anchor="middle" x="203.75" y="-230.5" font-family="Helvetica,sans-Serif" font-size="10.00">../util/hash_keys.h</text>
</a>
</g>
</g>
<!-- Node1&#45;&gt;Node12 -->
<g id="edge15_Node000001_Node000012" class="edge">
<title>Node1&#45;&gt;Node12</title>
<g id="a_edge15_Node000001_Node000012"><a xlink:title=" ">
<path fill="none" stroke="#63b8ff" d="M172.37,-279.59C177.44,-272.39 184.59,-262.23 190.78,-253.43"/>
<polygon fill="#63b8ff" stroke="#63b8ff" points="193.44,-255.73 196.34,-245.54 187.72,-251.7 193.44,-255.73"/>
</a>
</g>
</g>
<!-- Node4 -->
<g id="Node000004" class="node">
<title>Node4</title>
<g id="a_Node000004"><a xlink:href="defs_8h.html" target="_top" xlink:title=" ">
<polygon fill="white" stroke="#666666" points="237.75,-132 185.75,-132 185.75,-112 237.75,-112 237.75,-132"/>
<text xml:space="preserve" text-anchor="middle" x="211.75" y="-118.5" font-family="Helvetica,sans-Serif" font-size="10.00">../defs.h</text>
</a>
</g>
</g>
<!-- Node3&#45;&gt;Node4 -->
<g id="edge3_Node000003_Node000004" class="edge">
<title>Node3&#45;&gt;Node4</title>
<g id="a_edge3_Node000003_Node000004"><a xlink:title=" ">
<path fill="none" stroke="#63b8ff" d="M308.27,-223.7C326.19,-211.05 352.69,-187.73 338.75,-168 318.67,-139.58 279.05,-129 249.37,-125.11"/>
<polygon fill="#63b8ff" stroke="#63b8ff" points="249.97,-121.66 239.65,-124.06 249.22,-128.62 249.97,-121.66"/>
</a>
</g>
</g>
<!-- Node9 -->
<g id="Node000009" class="node">
<title>Node9</title>
<g id="a_Node000009"><a xlink:title=" ">
<polygon fill="#e0e0e0" stroke="#999999" points="329.5,-188 240,-188 240,-168 329.5,-168 329.5,-188"/>
<text xml:space="preserve" text-anchor="middle" x="284.75" y="-174.5" font-family="Helvetica,sans-Serif" font-size="10.00">../test./validate.h</text>
</a>
</g>
</g>
<!-- Node3&#45;&gt;Node9 -->
<g id="edge9_Node000003_Node000009" class="edge">
<title>Node3&#45;&gt;Node9</title>
<g id="a_edge9_Node000003_Node000009"><a xlink:title=" ">
<path fill="none" stroke="#63b8ff" d="M292.18,-223.59C291.07,-216.93 289.54,-207.75 288.16,-199.44"/>
<polygon fill="#63b8ff" stroke="#63b8ff" points="291.64,-199.08 286.55,-189.79 284.74,-200.23 291.64,-199.08"/>
</a>
</g>
</g>
<!-- Node5 -->
<g id="Node000005" class="node">
<title>Node5</title>
<g id="a_Node000005"><a xlink:title=" ">
<polygon fill="#e0e0e0" stroke="#999999" points="299.5,-76 252,-76 252,-56 299.5,-56 299.5,-76"/>
<text xml:space="preserve" text-anchor="middle" x="275.75" y="-62.5" font-family="Helvetica,sans-Serif" font-size="10.00">stdlib.h</text>
</a>
</g>
</g>
<!-- Node4&#45;&gt;Node5 -->
<g id="edge4_Node000004_Node000005" class="edge">
<title>Node4&#45;&gt;Node5</title>
<g id="a_edge4_Node000004_Node000005"><a xlink:title=" ">
<path fill="none" stroke="#63b8ff" d="M222.9,-111.59C232.08,-103.85 245.3,-92.69 256.23,-83.47"/>
<polygon fill="#63b8ff" stroke="#63b8ff" points="258.19,-86.4 263.57,-77.27 253.67,-81.05 258.19,-86.4"/>
</a>
</g>
</g>
<!-- Node6 -->
<g id="Node000006" class="node">
<title>Node6</title>
<g id="a_Node000006"><a xlink:title=" ">
<polygon fill="#e0e0e0" stroke="#999999" points="234.38,-76 189.12,-76 189.12,-56 234.38,-56 234.38,-76"/>
<text xml:space="preserve" text-anchor="middle" x="211.75" y="-62.5" font-family="Helvetica,sans-Serif" font-size="10.00">stdio.h</text>
</a>
</g>
</g>
<!-- Node4&#45;&gt;Node6 -->
<g id="edge5_Node000004_Node000006" class="edge">
<title>Node4&#45;&gt;Node6</title>
<g id="a_edge5_Node000004_Node000006"><a xlink:title=" ">
<path fill="none" stroke="#63b8ff" d="M211.75,-111.59C211.75,-105.01 211.75,-95.96 211.75,-87.73"/>
<polygon fill="#63b8ff" stroke="#63b8ff" points="215.25,-87.81 211.75,-77.81 208.25,-87.81 215.25,-87.81"/>
</a>
</g>
</g>
<!-- Node4&#45;&gt;Node7 -->
<g id="edge6_Node000004_Node000007" class="edge">
<title>Node4&#45;&gt;Node7</title>
<g id="a_edge6_Node000004_Node000007"><a xlink:title=" ">
<path fill="none" stroke="#63b8ff" d="M190.81,-111.59C175.86,-103.59 156.13,-91.93 141.48,-82.54"/>
<polygon fill="#63b8ff" stroke="#63b8ff" points="143.81,-79.89 133.53,-77.31 139.96,-85.73 143.81,-79.89"/>
</a>
</g>
</g>
<!-- Node7&#45;&gt;Node4 -->
<g id="edge8_Node000007_Node000004" class="edge">
<title>Node7&#45;&gt;Node4</title>
<g id="a_edge8_Node000007_Node000004"><a xlink:title=" ">
<path fill="none" stroke="#63b8ff" d="M142.83,-76.48C157.66,-84.43 177.16,-95.94 191.73,-105.27"/>
<polygon fill="#63b8ff" stroke="#63b8ff" points="189.8,-108.19 200.08,-110.76 193.65,-102.34 189.8,-108.19"/>
</a>
</g>
</g>
<!-- Node8 -->
<g id="Node000008" class="node">
<title>Node8</title>
<g id="a_Node000008"><a xlink:title=" ">
<polygon fill="#e0e0e0" stroke="#999999" points="140.62,-20 102.88,-20 102.88,0 140.62,0 140.62,-20"/>
<text xml:space="preserve" text-anchor="middle" x="121.75" y="-6.5" font-family="Helvetica,sans-Serif" font-size="10.00">array</text>
</a>
</g>
</g>
<!-- Node7&#45;&gt;Node8 -->
<g id="edge7_Node000007_Node000008" class="edge">
<title>Node7&#45;&gt;Node8</title>
<g id="a_edge7_Node000007_Node000008"><a xlink:title=" ">
<path fill="none" stroke="#63b8ff" d="M121.75,-55.59C121.75,-49.01 121.75,-39.96 121.75,-31.73"/>
<polygon fill="#63b8ff" stroke="#63b8ff" points="125.25,-31.81 121.75,-21.81 118.25,-31.81 125.25,-31.81"/>
</a>
</g>
</g>
<!-- Node10&#45;&gt;Node4 -->
<g id="edge12_Node000010_Node000004" class="edge">
<title>Node10&#45;&gt;Node4</title>
<g id="a_edge12_Node000010_Node000004"><a xlink:title=" ">
<path fill="none" stroke="#63b8ff" d="M390.13,-167.59C350.52,-157.69 288.56,-142.2 249.07,-132.33"/>
<polygon fill="#63b8ff" stroke="#63b8ff" points="250.09,-128.98 239.54,-129.95 248.39,-135.77 250.09,-128.98"/>
</a>
</g>
</g>
<!-- Node11&#45;&gt;Node4 -->
<g id="edge14_Node000011_Node000004" class="edge">
<title>Node11&#45;&gt;Node4</title>
<g id="a_edge14_Node000011_Node000004"><a xlink:title=" ">
<path fill="none" stroke="#63b8ff" d="M158.07,-167.59C167.39,-159.85 180.83,-148.69 191.93,-139.47"/>
<polygon fill="#63b8ff" stroke="#63b8ff" points="193.94,-142.35 199.39,-133.27 189.46,-136.96 193.94,-142.35"/>
</a>
</g>
</g>
<!-- Node12&#45;&gt;Node4 -->
<g id="edge16_Node000012_Node000004" class="edge">
<title>Node12&#45;&gt;Node4</title>
<g id="a_edge16_Node000012_Node000004"><a xlink:title=" ">
<path fill="none" stroke="#63b8ff" d="M204.43,-223.62C205.71,-206.01 208.51,-167.59 210.25,-143.65"/>
<polygon fill="#63b8ff" stroke="#63b8ff" points="213.73,-144.09 210.96,-133.86 206.74,-143.58 213.73,-144.09"/>
</a>
</g>
</g>
<!-- Node12&#45;&gt;Node11 -->
<g id="edge17_Node000012_Node000011" class="edge">
<title>Node12&#45;&gt;Node11</title>
<g id="a_edge17_Node000012_Node000011"><a xlink:title=" ">
<path fill="none" stroke="#63b8ff" d="M193.82,-223.59C185.81,-216.01 174.33,-205.13 164.72,-196.02"/>
<polygon fill="#63b8ff" stroke="#63b8ff" points="167.33,-193.68 157.66,-189.34 162.52,-198.76 167.33,-193.68"/>
</a>
</g>
</g>
</g>
</svg>
</svg>

<style type='text/css'>
<![CDATA[
[data-mouse-over-selected='false'] { opacity: 0.7; }
[data-mouse-over-selected='true']  { opacity: 1.0; }
]]>
</style>
<script type="application/ecmascript"><![CDATA[
document.addEventListener('DOMContentLoaded', (event) => {
  highlightEdges();
  highlightAdjacentNodes();
});
]]></script>
</svg>
