<?xml version="1.0" encoding="UTF-8" standalone="no"?>
<!DOCTYPE svg PUBLIC "-//W3C//DTD SVG 1.1//EN"
 "http://www.w3.org/Graphics/SVG/1.1/DTD/svg11.dtd">
<!-- Generated by graphviz version 13.1.2 (20250808.2320)
 -->
<!-- Title: printBoardState Pages: 1 -->
<svg width="256pt" height="47pt"
 viewBox="0.00 0.00 256.00 47.00" xmlns="http://www.w3.org/2000/svg" xmlns:xlink="http://www.w3.org/1999/xlink">
<g id="graph0" class="graph" transform="scale(1 1) rotate(0) translate(4 43)">
<title>printBoardState</title>
<!-- Node1 -->
<g id="Node000001" class="node">
<title>Node1</title>
<g id="a_Node000001"><a xlink:title="Print the board to stdout in a human&#45;readable format.">
<polygon fill="#999999" stroke="#666666" points="248.25,-39 164.75,-39 164.75,-19 248.25,-19 248.25,-39"/>
<text xml:space="preserve" text-anchor="middle" x="206.5" y="-25.5" font-family="Helvetica,sans-Serif" font-size="10.00">printBoardState</text>
</a>
</g>
</g>
<!-- Node2 -->
<g id="Node000002" class="node">
<title>Node2</title>
<g id="a_Node000002"><a xlink:href="main_8cpp.html#ae66f6b31b5ad750f1fe042a706a4e3d4" target="_top" xlink:title=" ">
<polygon fill="white" stroke="#666666" points="37,-39 0,-39 0,-19 37,-19 37,-39"/>
<text xml:space="preserve" text-anchor="middle" x="18.5" y="-25.5" font-family="Helvetica,sans-Serif" font-size="10.00">main</text>
</a>
</g>
</g>
<!-- Node1&#45;&gt;Node2 -->
<g id="edge1_Node000001_Node000002" class="edge">
<title>Node1&#45;&gt;Node2</title>
<g id="a_edge1_Node000001_Node000002"><a xlink:title=" ">
<path fill="none" stroke="#63b8ff" d="M153.29,-29C114.39,-29 63.62,-29 37.21,-29"/>
<polygon fill="#63b8ff" stroke="#63b8ff" points="153.17,-32.5 163.17,-29 153.17,-25.5 153.17,-32.5"/>
</a>
</g>
</g>
<!-- Node3 -->
<g id="Node000003" class="node">
<title>Node3</title>
<g id="a_Node000003"><a xlink:href="perft_8cpp.html#a1b6b13d186dab20a18cec1a6b041220b" target="_top" xlink:title="Executes a perft test and prints move breakdown and timing.">
<polygon fill="white" stroke="#666666" points="128.75,-20 73,-20 73,0 128.75,0 128.75,-20"/>
<text xml:space="preserve" text-anchor="middle" x="100.88" y="-6.5" font-family="Helvetica,sans-Serif" font-size="10.00">PerftTest</text>
</a>
</g>
</g>
<!-- Node1&#45;&gt;Node3 -->
<g id="edge2_Node000001_Node000003" class="edge">
<title>Node1&#45;&gt;Node3</title>
<g id="a_edge2_Node000001_Node000003"><a xlink:title=" ">
<path fill="none" stroke="#63b8ff" d="M153.25,-19.42C144.92,-17.89 136.61,-16.37 129.16,-15"/>
<polygon fill="#63b8ff" stroke="#63b8ff" points="152.59,-22.86 163.06,-21.22 153.85,-15.97 152.59,-22.86"/>
</a>
</g>
</g>
<!-- Node3&#45;&gt;Node2 -->
<g id="edge3_Node000003_Node000002" class="edge">
<title>Node3&#45;&gt;Node2</title>
<g id="a_edge3_Node000003_Node000002"><a xlink:title=" ">
<path fill="none" stroke="#63b8ff" d="M61.68,-19.03C53.18,-21.04 44.55,-23.08 37.34,-24.78"/>
<polygon fill="#63b8ff" stroke="#63b8ff" points="62.26,-22.49 71.19,-16.78 60.65,-15.68 62.26,-22.49"/>
</a>
</g>
</g>
</g>
</svg>
