<?xml version="1.0" encoding="UTF-8" standalone="no"?>
<!DOCTYPE svg PUBLIC "-//W3C//DTD SVG 1.1//EN"
 "http://www.w3.org/Graphics/SVG/1.1/DTD/svg11.dtd">
<!-- Generated by graphviz version 13.1.2 (20250808.2320)
 -->
<!-- Title: board_data.cpp Pages: 1 -->
<svg width="145pt" height="196pt"
 viewBox="0.00 0.00 145.00 196.00" xmlns="http://www.w3.org/2000/svg" xmlns:xlink="http://www.w3.org/1999/xlink">
<g id="graph0" class="graph" transform="scale(1 1) rotate(0) translate(4 192)">
<title>board_data.cpp</title>
<!-- Node1 -->
<g id="Node000001" class="node">
<title>Node1</title>
<g id="a_Node000001"><a xlink:title=" ">
<polygon fill="#999999" stroke="#666666" points="123.25,-188 40.5,-188 40.5,-168 123.25,-168 123.25,-188"/>
<text xml:space="preserve" text-anchor="middle" x="81.88" y="-174.5" font-family="Helvetica,sans-Serif" font-size="10.00">board_data.cpp</text>
</a>
</g>
</g>
<!-- Node2 -->
<g id="Node000002" class="node">
<title>Node2</title>
<g id="a_Node000002"><a xlink:href="board__data_8h.html" target="_top" xlink:title=" ">
<polygon fill="white" stroke="#666666" points="118,-132 45.75,-132 45.75,-112 118,-112 118,-132"/>
<text xml:space="preserve" text-anchor="middle" x="81.88" y="-118.5" font-family="Helvetica,sans-Serif" font-size="10.00">board_data.h</text>
</a>
</g>
</g>
<!-- Node1&#45;&gt;Node2 -->
<g id="edge1_Node000001_Node000002" class="edge">
<title>Node1&#45;&gt;Node2</title>
<g id="a_edge1_Node000001_Node000002"><a xlink:title=" ">
<path fill="none" stroke="#63b8ff" d="M81.88,-167.59C81.88,-161.01 81.88,-151.96 81.88,-143.73"/>
<polygon fill="#63b8ff" stroke="#63b8ff" points="85.38,-143.81 81.88,-133.81 78.38,-143.81 85.38,-143.81"/>
</a>
</g>
</g>
<!-- Node3 -->
<g id="Node000003" class="node">
<title>Node3</title>
<g id="a_Node000003"><a xlink:title=" ">
<polygon fill="#e0e0e0" stroke="#999999" points="37.75,-76 0,-76 0,-56 37.75,-56 37.75,-76"/>
<text xml:space="preserve" text-anchor="middle" x="18.88" y="-62.5" font-family="Helvetica,sans-Serif" font-size="10.00">array</text>
</a>
</g>
</g>
<!-- Node2&#45;&gt;Node3 -->
<g id="edge2_Node000002_Node000003" class="edge">
<title>Node2&#45;&gt;Node3</title>
<g id="a_edge2_Node000002_Node000003"><a xlink:title=" ">
<path fill="none" stroke="#63b8ff" d="M70.9,-111.59C61.96,-103.93 49.1,-92.91 38.41,-83.75"/>
<polygon fill="#63b8ff" stroke="#63b8ff" points="40.74,-81.13 30.87,-77.28 36.19,-86.45 40.74,-81.13"/>
</a>
</g>
</g>
<!-- Node4 -->
<g id="Node000004" class="node">
<title>Node4</title>
<g id="a_Node000004"><a xlink:href="defs_8h.html" target="_top" xlink:title=" ">
<polygon fill="white" stroke="#666666" points="107.88,-76 55.88,-76 55.88,-56 107.88,-56 107.88,-76"/>
<text xml:space="preserve" text-anchor="middle" x="81.88" y="-62.5" font-family="Helvetica,sans-Serif" font-size="10.00">../defs.h</text>
</a>
</g>
</g>
<!-- Node2&#45;&gt;Node4 -->
<g id="edge3_Node000002_Node000004" class="edge">
<title>Node2&#45;&gt;Node4</title>
<g id="a_edge3_Node000002_Node000004"><a xlink:title=" ">
<path fill="none" stroke="#63b8ff" d="M76.61,-111.59C75.29,-105.01 74.85,-95.96 75.29,-87.73"/>
<polygon fill="#63b8ff" stroke="#63b8ff" points="78.77,-88.14 76.45,-77.8 71.81,-87.33 78.77,-88.14"/>
</a>
</g>
</g>
<!-- Node4&#45;&gt;Node2 -->
<g id="edge6_Node000004_Node000002" class="edge">
<title>Node4&#45;&gt;Node2</title>
<g id="a_edge6_Node000004_Node000002"><a xlink:title=" ">
<path fill="none" stroke="#63b8ff" d="M87.12,-76.3C88.46,-82.93 88.91,-92.11 88.45,-100.43"/>
<polygon fill="#63b8ff" stroke="#63b8ff" points="85.01,-99.75 87.32,-110.09 91.96,-100.57 85.01,-99.75"/>
</a>
</g>
</g>
<!-- Node5 -->
<g id="Node000005" class="node">
<title>Node5</title>
<g id="a_Node000005"><a xlink:title=" ">
<polygon fill="#e0e0e0" stroke="#999999" points="73.62,-20 26.12,-20 26.12,0 73.62,0 73.62,-20"/>
<text xml:space="preserve" text-anchor="middle" x="49.88" y="-6.5" font-family="Helvetica,sans-Serif" font-size="10.00">stdlib.h</text>
</a>
</g>
</g>
<!-- Node4&#45;&gt;Node5 -->
<g id="edge4_Node000004_Node000005" class="edge">
<title>Node4&#45;&gt;Node5</title>
<g id="a_edge4_Node000004_Node000005"><a xlink:title=" ">
<path fill="none" stroke="#63b8ff" d="M76.3,-55.59C72.13,-48.55 66.27,-38.67 61.13,-30"/>
<polygon fill="#63b8ff" stroke="#63b8ff" points="64.27,-28.42 56.16,-21.6 58.24,-31.99 64.27,-28.42"/>
</a>
</g>
</g>
<!-- Node6 -->
<g id="Node000006" class="node">
<title>Node6</title>
<g id="a_Node000006"><a xlink:title=" ">
<polygon fill="#e0e0e0" stroke="#999999" points="136.5,-20 91.25,-20 91.25,0 136.5,0 136.5,-20"/>
<text xml:space="preserve" text-anchor="middle" x="113.88" y="-6.5" font-family="Helvetica,sans-Serif" font-size="10.00">stdio.h</text>
</a>
</g>
</g>
<!-- Node4&#45;&gt;Node6 -->
<g id="edge5_Node000004_Node000006" class="edge">
<title>Node4&#45;&gt;Node6</title>
<g id="a_edge5_Node000004_Node000006"><a xlink:title=" ">
<path fill="none" stroke="#63b8ff" d="M87.45,-55.59C91.62,-48.55 97.48,-38.67 102.62,-30"/>
<polygon fill="#63b8ff" stroke="#63b8ff" points="105.51,-31.99 107.59,-21.6 99.48,-28.42 105.51,-31.99"/>
</a>
</g>
</g>
</g>
</svg>
