<?xml version="1.0" encoding="UTF-8" standalone="no"?>
<!DOCTYPE svg PUBLIC "-//W3C//DTD SVG 1.1//EN"
 "http://www.w3.org/Graphics/SVG/1.1/DTD/svg11.dtd">
<!-- Generated by graphviz version 13.1.2 (20250808.2320)
 -->
<!-- Title: hash_keys.cpp Pages: 1 -->
<svg width="235pt" height="252pt"
 viewBox="0.00 0.00 235.00 252.00" xmlns="http://www.w3.org/2000/svg" xmlns:xlink="http://www.w3.org/1999/xlink">

<svg id="main" version="1.1" xmlns="http://www.w3.org/2000/svg" xmlns:xlink="http://www.w3.org/1999/xlink" xml:space="preserve">

<style type="text/css"><![CDATA[
.node, .edge {opacity: 0.7;}
.node.selected, .edge.selected {opacity: 1;}
.edge:hover path { stroke: red; }
.edge:hover polygon { stroke: red; fill: red; }
]]></style>
<script type="application/ecmascript" xlink:href="svg.min.js"/>
<svg id="graph" class="graph">
<g id="graph0" class="graph" transform="scale(1 1) rotate(0) translate(4 248)">
<title>hash_keys.cpp</title>
<!-- Node1 -->
<g id="Node000001" class="node">
<title>Node1</title>
<g id="a_Node000001"><a xlink:title=" ">
<polygon fill="#999999" stroke="#666666" points="147.75,-244 65.75,-244 65.75,-224 147.75,-224 147.75,-244"/>
<text xml:space="preserve" text-anchor="middle" x="106.75" y="-230.5" font-family="Helvetica,sans-Serif" font-size="10.00">hash_keys.cpp</text>
</a>
</g>
</g>
<!-- Node2 -->
<g id="Node000002" class="node">
<title>Node2</title>
<g id="a_Node000002"><a xlink:title=" ">
<polygon fill="#e0e0e0" stroke="#999999" points="78.88,-188 36.62,-188 36.62,-168 78.88,-168 78.88,-188"/>
<text xml:space="preserve" text-anchor="middle" x="57.75" y="-174.5" font-family="Helvetica,sans-Serif" font-size="10.00">cstdio</text>
</a>
</g>
</g>
<!-- Node1&#45;&gt;Node2 -->
<g id="edge1_Node000001_Node000002" class="edge">
<title>Node1&#45;&gt;Node2</title>
<g id="a_edge1_Node000001_Node000002"><a xlink:title=" ">
<path fill="none" stroke="#63b8ff" d="M98.21,-223.59C91.47,-216.16 81.86,-205.58 73.71,-196.58"/>
<polygon fill="#63b8ff" stroke="#63b8ff" points="76.52,-194.47 67.2,-189.42 71.33,-199.18 76.52,-194.47"/>
</a>
</g>
</g>
<!-- Node3 -->
<g id="Node000003" class="node">
<title>Node3</title>
<g id="a_Node000003"><a xlink:href="defs_8h.html" target="_top" xlink:title=" ">
<polygon fill="white" stroke="#666666" points="158.75,-132 106.75,-132 106.75,-112 158.75,-112 158.75,-132"/>
<text xml:space="preserve" text-anchor="middle" x="132.75" y="-118.5" font-family="Helvetica,sans-Serif" font-size="10.00">../defs.h</text>
</a>
</g>
</g>
<!-- Node1&#45;&gt;Node3 -->
<g id="edge2_Node000001_Node000003" class="edge">
<title>Node1&#45;&gt;Node3</title>
<g id="a_edge2_Node000001_Node000003"><a xlink:title=" ">
<path fill="none" stroke="#63b8ff" d="M108.97,-223.62C113.15,-205.92 122.29,-167.24 127.95,-143.32"/>
<polygon fill="#63b8ff" stroke="#63b8ff" points="131.3,-144.36 130.19,-133.83 124.48,-142.75 131.3,-144.36"/>
</a>
</g>
</g>
<!-- Node8 -->
<g id="Node000008" class="node">
<title>Node8</title>
<g id="a_Node000008"><a xlink:href="setup_8h.html" target="_top" xlink:title=" ">
<polygon fill="white" stroke="#666666" points="182.88,-188 134.62,-188 134.62,-168 182.88,-168 182.88,-188"/>
<text xml:space="preserve" text-anchor="middle" x="158.75" y="-174.5" font-family="Helvetica,sans-Serif" font-size="10.00">setup.h</text>
</a>
</g>
</g>
<!-- Node1&#45;&gt;Node8 -->
<g id="edge8_Node000001_Node000008" class="edge">
<title>Node1&#45;&gt;Node8</title>
<g id="a_edge8_Node000001_Node000008"><a xlink:title=" ">
<path fill="none" stroke="#63b8ff" d="M115.81,-223.59C122.97,-216.16 133.16,-205.58 141.82,-196.58"/>
<polygon fill="#63b8ff" stroke="#63b8ff" points="144.33,-199.02 148.75,-189.39 139.29,-194.16 144.33,-199.02"/>
</a>
</g>
</g>
<!-- Node4 -->
<g id="Node000004" class="node">
<title>Node4</title>
<g id="a_Node000004"><a xlink:title=" ">
<polygon fill="#e0e0e0" stroke="#999999" points="47.5,-76 0,-76 0,-56 47.5,-56 47.5,-76"/>
<text xml:space="preserve" text-anchor="middle" x="23.75" y="-62.5" font-family="Helvetica,sans-Serif" font-size="10.00">stdlib.h</text>
</a>
</g>
</g>
<!-- Node3&#45;&gt;Node4 -->
<g id="edge3_Node000003_Node000004" class="edge">
<title>Node3&#45;&gt;Node4</title>
<g id="a_edge3_Node000003_Node000004"><a xlink:title=" ">
<path fill="none" stroke="#63b8ff" d="M113.76,-111.59C96.99,-103.28 72.26,-91.03 52.96,-81.47"/>
<polygon fill="#63b8ff" stroke="#63b8ff" points="54.76,-78.45 44.24,-77.15 51.65,-84.73 54.76,-78.45"/>
</a>
</g>
</g>
<!-- Node5 -->
<g id="Node000005" class="node">
<title>Node5</title>
<g id="a_Node000005"><a xlink:title=" ">
<polygon fill="#e0e0e0" stroke="#999999" points="110.38,-76 65.12,-76 65.12,-56 110.38,-56 110.38,-76"/>
<text xml:space="preserve" text-anchor="middle" x="87.75" y="-62.5" font-family="Helvetica,sans-Serif" font-size="10.00">stdio.h</text>
</a>
</g>
</g>
<!-- Node3&#45;&gt;Node5 -->
<g id="edge4_Node000003_Node000005" class="edge">
<title>Node3&#45;&gt;Node5</title>
<g id="a_edge4_Node000003_Node000005"><a xlink:title=" ">
<path fill="none" stroke="#63b8ff" d="M124.91,-111.59C118.78,-104.24 110.08,-93.8 102.64,-84.87"/>
<polygon fill="#63b8ff" stroke="#63b8ff" points="105.56,-82.9 96.47,-77.46 100.18,-87.38 105.56,-82.9"/>
</a>
</g>
</g>
<!-- Node6 -->
<g id="Node000006" class="node">
<title>Node6</title>
<g id="a_Node000006"><a xlink:href="board__data_8h.html" target="_top" xlink:title=" ">
<polygon fill="white" stroke="#666666" points="227.38,-76 128.12,-76 128.12,-56 227.38,-56 227.38,-76"/>
<text xml:space="preserve" text-anchor="middle" x="177.75" y="-62.5" font-family="Helvetica,sans-Serif" font-size="10.00">board/board_data.h</text>
</a>
</g>
</g>
<!-- Node3&#45;&gt;Node6 -->
<g id="edge5_Node000003_Node000006" class="edge">
<title>Node3&#45;&gt;Node6</title>
<g id="a_edge5_Node000003_Node000006"><a xlink:title=" ">
<path fill="none" stroke="#63b8ff" d="M135.32,-111.59C140.08,-104.08 148.66,-93.35 156.98,-84.3"/>
<polygon fill="#63b8ff" stroke="#63b8ff" points="159.25,-87 163.7,-77.38 154.22,-82.12 159.25,-87"/>
</a>
</g>
</g>
<!-- Node6&#45;&gt;Node3 -->
<g id="edge7_Node000006_Node000003" class="edge">
<title>Node6&#45;&gt;Node3</title>
<g id="a_edge7_Node000006_Node000003"><a xlink:title=" ">
<path fill="none" stroke="#63b8ff" d="M175.25,-76.3C170.53,-83.78 161.97,-94.5 153.64,-103.57"/>
<polygon fill="#63b8ff" stroke="#63b8ff" points="151.36,-100.89 146.91,-110.51 156.38,-105.76 151.36,-100.89"/>
</a>
</g>
</g>
<!-- Node7 -->
<g id="Node000007" class="node">
<title>Node7</title>
<g id="a_Node000007"><a xlink:title=" ">
<polygon fill="#e0e0e0" stroke="#999999" points="196.62,-20 158.88,-20 158.88,0 196.62,0 196.62,-20"/>
<text xml:space="preserve" text-anchor="middle" x="177.75" y="-6.5" font-family="Helvetica,sans-Serif" font-size="10.00">array</text>
</a>
</g>
</g>
<!-- Node6&#45;&gt;Node7 -->
<g id="edge6_Node000006_Node000007" class="edge">
<title>Node6&#45;&gt;Node7</title>
<g id="a_edge6_Node000006_Node000007"><a xlink:title=" ">
<path fill="none" stroke="#63b8ff" d="M177.75,-55.59C177.75,-49.01 177.75,-39.96 177.75,-31.73"/>
<polygon fill="#63b8ff" stroke="#63b8ff" points="181.25,-31.81 177.75,-21.81 174.25,-31.81 181.25,-31.81"/>
</a>
</g>
</g>
<!-- Node8&#45;&gt;Node3 -->
<g id="edge9_Node000008_Node000003" class="edge">
<title>Node8&#45;&gt;Node3</title>
<g id="a_edge9_Node000008_Node000003"><a xlink:title=" ">
<path fill="none" stroke="#63b8ff" d="M154.22,-167.59C150.9,-160.7 146.28,-151.1 142.17,-142.57"/>
<polygon fill="#63b8ff" stroke="#63b8ff" points="145.38,-141.15 137.88,-133.66 139.07,-144.19 145.38,-141.15"/>
</a>
</g>
</g>
</g>
</svg>
</svg>

<style type='text/css'>
<![CDATA[
[data-mouse-over-selected='false'] { opacity: 0.7; }
[data-mouse-over-selected='true']  { opacity: 1.0; }
]]>
</style>
<script type="application/ecmascript"><![CDATA[
document.addEventListener('DOMContentLoaded', (event) => {
  highlightEdges();
  highlightAdjacentNodes();
});
]]></script>
</svg>
