<?xml version="1.0" encoding="UTF-8" standalone="no"?>
<!DOCTYPE svg PUBLIC "-//W3C//DTD SVG 1.1//EN"
 "http://www.w3.org/Graphics/SVG/1.1/DTD/svg11.dtd">
<!-- Generated by graphviz version 13.1.2 (20250808.2320)
 -->
<!-- Title: LegalMovesFrom Pages: 1 -->
<svg width="926pt" height="1007pt"
 viewBox="0.00 0.00 926.00 1007.00" xmlns="http://www.w3.org/2000/svg" xmlns:xlink="http://www.w3.org/1999/xlink">
<g id="graph0" class="graph" transform="scale(1 1) rotate(0) translate(4 1003.37)">
<title>LegalMovesFrom</title>
<!-- Node1 -->
<g id="Node000001" class="node">
<title>Node1</title>
<g id="a_Node000001"><a xlink:title="Build list of legal moves that originate from from.">
<polygon fill="#999999" stroke="#666666" points="91,-191.67 0,-191.67 0,-171.67 91,-171.67 91,-191.67"/>
<text xml:space="preserve" text-anchor="middle" x="45.5" y="-178.17" font-family="Helvetica,sans-Serif" font-size="10.00">LegalMovesFrom</text>
</a>
</g>
</g>
<!-- Node2 -->
<g id="Node000002" class="node">
<title>Node2</title>
<g id="a_Node000002"><a xlink:href="move__generator_8cpp.html#a4d7178784dec62b5c55f61f52c432fdf" target="_top" xlink:title="Generate all pseudo&#45;legal moves for the side to move.">
<polygon fill="white" stroke="#666666" points="221,-628.67 127,-628.67 127,-608.67 221,-608.67 221,-628.67"/>
<text xml:space="preserve" text-anchor="middle" x="174" y="-615.17" font-family="Helvetica,sans-Serif" font-size="10.00">generateAllMoves</text>
</a>
</g>
</g>
<!-- Node1&#45;&gt;Node2 -->
<g id="edge1_Node000001_Node000002" class="edge">
<title>Node1&#45;&gt;Node2</title>
<g id="a_edge1_Node000001_Node000002"><a xlink:title=" ">
<path fill="none" stroke="#63b8ff" d="M49.5,-192.04C65.84,-248.48 144.13,-518.94 166.82,-597.33"/>
<polygon fill="#63b8ff" stroke="#63b8ff" points="163.41,-598.11 169.55,-606.75 170.13,-596.17 163.41,-598.11"/>
</a>
</g>
</g>
<!-- Node21 -->
<g id="Node000021" class="node">
<title>Node21</title>
<g id="a_Node000021"><a xlink:href="make__move_8cpp.html#a1b56f6dd56425f5fcc2c84f44025d4f5" target="_top" xlink:title="Make a move; returns non&#45;zero if legal (king not left in check).">
<polygon fill="white" stroke="#666666" points="206,-210.67 142,-210.67 142,-190.67 206,-190.67 206,-210.67"/>
<text xml:space="preserve" text-anchor="middle" x="174" y="-197.17" font-family="Helvetica,sans-Serif" font-size="10.00">makeMove</text>
</a>
</g>
</g>
<!-- Node1&#45;&gt;Node21 -->
<g id="edge46_Node000001_Node000021" class="edge">
<title>Node1&#45;&gt;Node21</title>
<g id="a_edge46_Node000001_Node000021"><a xlink:title=" ">
<path fill="none" stroke="#63b8ff" d="M91.46,-188.42C104.18,-190.33 117.98,-192.4 130.55,-194.29"/>
<polygon fill="#63b8ff" stroke="#63b8ff" points="129.78,-197.72 140.19,-195.74 130.82,-190.79 129.78,-197.72"/>
</a>
</g>
</g>
<!-- Node25 -->
<g id="Node000025" class="node">
<title>Node25</title>
<g id="a_Node000025"><a xlink:href="make__move_8cpp.html#aa9576282fc64517514da4a21518ae4d7" target="_top" xlink:title="Undo the last made move.">
<polygon fill="white" stroke="#666666" points="349.12,-134.67 290.38,-134.67 290.38,-114.67 349.12,-114.67 349.12,-134.67"/>
<text xml:space="preserve" text-anchor="middle" x="319.75" y="-121.17" font-family="Helvetica,sans-Serif" font-size="10.00">takeMove</text>
</a>
</g>
</g>
<!-- Node1&#45;&gt;Node25 -->
<g id="edge73_Node000001_Node000025" class="edge">
<title>Node1&#45;&gt;Node25</title>
<g id="a_edge73_Node000001_Node000025"><a xlink:title=" ">
<path fill="none" stroke="#63b8ff" d="M91.46,-172.26C143.72,-161.31 229.16,-143.42 279.06,-132.98"/>
<polygon fill="#63b8ff" stroke="#63b8ff" points="279.49,-136.46 288.56,-130.99 278.06,-129.61 279.49,-136.46"/>
</a>
</g>
</g>
<!-- Node26 -->
<g id="Node000026" class="node">
<title>Node26</title>
<g id="a_Node000026"><a xlink:href="notation_8cpp.html#ab1eb5ed474149c062a78aca6241d4b07" target="_top" xlink:title="Convert a board square index to algebraic notation.">
<polygon fill="white" stroke="#666666" points="214.62,-134.67 133.38,-134.67 133.38,-114.67 214.62,-114.67 214.62,-134.67"/>
<text xml:space="preserve" text-anchor="middle" x="174" y="-121.17" font-family="Helvetica,sans-Serif" font-size="10.00">squareToString</text>
</a>
</g>
</g>
<!-- Node1&#45;&gt;Node26 -->
<g id="edge72_Node000001_Node000026" class="edge">
<title>Node1&#45;&gt;Node26</title>
<g id="a_edge72_Node000001_Node000026"><a xlink:title=" ">
<path fill="none" stroke="#63b8ff" d="M69.7,-171.21C89.32,-162.38 117.66,-149.6 139.7,-139.67"/>
<polygon fill="#63b8ff" stroke="#63b8ff" points="140.89,-142.98 148.57,-135.68 138.01,-136.6 140.89,-142.98"/>
</a>
</g>
</g>
<!-- Node3 -->
<g id="Node000003" class="node">
<title>Node3</title>
<g id="a_Node000003"><a xlink:href="move__generator_8cpp.html#a21d952c048f6586610eafeefcd4a0341" target="_top" xlink:title=" ">
<polygon fill="white" stroke="#666666" points="382.12,-628.67 257.38,-628.67 257.38,-608.67 382.12,-608.67 382.12,-628.67"/>
<text xml:space="preserve" text-anchor="middle" x="319.75" y="-615.17" font-family="Helvetica,sans-Serif" font-size="10.00">AddBlackPawnCapMove</text>
</a>
</g>
</g>
<!-- Node2&#45;&gt;Node3 -->
<g id="edge2_Node000002_Node000003" class="edge">
<title>Node2&#45;&gt;Node3</title>
<g id="a_edge2_Node000002_Node000003"><a xlink:title=" ">
<path fill="none" stroke="#63b8ff" d="M221.27,-618.67C229.12,-618.67 237.43,-618.67 245.76,-618.67"/>
<polygon fill="#63b8ff" stroke="#63b8ff" points="245.58,-622.17 255.58,-618.67 245.58,-615.17 245.58,-622.17"/>
</a>
</g>
</g>
<!-- Node4 -->
<g id="Node000004" class="node">
<title>Node4</title>
<g id="a_Node000004"><a xlink:href="move__generator_8cpp.html#ad22de88ed58f37e575d4d3bbb7925329" target="_top" xlink:title=" ">
<polygon fill="white" stroke="#666666" points="517,-476.67 425.25,-476.67 425.25,-456.67 517,-456.67 517,-476.67"/>
<text xml:space="preserve" text-anchor="middle" x="471.12" y="-463.17" font-family="Helvetica,sans-Serif" font-size="10.00">AddCaptureMove</text>
</a>
</g>
</g>
<!-- Node2&#45;&gt;Node4 -->
<g id="edge20_Node000002_Node000004" class="edge">
<title>Node2&#45;&gt;Node4</title>
<g id="a_edge20_Node000002_Node000004"><a xlink:title=" ">
<path fill="none" stroke="#63b8ff" d="M180.98,-608.3C192.86,-588.66 221.37,-546.01 257,-523.67 282.98,-507.38 359.83,-489.17 413.76,-477.81"/>
<polygon fill="#63b8ff" stroke="#63b8ff" points="414.33,-481.27 423.41,-475.81 412.9,-474.42 414.33,-481.27"/>
</a>
</g>
</g>
<!-- Node5 -->
<g id="Node000005" class="node">
<title>Node5</title>
<g id="a_Node000005"><a xlink:href="board_8cpp.html#a27f071824f45c724e8ddd02c72b39871" target="_top" xlink:title="Performs a full internal consistency check of the board state.">
<polygon fill="white" stroke="#666666" points="660.88,-571.67 567.62,-571.67 567.62,-551.67 660.88,-551.67 660.88,-571.67"/>
<text xml:space="preserve" text-anchor="middle" x="614.25" y="-558.17" font-family="Helvetica,sans-Serif" font-size="10.00">isBoardStateValid</text>
</a>
</g>
</g>
<!-- Node2&#45;&gt;Node5 -->
<g id="edge34_Node000002_Node000005" class="edge">
<title>Node2&#45;&gt;Node5</title>
<g id="a_edge34_Node000002_Node000005"><a xlink:title=" ">
<path fill="none" stroke="#63b8ff" d="M215.68,-608.21C228.8,-605.12 243.45,-601.95 257,-599.67 361.73,-582.02 485.23,-571.01 555.88,-565.63"/>
<polygon fill="#63b8ff" stroke="#63b8ff" points="555.95,-569.14 565.66,-564.9 555.43,-562.16 555.95,-569.14"/>
</a>
</g>
</g>
<!-- Node7 -->
<g id="Node000007" class="node">
<title>Node7</title>
<g id="a_Node000007"><a xlink:href="validate_8cpp.html#ad5a569564ef016ed02a4fef23d89d9c4" target="_top" xlink:title="Checks if a given square index refers to a valid on&#45;board square.">
<polygon fill="white" stroke="#666666" points="918.25,-552.67 852,-552.67 852,-532.67 918.25,-532.67 918.25,-552.67"/>
<text xml:space="preserve" text-anchor="middle" x="885.12" y="-539.17" font-family="Helvetica,sans-Serif" font-size="10.00">SqOnBoard</text>
</a>
</g>
</g>
<!-- Node2&#45;&gt;Node7 -->
<g id="edge45_Node000002_Node000007" class="edge">
<title>Node2&#45;&gt;Node7</title>
<g id="a_edge45_Node000002_Node000007"><a xlink:title=" ">
<path fill="none" stroke="#63b8ff" d="M176.35,-629.02C182.91,-678.09 213.1,-886.75 257,-932.67 325.53,-1004.34 370.96,-998.67 470.12,-998.67 470.12,-998.67 470.12,-998.67 615.25,-998.67 708.12,-998.67 754.1,-1009.9 816,-940.67 866.57,-884.1 880.33,-638.61 883.37,-564.15"/>
<polygon fill="#63b8ff" stroke="#63b8ff" points="886.85,-564.66 883.74,-554.53 879.86,-564.39 886.85,-564.66"/>
</a>
</g>
</g>
<!-- Node9 -->
<g id="Node000009" class="node">
<title>Node9</title>
<g id="a_Node000009"><a xlink:href="validate_8cpp.html#aca205110cd18879d0e0a965dee34b776" target="_top" xlink:title="Checks if the given piece code is a valid piece (non&#45;empty).">
<polygon fill="white" stroke="#666666" points="649.62,-248.67 578.88,-248.67 578.88,-228.67 649.62,-228.67 649.62,-248.67"/>
<text xml:space="preserve" text-anchor="middle" x="614.25" y="-235.17" font-family="Helvetica,sans-Serif" font-size="10.00">pieceValueid</text>
</a>
</g>
</g>
<!-- Node2&#45;&gt;Node9 -->
<g id="edge44_Node000002_Node000009" class="edge">
<title>Node2&#45;&gt;Node9</title>
<g id="a_edge44_Node000002_Node000009"><a xlink:title=" ">
<path fill="none" stroke="#63b8ff" d="M175.64,-608.36C178.42,-572.8 192.34,-454 257,-389.67 346.11,-301.01 410.72,-350.68 523.75,-295.67 547.51,-284.1 572.74,-267.6 590.34,-255.33"/>
<polygon fill="#63b8ff" stroke="#63b8ff" points="591.9,-258.52 598.03,-249.88 587.85,-252.8 591.9,-258.52"/>
</a>
</g>
</g>
<!-- Node11 -->
<g id="Node000011" class="node">
<title>Node11</title>
<g id="a_Node000011"><a xlink:href="move__generator_8cpp.html#a529fbdfe853d3ad841c4c0b88c8e55f8" target="_top" xlink:title=" ">
<polygon fill="white" stroke="#666666" points="373.12,-923.67 266.38,-923.67 266.38,-903.67 373.12,-903.67 373.12,-923.67"/>
<text xml:space="preserve" text-anchor="middle" x="319.75" y="-910.17" font-family="Helvetica,sans-Serif" font-size="10.00">AddBlackPawnMove</text>
</a>
</g>
</g>
<!-- Node2&#45;&gt;Node11 -->
<g id="edge14_Node000002_Node000011" class="edge">
<title>Node2&#45;&gt;Node11</title>
<g id="a_edge14_Node000002_Node000011"><a xlink:title=" ">
<path fill="none" stroke="#63b8ff" d="M175.99,-628.85C179.95,-665.18 197.49,-790.5 257,-870.67 264.99,-881.43 276.49,-890.47 287.41,-897.44"/>
<polygon fill="#63b8ff" stroke="#63b8ff" points="285.47,-900.36 295.85,-902.48 289.06,-894.35 285.47,-900.36"/>
</a>
</g>
</g>
<!-- Node12 -->
<g id="Node000012" class="node">
<title>Node12</title>
<g id="a_Node000012"><a xlink:href="move__generator_8cpp.html#a3a38227acc56d0a4f2531c45bbf17a43" target="_top" xlink:title=" ">
<polygon fill="white" stroke="#666666" points="511.38,-894.67 430.88,-894.67 430.88,-874.67 511.38,-874.67 511.38,-894.67"/>
<text xml:space="preserve" text-anchor="middle" x="471.12" y="-881.17" font-family="Helvetica,sans-Serif" font-size="10.00">AddQuietMove</text>
</a>
</g>
</g>
<!-- Node2&#45;&gt;Node12 -->
<g id="edge24_Node000002_Node000012" class="edge">
<title>Node2&#45;&gt;Node12</title>
<g id="a_edge24_Node000002_Node000012"><a xlink:title=" ">
<path fill="none" stroke="#63b8ff" d="M176.83,-628.82C182.79,-659.03 204.36,-749.39 257,-799.67 302.24,-842.88 372.18,-865.06 419.49,-875.76"/>
<polygon fill="#63b8ff" stroke="#63b8ff" points="418.72,-879.17 429.23,-877.85 420.19,-872.33 418.72,-879.17"/>
</a>
</g>
</g>
<!-- Node13 -->
<g id="Node000013" class="node">
<title>Node13</title>
<g id="a_Node000013"><a xlink:href="move__generator_8cpp.html#a1f1451a443ea747e0af2376725f4c62f" target="_top" xlink:title=" ">
<polygon fill="white" stroke="#666666" points="523.75,-742.67 418.5,-742.67 418.5,-722.67 523.75,-722.67 523.75,-742.67"/>
<text xml:space="preserve" text-anchor="middle" x="471.12" y="-729.17" font-family="Helvetica,sans-Serif" font-size="10.00">AddEnPassantMove</text>
</a>
</g>
</g>
<!-- Node2&#45;&gt;Node13 -->
<g id="edge21_Node000002_Node000013" class="edge">
<title>Node2&#45;&gt;Node13</title>
<g id="a_edge21_Node000002_Node000013"><a xlink:title=" ">
<path fill="none" stroke="#63b8ff" d="M217.56,-629.05C274.03,-643.04 368.28,-667.14 382.5,-675.67 402.45,-687.63 399.07,-700.87 418.5,-713.67 420.46,-714.96 422.53,-716.18 424.65,-717.33"/>
<polygon fill="#63b8ff" stroke="#63b8ff" points="423.01,-720.42 433.54,-721.55 426.01,-714.1 423.01,-720.42"/>
</a>
</g>
</g>
<!-- Node14 -->
<g id="Node000014" class="node">
<title>Node14</title>
<g id="a_Node000014"><a xlink:href="move__generator_8cpp.html#aa5050db53ab58a3d01f8db5b0c6681c9" target="_top" xlink:title=" ">
<polygon fill="white" stroke="#666666" points="382.5,-552.67 257,-552.67 257,-532.67 382.5,-532.67 382.5,-552.67"/>
<text xml:space="preserve" text-anchor="middle" x="319.75" y="-539.17" font-family="Helvetica,sans-Serif" font-size="10.00">AddWhitePawnCapMove</text>
</a>
</g>
</g>
<!-- Node2&#45;&gt;Node14 -->
<g id="edge25_Node000002_Node000014" class="edge">
<title>Node2&#45;&gt;Node14</title>
<g id="a_edge25_Node000002_Node000014"><a xlink:title=" ">
<path fill="none" stroke="#63b8ff" d="M189.6,-608.18C205.61,-596.97 232.33,-579.14 257,-566.67 263.69,-563.29 270.98,-560.07 278.12,-557.16"/>
<polygon fill="#63b8ff" stroke="#63b8ff" points="278.97,-560.59 286.99,-553.67 276.41,-554.07 278.97,-560.59"/>
</a>
</g>
</g>
<!-- Node15 -->
<g id="Node000015" class="node">
<title>Node15</title>
<g id="a_Node000015"><a xlink:href="move__generator_8cpp.html#a6470c50ad0bc1167743755ec2a6be107" target="_top" xlink:title=" ">
<polygon fill="white" stroke="#666666" points="373.5,-790.67 266,-790.67 266,-770.67 373.5,-770.67 373.5,-790.67"/>
<text xml:space="preserve" text-anchor="middle" x="319.75" y="-777.17" font-family="Helvetica,sans-Serif" font-size="10.00">AddWhitePawnMove</text>
</a>
</g>
</g>
<!-- Node2&#45;&gt;Node15 -->
<g id="edge30_Node000002_Node000015" class="edge">
<title>Node2&#45;&gt;Node15</title>
<g id="a_edge30_Node000002_Node000015"><a xlink:title=" ">
<path fill="none" stroke="#63b8ff" d="M183.75,-629.03C198.63,-646.59 229.88,-683.26 257,-713.67 271.72,-730.17 288.77,-748.62 301.22,-761.97"/>
<polygon fill="#63b8ff" stroke="#63b8ff" points="298.6,-764.3 307.98,-769.21 303.71,-759.52 298.6,-764.3"/>
</a>
</g>
</g>
<!-- Node16 -->
<g id="Node000016" class="node">
<title>Node16</title>
<g id="a_Node000016"><a xlink:href="attack_8cpp.html#a36ea46ff61e0738a61f70dcf90b5178b" target="_top" xlink:title="Determines if a given square is attacked by a given side.">
<polygon fill="white" stroke="#666666" points="517.75,-362.67 424.5,-362.67 424.5,-342.67 517.75,-342.67 517.75,-362.67"/>
<text xml:space="preserve" text-anchor="middle" x="471.12" y="-349.17" font-family="Helvetica,sans-Serif" font-size="10.00">isSquareAttacked</text>
</a>
</g>
</g>
<!-- Node2&#45;&gt;Node16 -->
<g id="edge35_Node000002_Node000016" class="edge">
<title>Node2&#45;&gt;Node16</title>
<g id="a_edge35_Node000002_Node000016"><a xlink:title=" ">
<path fill="none" stroke="#63b8ff" d="M179.13,-608.25C189.28,-583.71 217.5,-521.36 257,-481.67 309.96,-428.45 389.09,-388.09 434.55,-367.62"/>
<polygon fill="#63b8ff" stroke="#63b8ff" points="435.69,-370.95 443.42,-363.7 432.85,-364.54 435.69,-370.95"/>
</a>
</g>
</g>
<!-- Node20 -->
<g id="Node000020" class="node">
<title>Node20</title>
<g id="a_Node000020"><a xlink:href="validate_8cpp.html#a63d4de5e5c2a915fbce5d856620285d6" target="_top" xlink:title="Validates that a move list is within bounds and references valid moves.">
<polygon fill="white" stroke="#666666" points="354,-704.67 285.5,-704.67 285.5,-684.67 354,-684.67 354,-704.67"/>
<text xml:space="preserve" text-anchor="middle" x="319.75" y="-691.17" font-family="Helvetica,sans-Serif" font-size="10.00">MoveListOk</text>
</a>
</g>
</g>
<!-- Node2&#45;&gt;Node20 -->
<g id="edge41_Node000002_Node000020" class="edge">
<title>Node2&#45;&gt;Node20</title>
<g id="a_edge41_Node000002_Node000020"><a xlink:title=" ">
<path fill="none" stroke="#63b8ff" d="M189.6,-629.16C205.61,-640.37 232.33,-658.2 257,-670.67 263.69,-674.05 270.98,-677.26 278.12,-680.18"/>
<polygon fill="#63b8ff" stroke="#63b8ff" points="276.41,-683.26 286.99,-683.66 278.97,-676.75 276.41,-683.26"/>
</a>
</g>
</g>
<!-- Node3&#45;&gt;Node4 -->
<g id="edge3_Node000003_Node000004" class="edge">
<title>Node3&#45;&gt;Node4</title>
<g id="a_edge3_Node000003_Node000004"><a xlink:title=" ">
<path fill="none" stroke="#63b8ff" d="M332.39,-608.43C345,-597.22 365.58,-578.59 382.5,-561.67 408.13,-536.03 436.31,-504.92 453.61,-485.45"/>
<polygon fill="#63b8ff" stroke="#63b8ff" points="456.17,-487.84 460.17,-478.03 450.92,-483.2 456.17,-487.84"/>
</a>
</g>
</g>
<!-- Node3&#45;&gt;Node5 -->
<g id="edge11_Node000003_Node000005" class="edge">
<title>Node3&#45;&gt;Node5</title>
<g id="a_edge11_Node000003_Node000005"><a xlink:title=" ">
<path fill="none" stroke="#63b8ff" d="M382.26,-615.18C422.86,-611.95 476.99,-605.89 523.75,-594.67 542.64,-590.14 563.01,-582.83 579.54,-576.24"/>
<polygon fill="#63b8ff" stroke="#63b8ff" points="580.46,-579.65 588.39,-572.62 577.81,-573.17 580.46,-579.65"/>
</a>
</g>
</g>
<!-- Node3&#45;&gt;Node7 -->
<g id="edge13_Node000003_Node000007" class="edge">
<title>Node3&#45;&gt;Node7</title>
<g id="a_edge13_Node000003_Node000007"><a xlink:title=" ">
<path fill="none" stroke="#63b8ff" d="M382.52,-629.08C478.98,-642.57 669.52,-658.02 816,-599.67 836.49,-591.51 855.34,-574.68 868,-561.41"/>
<polygon fill="#63b8ff" stroke="#63b8ff" points="870.54,-563.81 874.69,-554.06 865.37,-559.1 870.54,-563.81"/>
</a>
</g>
</g>
<!-- Node10 -->
<g id="Node000010" class="node">
<title>Node10</title>
<g id="a_Node000010"><a xlink:href="validate_8cpp.html#ac8317193b0ce2ab0c3d8d0f212cdd2b6" target="_top" xlink:title="Checks if the given piece code is either empty or a valid piece.">
<polygon fill="white" stroke="#666666" points="520.75,-704.67 421.5,-704.67 421.5,-684.67 520.75,-684.67 520.75,-704.67"/>
<text xml:space="preserve" text-anchor="middle" x="471.12" y="-691.17" font-family="Helvetica,sans-Serif" font-size="10.00">pieceValueidEmpty</text>
</a>
</g>
</g>
<!-- Node3&#45;&gt;Node10 -->
<g id="edge12_Node000003_Node000010" class="edge">
<title>Node3&#45;&gt;Node10</title>
<g id="a_edge12_Node000003_Node000010"><a xlink:title=" ">
<path fill="none" stroke="#63b8ff" d="M352.66,-629.05C362.5,-632.78 373.2,-637.39 382.5,-642.67 400.13,-652.67 401.2,-660.11 418.5,-670.67 423.49,-673.71 428.92,-676.63 434.33,-679.32"/>
<polygon fill="#63b8ff" stroke="#63b8ff" points="432.68,-682.41 443.22,-683.53 435.68,-676.08 432.68,-682.41"/>
</a>
</g>
</g>
<!-- Node4&#45;&gt;Node5 -->
<g id="edge4_Node000004_Node000005" class="edge">
<title>Node4&#45;&gt;Node5</title>
<g id="a_edge4_Node000004_Node000005"><a xlink:title=" ">
<path fill="none" stroke="#63b8ff" d="M487.5,-477.02C511.78,-493.36 559.25,-525.32 588.41,-544.95"/>
<polygon fill="#63b8ff" stroke="#63b8ff" points="586.39,-547.81 596.64,-550.49 590.3,-542 586.39,-547.81"/>
</a>
</g>
</g>
<!-- Node4&#45;&gt;Node7 -->
<g id="edge10_Node000004_Node000007" class="edge">
<title>Node4&#45;&gt;Node7</title>
<g id="a_edge10_Node000004_Node000007"><a xlink:title=" ">
<path fill="none" stroke="#63b8ff" d="M517.28,-461.79C584.72,-456.26 714.65,-452.43 816,-490.67 835.45,-498.01 853.97,-512.83 866.77,-524.78"/>
<polygon fill="#63b8ff" stroke="#63b8ff" points="863.98,-526.94 873.58,-531.41 868.86,-521.93 863.98,-526.94"/>
</a>
</g>
</g>
<!-- Node4&#45;&gt;Node9 -->
<g id="edge9_Node000004_Node000009" class="edge">
<title>Node4&#45;&gt;Node9</title>
<g id="a_edge9_Node000004_Node000009"><a xlink:title=" ">
<path fill="none" stroke="#63b8ff" d="M478.46,-456.24C492.83,-432.59 529.03,-373.14 559.75,-323.67 573.62,-301.34 589.7,-275.84 600.58,-258.64"/>
<polygon fill="#63b8ff" stroke="#63b8ff" points="603.42,-260.71 605.81,-250.39 597.5,-256.97 603.42,-260.71"/>
</a>
</g>
</g>
<!-- Node6 -->
<g id="Node000006" class="node">
<title>Node6</title>
<g id="a_Node000006"><a xlink:href="hash__keys_8cpp.html#a8c1832e1dfd853cce944ddd2df57dd53" target="_top" xlink:title="Generates a Zobrist hash key for the given board position.">
<polygon fill="white" stroke="#666666" points="816,-552.67 704.75,-552.67 704.75,-532.67 816,-532.67 816,-552.67"/>
<text xml:space="preserve" text-anchor="middle" x="760.38" y="-539.17" font-family="Helvetica,sans-Serif" font-size="10.00">generatePositionKeys</text>
</a>
</g>
</g>
<!-- Node5&#45;&gt;Node6 -->
<g id="edge5_Node000005_Node000006" class="edge">
<title>Node5&#45;&gt;Node6</title>
<g id="a_edge5_Node000005_Node000006"><a xlink:title=" ">
<path fill="none" stroke="#63b8ff" d="M661.25,-555.6C671.46,-554.26 682.48,-552.81 693.31,-551.38"/>
<polygon fill="#63b8ff" stroke="#63b8ff" points="693.54,-554.88 703,-550.1 692.62,-547.94 693.54,-554.88"/>
</a>
</g>
</g>
<!-- Node8 -->
<g id="Node000008" class="node">
<title>Node8</title>
<g id="a_Node000008"><a xlink:href="board_8cpp.html#addbaf4fbab51f8032e0e7aabbffeab96" target="_top" xlink:title="Validate that piece list array is consistent with board state.">
<polygon fill="white" stroke="#666666" points="802.88,-590.67 717.88,-590.67 717.88,-570.67 802.88,-570.67 802.88,-590.67"/>
<text xml:space="preserve" text-anchor="middle" x="760.38" y="-577.17" font-family="Helvetica,sans-Serif" font-size="10.00">isPieceListValid</text>
</a>
</g>
</g>
<!-- Node5&#45;&gt;Node8 -->
<g id="edge7_Node000005_Node000008" class="edge">
<title>Node5&#45;&gt;Node8</title>
<g id="a_edge7_Node000005_Node000008"><a xlink:title=" ">
<path fill="none" stroke="#63b8ff" d="M661.25,-567.73C675.69,-569.64 691.75,-571.75 706.62,-573.71"/>
<polygon fill="#63b8ff" stroke="#63b8ff" points="705.84,-577.14 716.21,-574.98 706.76,-570.2 705.84,-577.14"/>
</a>
</g>
</g>
<!-- Node6&#45;&gt;Node7 -->
<g id="edge6_Node000006_Node000007" class="edge">
<title>Node6&#45;&gt;Node7</title>
<g id="a_edge6_Node000006_Node000007"><a xlink:title=" ">
<path fill="none" stroke="#63b8ff" d="M816.29,-542.67C824.34,-542.67 832.55,-542.67 840.34,-542.67"/>
<polygon fill="#63b8ff" stroke="#63b8ff" points="840.26,-546.17 850.26,-542.67 840.26,-539.17 840.26,-546.17"/>
</a>
</g>
</g>
<!-- Node8&#45;&gt;Node7 -->
<g id="edge8_Node000008_Node000007" class="edge">
<title>Node8&#45;&gt;Node7</title>
<g id="a_edge8_Node000008_Node000007"><a xlink:title=" ">
<path fill="none" stroke="#63b8ff" d="M795.24,-570.18C809.4,-565.8 826.03,-560.65 841.05,-556"/>
<polygon fill="#63b8ff" stroke="#63b8ff" points="841.67,-559.47 850.19,-553.17 839.6,-552.79 841.67,-559.47"/>
</a>
</g>
</g>
<!-- Node11&#45;&gt;Node5 -->
<g id="edge18_Node000011_Node000005" class="edge">
<title>Node11&#45;&gt;Node5</title>
<g id="a_edge18_Node000011_Node000005"><a xlink:title=" ">
<path fill="none" stroke="#63b8ff" d="M359.51,-924.1C404.25,-933.62 477.59,-941.15 523.75,-903.67 574.66,-862.33 602.94,-651.69 610.9,-583.21"/>
<polygon fill="#63b8ff" stroke="#63b8ff" points="614.33,-583.98 611.98,-573.65 607.38,-583.2 614.33,-583.98"/>
</a>
</g>
</g>
<!-- Node11&#45;&gt;Node7 -->
<g id="edge19_Node000011_Node000007" class="edge">
<title>Node11&#45;&gt;Node7</title>
<g id="a_edge19_Node000011_Node000007"><a xlink:title=" ">
<path fill="none" stroke="#63b8ff" d="M349.25,-924.13C433.95,-953.17 686.28,-1024.64 816,-897.67 864.03,-850.66 879.38,-633.84 883.11,-564.24"/>
<polygon fill="#63b8ff" stroke="#63b8ff" points="886.59,-564.71 883.6,-554.54 879.6,-564.35 886.59,-564.71"/>
</a>
</g>
</g>
<!-- Node11&#45;&gt;Node12 -->
<g id="edge15_Node000011_Node000012" class="edge">
<title>Node11&#45;&gt;Node12</title>
<g id="a_edge15_Node000011_Node000012"><a xlink:title=" ">
<path fill="none" stroke="#63b8ff" d="M373.41,-903.44C388.41,-900.53 404.7,-897.37 419.57,-894.48"/>
<polygon fill="#63b8ff" stroke="#63b8ff" points="419.97,-897.97 429.12,-892.63 418.64,-891.1 419.97,-897.97"/>
</a>
</g>
</g>
<!-- Node12&#45;&gt;Node5 -->
<g id="edge16_Node000012_Node000005" class="edge">
<title>Node12&#45;&gt;Node5</title>
<g id="a_edge16_Node000012_Node000005"><a xlink:title=" ">
<path fill="none" stroke="#63b8ff" d="M477.88,-874.32C487.79,-856.34 508.47,-818.07 523.75,-784.67 557.1,-711.79 590.8,-622.7 605.54,-582.78"/>
<polygon fill="#63b8ff" stroke="#63b8ff" points="608.8,-584.05 608.97,-573.46 602.23,-581.64 608.8,-584.05"/>
</a>
</g>
</g>
<!-- Node12&#45;&gt;Node7 -->
<g id="edge17_Node000012_Node000007" class="edge">
<title>Node12&#45;&gt;Node7</title>
<g id="a_edge17_Node000012_Node000007"><a xlink:title=" ">
<path fill="none" stroke="#63b8ff" d="M509.86,-895.1C579.57,-911.89 729.33,-935.88 816,-860.67 861.18,-821.47 878.24,-629.33 882.78,-564.26"/>
<polygon fill="#63b8ff" stroke="#63b8ff" points="886.25,-564.74 883.42,-554.53 879.27,-564.28 886.25,-564.74"/>
</a>
</g>
</g>
<!-- Node13&#45;&gt;Node5 -->
<g id="edge22_Node000013_Node000005" class="edge">
<title>Node13&#45;&gt;Node5</title>
<g id="a_edge22_Node000013_Node000005"><a xlink:title=" ">
<path fill="none" stroke="#63b8ff" d="M509.9,-722.27C514.86,-719.93 519.64,-717.1 523.75,-713.67 567.09,-677.49 594.42,-614.59 606.33,-582.22"/>
<polygon fill="#63b8ff" stroke="#63b8ff" points="609.48,-583.8 609.51,-573.2 602.88,-581.47 609.48,-583.8"/>
</a>
</g>
</g>
<!-- Node13&#45;&gt;Node7 -->
<g id="edge23_Node000013_Node000007" class="edge">
<title>Node13&#45;&gt;Node7</title>
<g id="a_edge23_Node000013_Node000007"><a xlink:title=" ">
<path fill="none" stroke="#63b8ff" d="M524.14,-736.63C596.58,-739.41 728.75,-734.29 816,-670.67 852.13,-644.32 870.92,-592.91 879.04,-563.91"/>
<polygon fill="#63b8ff" stroke="#63b8ff" points="882.37,-565.01 881.5,-554.45 875.59,-563.24 882.37,-565.01"/>
</a>
</g>
</g>
<!-- Node14&#45;&gt;Node4 -->
<g id="edge26_Node000014_Node000004" class="edge">
<title>Node14&#45;&gt;Node4</title>
<g id="a_edge26_Node000014_Node000004"><a xlink:title=" ">
<path fill="none" stroke="#63b8ff" d="M352.66,-532.29C362.5,-528.56 373.2,-523.94 382.5,-518.67 400.13,-508.67 401.2,-501.23 418.5,-490.67 423.49,-487.62 428.92,-484.71 434.33,-482.02"/>
<polygon fill="#63b8ff" stroke="#63b8ff" points="435.68,-485.25 443.22,-477.81 432.68,-478.93 435.68,-485.25"/>
</a>
</g>
</g>
<!-- Node14&#45;&gt;Node5 -->
<g id="edge27_Node000014_Node000005" class="edge">
<title>Node14&#45;&gt;Node5</title>
<g id="a_edge27_Node000014_Node000005"><a xlink:title=" ">
<path fill="none" stroke="#63b8ff" d="M382.78,-546.7C434.12,-550.03 506.47,-554.73 556.34,-557.97"/>
<polygon fill="#63b8ff" stroke="#63b8ff" points="555.85,-561.45 566.06,-558.6 556.3,-554.46 555.85,-561.45"/>
</a>
</g>
</g>
<!-- Node14&#45;&gt;Node7 -->
<g id="edge29_Node000014_Node000007" class="edge">
<title>Node14&#45;&gt;Node7</title>
<g id="a_edge29_Node000014_Node000007"><a xlink:title=" ">
<path fill="none" stroke="#63b8ff" d="M382.85,-533.4C477,-520.9 661.27,-502.5 816,-523.67 824.71,-524.86 833.88,-526.87 842.57,-529.15"/>
<polygon fill="#63b8ff" stroke="#63b8ff" points="841.61,-532.52 852.18,-531.85 843.5,-525.78 841.61,-532.52"/>
</a>
</g>
</g>
<!-- Node14&#45;&gt;Node10 -->
<g id="edge28_Node000014_Node000010" class="edge">
<title>Node14&#45;&gt;Node10</title>
<g id="a_edge28_Node000014_Node000010"><a xlink:title=" ">
<path fill="none" stroke="#63b8ff" d="M332.39,-552.91C345,-564.11 365.58,-582.75 382.5,-599.67 408.13,-625.31 436.31,-656.42 453.61,-675.89"/>
<polygon fill="#63b8ff" stroke="#63b8ff" points="450.92,-678.13 460.17,-683.3 456.17,-673.49 450.92,-678.13"/>
</a>
</g>
</g>
<!-- Node15&#45;&gt;Node5 -->
<g id="edge32_Node000015_Node000005" class="edge">
<title>Node15&#45;&gt;Node5</title>
<g id="a_edge32_Node000015_Node000005"><a xlink:title=" ">
<path fill="none" stroke="#63b8ff" d="M373.81,-786.17C418.07,-787.93 480.65,-783.5 523.75,-751.67 580.24,-709.94 602.39,-623.44 609.9,-583.17"/>
<polygon fill="#63b8ff" stroke="#63b8ff" points="613.31,-583.98 611.55,-573.53 606.41,-582.8 613.31,-583.98"/>
</a>
</g>
</g>
<!-- Node15&#45;&gt;Node7 -->
<g id="edge33_Node000015_Node000007" class="edge">
<title>Node15&#45;&gt;Node7</title>
<g id="a_edge33_Node000015_Node000007"><a xlink:title=" ">
<path fill="none" stroke="#63b8ff" d="M372.93,-791.13C441.26,-803.22 564.6,-819.56 668.75,-803.67 736.53,-793.33 767.42,-806.05 816,-757.67 870.17,-703.72 881.34,-606.98 883.59,-564.12"/>
<polygon fill="#63b8ff" stroke="#63b8ff" points="887.08,-564.52 883.97,-554.39 880.08,-564.24 887.08,-564.52"/>
</a>
</g>
</g>
<!-- Node15&#45;&gt;Node12 -->
<g id="edge31_Node000015_Node000012" class="edge">
<title>Node15&#45;&gt;Node12</title>
<g id="a_edge31_Node000015_Node000012"><a xlink:title=" ">
<path fill="none" stroke="#63b8ff" d="M331.49,-791C348.78,-807.27 384.32,-839.22 418.5,-860.67 423.4,-863.74 428.75,-866.66 434.1,-869.34"/>
<polygon fill="#63b8ff" stroke="#63b8ff" points="432.35,-872.39 442.89,-873.52 435.36,-866.07 432.35,-872.39"/>
</a>
</g>
</g>
<!-- Node16&#45;&gt;Node5 -->
<g id="edge36_Node000016_Node000005" class="edge">
<title>Node16&#45;&gt;Node5</title>
<g id="a_edge36_Node000016_Node000005"><a xlink:title=" ">
<path fill="none" stroke="#63b8ff" d="M503.52,-363.11C510.78,-366.59 518.05,-371.05 523.75,-376.67 536.47,-389.19 583.98,-495.15 604.13,-540.84"/>
<polygon fill="#63b8ff" stroke="#63b8ff" points="600.89,-542.17 608.11,-549.91 607.29,-539.35 600.89,-542.17"/>
</a>
</g>
</g>
<!-- Node16&#45;&gt;Node7 -->
<g id="edge40_Node000016_Node000007" class="edge">
<title>Node16&#45;&gt;Node7</title>
<g id="a_edge40_Node000016_Node000007"><a xlink:title=" ">
<path fill="none" stroke="#63b8ff" d="M518.15,-357.51C588.45,-366.88 724.07,-392.91 816,-460.67 839.17,-477.74 859.32,-504.32 871.58,-522.57"/>
<polygon fill="#63b8ff" stroke="#63b8ff" points="868.64,-524.46 877.02,-530.94 874.51,-520.65 868.64,-524.46"/>
</a>
</g>
</g>
<!-- Node17 -->
<g id="Node000017" class="node">
<title>Node17</title>
<g id="a_Node000017"><a xlink:href="validate_8cpp.html#aac5a1baab60b7b72d85de73be258f91b" target="_top" xlink:title="Checks if the given piece code is empty, valid, or OFFBOARD.">
<polygon fill="white" stroke="#666666" points="668.75,-352.67 559.75,-352.67 559.75,-332.67 668.75,-332.67 668.75,-352.67"/>
<text xml:space="preserve" text-anchor="middle" x="614.25" y="-339.17" font-family="Helvetica,sans-Serif" font-size="10.00">PceValidEmptyOffbrd</text>
</a>
</g>
</g>
<!-- Node16&#45;&gt;Node17 -->
<g id="edge37_Node000016_Node000017" class="edge">
<title>Node16&#45;&gt;Node17</title>
<g id="a_edge37_Node000016_Node000017"><a xlink:title=" ">
<path fill="none" stroke="#63b8ff" d="M517.94,-349.42C527.53,-348.74 537.82,-348.01 547.96,-347.29"/>
<polygon fill="#63b8ff" stroke="#63b8ff" points="548.07,-350.8 557.8,-346.6 547.58,-343.81 548.07,-350.8"/>
</a>
</g>
</g>
<!-- Node18 -->
<g id="Node000018" class="node">
<title>Node18</title>
<g id="a_Node000018"><a xlink:href="validate_8cpp.html#ad7a2e012bffa6db3df97e7742c9d731d" target="_top" xlink:title="Checks if the given side identifier is valid.">
<polygon fill="white" stroke="#666666" points="642.5,-210.67 586,-210.67 586,-190.67 642.5,-190.67 642.5,-210.67"/>
<text xml:space="preserve" text-anchor="middle" x="614.25" y="-197.17" font-family="Helvetica,sans-Serif" font-size="10.00">SideValid</text>
</a>
</g>
</g>
<!-- Node16&#45;&gt;Node18 -->
<g id="edge38_Node000016_Node000018" class="edge">
<title>Node16&#45;&gt;Node18</title>
<g id="a_edge38_Node000016_Node000018"><a xlink:title=" ">
<path fill="none" stroke="#63b8ff" d="M483.03,-342.53C494.25,-331.7 511.73,-313.65 523.75,-295.67 544.52,-264.59 532.02,-244.73 559.75,-219.67 564.16,-215.68 569.47,-212.52 575,-210.01"/>
<polygon fill="#63b8ff" stroke="#63b8ff" points="576.2,-213.3 584.32,-206.49 573.73,-206.75 576.2,-213.3"/>
</a>
</g>
</g>
<!-- Node19 -->
<g id="Node000019" class="node">
<title>Node19</title>
<g id="a_Node000019"><a xlink:href="validate_8cpp.html#a48b5f0e20cf731ceeeb659fbc27b972c" target="_top" xlink:title="Checks if a given square index is within the 120&#45;based range.">
<polygon fill="white" stroke="#666666" points="640.25,-428.67 588.25,-428.67 588.25,-408.67 640.25,-408.67 640.25,-428.67"/>
<text xml:space="preserve" text-anchor="middle" x="614.25" y="-415.17" font-family="Helvetica,sans-Serif" font-size="10.00">SqIs120</text>
</a>
</g>
</g>
<!-- Node16&#45;&gt;Node19 -->
<g id="edge39_Node000016_Node000019" class="edge">
<title>Node16&#45;&gt;Node19</title>
<g id="a_edge39_Node000016_Node000019"><a xlink:title=" ">
<path fill="none" stroke="#63b8ff" d="M495.06,-363.16C504.04,-367.31 514.4,-372.16 523.75,-376.67 539.86,-384.44 543.59,-387.01 559.75,-394.67 565.94,-397.6 572.57,-400.65 578.98,-403.55"/>
<polygon fill="#63b8ff" stroke="#63b8ff" points="577.51,-406.73 588.07,-407.63 580.38,-400.34 577.51,-406.73"/>
</a>
</g>
</g>
<!-- Node20&#45;&gt;Node7 -->
<g id="edge43_Node000020_Node000007" class="edge">
<title>Node20&#45;&gt;Node7</title>
<g id="a_edge43_Node000020_Node000007"><a xlink:title=" ">
<path fill="none" stroke="#63b8ff" d="M333.34,-705.01C351.05,-718.82 384.93,-742.6 418.5,-751.67 590,-798.02 681.84,-826.12 816,-709.67 860.21,-671.3 876.18,-599.9 881.58,-564.18"/>
<polygon fill="#63b8ff" stroke="#63b8ff" points="885,-565.03 882.87,-554.65 878.06,-564.09 885,-565.03"/>
</a>
</g>
</g>
<!-- Node20&#45;&gt;Node10 -->
<g id="edge42_Node000020_Node000010" class="edge">
<title>Node20&#45;&gt;Node10</title>
<g id="a_edge42_Node000020_Node000010"><a xlink:title=" ">
<path fill="none" stroke="#63b8ff" d="M354.27,-694.67C370.66,-694.67 390.9,-694.67 409.85,-694.67"/>
<polygon fill="#63b8ff" stroke="#63b8ff" points="409.61,-698.17 419.61,-694.67 409.61,-691.17 409.61,-698.17"/>
</a>
</g>
</g>
<!-- Node21&#45;&gt;Node5 -->
<g id="edge56_Node000021_Node000005" class="edge">
<title>Node21&#45;&gt;Node5</title>
<g id="a_edge56_Node000021_Node000005"><a xlink:title=" ">
<path fill="none" stroke="#63b8ff" d="M180.1,-210.9C191.42,-232.77 220.53,-284.77 257,-317.67 318.01,-372.71 344.01,-372.98 418.5,-407.67 463.86,-428.79 483.44,-418.02 523.75,-447.67 558.71,-473.38 587.19,-516.2 602.05,-541.39"/>
<polygon fill="#63b8ff" stroke="#63b8ff" points="598.97,-543.06 606.98,-550 605.04,-539.58 598.97,-543.06"/>
</a>
</g>
</g>
<!-- Node21&#45;&gt;Node7 -->
<g id="edge64_Node000021_Node000007" class="edge">
<title>Node21&#45;&gt;Node7</title>
<g id="a_edge64_Node000021_Node000007"><a xlink:title=" ">
<path fill="none" stroke="#63b8ff" d="M184.46,-190.21C194.25,-179.12 209.66,-160.87 221,-143.67 239.82,-115.12 230.63,-97.43 257,-75.67 333.38,-12.64 371.1,-10.67 470.12,-10.67 470.12,-10.67 470.12,-10.67 615.25,-10.67 705.28,-10.67 752.33,25.98 816,-37.67 885.26,-106.9 885.68,-434.03 884.52,-521.25"/>
<polygon fill="#63b8ff" stroke="#63b8ff" points="881.03,-520.95 884.37,-531.01 888.03,-521.06 881.03,-520.95"/>
</a>
</g>
</g>
<!-- Node21&#45;&gt;Node9 -->
<g id="edge62_Node000021_Node000009" class="edge">
<title>Node21&#45;&gt;Node9</title>
<g id="a_edge62_Node000021_Node000009"><a xlink:title=" ">
<path fill="none" stroke="#63b8ff" d="M206.43,-206.81C221.65,-209.58 240.22,-212.68 257,-214.67 368,-227.85 499.38,-234.37 567.36,-237.07"/>
<polygon fill="#63b8ff" stroke="#63b8ff" points="566.86,-240.55 576.99,-237.44 567.13,-233.56 566.86,-240.55"/>
</a>
</g>
</g>
<!-- Node21&#45;&gt;Node16 -->
<g id="edge57_Node000021_Node000016" class="edge">
<title>Node21&#45;&gt;Node16</title>
<g id="a_edge57_Node000021_Node000016"><a xlink:title=" ">
<path fill="none" stroke="#63b8ff" d="M183.52,-211.09C197.37,-227.39 226.29,-259 257,-277.67 305.98,-307.44 368.48,-327.66 413.11,-339.53"/>
<polygon fill="#63b8ff" stroke="#63b8ff" points="412.02,-342.87 422.58,-341.99 413.78,-336.09 412.02,-342.87"/>
</a>
</g>
</g>
<!-- Node21&#45;&gt;Node18 -->
<g id="edge63_Node000021_Node000018" class="edge">
<title>Node21&#45;&gt;Node18</title>
<g id="a_edge63_Node000021_Node000018"><a xlink:title=" ">
<path fill="none" stroke="#63b8ff" d="M206.17,-200.67C284.33,-200.67 488.55,-200.67 574.37,-200.67"/>
<polygon fill="#63b8ff" stroke="#63b8ff" points="574.15,-204.17 584.15,-200.67 574.15,-197.17 574.15,-204.17"/>
</a>
</g>
</g>
<!-- Node22 -->
<g id="Node000022" class="node">
<title>Node22</title>
<g id="a_Node000022"><a xlink:href="make__move_8cpp.html#a6ac5b01b46acf941303b6ff4505889b4" target="_top" xlink:title=" ">
<polygon fill="white" stroke="#666666" points="500.12,-96.67 442.12,-96.67 442.12,-76.67 500.12,-76.67 500.12,-96.67"/>
<text xml:space="preserve" text-anchor="middle" x="471.12" y="-83.17" font-family="Helvetica,sans-Serif" font-size="10.00">AddPiece</text>
</a>
</g>
</g>
<!-- Node21&#45;&gt;Node22 -->
<g id="edge47_Node000021_Node000022" class="edge">
<title>Node21&#45;&gt;Node22</title>
<g id="a_edge47_Node000021_Node000022"><a xlink:title=" ">
<path fill="none" stroke="#63b8ff" d="M183.1,-190.44C201.81,-166.94 247.21,-110.69 257,-105.67 312.07,-77.43 385.73,-77.9 430.46,-81.67"/>
<polygon fill="#63b8ff" stroke="#63b8ff" points="429.93,-85.14 440.22,-82.6 430.59,-78.17 429.93,-85.14"/>
</a>
</g>
</g>
<!-- Node23 -->
<g id="Node000023" class="node">
<title>Node23</title>
<g id="a_Node000023"><a xlink:href="make__move_8cpp.html#a7638b740f3b9301ec3ef126abaeef83e" target="_top" xlink:title=" ">
<polygon fill="white" stroke="#666666" points="503.12,-286.67 439.12,-286.67 439.12,-266.67 503.12,-266.67 503.12,-286.67"/>
<text xml:space="preserve" text-anchor="middle" x="471.12" y="-273.17" font-family="Helvetica,sans-Serif" font-size="10.00">ClearPiece</text>
</a>
</g>
</g>
<!-- Node21&#45;&gt;Node23 -->
<g id="edge51_Node000021_Node000023" class="edge">
<title>Node21&#45;&gt;Node23</title>
<g id="a_edge51_Node000021_Node000023"><a xlink:title=" ">
<path fill="none" stroke="#63b8ff" d="M187.39,-211.11C202.68,-223.34 229.97,-243.15 257,-252.67 313.62,-272.61 383.45,-276.95 427.4,-277.44"/>
<polygon fill="#63b8ff" stroke="#63b8ff" points="427.28,-280.94 437.29,-277.47 427.3,-273.94 427.28,-280.94"/>
</a>
</g>
</g>
<!-- Node24 -->
<g id="Node000024" class="node">
<title>Node24</title>
<g id="a_Node000024"><a xlink:href="make__move_8cpp.html#ad096f1812d822251b98ffbc3894bc1d5" target="_top" xlink:title=" ">
<polygon fill="white" stroke="#666666" points="503.5,-134.67 438.75,-134.67 438.75,-114.67 503.5,-114.67 503.5,-134.67"/>
<text xml:space="preserve" text-anchor="middle" x="471.12" y="-121.17" font-family="Helvetica,sans-Serif" font-size="10.00">MovePiece</text>
</a>
</g>
</g>
<!-- Node21&#45;&gt;Node24 -->
<g id="edge58_Node000021_Node000024" class="edge">
<title>Node21&#45;&gt;Node24</title>
<g id="a_edge58_Node000021_Node000024"><a xlink:title=" ">
<path fill="none" stroke="#63b8ff" d="M206.3,-192.61C259.4,-178.93 367.19,-151.17 427.26,-135.71"/>
<polygon fill="#63b8ff" stroke="#63b8ff" points="427.97,-139.14 436.78,-133.25 426.23,-132.36 427.97,-139.14"/>
</a>
</g>
</g>
<!-- Node21&#45;&gt;Node25 -->
<g id="edge65_Node000021_Node000025" class="edge">
<title>Node21&#45;&gt;Node25</title>
<g id="a_edge65_Node000021_Node000025"><a xlink:title=" ">
<path fill="none" stroke="#63b8ff" d="M196.98,-190.22C204.74,-186.26 213.42,-181.54 221,-176.67 238.05,-165.71 239.37,-158.67 257,-148.67 264,-144.7 271.8,-141.1 279.42,-137.98"/>
<polygon fill="#63b8ff" stroke="#63b8ff" points="280.52,-141.3 288.58,-134.42 277.99,-134.78 280.52,-141.3"/>
</a>
</g>
</g>
<!-- Node22&#45;&gt;Node7 -->
<g id="edge50_Node000022_Node000007" class="edge">
<title>Node22&#45;&gt;Node7</title>
<g id="a_edge50_Node000022_Node000007"><a xlink:title=" ">
<path fill="none" stroke="#63b8ff" d="M500.43,-86.53C567.42,-87.9 736.04,-101.53 816,-200.67 856.44,-250.81 876.72,-453.88 882.41,-521.01"/>
<polygon fill="#63b8ff" stroke="#63b8ff" points="878.9,-521.03 883.21,-530.71 885.88,-520.46 878.9,-521.03"/>
</a>
</g>
</g>
<!-- Node22&#45;&gt;Node9 -->
<g id="edge48_Node000022_Node000009" class="edge">
<title>Node22&#45;&gt;Node9</title>
<g id="a_edge48_Node000022_Node000009"><a xlink:title=" ">
<path fill="none" stroke="#63b8ff" d="M500.53,-92.06C508.95,-94.89 517.55,-99.17 523.75,-105.67 560.43,-144.11 522.85,-181.44 559.75,-219.67 562.32,-222.33 565.28,-224.62 568.47,-226.58"/>
<polygon fill="#63b8ff" stroke="#63b8ff" points="566.67,-229.6 577.18,-230.91 569.78,-223.33 566.67,-229.6"/>
</a>
</g>
</g>
<!-- Node22&#45;&gt;Node18 -->
<g id="edge49_Node000022_Node000018" class="edge">
<title>Node22&#45;&gt;Node18</title>
<g id="a_edge49_Node000022_Node000018"><a xlink:title=" ">
<path fill="none" stroke="#63b8ff" d="M500.58,-94.49C508.45,-97.34 516.74,-101.03 523.75,-105.67 555.09,-126.37 583.36,-160.09 599.41,-181.29"/>
<polygon fill="#63b8ff" stroke="#63b8ff" points="596.42,-183.14 605.17,-189.1 602.05,-178.98 596.42,-183.14"/>
</a>
</g>
</g>
<!-- Node23&#45;&gt;Node5 -->
<g id="edge52_Node000023_Node000005" class="edge">
<title>Node23&#45;&gt;Node5</title>
<g id="a_edge52_Node000023_Node000005"><a xlink:title=" ">
<path fill="none" stroke="#63b8ff" d="M483.87,-286.95C495.42,-297.62 512.87,-315.29 523.75,-333.67 548.67,-375.76 542.05,-392.07 559.75,-437.67 574.11,-474.65 592.86,-516.92 603.92,-541.32"/>
<polygon fill="#63b8ff" stroke="#63b8ff" points="600.59,-542.46 607.92,-550.11 606.96,-539.56 600.59,-542.46"/>
</a>
</g>
</g>
<!-- Node23&#45;&gt;Node7 -->
<g id="edge55_Node000023_Node000007" class="edge">
<title>Node23&#45;&gt;Node7</title>
<g id="a_edge55_Node000023_Node000007"><a xlink:title=" ">
<path fill="none" stroke="#63b8ff" d="M503.38,-278.94C570.33,-285.48 728.58,-310.18 816,-400.67 850.06,-435.93 869.83,-491.45 878.62,-521.56"/>
<polygon fill="#63b8ff" stroke="#63b8ff" points="875.18,-522.28 881.23,-530.98 881.93,-520.41 875.18,-522.28"/>
</a>
</g>
</g>
<!-- Node23&#45;&gt;Node9 -->
<g id="edge53_Node000023_Node000009" class="edge">
<title>Node23&#45;&gt;Node9</title>
<g id="a_edge53_Node000023_Node000009"><a xlink:title=" ">
<path fill="none" stroke="#63b8ff" d="M503.45,-268.23C522.31,-263.16 546.65,-256.6 567.62,-250.95"/>
<polygon fill="#63b8ff" stroke="#63b8ff" points="568.34,-254.38 577.09,-248.4 566.52,-247.63 568.34,-254.38"/>
</a>
</g>
</g>
<!-- Node23&#45;&gt;Node18 -->
<g id="edge54_Node000023_Node000018" class="edge">
<title>Node23&#45;&gt;Node18</title>
<g id="a_edge54_Node000023_Node000018"><a xlink:title=" ">
<path fill="none" stroke="#63b8ff" d="M485.78,-266.32C502.53,-253.99 532.09,-233.34 559.75,-219.67 564.58,-217.28 569.78,-215.05 574.98,-213.01"/>
<polygon fill="#63b8ff" stroke="#63b8ff" points="575.93,-216.39 584.1,-209.65 573.51,-209.83 575.93,-216.39"/>
</a>
</g>
</g>
<!-- Node24&#45;&gt;Node7 -->
<g id="edge61_Node000024_Node000007" class="edge">
<title>Node24&#45;&gt;Node7</title>
<g id="a_edge61_Node000024_Node000007"><a xlink:title=" ">
<path fill="none" stroke="#63b8ff" d="M503.95,-129.04C544.45,-135.66 615.53,-150.87 668.75,-181.67 747.44,-227.21 768.28,-246.28 816,-323.67 856.26,-388.95 874.5,-479.97 881.07,-521.05"/>
<polygon fill="#63b8ff" stroke="#63b8ff" points="877.59,-521.46 882.55,-530.82 884.51,-520.41 877.59,-521.46"/>
</a>
</g>
</g>
<!-- Node24&#45;&gt;Node9 -->
<g id="edge59_Node000024_Node000009" class="edge">
<title>Node24&#45;&gt;Node9</title>
<g id="a_edge59_Node000024_Node000009"><a xlink:title=" ">
<path fill="none" stroke="#63b8ff" d="M503.18,-135.05C510.53,-138.55 517.92,-143.04 523.75,-148.67 549.19,-173.26 533.18,-196.3 559.75,-219.67 562.37,-221.97 565.28,-224 568.36,-225.78"/>
<polygon fill="#63b8ff" stroke="#63b8ff" points="566.71,-228.87 577.24,-230.05 569.74,-222.56 566.71,-228.87"/>
</a>
</g>
</g>
<!-- Node24&#45;&gt;Node18 -->
<g id="edge60_Node000024_Node000018" class="edge">
<title>Node24&#45;&gt;Node18</title>
<g id="a_edge60_Node000024_Node000018"><a xlink:title=" ">
<path fill="none" stroke="#63b8ff" d="M495.73,-135.09C504.6,-139.16 514.72,-143.96 523.75,-148.67 545.33,-159.92 569.12,-173.82 586.75,-184.42"/>
<polygon fill="#63b8ff" stroke="#63b8ff" points="584.69,-187.26 595.06,-189.45 588.31,-181.27 584.69,-187.26"/>
</a>
</g>
</g>
<!-- Node25&#45;&gt;Node5 -->
<g id="edge68_Node000025_Node000005" class="edge">
<title>Node25&#45;&gt;Node5</title>
<g id="a_edge68_Node000025_Node000005"><a xlink:title=" ">
<path fill="none" stroke="#63b8ff" d="M321.96,-135.17C326.82,-172.51 348.13,-300.52 418.5,-371.67 454.03,-407.6 485.29,-381.89 523.75,-414.67 565.08,-449.9 592.84,-509.22 605.47,-540.65"/>
<polygon fill="#63b8ff" stroke="#63b8ff" points="602.14,-541.75 609.01,-549.81 608.67,-539.22 602.14,-541.75"/>
</a>
</g>
</g>
<!-- Node25&#45;&gt;Node7 -->
<g id="edge71_Node000025_Node000007" class="edge">
<title>Node25&#45;&gt;Node7</title>
<g id="a_edge71_Node000025_Node000007"><a xlink:title=" ">
<path fill="none" stroke="#63b8ff" d="M333.34,-114.33C351.05,-100.52 384.93,-76.74 418.5,-67.67 590.61,-21.15 694.61,8.91 816,-121.67 870.92,-180.74 881.7,-444.2 883.7,-521.36"/>
<polygon fill="#63b8ff" stroke="#63b8ff" points="880.19,-521.02 883.92,-530.94 887.19,-520.86 880.19,-521.02"/>
</a>
</g>
</g>
<!-- Node25&#45;&gt;Node9 -->
<g id="edge70_Node000025_Node000009" class="edge">
<title>Node25&#45;&gt;Node9</title>
<g id="a_edge70_Node000025_Node000009"><a xlink:title=" ">
<path fill="none" stroke="#63b8ff" d="M346.1,-135.1C389.61,-152.93 481.39,-190.19 559.75,-219.67 563.89,-221.22 568.22,-222.82 572.54,-224.39"/>
<polygon fill="#63b8ff" stroke="#63b8ff" points="571.17,-227.61 581.76,-227.7 573.53,-221.03 571.17,-227.61"/>
</a>
</g>
</g>
<!-- Node25&#45;&gt;Node22 -->
<g id="edge66_Node000025_Node000022" class="edge">
<title>Node25&#45;&gt;Node22</title>
<g id="a_edge66_Node000025_Node000022"><a xlink:title=" ">
<path fill="none" stroke="#63b8ff" d="M349.55,-117.34C372.56,-111.49 405.06,-103.22 430.52,-96.74"/>
<polygon fill="#63b8ff" stroke="#63b8ff" points="431.37,-100.14 440.2,-94.28 429.65,-93.35 431.37,-100.14"/>
</a>
</g>
</g>
<!-- Node25&#45;&gt;Node23 -->
<g id="edge67_Node000025_Node000023" class="edge">
<title>Node25&#45;&gt;Node23</title>
<g id="a_edge67_Node000025_Node000023"><a xlink:title=" ">
<path fill="none" stroke="#63b8ff" d="M331.02,-135.12C356.08,-160.62 420.64,-226.32 452.21,-258.44"/>
<polygon fill="#63b8ff" stroke="#63b8ff" points="449.61,-260.79 459.12,-265.47 454.61,-255.88 449.61,-260.79"/>
</a>
</g>
</g>
<!-- Node25&#45;&gt;Node24 -->
<g id="edge69_Node000025_Node000024" class="edge">
<title>Node25&#45;&gt;Node24</title>
<g id="a_edge69_Node000025_Node000024"><a xlink:title=" ">
<path fill="none" stroke="#63b8ff" d="M349.55,-124.67C371.51,-124.67 402.1,-124.67 426.98,-124.67"/>
<polygon fill="#63b8ff" stroke="#63b8ff" points="426.8,-128.17 436.8,-124.67 426.8,-121.17 426.8,-128.17"/>
</a>
</g>
</g>
</g>
</svg>
