<?xml version="1.0" encoding="UTF-8" standalone="no"?>
<!DOCTYPE svg PUBLIC "-//W3C//DTD SVG 1.1//EN"
 "http://www.w3.org/Graphics/SVG/1.1/DTD/svg11.dtd">
<!-- Generated by graphviz version 13.1.2 (20250808.2320)
 -->
<!-- Title: interactive_helpers.cpp Pages: 1 -->
<svg width="589pt" height="308pt"
 viewBox="0.00 0.00 589.00 308.00" xmlns="http://www.w3.org/2000/svg" xmlns:xlink="http://www.w3.org/1999/xlink">
<g id="graph0" class="graph" transform="scale(1 1) rotate(0) translate(4 304)">
<title>interactive_helpers.cpp</title>
<!-- Node1 -->
<g id="Node000001" class="node">
<title>Node1</title>
<g id="a_Node000001"><a xlink:title=" ">
<polygon fill="#999999" stroke="#666666" points="332.13,-300 215.63,-300 215.63,-280 332.13,-280 332.13,-300"/>
<text xml:space="preserve" text-anchor="middle" x="273.88" y="-286.5" font-family="Helvetica,sans-Serif" font-size="10.00">interactive_helpers.cpp</text>
</a>
</g>
</g>
<!-- Node2 -->
<g id="Node000002" class="node">
<title>Node2</title>
<g id="a_Node000002"><a xlink:href="interactive__helpers_8h.html" target="_top" xlink:title=" ">
<polygon fill="white" stroke="#666666" points="141.88,-244 35.88,-244 35.88,-224 141.88,-224 141.88,-244"/>
<text xml:space="preserve" text-anchor="middle" x="88.88" y="-230.5" font-family="Helvetica,sans-Serif" font-size="10.00">interactive_helpers.h</text>
</a>
</g>
</g>
<!-- Node1&#45;&gt;Node2 -->
<g id="edge1_Node000001_Node000002" class="edge">
<title>Node1&#45;&gt;Node2</title>
<g id="a_edge1_Node000001_Node000002"><a xlink:title=" ">
<path fill="none" stroke="#63b8ff" d="M241.66,-279.59C211.34,-270.74 165.71,-257.43 132.22,-247.65"/>
<polygon fill="#63b8ff" stroke="#63b8ff" points="133.39,-244.35 122.81,-244.9 131.43,-251.07 133.39,-244.35"/>
</a>
</g>
</g>
<!-- Node7 -->
<g id="Node000007" class="node">
<title>Node7</title>
<g id="a_Node000007"><a xlink:href="board__data_8h.html" target="_top" xlink:title=" ">
<polygon fill="white" stroke="#666666" points="202.51,-76 103.26,-76 103.26,-56 202.51,-56 202.51,-76"/>
<text xml:space="preserve" text-anchor="middle" x="152.88" y="-62.5" font-family="Helvetica,sans-Serif" font-size="10.00">board/board_data.h</text>
</a>
</g>
</g>
<!-- Node1&#45;&gt;Node7 -->
<g id="edge15_Node000001_Node000007" class="edge">
<title>Node1&#45;&gt;Node7</title>
<g id="a_edge15_Node000001_Node000007"><a xlink:title=" ">
<path fill="none" stroke="#63b8ff" d="M215.29,-286.71C149.97,-282.77 50.41,-272.2 26.88,-244 -10.7,-198.95 -6.91,-159.96 26.88,-112 41.8,-90.84 67.6,-79.58 91.99,-73.6"/>
<polygon fill="#63b8ff" stroke="#63b8ff" points="92.53,-77.06 101.57,-71.53 91.06,-70.22 92.53,-77.06"/>
</a>
</g>
</g>
<!-- Node11 -->
<g id="Node000011" class="node">
<title>Node11</title>
<g id="a_Node000011"><a xlink:title=" ">
<polygon fill="#e0e0e0" stroke="#999999" points="202.01,-244 159.76,-244 159.76,-224 202.01,-224 202.01,-244"/>
<text xml:space="preserve" text-anchor="middle" x="180.88" y="-230.5" font-family="Helvetica,sans-Serif" font-size="10.00">cstdio</text>
</a>
</g>
</g>
<!-- Node1&#45;&gt;Node11 -->
<g id="edge12_Node000001_Node000011" class="edge">
<title>Node1&#45;&gt;Node11</title>
<g id="a_edge12_Node000001_Node000011"><a xlink:title=" ">
<path fill="none" stroke="#63b8ff" d="M257.69,-279.59C243.64,-271.44 223.05,-259.48 206.73,-250"/>
<polygon fill="#63b8ff" stroke="#63b8ff" points="208.92,-247.23 198.52,-245.24 205.41,-253.29 208.92,-247.23"/>
</a>
</g>
</g>
<!-- Node12 -->
<g id="Node000012" class="node">
<title>Node12</title>
<g id="a_Node000012"><a xlink:title=" ">
<polygon fill="#e0e0e0" stroke="#999999" points="265.51,-244 220.26,-244 220.26,-224 265.51,-224 265.51,-244"/>
<text xml:space="preserve" text-anchor="middle" x="242.88" y="-230.5" font-family="Helvetica,sans-Serif" font-size="10.00">cstring</text>
</a>
</g>
</g>
<!-- Node1&#45;&gt;Node12 -->
<g id="edge13_Node000001_Node000012" class="edge">
<title>Node1&#45;&gt;Node12</title>
<g id="a_edge13_Node000001_Node000012"><a xlink:title=" ">
<path fill="none" stroke="#63b8ff" d="M268.49,-279.59C264.44,-272.55 258.77,-262.67 253.79,-254"/>
<polygon fill="#63b8ff" stroke="#63b8ff" points="256.99,-252.54 248.98,-245.61 250.92,-256.03 256.99,-252.54"/>
</a>
</g>
</g>
<!-- Node13 -->
<g id="Node000013" class="node">
<title>Node13</title>
<g id="a_Node000013"><a xlink:title=" ">
<polygon fill="#e0e0e0" stroke="#999999" points="328.51,-244 283.26,-244 283.26,-224 328.51,-224 328.51,-244"/>
<text xml:space="preserve" text-anchor="middle" x="305.88" y="-230.5" font-family="Helvetica,sans-Serif" font-size="10.00">cctype</text>
</a>
</g>
</g>
<!-- Node1&#45;&gt;Node13 -->
<g id="edge14_Node000001_Node000013" class="edge">
<title>Node1&#45;&gt;Node13</title>
<g id="a_edge14_Node000001_Node000013"><a xlink:title=" ">
<path fill="none" stroke="#63b8ff" d="M279.46,-279.59C283.63,-272.55 289.49,-262.67 294.63,-254"/>
<polygon fill="#63b8ff" stroke="#63b8ff" points="297.52,-255.99 299.6,-245.6 291.49,-252.42 297.52,-255.99"/>
</a>
</g>
</g>
<!-- Node14 -->
<g id="Node000014" class="node">
<title>Node14</title>
<g id="a_Node000014"><a xlink:href="move__generator_8h.html" target="_top" xlink:title=" ">
<polygon fill="white" stroke="#666666" points="448.88,-188 318.88,-188 318.88,-168 448.88,-168 448.88,-188"/>
<text xml:space="preserve" text-anchor="middle" x="383.88" y="-174.5" font-family="Helvetica,sans-Serif" font-size="10.00">../move/move_generator.h</text>
</a>
</g>
</g>
<!-- Node1&#45;&gt;Node14 -->
<g id="edge16_Node000001_Node000014" class="edge">
<title>Node1&#45;&gt;Node14</title>
<g id="a_edge16_Node000001_Node000014"><a xlink:title=" ">
<path fill="none" stroke="#63b8ff" d="M298.58,-279.62C315.62,-272.12 337.84,-260.18 352.88,-244 364.74,-231.25 372.87,-213.15 377.82,-199.28"/>
<polygon fill="#63b8ff" stroke="#63b8ff" points="381.11,-200.46 380.89,-189.87 374.46,-198.28 381.11,-200.46"/>
</a>
</g>
</g>
<!-- Node15 -->
<g id="Node000015" class="node">
<title>Node15</title>
<g id="a_Node000015"><a xlink:href="make__move_8h.html" target="_top" xlink:title=" ">
<polygon fill="white" stroke="#666666" points="580.63,-188 467.13,-188 467.13,-168 580.63,-168 580.63,-188"/>
<text xml:space="preserve" text-anchor="middle" x="523.88" y="-174.5" font-family="Helvetica,sans-Serif" font-size="10.00">../move/make_move.h</text>
</a>
</g>
</g>
<!-- Node1&#45;&gt;Node15 -->
<g id="edge18_Node000001_Node000015" class="edge">
<title>Node1&#45;&gt;Node15</title>
<g id="a_edge18_Node000001_Node000015"><a xlink:title=" ">
<path fill="none" stroke="#63b8ff" d="M295.2,-279.62C339.3,-260.22 440.72,-215.59 492.39,-192.86"/>
<polygon fill="#63b8ff" stroke="#63b8ff" points="493.5,-196.2 501.24,-188.96 490.68,-189.79 493.5,-196.2"/>
</a>
</g>
</g>
<!-- Node16 -->
<g id="Node000016" class="node">
<title>Node16</title>
<g id="a_Node000016"><a xlink:href="notation_8h.html" target="_top" xlink:title=" ">
<polygon fill="white" stroke="#666666" points="301.26,-188 242.51,-188 242.51,-168 301.26,-168 301.26,-188"/>
<text xml:space="preserve" text-anchor="middle" x="271.88" y="-174.5" font-family="Helvetica,sans-Serif" font-size="10.00">notation.h</text>
</a>
</g>
</g>
<!-- Node1&#45;&gt;Node16 -->
<g id="edge20_Node000001_Node000016" class="edge">
<title>Node1&#45;&gt;Node16</title>
<g id="a_edge20_Node000001_Node000016"><a xlink:title=" ">
<path fill="none" stroke="#63b8ff" d="M295.78,-279.58C318.87,-268.16 350.32,-247.52 337.88,-224 331,-210.97 318.46,-201.01 306.15,-193.81"/>
<polygon fill="#63b8ff" stroke="#63b8ff" points="307.79,-190.72 297.32,-189.11 304.51,-196.9 307.79,-190.72"/>
</a>
</g>
</g>
<!-- Node3 -->
<g id="Node000003" class="node">
<title>Node3</title>
<g id="a_Node000003"><a xlink:title=" ">
<polygon fill="#e0e0e0" stroke="#999999" points="187.01,-188 138.76,-188 138.76,-168 187.01,-168 187.01,-188"/>
<text xml:space="preserve" text-anchor="middle" x="162.88" y="-174.5" font-family="Helvetica,sans-Serif" font-size="10.00">cstddef</text>
</a>
</g>
</g>
<!-- Node2&#45;&gt;Node3 -->
<g id="edge2_Node000002_Node000003" class="edge">
<title>Node2&#45;&gt;Node3</title>
<g id="a_edge2_Node000002_Node000003"><a xlink:title=" ">
<path fill="none" stroke="#63b8ff" d="M101.77,-223.59C112.6,-215.7 128.3,-204.24 141.07,-194.92"/>
<polygon fill="#63b8ff" stroke="#63b8ff" points="142.91,-197.91 148.92,-189.19 138.78,-192.26 142.91,-197.91"/>
</a>
</g>
</g>
<!-- Node4 -->
<g id="Node000004" class="node">
<title>Node4</title>
<g id="a_Node000004"><a xlink:href="defs_8h.html" target="_top" xlink:title=" ">
<polygon fill="white" stroke="#666666" points="268.88,-132 216.88,-132 216.88,-112 268.88,-112 268.88,-132"/>
<text xml:space="preserve" text-anchor="middle" x="242.88" y="-118.5" font-family="Helvetica,sans-Serif" font-size="10.00">../defs.h</text>
</a>
</g>
</g>
<!-- Node2&#45;&gt;Node4 -->
<g id="edge3_Node000002_Node000004" class="edge">
<title>Node2&#45;&gt;Node4</title>
<g id="a_edge3_Node000002_Node000004"><a xlink:title=" ">
<path fill="none" stroke="#63b8ff" d="M124.22,-223.53C146.42,-216.34 174.74,-204.8 195.88,-188 211.7,-175.44 224.68,-156.25 232.96,-141.97"/>
<polygon fill="#63b8ff" stroke="#63b8ff" points="235.85,-143.97 237.62,-133.53 229.72,-140.59 235.85,-143.97"/>
</a>
</g>
</g>
<!-- Node9 -->
<g id="Node000009" class="node">
<title>Node9</title>
<g id="a_Node000009"><a xlink:href="board_8h.html" target="_top" xlink:title=" ">
<polygon fill="white" stroke="#666666" points="121.01,-188 36.76,-188 36.76,-168 121.01,-168 121.01,-188"/>
<text xml:space="preserve" text-anchor="middle" x="78.88" y="-174.5" font-family="Helvetica,sans-Serif" font-size="10.00">../board/board.h</text>
</a>
</g>
</g>
<!-- Node2&#45;&gt;Node9 -->
<g id="edge9_Node000002_Node000009" class="edge">
<title>Node2&#45;&gt;Node9</title>
<g id="a_edge9_Node000002_Node000009"><a xlink:title=" ">
<path fill="none" stroke="#63b8ff" d="M87.14,-223.59C85.91,-216.93 84.21,-207.75 82.67,-199.44"/>
<polygon fill="#63b8ff" stroke="#63b8ff" points="86.14,-198.98 80.88,-189.79 79.26,-200.26 86.14,-198.98"/>
</a>
</g>
</g>
<!-- Node5 -->
<g id="Node000005" class="node">
<title>Node5</title>
<g id="a_Node000005"><a xlink:title=" ">
<polygon fill="#e0e0e0" stroke="#999999" points="330.63,-76 283.13,-76 283.13,-56 330.63,-56 330.63,-76"/>
<text xml:space="preserve" text-anchor="middle" x="306.88" y="-62.5" font-family="Helvetica,sans-Serif" font-size="10.00">stdlib.h</text>
</a>
</g>
</g>
<!-- Node4&#45;&gt;Node5 -->
<g id="edge4_Node000004_Node000005" class="edge">
<title>Node4&#45;&gt;Node5</title>
<g id="a_edge4_Node000004_Node000005"><a xlink:title=" ">
<path fill="none" stroke="#63b8ff" d="M254.03,-111.59C263.21,-103.85 276.44,-92.69 287.37,-83.47"/>
<polygon fill="#63b8ff" stroke="#63b8ff" points="289.32,-86.4 294.71,-77.27 284.81,-81.05 289.32,-86.4"/>
</a>
</g>
</g>
<!-- Node6 -->
<g id="Node000006" class="node">
<title>Node6</title>
<g id="a_Node000006"><a xlink:title=" ">
<polygon fill="#e0e0e0" stroke="#999999" points="265.51,-76 220.26,-76 220.26,-56 265.51,-56 265.51,-76"/>
<text xml:space="preserve" text-anchor="middle" x="242.88" y="-62.5" font-family="Helvetica,sans-Serif" font-size="10.00">stdio.h</text>
</a>
</g>
</g>
<!-- Node4&#45;&gt;Node6 -->
<g id="edge5_Node000004_Node000006" class="edge">
<title>Node4&#45;&gt;Node6</title>
<g id="a_edge5_Node000004_Node000006"><a xlink:title=" ">
<path fill="none" stroke="#63b8ff" d="M242.88,-111.59C242.88,-105.01 242.88,-95.96 242.88,-87.73"/>
<polygon fill="#63b8ff" stroke="#63b8ff" points="246.38,-87.81 242.88,-77.81 239.38,-87.81 246.38,-87.81"/>
</a>
</g>
</g>
<!-- Node4&#45;&gt;Node7 -->
<g id="edge6_Node000004_Node000007" class="edge">
<title>Node4&#45;&gt;Node7</title>
<g id="a_edge6_Node000004_Node000007"><a xlink:title=" ">
<path fill="none" stroke="#63b8ff" d="M221.94,-111.59C207,-103.59 187.27,-91.93 172.61,-82.54"/>
<polygon fill="#63b8ff" stroke="#63b8ff" points="174.94,-79.89 164.67,-77.31 171.09,-85.73 174.94,-79.89"/>
</a>
</g>
</g>
<!-- Node7&#45;&gt;Node4 -->
<g id="edge8_Node000007_Node000004" class="edge">
<title>Node7&#45;&gt;Node4</title>
<g id="a_edge8_Node000007_Node000004"><a xlink:title=" ">
<path fill="none" stroke="#63b8ff" d="M173.97,-76.48C188.79,-84.43 208.29,-95.94 222.87,-105.27"/>
<polygon fill="#63b8ff" stroke="#63b8ff" points="220.93,-108.19 231.21,-110.76 224.78,-102.34 220.93,-108.19"/>
</a>
</g>
</g>
<!-- Node8 -->
<g id="Node000008" class="node">
<title>Node8</title>
<g id="a_Node000008"><a xlink:title=" ">
<polygon fill="#e0e0e0" stroke="#999999" points="171.76,-20 134.01,-20 134.01,0 171.76,0 171.76,-20"/>
<text xml:space="preserve" text-anchor="middle" x="152.88" y="-6.5" font-family="Helvetica,sans-Serif" font-size="10.00">array</text>
</a>
</g>
</g>
<!-- Node7&#45;&gt;Node8 -->
<g id="edge7_Node000007_Node000008" class="edge">
<title>Node7&#45;&gt;Node8</title>
<g id="a_edge7_Node000007_Node000008"><a xlink:title=" ">
<path fill="none" stroke="#63b8ff" d="M152.88,-55.59C152.88,-49.01 152.88,-39.96 152.88,-31.73"/>
<polygon fill="#63b8ff" stroke="#63b8ff" points="156.38,-31.81 152.88,-21.81 149.38,-31.81 156.38,-31.81"/>
</a>
</g>
</g>
<!-- Node9&#45;&gt;Node4 -->
<g id="edge10_Node000009_Node000004" class="edge">
<title>Node9&#45;&gt;Node4</title>
<g id="a_edge10_Node000009_Node000004"><a xlink:title=" ">
<path fill="none" stroke="#63b8ff" d="M107.45,-167.59C134.71,-158.62 175.93,-145.05 205.73,-135.23"/>
<polygon fill="#63b8ff" stroke="#63b8ff" points="206.7,-138.6 215.1,-132.15 204.51,-131.95 206.7,-138.6"/>
</a>
</g>
</g>
<!-- Node10 -->
<g id="Node000010" class="node">
<title>Node10</title>
<g id="a_Node000010"><a xlink:title=" ">
<polygon fill="#e0e0e0" stroke="#999999" points="125.63,-132 36.13,-132 36.13,-112 125.63,-112 125.63,-132"/>
<text xml:space="preserve" text-anchor="middle" x="80.88" y="-118.5" font-family="Helvetica,sans-Serif" font-size="10.00">../test./validate.h</text>
</a>
</g>
</g>
<!-- Node9&#45;&gt;Node10 -->
<g id="edge11_Node000009_Node000010" class="edge">
<title>Node9&#45;&gt;Node10</title>
<g id="a_edge11_Node000009_Node000010"><a xlink:title=" ">
<path fill="none" stroke="#63b8ff" d="M79.23,-167.59C79.48,-161.01 79.81,-151.96 80.12,-143.73"/>
<polygon fill="#63b8ff" stroke="#63b8ff" points="83.61,-143.93 80.48,-133.81 76.62,-143.67 83.61,-143.93"/>
</a>
</g>
</g>
<!-- Node14&#45;&gt;Node4 -->
<g id="edge17_Node000014_Node000004" class="edge">
<title>Node14&#45;&gt;Node4</title>
<g id="a_edge17_Node000014_Node000004"><a xlink:title=" ">
<path fill="none" stroke="#63b8ff" d="M359.32,-167.59C336.92,-159.01 303.55,-146.23 278.27,-136.55"/>
<polygon fill="#63b8ff" stroke="#63b8ff" points="279.64,-133.33 269.05,-133.02 277.14,-139.87 279.64,-133.33"/>
</a>
</g>
</g>
<!-- Node15&#45;&gt;Node4 -->
<g id="edge19_Node000015_Node000004" class="edge">
<title>Node15&#45;&gt;Node4</title>
<g id="a_edge19_Node000015_Node000004"><a xlink:title=" ">
<path fill="none" stroke="#63b8ff" d="M474.62,-167.53C419.24,-156.89 330.56,-139.85 280.49,-130.23"/>
<polygon fill="#63b8ff" stroke="#63b8ff" points="281.19,-126.8 270.71,-128.35 279.87,-133.67 281.19,-126.8"/>
</a>
</g>
</g>
<!-- Node16&#45;&gt;Node4 -->
<g id="edge21_Node000016_Node000004" class="edge">
<title>Node16&#45;&gt;Node4</title>
<g id="a_edge21_Node000016_Node000004"><a xlink:title=" ">
<path fill="none" stroke="#63b8ff" d="M266.83,-167.59C263.09,-160.63 257.86,-150.89 253.24,-142.29"/>
<polygon fill="#63b8ff" stroke="#63b8ff" points="256.41,-140.79 248.59,-133.63 250.24,-144.1 256.41,-140.79"/>
</a>
</g>
</g>
</g>
</svg>
