<?xml version="1.0" encoding="UTF-8" standalone="no"?>
<!DOCTYPE svg PUBLIC "-//W3C//DTD SVG 1.1//EN"
 "http://www.w3.org/Graphics/SVG/1.1/DTD/svg11.dtd">
<!-- Generated by graphviz version 13.1.2 (20250808.2320)
 -->
<!-- Title: main.cpp Pages: 1 -->
<!--zoomable 308 -->

<svg id="main" version="1.1" xmlns="http://www.w3.org/2000/svg" xmlns:xlink="http://www.w3.org/1999/xlink" xml:space="preserve" onload="init(evt)">

<style type="text/css"><![CDATA[
.node, .edge {opacity: 0.7;}
.node.selected, .edge.selected {opacity: 1;}
.edge:hover path { stroke: red; }
.edge:hover polygon { stroke: red; fill: red; }
]]></style>

<defs>
  <circle id="rim" cx="0" cy="0" r="7"/>
  <circle id="rim2" cx="0" cy="0" r="3.5"/>
  <g id="zoomPlus">
    <use xlink:href="#rim" fill="#404040"><set attributeName="fill" to="#808080" begin="zoomplus.mouseover" end="zoomplus.mouseout"/></use>
    <path d="M-4,0h8M0,-4v8" fill="none" stroke="white" stroke-width="1.5" pointer-events="none"/>
  </g>
  <g id="zoomMin">
    <use xlink:href="#rim" fill="#404040"><set attributeName="fill" to="#808080" begin="zoomminus.mouseover" end="zoomminus.mouseout"/></use>
    <path d="M-4,0h8" fill="none" stroke="white" stroke-width="1.5" pointer-events="none"/>
  </g>
  <g id="arrowUp" transform="translate(30 24)">
    <use xlink:href="#rim"/>
    <path pointer-events="none" fill="none" stroke="white" stroke-width="1.5" d="M0,-3.0v7 M-2.5,-0.5L0,-3.0L2.5,-0.5"/>
  </g>
  <g id="arrowRight" transform="rotate(90) translate(36 -43)">
    <use xlink:href="#rim"/>
    <path pointer-events="none" fill="none" stroke="white" stroke-width="1.5" d="M0,-3.0v7 M-2.5,-0.5L0,-3.0L2.5,-0.5"/>
  </g>
  <g id="arrowDown" transform="rotate(180) translate(-30 -48)">
    <use xlink:href="#rim"/>
    <path pointer-events="none" fill="none" stroke="white" stroke-width="1.5" d="M0,-3.0v7 M-2.5,-0.5L0,-3.0L2.5,-0.5"/>
  </g>
  <g id="arrowLeft" transform="rotate(270) translate(-36 17)">
    <use xlink:href="#rim"/>
    <path pointer-events="none" fill="none" stroke="white" stroke-width="1.5" d="M0,-3.0v7 M-2.5,-0.5L0,-3.0L2.5,-0.5"/>
  </g>
  <g id="resetDef">
    <use xlink:href="#rim2" fill="#404040"><set attributeName="fill" to="#808080" begin="reset.mouseover" end="reset.mouseout"/></use>
  </g>
</defs>
<script type="application/ecmascript">
var viewWidth = 917;
var viewHeight = 308;
var sectionId = 'dynsection-0';
</script>
<script type="application/ecmascript" xlink:href="svg.min.js"/>
<svg id="graph" class="graph">
<g id="viewport">
<title>main.cpp</title>
<!-- Node1 -->
<g id="Node000001" class="node">
<title>Node1</title>
<g id="a_Node000001"><a xlink:title=" ">
<polygon fill="#999999" stroke="#666666" points="397,-300 341.25,-300 341.25,-280 397,-280 397,-300"/>
<text xml:space="preserve" text-anchor="middle" x="369.12" y="-286.5" font-family="Helvetica,sans-Serif" font-size="10.00">main.cpp</text>
</a>
</g>
</g>
<!-- Node2 -->
<g id="Node000002" class="node">
<title>Node2</title>
<g id="a_Node000002"><a xlink:title=" ">
<polygon fill="#e0e0e0" stroke="#999999" points="42.25,-244 0,-244 0,-224 42.25,-224 42.25,-244"/>
<text xml:space="preserve" text-anchor="middle" x="21.12" y="-230.5" font-family="Helvetica,sans-Serif" font-size="10.00">cstdio</text>
</a>
</g>
</g>
<!-- Node1&#45;&gt;Node2 -->
<g id="edge1_Node000001_Node000002" class="edge">
<title>Node1&#45;&gt;Node2</title>
<g id="a_edge1_Node000001_Node000002"><a xlink:title=" ">
<path fill="none" stroke="#63b8ff" d="M340.79,-286.44C286.72,-281.25 164.97,-268.07 53.73,-244.29"/>
<polygon fill="#63b8ff" stroke="#63b8ff" points="54.65,-240.91 44.13,-242.2 53.16,-247.75 54.65,-240.91"/>
</a>
</g>
</g>
<!-- Node3 -->
<g id="Node000003" class="node">
<title>Node3</title>
<g id="a_Node000003"><a xlink:title=" ">
<polygon fill="#e0e0e0" stroke="#999999" points="104.38,-244 59.88,-244 59.88,-224 104.38,-224 104.38,-244"/>
<text xml:space="preserve" text-anchor="middle" x="82.12" y="-230.5" font-family="Helvetica,sans-Serif" font-size="10.00">cstdlib</text>
</a>
</g>
</g>
<!-- Node1&#45;&gt;Node3 -->
<g id="edge2_Node000001_Node000003" class="edge">
<title>Node1&#45;&gt;Node3</title>
<g id="a_edge2_Node000001_Node000003"><a xlink:title=" ">
<path fill="none" stroke="#63b8ff" d="M340.89,-285.06C295.45,-278.5 203.09,-264.28 115.89,-244.45"/>
<polygon fill="#63b8ff" stroke="#63b8ff" points="116.74,-241.05 106.21,-242.21 115.17,-247.87 116.74,-241.05"/>
</a>
</g>
</g>
<!-- Node4 -->
<g id="Node000004" class="node">
<title>Node4</title>
<g id="a_Node000004"><a xlink:title=" ">
<polygon fill="#e0e0e0" stroke="#999999" points="167.75,-244 122.5,-244 122.5,-224 167.75,-224 167.75,-244"/>
<text xml:space="preserve" text-anchor="middle" x="145.12" y="-230.5" font-family="Helvetica,sans-Serif" font-size="10.00">cstring</text>
</a>
</g>
</g>
<!-- Node1&#45;&gt;Node4 -->
<g id="edge3_Node000001_Node000004" class="edge">
<title>Node1&#45;&gt;Node4</title>
<g id="a_edge3_Node000001_Node000004"><a xlink:title=" ">
<path fill="none" stroke="#63b8ff" d="M340.92,-282.24C304.31,-273.45 238.44,-257.62 182.12,-244 181.14,-243.76 180.14,-243.52 179.13,-243.28"/>
<polygon fill="#63b8ff" stroke="#63b8ff" points="180.23,-239.94 169.69,-240.98 178.58,-246.74 180.23,-239.94"/>
</a>
</g>
</g>
<!-- Node5 -->
<g id="Node000005" class="node">
<title>Node5</title>
<g id="a_Node000005"><a xlink:href="defs_8h.html" target="_top" xlink:title=" ">
<polygon fill="white" stroke="#666666" points="504.62,-132 461.62,-132 461.62,-112 504.62,-112 504.62,-132"/>
<text xml:space="preserve" text-anchor="middle" x="483.12" y="-118.5" font-family="Helvetica,sans-Serif" font-size="10.00">defs.h</text>
</a>
</g>
</g>
<!-- Node1&#45;&gt;Node5 -->
<g id="edge4_Node000001_Node000005" class="edge">
<title>Node1&#45;&gt;Node5</title>
<g id="a_edge4_Node000001_Node000005"><a xlink:title=" ">
<path fill="none" stroke="#63b8ff" d="M370.57,-279.52C374.3,-257.71 385.99,-203.19 414.12,-168 424.13,-155.48 438.6,-145.3 451.7,-137.81"/>
<polygon fill="#63b8ff" stroke="#63b8ff" points="453.32,-140.92 460.47,-133.1 450.01,-134.75 453.32,-140.92"/>
</a>
</g>
</g>
<!-- Node8 -->
<g id="Node000008" class="node">
<title>Node8</title>
<g id="a_Node000008"><a xlink:href="board__data_8h.html" target="_top" xlink:title=" ">
<polygon fill="white" stroke="#666666" points="441.75,-76 342.5,-76 342.5,-56 441.75,-56 441.75,-76"/>
<text xml:space="preserve" text-anchor="middle" x="392.12" y="-62.5" font-family="Helvetica,sans-Serif" font-size="10.00">board/board_data.h</text>
</a>
</g>
</g>
<!-- Node1&#45;&gt;Node8 -->
<g id="edge10_Node000001_Node000008" class="edge">
<title>Node1&#45;&gt;Node8</title>
<g id="a_edge10_Node000001_Node000008"><a xlink:title=" ">
<path fill="none" stroke="#63b8ff" d="M341.08,-282.46C284.37,-267.81 164.49,-228.81 201.12,-168 230.36,-119.47 291.59,-93.05 336.88,-79.54"/>
<polygon fill="#63b8ff" stroke="#63b8ff" points="337.61,-82.97 346.28,-76.87 335.7,-76.23 337.61,-82.97"/>
</a>
</g>
</g>
<!-- Node10 -->
<g id="Node000010" class="node">
<title>Node10</title>
<g id="a_Node000010"><a xlink:href="board_8h.html" target="_top" xlink:title=" ">
<polygon fill="white" stroke="#666666" points="901.75,-188 826.5,-188 826.5,-168 901.75,-168 901.75,-188"/>
<text xml:space="preserve" text-anchor="middle" x="864.12" y="-174.5" font-family="Helvetica,sans-Serif" font-size="10.00">board/board.h</text>
</a>
</g>
</g>
<!-- Node1&#45;&gt;Node10 -->
<g id="edge11_Node000001_Node000010" class="edge">
<title>Node1&#45;&gt;Node10</title>
<g id="a_edge11_Node000001_Node000010"><a xlink:title=" ">
<path fill="none" stroke="#63b8ff" d="M397.38,-288.01C493.51,-284.4 803.87,-270.77 839.12,-244 852.97,-233.49 859.15,-214.29 861.9,-199.47"/>
<polygon fill="#63b8ff" stroke="#63b8ff" points="865.33,-200.23 863.29,-189.84 858.4,-199.24 865.33,-200.23"/>
</a>
</g>
</g>
<!-- Node12 -->
<g id="Node000012" class="node">
<title>Node12</title>
<g id="a_Node000012"><a xlink:href="move__generator_8h.html" target="_top" xlink:title=" ">
<polygon fill="white" stroke="#666666" points="543.62,-188 422.62,-188 422.62,-168 543.62,-168 543.62,-188"/>
<text xml:space="preserve" text-anchor="middle" x="483.12" y="-174.5" font-family="Helvetica,sans-Serif" font-size="10.00">move/move_generator.h</text>
</a>
</g>
</g>
<!-- Node1&#45;&gt;Node12 -->
<g id="edge14_Node000001_Node000012" class="edge">
<title>Node1&#45;&gt;Node12</title>
<g id="a_edge14_Node000001_Node000012"><a xlink:title=" ">
<path fill="none" stroke="#63b8ff" d="M378.84,-279.62C398.03,-261.11 441,-219.65 465.37,-196.13"/>
<polygon fill="#63b8ff" stroke="#63b8ff" points="467.57,-198.87 472.34,-189.41 462.71,-193.83 467.57,-198.87"/>
</a>
</g>
</g>
<!-- Node13 -->
<g id="Node000013" class="node">
<title>Node13</title>
<g id="a_Node000013"><a xlink:href="make__move_8h.html" target="_top" xlink:title=" ">
<polygon fill="white" stroke="#666666" points="770.38,-188 665.88,-188 665.88,-168 770.38,-168 770.38,-188"/>
<text xml:space="preserve" text-anchor="middle" x="718.12" y="-174.5" font-family="Helvetica,sans-Serif" font-size="10.00">move/make_move.h</text>
</a>
</g>
</g>
<!-- Node1&#45;&gt;Node13 -->
<g id="edge16_Node000001_Node000013" class="edge">
<title>Node1&#45;&gt;Node13</title>
<g id="a_edge16_Node000001_Node000013"><a xlink:title=" ">
<path fill="none" stroke="#63b8ff" d="M397.43,-286.88C460.65,-281.77 611.33,-267.45 656.12,-244 676.78,-233.19 694.46,-212.84 705.59,-197.77"/>
<polygon fill="#63b8ff" stroke="#63b8ff" points="708.44,-199.8 711.33,-189.61 702.71,-195.77 708.44,-199.8"/>
</a>
</g>
</g>
<!-- Node14 -->
<g id="Node000014" class="node">
<title>Node14</title>
<g id="a_Node000014"><a xlink:href="notation_8h.html" target="_top" xlink:title=" ">
<polygon fill="white" stroke="#666666" points="284.38,-188 209.88,-188 209.88,-168 284.38,-168 284.38,-188"/>
<text xml:space="preserve" text-anchor="middle" x="247.12" y="-174.5" font-family="Helvetica,sans-Serif" font-size="10.00">util/notation.h</text>
</a>
</g>
</g>
<!-- Node1&#45;&gt;Node14 -->
<g id="edge18_Node000001_Node000014" class="edge">
<title>Node1&#45;&gt;Node14</title>
<g id="a_edge18_Node000001_Node000014"><a xlink:title=" ">
<path fill="none" stroke="#63b8ff" d="M358.72,-279.62C338.11,-261.03 291.8,-219.28 265.78,-195.82"/>
<polygon fill="#63b8ff" stroke="#63b8ff" points="268.4,-193.47 258.62,-189.37 263.71,-198.66 268.4,-193.47"/>
</a>
</g>
</g>
<!-- Node15 -->
<g id="Node000015" class="node">
<title>Node15</title>
<g id="a_Node000015"><a xlink:href="setup_8h.html" target="_top" xlink:title=" ">
<polygon fill="white" stroke="#666666" points="366.12,-188 302.12,-188 302.12,-168 366.12,-168 366.12,-188"/>
<text xml:space="preserve" text-anchor="middle" x="334.12" y="-174.5" font-family="Helvetica,sans-Serif" font-size="10.00">util/setup.h</text>
</a>
</g>
</g>
<!-- Node1&#45;&gt;Node15 -->
<g id="edge20_Node000001_Node000015" class="edge">
<title>Node1&#45;&gt;Node15</title>
<g id="a_edge20_Node000001_Node000015"><a xlink:title=" ">
<path fill="none" stroke="#63b8ff" d="M366.14,-279.62C360.51,-261.92 348.2,-223.24 340.59,-199.32"/>
<polygon fill="#63b8ff" stroke="#63b8ff" points="343.93,-198.27 337.56,-189.8 337.26,-200.39 343.93,-198.27"/>
</a>
</g>
</g>
<!-- Node16 -->
<g id="Node000016" class="node">
<title>Node16</title>
<g id="a_Node000016"><a xlink:href="interactive__helpers_8h.html" target="_top" xlink:title=" ">
<polygon fill="white" stroke="#666666" points="647,-244 525.25,-244 525.25,-224 647,-224 647,-244"/>
<text xml:space="preserve" text-anchor="middle" x="586.12" y="-230.5" font-family="Helvetica,sans-Serif" font-size="10.00">util/interactive_helpers.h</text>
</a>
</g>
</g>
<!-- Node1&#45;&gt;Node16 -->
<g id="edge22_Node000001_Node000016" class="edge">
<title>Node1&#45;&gt;Node16</title>
<g id="a_edge22_Node000001_Node000016"><a xlink:title=" ">
<path fill="none" stroke="#63b8ff" d="M397.49,-281.94C432.93,-273.12 494.13,-257.89 537.19,-247.18"/>
<polygon fill="#63b8ff" stroke="#63b8ff" points="537.94,-250.6 546.8,-244.79 536.25,-243.81 537.94,-250.6"/>
</a>
</g>
</g>
<!-- Node18 -->
<g id="Node000018" class="node">
<title>Node18</title>
<g id="a_Node000018"><a xlink:href="perft_8h.html" target="_top" xlink:title=" ">
<polygon fill="white" stroke="#666666" points="829.75,-244 766.5,-244 766.5,-224 829.75,-224 829.75,-244"/>
<text xml:space="preserve" text-anchor="middle" x="798.12" y="-230.5" font-family="Helvetica,sans-Serif" font-size="10.00">test/perft.h</text>
</a>
</g>
</g>
<!-- Node1&#45;&gt;Node18 -->
<g id="edge26_Node000001_Node000018" class="edge">
<title>Node1&#45;&gt;Node18</title>
<g id="a_edge26_Node000001_Node000018"><a xlink:title=" ">
<path fill="none" stroke="#63b8ff" d="M397.27,-285.46C470.43,-276.25 666.96,-251.51 754.74,-240.46"/>
<polygon fill="#63b8ff" stroke="#63b8ff" points="755.15,-243.94 764.63,-239.22 754.27,-236.99 755.15,-243.94"/>
</a>
</g>
</g>
<!-- Node6 -->
<g id="Node000006" class="node">
<title>Node6</title>
<g id="a_Node000006"><a xlink:title=" ">
<polygon fill="#e0e0e0" stroke="#999999" points="506.88,-76 459.38,-76 459.38,-56 506.88,-56 506.88,-76"/>
<text xml:space="preserve" text-anchor="middle" x="483.12" y="-62.5" font-family="Helvetica,sans-Serif" font-size="10.00">stdlib.h</text>
</a>
</g>
</g>
<!-- Node5&#45;&gt;Node6 -->
<g id="edge5_Node000005_Node000006" class="edge">
<title>Node5&#45;&gt;Node6</title>
<g id="a_edge5_Node000005_Node000006"><a xlink:title=" ">
<path fill="none" stroke="#63b8ff" d="M483.12,-111.59C483.12,-105.01 483.12,-95.96 483.12,-87.73"/>
<polygon fill="#63b8ff" stroke="#63b8ff" points="486.63,-87.81 483.13,-77.81 479.63,-87.81 486.63,-87.81"/>
</a>
</g>
</g>
<!-- Node7 -->
<g id="Node000007" class="node">
<title>Node7</title>
<g id="a_Node000007"><a xlink:title=" ">
<polygon fill="#e0e0e0" stroke="#999999" points="569.75,-76 524.5,-76 524.5,-56 569.75,-56 569.75,-76"/>
<text xml:space="preserve" text-anchor="middle" x="547.12" y="-62.5" font-family="Helvetica,sans-Serif" font-size="10.00">stdio.h</text>
</a>
</g>
</g>
<!-- Node5&#45;&gt;Node7 -->
<g id="edge6_Node000005_Node000007" class="edge">
<title>Node5&#45;&gt;Node7</title>
<g id="a_edge6_Node000005_Node000007"><a xlink:title=" ">
<path fill="none" stroke="#63b8ff" d="M494.27,-111.59C503.45,-103.85 516.68,-92.69 527.61,-83.47"/>
<polygon fill="#63b8ff" stroke="#63b8ff" points="529.56,-86.4 534.95,-77.27 525.05,-81.05 529.56,-86.4"/>
</a>
</g>
</g>
<!-- Node5&#45;&gt;Node8 -->
<g id="edge7_Node000005_Node000008" class="edge">
<title>Node5&#45;&gt;Node8</title>
<g id="a_edge7_Node000005_Node000008"><a xlink:title=" ">
<path fill="none" stroke="#63b8ff" d="M462.01,-111.59C446.92,-103.59 426.97,-91.93 412.14,-82.54"/>
<polygon fill="#63b8ff" stroke="#63b8ff" points="414.38,-79.82 404.09,-77.3 410.56,-85.69 414.38,-79.82"/>
</a>
</g>
</g>
<!-- Node8&#45;&gt;Node5 -->
<g id="edge9_Node000008_Node000005" class="edge">
<title>Node8&#45;&gt;Node5</title>
<g id="a_edge9_Node000008_Node000005"><a xlink:title=" ">
<path fill="none" stroke="#63b8ff" d="M413.38,-76.48C428.5,-84.51 448.45,-96.17 463.24,-105.54"/>
<polygon fill="#63b8ff" stroke="#63b8ff" points="460.98,-108.25 471.27,-110.77 464.8,-102.38 460.98,-108.25"/>
</a>
</g>
</g>
<!-- Node9 -->
<g id="Node000009" class="node">
<title>Node9</title>
<g id="a_Node000009"><a xlink:title=" ">
<polygon fill="#e0e0e0" stroke="#999999" points="411,-20 373.25,-20 373.25,0 411,0 411,-20"/>
<text xml:space="preserve" text-anchor="middle" x="392.12" y="-6.5" font-family="Helvetica,sans-Serif" font-size="10.00">array</text>
</a>
</g>
</g>
<!-- Node8&#45;&gt;Node9 -->
<g id="edge8_Node000008_Node000009" class="edge">
<title>Node8&#45;&gt;Node9</title>
<g id="a_edge8_Node000008_Node000009"><a xlink:title=" ">
<path fill="none" stroke="#63b8ff" d="M392.12,-55.59C392.12,-49.01 392.12,-39.96 392.12,-31.73"/>
<polygon fill="#63b8ff" stroke="#63b8ff" points="395.63,-31.81 392.13,-21.81 388.63,-31.81 395.63,-31.81"/>
</a>
</g>
</g>
<!-- Node10&#45;&gt;Node5 -->
<g id="edge12_Node000010_Node000005" class="edge">
<title>Node10&#45;&gt;Node5</title>
<g id="a_edge12_Node000010_Node000005"><a xlink:title=" ">
<path fill="none" stroke="#63b8ff" d="M826.1,-170.26C821.39,-169.47 816.65,-168.7 812.12,-168 704.2,-151.28 575.83,-134.66 516.39,-127.15"/>
<polygon fill="#63b8ff" stroke="#63b8ff" points="516.97,-123.7 506.61,-125.92 516.1,-130.64 516.97,-123.7"/>
</a>
</g>
</g>
<!-- Node11 -->
<g id="Node000011" class="node">
<title>Node11</title>
<g id="a_Node000011"><a xlink:title=" ">
<polygon fill="#e0e0e0" stroke="#999999" points="908.88,-132 819.38,-132 819.38,-112 908.88,-112 908.88,-132"/>
<text xml:space="preserve" text-anchor="middle" x="864.12" y="-118.5" font-family="Helvetica,sans-Serif" font-size="10.00">../test./validate.h</text>
</a>
</g>
</g>
<!-- Node10&#45;&gt;Node11 -->
<g id="edge13_Node000010_Node000011" class="edge">
<title>Node10&#45;&gt;Node11</title>
<g id="a_edge13_Node000010_Node000011"><a xlink:title=" ">
<path fill="none" stroke="#63b8ff" d="M864.12,-167.59C864.12,-161.01 864.12,-151.96 864.12,-143.73"/>
<polygon fill="#63b8ff" stroke="#63b8ff" points="867.63,-143.81 864.13,-133.81 860.63,-143.81 867.63,-143.81"/>
</a>
</g>
</g>
<!-- Node12&#45;&gt;Node5 -->
<g id="edge15_Node000012_Node000005" class="edge">
<title>Node12&#45;&gt;Node5</title>
<g id="a_edge15_Node000012_Node000005"><a xlink:title=" ">
<path fill="none" stroke="#63b8ff" d="M483.12,-167.59C483.12,-161.01 483.12,-151.96 483.12,-143.73"/>
<polygon fill="#63b8ff" stroke="#63b8ff" points="486.63,-143.81 483.13,-133.81 479.63,-143.81 486.63,-143.81"/>
</a>
</g>
</g>
<!-- Node13&#45;&gt;Node5 -->
<g id="edge17_Node000013_Node000005" class="edge">
<title>Node13&#45;&gt;Node5</title>
<g id="a_edge17_Node000013_Node000005"><a xlink:title=" ">
<path fill="none" stroke="#63b8ff" d="M676.92,-167.53C631.08,-157 557.94,-140.19 515.84,-130.52"/>
<polygon fill="#63b8ff" stroke="#63b8ff" points="516.85,-127.16 506.32,-128.33 515.28,-133.98 516.85,-127.16"/>
</a>
</g>
</g>
<!-- Node14&#45;&gt;Node5 -->
<g id="edge19_Node000014_Node000005" class="edge">
<title>Node14&#45;&gt;Node5</title>
<g id="a_edge19_Node000014_Node000005"><a xlink:title=" ">
<path fill="none" stroke="#63b8ff" d="M284.78,-168.38C330.44,-157.94 406.65,-140.5 450.11,-130.55"/>
<polygon fill="#63b8ff" stroke="#63b8ff" points="450.75,-134 459.71,-128.36 449.18,-127.18 450.75,-134"/>
</a>
</g>
</g>
<!-- Node15&#45;&gt;Node5 -->
<g id="edge21_Node000015_Node000005" class="edge">
<title>Node15&#45;&gt;Node5</title>
<g id="a_edge21_Node000015_Node000005"><a xlink:title=" ">
<path fill="none" stroke="#63b8ff" d="M360.08,-167.59C385.29,-158.46 423.63,-144.56 450.81,-134.71"/>
<polygon fill="#63b8ff" stroke="#63b8ff" points="451.71,-138.11 459.92,-131.41 449.32,-131.53 451.71,-138.11"/>
</a>
</g>
</g>
<!-- Node16&#45;&gt;Node5 -->
<g id="edge24_Node000016_Node000005" class="edge">
<title>Node16&#45;&gt;Node5</title>
<g id="a_edge24_Node000016_Node000005"><a xlink:title=" ">
<path fill="none" stroke="#63b8ff" d="M583.16,-223.68C578.51,-210.17 568.39,-184.9 553.12,-168 542.01,-155.7 526.8,-145.38 513.39,-137.75"/>
<polygon fill="#63b8ff" stroke="#63b8ff" points="515.38,-134.84 504.92,-133.16 512.05,-141 515.38,-134.84"/>
</a>
</g>
</g>
<!-- Node16&#45;&gt;Node10 -->
<g id="edge25_Node000016_Node000010" class="edge">
<title>Node16&#45;&gt;Node10</title>
<g id="a_edge25_Node000016_Node000010"><a xlink:title=" ">
<path fill="none" stroke="#63b8ff" d="M634.87,-223.53C685.54,-213.69 764.4,-198.37 815.15,-188.51"/>
<polygon fill="#63b8ff" stroke="#63b8ff" points="815.53,-192.01 824.68,-186.66 814.19,-185.13 815.53,-192.01"/>
</a>
</g>
</g>
<!-- Node17 -->
<g id="Node000017" class="node">
<title>Node17</title>
<g id="a_Node000017"><a xlink:title=" ">
<polygon fill="#e0e0e0" stroke="#999999" points="648.25,-188 600,-188 600,-168 648.25,-168 648.25,-188"/>
<text xml:space="preserve" text-anchor="middle" x="624.12" y="-174.5" font-family="Helvetica,sans-Serif" font-size="10.00">cstddef</text>
</a>
</g>
</g>
<!-- Node16&#45;&gt;Node17 -->
<g id="edge23_Node000016_Node000017" class="edge">
<title>Node16&#45;&gt;Node17</title>
<g id="a_edge23_Node000016_Node000017"><a xlink:title=" ">
<path fill="none" stroke="#63b8ff" d="M592.74,-223.59C597.81,-216.39 604.96,-206.23 611.15,-197.43"/>
<polygon fill="#63b8ff" stroke="#63b8ff" points="613.82,-199.73 616.71,-189.54 608.09,-195.7 613.82,-199.73"/>
</a>
</g>
</g>
<!-- Node18&#45;&gt;Node5 -->
<g id="edge27_Node000018_Node000005" class="edge">
<title>Node18&#45;&gt;Node5</title>
<g id="a_edge27_Node000018_Node000005"><a xlink:title=" ">
<path fill="none" stroke="#63b8ff" d="M798.33,-223.85C798.1,-209.59 795.41,-182.24 779.12,-168 740.46,-134.18 585.08,-125.76 516.24,-123.68"/>
<polygon fill="#63b8ff" stroke="#63b8ff" points="516.42,-120.18 506.33,-123.41 516.23,-127.18 516.42,-120.18"/>
</a>
</g>
</g>
<!-- Node18&#45;&gt;Node10 -->
<g id="edge28_Node000018_Node000010" class="edge">
<title>Node18&#45;&gt;Node10</title>
<g id="a_edge28_Node000018_Node000010"><a xlink:title=" ">
<path fill="none" stroke="#63b8ff" d="M809.62,-223.59C819.09,-215.85 832.73,-204.69 844,-195.47"/>
<polygon fill="#63b8ff" stroke="#63b8ff" points="846.07,-198.3 851.59,-189.26 841.63,-192.88 846.07,-198.3"/>
</a>
</g>
</g>
</g>
</svg>

<g id="navigator" transform="translate(0 0)" fill="#404254">
  <rect fill="#f2f5e9" fill-opacity="0.5" stroke="#606060" stroke-width=".5" x="0" y="0" width="60" height="60"/>
  <use id="zoomplus" xlink:href="#zoomPlus" x="17" y="9" onmousedown="handleZoom(evt,'in')"/>
  <use id="zoomminus" xlink:href="#zoomMin" x="42" y="9" onmousedown="handleZoom(evt,'out')"/>
  <use id="reset" xlink:href="#resetDef" x="30" y="36" onmousedown="handleReset()"/>
   <use id="arrowup" xlink:href="#arrowUp" x="0" y="0" onmousedown="handlePan(0,-1)"/>
  <use id="arrowright" xlink:href="#arrowRight" x="0" y="0" onmousedown="handlePan(1,0)"/>
  <use id="arrowdown" xlink:href="#arrowDown" x="0" y="0" onmousedown="handlePan(0,1)"/>
  <use id="arrowleft" xlink:href="#arrowLeft" x="0" y="0" onmousedown="handlePan(-1,0)"/>
</g>
<svg viewBox="0 0 15 15" width="100%" height="30px" preserveAspectRatio="xMaxYMin meet">
 <g id="arrow_out" transform="scale(0.3 0.3)">
  <a xlink:href="main_8cpp__incl_org.svg" target="_base">
   <rect id="button" ry="5" rx="5" y="6" x="6" height="38" width="38"
        fill="#f2f5e9" fill-opacity="0.5" stroke="#606060" stroke-width="1.0"/>
   <path id="arrow"
     d="M 11.500037,31.436501 C 11.940474,20.09759 22.043105,11.32322 32.158766,21.979434 L 37.068811,17.246167 C 37.068811,17.246167 37.088388,32 37.088388,32 L 22.160133,31.978069 C 22.160133,31.978069 26.997745,27.140456 26.997745,27.140456 C 18.528582,18.264221 13.291696,25.230495 11.500037,31.436501 z"
     style="fill:#404040;"/>
  </a>
 </g>
</svg>

<style type='text/css'>
<![CDATA[
[data-mouse-over-selected='false'] { opacity: 0.7; }
[data-mouse-over-selected='true']  { opacity: 1.0; }
]]>
</style>
<script type="application/ecmascript"><![CDATA[
document.addEventListener('DOMContentLoaded', (event) => {
  highlightEdges();
  highlightAdjacentNodes();
});
]]></script>
</svg>
