<?xml version="1.0" encoding="UTF-8" standalone="no"?>
<!DOCTYPE svg PUBLIC "-//W3C//DTD SVG 1.1//EN"
 "http://www.w3.org/Graphics/SVG/1.1/DTD/svg11.dtd">
<!-- Generated by graphviz version 13.1.2 (20250808.2320)
 -->
<!-- Title: takeMove Pages: 1 -->
<!--zoomable 257 -->

<svg id="main" version="1.1" xmlns="http://www.w3.org/2000/svg" xmlns:xlink="http://www.w3.org/1999/xlink" xml:space="preserve" onload="init(evt)">

<style type="text/css"><![CDATA[
.node, .edge {opacity: 0.7;}
.node.selected, .edge.selected {opacity: 1;}
.edge:hover path { stroke: red; }
.edge:hover polygon { stroke: red; fill: red; }
]]></style>

<defs>
  <circle id="rim" cx="0" cy="0" r="7"/>
  <circle id="rim2" cx="0" cy="0" r="3.5"/>
  <g id="zoomPlus">
    <use xlink:href="#rim" fill="#404040"><set attributeName="fill" to="#808080" begin="zoomplus.mouseover" end="zoomplus.mouseout"/></use>
    <path d="M-4,0h8M0,-4v8" fill="none" stroke="white" stroke-width="1.5" pointer-events="none"/>
  </g>
  <g id="zoomMin">
    <use xlink:href="#rim" fill="#404040"><set attributeName="fill" to="#808080" begin="zoomminus.mouseover" end="zoomminus.mouseout"/></use>
    <path d="M-4,0h8" fill="none" stroke="white" stroke-width="1.5" pointer-events="none"/>
  </g>
  <g id="arrowUp" transform="translate(30 24)">
    <use xlink:href="#rim"/>
    <path pointer-events="none" fill="none" stroke="white" stroke-width="1.5" d="M0,-3.0v7 M-2.5,-0.5L0,-3.0L2.5,-0.5"/>
  </g>
  <g id="arrowRight" transform="rotate(90) translate(36 -43)">
    <use xlink:href="#rim"/>
    <path pointer-events="none" fill="none" stroke="white" stroke-width="1.5" d="M0,-3.0v7 M-2.5,-0.5L0,-3.0L2.5,-0.5"/>
  </g>
  <g id="arrowDown" transform="rotate(180) translate(-30 -48)">
    <use xlink:href="#rim"/>
    <path pointer-events="none" fill="none" stroke="white" stroke-width="1.5" d="M0,-3.0v7 M-2.5,-0.5L0,-3.0L2.5,-0.5"/>
  </g>
  <g id="arrowLeft" transform="rotate(270) translate(-36 17)">
    <use xlink:href="#rim"/>
    <path pointer-events="none" fill="none" stroke="white" stroke-width="1.5" d="M0,-3.0v7 M-2.5,-0.5L0,-3.0L2.5,-0.5"/>
  </g>
  <g id="resetDef">
    <use xlink:href="#rim2" fill="#404040"><set attributeName="fill" to="#808080" begin="reset.mouseover" end="reset.mouseout"/></use>
  </g>
</defs>
<script type="application/ecmascript">
var viewWidth = 546;
var viewHeight = 257;
var sectionId = 'dynsection-5';
</script>
<script type="application/ecmascript" xlink:href="svg.min.js"/>
<svg id="graph" class="graph">
<g id="viewport">
<title>takeMove</title>
<!-- Node1 -->
<g id="Node000001" class="node">
<title>Node1</title>
<g id="a_Node000001"><a xlink:title="Undo the last made move.">
<polygon fill="#999999" stroke="#666666" points="58.75,-134.78 0,-134.78 0,-114.78 58.75,-114.78 58.75,-134.78"/>
<text xml:space="preserve" text-anchor="middle" x="29.38" y="-121.28" font-family="Helvetica,sans-Serif" font-size="10.00">takeMove</text>
</a>
</g>
</g>
<!-- Node2 -->
<g id="Node000002" class="node">
<title>Node2</title>
<g id="a_Node000002"><a xlink:href="make__move_8cpp.html#a6ac5b01b46acf941303b6ff4505889b4" target="_top" xlink:title=" ">
<polygon fill="white" stroke="#666666" points="156.12,-191.78 98.12,-191.78 98.12,-171.78 156.12,-171.78 156.12,-191.78"/>
<text xml:space="preserve" text-anchor="middle" x="127.12" y="-178.28" font-family="Helvetica,sans-Serif" font-size="10.00">AddPiece</text>
</a>
</g>
</g>
<!-- Node1&#45;&gt;Node2 -->
<g id="edge1_Node000001_Node000002" class="edge">
<title>Node1&#45;&gt;Node2</title>
<g id="a_edge1_Node000001_Node000002"><a xlink:title=" ">
<path fill="none" stroke="#63b8ff" d="M47.94,-135.24C62.24,-143.75 82.69,-155.92 99.08,-165.68"/>
<polygon fill="#63b8ff" stroke="#63b8ff" points="96.99,-168.51 107.37,-170.62 100.57,-162.5 96.99,-168.51"/>
</a>
</g>
</g>
<!-- Node3 -->
<g id="Node000003" class="node">
<title>Node3</title>
<g id="a_Node000003"><a xlink:href="validate_8cpp.html#aca205110cd18879d0e0a965dee34b776" target="_top" xlink:title="Checks if the given piece code is a valid piece (non&#45;empty).">
<polygon fill="white" stroke="#666666" points="277.5,-229.78 206.75,-229.78 206.75,-209.78 277.5,-209.78 277.5,-229.78"/>
<text xml:space="preserve" text-anchor="middle" x="242.12" y="-216.28" font-family="Helvetica,sans-Serif" font-size="10.00">pieceValueid</text>
</a>
</g>
</g>
<!-- Node1&#45;&gt;Node3 -->
<g id="edge19_Node000001_Node000003" class="edge">
<title>Node1&#45;&gt;Node3</title>
<g id="a_edge19_Node000001_Node000003"><a xlink:title=" ">
<path fill="none" stroke="#63b8ff" d="M35.85,-135.27C45.32,-152.25 66.5,-185.4 94.75,-200.78 125.35,-217.44 164.73,-221.76 194.94,-222.16"/>
<polygon fill="#63b8ff" stroke="#63b8ff" points="194.93,-225.66 204.92,-222.13 194.91,-218.66 194.93,-225.66"/>
</a>
</g>
</g>
<!-- Node5 -->
<g id="Node000005" class="node">
<title>Node5</title>
<g id="a_Node000005"><a xlink:href="validate_8cpp.html#ad5a569564ef016ed02a4fef23d89d9c4" target="_top" xlink:title="Checks if a given square index refers to a valid on&#45;board square.">
<polygon fill="white" stroke="#666666" points="538.25,-96.78 472,-96.78 472,-76.78 538.25,-76.78 538.25,-96.78"/>
<text xml:space="preserve" text-anchor="middle" x="505.12" y="-83.28" font-family="Helvetica,sans-Serif" font-size="10.00">SqOnBoard</text>
</a>
</g>
</g>
<!-- Node1&#45;&gt;Node5 -->
<g id="edge20_Node000001_Node000005" class="edge">
<title>Node1&#45;&gt;Node5</title>
<g id="a_edge20_Node000001_Node000005"><a xlink:title=" ">
<path fill="none" stroke="#63b8ff" d="M39.33,-114.46C50.87,-101.81 72.17,-80.58 94.75,-68.78 188.19,-19.96 220.13,-23.77 324.75,-10.78 373.82,-4.69 390.85,9.38 436,-10.78 461.43,-22.14 481.31,-48.19 492.87,-66.62"/>
<polygon fill="#63b8ff" stroke="#63b8ff" points="489.81,-68.31 497.92,-75.12 495.82,-64.73 489.81,-68.31"/>
</a>
</g>
</g>
<!-- Node6 -->
<g id="Node000006" class="node">
<title>Node6</title>
<g id="a_Node000006"><a xlink:href="make__move_8cpp.html#a7638b740f3b9301ec3ef126abaeef83e" target="_top" xlink:title=" ">
<polygon fill="white" stroke="#666666" points="159.12,-115.78 95.12,-115.78 95.12,-95.78 159.12,-95.78 159.12,-115.78"/>
<text xml:space="preserve" text-anchor="middle" x="127.12" y="-102.28" font-family="Helvetica,sans-Serif" font-size="10.00">ClearPiece</text>
</a>
</g>
</g>
<!-- Node1&#45;&gt;Node6 -->
<g id="edge5_Node000001_Node000006" class="edge">
<title>Node1&#45;&gt;Node6</title>
<g id="a_edge5_Node000001_Node000006"><a xlink:title=" ">
<path fill="none" stroke="#63b8ff" d="M59.1,-119.08C66.83,-117.55 75.35,-115.86 83.65,-114.21"/>
<polygon fill="#63b8ff" stroke="#63b8ff" points="84.13,-117.68 93.26,-112.3 82.77,-110.82 84.13,-117.68"/>
</a>
</g>
</g>
<!-- Node7 -->
<g id="Node000007" class="node">
<title>Node7</title>
<g id="a_Node000007"><a xlink:href="board_8cpp.html#a27f071824f45c724e8ddd02c72b39871" target="_top" xlink:title="Performs a full internal consistency check of the board state.">
<polygon fill="white" stroke="#666666" points="288.75,-77.78 195.5,-77.78 195.5,-57.78 288.75,-57.78 288.75,-77.78"/>
<text xml:space="preserve" text-anchor="middle" x="242.12" y="-64.28" font-family="Helvetica,sans-Serif" font-size="10.00">isBoardStateValid</text>
</a>
</g>
</g>
<!-- Node1&#45;&gt;Node7 -->
<g id="edge14_Node000001_Node000007" class="edge">
<title>Node1&#45;&gt;Node7</title>
<g id="a_edge14_Node000001_Node000007"><a xlink:title=" ">
<path fill="none" stroke="#63b8ff" d="M43.89,-114.59C56.39,-105.71 75.85,-93.28 94.75,-86.78 123.16,-77.01 156.25,-72.21 183.78,-69.87"/>
<polygon fill="#63b8ff" stroke="#63b8ff" points="183.99,-73.36 193.7,-69.12 183.46,-66.38 183.99,-73.36"/>
</a>
</g>
</g>
<!-- Node10 -->
<g id="Node000010" class="node">
<title>Node10</title>
<g id="a_Node000010"><a xlink:href="make__move_8cpp.html#ad096f1812d822251b98ffbc3894bc1d5" target="_top" xlink:title=" ">
<polygon fill="white" stroke="#666666" points="159.5,-153.78 94.75,-153.78 94.75,-133.78 159.5,-133.78 159.5,-153.78"/>
<text xml:space="preserve" text-anchor="middle" x="127.12" y="-140.28" font-family="Helvetica,sans-Serif" font-size="10.00">MovePiece</text>
</a>
</g>
</g>
<!-- Node1&#45;&gt;Node10 -->
<g id="edge15_Node000001_Node000010" class="edge">
<title>Node1&#45;&gt;Node10</title>
<g id="a_edge15_Node000001_Node000010"><a xlink:title=" ">
<path fill="none" stroke="#63b8ff" d="M59.1,-130.48C66.67,-131.98 74.99,-133.64 83.13,-135.25"/>
<polygon fill="#63b8ff" stroke="#63b8ff" points="82.43,-138.68 92.92,-137.19 83.79,-131.81 82.43,-138.68"/>
</a>
</g>
</g>
<!-- Node2&#45;&gt;Node3 -->
<g id="edge2_Node000002_Node000003" class="edge">
<title>Node2&#45;&gt;Node3</title>
<g id="a_edge2_Node000002_Node000003"><a xlink:title=" ">
<path fill="none" stroke="#63b8ff" d="M156.35,-191.27C169.37,-195.65 185.09,-200.94 199.45,-205.77"/>
<polygon fill="#63b8ff" stroke="#63b8ff" points="198.06,-208.99 208.65,-208.86 200.29,-202.36 198.06,-208.99"/>
</a>
</g>
</g>
<!-- Node4 -->
<g id="Node000004" class="node">
<title>Node4</title>
<g id="a_Node000004"><a xlink:href="validate_8cpp.html#ad7a2e012bffa6db3df97e7742c9d731d" target="_top" xlink:title="Checks if the given side identifier is valid.">
<polygon fill="white" stroke="#666666" points="270.38,-191.78 213.88,-191.78 213.88,-171.78 270.38,-171.78 270.38,-191.78"/>
<text xml:space="preserve" text-anchor="middle" x="242.12" y="-178.28" font-family="Helvetica,sans-Serif" font-size="10.00">SideValid</text>
</a>
</g>
</g>
<!-- Node2&#45;&gt;Node4 -->
<g id="edge3_Node000002_Node000004" class="edge">
<title>Node2&#45;&gt;Node4</title>
<g id="a_edge3_Node000002_Node000004"><a xlink:title=" ">
<path fill="none" stroke="#63b8ff" d="M156.35,-181.78C170.31,-181.78 187.37,-181.78 202.52,-181.78"/>
<polygon fill="#63b8ff" stroke="#63b8ff" points="202.14,-185.28 212.14,-181.78 202.14,-178.28 202.14,-185.28"/>
</a>
</g>
</g>
<!-- Node2&#45;&gt;Node5 -->
<g id="edge4_Node000002_Node000005" class="edge">
<title>Node2&#45;&gt;Node5</title>
<g id="a_edge4_Node000002_Node000005"><a xlink:title=" ">
<path fill="none" stroke="#63b8ff" d="M135.95,-191.82C147.32,-205.51 169.89,-229.4 195.5,-238.78 234.42,-253.04 249.25,-251.32 288.75,-238.78 372.84,-212.1 452.41,-139.41 486.59,-105.14"/>
<polygon fill="#63b8ff" stroke="#63b8ff" points="489.08,-107.6 493.58,-98.01 484.08,-102.7 489.08,-107.6"/>
</a>
</g>
</g>
<!-- Node6&#45;&gt;Node3 -->
<g id="edge11_Node000006_Node000003" class="edge">
<title>Node6&#45;&gt;Node3</title>
<g id="a_edge11_Node000006_Node000003"><a xlink:title=" ">
<path fill="none" stroke="#63b8ff" d="M149.34,-116.27C153.02,-118.72 156.6,-121.57 159.5,-124.78 184.55,-152.53 168.45,-174.99 195.5,-200.78 196.4,-201.64 197.35,-202.46 198.33,-203.25"/>
<polygon fill="#63b8ff" stroke="#63b8ff" points="196.35,-206.14 206.66,-208.61 200.14,-200.26 196.35,-206.14"/>
</a>
</g>
</g>
<!-- Node6&#45;&gt;Node4 -->
<g id="edge12_Node000006_Node000004" class="edge">
<title>Node6&#45;&gt;Node4</title>
<g id="a_edge12_Node000006_Node000004"><a xlink:title=" ">
<path fill="none" stroke="#63b8ff" d="M145.84,-116.24C150.33,-118.96 155.12,-121.93 159.5,-124.78 179.41,-137.75 201.48,-153.22 217.64,-164.78"/>
<polygon fill="#63b8ff" stroke="#63b8ff" points="215.48,-167.53 225.64,-170.52 219.56,-161.85 215.48,-167.53"/>
</a>
</g>
</g>
<!-- Node6&#45;&gt;Node5 -->
<g id="edge13_Node000006_Node000005" class="edge">
<title>Node6&#45;&gt;Node5</title>
<g id="a_edge13_Node000006_Node000005"><a xlink:title=" ">
<path fill="none" stroke="#63b8ff" d="M159.54,-104.2C226.6,-100.81 383.93,-92.86 460.59,-88.98"/>
<polygon fill="#63b8ff" stroke="#63b8ff" points="460.42,-92.5 470.23,-88.5 460.06,-85.51 460.42,-92.5"/>
</a>
</g>
</g>
<!-- Node6&#45;&gt;Node7 -->
<g id="edge6_Node000006_Node000007" class="edge">
<title>Node6&#45;&gt;Node7</title>
<g id="a_edge6_Node000006_Node000007"><a xlink:title=" ">
<path fill="none" stroke="#63b8ff" d="M159.3,-95.3C171.65,-91.15 186.04,-86.31 199.27,-81.86"/>
<polygon fill="#63b8ff" stroke="#63b8ff" points="200.25,-85.22 208.62,-78.72 198.02,-78.59 200.25,-85.22"/>
</a>
</g>
</g>
<!-- Node8 -->
<g id="Node000008" class="node">
<title>Node8</title>
<g id="a_Node000008"><a xlink:href="hash__keys_8cpp.html#a8c1832e1dfd853cce944ddd2df57dd53" target="_top" xlink:title="Generates a Zobrist hash key for the given board position.">
<polygon fill="white" stroke="#666666" points="436,-39.78 324.75,-39.78 324.75,-19.78 436,-19.78 436,-39.78"/>
<text xml:space="preserve" text-anchor="middle" x="380.38" y="-26.28" font-family="Helvetica,sans-Serif" font-size="10.00">generatePositionKeys</text>
</a>
</g>
</g>
<!-- Node7&#45;&gt;Node8 -->
<g id="edge7_Node000007_Node000008" class="edge">
<title>Node7&#45;&gt;Node8</title>
<g id="a_edge7_Node000007_Node000008"><a xlink:title=" ">
<path fill="none" stroke="#63b8ff" d="M280.72,-57.3C296.2,-52.98 314.35,-47.92 330.82,-43.32"/>
<polygon fill="#63b8ff" stroke="#63b8ff" points="331.76,-46.7 340.45,-40.64 329.88,-39.95 331.76,-46.7"/>
</a>
</g>
</g>
<!-- Node9 -->
<g id="Node000009" class="node">
<title>Node9</title>
<g id="a_Node000009"><a xlink:href="board_8cpp.html#addbaf4fbab51f8032e0e7aabbffeab96" target="_top" xlink:title="Validate that piece list array is consistent with board state.">
<polygon fill="white" stroke="#666666" points="422.88,-77.78 337.88,-77.78 337.88,-57.78 422.88,-57.78 422.88,-77.78"/>
<text xml:space="preserve" text-anchor="middle" x="380.38" y="-64.28" font-family="Helvetica,sans-Serif" font-size="10.00">isPieceListValid</text>
</a>
</g>
</g>
<!-- Node7&#45;&gt;Node9 -->
<g id="edge9_Node000007_Node000009" class="edge">
<title>Node7&#45;&gt;Node9</title>
<g id="a_edge9_Node000007_Node000009"><a xlink:title=" ">
<path fill="none" stroke="#63b8ff" d="M288.87,-67.78C300.95,-67.78 314.08,-67.78 326.5,-67.78"/>
<polygon fill="#63b8ff" stroke="#63b8ff" points="326.13,-71.28 336.13,-67.78 326.13,-64.28 326.13,-71.28"/>
</a>
</g>
</g>
<!-- Node8&#45;&gt;Node5 -->
<g id="edge8_Node000008_Node000005" class="edge">
<title>Node8&#45;&gt;Node5</title>
<g id="a_edge8_Node000008_Node000005"><a xlink:title=" ">
<path fill="none" stroke="#63b8ff" d="M414.38,-40.22C421.6,-42.79 429.13,-45.7 436,-48.78 450.19,-55.15 465.36,-63.45 477.77,-70.67"/>
<polygon fill="#63b8ff" stroke="#63b8ff" points="475.78,-73.56 486.17,-75.64 479.35,-67.54 475.78,-73.56"/>
</a>
</g>
</g>
<!-- Node9&#45;&gt;Node5 -->
<g id="edge10_Node000009_Node000005" class="edge">
<title>Node9&#45;&gt;Node5</title>
<g id="a_edge10_Node000009_Node000005"><a xlink:title=" ">
<path fill="none" stroke="#63b8ff" d="M423.28,-74.27C435.28,-76.13 448.38,-78.16 460.49,-80.03"/>
<polygon fill="#63b8ff" stroke="#63b8ff" points="459.8,-83.46 470.22,-81.53 460.87,-76.55 459.8,-83.46"/>
</a>
</g>
</g>
<!-- Node10&#45;&gt;Node3 -->
<g id="edge16_Node000010_Node000003" class="edge">
<title>Node10&#45;&gt;Node3</title>
<g id="a_edge16_Node000010_Node000003"><a xlink:title=" ">
<path fill="none" stroke="#63b8ff" d="M147.26,-154.25C151.44,-156.84 155.73,-159.75 159.5,-162.78 177.61,-177.38 176.35,-187.58 195.5,-200.78 197.3,-202.02 199.2,-203.21 201.15,-204.33"/>
<polygon fill="#63b8ff" stroke="#63b8ff" points="199.37,-207.35 209.87,-208.76 202.54,-201.11 199.37,-207.35"/>
</a>
</g>
</g>
<!-- Node10&#45;&gt;Node4 -->
<g id="edge17_Node000010_Node000004" class="edge">
<title>Node10&#45;&gt;Node4</title>
<g id="a_edge17_Node000010_Node000004"><a xlink:title=" ">
<path fill="none" stroke="#63b8ff" d="M159.3,-154.27C172.7,-158.77 188.5,-164.09 202.63,-168.84"/>
<polygon fill="#63b8ff" stroke="#63b8ff" points="201.49,-172.15 212.08,-172.02 203.72,-165.51 201.49,-172.15"/>
</a>
</g>
</g>
<!-- Node10&#45;&gt;Node5 -->
<g id="edge18_Node000010_Node000005" class="edge">
<title>Node10&#45;&gt;Node5</title>
<g id="a_edge18_Node000010_Node000005"><a xlink:title=" ">
<path fill="none" stroke="#63b8ff" d="M159.87,-141.71C216.02,-137.67 336.33,-127.25 436,-106.78 444.4,-105.06 453.26,-102.8 461.71,-100.41"/>
<polygon fill="#63b8ff" stroke="#63b8ff" points="462.45,-103.84 471.06,-97.67 460.48,-97.13 462.45,-103.84"/>
</a>
</g>
</g>
</g>
</svg>

<g id="navigator" transform="translate(0 0)" fill="#404254">
  <rect fill="#f2f5e9" fill-opacity="0.5" stroke="#606060" stroke-width=".5" x="0" y="0" width="60" height="60"/>
  <use id="zoomplus" xlink:href="#zoomPlus" x="17" y="9" onmousedown="handleZoom(evt,'in')"/>
  <use id="zoomminus" xlink:href="#zoomMin" x="42" y="9" onmousedown="handleZoom(evt,'out')"/>
  <use id="reset" xlink:href="#resetDef" x="30" y="36" onmousedown="handleReset()"/>
   <use id="arrowup" xlink:href="#arrowUp" x="0" y="0" onmousedown="handlePan(0,-1)"/>
  <use id="arrowright" xlink:href="#arrowRight" x="0" y="0" onmousedown="handlePan(1,0)"/>
  <use id="arrowdown" xlink:href="#arrowDown" x="0" y="0" onmousedown="handlePan(0,1)"/>
  <use id="arrowleft" xlink:href="#arrowLeft" x="0" y="0" onmousedown="handlePan(-1,0)"/>
</g>
<svg viewBox="0 0 15 15" width="100%" height="30px" preserveAspectRatio="xMaxYMin meet">
 <g id="arrow_out" transform="scale(0.3 0.3)">
  <a xlink:href="make__move_8h_a2c06e621cd45ac669d9ef8bcb6bc7a45_cgraph_org.svg" target="_base">
   <rect id="button" ry="5" rx="5" y="6" x="6" height="38" width="38"
        fill="#f2f5e9" fill-opacity="0.5" stroke="#606060" stroke-width="1.0"/>
   <path id="arrow"
     d="M 11.500037,31.436501 C 11.940474,20.09759 22.043105,11.32322 32.158766,21.979434 L 37.068811,17.246167 C 37.068811,17.246167 37.088388,32 37.088388,32 L 22.160133,31.978069 C 22.160133,31.978069 26.997745,27.140456 26.997745,27.140456 C 18.528582,18.264221 13.291696,25.230495 11.500037,31.436501 z"
     style="fill:#404040;"/>
  </a>
 </g>
</svg>

<style type='text/css'>
<![CDATA[
[data-mouse-over-selected='false'] { opacity: 0.7; }
[data-mouse-over-selected='true']  { opacity: 1.0; }
]]>
</style>
<script type="application/ecmascript"><![CDATA[
document.addEventListener('DOMContentLoaded', (event) => {
  highlightEdges();
  highlightAdjacentNodes();
});
]]></script>
</svg>
