<?xml version="1.0" encoding="UTF-8" standalone="no"?>
<!DOCTYPE svg PUBLIC "-//W3C//DTD SVG 1.1//EN"
 "http://www.w3.org/Graphics/SVG/1.1/DTD/svg11.dtd">
<!-- Generated by graphviz version 13.1.2 (20250808.2320)
 -->
<!-- Title: make_move.cpp Pages: 1 -->
<svg width="346pt" height="252pt"
 viewBox="0.00 0.00 346.00 252.00" xmlns="http://www.w3.org/2000/svg" xmlns:xlink="http://www.w3.org/1999/xlink">

<svg id="main" version="1.1" xmlns="http://www.w3.org/2000/svg" xmlns:xlink="http://www.w3.org/1999/xlink" xml:space="preserve">

<style type="text/css"><![CDATA[
.node, .edge {opacity: 0.7;}
.node.selected, .edge.selected {opacity: 1;}
.edge:hover path { stroke: red; }
.edge:hover polygon { stroke: red; fill: red; }
]]></style>
<script type="application/ecmascript" xlink:href="svg.min.js"/>
<svg id="graph" class="graph">
<g id="graph0" class="graph" transform="scale(1 1) rotate(0) translate(4 248)">
<title>make_move.cpp</title>
<!-- Node1 -->
<g id="Node000001" class="node">
<title>Node1</title>
<g id="a_Node000001"><a xlink:title=" ">
<polygon fill="#999999" stroke="#666666" points="157.46,-244 69.46,-244 69.46,-224 157.46,-224 157.46,-244"/>
<text xml:space="preserve" text-anchor="middle" x="113.46" y="-230.5" font-family="Helvetica,sans-Serif" font-size="10.00">make_move.cpp</text>
</a>
</g>
</g>
<!-- Node2 -->
<g id="Node000002" class="node">
<title>Node2</title>
<g id="a_Node000002"><a xlink:href="defs_8h.html" target="_top" xlink:title=" ">
<polygon fill="white" stroke="#666666" points="181.96,-132 138.96,-132 138.96,-112 181.96,-112 181.96,-132"/>
<text xml:space="preserve" text-anchor="middle" x="160.46" y="-118.5" font-family="Helvetica,sans-Serif" font-size="10.00">defs.h</text>
</a>
</g>
</g>
<!-- Node1&#45;&gt;Node2 -->
<g id="edge1_Node000001_Node000002" class="edge">
<title>Node1&#45;&gt;Node2</title>
<g id="a_edge1_Node000001_Node000002"><a xlink:title=" ">
<path fill="none" stroke="#63b8ff" d="M68.96,-223.87C30.7,-213.93 -15.31,-195.65 5.46,-168 20.08,-148.52 86.32,-134.75 127.33,-127.91"/>
<polygon fill="#63b8ff" stroke="#63b8ff" points="127.85,-131.37 137.17,-126.33 126.74,-124.46 127.85,-131.37"/>
</a>
</g>
</g>
<!-- Node7 -->
<g id="Node000007" class="node">
<title>Node7</title>
<g id="a_Node000007"><a xlink:title=" ">
<polygon fill="#e0e0e0" stroke="#999999" points="56.58,-188 14.33,-188 14.33,-168 56.58,-168 56.58,-188"/>
<text xml:space="preserve" text-anchor="middle" x="35.46" y="-174.5" font-family="Helvetica,sans-Serif" font-size="10.00">cstdio</text>
</a>
</g>
</g>
<!-- Node1&#45;&gt;Node7 -->
<g id="edge7_Node000001_Node000007" class="edge">
<title>Node1&#45;&gt;Node7</title>
<g id="a_edge7_Node000001_Node000007"><a xlink:title=" ">
<path fill="none" stroke="#63b8ff" d="M99.87,-223.59C88.42,-215.67 71.79,-204.16 58.3,-194.82"/>
<polygon fill="#63b8ff" stroke="#63b8ff" points="60.61,-192.16 50.39,-189.34 56.62,-197.91 60.61,-192.16"/>
</a>
</g>
</g>
<!-- Node8 -->
<g id="Node000008" class="node">
<title>Node8</title>
<g id="a_Node000008"><a xlink:href="make__move_8h.html" target="_top" xlink:title=" ">
<polygon fill="white" stroke="#666666" points="152.21,-188 74.71,-188 74.71,-168 152.21,-168 152.21,-188"/>
<text xml:space="preserve" text-anchor="middle" x="113.46" y="-174.5" font-family="Helvetica,sans-Serif" font-size="10.00">make_move.h</text>
</a>
</g>
</g>
<!-- Node1&#45;&gt;Node8 -->
<g id="edge8_Node000001_Node000008" class="edge">
<title>Node1&#45;&gt;Node8</title>
<g id="a_edge8_Node000001_Node000008"><a xlink:title=" ">
<path fill="none" stroke="#63b8ff" d="M113.46,-223.59C113.46,-217.01 113.46,-207.96 113.46,-199.73"/>
<polygon fill="#63b8ff" stroke="#63b8ff" points="116.96,-199.81 113.46,-189.81 109.96,-199.81 116.96,-199.81"/>
</a>
</g>
</g>
<!-- Node9 -->
<g id="Node000009" class="node">
<title>Node9</title>
<g id="a_Node000009"><a xlink:href="attack_8h.html" target="_top" xlink:title=" ">
<polygon fill="white" stroke="#666666" points="246.46,-188 170.46,-188 170.46,-168 246.46,-168 246.46,-188"/>
<text xml:space="preserve" text-anchor="middle" x="208.46" y="-174.5" font-family="Helvetica,sans-Serif" font-size="10.00">../util/attack.h</text>
</a>
</g>
</g>
<!-- Node1&#45;&gt;Node9 -->
<g id="edge10_Node000001_Node000009" class="edge">
<title>Node1&#45;&gt;Node9</title>
<g id="a_edge10_Node000001_Node000009"><a xlink:title=" ">
<path fill="none" stroke="#63b8ff" d="M130,-223.59C144.36,-215.44 165.38,-203.48 182.06,-194"/>
<polygon fill="#63b8ff" stroke="#63b8ff" points="183.5,-197.21 190.46,-189.23 180.04,-191.13 183.5,-197.21"/>
</a>
</g>
</g>
<!-- Node10 -->
<g id="Node000010" class="node">
<title>Node10</title>
<g id="a_Node000010"><a xlink:href="setup_8h.html" target="_top" xlink:title=" ">
<polygon fill="white" stroke="#666666" points="337.96,-188 264.96,-188 264.96,-168 337.96,-168 337.96,-188"/>
<text xml:space="preserve" text-anchor="middle" x="301.46" y="-174.5" font-family="Helvetica,sans-Serif" font-size="10.00">../util/setup.h</text>
</a>
</g>
</g>
<!-- Node1&#45;&gt;Node10 -->
<g id="edge12_Node000001_Node000010" class="edge">
<title>Node1&#45;&gt;Node10</title>
<g id="a_edge12_Node000001_Node000010"><a xlink:title=" ">
<path fill="none" stroke="#63b8ff" d="M146.2,-223.59C177.02,-214.74 223.38,-201.43 257.42,-191.65"/>
<polygon fill="#63b8ff" stroke="#63b8ff" points="258.35,-195.02 267,-188.9 256.42,-188.29 258.35,-195.02"/>
</a>
</g>
</g>
<!-- Node3 -->
<g id="Node000003" class="node">
<title>Node3</title>
<g id="a_Node000003"><a xlink:title=" ">
<polygon fill="#e0e0e0" stroke="#999999" points="75.21,-76 27.71,-76 27.71,-56 75.21,-56 75.21,-76"/>
<text xml:space="preserve" text-anchor="middle" x="51.46" y="-62.5" font-family="Helvetica,sans-Serif" font-size="10.00">stdlib.h</text>
</a>
</g>
</g>
<!-- Node2&#45;&gt;Node3 -->
<g id="edge2_Node000002_Node000003" class="edge">
<title>Node2&#45;&gt;Node3</title>
<g id="a_edge2_Node000002_Node000003"><a xlink:title=" ">
<path fill="none" stroke="#63b8ff" d="M141.47,-111.59C124.69,-103.28 99.96,-91.03 80.67,-81.47"/>
<polygon fill="#63b8ff" stroke="#63b8ff" points="82.46,-78.45 71.95,-77.15 79.35,-84.73 82.46,-78.45"/>
</a>
</g>
</g>
<!-- Node4 -->
<g id="Node000004" class="node">
<title>Node4</title>
<g id="a_Node000004"><a xlink:title=" ">
<polygon fill="#e0e0e0" stroke="#999999" points="138.08,-76 92.83,-76 92.83,-56 138.08,-56 138.08,-76"/>
<text xml:space="preserve" text-anchor="middle" x="115.46" y="-62.5" font-family="Helvetica,sans-Serif" font-size="10.00">stdio.h</text>
</a>
</g>
</g>
<!-- Node2&#45;&gt;Node4 -->
<g id="edge3_Node000002_Node000004" class="edge">
<title>Node2&#45;&gt;Node4</title>
<g id="a_edge3_Node000002_Node000004"><a xlink:title=" ">
<path fill="none" stroke="#63b8ff" d="M152.62,-111.59C146.49,-104.24 137.79,-93.8 130.34,-84.87"/>
<polygon fill="#63b8ff" stroke="#63b8ff" points="133.26,-82.9 124.17,-77.46 127.89,-87.38 133.26,-82.9"/>
</a>
</g>
</g>
<!-- Node5 -->
<g id="Node000005" class="node">
<title>Node5</title>
<g id="a_Node000005"><a xlink:href="board__data_8h.html" target="_top" xlink:title=" ">
<polygon fill="white" stroke="#666666" points="255.08,-76 155.83,-76 155.83,-56 255.08,-56 255.08,-76"/>
<text xml:space="preserve" text-anchor="middle" x="205.46" y="-62.5" font-family="Helvetica,sans-Serif" font-size="10.00">board/board_data.h</text>
</a>
</g>
</g>
<!-- Node2&#45;&gt;Node5 -->
<g id="edge4_Node000002_Node000005" class="edge">
<title>Node2&#45;&gt;Node5</title>
<g id="a_edge4_Node000002_Node000005"><a xlink:title=" ">
<path fill="none" stroke="#63b8ff" d="M163.03,-111.59C167.78,-104.08 176.36,-93.35 184.69,-84.3"/>
<polygon fill="#63b8ff" stroke="#63b8ff" points="186.95,-87 191.41,-77.38 181.93,-82.12 186.95,-87"/>
</a>
</g>
</g>
<!-- Node5&#45;&gt;Node2 -->
<g id="edge6_Node000005_Node000002" class="edge">
<title>Node5&#45;&gt;Node2</title>
<g id="a_edge6_Node000005_Node000002"><a xlink:title=" ">
<path fill="none" stroke="#63b8ff" d="M202.95,-76.3C198.23,-83.78 189.67,-94.5 181.34,-103.57"/>
<polygon fill="#63b8ff" stroke="#63b8ff" points="179.06,-100.89 174.61,-110.51 184.09,-105.76 179.06,-100.89"/>
</a>
</g>
</g>
<!-- Node6 -->
<g id="Node000006" class="node">
<title>Node6</title>
<g id="a_Node000006"><a xlink:title=" ">
<polygon fill="#e0e0e0" stroke="#999999" points="224.33,-20 186.58,-20 186.58,0 224.33,0 224.33,-20"/>
<text xml:space="preserve" text-anchor="middle" x="205.46" y="-6.5" font-family="Helvetica,sans-Serif" font-size="10.00">array</text>
</a>
</g>
</g>
<!-- Node5&#45;&gt;Node6 -->
<g id="edge5_Node000005_Node000006" class="edge">
<title>Node5&#45;&gt;Node6</title>
<g id="a_edge5_Node000005_Node000006"><a xlink:title=" ">
<path fill="none" stroke="#63b8ff" d="M205.46,-55.59C205.46,-49.01 205.46,-39.96 205.46,-31.73"/>
<polygon fill="#63b8ff" stroke="#63b8ff" points="208.96,-31.81 205.46,-21.81 201.96,-31.81 208.96,-31.81"/>
</a>
</g>
</g>
<!-- Node8&#45;&gt;Node2 -->
<g id="edge9_Node000008_Node000002" class="edge">
<title>Node8&#45;&gt;Node2</title>
<g id="a_edge9_Node000008_Node000002"><a xlink:title=" ">
<path fill="none" stroke="#63b8ff" d="M121.64,-167.59C128.05,-160.24 137.13,-149.8 144.91,-140.87"/>
<polygon fill="#63b8ff" stroke="#63b8ff" points="147.44,-143.28 151.37,-133.44 142.16,-138.69 147.44,-143.28"/>
</a>
</g>
</g>
<!-- Node9&#45;&gt;Node2 -->
<g id="edge11_Node000009_Node000002" class="edge">
<title>Node9&#45;&gt;Node2</title>
<g id="a_edge11_Node000009_Node000002"><a xlink:title=" ">
<path fill="none" stroke="#63b8ff" d="M200.1,-167.59C193.56,-160.24 184.27,-149.8 176.34,-140.87"/>
<polygon fill="#63b8ff" stroke="#63b8ff" points="178.99,-138.58 169.73,-133.43 173.75,-143.23 178.99,-138.58"/>
</a>
</g>
</g>
<!-- Node10&#45;&gt;Node2 -->
<g id="edge13_Node000010_Node000002" class="edge">
<title>Node10&#45;&gt;Node2</title>
<g id="a_edge13_Node000010_Node000002"><a xlink:title=" ">
<path fill="none" stroke="#63b8ff" d="M276.9,-167.59C253.67,-158.7 218.65,-145.29 193.08,-135.49"/>
<polygon fill="#63b8ff" stroke="#63b8ff" points="194.42,-132.26 183.83,-131.95 191.92,-138.8 194.42,-132.26"/>
</a>
</g>
</g>
</g>
</svg>
</svg>

<style type='text/css'>
<![CDATA[
[data-mouse-over-selected='false'] { opacity: 0.7; }
[data-mouse-over-selected='true']  { opacity: 1.0; }
]]>
</style>
<script type="application/ecmascript"><![CDATA[
document.addEventListener('DOMContentLoaded', (event) => {
  highlightEdges();
  highlightAdjacentNodes();
});
]]></script>
</svg>
