<?xml version="1.0" encoding="UTF-8" standalone="no"?>
<!DOCTYPE svg PUBLIC "-//W3C//DTD SVG 1.1//EN"
 "http://www.w3.org/Graphics/SVG/1.1/DTD/svg11.dtd">
<!-- Generated by graphviz version 13.1.2 (20250808.2320)
 -->
<!-- Title: makeMove Pages: 1 -->
<!--zoomable 437 -->

<svg id="main" version="1.1" xmlns="http://www.w3.org/2000/svg" xmlns:xlink="http://www.w3.org/1999/xlink" xml:space="preserve" onload="init(evt)">

<style type="text/css"><![CDATA[
.node, .edge {opacity: 0.7;}
.node.selected, .edge.selected {opacity: 1;}
.edge:hover path { stroke: red; }
.edge:hover polygon { stroke: red; fill: red; }
]]></style>

<defs>
  <circle id="rim" cx="0" cy="0" r="7"/>
  <circle id="rim2" cx="0" cy="0" r="3.5"/>
  <g id="zoomPlus">
    <use xlink:href="#rim" fill="#404040"><set attributeName="fill" to="#808080" begin="zoomplus.mouseover" end="zoomplus.mouseout"/></use>
    <path d="M-4,0h8M0,-4v8" fill="none" stroke="white" stroke-width="1.5" pointer-events="none"/>
  </g>
  <g id="zoomMin">
    <use xlink:href="#rim" fill="#404040"><set attributeName="fill" to="#808080" begin="zoomminus.mouseover" end="zoomminus.mouseout"/></use>
    <path d="M-4,0h8" fill="none" stroke="white" stroke-width="1.5" pointer-events="none"/>
  </g>
  <g id="arrowUp" transform="translate(30 24)">
    <use xlink:href="#rim"/>
    <path pointer-events="none" fill="none" stroke="white" stroke-width="1.5" d="M0,-3.0v7 M-2.5,-0.5L0,-3.0L2.5,-0.5"/>
  </g>
  <g id="arrowRight" transform="rotate(90) translate(36 -43)">
    <use xlink:href="#rim"/>
    <path pointer-events="none" fill="none" stroke="white" stroke-width="1.5" d="M0,-3.0v7 M-2.5,-0.5L0,-3.0L2.5,-0.5"/>
  </g>
  <g id="arrowDown" transform="rotate(180) translate(-30 -48)">
    <use xlink:href="#rim"/>
    <path pointer-events="none" fill="none" stroke="white" stroke-width="1.5" d="M0,-3.0v7 M-2.5,-0.5L0,-3.0L2.5,-0.5"/>
  </g>
  <g id="arrowLeft" transform="rotate(270) translate(-36 17)">
    <use xlink:href="#rim"/>
    <path pointer-events="none" fill="none" stroke="white" stroke-width="1.5" d="M0,-3.0v7 M-2.5,-0.5L0,-3.0L2.5,-0.5"/>
  </g>
  <g id="resetDef">
    <use xlink:href="#rim2" fill="#404040"><set attributeName="fill" to="#808080" begin="reset.mouseover" end="reset.mouseout"/></use>
  </g>
</defs>
<script type="application/ecmascript">
var viewWidth = 691;
var viewHeight = 437;
var sectionId = 'dynsection-2';
</script>
<script type="application/ecmascript" xlink:href="svg.min.js"/>
<svg id="graph" class="graph">
<g id="viewport">
<title>makeMove</title>
<!-- Node1 -->
<g id="Node000001" class="node">
<title>Node1</title>
<g id="a_Node000001"><a xlink:title="Make a move; returns non&#45;zero if legal (king not left in check).">
<polygon fill="#999999" stroke="#666666" points="64,-286 0,-286 0,-266 64,-266 64,-286"/>
<text xml:space="preserve" text-anchor="middle" x="32" y="-272.5" font-family="Helvetica,sans-Serif" font-size="10.00">makeMove</text>
</a>
</g>
</g>
<!-- Node2 -->
<g id="Node000002" class="node">
<title>Node2</title>
<g id="a_Node000002"><a xlink:href="make__move_8cpp.html#a6ac5b01b46acf941303b6ff4505889b4" target="_top" xlink:title=" ">
<polygon fill="white" stroke="#666666" points="270.38,-400 212.38,-400 212.38,-380 270.38,-380 270.38,-400"/>
<text xml:space="preserve" text-anchor="middle" x="241.38" y="-386.5" font-family="Helvetica,sans-Serif" font-size="10.00">AddPiece</text>
</a>
</g>
</g>
<!-- Node1&#45;&gt;Node2 -->
<g id="edge1_Node000001_Node000002" class="edge">
<title>Node1&#45;&gt;Node2</title>
<g id="a_edge1_Node000001_Node000002"><a xlink:title=" ">
<path fill="none" stroke="#63b8ff" d="M37,-286.44C45.31,-306.6 66.53,-350.68 100,-371 130.34,-389.42 171.1,-393.11 200.87,-392.82"/>
<polygon fill="#63b8ff" stroke="#63b8ff" points="200.68,-396.33 210.59,-392.56 200.5,-389.33 200.68,-396.33"/>
</a>
</g>
</g>
<!-- Node3 -->
<g id="Node000003" class="node">
<title>Node3</title>
<g id="a_Node000003"><a xlink:href="validate_8cpp.html#aca205110cd18879d0e0a965dee34b776" target="_top" xlink:title="Checks if the given piece code is a valid piece (non&#45;empty).">
<polygon fill="white" stroke="#666666" points="413.88,-362 343.12,-362 343.12,-342 413.88,-342 413.88,-362"/>
<text xml:space="preserve" text-anchor="middle" x="378.5" y="-348.5" font-family="Helvetica,sans-Serif" font-size="10.00">pieceValueid</text>
</a>
</g>
</g>
<!-- Node1&#45;&gt;Node3 -->
<g id="edge25_Node000001_Node000003" class="edge">
<title>Node1&#45;&gt;Node3</title>
<g id="a_edge25_Node000001_Node000003"><a xlink:title=" ">
<path fill="none" stroke="#63b8ff" d="M35.51,-286.38C41.82,-310.04 60.73,-368 100,-395 169.04,-442.47 207.56,-432.44 288,-409 314.41,-401.3 340.47,-383.19 357.59,-369.43"/>
<polygon fill="#63b8ff" stroke="#63b8ff" points="359.52,-372.38 364.97,-363.3 355.04,-367 359.52,-372.38"/>
</a>
</g>
</g>
<!-- Node4 -->
<g id="Node000004" class="node">
<title>Node4</title>
<g id="a_Node000004"><a xlink:href="validate_8cpp.html#ad7a2e012bffa6db3df97e7742c9d731d" target="_top" xlink:title="Checks if the given side identifier is valid.">
<polygon fill="white" stroke="#666666" points="406.75,-286 350.25,-286 350.25,-266 406.75,-266 406.75,-286"/>
<text xml:space="preserve" text-anchor="middle" x="378.5" y="-272.5" font-family="Helvetica,sans-Serif" font-size="10.00">SideValid</text>
</a>
</g>
</g>
<!-- Node1&#45;&gt;Node4 -->
<g id="edge26_Node000001_Node000004" class="edge">
<title>Node1&#45;&gt;Node4</title>
<g id="a_edge26_Node000001_Node000004"><a xlink:title=" ">
<path fill="none" stroke="#63b8ff" d="M64.46,-270.04C112.66,-261.73 207.65,-248.56 288,-257 304.91,-258.77 323.32,-262.39 339.03,-265.99"/>
<polygon fill="#63b8ff" stroke="#63b8ff" points="337.91,-269.32 348.45,-268.23 339.53,-262.51 337.91,-269.32"/>
</a>
</g>
</g>
<!-- Node5 -->
<g id="Node000005" class="node">
<title>Node5</title>
<g id="a_Node000005"><a xlink:href="validate_8cpp.html#ad5a569564ef016ed02a4fef23d89d9c4" target="_top" xlink:title="Checks if a given square index refers to a valid on&#45;board square.">
<polygon fill="white" stroke="#666666" points="682.5,-229 616.25,-229 616.25,-209 682.5,-209 682.5,-229"/>
<text xml:space="preserve" text-anchor="middle" x="649.38" y="-215.5" font-family="Helvetica,sans-Serif" font-size="10.00">SqOnBoard</text>
</a>
</g>
</g>
<!-- Node1&#45;&gt;Node5 -->
<g id="edge27_Node000001_Node000005" class="edge">
<title>Node1&#45;&gt;Node5</title>
<g id="a_edge27_Node000001_Node000005"><a xlink:title=" ">
<path fill="none" stroke="#63b8ff" d="M39.87,-265.55C63.36,-231.21 144.4,-124 240.38,-124 240.38,-124 240.38,-124 379.5,-124 469.12,-124 500.23,-102.64 580.25,-143 604.98,-155.47 624.91,-181.05 636.68,-199.08"/>
<polygon fill="#63b8ff" stroke="#63b8ff" points="633.59,-200.74 641.84,-207.38 639.53,-197.04 633.59,-200.74"/>
</a>
</g>
</g>
<!-- Node6 -->
<g id="Node000006" class="node">
<title>Node6</title>
<g id="a_Node000006"><a xlink:href="make__move_8cpp.html#a7638b740f3b9301ec3ef126abaeef83e" target="_top" xlink:title=" ">
<polygon fill="white" stroke="#666666" points="273.38,-286 209.38,-286 209.38,-266 273.38,-266 273.38,-286"/>
<text xml:space="preserve" text-anchor="middle" x="241.38" y="-272.5" font-family="Helvetica,sans-Serif" font-size="10.00">ClearPiece</text>
</a>
</g>
</g>
<!-- Node1&#45;&gt;Node6 -->
<g id="edge5_Node000001_Node000006" class="edge">
<title>Node1&#45;&gt;Node6</title>
<g id="a_edge5_Node000001_Node000006"><a xlink:title=" ">
<path fill="none" stroke="#63b8ff" d="M64.5,-276C100,-276 157.92,-276 197.52,-276"/>
<polygon fill="#63b8ff" stroke="#63b8ff" points="197.41,-279.5 207.41,-276 197.41,-272.5 197.41,-279.5"/>
</a>
</g>
</g>
<!-- Node7 -->
<g id="Node000007" class="node">
<title>Node7</title>
<g id="a_Node000007"><a xlink:href="board_8cpp.html#a27f071824f45c724e8ddd02c72b39871" target="_top" xlink:title="Performs a full internal consistency check of the board state.">
<polygon fill="white" stroke="#666666" points="425.12,-191 331.88,-191 331.88,-171 425.12,-171 425.12,-191"/>
<text xml:space="preserve" text-anchor="middle" x="378.5" y="-177.5" font-family="Helvetica,sans-Serif" font-size="10.00">isBoardStateValid</text>
</a>
</g>
</g>
<!-- Node1&#45;&gt;Node7 -->
<g id="edge14_Node000001_Node000007" class="edge">
<title>Node1&#45;&gt;Node7</title>
<g id="a_edge14_Node000001_Node000007"><a xlink:title=" ">
<path fill="none" stroke="#63b8ff" d="M51.26,-265.72C80.55,-249.74 140.27,-219.19 194.75,-204 235.89,-192.53 283.84,-186.77 320.3,-183.88"/>
<polygon fill="#63b8ff" stroke="#63b8ff" points="320.48,-187.37 330.2,-183.15 319.97,-180.39 320.48,-187.37"/>
</a>
</g>
</g>
<!-- Node10 -->
<g id="Node000010" class="node">
<title>Node10</title>
<g id="a_Node000010"><a xlink:href="attack_8cpp.html#a36ea46ff61e0738a61f70dcf90b5178b" target="_top" xlink:title="Determines if a given square is attacked by a given side.">
<polygon fill="white" stroke="#666666" points="288,-96 194.75,-96 194.75,-76 288,-76 288,-96"/>
<text xml:space="preserve" text-anchor="middle" x="241.38" y="-82.5" font-family="Helvetica,sans-Serif" font-size="10.00">isSquareAttacked</text>
</a>
</g>
</g>
<!-- Node1&#45;&gt;Node10 -->
<g id="edge15_Node000001_Node000010" class="edge">
<title>Node1&#45;&gt;Node10</title>
<g id="a_edge15_Node000001_Node000010"><a xlink:title=" ">
<path fill="none" stroke="#63b8ff" d="M33.79,-265.81C36.65,-236.42 49.18,-150.95 100,-110 123.1,-91.39 155.37,-84.95 183.16,-83.36"/>
<polygon fill="#63b8ff" stroke="#63b8ff" points="182.97,-86.87 192.83,-83.02 182.72,-79.88 182.97,-86.87"/>
</a>
</g>
</g>
<!-- Node13 -->
<g id="Node000013" class="node">
<title>Node13</title>
<g id="a_Node000013"><a xlink:href="make__move_8cpp.html#ad096f1812d822251b98ffbc3894bc1d5" target="_top" xlink:title=" ">
<polygon fill="white" stroke="#666666" points="273.75,-324 209,-324 209,-304 273.75,-304 273.75,-324"/>
<text xml:space="preserve" text-anchor="middle" x="241.38" y="-310.5" font-family="Helvetica,sans-Serif" font-size="10.00">MovePiece</text>
</a>
</g>
</g>
<!-- Node1&#45;&gt;Node13 -->
<g id="edge21_Node000001_Node000013" class="edge">
<title>Node1&#45;&gt;Node13</title>
<g id="a_edge21_Node000001_Node000013"><a xlink:title=" ">
<path fill="none" stroke="#63b8ff" d="M64.31,-282.79C75.55,-285.16 88.33,-287.78 100,-290 132.52,-296.18 169.42,-302.46 197.22,-307.04"/>
<polygon fill="#63b8ff" stroke="#63b8ff" points="196.61,-310.49 207.04,-308.65 197.74,-303.58 196.61,-310.49"/>
</a>
</g>
</g>
<!-- Node14 -->
<g id="Node000014" class="node">
<title>Node14</title>
<g id="a_Node000014"><a xlink:href="make__move_8cpp.html#aa9576282fc64517514da4a21518ae4d7" target="_top" xlink:title="Undo the last made move.">
<polygon fill="white" stroke="#666666" points="158.75,-362 100,-362 100,-342 158.75,-342 158.75,-362"/>
<text xml:space="preserve" text-anchor="middle" x="129.38" y="-348.5" font-family="Helvetica,sans-Serif" font-size="10.00">takeMove</text>
</a>
</g>
</g>
<!-- Node1&#45;&gt;Node14 -->
<g id="edge28_Node000001_Node000014" class="edge">
<title>Node1&#45;&gt;Node14</title>
<g id="a_edge28_Node000001_Node000014"><a xlink:title=" ">
<path fill="none" stroke="#63b8ff" d="M45.86,-286.25C61.43,-298.66 87.9,-319.75 106.66,-334.69"/>
<polygon fill="#63b8ff" stroke="#63b8ff" points="104.23,-337.23 114.23,-340.73 108.59,-331.76 104.23,-337.23"/>
</a>
</g>
</g>
<!-- Node2&#45;&gt;Node3 -->
<g id="edge2_Node000002_Node000003" class="edge">
<title>Node2&#45;&gt;Node3</title>
<g id="a_edge2_Node000002_Node000003"><a xlink:title=" ">
<path fill="none" stroke="#63b8ff" d="M270.7,-382.03C288.46,-377.04 311.76,-370.49 332.06,-364.78"/>
<polygon fill="#63b8ff" stroke="#63b8ff" points="332.84,-368.2 341.52,-362.12 330.94,-361.46 332.84,-368.2"/>
</a>
</g>
</g>
<!-- Node2&#45;&gt;Node4 -->
<g id="edge3_Node000002_Node000004" class="edge">
<title>Node2&#45;&gt;Node4</title>
<g id="a_edge3_Node000002_Node000004"><a xlink:title=" ">
<path fill="none" stroke="#63b8ff" d="M254.37,-379.88C277.45,-360.41 328.29,-317.52 356.9,-293.38"/>
<polygon fill="#63b8ff" stroke="#63b8ff" points="358.8,-296.36 364.18,-287.23 354.28,-291.01 358.8,-296.36"/>
</a>
</g>
</g>
<!-- Node2&#45;&gt;Node5 -->
<g id="edge4_Node000002_Node000005" class="edge">
<title>Node2&#45;&gt;Node5</title>
<g id="a_edge4_Node000002_Node000005"><a xlink:title=" ">
<path fill="none" stroke="#63b8ff" d="M270.68,-391.14C308.67,-391.79 377.76,-389.85 433,-371 516.45,-342.52 596.29,-270.81 630.68,-237.07"/>
<polygon fill="#63b8ff" stroke="#63b8ff" points="632.73,-239.97 637.34,-230.43 627.79,-235.01 632.73,-239.97"/>
</a>
</g>
</g>
<!-- Node6&#45;&gt;Node3 -->
<g id="edge11_Node000006_Node000003" class="edge">
<title>Node6&#45;&gt;Node3</title>
<g id="a_edge11_Node000006_Node000003"><a xlink:title=" ">
<path fill="none" stroke="#63b8ff" d="M269.75,-286.5C275.85,-289.08 282.22,-291.98 288,-295 311.29,-307.15 336.4,-323.45 354.08,-335.51"/>
<polygon fill="#63b8ff" stroke="#63b8ff" points="351.61,-338.06 361.83,-340.85 355.59,-332.29 351.61,-338.06"/>
</a>
</g>
</g>
<!-- Node6&#45;&gt;Node4 -->
<g id="edge12_Node000006_Node000004" class="edge">
<title>Node6&#45;&gt;Node4</title>
<g id="a_edge12_Node000006_Node000004"><a xlink:title=" ">
<path fill="none" stroke="#63b8ff" d="M273.72,-276C293.1,-276 318.12,-276 338.75,-276"/>
<polygon fill="#63b8ff" stroke="#63b8ff" points="338.48,-279.5 348.48,-276 338.48,-272.5 338.48,-279.5"/>
</a>
</g>
</g>
<!-- Node6&#45;&gt;Node5 -->
<g id="edge13_Node000006_Node000005" class="edge">
<title>Node6&#45;&gt;Node5</title>
<g id="a_edge13_Node000006_Node000005"><a xlink:title=" ">
<path fill="none" stroke="#63b8ff" d="M273.6,-267.87C288.74,-264.14 307.23,-259.92 324,-257 423.7,-239.61 542.07,-228 604.6,-222.56"/>
<polygon fill="#63b8ff" stroke="#63b8ff" points="604.8,-226.05 614.47,-221.71 604.2,-219.08 604.8,-226.05"/>
</a>
</g>
</g>
<!-- Node6&#45;&gt;Node7 -->
<g id="edge6_Node000006_Node000007" class="edge">
<title>Node6&#45;&gt;Node7</title>
<g id="a_edge6_Node000006_Node000007"><a xlink:title=" ">
<path fill="none" stroke="#63b8ff" d="M257.09,-265.65C280.34,-249.31 325.79,-217.35 353.72,-197.72"/>
<polygon fill="#63b8ff" stroke="#63b8ff" points="355.39,-200.82 361.56,-192.21 351.37,-195.09 355.39,-200.82"/>
</a>
</g>
</g>
<!-- Node8 -->
<g id="Node000008" class="node">
<title>Node8</title>
<g id="a_Node000008"><a xlink:href="hash__keys_8cpp.html#a8c1832e1dfd853cce944ddd2df57dd53" target="_top" xlink:title="Generates a Zobrist hash key for the given board position.">
<polygon fill="white" stroke="#666666" points="580.25,-210 469,-210 469,-190 580.25,-190 580.25,-210"/>
<text xml:space="preserve" text-anchor="middle" x="524.62" y="-196.5" font-family="Helvetica,sans-Serif" font-size="10.00">generatePositionKeys</text>
</a>
</g>
</g>
<!-- Node7&#45;&gt;Node8 -->
<g id="edge7_Node000007_Node000008" class="edge">
<title>Node7&#45;&gt;Node8</title>
<g id="a_edge7_Node000007_Node000008"><a xlink:title=" ">
<path fill="none" stroke="#63b8ff" d="M425.5,-187.06C435.71,-188.41 446.73,-189.86 457.56,-191.29"/>
<polygon fill="#63b8ff" stroke="#63b8ff" points="456.87,-194.73 467.25,-192.57 457.79,-187.79 456.87,-194.73"/>
</a>
</g>
</g>
<!-- Node9 -->
<g id="Node000009" class="node">
<title>Node9</title>
<g id="a_Node000009"><a xlink:href="board_8cpp.html#addbaf4fbab51f8032e0e7aabbffeab96" target="_top" xlink:title="Validate that piece list array is consistent with board state.">
<polygon fill="white" stroke="#666666" points="567.12,-172 482.12,-172 482.12,-152 567.12,-152 567.12,-172"/>
<text xml:space="preserve" text-anchor="middle" x="524.62" y="-158.5" font-family="Helvetica,sans-Serif" font-size="10.00">isPieceListValid</text>
</a>
</g>
</g>
<!-- Node7&#45;&gt;Node9 -->
<g id="edge9_Node000007_Node000009" class="edge">
<title>Node7&#45;&gt;Node9</title>
<g id="a_edge9_Node000007_Node000009"><a xlink:title=" ">
<path fill="none" stroke="#63b8ff" d="M425.5,-174.94C439.94,-173.03 456,-170.92 470.87,-168.95"/>
<polygon fill="#63b8ff" stroke="#63b8ff" points="471.01,-172.47 480.46,-167.69 470.09,-165.53 471.01,-172.47"/>
</a>
</g>
</g>
<!-- Node8&#45;&gt;Node5 -->
<g id="edge8_Node000008_Node000005" class="edge">
<title>Node8&#45;&gt;Node5</title>
<g id="a_edge8_Node000008_Node000005"><a xlink:title=" ">
<path fill="none" stroke="#63b8ff" d="M580.54,-208.5C588.69,-209.76 596.99,-211.05 604.86,-212.26"/>
<polygon fill="#63b8ff" stroke="#63b8ff" points="604.11,-215.69 614.53,-213.76 605.18,-208.77 604.11,-215.69"/>
</a>
</g>
</g>
<!-- Node9&#45;&gt;Node5 -->
<g id="edge10_Node000009_Node000005" class="edge">
<title>Node9&#45;&gt;Node5</title>
<g id="a_edge10_Node000009_Node000005"><a xlink:title=" ">
<path fill="none" stroke="#63b8ff" d="M558.63,-172.44C565.85,-175.01 573.38,-177.92 580.25,-181 594.44,-187.37 609.61,-195.67 622.02,-202.89"/>
<polygon fill="#63b8ff" stroke="#63b8ff" points="620.03,-205.78 630.42,-207.86 623.6,-199.75 620.03,-205.78"/>
</a>
</g>
</g>
<!-- Node10&#45;&gt;Node4 -->
<g id="edge18_Node000010_Node000004" class="edge">
<title>Node10&#45;&gt;Node4</title>
<g id="a_edge18_Node000010_Node000004"><a xlink:title=" ">
<path fill="none" stroke="#63b8ff" d="M249.83,-96.49C271.62,-127.12 335.39,-216.79 363.7,-256.59"/>
<polygon fill="#63b8ff" stroke="#63b8ff" points="360.71,-258.42 369.35,-264.55 366.41,-254.37 360.71,-258.42"/>
</a>
</g>
</g>
<!-- Node10&#45;&gt;Node5 -->
<g id="edge20_Node000010_Node000005" class="edge">
<title>Node10&#45;&gt;Node5</title>
<g id="a_edge20_Node000010_Node000005"><a xlink:title=" ">
<path fill="none" stroke="#63b8ff" d="M288.33,-76.94C357.18,-65.91 488.79,-54.98 580.25,-110 613.1,-129.76 632.54,-172.09 641.77,-197.79"/>
<polygon fill="#63b8ff" stroke="#63b8ff" points="638.42,-198.8 644.92,-207.16 645.06,-196.57 638.42,-198.8"/>
</a>
</g>
</g>
<!-- Node10&#45;&gt;Node7 -->
<g id="edge16_Node000010_Node000007" class="edge">
<title>Node10&#45;&gt;Node7</title>
<g id="a_edge16_Node000010_Node000007"><a xlink:title=" ">
<path fill="none" stroke="#63b8ff" d="M257.09,-96.35C280.34,-112.69 325.79,-144.65 353.72,-164.28"/>
<polygon fill="#63b8ff" stroke="#63b8ff" points="351.37,-166.91 361.56,-169.79 355.39,-161.18 351.37,-166.91"/>
</a>
</g>
</g>
<!-- Node11 -->
<g id="Node000011" class="node">
<title>Node11</title>
<g id="a_Node000011"><a xlink:href="validate_8cpp.html#aac5a1baab60b7b72d85de73be258f91b" target="_top" xlink:title="Checks if the given piece code is empty, valid, or OFFBOARD.">
<polygon fill="white" stroke="#666666" points="433,-20 324,-20 324,0 433,0 433,-20"/>
<text xml:space="preserve" text-anchor="middle" x="378.5" y="-6.5" font-family="Helvetica,sans-Serif" font-size="10.00">PceValidEmptyOffbrd</text>
</a>
</g>
</g>
<!-- Node10&#45;&gt;Node11 -->
<g id="edge17_Node000010_Node000011" class="edge">
<title>Node10&#45;&gt;Node11</title>
<g id="a_edge17_Node000010_Node000011"><a xlink:title=" ">
<path fill="none" stroke="#63b8ff" d="M254.98,-75.58C270.45,-63.17 297.88,-42.45 324,-29 327.01,-27.45 330.18,-25.97 333.41,-24.58"/>
<polygon fill="#63b8ff" stroke="#63b8ff" points="334.43,-27.94 342.41,-20.97 331.82,-21.44 334.43,-27.94"/>
</a>
</g>
</g>
<!-- Node12 -->
<g id="Node000012" class="node">
<title>Node12</title>
<g id="a_Node000012"><a xlink:href="validate_8cpp.html#a48b5f0e20cf731ceeeb659fbc27b972c" target="_top" xlink:title="Checks if a given square index is within the 120&#45;based range.">
<polygon fill="white" stroke="#666666" points="404.5,-58 352.5,-58 352.5,-38 404.5,-38 404.5,-58"/>
<text xml:space="preserve" text-anchor="middle" x="378.5" y="-44.5" font-family="Helvetica,sans-Serif" font-size="10.00">SqIs120</text>
</a>
</g>
</g>
<!-- Node10&#45;&gt;Node12 -->
<g id="edge19_Node000010_Node000012" class="edge">
<title>Node10&#45;&gt;Node12</title>
<g id="a_edge19_Node000010_Node000012"><a xlink:title=" ">
<path fill="none" stroke="#63b8ff" d="M279.66,-75.52C298.9,-70.11 322.26,-63.53 341.34,-58.17"/>
<polygon fill="#63b8ff" stroke="#63b8ff" points="342.16,-61.57 350.84,-55.5 340.27,-54.84 342.16,-61.57"/>
</a>
</g>
</g>
<!-- Node13&#45;&gt;Node3 -->
<g id="edge22_Node000013_Node000003" class="edge">
<title>Node13&#45;&gt;Node3</title>
<g id="a_edge22_Node000013_Node000003"><a xlink:title=" ">
<path fill="none" stroke="#63b8ff" d="M274.06,-322.91C291.27,-327.75 312.86,-333.82 331.86,-339.17"/>
<polygon fill="#63b8ff" stroke="#63b8ff" points="330.67,-342.46 341.24,-341.8 332.56,-335.73 330.67,-342.46"/>
</a>
</g>
</g>
<!-- Node13&#45;&gt;Node4 -->
<g id="edge23_Node000013_Node000004" class="edge">
<title>Node13&#45;&gt;Node4</title>
<g id="a_edge23_Node000013_Node000004"><a xlink:title=" ">
<path fill="none" stroke="#63b8ff" d="M274.06,-305.09C293.54,-299.61 318.63,-292.56 339.22,-286.77"/>
<polygon fill="#63b8ff" stroke="#63b8ff" points="339.99,-290.18 348.67,-284.11 338.1,-283.44 339.99,-290.18"/>
</a>
</g>
</g>
<!-- Node13&#45;&gt;Node5 -->
<g id="edge24_Node000013_Node000005" class="edge">
<title>Node13&#45;&gt;Node5</title>
<g id="a_edge24_Node000013_Node000005"><a xlink:title=" ">
<path fill="none" stroke="#63b8ff" d="M274.09,-313.05C312.2,-311.4 377.9,-306.94 433,-295 500.55,-280.37 515.23,-268.44 580.25,-245 590.31,-241.37 601.14,-237.31 611.15,-233.49"/>
<polygon fill="#63b8ff" stroke="#63b8ff" points="612.11,-236.87 620.19,-230.02 609.6,-230.34 612.11,-236.87"/>
</a>
</g>
</g>
<!-- Node14&#45;&gt;Node2 -->
<g id="edge29_Node000014_Node000002" class="edge">
<title>Node14&#45;&gt;Node2</title>
<g id="a_edge29_Node000014_Node000002"><a xlink:title=" ">
<path fill="none" stroke="#63b8ff" d="M158.99,-361.88C171.85,-366.33 187.23,-371.64 201.14,-376.45"/>
<polygon fill="#63b8ff" stroke="#63b8ff" points="199.88,-379.71 210.47,-379.67 202.16,-373.1 199.88,-379.71"/>
</a>
</g>
</g>
<!-- Node14&#45;&gt;Node3 -->
<g id="edge33_Node000014_Node000003" class="edge">
<title>Node14&#45;&gt;Node3</title>
<g id="a_edge33_Node000014_Node000003"><a xlink:title=" ">
<path fill="none" stroke="#63b8ff" d="M159.21,-352C201.61,-352 281.22,-352 331.68,-352"/>
<polygon fill="#63b8ff" stroke="#63b8ff" points="331.4,-355.5 341.4,-352 331.4,-348.5 331.4,-355.5"/>
</a>
</g>
</g>
<!-- Node14&#45;&gt;Node5 -->
<g id="edge34_Node000014_Node000005" class="edge">
<title>Node14&#45;&gt;Node5</title>
<g id="a_edge34_Node000014_Node000005"><a xlink:title=" ">
<path fill="none" stroke="#63b8ff" d="M138.11,-362.49C148.97,-376.24 170.18,-399.69 194.75,-409 233.26,-423.6 432.37,-395.16 433,-395 501.85,-377.61 526.65,-379.57 580.25,-333 610,-307.15 630.39,-265 640.66,-239.84"/>
<polygon fill="#63b8ff" stroke="#63b8ff" points="643.85,-241.29 644.23,-230.7 637.33,-238.75 643.85,-241.29"/>
</a>
</g>
</g>
<!-- Node14&#45;&gt;Node6 -->
<g id="edge30_Node000014_Node000006" class="edge">
<title>Node14&#45;&gt;Node6</title>
<g id="a_edge30_Node000014_Node000006"><a xlink:title=" ">
<path fill="none" stroke="#63b8ff" d="M140.01,-341.59C151.91,-329.19 173.24,-308.47 194.75,-295 196.74,-293.75 198.82,-292.56 200.96,-291.41"/>
<polygon fill="#63b8ff" stroke="#63b8ff" points="202.34,-294.63 209.82,-287.12 199.29,-288.33 202.34,-294.63"/>
</a>
</g>
</g>
<!-- Node14&#45;&gt;Node7 -->
<g id="edge31_Node000014_Node000007" class="edge">
<title>Node14&#45;&gt;Node7</title>
<g id="a_edge31_Node000014_Node000007"><a xlink:title=" ">
<path fill="none" stroke="#63b8ff" d="M134.88,-341.69C143.72,-322.53 165.12,-281.19 194.75,-257 232.46,-226.21 284.41,-206.22 323.28,-194.51"/>
<polygon fill="#63b8ff" stroke="#63b8ff" points="323.8,-198.01 332.42,-191.85 321.84,-191.29 323.8,-198.01"/>
</a>
</g>
</g>
<!-- Node14&#45;&gt;Node13 -->
<g id="edge32_Node000014_Node000013" class="edge">
<title>Node14&#45;&gt;Node13</title>
<g id="a_edge32_Node000014_Node000013"><a xlink:title=" ">
<path fill="none" stroke="#63b8ff" d="M158.99,-342.12C171.45,-337.81 186.27,-332.69 199.83,-328.01"/>
<polygon fill="#63b8ff" stroke="#63b8ff" points="200.63,-331.43 208.94,-324.86 198.34,-324.82 200.63,-331.43"/>
</a>
</g>
</g>
</g>
</svg>

<g id="navigator" transform="translate(0 0)" fill="#404254">
  <rect fill="#f2f5e9" fill-opacity="0.5" stroke="#606060" stroke-width=".5" x="0" y="0" width="60" height="60"/>
  <use id="zoomplus" xlink:href="#zoomPlus" x="17" y="9" onmousedown="handleZoom(evt,'in')"/>
  <use id="zoomminus" xlink:href="#zoomMin" x="42" y="9" onmousedown="handleZoom(evt,'out')"/>
  <use id="reset" xlink:href="#resetDef" x="30" y="36" onmousedown="handleReset()"/>
   <use id="arrowup" xlink:href="#arrowUp" x="0" y="0" onmousedown="handlePan(0,-1)"/>
  <use id="arrowright" xlink:href="#arrowRight" x="0" y="0" onmousedown="handlePan(1,0)"/>
  <use id="arrowdown" xlink:href="#arrowDown" x="0" y="0" onmousedown="handlePan(0,1)"/>
  <use id="arrowleft" xlink:href="#arrowLeft" x="0" y="0" onmousedown="handlePan(-1,0)"/>
</g>
<svg viewBox="0 0 15 15" width="100%" height="30px" preserveAspectRatio="xMaxYMin meet">
 <g id="arrow_out" transform="scale(0.3 0.3)">
  <a xlink:href="make__move_8h_a5ce154c48c65b8b5fb3dcf87699465a3_cgraph_org.svg" target="_base">
   <rect id="button" ry="5" rx="5" y="6" x="6" height="38" width="38"
        fill="#f2f5e9" fill-opacity="0.5" stroke="#606060" stroke-width="1.0"/>
   <path id="arrow"
     d="M 11.500037,31.436501 C 11.940474,20.09759 22.043105,11.32322 32.158766,21.979434 L 37.068811,17.246167 C 37.068811,17.246167 37.088388,32 37.088388,32 L 22.160133,31.978069 C 22.160133,31.978069 26.997745,27.140456 26.997745,27.140456 C 18.528582,18.264221 13.291696,25.230495 11.500037,31.436501 z"
     style="fill:#404040;"/>
  </a>
 </g>
</svg>

<style type='text/css'>
<![CDATA[
[data-mouse-over-selected='false'] { opacity: 0.7; }
[data-mouse-over-selected='true']  { opacity: 1.0; }
]]>
</style>
<script type="application/ecmascript"><![CDATA[
document.addEventListener('DOMContentLoaded', (event) => {
  highlightEdges();
  highlightAdjacentNodes();
});
]]></script>
</svg>
