<?xml version="1.0" encoding="UTF-8" standalone="no"?>
<!DOCTYPE svg PUBLIC "-//W3C//DTD SVG 1.1//EN"
 "http://www.w3.org/Graphics/SVG/1.1/DTD/svg11.dtd">
<!-- Generated by graphviz version 13.1.2 (20250808.2320)
 -->
<!-- Title: ClearPiece Pages: 1 -->
<svg width="451pt" height="180pt"
 viewBox="0.00 0.00 451.00 180.00" xmlns="http://www.w3.org/2000/svg" xmlns:xlink="http://www.w3.org/1999/xlink">
<g id="graph0" class="graph" transform="scale(1 1) rotate(0) translate(4 176)">
<title>ClearPiece</title>
<!-- Node1 -->
<g id="Node000001" class="node">
<title>Node1</title>
<g id="a_Node000001"><a xlink:title=" ">
<polygon fill="#999999" stroke="#666666" points="64,-77 0,-77 0,-57 64,-57 64,-77"/>
<text xml:space="preserve" text-anchor="middle" x="32" y="-63.5" font-family="Helvetica,sans-Serif" font-size="10.00">ClearPiece</text>
</a>
</g>
</g>
<!-- Node2 -->
<g id="Node000002" class="node">
<title>Node2</title>
<g id="a_Node000002"><a xlink:href="board_8cpp.html#a27f071824f45c724e8ddd02c72b39871" target="_top" xlink:title="Performs a full internal consistency check of the board state.">
<polygon fill="white" stroke="#666666" points="193.25,-134 100,-134 100,-114 193.25,-114 193.25,-134"/>
<text xml:space="preserve" text-anchor="middle" x="146.62" y="-120.5" font-family="Helvetica,sans-Serif" font-size="10.00">isBoardStateValid</text>
</a>
</g>
</g>
<!-- Node1&#45;&gt;Node2 -->
<g id="edge1_Node000001_Node000002" class="edge">
<title>Node1&#45;&gt;Node2</title>
<g id="a_edge1_Node000001_Node000002"><a xlink:title=" ">
<path fill="none" stroke="#63b8ff" d="M53.66,-77.45C70.8,-86.13 95.44,-98.6 114.9,-108.45"/>
<polygon fill="#63b8ff" stroke="#63b8ff" points="113.25,-111.54 123.75,-112.93 116.41,-105.29 113.25,-111.54"/>
</a>
</g>
</g>
<!-- Node4 -->
<g id="Node000004" class="node">
<title>Node4</title>
<g id="a_Node000004"><a xlink:href="validate_8cpp.html#ad5a569564ef016ed02a4fef23d89d9c4" target="_top" xlink:title="Checks if a given square index refers to a valid on&#45;board square.">
<polygon fill="white" stroke="#666666" points="442.75,-134 376.5,-134 376.5,-114 442.75,-114 442.75,-134"/>
<text xml:space="preserve" text-anchor="middle" x="409.62" y="-120.5" font-family="Helvetica,sans-Serif" font-size="10.00">SqOnBoard</text>
</a>
</g>
</g>
<!-- Node1&#45;&gt;Node4 -->
<g id="edge8_Node000001_Node000004" class="edge">
<title>Node1&#45;&gt;Node4</title>
<g id="a_edge8_Node000001_Node000004"><a xlink:title=" ">
<path fill="none" stroke="#63b8ff" d="M64.23,-69.31C120.08,-73.79 240.55,-85 340.5,-105 348.61,-106.62 357.17,-108.71 365.38,-110.9"/>
<polygon fill="#63b8ff" stroke="#63b8ff" points="364.26,-114.22 374.83,-113.52 366.13,-107.47 364.26,-114.22"/>
</a>
</g>
</g>
<!-- Node6 -->
<g id="Node000006" class="node">
<title>Node6</title>
<g id="a_Node000006"><a xlink:href="validate_8cpp.html#aca205110cd18879d0e0a965dee34b776" target="_top" xlink:title="Checks if the given piece code is a valid piece (non&#45;empty).">
<polygon fill="white" stroke="#666666" points="182,-58 111.25,-58 111.25,-38 182,-38 182,-58"/>
<text xml:space="preserve" text-anchor="middle" x="146.62" y="-44.5" font-family="Helvetica,sans-Serif" font-size="10.00">pieceValueid</text>
</a>
</g>
</g>
<!-- Node1&#45;&gt;Node6 -->
<g id="edge6_Node000001_Node000006" class="edge">
<title>Node1&#45;&gt;Node6</title>
<g id="a_edge6_Node000001_Node000006"><a xlink:title=" ">
<path fill="none" stroke="#63b8ff" d="M64.37,-61.71C75.32,-59.86 87.85,-57.75 99.73,-55.74"/>
<polygon fill="#63b8ff" stroke="#63b8ff" points="100.09,-59.23 109.37,-54.12 98.92,-52.33 100.09,-59.23"/>
</a>
</g>
</g>
<!-- Node7 -->
<g id="Node000007" class="node">
<title>Node7</title>
<g id="a_Node000007"><a xlink:href="validate_8cpp.html#ad7a2e012bffa6db3df97e7742c9d731d" target="_top" xlink:title="Checks if the given side identifier is valid.">
<polygon fill="white" stroke="#666666" points="174.88,-20 118.38,-20 118.38,0 174.88,0 174.88,-20"/>
<text xml:space="preserve" text-anchor="middle" x="146.62" y="-6.5" font-family="Helvetica,sans-Serif" font-size="10.00">SideValid</text>
</a>
</g>
</g>
<!-- Node1&#45;&gt;Node7 -->
<g id="edge7_Node000001_Node000007" class="edge">
<title>Node1&#45;&gt;Node7</title>
<g id="a_edge7_Node000001_Node000007"><a xlink:title=" ">
<path fill="none" stroke="#63b8ff" d="M50.04,-56.57C63.4,-48.58 82.58,-37.53 100,-29 102.89,-27.59 105.91,-26.18 108.97,-24.8"/>
<polygon fill="#63b8ff" stroke="#63b8ff" points="110.15,-28.1 117.94,-20.92 107.37,-21.68 110.15,-28.1"/>
</a>
</g>
</g>
<!-- Node3 -->
<g id="Node000003" class="node">
<title>Node3</title>
<g id="a_Node000003"><a xlink:href="hash__keys_8cpp.html#a8c1832e1dfd853cce944ddd2df57dd53" target="_top" xlink:title="Generates a Zobrist hash key for the given board position.">
<polygon fill="white" stroke="#666666" points="340.5,-172 229.25,-172 229.25,-152 340.5,-152 340.5,-172"/>
<text xml:space="preserve" text-anchor="middle" x="284.88" y="-158.5" font-family="Helvetica,sans-Serif" font-size="10.00">generatePositionKeys</text>
</a>
</g>
</g>
<!-- Node2&#45;&gt;Node3 -->
<g id="edge2_Node000002_Node000003" class="edge">
<title>Node2&#45;&gt;Node3</title>
<g id="a_edge2_Node000002_Node000003"><a xlink:title=" ">
<path fill="none" stroke="#63b8ff" d="M185.22,-134.48C200.7,-138.8 218.85,-143.86 235.32,-148.46"/>
<polygon fill="#63b8ff" stroke="#63b8ff" points="234.38,-151.83 244.95,-151.14 236.26,-145.09 234.38,-151.83"/>
</a>
</g>
</g>
<!-- Node5 -->
<g id="Node000005" class="node">
<title>Node5</title>
<g id="a_Node000005"><a xlink:href="board_8cpp.html#addbaf4fbab51f8032e0e7aabbffeab96" target="_top" xlink:title="Validate that piece list array is consistent with board state.">
<polygon fill="white" stroke="#666666" points="327.38,-134 242.38,-134 242.38,-114 327.38,-114 327.38,-134"/>
<text xml:space="preserve" text-anchor="middle" x="284.88" y="-120.5" font-family="Helvetica,sans-Serif" font-size="10.00">isPieceListValid</text>
</a>
</g>
</g>
<!-- Node2&#45;&gt;Node5 -->
<g id="edge4_Node000002_Node000005" class="edge">
<title>Node2&#45;&gt;Node5</title>
<g id="a_edge4_Node000002_Node000005"><a xlink:title=" ">
<path fill="none" stroke="#63b8ff" d="M193.37,-124C205.45,-124 218.58,-124 231,-124"/>
<polygon fill="#63b8ff" stroke="#63b8ff" points="230.63,-127.5 240.63,-124 230.63,-120.5 230.63,-127.5"/>
</a>
</g>
</g>
<!-- Node3&#45;&gt;Node4 -->
<g id="edge3_Node000003_Node000004" class="edge">
<title>Node3&#45;&gt;Node4</title>
<g id="a_edge3_Node000003_Node000004"><a xlink:title=" ">
<path fill="none" stroke="#63b8ff" d="M319.74,-151.52C333.9,-147.13 350.53,-141.98 365.55,-137.34"/>
<polygon fill="#63b8ff" stroke="#63b8ff" points="366.17,-140.81 374.69,-134.5 364.1,-134.12 366.17,-140.81"/>
</a>
</g>
</g>
<!-- Node5&#45;&gt;Node4 -->
<g id="edge5_Node000005_Node000004" class="edge">
<title>Node5&#45;&gt;Node4</title>
<g id="a_edge5_Node000005_Node000004"><a xlink:title=" ">
<path fill="none" stroke="#63b8ff" d="M327.78,-124C339.78,-124 352.88,-124 364.99,-124"/>
<polygon fill="#63b8ff" stroke="#63b8ff" points="364.7,-127.5 374.7,-124 364.7,-120.5 364.7,-127.5"/>
</a>
</g>
</g>
</g>
</svg>
