<?xml version="1.0" encoding="UTF-8" standalone="no"?>
<!DOCTYPE svg PUBLIC "-//W3C//DTD SVG 1.1//EN"
 "http://www.w3.org/Graphics/SVG/1.1/DTD/svg11.dtd">
<!-- Generated by graphviz version 13.1.2 (20250808.2320)
 -->
<!-- Title: AddQuietMove Pages: 1 -->
<svg width="467pt" height="85pt"
 viewBox="0.00 0.00 467.00 85.00" xmlns="http://www.w3.org/2000/svg" xmlns:xlink="http://www.w3.org/1999/xlink">
<g id="graph0" class="graph" transform="scale(1 1) rotate(0) translate(4 81)">
<title>AddQuietMove</title>
<!-- Node1 -->
<g id="Node000001" class="node">
<title>Node1</title>
<g id="a_Node000001"><a xlink:title=" ">
<polygon fill="#999999" stroke="#666666" points="80.5,-20 0,-20 0,0 80.5,0 80.5,-20"/>
<text xml:space="preserve" text-anchor="middle" x="40.25" y="-6.5" font-family="Helvetica,sans-Serif" font-size="10.00">AddQuietMove</text>
</a>
</g>
</g>
<!-- Node2 -->
<g id="Node000002" class="node">
<title>Node2</title>
<g id="a_Node000002"><a xlink:href="board_8cpp.html#a27f071824f45c724e8ddd02c72b39871" target="_top" xlink:title="Performs a full internal consistency check of the board state.">
<polygon fill="white" stroke="#666666" points="209.75,-39 116.5,-39 116.5,-19 209.75,-19 209.75,-39"/>
<text xml:space="preserve" text-anchor="middle" x="163.12" y="-25.5" font-family="Helvetica,sans-Serif" font-size="10.00">isBoardStateValid</text>
</a>
</g>
</g>
<!-- Node1&#45;&gt;Node2 -->
<g id="edge1_Node000001_Node000002" class="edge">
<title>Node1&#45;&gt;Node2</title>
<g id="a_edge1_Node000001_Node000002"><a xlink:title=" ">
<path fill="none" stroke="#63b8ff" d="M80.83,-16.22C88.5,-17.43 96.69,-18.71 104.8,-19.99"/>
<polygon fill="#63b8ff" stroke="#63b8ff" points="104.24,-23.44 114.66,-21.54 105.33,-16.53 104.24,-23.44"/>
</a>
</g>
</g>
<!-- Node4 -->
<g id="Node000004" class="node">
<title>Node4</title>
<g id="a_Node000004"><a xlink:href="validate_8cpp.html#ad5a569564ef016ed02a4fef23d89d9c4" target="_top" xlink:title="Checks if a given square index refers to a valid on&#45;board square.">
<polygon fill="white" stroke="#666666" points="459.25,-39 393,-39 393,-19 459.25,-19 459.25,-39"/>
<text xml:space="preserve" text-anchor="middle" x="426.12" y="-25.5" font-family="Helvetica,sans-Serif" font-size="10.00">SqOnBoard</text>
</a>
</g>
</g>
<!-- Node1&#45;&gt;Node4 -->
<g id="edge6_Node000001_Node000004" class="edge">
<title>Node1&#45;&gt;Node4</title>
<g id="a_edge6_Node000001_Node000004"><a xlink:title=" ">
<path fill="none" stroke="#63b8ff" d="M80.86,-6.57C140.91,-2.15 258.42,3.49 357,-10 365.71,-11.19 374.88,-13.2 383.57,-15.48"/>
<polygon fill="#63b8ff" stroke="#63b8ff" points="382.61,-18.85 393.18,-18.18 384.5,-12.11 382.61,-18.85"/>
</a>
</g>
</g>
<!-- Node3 -->
<g id="Node000003" class="node">
<title>Node3</title>
<g id="a_Node000003"><a xlink:href="hash__keys_8cpp.html#a8c1832e1dfd853cce944ddd2df57dd53" target="_top" xlink:title="Generates a Zobrist hash key for the given board position.">
<polygon fill="white" stroke="#666666" points="357,-77 245.75,-77 245.75,-57 357,-57 357,-77"/>
<text xml:space="preserve" text-anchor="middle" x="301.38" y="-63.5" font-family="Helvetica,sans-Serif" font-size="10.00">generatePositionKeys</text>
</a>
</g>
</g>
<!-- Node2&#45;&gt;Node3 -->
<g id="edge2_Node000002_Node000003" class="edge">
<title>Node2&#45;&gt;Node3</title>
<g id="a_edge2_Node000002_Node000003"><a xlink:title=" ">
<path fill="none" stroke="#63b8ff" d="M201.72,-39.48C217.2,-43.8 235.35,-48.86 251.82,-53.46"/>
<polygon fill="#63b8ff" stroke="#63b8ff" points="250.88,-56.83 261.45,-56.14 252.76,-50.09 250.88,-56.83"/>
</a>
</g>
</g>
<!-- Node5 -->
<g id="Node000005" class="node">
<title>Node5</title>
<g id="a_Node000005"><a xlink:href="board_8cpp.html#addbaf4fbab51f8032e0e7aabbffeab96" target="_top" xlink:title="Validate that piece list array is consistent with board state.">
<polygon fill="white" stroke="#666666" points="343.88,-39 258.88,-39 258.88,-19 343.88,-19 343.88,-39"/>
<text xml:space="preserve" text-anchor="middle" x="301.38" y="-25.5" font-family="Helvetica,sans-Serif" font-size="10.00">isPieceListValid</text>
</a>
</g>
</g>
<!-- Node2&#45;&gt;Node5 -->
<g id="edge4_Node000002_Node000005" class="edge">
<title>Node2&#45;&gt;Node5</title>
<g id="a_edge4_Node000002_Node000005"><a xlink:title=" ">
<path fill="none" stroke="#63b8ff" d="M209.87,-29C221.95,-29 235.08,-29 247.5,-29"/>
<polygon fill="#63b8ff" stroke="#63b8ff" points="247.13,-32.5 257.13,-29 247.13,-25.5 247.13,-32.5"/>
</a>
</g>
</g>
<!-- Node3&#45;&gt;Node4 -->
<g id="edge3_Node000003_Node000004" class="edge">
<title>Node3&#45;&gt;Node4</title>
<g id="a_edge3_Node000003_Node000004"><a xlink:title=" ">
<path fill="none" stroke="#63b8ff" d="M336.24,-56.52C350.4,-52.13 367.03,-46.98 382.05,-42.34"/>
<polygon fill="#63b8ff" stroke="#63b8ff" points="382.67,-45.81 391.19,-39.5 380.6,-39.12 382.67,-45.81"/>
</a>
</g>
</g>
<!-- Node5&#45;&gt;Node4 -->
<g id="edge5_Node000005_Node000004" class="edge">
<title>Node5&#45;&gt;Node4</title>
<g id="a_edge5_Node000005_Node000004"><a xlink:title=" ">
<path fill="none" stroke="#63b8ff" d="M344.28,-29C356.28,-29 369.38,-29 381.49,-29"/>
<polygon fill="#63b8ff" stroke="#63b8ff" points="381.2,-32.5 391.2,-29 381.2,-25.5 381.2,-32.5"/>
</a>
</g>
</g>
</g>
</svg>
