<?xml version="1.0" encoding="UTF-8" standalone="no"?>
<!DOCTYPE svg PUBLIC "-//W3C//DTD SVG 1.1//EN"
 "http://www.w3.org/Graphics/SVG/1.1/DTD/svg11.dtd">
<!-- Generated by graphviz version 13.1.2 (20250808.2320)
 -->
<!-- Title: generateAllCaptures Pages: 1 -->
<svg width="794pt" height="370pt"
 viewBox="0.00 0.00 794.00 370.00" xmlns="http://www.w3.org/2000/svg" xmlns:xlink="http://www.w3.org/1999/xlink">
<g id="graph0" class="graph" transform="scale(1 1) rotate(0) translate(4 366.43)">
<title>generateAllCaptures</title>
<!-- Node1 -->
<g id="Node000001" class="node">
<title>Node1</title>
<g id="a_Node000001"><a xlink:title="Generate all pseudo&#45;legal capture moves (including en passant).">
<polygon fill="#999999" stroke="#666666" points="104.5,-219 0,-219 0,-199 104.5,-199 104.5,-219"/>
<text xml:space="preserve" text-anchor="middle" x="52.25" y="-205.5" font-family="Helvetica,sans-Serif" font-size="10.00">generateAllCaptures</text>
</a>
</g>
</g>
<!-- Node2 -->
<g id="Node000002" class="node">
<title>Node2</title>
<g id="a_Node000002"><a xlink:href="move__generator_8cpp.html#a21d952c048f6586610eafeefcd4a0341" target="_top" xlink:title=" ">
<polygon fill="white" stroke="#666666" points="265.62,-276 140.88,-276 140.88,-256 265.62,-256 265.62,-276"/>
<text xml:space="preserve" text-anchor="middle" x="203.25" y="-262.5" font-family="Helvetica,sans-Serif" font-size="10.00">AddBlackPawnCapMove</text>
</a>
</g>
</g>
<!-- Node1&#45;&gt;Node2 -->
<g id="edge1_Node000001_Node000002" class="edge">
<title>Node1&#45;&gt;Node2</title>
<g id="a_edge1_Node000001_Node000002"><a xlink:title=" ">
<path fill="none" stroke="#63b8ff" d="M80.58,-219.45C104.03,-228.43 138.07,-241.45 164.19,-251.44"/>
<polygon fill="#63b8ff" stroke="#63b8ff" points="162.84,-254.67 173.43,-254.97 165.34,-248.13 162.84,-254.67"/>
</a>
</g>
</g>
<!-- Node3 -->
<g id="Node000003" class="node">
<title>Node3</title>
<g id="a_Node000003"><a xlink:href="move__generator_8cpp.html#ad22de88ed58f37e575d4d3bbb7925329" target="_top" xlink:title=" ">
<polygon fill="white" stroke="#666666" points="400.5,-314 308.75,-314 308.75,-294 400.5,-294 400.5,-314"/>
<text xml:space="preserve" text-anchor="middle" x="354.62" y="-300.5" font-family="Helvetica,sans-Serif" font-size="10.00">AddCaptureMove</text>
</a>
</g>
</g>
<!-- Node1&#45;&gt;Node3 -->
<g id="edge13_Node000001_Node000003" class="edge">
<title>Node1&#45;&gt;Node3</title>
<g id="a_edge13_Node000001_Node000003"><a xlink:title=" ">
<path fill="none" stroke="#63b8ff" d="M61.32,-219.38C75.32,-236.51 105.94,-270.28 140.5,-285 190.38,-306.25 252.66,-309.45 296.99,-308.27"/>
<polygon fill="#63b8ff" stroke="#63b8ff" points="297.04,-311.77 306.91,-307.91 296.79,-304.77 297.04,-311.77"/>
</a>
</g>
</g>
<!-- Node4 -->
<g id="Node000004" class="node">
<title>Node4</title>
<g id="a_Node000004"><a xlink:href="board_8cpp.html#a27f071824f45c724e8ddd02c72b39871" target="_top" xlink:title="Performs a full internal consistency check of the board state.">
<polygon fill="white" stroke="#666666" points="536.5,-238 443.25,-238 443.25,-218 536.5,-218 536.5,-238"/>
<text xml:space="preserve" text-anchor="middle" x="489.88" y="-224.5" font-family="Helvetica,sans-Serif" font-size="10.00">isBoardStateValid</text>
</a>
</g>
</g>
<!-- Node1&#45;&gt;Node4 -->
<g id="edge22_Node000001_Node000004" class="edge">
<title>Node1&#45;&gt;Node4</title>
<g id="a_edge22_Node000001_Node000004"><a xlink:title=" ">
<path fill="none" stroke="#63b8ff" d="M104.93,-211.25C186.92,-214.83 346.22,-221.78 431.59,-225.5"/>
<polygon fill="#63b8ff" stroke="#63b8ff" points="431.22,-228.99 441.36,-225.93 431.53,-222 431.22,-228.99"/>
</a>
</g>
</g>
<!-- Node6 -->
<g id="Node000006" class="node">
<title>Node6</title>
<g id="a_Node000006"><a xlink:href="validate_8cpp.html#ad5a569564ef016ed02a4fef23d89d9c4" target="_top" xlink:title="Checks if a given square index refers to a valid on&#45;board square.">
<polygon fill="white" stroke="#666666" points="786,-181 719.75,-181 719.75,-161 786,-161 786,-181"/>
<text xml:space="preserve" text-anchor="middle" x="752.88" y="-167.5" font-family="Helvetica,sans-Serif" font-size="10.00">SqOnBoard</text>
</a>
</g>
</g>
<!-- Node1&#45;&gt;Node6 -->
<g id="edge27_Node000001_Node000006" class="edge">
<title>Node1&#45;&gt;Node6</title>
<g id="a_edge27_Node000001_Node000006"><a xlink:title=" ">
<path fill="none" stroke="#63b8ff" d="M56.46,-198.82C65.33,-172.39 92.7,-101.13 140.5,-64 218.61,-3.33 254.72,0 353.62,0 353.62,0 353.62,0 490.88,0 581.05,0 612.61,-7.58 683.75,-63 713.36,-86.07 733.6,-125.86 743.91,-150.16"/>
<polygon fill="#63b8ff" stroke="#63b8ff" points="740.62,-151.35 747.61,-159.31 747.11,-148.73 740.62,-151.35"/>
</a>
</g>
</g>
<!-- Node8 -->
<g id="Node000008" class="node">
<title>Node8</title>
<g id="a_Node000008"><a xlink:href="validate_8cpp.html#aca205110cd18879d0e0a965dee34b776" target="_top" xlink:title="Checks if the given piece code is a valid piece (non&#45;empty).">
<polygon fill="white" stroke="#666666" points="525.25,-342 454.5,-342 454.5,-322 525.25,-322 525.25,-342"/>
<text xml:space="preserve" text-anchor="middle" x="489.88" y="-328.5" font-family="Helvetica,sans-Serif" font-size="10.00">pieceValueid</text>
</a>
</g>
</g>
<!-- Node1&#45;&gt;Node8 -->
<g id="edge26_Node000001_Node000008" class="edge">
<title>Node1&#45;&gt;Node8</title>
<g id="a_edge26_Node000001_Node000008"><a xlink:title=" ">
<path fill="none" stroke="#63b8ff" d="M58.49,-219.45C69.95,-241.04 99.54,-290.26 140.5,-311 238.95,-360.84 373.62,-350.4 443.17,-340.22"/>
<polygon fill="#63b8ff" stroke="#63b8ff" points="443.31,-343.74 452.66,-338.76 442.25,-336.82 443.31,-343.74"/>
</a>
</g>
</g>
<!-- Node10 -->
<g id="Node000010" class="node">
<title>Node10</title>
<g id="a_Node000010"><a xlink:href="move__generator_8cpp.html#a1f1451a443ea747e0af2376725f4c62f" target="_top" xlink:title=" ">
<polygon fill="white" stroke="#666666" points="407.25,-86 302,-86 302,-66 407.25,-66 407.25,-86"/>
<text xml:space="preserve" text-anchor="middle" x="354.62" y="-72.5" font-family="Helvetica,sans-Serif" font-size="10.00">AddEnPassantMove</text>
</a>
</g>
</g>
<!-- Node1&#45;&gt;Node10 -->
<g id="edge14_Node000001_Node000010" class="edge">
<title>Node1&#45;&gt;Node10</title>
<g id="a_edge14_Node000001_Node000010"><a xlink:title=" ">
<path fill="none" stroke="#63b8ff" d="M57.52,-198.82C67.86,-175.66 96.61,-119.16 140.5,-95 186.15,-69.87 245.77,-66.57 290.34,-68.73"/>
<polygon fill="#63b8ff" stroke="#63b8ff" points="289.92,-72.21 300.11,-69.32 290.34,-65.23 289.92,-72.21"/>
</a>
</g>
</g>
<!-- Node11 -->
<g id="Node000011" class="node">
<title>Node11</title>
<g id="a_Node000011"><a xlink:href="move__generator_8cpp.html#aa5050db53ab58a3d01f8db5b0c6681c9" target="_top" xlink:title=" ">
<polygon fill="white" stroke="#666666" points="266,-200 140.5,-200 140.5,-180 266,-180 266,-200"/>
<text xml:space="preserve" text-anchor="middle" x="203.25" y="-186.5" font-family="Helvetica,sans-Serif" font-size="10.00">AddWhitePawnCapMove</text>
</a>
</g>
</g>
<!-- Node1&#45;&gt;Node11 -->
<g id="edge17_Node000001_Node000011" class="edge">
<title>Node1&#45;&gt;Node11</title>
<g id="a_edge17_Node000001_Node000011"><a xlink:title=" ">
<path fill="none" stroke="#63b8ff" d="M104.94,-202.41C112.66,-201.42 120.73,-200.4 128.79,-199.37"/>
<polygon fill="#63b8ff" stroke="#63b8ff" points="129.15,-202.85 138.63,-198.11 128.26,-195.91 129.15,-202.85"/>
</a>
</g>
</g>
<!-- Node12 -->
<g id="Node000012" class="node">
<title>Node12</title>
<g id="a_Node000012"><a xlink:href="validate_8cpp.html#a63d4de5e5c2a915fbce5d856620285d6" target="_top" xlink:title="Validates that a move list is within bounds and references valid moves.">
<polygon fill="white" stroke="#666666" points="237.5,-124 169,-124 169,-104 237.5,-104 237.5,-124"/>
<text xml:space="preserve" text-anchor="middle" x="203.25" y="-110.5" font-family="Helvetica,sans-Serif" font-size="10.00">MoveListOk</text>
</a>
</g>
</g>
<!-- Node1&#45;&gt;Node12 -->
<g id="edge23_Node000001_Node000012" class="edge">
<title>Node1&#45;&gt;Node12</title>
<g id="a_edge23_Node000001_Node000012"><a xlink:title=" ">
<path fill="none" stroke="#63b8ff" d="M69.48,-198.65C95.23,-182.23 145.67,-150.07 176.43,-130.46"/>
<polygon fill="#63b8ff" stroke="#63b8ff" points="178.21,-133.48 184.76,-125.15 174.45,-127.57 178.21,-133.48"/>
</a>
</g>
</g>
<!-- Node2&#45;&gt;Node3 -->
<g id="edge2_Node000002_Node000003" class="edge">
<title>Node2&#45;&gt;Node3</title>
<g id="a_edge2_Node000002_Node000003"><a xlink:title=" ">
<path fill="none" stroke="#63b8ff" d="M245.46,-276.48C262.77,-280.89 283.1,-286.06 301.43,-290.72"/>
<polygon fill="#63b8ff" stroke="#63b8ff" points="300.53,-294.1 311.08,-293.18 302.25,-287.32 300.53,-294.1"/>
</a>
</g>
</g>
<!-- Node2&#45;&gt;Node4 -->
<g id="edge10_Node000002_Node000004" class="edge">
<title>Node2&#45;&gt;Node4</title>
<g id="a_edge10_Node000002_Node000004"><a xlink:title=" ">
<path fill="none" stroke="#63b8ff" d="M266.1,-259.53C306.37,-255.12 360.01,-248.84 407.25,-242 415.08,-240.87 423.32,-239.57 431.43,-238.24"/>
<polygon fill="#63b8ff" stroke="#63b8ff" points="431.98,-241.7 441.26,-236.59 430.82,-234.79 431.98,-241.7"/>
</a>
</g>
</g>
<!-- Node2&#45;&gt;Node6 -->
<g id="edge12_Node000002_Node000006" class="edge">
<title>Node2&#45;&gt;Node6</title>
<g id="a_edge12_Node000002_Node000006"><a xlink:title=" ">
<path fill="none" stroke="#63b8ff" d="M218.39,-276.3C236.75,-289.17 270.21,-310.97 302,-323 400.17,-360.15 434.11,-374.1 536.5,-351 607.19,-335.05 629.75,-329.32 683.75,-281 711.94,-255.77 732.53,-216.12 743.31,-191.95"/>
<polygon fill="#63b8ff" stroke="#63b8ff" points="746.49,-193.42 747.21,-182.85 740.06,-190.66 746.49,-193.42"/>
</a>
</g>
</g>
<!-- Node9 -->
<g id="Node000009" class="node">
<title>Node9</title>
<g id="a_Node000009"><a xlink:href="validate_8cpp.html#ac8317193b0ce2ab0c3d8d0f212cdd2b6" target="_top" xlink:title="Checks if the given piece code is either empty or a valid piece.">
<polygon fill="white" stroke="#666666" points="404.25,-124 305,-124 305,-104 404.25,-104 404.25,-124"/>
<text xml:space="preserve" text-anchor="middle" x="354.62" y="-110.5" font-family="Helvetica,sans-Serif" font-size="10.00">pieceValueidEmpty</text>
</a>
</g>
</g>
<!-- Node2&#45;&gt;Node9 -->
<g id="edge11_Node000002_Node000009" class="edge">
<title>Node2&#45;&gt;Node9</title>
<g id="a_edge11_Node000002_Node000009"><a xlink:title=" ">
<path fill="none" stroke="#63b8ff" d="M215.89,-255.76C228.5,-244.56 249.08,-225.92 266,-209 291.63,-183.36 319.81,-152.25 337.11,-132.78"/>
<polygon fill="#63b8ff" stroke="#63b8ff" points="339.67,-135.17 343.67,-125.37 334.42,-130.54 339.67,-135.17"/>
</a>
</g>
</g>
<!-- Node3&#45;&gt;Node4 -->
<g id="edge3_Node000003_Node000004" class="edge">
<title>Node3&#45;&gt;Node4</title>
<g id="a_edge3_Node000003_Node000004"><a xlink:title=" ">
<path fill="none" stroke="#63b8ff" d="M379.86,-293.53C388.61,-289.54 398.5,-284.8 407.25,-280 427.14,-269.1 448.75,-255.24 464.73,-244.57"/>
<polygon fill="#63b8ff" stroke="#63b8ff" points="466.31,-247.73 472.64,-239.24 462.39,-241.93 466.31,-247.73"/>
</a>
</g>
</g>
<!-- Node3&#45;&gt;Node6 -->
<g id="edge9_Node000003_Node000006" class="edge">
<title>Node3&#45;&gt;Node6</title>
<g id="a_edge9_Node000003_Node000006"><a xlink:title=" ">
<path fill="none" stroke="#63b8ff" d="M400.87,-305.25C467.13,-305.15 592.59,-297.51 683.75,-247 707.85,-233.65 727.8,-208.48 739.76,-190.77"/>
<polygon fill="#63b8ff" stroke="#63b8ff" points="742.54,-192.93 745.02,-182.63 736.66,-189.13 742.54,-192.93"/>
</a>
</g>
</g>
<!-- Node3&#45;&gt;Node8 -->
<g id="edge8_Node000003_Node000008" class="edge">
<title>Node3&#45;&gt;Node8</title>
<g id="a_edge8_Node000003_Node000008"><a xlink:title=" ">
<path fill="none" stroke="#63b8ff" d="M400.74,-313.48C414.42,-316.36 429.46,-319.52 443.19,-322.4"/>
<polygon fill="#63b8ff" stroke="#63b8ff" points="442.36,-325.8 452.86,-324.43 443.8,-318.95 442.36,-325.8"/>
</a>
</g>
</g>
<!-- Node5 -->
<g id="Node000005" class="node">
<title>Node5</title>
<g id="a_Node000005"><a xlink:href="hash__keys_8cpp.html#a8c1832e1dfd853cce944ddd2df57dd53" target="_top" xlink:title="Generates a Zobrist hash key for the given board position.">
<polygon fill="white" stroke="#666666" points="683.75,-238 572.5,-238 572.5,-218 683.75,-218 683.75,-238"/>
<text xml:space="preserve" text-anchor="middle" x="628.12" y="-224.5" font-family="Helvetica,sans-Serif" font-size="10.00">generatePositionKeys</text>
</a>
</g>
</g>
<!-- Node4&#45;&gt;Node5 -->
<g id="edge4_Node000004_Node000005" class="edge">
<title>Node4&#45;&gt;Node5</title>
<g id="a_edge4_Node000004_Node000005"><a xlink:title=" ">
<path fill="none" stroke="#63b8ff" d="M536.62,-228C544.4,-228 552.61,-228 560.79,-228"/>
<polygon fill="#63b8ff" stroke="#63b8ff" points="560.77,-231.5 570.77,-228 560.77,-224.5 560.77,-231.5"/>
</a>
</g>
</g>
<!-- Node7 -->
<g id="Node000007" class="node">
<title>Node7</title>
<g id="a_Node000007"><a xlink:href="board_8cpp.html#addbaf4fbab51f8032e0e7aabbffeab96" target="_top" xlink:title="Validate that piece list array is consistent with board state.">
<polygon fill="white" stroke="#666666" points="670.62,-200 585.62,-200 585.62,-180 670.62,-180 670.62,-200"/>
<text xml:space="preserve" text-anchor="middle" x="628.12" y="-186.5" font-family="Helvetica,sans-Serif" font-size="10.00">isPieceListValid</text>
</a>
</g>
</g>
<!-- Node4&#45;&gt;Node7 -->
<g id="edge6_Node000004_Node000007" class="edge">
<title>Node4&#45;&gt;Node7</title>
<g id="a_edge6_Node000004_Node000007"><a xlink:title=" ">
<path fill="none" stroke="#63b8ff" d="M528.47,-217.52C543.95,-213.2 562.1,-208.14 578.57,-203.54"/>
<polygon fill="#63b8ff" stroke="#63b8ff" points="579.51,-206.91 588.2,-200.86 577.63,-200.17 579.51,-206.91"/>
</a>
</g>
</g>
<!-- Node5&#45;&gt;Node6 -->
<g id="edge5_Node000005_Node000006" class="edge">
<title>Node5&#45;&gt;Node6</title>
<g id="a_edge5_Node000005_Node000006"><a xlink:title=" ">
<path fill="none" stroke="#63b8ff" d="M662.13,-217.56C669.35,-214.99 676.88,-212.08 683.75,-209 697.94,-202.63 713.11,-194.33 725.52,-187.11"/>
<polygon fill="#63b8ff" stroke="#63b8ff" points="727.1,-190.25 733.92,-182.14 723.53,-184.22 727.1,-190.25"/>
</a>
</g>
</g>
<!-- Node7&#45;&gt;Node6 -->
<g id="edge7_Node000007_Node000006" class="edge">
<title>Node7&#45;&gt;Node6</title>
<g id="a_edge7_Node000007_Node000006"><a xlink:title=" ">
<path fill="none" stroke="#63b8ff" d="M671.03,-183.51C683.03,-181.66 696.13,-179.63 708.24,-177.75"/>
<polygon fill="#63b8ff" stroke="#63b8ff" points="708.62,-181.24 717.97,-176.25 707.55,-174.32 708.62,-181.24"/>
</a>
</g>
</g>
<!-- Node10&#45;&gt;Node4 -->
<g id="edge15_Node000010_Node000004" class="edge">
<title>Node10&#45;&gt;Node4</title>
<g id="a_edge15_Node000010_Node000004"><a xlink:title=" ">
<path fill="none" stroke="#63b8ff" d="M393.35,-86.46C398.32,-88.79 403.11,-91.61 407.25,-95 444.64,-125.64 469.56,-178.17 481.23,-207.2"/>
<polygon fill="#63b8ff" stroke="#63b8ff" points="477.89,-208.26 484.75,-216.33 484.42,-205.74 477.89,-208.26"/>
</a>
</g>
</g>
<!-- Node10&#45;&gt;Node6 -->
<g id="edge16_Node000010_Node000006" class="edge">
<title>Node10&#45;&gt;Node6</title>
<g id="a_edge16_Node000010_Node000006"><a xlink:title=" ">
<path fill="none" stroke="#63b8ff" d="M407.56,-81.51C473.15,-89.44 588.93,-106.69 683.75,-138 697.36,-142.49 711.74,-149.15 723.76,-155.31"/>
<polygon fill="#63b8ff" stroke="#63b8ff" points="721.82,-158.24 732.3,-159.82 725.09,-152.05 721.82,-158.24"/>
</a>
</g>
</g>
<!-- Node11&#45;&gt;Node3 -->
<g id="edge18_Node000011_Node000003" class="edge">
<title>Node11&#45;&gt;Node3</title>
<g id="a_edge18_Node000011_Node000003"><a xlink:title=" ">
<path fill="none" stroke="#63b8ff" d="M217.77,-200.32C243.54,-219.99 299.93,-263.02 331.35,-287"/>
<polygon fill="#63b8ff" stroke="#63b8ff" points="328.97,-289.58 339.04,-292.87 333.21,-284.02 328.97,-289.58"/>
</a>
</g>
</g>
<!-- Node11&#45;&gt;Node4 -->
<g id="edge19_Node000011_Node000004" class="edge">
<title>Node11&#45;&gt;Node4</title>
<g id="a_edge19_Node000011_Node000004"><a xlink:title=" ">
<path fill="none" stroke="#63b8ff" d="M266.1,-196.47C306.37,-200.88 360.01,-207.16 407.25,-214 415.08,-215.13 423.32,-216.43 431.43,-217.76"/>
<polygon fill="#63b8ff" stroke="#63b8ff" points="430.82,-221.21 441.26,-219.41 431.98,-214.3 430.82,-221.21"/>
</a>
</g>
</g>
<!-- Node11&#45;&gt;Node6 -->
<g id="edge21_Node000011_Node000006" class="edge">
<title>Node11&#45;&gt;Node6</title>
<g id="a_edge21_Node000011_Node000006"><a xlink:title=" ">
<path fill="none" stroke="#63b8ff" d="M266.44,-185.81C339.62,-181.11 464.83,-173.78 572.5,-171 618.85,-169.81 671.96,-170 708.29,-170.37"/>
<polygon fill="#63b8ff" stroke="#63b8ff" points="707.91,-173.87 717.95,-170.48 707.99,-166.87 707.91,-173.87"/>
</a>
</g>
</g>
<!-- Node11&#45;&gt;Node9 -->
<g id="edge20_Node000011_Node000009" class="edge">
<title>Node11&#45;&gt;Node9</title>
<g id="a_edge20_Node000011_Node000009"><a xlink:title=" ">
<path fill="none" stroke="#63b8ff" d="M223.2,-179.53C242.78,-168.81 274.3,-151.8 302,-138 307.89,-135.06 314.22,-132.03 320.35,-129.15"/>
<polygon fill="#63b8ff" stroke="#63b8ff" points="321.41,-132.52 329,-125.13 318.45,-126.17 321.41,-132.52"/>
</a>
</g>
</g>
<!-- Node12&#45;&gt;Node6 -->
<g id="edge25_Node000012_Node000006" class="edge">
<title>Node12&#45;&gt;Node6</title>
<g id="a_edge25_Node000012_Node000006"><a xlink:title=" ">
<path fill="none" stroke="#63b8ff" d="M216.84,-103.66C234.55,-89.85 268.43,-66.07 302,-57 347.16,-44.8 360.64,-52.98 407.25,-57 531.52,-67.71 572.59,-48.43 683.75,-105 705.63,-116.13 725.12,-136.68 737.6,-151.9"/>
<polygon fill="#63b8ff" stroke="#63b8ff" points="734.54,-153.68 743.48,-159.37 740.04,-149.35 734.54,-153.68"/>
</a>
</g>
</g>
<!-- Node12&#45;&gt;Node9 -->
<g id="edge24_Node000012_Node000009" class="edge">
<title>Node12&#45;&gt;Node9</title>
<g id="a_edge24_Node000012_Node000009"><a xlink:title=" ">
<path fill="none" stroke="#63b8ff" d="M237.77,-114C254.16,-114 274.4,-114 293.35,-114"/>
<polygon fill="#63b8ff" stroke="#63b8ff" points="293.11,-117.5 303.11,-114 293.11,-110.5 293.11,-117.5"/>
</a>
</g>
</g>
</g>
</svg>
