<?xml version="1.0" encoding="UTF-8" standalone="no"?>
<!DOCTYPE svg PUBLIC "-//W3C//DTD SVG 1.1//EN"
 "http://www.w3.org/Graphics/SVG/1.1/DTD/svg11.dtd">
<!-- Generated by graphviz version 13.1.2 (20250808.2320)
 -->
<!-- Title: AddEnPassantMove Pages: 1 -->
<svg width="546pt" height="180pt"
 viewBox="0.00 0.00 546.00 180.00" xmlns="http://www.w3.org/2000/svg" xmlns:xlink="http://www.w3.org/1999/xlink">
<g id="graph0" class="graph" transform="scale(1 1) rotate(0) translate(4 175.65)">
<title>AddEnPassantMove</title>
<!-- Node1 -->
<g id="Node000001" class="node">
<title>Node1</title>
<g id="a_Node000001"><a xlink:title=" ">
<polygon fill="#999999" stroke="#666666" points="537.5,-114.65 432.25,-114.65 432.25,-94.65 537.5,-94.65 537.5,-114.65"/>
<text xml:space="preserve" text-anchor="middle" x="484.88" y="-101.15" font-family="Helvetica,sans-Serif" font-size="10.00">AddEnPassantMove</text>
</a>
</g>
</g>
<!-- Node2 -->
<g id="Node000002" class="node">
<title>Node2</title>
<g id="a_Node000002"><a xlink:href="move__generator_8cpp.html#ae4238c052984ad1c8581f8d0ea5a54bb" target="_top" xlink:title="Generate all pseudo&#45;legal capture moves (including en passant).">
<polygon fill="white" stroke="#666666" points="396.25,-133.65 291.75,-133.65 291.75,-113.65 396.25,-113.65 396.25,-133.65"/>
<text xml:space="preserve" text-anchor="middle" x="344" y="-120.15" font-family="Helvetica,sans-Serif" font-size="10.00">generateAllCaptures</text>
</a>
</g>
</g>
<!-- Node1&#45;&gt;Node2 -->
<g id="edge1_Node000001_Node000002" class="edge">
<title>Node1&#45;&gt;Node2</title>
<g id="a_edge1_Node000001_Node000002"><a xlink:title=" ">
<path fill="none" stroke="#63b8ff" d="M420.51,-113.31C412.46,-114.42 404.31,-115.53 396.48,-116.6"/>
<polygon fill="#63b8ff" stroke="#63b8ff" points="420.84,-116.8 430.27,-111.98 419.89,-109.87 420.84,-116.8"/>
</a>
</g>
</g>
<!-- Node3 -->
<g id="Node000003" class="node">
<title>Node3</title>
<g id="a_Node000003"><a xlink:href="move__generator_8cpp.html#a4d7178784dec62b5c55f61f52c432fdf" target="_top" xlink:title="Generate all pseudo&#45;legal moves for the side to move.">
<polygon fill="white" stroke="#666666" points="391,-95.65 297,-95.65 297,-75.65 391,-75.65 391,-95.65"/>
<text xml:space="preserve" text-anchor="middle" x="344" y="-82.15" font-family="Helvetica,sans-Serif" font-size="10.00">generateAllMoves</text>
</a>
</g>
</g>
<!-- Node1&#45;&gt;Node3 -->
<g id="edge2_Node000001_Node000003" class="edge">
<title>Node1&#45;&gt;Node3</title>
<g id="a_edge2_Node000001_Node000003"><a xlink:title=" ">
<path fill="none" stroke="#63b8ff" d="M420.43,-95.97C410.67,-94.63 400.76,-93.27 391.46,-92"/>
<polygon fill="#63b8ff" stroke="#63b8ff" points="419.89,-99.42 430.27,-97.31 420.84,-92.49 419.89,-99.42"/>
</a>
</g>
</g>
<!-- Node4 -->
<g id="Node000004" class="node">
<title>Node4</title>
<g id="a_Node000004"><a xlink:href="interactive__helpers_8cpp.html#a37716374c6b9557c96dfddf75ab56e72" target="_top" xlink:title="Build list of legal moves that originate from from.">
<polygon fill="white" stroke="#666666" points="255.75,-171.65 164.75,-171.65 164.75,-151.65 255.75,-151.65 255.75,-171.65"/>
<text xml:space="preserve" text-anchor="middle" x="210.25" y="-158.15" font-family="Helvetica,sans-Serif" font-size="10.00">LegalMovesFrom</text>
</a>
</g>
</g>
<!-- Node3&#45;&gt;Node4 -->
<g id="edge3_Node000003_Node000004" class="edge">
<title>Node3&#45;&gt;Node4</title>
<g id="a_edge3_Node000003_Node000004"><a xlink:title=" ">
<path fill="none" stroke="#63b8ff" d="M297.86,-101C295.75,-102.14 293.7,-103.36 291.75,-104.65 272.34,-117.47 274.85,-129.36 255.75,-142.65 251.06,-145.91 245.72,-148.78 240.41,-151.23"/>
<polygon fill="#63b8ff" stroke="#63b8ff" points="299.15,-104.26 306.67,-96.79 296.14,-97.94 299.15,-104.26"/>
</a>
</g>
</g>
<!-- Node5 -->
<g id="Node000005" class="node">
<title>Node5</title>
<g id="a_Node000005"><a xlink:href="move__generator_8cpp.html#a4edc18741a17d00498b72b349879e30d" target="_top" xlink:title="Check if a given move exists in the current position.">
<polygon fill="white" stroke="#666666" points="244.12,-133.65 176.38,-133.65 176.38,-113.65 244.12,-113.65 244.12,-133.65"/>
<text xml:space="preserve" text-anchor="middle" x="210.25" y="-120.15" font-family="Helvetica,sans-Serif" font-size="10.00">moveExists</text>
</a>
</g>
</g>
<!-- Node3&#45;&gt;Node5 -->
<g id="edge4_Node000003_Node000005" class="edge">
<title>Node3&#45;&gt;Node5</title>
<g id="a_edge4_Node000003_Node000005"><a xlink:title=" ">
<path fill="none" stroke="#63b8ff" d="M295.77,-99.27C278.74,-104.18 259.89,-109.62 244.33,-114.11"/>
<polygon fill="#63b8ff" stroke="#63b8ff" points="296.56,-102.68 305.2,-96.55 294.62,-95.96 296.56,-102.68"/>
</a>
</g>
</g>
<!-- Node6 -->
<g id="Node000006" class="node">
<title>Node6</title>
<g id="a_Node000006"><a xlink:href="notation_8cpp.html#a62cf95674b846c7a13035e3c92ab1bcd" target="_top" xlink:title="Parse a move from coordinate notation.">
<polygon fill="white" stroke="#666666" points="255,-95.65 165.5,-95.65 165.5,-75.65 255,-75.65 255,-95.65"/>
<text xml:space="preserve" text-anchor="middle" x="210.25" y="-82.15" font-family="Helvetica,sans-Serif" font-size="10.00">parseMoveString</text>
</a>
</g>
</g>
<!-- Node3&#45;&gt;Node6 -->
<g id="edge5_Node000003_Node000006" class="edge">
<title>Node3&#45;&gt;Node6</title>
<g id="a_edge5_Node000003_Node000006"><a xlink:title=" ">
<path fill="none" stroke="#63b8ff" d="M285.27,-85.65C275.14,-85.65 264.75,-85.65 255.07,-85.65"/>
<polygon fill="#63b8ff" stroke="#63b8ff" points="285.04,-89.15 295.04,-85.65 285.04,-82.15 285.04,-89.15"/>
</a>
</g>
</g>
<!-- Node7 -->
<g id="Node000007" class="node">
<title>Node7</title>
<g id="a_Node000007"><a xlink:href="perft_8cpp.html#a84c7e465b44101a59f96b9c21ed0224b" target="_top" xlink:title="Runs a perft search from a given board state.">
<polygon fill="white" stroke="#666666" points="228.75,-39.65 191.75,-39.65 191.75,-19.65 228.75,-19.65 228.75,-39.65"/>
<text xml:space="preserve" text-anchor="middle" x="210.25" y="-26.15" font-family="Helvetica,sans-Serif" font-size="10.00">Perft</text>
</a>
</g>
</g>
<!-- Node3&#45;&gt;Node7 -->
<g id="edge6_Node000003_Node000007" class="edge">
<title>Node3&#45;&gt;Node7</title>
<g id="a_edge6_Node000003_Node000007"><a xlink:title=" ">
<path fill="none" stroke="#63b8ff" d="M308.2,-70.86C282.84,-60.07 249.49,-45.9 229.25,-37.3"/>
<polygon fill="#63b8ff" stroke="#63b8ff" points="306.56,-73.96 317.13,-74.65 309.3,-67.52 306.56,-73.96"/>
</a>
</g>
</g>
<!-- Node8 -->
<g id="Node000008" class="node">
<title>Node8</title>
<g id="a_Node000008"><a xlink:href="perft_8cpp.html#a1b6b13d186dab20a18cec1a6b041220b" target="_top" xlink:title="Executes a perft test and prints move breakdown and timing.">
<polygon fill="white" stroke="#666666" points="128.75,-20.65 73,-20.65 73,-0.65 128.75,-0.65 128.75,-20.65"/>
<text xml:space="preserve" text-anchor="middle" x="100.88" y="-7.15" font-family="Helvetica,sans-Serif" font-size="10.00">PerftTest</text>
</a>
</g>
</g>
<!-- Node3&#45;&gt;Node8 -->
<g id="edge10_Node000003_Node000008" class="edge">
<title>Node3&#45;&gt;Node8</title>
<g id="a_edge10_Node000003_Node000008"><a xlink:title=" ">
<path fill="none" stroke="#63b8ff" d="M328.06,-66.63C312.34,-48.31 285.73,-21.76 255.75,-10.65 213.67,4.96 160.55,0.08 129,-5.12"/>
<polygon fill="#63b8ff" stroke="#63b8ff" points="325.23,-68.69 334.29,-74.18 330.62,-64.24 325.23,-68.69"/>
</a>
</g>
</g>
<!-- Node7&#45;&gt;Node7 -->
<g id="edge7_Node000007_Node000007" class="edge">
<title>Node7&#45;&gt;Node7</title>
<g id="a_edge7_Node000007_Node000007"><a xlink:title=" ">
<path fill="none" stroke="#63b8ff" d="M229.58,-51.09C227.09,-54.95 220.65,-57.65 210.25,-57.65 191.24,-57.65 185.44,-48.62 192.87,-39.98"/>
<polygon fill="#63b8ff" stroke="#63b8ff" points="233.07,-50.72 227.89,-41.47 226.18,-51.93 233.07,-50.72"/>
</a>
</g>
</g>
<!-- Node7&#45;&gt;Node8 -->
<g id="edge8_Node000007_Node000008" class="edge">
<title>Node7&#45;&gt;Node8</title>
<g id="a_edge8_Node000007_Node000008"><a xlink:title=" ">
<path fill="none" stroke="#63b8ff" d="M180.63,-24.58C164.58,-21.74 144.68,-18.22 128.9,-15.43"/>
<polygon fill="#63b8ff" stroke="#63b8ff" points="179.57,-27.95 190.03,-26.24 180.79,-21.06 179.57,-27.95"/>
</a>
</g>
</g>
<!-- Node9 -->
<g id="Node000009" class="node">
<title>Node9</title>
<g id="a_Node000009"><a xlink:href="main_8cpp.html#ae66f6b31b5ad750f1fe042a706a4e3d4" target="_top" xlink:title=" ">
<polygon fill="white" stroke="#666666" points="37,-20.65 0,-20.65 0,-0.65 37,-0.65 37,-20.65"/>
<text xml:space="preserve" text-anchor="middle" x="18.5" y="-7.15" font-family="Helvetica,sans-Serif" font-size="10.00">main</text>
</a>
</g>
</g>
<!-- Node8&#45;&gt;Node9 -->
<g id="edge9_Node000008_Node000009" class="edge">
<title>Node8&#45;&gt;Node9</title>
<g id="a_edge9_Node000008_Node000009"><a xlink:title=" ">
<path fill="none" stroke="#63b8ff" d="M61.39,-10.65C52.98,-10.65 44.47,-10.65 37.34,-10.65"/>
<polygon fill="#63b8ff" stroke="#63b8ff" points="61.15,-14.15 71.15,-10.65 61.15,-7.15 61.15,-14.15"/>
</a>
</g>
</g>
</g>
</svg>
