<?xml version="1.0" encoding="UTF-8" standalone="no"?>
<!DOCTYPE svg PUBLIC "-//W3C//DTD SVG 1.1//EN"
 "http://www.w3.org/Graphics/SVG/1.1/DTD/svg11.dtd">
<!-- Generated by graphviz version 13.1.2 (20250808.2320)
 -->
<!-- Title: move_generator.cpp Pages: 1 -->
<svg width="455pt" height="252pt"
 viewBox="0.00 0.00 455.00 252.00" xmlns="http://www.w3.org/2000/svg" xmlns:xlink="http://www.w3.org/1999/xlink">
<g id="graph0" class="graph" transform="scale(1 1) rotate(0) translate(4 248)">
<title>move_generator.cpp</title>
<!-- Node1 -->
<g id="Node000001" class="node">
<title>Node1</title>
<g id="a_Node000001"><a xlink:title=" ">
<polygon fill="#999999" stroke="#666666" points="275,-244 170.5,-244 170.5,-224 275,-224 275,-244"/>
<text xml:space="preserve" text-anchor="middle" x="222.75" y="-230.5" font-family="Helvetica,sans-Serif" font-size="10.00">move_generator.cpp</text>
</a>
</g>
</g>
<!-- Node2 -->
<g id="Node000002" class="node">
<title>Node2</title>
<g id="a_Node000002"><a xlink:title=" ">
<polygon fill="#e0e0e0" stroke="#999999" points="53.5,-188 0,-188 0,-168 53.5,-168 53.5,-188"/>
<text xml:space="preserve" text-anchor="middle" x="26.75" y="-174.5" font-family="Helvetica,sans-Serif" font-size="10.00">iostream</text>
</a>
</g>
</g>
<!-- Node1&#45;&gt;Node2 -->
<g id="edge1_Node000001_Node000002" class="edge">
<title>Node1&#45;&gt;Node2</title>
<g id="a_edge1_Node000001_Node000002"><a xlink:title=" ">
<path fill="none" stroke="#63b8ff" d="M188.61,-223.59C154.07,-214.08 100.78,-199.4 64.88,-189.51"/>
<polygon fill="#63b8ff" stroke="#63b8ff" points="65.91,-186.16 55.34,-186.88 64.05,-192.91 65.91,-186.16"/>
</a>
</g>
</g>
<!-- Node3 -->
<g id="Node000003" class="node">
<title>Node3</title>
<g id="a_Node000003"><a xlink:href="move__generator_8h.html" target="_top" xlink:title=" ">
<polygon fill="white" stroke="#666666" points="165.75,-188 71.75,-188 71.75,-168 165.75,-168 165.75,-188"/>
<text xml:space="preserve" text-anchor="middle" x="118.75" y="-174.5" font-family="Helvetica,sans-Serif" font-size="10.00">move_generator.h</text>
</a>
</g>
</g>
<!-- Node1&#45;&gt;Node3 -->
<g id="edge2_Node000001_Node000003" class="edge">
<title>Node1&#45;&gt;Node3</title>
<g id="a_edge2_Node000001_Node000003"><a xlink:title=" ">
<path fill="none" stroke="#63b8ff" d="M204.63,-223.59C188.78,-215.36 165.47,-203.26 147.13,-193.74"/>
<polygon fill="#63b8ff" stroke="#63b8ff" points="148.84,-190.68 138.35,-189.18 145.61,-196.89 148.84,-190.68"/>
</a>
</g>
</g>
<!-- Node9 -->
<g id="Node000009" class="node">
<title>Node9</title>
<g id="a_Node000009"><a xlink:href="make__move_8h.html" target="_top" xlink:title=" ">
<polygon fill="white" stroke="#666666" points="261.5,-188 184,-188 184,-168 261.5,-168 261.5,-188"/>
<text xml:space="preserve" text-anchor="middle" x="222.75" y="-174.5" font-family="Helvetica,sans-Serif" font-size="10.00">make_move.h</text>
</a>
</g>
</g>
<!-- Node1&#45;&gt;Node9 -->
<g id="edge9_Node000001_Node000009" class="edge">
<title>Node1&#45;&gt;Node9</title>
<g id="a_edge9_Node000001_Node000009"><a xlink:title=" ">
<path fill="none" stroke="#63b8ff" d="M222.75,-223.59C222.75,-217.01 222.75,-207.96 222.75,-199.73"/>
<polygon fill="#63b8ff" stroke="#63b8ff" points="226.25,-199.81 222.75,-189.81 219.25,-199.81 226.25,-199.81"/>
</a>
</g>
</g>
<!-- Node10 -->
<g id="Node000010" class="node">
<title>Node10</title>
<g id="a_Node000010"><a xlink:href="attack_8h.html" target="_top" xlink:title=" ">
<polygon fill="white" stroke="#666666" points="355.75,-188 279.75,-188 279.75,-168 355.75,-168 355.75,-188"/>
<text xml:space="preserve" text-anchor="middle" x="317.75" y="-174.5" font-family="Helvetica,sans-Serif" font-size="10.00">../util/attack.h</text>
</a>
</g>
</g>
<!-- Node1&#45;&gt;Node10 -->
<g id="edge11_Node000001_Node000010" class="edge">
<title>Node1&#45;&gt;Node10</title>
<g id="a_edge11_Node000001_Node000010"><a xlink:title=" ">
<path fill="none" stroke="#63b8ff" d="M239.3,-223.59C253.65,-215.44 274.68,-203.48 291.35,-194"/>
<polygon fill="#63b8ff" stroke="#63b8ff" points="292.79,-197.21 299.76,-189.23 289.33,-191.13 292.79,-197.21"/>
</a>
</g>
</g>
<!-- Node11 -->
<g id="Node000011" class="node">
<title>Node11</title>
<g id="a_Node000011"><a xlink:href="setup_8h.html" target="_top" xlink:title=" ">
<polygon fill="white" stroke="#666666" points="447.25,-188 374.25,-188 374.25,-168 447.25,-168 447.25,-188"/>
<text xml:space="preserve" text-anchor="middle" x="410.75" y="-174.5" font-family="Helvetica,sans-Serif" font-size="10.00">../util/setup.h</text>
</a>
</g>
</g>
<!-- Node1&#45;&gt;Node11 -->
<g id="edge13_Node000001_Node000011" class="edge">
<title>Node1&#45;&gt;Node11</title>
<g id="a_edge13_Node000001_Node000011"><a xlink:title=" ">
<path fill="none" stroke="#63b8ff" d="M255.5,-223.59C286.31,-214.74 332.67,-201.43 366.72,-191.65"/>
<polygon fill="#63b8ff" stroke="#63b8ff" points="367.65,-195.02 376.29,-188.9 365.72,-188.29 367.65,-195.02"/>
</a>
</g>
</g>
<!-- Node4 -->
<g id="Node000004" class="node">
<title>Node4</title>
<g id="a_Node000004"><a xlink:href="defs_8h.html" target="_top" xlink:title=" ">
<polygon fill="white" stroke="#666666" points="295.75,-132 243.75,-132 243.75,-112 295.75,-112 295.75,-132"/>
<text xml:space="preserve" text-anchor="middle" x="269.75" y="-118.5" font-family="Helvetica,sans-Serif" font-size="10.00">../defs.h</text>
</a>
</g>
</g>
<!-- Node3&#45;&gt;Node4 -->
<g id="edge3_Node000003_Node000004" class="edge">
<title>Node3&#45;&gt;Node4</title>
<g id="a_edge3_Node000003_Node000004"><a xlink:title=" ">
<path fill="none" stroke="#63b8ff" d="M145.05,-167.59C169.34,-158.91 205.65,-145.92 232.83,-136.2"/>
<polygon fill="#63b8ff" stroke="#63b8ff" points="233.83,-139.56 242.07,-132.9 231.48,-132.97 233.83,-139.56"/>
</a>
</g>
</g>
<!-- Node5 -->
<g id="Node000005" class="node">
<title>Node5</title>
<g id="a_Node000005"><a xlink:title=" ">
<polygon fill="#e0e0e0" stroke="#999999" points="184.5,-76 137,-76 137,-56 184.5,-56 184.5,-76"/>
<text xml:space="preserve" text-anchor="middle" x="160.75" y="-62.5" font-family="Helvetica,sans-Serif" font-size="10.00">stdlib.h</text>
</a>
</g>
</g>
<!-- Node4&#45;&gt;Node5 -->
<g id="edge4_Node000004_Node000005" class="edge">
<title>Node4&#45;&gt;Node5</title>
<g id="a_edge4_Node000004_Node000005"><a xlink:title=" ">
<path fill="none" stroke="#63b8ff" d="M250.76,-111.59C233.99,-103.28 209.26,-91.03 189.96,-81.47"/>
<polygon fill="#63b8ff" stroke="#63b8ff" points="191.76,-78.45 181.24,-77.15 188.65,-84.73 191.76,-78.45"/>
</a>
</g>
</g>
<!-- Node6 -->
<g id="Node000006" class="node">
<title>Node6</title>
<g id="a_Node000006"><a xlink:title=" ">
<polygon fill="#e0e0e0" stroke="#999999" points="247.38,-76 202.12,-76 202.12,-56 247.38,-56 247.38,-76"/>
<text xml:space="preserve" text-anchor="middle" x="224.75" y="-62.5" font-family="Helvetica,sans-Serif" font-size="10.00">stdio.h</text>
</a>
</g>
</g>
<!-- Node4&#45;&gt;Node6 -->
<g id="edge5_Node000004_Node000006" class="edge">
<title>Node4&#45;&gt;Node6</title>
<g id="a_edge5_Node000004_Node000006"><a xlink:title=" ">
<path fill="none" stroke="#63b8ff" d="M261.91,-111.59C255.78,-104.24 247.08,-93.8 239.64,-84.87"/>
<polygon fill="#63b8ff" stroke="#63b8ff" points="242.56,-82.9 233.47,-77.46 237.18,-87.38 242.56,-82.9"/>
</a>
</g>
</g>
<!-- Node7 -->
<g id="Node000007" class="node">
<title>Node7</title>
<g id="a_Node000007"><a xlink:href="board__data_8h.html" target="_top" xlink:title=" ">
<polygon fill="white" stroke="#666666" points="364.38,-76 265.12,-76 265.12,-56 364.38,-56 364.38,-76"/>
<text xml:space="preserve" text-anchor="middle" x="314.75" y="-62.5" font-family="Helvetica,sans-Serif" font-size="10.00">board/board_data.h</text>
</a>
</g>
</g>
<!-- Node4&#45;&gt;Node7 -->
<g id="edge6_Node000004_Node000007" class="edge">
<title>Node4&#45;&gt;Node7</title>
<g id="a_edge6_Node000004_Node000007"><a xlink:title=" ">
<path fill="none" stroke="#63b8ff" d="M272.32,-111.59C277.08,-104.08 285.66,-93.35 293.98,-84.3"/>
<polygon fill="#63b8ff" stroke="#63b8ff" points="296.25,-87 300.7,-77.38 291.22,-82.12 296.25,-87"/>
</a>
</g>
</g>
<!-- Node7&#45;&gt;Node4 -->
<g id="edge8_Node000007_Node000004" class="edge">
<title>Node7&#45;&gt;Node4</title>
<g id="a_edge8_Node000007_Node000004"><a xlink:title=" ">
<path fill="none" stroke="#63b8ff" d="M312.25,-76.3C307.53,-83.78 298.97,-94.5 290.64,-103.57"/>
<polygon fill="#63b8ff" stroke="#63b8ff" points="288.36,-100.89 283.91,-110.51 293.38,-105.76 288.36,-100.89"/>
</a>
</g>
</g>
<!-- Node8 -->
<g id="Node000008" class="node">
<title>Node8</title>
<g id="a_Node000008"><a xlink:title=" ">
<polygon fill="#e0e0e0" stroke="#999999" points="333.62,-20 295.88,-20 295.88,0 333.62,0 333.62,-20"/>
<text xml:space="preserve" text-anchor="middle" x="314.75" y="-6.5" font-family="Helvetica,sans-Serif" font-size="10.00">array</text>
</a>
</g>
</g>
<!-- Node7&#45;&gt;Node8 -->
<g id="edge7_Node000007_Node000008" class="edge">
<title>Node7&#45;&gt;Node8</title>
<g id="a_edge7_Node000007_Node000008"><a xlink:title=" ">
<path fill="none" stroke="#63b8ff" d="M314.75,-55.59C314.75,-49.01 314.75,-39.96 314.75,-31.73"/>
<polygon fill="#63b8ff" stroke="#63b8ff" points="318.25,-31.81 314.75,-21.81 311.25,-31.81 318.25,-31.81"/>
</a>
</g>
</g>
<!-- Node9&#45;&gt;Node4 -->
<g id="edge10_Node000009_Node000004" class="edge">
<title>Node9&#45;&gt;Node4</title>
<g id="a_edge10_Node000009_Node000004"><a xlink:title=" ">
<path fill="none" stroke="#63b8ff" d="M230.94,-167.59C237.34,-160.24 246.43,-149.8 254.2,-140.87"/>
<polygon fill="#63b8ff" stroke="#63b8ff" points="256.74,-143.28 260.66,-133.44 251.46,-138.69 256.74,-143.28"/>
</a>
</g>
</g>
<!-- Node10&#45;&gt;Node4 -->
<g id="edge12_Node000010_Node000004" class="edge">
<title>Node10&#45;&gt;Node4</title>
<g id="a_edge12_Node000010_Node000004"><a xlink:title=" ">
<path fill="none" stroke="#63b8ff" d="M309.39,-167.59C302.85,-160.24 293.57,-149.8 285.63,-140.87"/>
<polygon fill="#63b8ff" stroke="#63b8ff" points="288.28,-138.58 279.02,-133.43 283.05,-143.23 288.28,-138.58"/>
</a>
</g>
</g>
<!-- Node11&#45;&gt;Node4 -->
<g id="edge14_Node000011_Node000004" class="edge">
<title>Node11&#45;&gt;Node4</title>
<g id="a_edge14_Node000011_Node000004"><a xlink:title=" ">
<path fill="none" stroke="#63b8ff" d="M386.19,-167.59C363.78,-159.01 330.41,-146.23 305.13,-136.55"/>
<polygon fill="#63b8ff" stroke="#63b8ff" points="306.51,-133.33 295.92,-133.02 304,-139.87 306.51,-133.33"/>
</a>
</g>
</g>
</g>
</svg>
