<?xml version="1.0" encoding="UTF-8" standalone="no"?>
<!DOCTYPE svg PUBLIC "-//W3C//DTD SVG 1.1//EN"
 "http://www.w3.org/Graphics/SVG/1.1/DTD/svg11.dtd">
<!-- Generated by graphviz version 13.1.2 (20250808.2320)
 -->
<!-- Title: generateAllMoves Pages: 1 -->
<svg width="394pt" height="180pt"
 viewBox="0.00 0.00 394.00 180.00" xmlns="http://www.w3.org/2000/svg" xmlns:xlink="http://www.w3.org/1999/xlink">

<svg id="main" version="1.1" xmlns="http://www.w3.org/2000/svg" xmlns:xlink="http://www.w3.org/1999/xlink" xml:space="preserve">

<style type="text/css"><![CDATA[
.node, .edge {opacity: 0.7;}
.node.selected, .edge.selected {opacity: 1;}
.edge:hover path { stroke: red; }
.edge:hover polygon { stroke: red; fill: red; }
]]></style>
<script type="application/ecmascript" xlink:href="svg.min.js"/>
<svg id="graph" class="graph">
<g id="graph0" class="graph" transform="scale(1 1) rotate(0) translate(4 176.04)">
<title>generateAllMoves</title>
<!-- Node1 -->
<g id="Node000001" class="node">
<title>Node1</title>
<g id="a_Node000001"><a xlink:title="Generate all pseudo&#45;legal moves for the side to move.">
<polygon fill="#999999" stroke="#666666" points="385.75,-96.04 291.75,-96.04 291.75,-76.04 385.75,-76.04 385.75,-96.04"/>
<text xml:space="preserve" text-anchor="middle" x="338.75" y="-82.54" font-family="Helvetica,sans-Serif" font-size="10.00">generateAllMoves</text>
</a>
</g>
</g>
<!-- Node2 -->
<g id="Node000002" class="node">
<title>Node2</title>
<g id="a_Node000002"><a xlink:href="interactive__helpers_8cpp.html#a37716374c6b9557c96dfddf75ab56e72" target="_top" xlink:title="Build list of legal moves that originate from from.">
<polygon fill="white" stroke="#666666" points="255.75,-172.04 164.75,-172.04 164.75,-152.04 255.75,-152.04 255.75,-172.04"/>
<text xml:space="preserve" text-anchor="middle" x="210.25" y="-158.54" font-family="Helvetica,sans-Serif" font-size="10.00">LegalMovesFrom</text>
</a>
</g>
</g>
<!-- Node1&#45;&gt;Node2 -->
<g id="edge1_Node000001_Node000002" class="edge">
<title>Node1&#45;&gt;Node2</title>
<g id="a_edge1_Node000001_Node000002"><a xlink:title=" ">
<path fill="none" stroke="#63b8ff" d="M315.56,-103.32C299.5,-115.36 276.98,-131.29 255.75,-143.04 250.16,-146.14 243.97,-149.07 238.03,-151.66"/>
<polygon fill="#63b8ff" stroke="#63b8ff" points="317.61,-106.16 323.45,-97.32 313.38,-100.59 317.61,-106.16"/>
</a>
</g>
</g>
<!-- Node3 -->
<g id="Node000003" class="node">
<title>Node3</title>
<g id="a_Node000003"><a xlink:href="move__generator_8cpp.html#a4edc18741a17d00498b72b349879e30d" target="_top" xlink:title="Check if a given move exists in the current position.">
<polygon fill="white" stroke="#666666" points="244.12,-134.04 176.38,-134.04 176.38,-114.04 244.12,-114.04 244.12,-134.04"/>
<text xml:space="preserve" text-anchor="middle" x="210.25" y="-120.54" font-family="Helvetica,sans-Serif" font-size="10.00">moveExists</text>
</a>
</g>
</g>
<!-- Node1&#45;&gt;Node3 -->
<g id="edge2_Node000001_Node000003" class="edge">
<title>Node1&#45;&gt;Node3</title>
<g id="a_edge2_Node000001_Node000003"><a xlink:title=" ">
<path fill="none" stroke="#63b8ff" d="M292.2,-99.73C276.37,-104.48 258.92,-109.72 244.3,-114.12"/>
<polygon fill="#63b8ff" stroke="#63b8ff" points="292.83,-103.19 301.4,-96.96 290.81,-96.49 292.83,-103.19"/>
</a>
</g>
</g>
<!-- Node4 -->
<g id="Node000004" class="node">
<title>Node4</title>
<g id="a_Node000004"><a xlink:href="notation_8cpp.html#a62cf95674b846c7a13035e3c92ab1bcd" target="_top" xlink:title="Parse a move from coordinate notation.">
<polygon fill="white" stroke="#666666" points="255,-96.04 165.5,-96.04 165.5,-76.04 255,-76.04 255,-96.04"/>
<text xml:space="preserve" text-anchor="middle" x="210.25" y="-82.54" font-family="Helvetica,sans-Serif" font-size="10.00">parseMoveString</text>
</a>
</g>
</g>
<!-- Node1&#45;&gt;Node4 -->
<g id="edge3_Node000001_Node000004" class="edge">
<title>Node1&#45;&gt;Node4</title>
<g id="a_edge3_Node000001_Node000004"><a xlink:title=" ">
<path fill="none" stroke="#63b8ff" d="M280.06,-86.04C271.68,-86.04 263.16,-86.04 255.11,-86.04"/>
<polygon fill="#63b8ff" stroke="#63b8ff" points="279.85,-89.54 289.85,-86.04 279.85,-82.54 279.85,-89.54"/>
</a>
</g>
</g>
<!-- Node5 -->
<g id="Node000005" class="node">
<title>Node5</title>
<g id="a_Node000005"><a xlink:href="perft_8cpp.html#a84c7e465b44101a59f96b9c21ed0224b" target="_top" xlink:title="Runs a perft search from a given board state.">
<polygon fill="white" stroke="#666666" points="228.75,-40.04 191.75,-40.04 191.75,-20.04 228.75,-20.04 228.75,-40.04"/>
<text xml:space="preserve" text-anchor="middle" x="210.25" y="-26.54" font-family="Helvetica,sans-Serif" font-size="10.00">Perft</text>
</a>
</g>
</g>
<!-- Node1&#45;&gt;Node5 -->
<g id="edge4_Node000001_Node000005" class="edge">
<title>Node1&#45;&gt;Node5</title>
<g id="a_edge4_Node000001_Node000005"><a xlink:title=" ">
<path fill="none" stroke="#63b8ff" d="M303.75,-70.99C279.63,-60.31 248.23,-46.41 228.92,-37.86"/>
<polygon fill="#63b8ff" stroke="#63b8ff" points="302.31,-74.18 312.87,-75.03 305.14,-67.78 302.31,-74.18"/>
</a>
</g>
</g>
<!-- Node6 -->
<g id="Node000006" class="node">
<title>Node6</title>
<g id="a_Node000006"><a xlink:href="perft_8cpp.html#a1b6b13d186dab20a18cec1a6b041220b" target="_top" xlink:title="Executes a perft test and prints move breakdown and timing.">
<polygon fill="white" stroke="#666666" points="128.75,-21.04 73,-21.04 73,-1.04 128.75,-1.04 128.75,-21.04"/>
<text xml:space="preserve" text-anchor="middle" x="100.88" y="-7.54" font-family="Helvetica,sans-Serif" font-size="10.00">PerftTest</text>
</a>
</g>
</g>
<!-- Node1&#45;&gt;Node6 -->
<g id="edge8_Node000001_Node000006" class="edge">
<title>Node1&#45;&gt;Node6</title>
<g id="a_edge8_Node000001_Node000006"><a xlink:title=" ">
<path fill="none" stroke="#63b8ff" d="M323.77,-66.81C309.16,-48.51 284.41,-22.17 255.75,-11.04 213.91,5.2 160.72,0.13 129.09,-5.28"/>
<polygon fill="#63b8ff" stroke="#63b8ff" points="320.84,-68.75 329.7,-74.56 326.4,-64.49 320.84,-68.75"/>
</a>
</g>
</g>
<!-- Node5&#45;&gt;Node5 -->
<g id="edge5_Node000005_Node000005" class="edge">
<title>Node5&#45;&gt;Node5</title>
<g id="a_edge5_Node000005_Node000005"><a xlink:title=" ">
<path fill="none" stroke="#63b8ff" d="M229.58,-51.49C227.09,-55.34 220.65,-58.04 210.25,-58.04 191.24,-58.04 185.44,-49.02 192.87,-40.38"/>
<polygon fill="#63b8ff" stroke="#63b8ff" points="233.07,-51.12 227.89,-41.87 226.18,-52.33 233.07,-51.12"/>
</a>
</g>
</g>
<!-- Node5&#45;&gt;Node6 -->
<g id="edge6_Node000005_Node000006" class="edge">
<title>Node5&#45;&gt;Node6</title>
<g id="a_edge6_Node000005_Node000006"><a xlink:title=" ">
<path fill="none" stroke="#63b8ff" d="M180.63,-24.98C164.58,-22.14 144.68,-18.62 128.9,-15.83"/>
<polygon fill="#63b8ff" stroke="#63b8ff" points="179.57,-28.35 190.03,-26.64 180.79,-21.45 179.57,-28.35"/>
</a>
</g>
</g>
<!-- Node7 -->
<g id="Node000007" class="node">
<title>Node7</title>
<g id="a_Node000007"><a xlink:href="main_8cpp.html#ae66f6b31b5ad750f1fe042a706a4e3d4" target="_top" xlink:title=" ">
<polygon fill="white" stroke="#666666" points="37,-21.04 0,-21.04 0,-1.04 37,-1.04 37,-21.04"/>
<text xml:space="preserve" text-anchor="middle" x="18.5" y="-7.54" font-family="Helvetica,sans-Serif" font-size="10.00">main</text>
</a>
</g>
</g>
<!-- Node6&#45;&gt;Node7 -->
<g id="edge7_Node000006_Node000007" class="edge">
<title>Node6&#45;&gt;Node7</title>
<g id="a_edge7_Node000006_Node000007"><a xlink:title=" ">
<path fill="none" stroke="#63b8ff" d="M61.39,-11.04C52.98,-11.04 44.47,-11.04 37.34,-11.04"/>
<polygon fill="#63b8ff" stroke="#63b8ff" points="61.15,-14.54 71.15,-11.04 61.15,-7.54 61.15,-14.54"/>
</a>
</g>
</g>
</g>
</svg>
</svg>

<style type='text/css'>
<![CDATA[
[data-mouse-over-selected='false'] { opacity: 0.7; }
[data-mouse-over-selected='true']  { opacity: 1.0; }
]]>
</style>
<script type="application/ecmascript"><![CDATA[
document.addEventListener('DOMContentLoaded', (event) => {
  highlightEdges();
  highlightAdjacentNodes();
});
]]></script>
</svg>
