<?xml version="1.0" encoding="UTF-8" standalone="no"?>
<!DOCTYPE svg PUBLIC "-//W3C//DTD SVG 1.1//EN"
 "http://www.w3.org/Graphics/SVG/1.1/DTD/svg11.dtd">
<!-- Generated by graphviz version 13.1.2 (20250808.2320)
 -->
<!-- Title: AddBlackPawnCapMove Pages: 1 -->
<svg width="647pt" height="218pt"
 viewBox="0.00 0.00 647.00 218.00" xmlns="http://www.w3.org/2000/svg" xmlns:xlink="http://www.w3.org/1999/xlink">
<g id="graph0" class="graph" transform="scale(1 1) rotate(0) translate(4 214)">
<title>AddBlackPawnCapMove</title>
<!-- Node1 -->
<g id="Node000001" class="node">
<title>Node1</title>
<g id="a_Node000001"><a xlink:title=" ">
<polygon fill="#999999" stroke="#666666" points="124.75,-96 0,-96 0,-76 124.75,-76 124.75,-96"/>
<text xml:space="preserve" text-anchor="middle" x="62.38" y="-82.5" font-family="Helvetica,sans-Serif" font-size="10.00">AddBlackPawnCapMove</text>
</a>
</g>
</g>
<!-- Node2 -->
<g id="Node000002" class="node">
<title>Node2</title>
<g id="a_Node000002"><a xlink:href="move__generator_8cpp.html#ad22de88ed58f37e575d4d3bbb7925329" target="_top" xlink:title=" ">
<polygon fill="white" stroke="#666666" points="256.25,-115 164.5,-115 164.5,-95 256.25,-95 256.25,-115"/>
<text xml:space="preserve" text-anchor="middle" x="210.38" y="-101.5" font-family="Helvetica,sans-Serif" font-size="10.00">AddCaptureMove</text>
</a>
</g>
</g>
<!-- Node1&#45;&gt;Node2 -->
<g id="edge1_Node000001_Node000002" class="edge">
<title>Node1&#45;&gt;Node2</title>
<g id="a_edge1_Node000001_Node000002"><a xlink:title=" ">
<path fill="none" stroke="#63b8ff" d="M124.87,-94C134.18,-95.21 143.76,-96.46 152.96,-97.66"/>
<polygon fill="#63b8ff" stroke="#63b8ff" points="152.5,-101.13 162.86,-98.95 153.4,-94.19 152.5,-101.13"/>
</a>
</g>
</g>
<!-- Node3 -->
<g id="Node000003" class="node">
<title>Node3</title>
<g id="a_Node000003"><a xlink:href="board_8cpp.html#a27f071824f45c724e8ddd02c72b39871" target="_top" xlink:title="Performs a full internal consistency check of the board state.">
<polygon fill="white" stroke="#666666" points="389.25,-172 296,-172 296,-152 389.25,-152 389.25,-172"/>
<text xml:space="preserve" text-anchor="middle" x="342.62" y="-158.5" font-family="Helvetica,sans-Serif" font-size="10.00">isBoardStateValid</text>
</a>
</g>
</g>
<!-- Node1&#45;&gt;Node3 -->
<g id="edge9_Node000001_Node000003" class="edge">
<title>Node1&#45;&gt;Node3</title>
<g id="a_edge9_Node000001_Node000003"><a xlink:title=" ">
<path fill="none" stroke="#63b8ff" d="M87,-96.49C106.49,-104.83 135.01,-116.33 160.75,-124 201.54,-136.15 248.62,-145.91 284.52,-152.5"/>
<polygon fill="#63b8ff" stroke="#63b8ff" points="283.81,-155.93 294.27,-154.26 285.05,-149.04 283.81,-155.93"/>
</a>
</g>
</g>
<!-- Node5 -->
<g id="Node000005" class="node">
<title>Node5</title>
<g id="a_Node000005"><a xlink:href="validate_8cpp.html#ad5a569564ef016ed02a4fef23d89d9c4" target="_top" xlink:title="Checks if a given square index refers to a valid on&#45;board square.">
<polygon fill="white" stroke="#666666" points="638.75,-153 572.5,-153 572.5,-133 638.75,-133 638.75,-153"/>
<text xml:space="preserve" text-anchor="middle" x="605.62" y="-139.5" font-family="Helvetica,sans-Serif" font-size="10.00">SqOnBoard</text>
</a>
</g>
</g>
<!-- Node1&#45;&gt;Node5 -->
<g id="edge11_Node000001_Node000005" class="edge">
<title>Node1&#45;&gt;Node5</title>
<g id="a_edge11_Node000001_Node000005"><a xlink:title=" ">
<path fill="none" stroke="#63b8ff" d="M116.85,-75.5C181.75,-64.45 294.29,-50.74 389.25,-67 456.88,-78.58 531.48,-109.23 572.73,-127.88"/>
<polygon fill="#63b8ff" stroke="#63b8ff" points="571.04,-130.95 581.59,-131.94 573.96,-124.59 571.04,-130.95"/>
</a>
</g>
</g>
<!-- Node8 -->
<g id="Node000008" class="node">
<title>Node8</title>
<g id="a_Node000008"><a xlink:href="validate_8cpp.html#ac8317193b0ce2ab0c3d8d0f212cdd2b6" target="_top" xlink:title="Checks if the given piece code is either empty or a valid piece.">
<polygon fill="white" stroke="#666666" points="260,-20 160.75,-20 160.75,0 260,0 260,-20"/>
<text xml:space="preserve" text-anchor="middle" x="210.38" y="-6.5" font-family="Helvetica,sans-Serif" font-size="10.00">pieceValueidEmpty</text>
</a>
</g>
</g>
<!-- Node1&#45;&gt;Node8 -->
<g id="edge10_Node000001_Node000008" class="edge">
<title>Node1&#45;&gt;Node8</title>
<g id="a_edge10_Node000001_Node000008"><a xlink:title=" ">
<path fill="none" stroke="#63b8ff" d="M82.31,-75.66C101.87,-65.03 133.3,-48.1 160.75,-34 166.3,-31.15 172.23,-28.17 177.98,-25.31"/>
<polygon fill="#63b8ff" stroke="#63b8ff" points="179.22,-28.6 186.64,-21.04 176.13,-22.32 179.22,-28.6"/>
</a>
</g>
</g>
<!-- Node2&#45;&gt;Node3 -->
<g id="edge2_Node000002_Node000003" class="edge">
<title>Node2&#45;&gt;Node3</title>
<g id="a_edge2_Node000002_Node000003"><a xlink:title=" ">
<path fill="none" stroke="#63b8ff" d="M235.26,-115.45C255.55,-124.33 284.91,-137.18 307.65,-147.13"/>
<polygon fill="#63b8ff" stroke="#63b8ff" points="305.94,-150.2 316.5,-151 308.74,-143.79 305.94,-150.2"/>
</a>
</g>
</g>
<!-- Node2&#45;&gt;Node5 -->
<g id="edge8_Node000002_Node000005" class="edge">
<title>Node2&#45;&gt;Node5</title>
<g id="a_edge8_Node000002_Node000005"><a xlink:title=" ">
<path fill="none" stroke="#63b8ff" d="M256.49,-109.36C332.61,-116.71 485.6,-131.5 560.83,-138.77"/>
<polygon fill="#63b8ff" stroke="#63b8ff" points="560.41,-142.24 570.7,-139.72 561.09,-135.28 560.41,-142.24"/>
</a>
</g>
</g>
<!-- Node7 -->
<g id="Node000007" class="node">
<title>Node7</title>
<g id="a_Node000007"><a xlink:href="validate_8cpp.html#aca205110cd18879d0e0a965dee34b776" target="_top" xlink:title="Checks if the given piece code is a valid piece (non&#45;empty).">
<polygon fill="white" stroke="#666666" points="378,-96 307.25,-96 307.25,-76 378,-76 378,-96"/>
<text xml:space="preserve" text-anchor="middle" x="342.62" y="-82.5" font-family="Helvetica,sans-Serif" font-size="10.00">pieceValueid</text>
</a>
</g>
</g>
<!-- Node2&#45;&gt;Node7 -->
<g id="edge7_Node000002_Node000007" class="edge">
<title>Node2&#45;&gt;Node7</title>
<g id="a_edge7_Node000002_Node000007"><a xlink:title=" ">
<path fill="none" stroke="#63b8ff" d="M256.56,-98.41C269.17,-96.57 282.87,-94.57 295.52,-92.73"/>
<polygon fill="#63b8ff" stroke="#63b8ff" points="295.9,-96.21 305.29,-91.3 294.89,-89.28 295.9,-96.21"/>
</a>
</g>
</g>
<!-- Node4 -->
<g id="Node000004" class="node">
<title>Node4</title>
<g id="a_Node000004"><a xlink:href="hash__keys_8cpp.html#a8c1832e1dfd853cce944ddd2df57dd53" target="_top" xlink:title="Generates a Zobrist hash key for the given board position.">
<polygon fill="white" stroke="#666666" points="536.5,-210 425.25,-210 425.25,-190 536.5,-190 536.5,-210"/>
<text xml:space="preserve" text-anchor="middle" x="480.88" y="-196.5" font-family="Helvetica,sans-Serif" font-size="10.00">generatePositionKeys</text>
</a>
</g>
</g>
<!-- Node3&#45;&gt;Node4 -->
<g id="edge3_Node000003_Node000004" class="edge">
<title>Node3&#45;&gt;Node4</title>
<g id="a_edge3_Node000003_Node000004"><a xlink:title=" ">
<path fill="none" stroke="#63b8ff" d="M381.22,-172.48C396.7,-176.8 414.85,-181.86 431.32,-186.46"/>
<polygon fill="#63b8ff" stroke="#63b8ff" points="430.38,-189.83 440.95,-189.14 432.26,-183.09 430.38,-189.83"/>
</a>
</g>
</g>
<!-- Node6 -->
<g id="Node000006" class="node">
<title>Node6</title>
<g id="a_Node000006"><a xlink:href="board_8cpp.html#addbaf4fbab51f8032e0e7aabbffeab96" target="_top" xlink:title="Validate that piece list array is consistent with board state.">
<polygon fill="white" stroke="#666666" points="523.38,-172 438.38,-172 438.38,-152 523.38,-152 523.38,-172"/>
<text xml:space="preserve" text-anchor="middle" x="480.88" y="-158.5" font-family="Helvetica,sans-Serif" font-size="10.00">isPieceListValid</text>
</a>
</g>
</g>
<!-- Node3&#45;&gt;Node6 -->
<g id="edge5_Node000003_Node000006" class="edge">
<title>Node3&#45;&gt;Node6</title>
<g id="a_edge5_Node000003_Node000006"><a xlink:title=" ">
<path fill="none" stroke="#63b8ff" d="M389.37,-162C401.45,-162 414.58,-162 427,-162"/>
<polygon fill="#63b8ff" stroke="#63b8ff" points="426.63,-165.5 436.63,-162 426.63,-158.5 426.63,-165.5"/>
</a>
</g>
</g>
<!-- Node4&#45;&gt;Node5 -->
<g id="edge4_Node000004_Node000005" class="edge">
<title>Node4&#45;&gt;Node5</title>
<g id="a_edge4_Node000004_Node000005"><a xlink:title=" ">
<path fill="none" stroke="#63b8ff" d="M514.88,-189.56C522.1,-186.99 529.63,-184.08 536.5,-181 550.69,-174.63 565.86,-166.33 578.27,-159.11"/>
<polygon fill="#63b8ff" stroke="#63b8ff" points="579.85,-162.25 586.67,-154.14 576.28,-156.22 579.85,-162.25"/>
</a>
</g>
</g>
<!-- Node6&#45;&gt;Node5 -->
<g id="edge6_Node000006_Node000005" class="edge">
<title>Node6&#45;&gt;Node5</title>
<g id="a_edge6_Node000006_Node000005"><a xlink:title=" ">
<path fill="none" stroke="#63b8ff" d="M523.78,-155.51C535.78,-153.66 548.88,-151.63 560.99,-149.75"/>
<polygon fill="#63b8ff" stroke="#63b8ff" points="561.37,-153.24 570.72,-148.25 560.3,-146.32 561.37,-153.24"/>
</a>
</g>
</g>
</g>
</svg>
