<?xml version="1.0" encoding="UTF-8" standalone="no"?>
<!DOCTYPE svg PUBLIC "-//W3C//DTD SVG 1.1//EN"
 "http://www.w3.org/Graphics/SVG/1.1/DTD/svg11.dtd">
<!-- Generated by graphviz version 13.1.2 (20250808.2320)
 -->
<!-- Title: AddBlackPawnMove Pages: 1 -->
<svg width="610pt" height="117pt"
 viewBox="0.00 0.00 610.00 117.00" xmlns="http://www.w3.org/2000/svg" xmlns:xlink="http://www.w3.org/1999/xlink">
<g id="graph0" class="graph" transform="scale(1 1) rotate(0) translate(4 113.36)">
<title>AddBlackPawnMove</title>
<!-- Node1 -->
<g id="Node000001" class="node">
<title>Node1</title>
<g id="a_Node000001"><a xlink:title=" ">
<polygon fill="#999999" stroke="#666666" points="106.75,-33.36 0,-33.36 0,-13.36 106.75,-13.36 106.75,-33.36"/>
<text xml:space="preserve" text-anchor="middle" x="53.38" y="-19.86" font-family="Helvetica,sans-Serif" font-size="10.00">AddBlackPawnMove</text>
</a>
</g>
</g>
<!-- Node2 -->
<g id="Node000002" class="node">
<title>Node2</title>
<g id="a_Node000002"><a xlink:href="move__generator_8cpp.html#a3a38227acc56d0a4f2531c45bbf17a43" target="_top" xlink:title=" ">
<polygon fill="white" stroke="#666666" points="223.25,-33.36 142.75,-33.36 142.75,-13.36 223.25,-13.36 223.25,-33.36"/>
<text xml:space="preserve" text-anchor="middle" x="183" y="-19.86" font-family="Helvetica,sans-Serif" font-size="10.00">AddQuietMove</text>
</a>
</g>
</g>
<!-- Node1&#45;&gt;Node2 -->
<g id="edge1_Node000001_Node000002" class="edge">
<title>Node1&#45;&gt;Node2</title>
<g id="a_edge1_Node000001_Node000002"><a xlink:title=" ">
<path fill="none" stroke="#63b8ff" d="M107.02,-23.36C114.96,-23.36 123.13,-23.36 131.03,-23.36"/>
<polygon fill="#63b8ff" stroke="#63b8ff" points="130.83,-26.86 140.83,-23.36 130.83,-19.86 130.83,-26.86"/>
</a>
</g>
</g>
<!-- Node3 -->
<g id="Node000003" class="node">
<title>Node3</title>
<g id="a_Node000003"><a xlink:href="board_8cpp.html#a27f071824f45c724e8ddd02c72b39871" target="_top" xlink:title="Performs a full internal consistency check of the board state.">
<polygon fill="white" stroke="#666666" points="352.5,-71.36 259.25,-71.36 259.25,-51.36 352.5,-51.36 352.5,-71.36"/>
<text xml:space="preserve" text-anchor="middle" x="305.88" y="-57.86" font-family="Helvetica,sans-Serif" font-size="10.00">isBoardStateValid</text>
</a>
</g>
</g>
<!-- Node1&#45;&gt;Node3 -->
<g id="edge8_Node000001_Node000003" class="edge">
<title>Node1&#45;&gt;Node3</title>
<g id="a_edge8_Node000001_Node000003"><a xlink:title=" ">
<path fill="none" stroke="#63b8ff" d="M99.18,-33.85C113.09,-36.88 128.51,-40 142.75,-42.36 177.49,-48.11 216.69,-52.76 247.85,-56.01"/>
<polygon fill="#63b8ff" stroke="#63b8ff" points="247.13,-59.46 257.43,-57 247.84,-52.5 247.13,-59.46"/>
</a>
</g>
</g>
<!-- Node5 -->
<g id="Node000005" class="node">
<title>Node5</title>
<g id="a_Node000005"><a xlink:href="validate_8cpp.html#ad5a569564ef016ed02a4fef23d89d9c4" target="_top" xlink:title="Checks if a given square index refers to a valid on&#45;board square.">
<polygon fill="white" stroke="#666666" points="602,-52.36 535.75,-52.36 535.75,-32.36 602,-32.36 602,-52.36"/>
<text xml:space="preserve" text-anchor="middle" x="568.88" y="-38.86" font-family="Helvetica,sans-Serif" font-size="10.00">SqOnBoard</text>
</a>
</g>
</g>
<!-- Node1&#45;&gt;Node5 -->
<g id="edge9_Node000001_Node000005" class="edge">
<title>Node1&#45;&gt;Node5</title>
<g id="a_edge9_Node000001_Node000005"><a xlink:title=" ">
<path fill="none" stroke="#63b8ff" d="M94.12,-12.94C109.23,-9.48 126.68,-6.07 142.75,-4.36 281.87,10.43 447.03,-17.27 524.14,-32.82"/>
<polygon fill="#63b8ff" stroke="#63b8ff" points="523.32,-36.23 533.82,-34.81 524.73,-29.37 523.32,-36.23"/>
</a>
</g>
</g>
<!-- Node2&#45;&gt;Node3 -->
<g id="edge2_Node000002_Node000003" class="edge">
<title>Node2&#45;&gt;Node3</title>
<g id="a_edge2_Node000002_Node000003"><a xlink:title=" ">
<path fill="none" stroke="#63b8ff" d="M217.35,-33.84C230.83,-38.08 246.57,-43.03 260.95,-47.55"/>
<polygon fill="#63b8ff" stroke="#63b8ff" points="259.6,-50.79 270.19,-50.45 261.7,-44.12 259.6,-50.79"/>
</a>
</g>
</g>
<!-- Node2&#45;&gt;Node5 -->
<g id="edge7_Node000002_Node000005" class="edge">
<title>Node2&#45;&gt;Node5</title>
<g id="a_edge7_Node000002_Node000005"><a xlink:title=" ">
<path fill="none" stroke="#63b8ff" d="M223.64,-25.32C295.91,-28.9 448.61,-36.46 523.95,-40.18"/>
<polygon fill="#63b8ff" stroke="#63b8ff" points="523.68,-43.67 533.84,-40.67 524.03,-36.68 523.68,-43.67"/>
</a>
</g>
</g>
<!-- Node4 -->
<g id="Node000004" class="node">
<title>Node4</title>
<g id="a_Node000004"><a xlink:href="hash__keys_8cpp.html#a8c1832e1dfd853cce944ddd2df57dd53" target="_top" xlink:title="Generates a Zobrist hash key for the given board position.">
<polygon fill="white" stroke="#666666" points="499.75,-109.36 388.5,-109.36 388.5,-89.36 499.75,-89.36 499.75,-109.36"/>
<text xml:space="preserve" text-anchor="middle" x="444.12" y="-95.86" font-family="Helvetica,sans-Serif" font-size="10.00">generatePositionKeys</text>
</a>
</g>
</g>
<!-- Node3&#45;&gt;Node4 -->
<g id="edge3_Node000003_Node000004" class="edge">
<title>Node3&#45;&gt;Node4</title>
<g id="a_edge3_Node000003_Node000004"><a xlink:title=" ">
<path fill="none" stroke="#63b8ff" d="M344.47,-71.84C359.95,-76.16 378.1,-81.22 394.57,-85.82"/>
<polygon fill="#63b8ff" stroke="#63b8ff" points="393.63,-89.19 404.2,-88.5 395.51,-82.44 393.63,-89.19"/>
</a>
</g>
</g>
<!-- Node6 -->
<g id="Node000006" class="node">
<title>Node6</title>
<g id="a_Node000006"><a xlink:href="board_8cpp.html#addbaf4fbab51f8032e0e7aabbffeab96" target="_top" xlink:title="Validate that piece list array is consistent with board state.">
<polygon fill="white" stroke="#666666" points="486.62,-71.36 401.62,-71.36 401.62,-51.36 486.62,-51.36 486.62,-71.36"/>
<text xml:space="preserve" text-anchor="middle" x="444.12" y="-57.86" font-family="Helvetica,sans-Serif" font-size="10.00">isPieceListValid</text>
</a>
</g>
</g>
<!-- Node3&#45;&gt;Node6 -->
<g id="edge5_Node000003_Node000006" class="edge">
<title>Node3&#45;&gt;Node6</title>
<g id="a_edge5_Node000003_Node000006"><a xlink:title=" ">
<path fill="none" stroke="#63b8ff" d="M352.62,-61.36C364.7,-61.36 377.83,-61.36 390.25,-61.36"/>
<polygon fill="#63b8ff" stroke="#63b8ff" points="389.88,-64.86 399.88,-61.36 389.88,-57.86 389.88,-64.86"/>
</a>
</g>
</g>
<!-- Node4&#45;&gt;Node5 -->
<g id="edge4_Node000004_Node000005" class="edge">
<title>Node4&#45;&gt;Node5</title>
<g id="a_edge4_Node000004_Node000005"><a xlink:title=" ">
<path fill="none" stroke="#63b8ff" d="M478.13,-88.92C485.35,-86.35 492.88,-83.44 499.75,-80.36 513.94,-73.99 529.11,-65.69 541.52,-58.47"/>
<polygon fill="#63b8ff" stroke="#63b8ff" points="543.1,-61.61 549.92,-53.5 539.53,-55.58 543.1,-61.61"/>
</a>
</g>
</g>
<!-- Node6&#45;&gt;Node5 -->
<g id="edge6_Node000006_Node000005" class="edge">
<title>Node6&#45;&gt;Node5</title>
<g id="a_edge6_Node000006_Node000005"><a xlink:title=" ">
<path fill="none" stroke="#63b8ff" d="M487.03,-54.87C499.03,-53.02 512.13,-50.99 524.24,-49.11"/>
<polygon fill="#63b8ff" stroke="#63b8ff" points="524.62,-52.6 533.97,-47.61 523.55,-45.68 524.62,-52.6"/>
</a>
</g>
</g>
</g>
</svg>
