<?xml version="1.0" encoding="UTF-8" standalone="no"?>
<!DOCTYPE svg PUBLIC "-//W3C//DTD SVG 1.1//EN"
 "http://www.w3.org/Graphics/SVG/1.1/DTD/svg11.dtd">
<!-- Generated by graphviz version 13.1.2 (20250808.2320)
 -->
<!-- Title: AddWhitePawnMove Pages: 1 -->
<svg width="611pt" height="117pt"
 viewBox="0.00 0.00 611.00 117.00" xmlns="http://www.w3.org/2000/svg" xmlns:xlink="http://www.w3.org/1999/xlink">
<g id="graph0" class="graph" transform="scale(1 1) rotate(0) translate(4 113.33)">
<title>AddWhitePawnMove</title>
<!-- Node1 -->
<g id="Node000001" class="node">
<title>Node1</title>
<g id="a_Node000001"><a xlink:title=" ">
<polygon fill="#999999" stroke="#666666" points="107.5,-33.33 0,-33.33 0,-13.33 107.5,-13.33 107.5,-33.33"/>
<text xml:space="preserve" text-anchor="middle" x="53.75" y="-19.83" font-family="Helvetica,sans-Serif" font-size="10.00">AddWhitePawnMove</text>
</a>
</g>
</g>
<!-- Node2 -->
<g id="Node000002" class="node">
<title>Node2</title>
<g id="a_Node000002"><a xlink:href="move__generator_8cpp.html#a3a38227acc56d0a4f2531c45bbf17a43" target="_top" xlink:title=" ">
<polygon fill="white" stroke="#666666" points="224,-33.33 143.5,-33.33 143.5,-13.33 224,-13.33 224,-33.33"/>
<text xml:space="preserve" text-anchor="middle" x="183.75" y="-19.83" font-family="Helvetica,sans-Serif" font-size="10.00">AddQuietMove</text>
</a>
</g>
</g>
<!-- Node1&#45;&gt;Node2 -->
<g id="edge1_Node000001_Node000002" class="edge">
<title>Node1&#45;&gt;Node2</title>
<g id="a_edge1_Node000001_Node000002"><a xlink:title=" ">
<path fill="none" stroke="#63b8ff" d="M107.92,-23.33C115.86,-23.33 124.03,-23.33 131.91,-23.33"/>
<polygon fill="#63b8ff" stroke="#63b8ff" points="131.7,-26.83 141.7,-23.33 131.7,-19.83 131.7,-26.83"/>
</a>
</g>
</g>
<!-- Node3 -->
<g id="Node000003" class="node">
<title>Node3</title>
<g id="a_Node000003"><a xlink:href="board_8cpp.html#a27f071824f45c724e8ddd02c72b39871" target="_top" xlink:title="Performs a full internal consistency check of the board state.">
<polygon fill="white" stroke="#666666" points="353.25,-71.33 260,-71.33 260,-51.33 353.25,-51.33 353.25,-71.33"/>
<text xml:space="preserve" text-anchor="middle" x="306.62" y="-57.83" font-family="Helvetica,sans-Serif" font-size="10.00">isBoardStateValid</text>
</a>
</g>
</g>
<!-- Node1&#45;&gt;Node3 -->
<g id="edge8_Node000001_Node000003" class="edge">
<title>Node1&#45;&gt;Node3</title>
<g id="a_edge8_Node000001_Node000003"><a xlink:title=" ">
<path fill="none" stroke="#63b8ff" d="M99.74,-33.82C113.71,-36.85 129.2,-39.97 143.5,-42.33 178.24,-48.07 217.44,-52.72 248.6,-55.97"/>
<polygon fill="#63b8ff" stroke="#63b8ff" points="247.88,-59.42 258.18,-56.96 248.59,-52.46 247.88,-59.42"/>
</a>
</g>
</g>
<!-- Node5 -->
<g id="Node000005" class="node">
<title>Node5</title>
<g id="a_Node000005"><a xlink:href="validate_8cpp.html#ad5a569564ef016ed02a4fef23d89d9c4" target="_top" xlink:title="Checks if a given square index refers to a valid on&#45;board square.">
<polygon fill="white" stroke="#666666" points="602.75,-52.33 536.5,-52.33 536.5,-32.33 602.75,-32.33 602.75,-52.33"/>
<text xml:space="preserve" text-anchor="middle" x="569.62" y="-38.83" font-family="Helvetica,sans-Serif" font-size="10.00">SqOnBoard</text>
</a>
</g>
</g>
<!-- Node1&#45;&gt;Node5 -->
<g id="edge9_Node000001_Node000005" class="edge">
<title>Node1&#45;&gt;Node5</title>
<g id="a_edge9_Node000001_Node000005"><a xlink:title=" ">
<path fill="none" stroke="#63b8ff" d="M94.67,-12.91C109.84,-9.45 127.36,-6.04 143.5,-4.33 282.63,10.4 447.78,-17.27 524.89,-32.81"/>
<polygon fill="#63b8ff" stroke="#63b8ff" points="524.07,-36.21 534.57,-34.79 525.48,-29.36 524.07,-36.21"/>
</a>
</g>
</g>
<!-- Node2&#45;&gt;Node3 -->
<g id="edge2_Node000002_Node000003" class="edge">
<title>Node2&#45;&gt;Node3</title>
<g id="a_edge2_Node000002_Node000003"><a xlink:title=" ">
<path fill="none" stroke="#63b8ff" d="M218.1,-33.81C231.58,-38.05 247.32,-43 261.7,-47.52"/>
<polygon fill="#63b8ff" stroke="#63b8ff" points="260.35,-50.77 270.94,-50.43 262.45,-44.09 260.35,-50.77"/>
</a>
</g>
</g>
<!-- Node2&#45;&gt;Node5 -->
<g id="edge7_Node000002_Node000005" class="edge">
<title>Node2&#45;&gt;Node5</title>
<g id="a_edge7_Node000002_Node000005"><a xlink:title=" ">
<path fill="none" stroke="#63b8ff" d="M224.39,-25.29C296.66,-28.87 449.36,-36.43 524.7,-40.16"/>
<polygon fill="#63b8ff" stroke="#63b8ff" points="524.43,-43.65 534.59,-40.65 524.78,-36.66 524.43,-43.65"/>
</a>
</g>
</g>
<!-- Node4 -->
<g id="Node000004" class="node">
<title>Node4</title>
<g id="a_Node000004"><a xlink:href="hash__keys_8cpp.html#a8c1832e1dfd853cce944ddd2df57dd53" target="_top" xlink:title="Generates a Zobrist hash key for the given board position.">
<polygon fill="white" stroke="#666666" points="500.5,-109.33 389.25,-109.33 389.25,-89.33 500.5,-89.33 500.5,-109.33"/>
<text xml:space="preserve" text-anchor="middle" x="444.88" y="-95.83" font-family="Helvetica,sans-Serif" font-size="10.00">generatePositionKeys</text>
</a>
</g>
</g>
<!-- Node3&#45;&gt;Node4 -->
<g id="edge3_Node000003_Node000004" class="edge">
<title>Node3&#45;&gt;Node4</title>
<g id="a_edge3_Node000003_Node000004"><a xlink:title=" ">
<path fill="none" stroke="#63b8ff" d="M345.22,-71.81C360.7,-76.13 378.85,-81.19 395.32,-85.79"/>
<polygon fill="#63b8ff" stroke="#63b8ff" points="394.38,-89.16 404.95,-88.47 396.26,-82.42 394.38,-89.16"/>
</a>
</g>
</g>
<!-- Node6 -->
<g id="Node000006" class="node">
<title>Node6</title>
<g id="a_Node000006"><a xlink:href="board_8cpp.html#addbaf4fbab51f8032e0e7aabbffeab96" target="_top" xlink:title="Validate that piece list array is consistent with board state.">
<polygon fill="white" stroke="#666666" points="487.38,-71.33 402.38,-71.33 402.38,-51.33 487.38,-51.33 487.38,-71.33"/>
<text xml:space="preserve" text-anchor="middle" x="444.88" y="-57.83" font-family="Helvetica,sans-Serif" font-size="10.00">isPieceListValid</text>
</a>
</g>
</g>
<!-- Node3&#45;&gt;Node6 -->
<g id="edge5_Node000003_Node000006" class="edge">
<title>Node3&#45;&gt;Node6</title>
<g id="a_edge5_Node000003_Node000006"><a xlink:title=" ">
<path fill="none" stroke="#63b8ff" d="M353.37,-61.33C365.45,-61.33 378.58,-61.33 391,-61.33"/>
<polygon fill="#63b8ff" stroke="#63b8ff" points="390.63,-64.83 400.63,-61.33 390.63,-57.83 390.63,-64.83"/>
</a>
</g>
</g>
<!-- Node4&#45;&gt;Node5 -->
<g id="edge4_Node000004_Node000005" class="edge">
<title>Node4&#45;&gt;Node5</title>
<g id="a_edge4_Node000004_Node000005"><a xlink:title=" ">
<path fill="none" stroke="#63b8ff" d="M478.88,-88.89C486.1,-86.32 493.63,-83.41 500.5,-80.33 514.69,-73.96 529.86,-65.66 542.27,-58.44"/>
<polygon fill="#63b8ff" stroke="#63b8ff" points="543.85,-61.58 550.67,-53.47 540.28,-55.55 543.85,-61.58"/>
</a>
</g>
</g>
<!-- Node6&#45;&gt;Node5 -->
<g id="edge6_Node000006_Node000005" class="edge">
<title>Node6&#45;&gt;Node5</title>
<g id="a_edge6_Node000006_Node000005"><a xlink:title=" ">
<path fill="none" stroke="#63b8ff" d="M487.78,-54.85C499.78,-52.99 512.88,-50.96 524.99,-49.09"/>
<polygon fill="#63b8ff" stroke="#63b8ff" points="525.37,-52.57 534.72,-47.58 524.3,-45.65 525.37,-52.57"/>
</a>
</g>
</g>
</g>
</svg>
