<?xml version="1.0" encoding="UTF-8" standalone="no"?>
<!DOCTYPE svg PUBLIC "-//W3C//DTD SVG 1.1//EN"
 "http://www.w3.org/Graphics/SVG/1.1/DTD/svg11.dtd">
<!-- Generated by graphviz version 13.1.2 (20250808.2320)
 -->
<!-- Title: notation.h Pages: 1 -->
<svg width="358pt" height="84pt"
 viewBox="0.00 0.00 358.00 84.00" xmlns="http://www.w3.org/2000/svg" xmlns:xlink="http://www.w3.org/1999/xlink">

<svg id="main" version="1.1" xmlns="http://www.w3.org/2000/svg" xmlns:xlink="http://www.w3.org/1999/xlink" xml:space="preserve">

<style type="text/css"><![CDATA[
.node, .edge {opacity: 0.7;}
.node.selected, .edge.selected {opacity: 1;}
.edge:hover path { stroke: red; }
.edge:hover polygon { stroke: red; fill: red; }
]]></style>
<script type="application/ecmascript" xlink:href="svg.min.js"/>
<svg id="graph" class="graph">
<g id="graph0" class="graph" transform="scale(1 1) rotate(0) translate(4 80)">
<title>notation.h</title>
<!-- Node1 -->
<g id="Node000001" class="node">
<title>Node1</title>
<g id="a_Node000001"><a xlink:title=" ">
<polygon fill="#999999" stroke="#666666" points="231.62,-76 172.88,-76 172.88,-56 231.62,-56 231.62,-76"/>
<text xml:space="preserve" text-anchor="middle" x="202.25" y="-62.5" font-family="Helvetica,sans-Serif" font-size="10.00">notation.h</text>
</a>
</g>
</g>
<!-- Node2 -->
<g id="Node000002" class="node">
<title>Node2</title>
<g id="a_Node000002"><a xlink:href="interactive__helpers_8cpp.html" target="_top" xlink:title=" ">
<polygon fill="white" stroke="#666666" points="116.5,-20 0,-20 0,0 116.5,0 116.5,-20"/>
<text xml:space="preserve" text-anchor="middle" x="58.25" y="-6.5" font-family="Helvetica,sans-Serif" font-size="10.00">interactive_helpers.cpp</text>
</a>
</g>
</g>
<!-- Node1&#45;&gt;Node2 -->
<g id="edge1_Node000001_Node000002" class="edge">
<title>Node1&#45;&gt;Node2</title>
<g id="a_edge1_Node000001_Node000002"><a xlink:title=" ">
<path fill="none" stroke="#63b8ff" d="M166.68,-51.66C140.87,-41.98 106.58,-29.12 83.53,-20.48"/>
<polygon fill="#63b8ff" stroke="#63b8ff" points="165.16,-54.83 175.75,-55.06 167.62,-48.27 165.16,-54.83"/>
</a>
</g>
</g>
<!-- Node3 -->
<g id="Node000003" class="node">
<title>Node3</title>
<g id="a_Node000003"><a xlink:href="main_8cpp.html" target="_top" xlink:title=" ">
<polygon fill="white" stroke="#666666" points="190.12,-20 134.38,-20 134.38,0 190.12,0 190.12,-20"/>
<text xml:space="preserve" text-anchor="middle" x="162.25" y="-6.5" font-family="Helvetica,sans-Serif" font-size="10.00">main.cpp</text>
</a>
</g>
</g>
<!-- Node1&#45;&gt;Node3 -->
<g id="edge2_Node000001_Node000003" class="edge">
<title>Node1&#45;&gt;Node3</title>
<g id="a_edge2_Node000001_Node000003"><a xlink:title=" ">
<path fill="none" stroke="#63b8ff" d="M188.5,-46.44C181.97,-37.62 174.45,-27.47 169.14,-20.3"/>
<polygon fill="#63b8ff" stroke="#63b8ff" points="185.62,-48.43 194.38,-54.38 191.24,-44.26 185.62,-48.43"/>
</a>
</g>
</g>
<!-- Node4 -->
<g id="Node000004" class="node">
<title>Node4</title>
<g id="a_Node000004"><a xlink:href="notation_8cpp.html" target="_top" xlink:title=" ">
<polygon fill="white" stroke="#666666" points="277.88,-20 208.62,-20 208.62,0 277.88,0 277.88,-20"/>
<text xml:space="preserve" text-anchor="middle" x="243.25" y="-6.5" font-family="Helvetica,sans-Serif" font-size="10.00">notation.cpp</text>
</a>
</g>
</g>
<!-- Node1&#45;&gt;Node4 -->
<g id="edge3_Node000001_Node000004" class="edge">
<title>Node1&#45;&gt;Node4</title>
<g id="a_edge3_Node000001_Node000004"><a xlink:title=" ">
<path fill="none" stroke="#63b8ff" d="M216.34,-46.44C223.04,-37.62 230.75,-27.47 236.19,-20.3"/>
<polygon fill="#63b8ff" stroke="#63b8ff" points="213.57,-44.31 210.31,-54.39 219.14,-48.54 213.57,-44.31"/>
</a>
</g>
</g>
<!-- Node5 -->
<g id="Node000005" class="node">
<title>Node5</title>
<g id="a_Node000005"><a xlink:href="perft_8cpp.html" target="_top" xlink:title=" ">
<polygon fill="white" stroke="#666666" points="350.38,-20 296.12,-20 296.12,0 350.38,0 350.38,-20"/>
<text xml:space="preserve" text-anchor="middle" x="323.25" y="-6.5" font-family="Helvetica,sans-Serif" font-size="10.00">perft.cpp</text>
</a>
</g>
</g>
<!-- Node1&#45;&gt;Node5 -->
<g id="edge4_Node000001_Node000005" class="edge">
<title>Node1&#45;&gt;Node5</title>
<g id="a_edge4_Node000001_Node000005"><a xlink:title=" ">
<path fill="none" stroke="#63b8ff" d="M233.6,-51.01C255.11,-41.41 283.07,-28.93 302.01,-20.48"/>
<polygon fill="#63b8ff" stroke="#63b8ff" points="232.41,-47.71 224.71,-54.98 235.27,-54.1 232.41,-47.71"/>
</a>
</g>
</g>
</g>
</svg>
</svg>

<style type='text/css'>
<![CDATA[
[data-mouse-over-selected='false'] { opacity: 0.7; }
[data-mouse-over-selected='true']  { opacity: 1.0; }
]]>
</style>
<script type="application/ecmascript"><![CDATA[
document.addEventListener('DOMContentLoaded', (event) => {
  highlightEdges();
  highlightAdjacentNodes();
});
]]></script>
</svg>
