<?xml version="1.0" encoding="UTF-8" standalone="no"?>
<!DOCTYPE svg PUBLIC "-//W3C//DTD SVG 1.1//EN"
 "http://www.w3.org/Graphics/SVG/1.1/DTD/svg11.dtd">
<!-- Generated by graphviz version 13.1.2 (20250808.2320)
 -->
<!-- Title: setup.h Pages: 1 -->
<svg width="864pt" height="140pt"
 viewBox="0.00 0.00 864.00 140.00" xmlns="http://www.w3.org/2000/svg" xmlns:xlink="http://www.w3.org/1999/xlink">
<g id="graph0" class="graph" transform="scale(1 1) rotate(0) translate(4 136)">
<title>setup.h</title>
<!-- Node1 -->
<g id="Node000001" class="node">
<title>Node1</title>
<g id="a_Node000001"><a xlink:title=" ">
<polygon fill="#999999" stroke="#666666" points="417.38,-132 369.12,-132 369.12,-112 417.38,-112 417.38,-132"/>
<text xml:space="preserve" text-anchor="middle" x="393.25" y="-118.5" font-family="Helvetica,sans-Serif" font-size="10.00">setup.h</text>
</a>
</g>
</g>
<!-- Node2 -->
<g id="Node000002" class="node">
<title>Node2</title>
<g id="a_Node000002"><a xlink:href="bitboards_8cpp.html" target="_top" xlink:title=" ">
<polygon fill="white" stroke="#666666" points="74.5,-76 0,-76 0,-56 74.5,-56 74.5,-76"/>
<text xml:space="preserve" text-anchor="middle" x="37.25" y="-62.5" font-family="Helvetica,sans-Serif" font-size="10.00">bitboards.cpp</text>
</a>
</g>
</g>
<!-- Node1&#45;&gt;Node2 -->
<g id="edge1_Node000001_Node000002" class="edge">
<title>Node1&#45;&gt;Node2</title>
<g id="a_edge1_Node000001_Node000002"><a xlink:title=" ">
<path fill="none" stroke="#63b8ff" d="M357.44,-116.05C300.4,-108.09 185.42,-91.74 88.25,-76 83.9,-75.3 79.35,-74.53 74.83,-73.76"/>
<polygon fill="#63b8ff" stroke="#63b8ff" points="356.82,-119.5 367.2,-117.41 357.78,-112.56 356.82,-119.5"/>
</a>
</g>
</g>
<!-- Node3 -->
<g id="Node000003" class="node">
<title>Node3</title>
<g id="a_Node000003"><a xlink:href="board_8cpp.html" target="_top" xlink:title=" ">
<polygon fill="white" stroke="#666666" points="213.62,-20 154.88,-20 154.88,0 213.62,0 213.62,-20"/>
<text xml:space="preserve" text-anchor="middle" x="184.25" y="-6.5" font-family="Helvetica,sans-Serif" font-size="10.00">board.cpp</text>
</a>
</g>
</g>
<!-- Node1&#45;&gt;Node3 -->
<g id="edge2_Node000001_Node000003" class="edge">
<title>Node1&#45;&gt;Node3</title>
<g id="a_edge2_Node000001_Node000003"><a xlink:title=" ">
<path fill="none" stroke="#63b8ff" d="M357.77,-120.58C291.11,-118.95 151.19,-111.3 121.25,-76 103.56,-55.15 139.02,-32.61 163.56,-20.32"/>
<polygon fill="#63b8ff" stroke="#63b8ff" points="357.36,-124.07 367.43,-120.78 357.51,-117.07 357.36,-124.07"/>
</a>
</g>
</g>
<!-- Node4 -->
<g id="Node000004" class="node">
<title>Node4</title>
<g id="a_Node000004"><a xlink:href="hash__keys_8cpp.html" target="_top" xlink:title=" ">
<polygon fill="white" stroke="#666666" points="212.25,-76 130.25,-76 130.25,-56 212.25,-56 212.25,-76"/>
<text xml:space="preserve" text-anchor="middle" x="171.25" y="-62.5" font-family="Helvetica,sans-Serif" font-size="10.00">hash_keys.cpp</text>
</a>
</g>
</g>
<!-- Node1&#45;&gt;Node4 -->
<g id="edge3_Node000001_Node000004" class="edge">
<title>Node1&#45;&gt;Node4</title>
<g id="a_edge3_Node000001_Node000004"><a xlink:title=" ">
<path fill="none" stroke="#63b8ff" d="M357.47,-112.3C317.11,-102.48 251.7,-86.57 210.12,-76.45"/>
<polygon fill="#63b8ff" stroke="#63b8ff" points="356.63,-115.69 367.17,-114.66 358.28,-108.89 356.63,-115.69"/>
</a>
</g>
</g>
<!-- Node5 -->
<g id="Node000005" class="node">
<title>Node5</title>
<g id="a_Node000005"><a xlink:href="hash__keys_8h.html" target="_top" xlink:title=" ">
<polygon fill="white" stroke="#666666" points="302,-76 230.5,-76 230.5,-56 302,-56 302,-76"/>
<text xml:space="preserve" text-anchor="middle" x="266.25" y="-62.5" font-family="Helvetica,sans-Serif" font-size="10.00">hash_keys.h</text>
</a>
</g>
</g>
<!-- Node1&#45;&gt;Node5 -->
<g id="edge4_Node000001_Node000005" class="edge">
<title>Node1&#45;&gt;Node5</title>
<g id="a_edge4_Node000001_Node000005"><a xlink:title=" ">
<path fill="none" stroke="#63b8ff" d="M360.65,-107.14C338.04,-97.52 308.51,-84.97 288.54,-76.48"/>
<polygon fill="#63b8ff" stroke="#63b8ff" points="359.16,-110.31 369.74,-111 361.9,-103.87 359.16,-110.31"/>
</a>
</g>
</g>
<!-- Node6 -->
<g id="Node000006" class="node">
<title>Node6</title>
<g id="a_Node000006"><a xlink:href="main_8cpp.html" target="_top" xlink:title=" ">
<polygon fill="white" stroke="#666666" points="376.12,-76 320.38,-76 320.38,-56 376.12,-56 376.12,-76"/>
<text xml:space="preserve" text-anchor="middle" x="348.25" y="-62.5" font-family="Helvetica,sans-Serif" font-size="10.00">main.cpp</text>
</a>
</g>
</g>
<!-- Node1&#45;&gt;Node6 -->
<g id="edge6_Node000001_Node000006" class="edge">
<title>Node1&#45;&gt;Node6</title>
<g id="a_edge6_Node000001_Node000006"><a xlink:title=" ">
<path fill="none" stroke="#63b8ff" d="M378.25,-103C370.8,-94.06 362.1,-83.62 356,-76.3"/>
<polygon fill="#63b8ff" stroke="#63b8ff" points="375.35,-104.99 384.44,-110.43 380.73,-100.51 375.35,-104.99"/>
</a>
</g>
</g>
<!-- Node7 -->
<g id="Node000007" class="node">
<title>Node7</title>
<g id="a_Node000007"><a xlink:href="make__move_8cpp.html" target="_top" xlink:title=" ">
<polygon fill="white" stroke="#666666" points="482.25,-76 394.25,-76 394.25,-56 482.25,-56 482.25,-76"/>
<text xml:space="preserve" text-anchor="middle" x="438.25" y="-62.5" font-family="Helvetica,sans-Serif" font-size="10.00">make_move.cpp</text>
</a>
</g>
</g>
<!-- Node1&#45;&gt;Node7 -->
<g id="edge7_Node000001_Node000007" class="edge">
<title>Node1&#45;&gt;Node7</title>
<g id="a_edge7_Node000001_Node000007"><a xlink:title=" ">
<path fill="none" stroke="#63b8ff" d="M408.25,-103C415.7,-94.06 424.4,-83.62 430.5,-76.3"/>
<polygon fill="#63b8ff" stroke="#63b8ff" points="405.77,-100.51 402.06,-110.43 411.15,-104.99 405.77,-100.51"/>
</a>
</g>
</g>
<!-- Node8 -->
<g id="Node000008" class="node">
<title>Node8</title>
<g id="a_Node000008"><a xlink:href="move__generator_8cpp.html" target="_top" xlink:title=" ">
<polygon fill="white" stroke="#666666" points="604.5,-76 500,-76 500,-56 604.5,-56 604.5,-76"/>
<text xml:space="preserve" text-anchor="middle" x="552.25" y="-62.5" font-family="Helvetica,sans-Serif" font-size="10.00">move_generator.cpp</text>
</a>
</g>
</g>
<!-- Node1&#45;&gt;Node8 -->
<g id="edge8_Node000001_Node000008" class="edge">
<title>Node1&#45;&gt;Node8</title>
<g id="a_edge8_Node000001_Node000008"><a xlink:title=" ">
<path fill="none" stroke="#63b8ff" d="M428.6,-108.99C457.53,-99.17 497.88,-85.46 524.52,-76.42"/>
<polygon fill="#63b8ff" stroke="#63b8ff" points="427.52,-105.66 419.18,-112.19 429.77,-112.29 427.52,-105.66"/>
</a>
</g>
</g>
<!-- Node9 -->
<g id="Node000009" class="node">
<title>Node9</title>
<g id="a_Node000009"><a xlink:href="notation_8cpp.html" target="_top" xlink:title=" ">
<polygon fill="white" stroke="#666666" points="691.88,-76 622.62,-76 622.62,-56 691.88,-56 691.88,-76"/>
<text xml:space="preserve" text-anchor="middle" x="657.25" y="-62.5" font-family="Helvetica,sans-Serif" font-size="10.00">notation.cpp</text>
</a>
</g>
</g>
<!-- Node1&#45;&gt;Node9 -->
<g id="edge9_Node000001_Node000009" class="edge">
<title>Node1&#45;&gt;Node9</title>
<g id="a_edge9_Node000001_Node000009"><a xlink:title=" ">
<path fill="none" stroke="#63b8ff" d="M428.64,-113.76C479.25,-103.41 571.76,-84.49 622.19,-74.17"/>
<polygon fill="#63b8ff" stroke="#63b8ff" points="428.19,-110.28 419.1,-115.71 429.59,-117.14 428.19,-110.28"/>
</a>
</g>
</g>
<!-- Node10 -->
<g id="Node000010" class="node">
<title>Node10</title>
<g id="a_Node000010"><a xlink:href="setup_8cpp.html" target="_top" xlink:title=" ">
<polygon fill="white" stroke="#666666" points="768.62,-76 709.88,-76 709.88,-56 768.62,-56 768.62,-76"/>
<text xml:space="preserve" text-anchor="middle" x="739.25" y="-62.5" font-family="Helvetica,sans-Serif" font-size="10.00">setup.cpp</text>
</a>
</g>
</g>
<!-- Node1&#45;&gt;Node10 -->
<g id="edge10_Node000001_Node000010" class="edge">
<title>Node1&#45;&gt;Node10</title>
<g id="a_edge10_Node000001_Node000010"><a xlink:title=" ">
<path fill="none" stroke="#63b8ff" d="M429.1,-116.8C486.71,-109.81 603.38,-94.7 701.25,-76 703.91,-75.49 706.67,-74.92 709.43,-74.32"/>
<polygon fill="#63b8ff" stroke="#63b8ff" points="428.74,-113.31 419.23,-117.98 429.58,-120.26 428.74,-113.31"/>
</a>
</g>
</g>
<!-- Node11 -->
<g id="Node000011" class="node">
<title>Node11</title>
<g id="a_Node000011"><a xlink:href="validate_8cpp.html" target="_top" xlink:title=" ">
<polygon fill="white" stroke="#666666" points="855.5,-76 787,-76 787,-56 855.5,-56 855.5,-76"/>
<text xml:space="preserve" text-anchor="middle" x="821.25" y="-62.5" font-family="Helvetica,sans-Serif" font-size="10.00">validate.cpp</text>
</a>
</g>
</g>
<!-- Node1&#45;&gt;Node11 -->
<g id="edge11_Node000001_Node000011" class="edge">
<title>Node1&#45;&gt;Node11</title>
<g id="a_edge11_Node000001_Node000011"><a xlink:title=" ">
<path fill="none" stroke="#63b8ff" d="M428.92,-117.84C496.92,-111.6 649.71,-96.48 777.25,-76 780.33,-75.51 783.52,-74.95 786.71,-74.35"/>
<polygon fill="#63b8ff" stroke="#63b8ff" points="428.76,-114.34 419.12,-118.73 429.39,-121.31 428.76,-114.34"/>
</a>
</g>
</g>
<!-- Node5&#45;&gt;Node3 -->
<g id="edge5_Node000005_Node000003" class="edge">
<title>Node5&#45;&gt;Node3</title>
<g id="a_edge5_Node000005_Node000003"><a xlink:title=" ">
<path fill="none" stroke="#63b8ff" d="M242.36,-49.27C228.2,-39.94 210.72,-28.43 198.64,-20.48"/>
<polygon fill="#63b8ff" stroke="#63b8ff" points="240.43,-52.18 250.7,-54.76 244.28,-46.34 240.43,-52.18"/>
</a>
</g>
</g>
</g>
</svg>
