<?xml version="1.0" encoding="UTF-8" standalone="no"?>
<!DOCTYPE svg PUBLIC "-//W3C//DTD SVG 1.1//EN"
 "http://www.w3.org/Graphics/SVG/1.1/DTD/svg11.dtd">
<!-- Generated by graphviz version 13.1.2 (20250808.2320)
 -->
<!-- Title: initializeEngine Pages: 1 -->
<svg width="337pt" height="218pt"
 viewBox="0.00 0.00 337.00 218.00" xmlns="http://www.w3.org/2000/svg" xmlns:xlink="http://www.w3.org/1999/xlink">

<svg id="main" version="1.1" xmlns="http://www.w3.org/2000/svg" xmlns:xlink="http://www.w3.org/1999/xlink" xml:space="preserve">

<style type="text/css"><![CDATA[
.node, .edge {opacity: 0.7;}
.node.selected, .edge.selected {opacity: 1;}
.edge:hover path { stroke: red; }
.edge:hover polygon { stroke: red; fill: red; }
]]></style>
<script type="application/ecmascript" xlink:href="svg.min.js"/>
<svg id="graph" class="graph">
<g id="graph0" class="graph" transform="scale(1 1) rotate(0) translate(4 214)">
<title>initializeEngine</title>
<!-- Node1 -->
<g id="Node000001" class="node">
<title>Node1</title>
<g id="a_Node000001"><a xlink:title="Run all initialization routines.">
<polygon fill="#999999" stroke="#666666" points="81.25,-115 0,-115 0,-95 81.25,-95 81.25,-115"/>
<text xml:space="preserve" text-anchor="middle" x="40.62" y="-101.5" font-family="Helvetica,sans-Serif" font-size="10.00">initializeEngine</text>
</a>
</g>
</g>
<!-- Node2 -->
<g id="Node000002" class="node">
<title>Node2</title>
<g id="a_Node000002"><a xlink:href="setup_8cpp.html#a665ce2d60fbda5441fee37312b620cba" target="_top" xlink:title="Initialize bit masks for individual bitboard operations.">
<polygon fill="white" stroke="#666666" points="206.75,-210 136.75,-210 136.75,-190 206.75,-190 206.75,-210"/>
<text xml:space="preserve" text-anchor="middle" x="171.75" y="-196.5" font-family="Helvetica,sans-Serif" font-size="10.00">initBitMasks</text>
</a>
</g>
</g>
<!-- Node1&#45;&gt;Node2 -->
<g id="edge1_Node000001_Node000002" class="edge">
<title>Node1&#45;&gt;Node2</title>
<g id="a_edge1_Node000001_Node000002"><a xlink:title=" ">
<path fill="none" stroke="#63b8ff" d="M49.34,-115.3C61.91,-131.43 88.32,-162.68 117.25,-181 119.98,-182.73 122.89,-184.33 125.89,-185.8"/>
<polygon fill="#63b8ff" stroke="#63b8ff" points="124.34,-188.94 134.91,-189.73 127.13,-182.53 124.34,-188.94"/>
</a>
</g>
</g>
<!-- Node3 -->
<g id="Node000003" class="node">
<title>Node3</title>
<g id="a_Node000003"><a xlink:href="setup_8cpp.html#a221d449ca334d6a6fffbd08d74389833" target="_top" xlink:title="Initialize evaluation&#45;related bitboard masks.">
<polygon fill="white" stroke="#666666" points="223.62,-172 119.88,-172 119.88,-152 223.62,-152 223.62,-172"/>
<text xml:space="preserve" text-anchor="middle" x="171.75" y="-158.5" font-family="Helvetica,sans-Serif" font-size="10.00">initEvaluationMasks</text>
</a>
</g>
</g>
<!-- Node1&#45;&gt;Node3 -->
<g id="edge2_Node000001_Node000003" class="edge">
<title>Node1&#45;&gt;Node3</title>
<g id="a_edge2_Node000001_Node000003"><a xlink:title=" ">
<path fill="none" stroke="#63b8ff" d="M60.59,-115.35C75.7,-123.4 97.52,-134.58 117.25,-143 121.01,-144.6 124.95,-146.19 128.92,-147.71"/>
<polygon fill="#63b8ff" stroke="#63b8ff" points="127.37,-150.87 137.96,-151.07 129.8,-144.31 127.37,-150.87"/>
</a>
</g>
</g>
<!-- Node4 -->
<g id="Node000004" class="node">
<title>Node4</title>
<g id="a_Node000004"><a xlink:href="setup_8cpp.html#a11dd4ee90c67078f6229a04dcc639917" target="_top" xlink:title="Initialize file and rank lookup arrays.">
<polygon fill="white" stroke="#666666" points="226.25,-134 117.25,-134 117.25,-114 226.25,-114 226.25,-134"/>
<text xml:space="preserve" text-anchor="middle" x="171.75" y="-120.5" font-family="Helvetica,sans-Serif" font-size="10.00">InitFilesrankIndex120</text>
</a>
</g>
</g>
<!-- Node1&#45;&gt;Node4 -->
<g id="edge3_Node000001_Node000004" class="edge">
<title>Node1&#45;&gt;Node4</title>
<g id="a_edge3_Node000001_Node000004"><a xlink:title=" ">
<path fill="none" stroke="#63b8ff" d="M81.42,-110.86C89.16,-112 97.47,-113.22 105.78,-114.44"/>
<polygon fill="#63b8ff" stroke="#63b8ff" points="105.17,-117.89 115.57,-115.88 106.19,-110.96 105.17,-117.89"/>
</a>
</g>
</g>
<!-- Node5 -->
<g id="Node000005" class="node">
<title>Node5</title>
<g id="a_Node000005"><a xlink:href="move__generator_8cpp.html#a281a51a51202cd7b3148ca0017062276" target="_top" xlink:title="Initialize the MVV&#45;LVA capture scoring table.">
<polygon fill="white" stroke="#666666" points="203.75,-96 139.75,-96 139.75,-76 203.75,-76 203.75,-96"/>
<text xml:space="preserve" text-anchor="middle" x="171.75" y="-82.5" font-family="Helvetica,sans-Serif" font-size="10.00">InitMvvLva</text>
</a>
</g>
</g>
<!-- Node1&#45;&gt;Node5 -->
<g id="edge4_Node000001_Node000005" class="edge">
<title>Node1&#45;&gt;Node5</title>
<g id="a_edge4_Node000001_Node000005"><a xlink:title=" ">
<path fill="none" stroke="#63b8ff" d="M81.42,-99.14C96.3,-96.95 113.25,-94.46 128.36,-92.24"/>
<polygon fill="#63b8ff" stroke="#63b8ff" points="128.6,-95.74 137.99,-90.82 127.58,-88.81 128.6,-95.74"/>
</a>
</g>
</g>
<!-- Node6 -->
<g id="Node000006" class="node">
<title>Node6</title>
<g id="a_Node000006"><a xlink:href="setup_8cpp.html#ae88cd37dac0307b1e942b893e381b188" target="_top" xlink:title="Initialize lookup tables for 120&#45;&gt;64 square indexing.">
<polygon fill="white" stroke="#666666" points="225.5,-58 118,-58 118,-38 225.5,-38 225.5,-58"/>
<text xml:space="preserve" text-anchor="middle" x="171.75" y="-44.5" font-family="Helvetica,sans-Serif" font-size="10.00">initSquareIndexMaps</text>
</a>
</g>
</g>
<!-- Node1&#45;&gt;Node6 -->
<g id="edge5_Node000001_Node000006" class="edge">
<title>Node1&#45;&gt;Node6</title>
<g id="a_edge5_Node000001_Node000006"><a xlink:title=" ">
<path fill="none" stroke="#63b8ff" d="M60.59,-94.65C75.7,-86.6 97.52,-75.42 117.25,-67 121.01,-65.4 124.95,-63.81 128.92,-62.29"/>
<polygon fill="#63b8ff" stroke="#63b8ff" points="129.8,-65.69 137.96,-58.93 127.37,-59.13 129.8,-65.69"/>
</a>
</g>
</g>
<!-- Node8 -->
<g id="Node000008" class="node">
<title>Node8</title>
<g id="a_Node000008"><a xlink:href="setup_8cpp.html#aa63d26a85abebb4be1db5744d0d72c20" target="_top" xlink:title="Initialize Zobrist hash keys.">
<polygon fill="white" stroke="#666666" points="212.38,-20 131.12,-20 131.12,0 212.38,0 212.38,-20"/>
<text xml:space="preserve" text-anchor="middle" x="171.75" y="-6.5" font-family="Helvetica,sans-Serif" font-size="10.00">initZobristKeys</text>
</a>
</g>
</g>
<!-- Node1&#45;&gt;Node8 -->
<g id="edge7_Node000001_Node000008" class="edge">
<title>Node1&#45;&gt;Node8</title>
<g id="a_edge7_Node000001_Node000008"><a xlink:title=" ">
<path fill="none" stroke="#63b8ff" d="M49.34,-94.7C61.91,-78.57 88.32,-47.32 117.25,-29 119.38,-27.65 121.62,-26.38 123.93,-25.19"/>
<polygon fill="#63b8ff" stroke="#63b8ff" points="125.3,-28.41 132.94,-21.08 122.39,-22.04 125.3,-28.41"/>
</a>
</g>
</g>
<!-- Node7 -->
<g id="Node000007" class="node">
<title>Node7</title>
<g id="a_Node000007"><a xlink:href="validate_8cpp.html#ad5a569564ef016ed02a4fef23d89d9c4" target="_top" xlink:title="Checks if a given square index refers to a valid on&#45;board square.">
<polygon fill="white" stroke="#666666" points="328.5,-58 262.25,-58 262.25,-38 328.5,-38 328.5,-58"/>
<text xml:space="preserve" text-anchor="middle" x="295.38" y="-44.5" font-family="Helvetica,sans-Serif" font-size="10.00">SqOnBoard</text>
</a>
</g>
</g>
<!-- Node6&#45;&gt;Node7 -->
<g id="edge6_Node000006_Node000007" class="edge">
<title>Node6&#45;&gt;Node7</title>
<g id="a_edge6_Node000006_Node000007"><a xlink:title=" ">
<path fill="none" stroke="#63b8ff" d="M225.74,-48C234,-48 242.45,-48 250.48,-48"/>
<polygon fill="#63b8ff" stroke="#63b8ff" points="250.35,-51.5 260.35,-48 250.35,-44.5 250.35,-51.5"/>
</a>
</g>
</g>
</g>
</svg>
</svg>

<style type='text/css'>
<![CDATA[
[data-mouse-over-selected='false'] { opacity: 0.7; }
[data-mouse-over-selected='true']  { opacity: 1.0; }
]]>
</style>
<script type="application/ecmascript"><![CDATA[
document.addEventListener('DOMContentLoaded', (event) => {
  highlightEdges();
  highlightAdjacentNodes();
});
]]></script>
</svg>
