<?xml version="1.0" encoding="UTF-8" standalone="no"?>
<!DOCTYPE svg PUBLIC "-//W3C//DTD SVG 1.1//EN"
 "http://www.w3.org/Graphics/SVG/1.1/DTD/svg11.dtd">
<!-- Generated by graphviz version 13.1.2 (20250808.2320)
 -->
<!-- Title: S_BOARD Pages: 1 -->
<!--zoomable 560 -->

<svg id="main" version="1.1" xmlns="http://www.w3.org/2000/svg" xmlns:xlink="http://www.w3.org/1999/xlink" xml:space="preserve" onload="init(evt)">

<style type="text/css"><![CDATA[
.node, .edge {opacity: 0.7;}
.node.selected, .edge.selected {opacity: 1;}
.edge:hover path { stroke: red; }
.edge:hover polygon { stroke: red; fill: red; }
]]></style>

<defs>
  <circle id="rim" cx="0" cy="0" r="7"/>
  <circle id="rim2" cx="0" cy="0" r="3.5"/>
  <g id="zoomPlus">
    <use xlink:href="#rim" fill="#404040"><set attributeName="fill" to="#808080" begin="zoomplus.mouseover" end="zoomplus.mouseout"/></use>
    <path d="M-4,0h8M0,-4v8" fill="none" stroke="white" stroke-width="1.5" pointer-events="none"/>
  </g>
  <g id="zoomMin">
    <use xlink:href="#rim" fill="#404040"><set attributeName="fill" to="#808080" begin="zoomminus.mouseover" end="zoomminus.mouseout"/></use>
    <path d="M-4,0h8" fill="none" stroke="white" stroke-width="1.5" pointer-events="none"/>
  </g>
  <g id="arrowUp" transform="translate(30 24)">
    <use xlink:href="#rim"/>
    <path pointer-events="none" fill="none" stroke="white" stroke-width="1.5" d="M0,-3.0v7 M-2.5,-0.5L0,-3.0L2.5,-0.5"/>
  </g>
  <g id="arrowRight" transform="rotate(90) translate(36 -43)">
    <use xlink:href="#rim"/>
    <path pointer-events="none" fill="none" stroke="white" stroke-width="1.5" d="M0,-3.0v7 M-2.5,-0.5L0,-3.0L2.5,-0.5"/>
  </g>
  <g id="arrowDown" transform="rotate(180) translate(-30 -48)">
    <use xlink:href="#rim"/>
    <path pointer-events="none" fill="none" stroke="white" stroke-width="1.5" d="M0,-3.0v7 M-2.5,-0.5L0,-3.0L2.5,-0.5"/>
  </g>
  <g id="arrowLeft" transform="rotate(270) translate(-36 17)">
    <use xlink:href="#rim"/>
    <path pointer-events="none" fill="none" stroke="white" stroke-width="1.5" d="M0,-3.0v7 M-2.5,-0.5L0,-3.0L2.5,-0.5"/>
  </g>
  <g id="resetDef">
    <use xlink:href="#rim2" fill="#404040"><set attributeName="fill" to="#808080" begin="reset.mouseover" end="reset.mouseout"/></use>
  </g>
</defs>
<script type="application/ecmascript">
var viewWidth = 174;
var viewHeight = 560;
var sectionId = 'dynsection-0';
</script>
<script type="application/ecmascript" xlink:href="svg.min.js"/>
<svg id="graph" class="graph">
<g id="viewport">
<title>S_BOARD</title>
<!-- Node1 -->
<g id="Node000001" class="node">
<title>Node1</title>
<g id="a_Node000001"><a xlink:title=" ">
<polygon fill="#999999" stroke="none" points="109.62,-212 33.88,-212 33.88,0 109.62,0 109.62,-212"/>
<text xml:space="preserve" text-anchor="start" x="47.75" y="-198.5" font-family="Helvetica,sans-Serif" font-size="10.00">S_BOARD</text>
<text xml:space="preserve" text-anchor="start" x="37.88" y="-182.5" font-family="Helvetica,sans-Serif" font-size="10.00">+</text>
<text xml:space="preserve" text-anchor="start" x="47.88" y="-182.5" font-family="Helvetica,sans-Serif" font-size="10.00">pieces</text>
<text xml:space="preserve" text-anchor="start" x="37.88" y="-166.5" font-family="Helvetica,sans-Serif" font-size="10.00">+</text>
<text xml:space="preserve" text-anchor="start" x="47.88" y="-166.5" font-family="Helvetica,sans-Serif" font-size="10.00">pawns</text>
<text xml:space="preserve" text-anchor="start" x="37.88" y="-150.5" font-family="Helvetica,sans-Serif" font-size="10.00">+</text>
<text xml:space="preserve" text-anchor="start" x="47.88" y="-150.5" font-family="Helvetica,sans-Serif" font-size="10.00">KingSq</text>
<text xml:space="preserve" text-anchor="start" x="37.88" y="-134.5" font-family="Helvetica,sans-Serif" font-size="10.00">+</text>
<text xml:space="preserve" text-anchor="start" x="47.88" y="-134.5" font-family="Helvetica,sans-Serif" font-size="10.00">side</text>
<text xml:space="preserve" text-anchor="start" x="37.88" y="-118.5" font-family="Helvetica,sans-Serif" font-size="10.00">+</text>
<text xml:space="preserve" text-anchor="start" x="47.88" y="-118.5" font-family="Helvetica,sans-Serif" font-size="10.00">enPas</text>
<text xml:space="preserve" text-anchor="start" x="37.88" y="-102.5" font-family="Helvetica,sans-Serif" font-size="10.00">+</text>
<text xml:space="preserve" text-anchor="start" x="47.88" y="-102.5" font-family="Helvetica,sans-Serif" font-size="10.00">fiftyMove</text>
<text xml:space="preserve" text-anchor="start" x="37.88" y="-86.5" font-family="Helvetica,sans-Serif" font-size="10.00">+</text>
<text xml:space="preserve" text-anchor="start" x="47.88" y="-86.5" font-family="Helvetica,sans-Serif" font-size="10.00">ply</text>
<text xml:space="preserve" text-anchor="start" x="37.88" y="-70.5" font-family="Helvetica,sans-Serif" font-size="10.00">+</text>
<text xml:space="preserve" text-anchor="start" x="47.88" y="-70.5" font-family="Helvetica,sans-Serif" font-size="10.00">hisPly</text>
<text xml:space="preserve" text-anchor="start" x="37.88" y="-54.5" font-family="Helvetica,sans-Serif" font-size="10.00">+</text>
<text xml:space="preserve" text-anchor="start" x="47.88" y="-54.5" font-family="Helvetica,sans-Serif" font-size="10.00">castlePerm</text>
<text xml:space="preserve" text-anchor="start" x="37.88" y="-38.5" font-family="Helvetica,sans-Serif" font-size="10.00">+</text>
<text xml:space="preserve" text-anchor="start" x="47.88" y="-38.5" font-family="Helvetica,sans-Serif" font-size="10.00">posKey</text>
<text xml:space="preserve" text-anchor="start" x="47.88" y="-22.5" font-family="Helvetica,sans-Serif" font-size="10.00">and 9 more...</text>
<text xml:space="preserve" text-anchor="start" x="70.25" y="-6.5" font-family="Helvetica,sans-Serif" font-size="10.00"> </text>
<polygon fill="#666666" stroke="#666666" points="33.88,-194 33.88,-194 109.62,-194 109.62,-194 33.88,-194"/>
<polygon fill="#666666" stroke="#666666" points="33.88,-18 33.88,-18 45.88,-18 45.88,-18 33.88,-18"/>
<polygon fill="#666666" stroke="#666666" points="45.88,-18 45.88,-18 109.62,-18 109.62,-18 45.88,-18"/>
<polygon fill="none" stroke="#666666" points="33.88,0 33.88,-212 109.62,-212 109.62,0 33.88,0"/>
</a>
</g>
</g>
<!-- Node2 -->
<g id="Node000002" class="node">
<title>Node2</title>
<g id="a_Node000002"><a xlink:href="struct_s___u_n_d_o.html" target="_top" xlink:title=" ">
<polygon fill="white" stroke="none" points="67.5,-382 0,-382 0,-266 67.5,-266 67.5,-382"/>
<text xml:space="preserve" text-anchor="start" x="12.75" y="-368.5" font-family="Helvetica,sans-Serif" font-size="10.00">S_UNDO</text>
<text xml:space="preserve" text-anchor="start" x="4" y="-352.5" font-family="Helvetica,sans-Serif" font-size="10.00">+</text>
<text xml:space="preserve" text-anchor="start" x="14" y="-352.5" font-family="Helvetica,sans-Serif" font-size="10.00">move</text>
<text xml:space="preserve" text-anchor="start" x="4" y="-336.5" font-family="Helvetica,sans-Serif" font-size="10.00">+</text>
<text xml:space="preserve" text-anchor="start" x="14" y="-336.5" font-family="Helvetica,sans-Serif" font-size="10.00">castlePerm</text>
<text xml:space="preserve" text-anchor="start" x="4" y="-320.5" font-family="Helvetica,sans-Serif" font-size="10.00">+</text>
<text xml:space="preserve" text-anchor="start" x="14" y="-320.5" font-family="Helvetica,sans-Serif" font-size="10.00">enPas</text>
<text xml:space="preserve" text-anchor="start" x="4" y="-304.5" font-family="Helvetica,sans-Serif" font-size="10.00">+</text>
<text xml:space="preserve" text-anchor="start" x="14" y="-304.5" font-family="Helvetica,sans-Serif" font-size="10.00">fiftyMove</text>
<text xml:space="preserve" text-anchor="start" x="4" y="-288.5" font-family="Helvetica,sans-Serif" font-size="10.00">+</text>
<text xml:space="preserve" text-anchor="start" x="14" y="-288.5" font-family="Helvetica,sans-Serif" font-size="10.00">posKey</text>
<text xml:space="preserve" text-anchor="start" x="32.25" y="-272.5" font-family="Helvetica,sans-Serif" font-size="10.00"> </text>
<polygon fill="#666666" stroke="#666666" points="0,-364 0,-364 67.5,-364 67.5,-364 0,-364"/>
<polygon fill="#666666" stroke="#666666" points="0,-284 0,-284 12,-284 12,-284 0,-284"/>
<polygon fill="#666666" stroke="#666666" points="12,-284 12,-284 67.5,-284 67.5,-284 12,-284"/>
<polygon fill="none" stroke="#666666" points="0,-266 0,-382 67.5,-382 67.5,-266 0,-266"/>
</a>
</g>
</g>
<!-- Node2&#45;&gt;Node1 -->
<g id="edge1_Node000001_Node000002" class="edge">
<title>Node2&#45;&gt;Node1</title>
<g id="a_edge1_Node000001_Node000002"><a xlink:title=" ">
<path fill="none" stroke="#63b8ff" d="M41.68,-266.37C43.49,-254.35 45.48,-241.74 47.5,-230 47.8,-228.25 48.11,-226.48 48.42,-224.71"/>
<polygon fill="none" stroke="#63b8ff" points="48.43,-224.65 45.55,-218.04 50.55,-212.84 53.43,-219.45 48.43,-224.65"/>
</a>
</g>
<text xml:space="preserve" text-anchor="start" x="50.5" y="-235.5" font-family="Helvetica,sans-Serif" font-size="10.00" fill="grey">+history</text>
</g>
<!-- Node3 -->
<g id="Node000003" class="node">
<title>Node3</title>
<g id="a_Node000003"><a xlink:href="struct_s___h_a_s_h_t_a_b_l_e.html" target="_top" xlink:title=" ">
<polygon fill="white" stroke="none" points="164.38,-382 85.12,-382 85.12,-266 164.38,-266 164.38,-382"/>
<text xml:space="preserve" text-anchor="start" x="89.12" y="-368.5" font-family="Helvetica,sans-Serif" font-size="10.00">S_HASHTABLE</text>
<text xml:space="preserve" text-anchor="start" x="92.06" y="-352.5" font-family="Helvetica,sans-Serif" font-size="10.00">+</text>
<text xml:space="preserve" text-anchor="start" x="105" y="-352.5" font-family="Helvetica,sans-Serif" font-size="10.00">numEntries</text>
<text xml:space="preserve" text-anchor="start" x="92.06" y="-336.5" font-family="Helvetica,sans-Serif" font-size="10.00">+</text>
<text xml:space="preserve" text-anchor="start" x="105" y="-336.5" font-family="Helvetica,sans-Serif" font-size="10.00">newWrite</text>
<text xml:space="preserve" text-anchor="start" x="92.06" y="-320.5" font-family="Helvetica,sans-Serif" font-size="10.00">+</text>
<text xml:space="preserve" text-anchor="start" x="105" y="-320.5" font-family="Helvetica,sans-Serif" font-size="10.00">overWrite</text>
<text xml:space="preserve" text-anchor="start" x="92.06" y="-304.5" font-family="Helvetica,sans-Serif" font-size="10.00">+</text>
<text xml:space="preserve" text-anchor="start" x="105" y="-304.5" font-family="Helvetica,sans-Serif" font-size="10.00">hit</text>
<text xml:space="preserve" text-anchor="start" x="92.06" y="-288.5" font-family="Helvetica,sans-Serif" font-size="10.00">+</text>
<text xml:space="preserve" text-anchor="start" x="105" y="-288.5" font-family="Helvetica,sans-Serif" font-size="10.00">cut</text>
<text xml:space="preserve" text-anchor="start" x="123.25" y="-272.5" font-family="Helvetica,sans-Serif" font-size="10.00"> </text>
<polygon fill="#666666" stroke="#666666" points="85.12,-364 85.12,-364 164.38,-364 164.38,-364 85.12,-364"/>
<polygon fill="#666666" stroke="#666666" points="85.12,-284 85.12,-284 103,-284 103,-284 85.12,-284"/>
<polygon fill="#666666" stroke="#666666" points="103,-284 103,-284 164.38,-284 164.38,-284 103,-284"/>
<polygon fill="none" stroke="#666666" points="85.12,-266 85.12,-382 164.38,-382 164.38,-266 85.12,-266"/>
</a>
</g>
</g>
<!-- Node3&#45;&gt;Node1 -->
<g id="edge2_Node000001_Node000003" class="edge">
<title>Node3&#45;&gt;Node1</title>
<g id="a_edge2_Node000001_Node000003"><a xlink:title=" ">
<path fill="none" stroke="#63b8ff" d="M110.82,-266.25C107.61,-253.16 104.08,-238.77 100.5,-224.15"/>
<polygon fill="none" stroke="#63b8ff" points="100.55,-224.38 95.24,-219.5 97.69,-212.72 103.01,-217.6 100.55,-224.38"/>
</a>
</g>
<text xml:space="preserve" text-anchor="start" x="109.09" y="-235.5" font-family="Helvetica,sans-Serif" font-size="10.00" fill="grey">+HashTable</text>
</g>
<!-- Node4 -->
<g id="Node000004" class="node">
<title>Node4</title>
<g id="a_Node000004"><a xlink:href="struct_s___h_a_s_h_e_n_t_r_y.html" target="_top" xlink:title=" ">
<polygon fill="white" stroke="none" points="165.88,-552 83.62,-552 83.62,-436 165.88,-436 165.88,-552"/>
<text xml:space="preserve" text-anchor="start" x="87.62" y="-538.5" font-family="Helvetica,sans-Serif" font-size="10.00">S_HASHENTRY</text>
<text xml:space="preserve" text-anchor="start" x="95.44" y="-522.5" font-family="Helvetica,sans-Serif" font-size="10.00">+</text>
<text xml:space="preserve" text-anchor="start" x="113.25" y="-522.5" font-family="Helvetica,sans-Serif" font-size="10.00">posKey</text>
<text xml:space="preserve" text-anchor="start" x="95.44" y="-506.5" font-family="Helvetica,sans-Serif" font-size="10.00">+</text>
<text xml:space="preserve" text-anchor="start" x="113.25" y="-506.5" font-family="Helvetica,sans-Serif" font-size="10.00">move</text>
<text xml:space="preserve" text-anchor="start" x="95.44" y="-490.5" font-family="Helvetica,sans-Serif" font-size="10.00">+</text>
<text xml:space="preserve" text-anchor="start" x="113.25" y="-490.5" font-family="Helvetica,sans-Serif" font-size="10.00">score</text>
<text xml:space="preserve" text-anchor="start" x="95.44" y="-474.5" font-family="Helvetica,sans-Serif" font-size="10.00">+</text>
<text xml:space="preserve" text-anchor="start" x="113.25" y="-474.5" font-family="Helvetica,sans-Serif" font-size="10.00">depth</text>
<text xml:space="preserve" text-anchor="start" x="95.44" y="-458.5" font-family="Helvetica,sans-Serif" font-size="10.00">+</text>
<text xml:space="preserve" text-anchor="start" x="113.25" y="-458.5" font-family="Helvetica,sans-Serif" font-size="10.00">flags</text>
<text xml:space="preserve" text-anchor="start" x="123.25" y="-442.5" font-family="Helvetica,sans-Serif" font-size="10.00"> </text>
<polygon fill="#666666" stroke="#666666" points="83.62,-534 83.62,-534 165.88,-534 165.88,-534 83.62,-534"/>
<polygon fill="#666666" stroke="#666666" points="83.62,-454 83.62,-454 111.25,-454 111.25,-454 83.62,-454"/>
<polygon fill="#666666" stroke="#666666" points="111.25,-454 111.25,-454 165.88,-454 165.88,-454 111.25,-454"/>
<polygon fill="none" stroke="#666666" points="83.62,-436 83.62,-552 165.88,-552 165.88,-436 83.62,-436"/>
</a>
</g>
</g>
<!-- Node4&#45;&gt;Node3 -->
<g id="edge3_Node000003_Node000004" class="edge">
<title>Node4&#45;&gt;Node3</title>
<g id="a_edge3_Node000003_Node000004"><a xlink:title=" ">
<path fill="none" stroke="#63b8ff" d="M124.75,-436.12C124.75,-422.85 124.75,-408.56 124.75,-394.8"/>
<polygon fill="none" stroke="#63b8ff" points="124.75,-394.72 120.75,-388.72 124.75,-382.72 128.75,-388.72 124.75,-394.72"/>
</a>
</g>
<text xml:space="preserve" text-anchor="start" x="127.75" y="-405.5" font-family="Helvetica,sans-Serif" font-size="10.00" fill="grey">+pTable</text>
</g>
</g>
</svg>

<g id="navigator" transform="translate(0 0)" fill="#404254">
  <rect fill="#f2f5e9" fill-opacity="0.5" stroke="#606060" stroke-width=".5" x="0" y="0" width="60" height="60"/>
  <use id="zoomplus" xlink:href="#zoomPlus" x="17" y="9" onmousedown="handleZoom(evt,'in')"/>
  <use id="zoomminus" xlink:href="#zoomMin" x="42" y="9" onmousedown="handleZoom(evt,'out')"/>
  <use id="reset" xlink:href="#resetDef" x="30" y="36" onmousedown="handleReset()"/>
   <use id="arrowup" xlink:href="#arrowUp" x="0" y="0" onmousedown="handlePan(0,-1)"/>
  <use id="arrowright" xlink:href="#arrowRight" x="0" y="0" onmousedown="handlePan(1,0)"/>
  <use id="arrowdown" xlink:href="#arrowDown" x="0" y="0" onmousedown="handlePan(0,1)"/>
  <use id="arrowleft" xlink:href="#arrowLeft" x="0" y="0" onmousedown="handlePan(-1,0)"/>
</g>
<svg viewBox="0 0 15 15" width="100%" height="30px" preserveAspectRatio="xMaxYMin meet">
 <g id="arrow_out" transform="scale(0.3 0.3)">
  <a xlink:href="struct_s___b_o_a_r_d__coll__graph_org.svg" target="_base">
   <rect id="button" ry="5" rx="5" y="6" x="6" height="38" width="38"
        fill="#f2f5e9" fill-opacity="0.5" stroke="#606060" stroke-width="1.0"/>
   <path id="arrow"
     d="M 11.500037,31.436501 C 11.940474,20.09759 22.043105,11.32322 32.158766,21.979434 L 37.068811,17.246167 C 37.068811,17.246167 37.088388,32 37.088388,32 L 22.160133,31.978069 C 22.160133,31.978069 26.997745,27.140456 26.997745,27.140456 C 18.528582,18.264221 13.291696,25.230495 11.500037,31.436501 z"
     style="fill:#404040;"/>
  </a>
 </g>
</svg>

<style type='text/css'>
<![CDATA[
[data-mouse-over-selected='false'] { opacity: 0.7; }
[data-mouse-over-selected='true']  { opacity: 1.0; }
]]>
</style>
<script type="application/ecmascript"><![CDATA[
document.addEventListener('DOMContentLoaded', (event) => {
  highlightEdges();
  highlightAdjacentNodes();
});
]]></script>
</svg>
