<?xml version="1.0" encoding="UTF-8" standalone="no"?>
<!DOCTYPE svg PUBLIC "-//W3C//DTD SVG 1.1//EN"
 "http://www.w3.org/Graphics/SVG/1.1/DTD/svg11.dtd">
<!-- Generated by graphviz version 13.1.2 (20250808.2320)
 -->
<!-- Title: S_MOVELIST Pages: 1 -->
<svg width="84pt" height="182pt"
 viewBox="0.00 0.00 84.00 182.00" xmlns="http://www.w3.org/2000/svg" xmlns:xlink="http://www.w3.org/1999/xlink">

<svg id="main" version="1.1" xmlns="http://www.w3.org/2000/svg" xmlns:xlink="http://www.w3.org/1999/xlink" xml:space="preserve">

<style type="text/css"><![CDATA[
.node, .edge {opacity: 0.7;}
.node.selected, .edge.selected {opacity: 1;}
.edge:hover path { stroke: red; }
.edge:hover polygon { stroke: red; fill: red; }
]]></style>
<script type="application/ecmascript" xlink:href="svg.min.js"/>
<svg id="graph" class="graph">
<g id="graph0" class="graph" transform="scale(1 1) rotate(0) translate(4 178)">
<title>S_MOVELIST</title>
<!-- Node1 -->
<g id="Node000001" class="node">
<title>Node1</title>
<g id="a_Node000001"><a xlink:title=" ">
<polygon fill="#999999" stroke="none" points="70.25,-52 0,-52 0,0 70.25,0 70.25,-52"/>
<text xml:space="preserve" text-anchor="start" x="4" y="-38.5" font-family="Helvetica,sans-Serif" font-size="10.00">S_MOVELIST</text>
<text xml:space="preserve" text-anchor="start" x="11.06" y="-22.5" font-family="Helvetica,sans-Serif" font-size="10.00">+</text>
<text xml:space="preserve" text-anchor="start" x="28.12" y="-22.5" font-family="Helvetica,sans-Serif" font-size="10.00">count</text>
<text xml:space="preserve" text-anchor="start" x="33.62" y="-6.5" font-family="Helvetica,sans-Serif" font-size="10.00"> </text>
<polygon fill="#666666" stroke="#666666" points="0,-34 0,-34 70.25,-34 70.25,-34 0,-34"/>
<polygon fill="#666666" stroke="#666666" points="0,-18 0,-18 26.12,-18 26.12,-18 0,-18"/>
<polygon fill="#666666" stroke="#666666" points="26.12,-18 26.12,-18 70.25,-18 70.25,-18 26.12,-18"/>
<polygon fill="none" stroke="#666666" points="0,0 0,-52 70.25,-52 70.25,0 0,0"/>
</a>
</g>
</g>
<!-- Node2 -->
<g id="Node000002" class="node">
<title>Node2</title>
<g id="a_Node000002"><a xlink:href="struct_s___m_o_v_e.html" target="_top" xlink:title=" ">
<polygon fill="white" stroke="none" points="59.75,-174 10.5,-174 10.5,-106 59.75,-106 59.75,-174"/>
<text xml:space="preserve" text-anchor="start" x="14.5" y="-160.5" font-family="Helvetica,sans-Serif" font-size="10.00">S_MOVE</text>
<text xml:space="preserve" text-anchor="start" x="16.31" y="-144.5" font-family="Helvetica,sans-Serif" font-size="10.00">+</text>
<text xml:space="preserve" text-anchor="start" x="28.12" y="-144.5" font-family="Helvetica,sans-Serif" font-size="10.00">move</text>
<text xml:space="preserve" text-anchor="start" x="16.31" y="-128.5" font-family="Helvetica,sans-Serif" font-size="10.00">+</text>
<text xml:space="preserve" text-anchor="start" x="28.12" y="-128.5" font-family="Helvetica,sans-Serif" font-size="10.00">score</text>
<text xml:space="preserve" text-anchor="start" x="33.62" y="-112.5" font-family="Helvetica,sans-Serif" font-size="10.00"> </text>
<polygon fill="#666666" stroke="#666666" points="10.5,-156 10.5,-156 59.75,-156 59.75,-156 10.5,-156"/>
<polygon fill="#666666" stroke="#666666" points="10.5,-124 10.5,-124 26.12,-124 26.12,-124 10.5,-124"/>
<polygon fill="#666666" stroke="#666666" points="26.12,-124 26.12,-124 59.75,-124 59.75,-124 26.12,-124"/>
<polygon fill="none" stroke="#666666" points="10.5,-106 10.5,-174 59.75,-174 59.75,-106 10.5,-106"/>
</a>
</g>
</g>
<!-- Node2&#45;&gt;Node1 -->
<g id="edge1_Node000001_Node000002" class="edge">
<title>Node2&#45;&gt;Node1</title>
<g id="a_edge1_Node000001_Node000002"><a xlink:title=" ">
<path fill="none" stroke="#63b8ff" d="M35.12,-106C35.12,-93.03 35.12,-78.07 35.12,-64.68"/>
<polygon fill="none" stroke="#63b8ff" points="35.13,-64.84 31.13,-58.84 35.13,-52.84 39.13,-58.84 35.13,-64.84"/>
</a>
</g>
<text xml:space="preserve" text-anchor="start" x="38.12" y="-75.5" font-family="Helvetica,sans-Serif" font-size="10.00" fill="grey">+moves</text>
</g>
</g>
</svg>
</svg>

<style type='text/css'>
<![CDATA[
[data-mouse-over-selected='false'] { opacity: 0.7; }
[data-mouse-over-selected='true']  { opacity: 1.0; }
]]>
</style>
<script type="application/ecmascript"><![CDATA[
document.addEventListener('DOMContentLoaded', (event) => {
  highlightEdges();
  highlightAdjacentNodes();
});
]]></script>
</svg>
