<?xml version="1.0" encoding="UTF-8" standalone="no"?>
<!DOCTYPE svg PUBLIC "-//W3C//DTD SVG 1.1//EN"
 "http://www.w3.org/Graphics/SVG/1.1/DTD/svg11.dtd">
<!-- Generated by graphviz version 13.1.2 (20250808.2320)
 -->
<!-- Title: bitboard.h Pages: 1 -->
<svg width="235pt" height="196pt"
 viewBox="0.00 0.00 235.00 196.00" xmlns="http://www.w3.org/2000/svg" xmlns:xlink="http://www.w3.org/1999/xlink">
<g id="graph0" class="graph" transform="scale(1 1) rotate(0) translate(4 192)">
<title>bitboard.h</title>
<!-- Node1 -->
<g id="Node000001" class="node">
<title>Node1</title>
<g id="a_Node000001"><a xlink:title=" ">
<polygon fill="#999999" stroke="#666666" points="162.12,-188 103.38,-188 103.38,-168 162.12,-168 162.12,-188"/>
<text xml:space="preserve" text-anchor="middle" x="132.75" y="-174.5" font-family="Helvetica,sans-Serif" font-size="10.00">bitboard.h</text>
</a>
</g>
</g>
<!-- Node2 -->
<g id="Node000002" class="node">
<title>Node2</title>
<g id="a_Node000002"><a xlink:href="defs_8h.html" target="_top" xlink:title=" ">
<polygon fill="white" stroke="#666666" points="158.75,-132 106.75,-132 106.75,-112 158.75,-112 158.75,-132"/>
<text xml:space="preserve" text-anchor="middle" x="132.75" y="-118.5" font-family="Helvetica,sans-Serif" font-size="10.00">../defs.h</text>
</a>
</g>
</g>
<!-- Node1&#45;&gt;Node2 -->
<g id="edge1_Node000001_Node000002" class="edge">
<title>Node1&#45;&gt;Node2</title>
<g id="a_edge1_Node000001_Node000002"><a xlink:title=" ">
<path fill="none" stroke="#63b8ff" d="M132.75,-167.59C132.75,-161.01 132.75,-151.96 132.75,-143.73"/>
<polygon fill="#63b8ff" stroke="#63b8ff" points="136.25,-143.81 132.75,-133.81 129.25,-143.81 136.25,-143.81"/>
</a>
</g>
</g>
<!-- Node3 -->
<g id="Node000003" class="node">
<title>Node3</title>
<g id="a_Node000003"><a xlink:title=" ">
<polygon fill="#e0e0e0" stroke="#999999" points="47.5,-76 0,-76 0,-56 47.5,-56 47.5,-76"/>
<text xml:space="preserve" text-anchor="middle" x="23.75" y="-62.5" font-family="Helvetica,sans-Serif" font-size="10.00">stdlib.h</text>
</a>
</g>
</g>
<!-- Node2&#45;&gt;Node3 -->
<g id="edge2_Node000002_Node000003" class="edge">
<title>Node2&#45;&gt;Node3</title>
<g id="a_edge2_Node000002_Node000003"><a xlink:title=" ">
<path fill="none" stroke="#63b8ff" d="M113.76,-111.59C96.99,-103.28 72.26,-91.03 52.96,-81.47"/>
<polygon fill="#63b8ff" stroke="#63b8ff" points="54.76,-78.45 44.24,-77.15 51.65,-84.73 54.76,-78.45"/>
</a>
</g>
</g>
<!-- Node4 -->
<g id="Node000004" class="node">
<title>Node4</title>
<g id="a_Node000004"><a xlink:title=" ">
<polygon fill="#e0e0e0" stroke="#999999" points="110.38,-76 65.12,-76 65.12,-56 110.38,-56 110.38,-76"/>
<text xml:space="preserve" text-anchor="middle" x="87.75" y="-62.5" font-family="Helvetica,sans-Serif" font-size="10.00">stdio.h</text>
</a>
</g>
</g>
<!-- Node2&#45;&gt;Node4 -->
<g id="edge3_Node000002_Node000004" class="edge">
<title>Node2&#45;&gt;Node4</title>
<g id="a_edge3_Node000002_Node000004"><a xlink:title=" ">
<path fill="none" stroke="#63b8ff" d="M124.91,-111.59C118.78,-104.24 110.08,-93.8 102.64,-84.87"/>
<polygon fill="#63b8ff" stroke="#63b8ff" points="105.56,-82.9 96.47,-77.46 100.18,-87.38 105.56,-82.9"/>
</a>
</g>
</g>
<!-- Node5 -->
<g id="Node000005" class="node">
<title>Node5</title>
<g id="a_Node000005"><a xlink:href="board__data_8h.html" target="_top" xlink:title=" ">
<polygon fill="white" stroke="#666666" points="227.38,-76 128.12,-76 128.12,-56 227.38,-56 227.38,-76"/>
<text xml:space="preserve" text-anchor="middle" x="177.75" y="-62.5" font-family="Helvetica,sans-Serif" font-size="10.00">board/board_data.h</text>
</a>
</g>
</g>
<!-- Node2&#45;&gt;Node5 -->
<g id="edge4_Node000002_Node000005" class="edge">
<title>Node2&#45;&gt;Node5</title>
<g id="a_edge4_Node000002_Node000005"><a xlink:title=" ">
<path fill="none" stroke="#63b8ff" d="M135.32,-111.59C140.08,-104.08 148.66,-93.35 156.98,-84.3"/>
<polygon fill="#63b8ff" stroke="#63b8ff" points="159.25,-87 163.7,-77.38 154.22,-82.12 159.25,-87"/>
</a>
</g>
</g>
<!-- Node5&#45;&gt;Node2 -->
<g id="edge6_Node000005_Node000002" class="edge">
<title>Node5&#45;&gt;Node2</title>
<g id="a_edge6_Node000005_Node000002"><a xlink:title=" ">
<path fill="none" stroke="#63b8ff" d="M175.25,-76.3C170.53,-83.78 161.97,-94.5 153.64,-103.57"/>
<polygon fill="#63b8ff" stroke="#63b8ff" points="151.36,-100.89 146.91,-110.51 156.38,-105.76 151.36,-100.89"/>
</a>
</g>
</g>
<!-- Node6 -->
<g id="Node000006" class="node">
<title>Node6</title>
<g id="a_Node000006"><a xlink:title=" ">
<polygon fill="#e0e0e0" stroke="#999999" points="196.62,-20 158.88,-20 158.88,0 196.62,0 196.62,-20"/>
<text xml:space="preserve" text-anchor="middle" x="177.75" y="-6.5" font-family="Helvetica,sans-Serif" font-size="10.00">array</text>
</a>
</g>
</g>
<!-- Node5&#45;&gt;Node6 -->
<g id="edge5_Node000005_Node000006" class="edge">
<title>Node5&#45;&gt;Node6</title>
<g id="a_edge5_Node000005_Node000006"><a xlink:title=" ">
<path fill="none" stroke="#63b8ff" d="M177.75,-55.59C177.75,-49.01 177.75,-39.96 177.75,-31.73"/>
<polygon fill="#63b8ff" stroke="#63b8ff" points="181.25,-31.81 177.75,-21.81 174.25,-31.81 181.25,-31.81"/>
</a>
</g>
</g>
</g>
</svg>
