<?xml version="1.0" encoding="UTF-8" standalone="no"?>
<!DOCTYPE svg PUBLIC "-//W3C//DTD SVG 1.1//EN"
 "http://www.w3.org/Graphics/SVG/1.1/DTD/svg11.dtd">
<!-- Generated by graphviz version 13.1.2 (20250808.2320)
 -->
<!-- Title: loadFEN Pages: 1 -->
<svg width="355pt" height="123pt"
 viewBox="0.00 0.00 355.00 123.00" xmlns="http://www.w3.org/2000/svg" xmlns:xlink="http://www.w3.org/1999/xlink">

<svg id="main" version="1.1" xmlns="http://www.w3.org/2000/svg" xmlns:xlink="http://www.w3.org/1999/xlink" xml:space="preserve">

<style type="text/css"><![CDATA[
.node, .edge {opacity: 0.7;}
.node.selected, .edge.selected {opacity: 1;}
.edge:hover path { stroke: red; }
.edge:hover polygon { stroke: red; fill: red; }
]]></style>
<script type="application/ecmascript" xlink:href="svg.min.js"/>
<svg id="graph" class="graph">
<g id="graph0" class="graph" transform="scale(1 1) rotate(0) translate(4 119)">
<title>loadFEN</title>
<!-- Node1 -->
<g id="Node000001" class="node">
<title>Node1</title>
<g id="a_Node000001"><a xlink:title="Parse a FEN string into the given board state.">
<polygon fill="#999999" stroke="#666666" points="54.25,-77 0,-77 0,-57 54.25,-57 54.25,-77"/>
<text xml:space="preserve" text-anchor="middle" x="27.12" y="-63.5" font-family="Helvetica,sans-Serif" font-size="10.00">loadFEN</text>
</a>
</g>
</g>
<!-- Node2 -->
<g id="Node000002" class="node">
<title>Node2</title>
<g id="a_Node000002"><a xlink:href="hash__keys_8cpp.html#a8c1832e1dfd853cce944ddd2df57dd53" target="_top" xlink:title="Generates a Zobrist hash key for the given board position.">
<polygon fill="white" stroke="#666666" points="201.5,-115 90.25,-115 90.25,-95 201.5,-95 201.5,-115"/>
<text xml:space="preserve" text-anchor="middle" x="145.88" y="-101.5" font-family="Helvetica,sans-Serif" font-size="10.00">generatePositionKeys</text>
</a>
</g>
</g>
<!-- Node1&#45;&gt;Node2 -->
<g id="edge1_Node000001_Node000002" class="edge">
<title>Node1&#45;&gt;Node2</title>
<g id="a_edge1_Node000001_Node000002"><a xlink:title=" ">
<path fill="none" stroke="#63b8ff" d="M54.62,-75.62C68.61,-80.18 86.13,-85.88 102,-91.05"/>
<polygon fill="#63b8ff" stroke="#63b8ff" points="100.63,-94.28 111.22,-94.05 102.8,-87.62 100.63,-94.28"/>
</a>
</g>
</g>
<!-- Node4 -->
<g id="Node000004" class="node">
<title>Node4</title>
<g id="a_Node000004"><a xlink:href="board_8cpp.html#a450b9988728615700e2d0677aa92d871" target="_top" xlink:title="Reset board to empty state.">
<polygon fill="white" stroke="#666666" points="189.12,-77 102.62,-77 102.62,-57 189.12,-57 189.12,-77"/>
<text xml:space="preserve" text-anchor="middle" x="145.88" y="-63.5" font-family="Helvetica,sans-Serif" font-size="10.00">resetBoardState</text>
</a>
</g>
</g>
<!-- Node1&#45;&gt;Node4 -->
<g id="edge3_Node000001_Node000004" class="edge">
<title>Node1&#45;&gt;Node4</title>
<g id="a_edge3_Node000001_Node000004"><a xlink:title=" ">
<path fill="none" stroke="#63b8ff" d="M54.62,-67C65.43,-67 78.36,-67 91,-67"/>
<polygon fill="#63b8ff" stroke="#63b8ff" points="90.95,-70.5 100.95,-67 90.95,-63.5 90.95,-70.5"/>
</a>
</g>
</g>
<!-- Node5 -->
<g id="Node000005" class="node">
<title>Node5</title>
<g id="a_Node000005"><a xlink:href="board_8cpp.html#ac392f2ff8c0f063425f09403c43d4cc5" target="_top" xlink:title="Update piece lists, material counts, and pawn bitboards from scratch.">
<polygon fill="white" stroke="#666666" points="196.25,-39 95.5,-39 95.5,-19 196.25,-19 196.25,-39"/>
<text xml:space="preserve" text-anchor="middle" x="145.88" y="-25.5" font-family="Helvetica,sans-Serif" font-size="10.00">updateListsMaterial</text>
</a>
</g>
</g>
<!-- Node1&#45;&gt;Node5 -->
<g id="edge4_Node000001_Node000005" class="edge">
<title>Node1&#45;&gt;Node5</title>
<g id="a_edge4_Node000001_Node000005"><a xlink:title=" ">
<path fill="none" stroke="#63b8ff" d="M54.62,-58.38C68.61,-53.82 86.13,-48.12 102,-42.95"/>
<polygon fill="#63b8ff" stroke="#63b8ff" points="102.8,-46.38 111.22,-39.95 100.63,-39.72 102.8,-46.38"/>
</a>
</g>
</g>
<!-- Node3 -->
<g id="Node000003" class="node">
<title>Node3</title>
<g id="a_Node000003"><a xlink:href="validate_8cpp.html#ad5a569564ef016ed02a4fef23d89d9c4" target="_top" xlink:title="Checks if a given square index refers to a valid on&#45;board square.">
<polygon fill="white" stroke="#666666" points="325.12,-115 258.88,-115 258.88,-95 325.12,-95 325.12,-115"/>
<text xml:space="preserve" text-anchor="middle" x="292" y="-101.5" font-family="Helvetica,sans-Serif" font-size="10.00">SqOnBoard</text>
</a>
</g>
</g>
<!-- Node2&#45;&gt;Node3 -->
<g id="edge2_Node000002_Node000003" class="edge">
<title>Node2&#45;&gt;Node3</title>
<g id="a_edge2_Node000002_Node000003"><a xlink:title=" ">
<path fill="none" stroke="#63b8ff" d="M201.77,-105C216.96,-105 233.23,-105 247.67,-105"/>
<polygon fill="#63b8ff" stroke="#63b8ff" points="247.28,-108.5 257.28,-105 247.28,-101.5 247.28,-108.5"/>
</a>
</g>
</g>
<!-- Node6 -->
<g id="Node000006" class="node">
<title>Node6</title>
<g id="a_Node000006"><a xlink:href="validate_8cpp.html#aac5a1baab60b7b72d85de73be258f91b" target="_top" xlink:title="Checks if the given piece code is empty, valid, or OFFBOARD.">
<polygon fill="white" stroke="#666666" points="346.5,-58 237.5,-58 237.5,-38 346.5,-38 346.5,-58"/>
<text xml:space="preserve" text-anchor="middle" x="292" y="-44.5" font-family="Helvetica,sans-Serif" font-size="10.00">PceValidEmptyOffbrd</text>
</a>
</g>
</g>
<!-- Node5&#45;&gt;Node6 -->
<g id="edge5_Node000005_Node000006" class="edge">
<title>Node5&#45;&gt;Node6</title>
<g id="a_edge5_Node000005_Node000006"><a xlink:title=" ">
<path fill="none" stroke="#63b8ff" d="M196.47,-35.54C206.06,-36.8 216.23,-38.14 226.22,-39.46"/>
<polygon fill="#63b8ff" stroke="#63b8ff" points="225.5,-42.89 235.87,-40.73 226.41,-35.95 225.5,-42.89"/>
</a>
</g>
</g>
<!-- Node7 -->
<g id="Node000007" class="node">
<title>Node7</title>
<g id="a_Node000007"><a xlink:href="validate_8cpp.html#ad7a2e012bffa6db3df97e7742c9d731d" target="_top" xlink:title="Checks if the given side identifier is valid.">
<polygon fill="white" stroke="#666666" points="320.25,-20 263.75,-20 263.75,0 320.25,0 320.25,-20"/>
<text xml:space="preserve" text-anchor="middle" x="292" y="-6.5" font-family="Helvetica,sans-Serif" font-size="10.00">SideValid</text>
</a>
</g>
</g>
<!-- Node5&#45;&gt;Node7 -->
<g id="edge6_Node000005_Node000007" class="edge">
<title>Node5&#45;&gt;Node7</title>
<g id="a_edge6_Node000005_Node000007"><a xlink:title=" ">
<path fill="none" stroke="#63b8ff" d="M196.47,-22.46C214.73,-20.05 235.13,-17.37 252.29,-15.1"/>
<polygon fill="#63b8ff" stroke="#63b8ff" points="252.63,-18.59 262.09,-13.81 251.72,-11.65 252.63,-18.59"/>
</a>
</g>
</g>
</g>
</svg>
</svg>

<style type='text/css'>
<![CDATA[
[data-mouse-over-selected='false'] { opacity: 0.7; }
[data-mouse-over-selected='true']  { opacity: 1.0; }
]]>
</style>
<script type="application/ecmascript"><![CDATA[
document.addEventListener('DOMContentLoaded', (event) => {
  highlightEdges();
  highlightAdjacentNodes();
});
]]></script>
</svg>
