<?xml version="1.0" encoding="UTF-8" standalone="no"?>
<!DOCTYPE svg PUBLIC "-//W3C//DTD SVG 1.1//EN"
 "http://www.w3.org/Graphics/SVG/1.1/DTD/svg11.dtd">
<!-- Generated by graphviz version 13.1.2 (20250808.2320)
 -->
<!-- Title: board.h Pages: 1 -->
<svg width="362pt" height="140pt"
 viewBox="0.00 0.00 362.00 140.00" xmlns="http://www.w3.org/2000/svg" xmlns:xlink="http://www.w3.org/1999/xlink">
<g id="graph0" class="graph" transform="scale(1 1) rotate(0) translate(4 136)">
<title>board.h</title>
<!-- Node1 -->
<g id="Node000001" class="node">
<title>Node1</title>
<g id="a_Node000001"><a xlink:title=" ">
<polygon fill="#999999" stroke="#666666" points="234.5,-132 186.25,-132 186.25,-112 234.5,-112 234.5,-132"/>
<text xml:space="preserve" text-anchor="middle" x="210.38" y="-118.5" font-family="Helvetica,sans-Serif" font-size="10.00">board.h</text>
</a>
</g>
</g>
<!-- Node2 -->
<g id="Node000002" class="node">
<title>Node2</title>
<g id="a_Node000002"><a xlink:href="board_8cpp.html" target="_top" xlink:title=" ">
<polygon fill="white" stroke="#666666" points="58.75,-76 0,-76 0,-56 58.75,-56 58.75,-76"/>
<text xml:space="preserve" text-anchor="middle" x="29.38" y="-62.5" font-family="Helvetica,sans-Serif" font-size="10.00">board.cpp</text>
</a>
</g>
</g>
<!-- Node1&#45;&gt;Node2 -->
<g id="edge1_Node000001_Node000002" class="edge">
<title>Node1&#45;&gt;Node2</title>
<g id="a_edge1_Node000001_Node000002"><a xlink:title=" ">
<path fill="none" stroke="#63b8ff" d="M175.2,-110.5C141.41,-100.42 90.93,-85.36 59.1,-75.87"/>
<polygon fill="#63b8ff" stroke="#63b8ff" points="173.93,-113.78 184.51,-113.28 175.93,-107.07 173.93,-113.78"/>
</a>
</g>
</g>
<!-- Node3 -->
<g id="Node000003" class="node">
<title>Node3</title>
<g id="a_Node000003"><a xlink:href="interactive__helpers_8h.html" target="_top" xlink:title=" ">
<polygon fill="white" stroke="#666666" points="182.38,-76 76.38,-76 76.38,-56 182.38,-56 182.38,-76"/>
<text xml:space="preserve" text-anchor="middle" x="129.38" y="-62.5" font-family="Helvetica,sans-Serif" font-size="10.00">interactive_helpers.h</text>
</a>
</g>
</g>
<!-- Node1&#45;&gt;Node3 -->
<g id="edge2_Node000001_Node000003" class="edge">
<title>Node1&#45;&gt;Node3</title>
<g id="a_edge2_Node000001_Node000003"><a xlink:title=" ">
<path fill="none" stroke="#63b8ff" d="M186.78,-105.27C172.79,-95.94 155.52,-84.43 143.59,-76.48"/>
<polygon fill="#63b8ff" stroke="#63b8ff" points="184.74,-108.12 195.01,-110.75 188.63,-102.3 184.74,-108.12"/>
</a>
</g>
</g>
<!-- Node5 -->
<g id="Node000005" class="node">
<title>Node5</title>
<g id="a_Node000005"><a xlink:href="main_8cpp.html" target="_top" xlink:title=" ">
<polygon fill="white" stroke="#666666" points="249.25,-20 193.5,-20 193.5,0 249.25,0 249.25,-20"/>
<text xml:space="preserve" text-anchor="middle" x="221.38" y="-6.5" font-family="Helvetica,sans-Serif" font-size="10.00">main.cpp</text>
</a>
</g>
</g>
<!-- Node1&#45;&gt;Node5 -->
<g id="edge5_Node000001_Node000005" class="edge">
<title>Node1&#45;&gt;Node5</title>
<g id="a_edge5_Node000001_Node000005"><a xlink:title=" ">
<path fill="none" stroke="#63b8ff" d="M212.44,-100.31C214.84,-76.36 218.68,-37.95 220.44,-20.35"/>
<polygon fill="#63b8ff" stroke="#63b8ff" points="208.98,-99.82 211.46,-110.12 215.94,-100.51 208.98,-99.82"/>
</a>
</g>
</g>
<!-- Node6 -->
<g id="Node000006" class="node">
<title>Node6</title>
<g id="a_Node000006"><a xlink:href="perft_8cpp.html" target="_top" xlink:title=" ">
<polygon fill="white" stroke="#666666" points="292.5,-76 238.25,-76 238.25,-56 292.5,-56 292.5,-76"/>
<text xml:space="preserve" text-anchor="middle" x="265.38" y="-62.5" font-family="Helvetica,sans-Serif" font-size="10.00">perft.cpp</text>
</a>
</g>
</g>
<!-- Node1&#45;&gt;Node6 -->
<g id="edge6_Node000001_Node000006" class="edge">
<title>Node1&#45;&gt;Node6</title>
<g id="a_edge6_Node000001_Node000006"><a xlink:title=" ">
<path fill="none" stroke="#63b8ff" d="M228.13,-103.57C237.37,-94.5 248.29,-83.78 255.9,-76.3"/>
<polygon fill="#63b8ff" stroke="#63b8ff" points="225.72,-101.03 221.04,-110.53 230.62,-106.03 225.72,-101.03"/>
</a>
</g>
</g>
<!-- Node7 -->
<g id="Node000007" class="node">
<title>Node7</title>
<g id="a_Node000007"><a xlink:href="perft_8h.html" target="_top" xlink:title=" ">
<polygon fill="white" stroke="#666666" points="354.25,-76 310.5,-76 310.5,-56 354.25,-56 354.25,-76"/>
<text xml:space="preserve" text-anchor="middle" x="332.38" y="-62.5" font-family="Helvetica,sans-Serif" font-size="10.00">perft.h</text>
</a>
</g>
</g>
<!-- Node1&#45;&gt;Node7 -->
<g id="edge7_Node000001_Node000007" class="edge">
<title>Node1&#45;&gt;Node7</title>
<g id="a_edge7_Node000001_Node000007"><a xlink:title=" ">
<path fill="none" stroke="#63b8ff" d="M241.98,-107.01C263.67,-97.41 291.87,-84.93 310.96,-76.48"/>
<polygon fill="#63b8ff" stroke="#63b8ff" points="240.74,-103.73 233.01,-110.98 243.57,-110.13 240.74,-103.73"/>
</a>
</g>
</g>
<!-- Node4 -->
<g id="Node000004" class="node">
<title>Node4</title>
<g id="a_Node000004"><a xlink:href="interactive__helpers_8cpp.html" target="_top" xlink:title=" ">
<polygon fill="white" stroke="#666666" points="175.62,-20 59.12,-20 59.12,0 175.62,0 175.62,-20"/>
<text xml:space="preserve" text-anchor="middle" x="117.38" y="-6.5" font-family="Helvetica,sans-Serif" font-size="10.00">interactive_helpers.cpp</text>
</a>
</g>
</g>
<!-- Node3&#45;&gt;Node4 -->
<g id="edge3_Node000003_Node000004" class="edge">
<title>Node3&#45;&gt;Node4</title>
<g id="a_edge3_Node000003_Node000004"><a xlink:title=" ">
<path fill="none" stroke="#63b8ff" d="M124.8,-44.43C122.95,-36.11 120.92,-26.93 119.44,-20.3"/>
<polygon fill="#63b8ff" stroke="#63b8ff" points="121.37,-45.11 126.96,-54.12 128.2,-43.6 121.37,-45.11"/>
</a>
</g>
</g>
<!-- Node3&#45;&gt;Node5 -->
<g id="edge4_Node000003_Node000005" class="edge">
<title>Node3&#45;&gt;Node5</title>
<g id="a_edge4_Node000003_Node000005"><a xlink:title=" ">
<path fill="none" stroke="#63b8ff" d="M155.25,-49.81C171.3,-40.39 191.42,-28.58 205.22,-20.48"/>
<polygon fill="#63b8ff" stroke="#63b8ff" points="153.56,-46.75 146.71,-54.83 157.1,-52.78 153.56,-46.75"/>
</a>
</g>
</g>
<!-- Node7&#45;&gt;Node5 -->
<g id="edge8_Node000007_Node000005" class="edge">
<title>Node7&#45;&gt;Node5</title>
<g id="a_edge8_Node000007_Node000005"><a xlink:title=" ">
<path fill="none" stroke="#63b8ff" d="M302.8,-50.61C283.18,-41.07 257.99,-28.81 240.86,-20.48"/>
<polygon fill="#63b8ff" stroke="#63b8ff" points="301.16,-53.7 311.68,-54.93 304.22,-47.41 301.16,-53.7"/>
</a>
</g>
</g>
</g>
</svg>
