<?xml version="1.0" encoding="UTF-8" standalone="no"?>
<!DOCTYPE svg PUBLIC "-//W3C//DTD SVG 1.1//EN"
 "http://www.w3.org/Graphics/SVG/1.1/DTD/svg11.dtd">
<!-- Generated by graphviz version 13.1.2 (20250808.2320)
 -->
<!-- Title: isPieceListValid Pages: 1 -->
<svg width="954pt" height="755pt"
 viewBox="0.00 0.00 954.00 755.00" xmlns="http://www.w3.org/2000/svg" xmlns:xlink="http://www.w3.org/1999/xlink">
<g id="graph0" class="graph" transform="scale(1 1) rotate(0) translate(4 751.21)">
<title>isPieceListValid</title>
<!-- Node1 -->
<g id="Node000001" class="node">
<title>Node1</title>
<g id="a_Node000001"><a xlink:title="Validate that piece list array is consistent with board state.">
<polygon fill="#999999" stroke="#666666" points="945.5,-400 860.5,-400 860.5,-380 945.5,-380 945.5,-400"/>
<text xml:space="preserve" text-anchor="middle" x="903" y="-386.5" font-family="Helvetica,sans-Serif" font-size="10.00">isPieceListValid</text>
</a>
</g>
</g>
<!-- Node2 -->
<g id="Node000002" class="node">
<title>Node2</title>
<g id="a_Node000002"><a xlink:href="board_8cpp.html#a27f071824f45c724e8ddd02c72b39871" target="_top" xlink:title="Performs a full internal consistency check of the board state.">
<polygon fill="white" stroke="#666666" points="824.5,-400 731.25,-400 731.25,-380 824.5,-380 824.5,-400"/>
<text xml:space="preserve" text-anchor="middle" x="777.88" y="-386.5" font-family="Helvetica,sans-Serif" font-size="10.00">isBoardStateValid</text>
</a>
</g>
</g>
<!-- Node1&#45;&gt;Node2 -->
<g id="edge1_Node000001_Node000002" class="edge">
<title>Node1&#45;&gt;Node2</title>
<g id="a_edge1_Node000001_Node000002"><a xlink:title=" ">
<path fill="none" stroke="#63b8ff" d="M849.07,-390C840.97,-390 832.67,-390 824.74,-390"/>
<polygon fill="#63b8ff" stroke="#63b8ff" points="848.8,-393.5 858.8,-390 848.8,-386.5 848.8,-393.5"/>
</a>
</g>
</g>
<!-- Node3 -->
<g id="Node000003" class="node">
<title>Node3</title>
<g id="a_Node000003"><a xlink:href="move__generator_8cpp.html#a21d952c048f6586610eafeefcd4a0341" target="_top" xlink:title=" ">
<polygon fill="white" stroke="#666666" points="557.38,-552 432.62,-552 432.62,-532 557.38,-532 557.38,-552"/>
<text xml:space="preserve" text-anchor="middle" x="495" y="-538.5" font-family="Helvetica,sans-Serif" font-size="10.00">AddBlackPawnCapMove</text>
</a>
</g>
</g>
<!-- Node2&#45;&gt;Node3 -->
<g id="edge2_Node000002_Node000003" class="edge">
<title>Node2&#45;&gt;Node3</title>
<g id="a_edge2_Node000002_Node000003"><a xlink:title=" ">
<path fill="none" stroke="#63b8ff" d="M770.06,-410.81C759.26,-440.13 735.25,-492.84 695.25,-518 654.4,-543.69 599.43,-548.61 557.58,-547.71"/>
<polygon fill="#63b8ff" stroke="#63b8ff" points="773.29,-412.18 773.27,-401.58 766.68,-409.87 773.29,-412.18"/>
</a>
</g>
</g>
<!-- Node4 -->
<g id="Node000004" class="node">
<title>Node4</title>
<g id="a_Node000004"><a xlink:href="move__generator_8cpp.html#ae4238c052984ad1c8581f8d0ea5a54bb" target="_top" xlink:title="Generate all pseudo&#45;legal capture moves (including en passant).">
<polygon fill="white" stroke="#666666" points="396.25,-666 291.75,-666 291.75,-646 396.25,-646 396.25,-666"/>
<text xml:space="preserve" text-anchor="middle" x="344" y="-652.5" font-family="Helvetica,sans-Serif" font-size="10.00">generateAllCaptures</text>
</a>
</g>
</g>
<!-- Node2&#45;&gt;Node4 -->
<g id="edge44_Node000002_Node000004" class="edge">
<title>Node2&#45;&gt;Node4</title>
<g id="a_edge44_Node000002_Node000004"><a xlink:title=" ">
<path fill="none" stroke="#63b8ff" d="M777.32,-411.48C777.18,-464.04 769.27,-600.23 695.25,-674 611.55,-757.41 545.51,-746.72 432.25,-713 401.56,-703.86 371.6,-680.11 356.03,-666.32"/>
<polygon fill="#63b8ff" stroke="#63b8ff" points="780.82,-411.75 777.24,-401.78 773.82,-411.8 780.82,-411.75"/>
</a>
</g>
</g>
<!-- Node5 -->
<g id="Node000005" class="node">
<title>Node5</title>
<g id="a_Node000005"><a xlink:href="move__generator_8cpp.html#a4d7178784dec62b5c55f61f52c432fdf" target="_top" xlink:title="Generate all pseudo&#45;legal moves for the side to move.">
<polygon fill="white" stroke="#666666" points="391,-457 297,-457 297,-437 391,-437 391,-457"/>
<text xml:space="preserve" text-anchor="middle" x="344" y="-443.5" font-family="Helvetica,sans-Serif" font-size="10.00">generateAllMoves</text>
</a>
</g>
</g>
<!-- Node2&#45;&gt;Node5 -->
<g id="edge45_Node000002_Node000005" class="edge">
<title>Node2&#45;&gt;Node5</title>
<g id="a_edge45_Node000002_Node000005"><a xlink:title=" ">
<path fill="none" stroke="#63b8ff" d="M763.49,-409.53C749.09,-428.79 724.3,-457.27 695.25,-471 589.42,-521.02 546.84,-508.87 432.25,-485 407.02,-479.74 380.14,-466.78 362.99,-457.46"/>
<polygon fill="#63b8ff" stroke="#63b8ff" points="766.15,-411.82 769.15,-401.66 760.47,-407.73 766.15,-411.82"/>
</a>
</g>
</g>
<!-- Node8 -->
<g id="Node000008" class="node">
<title>Node8</title>
<g id="a_Node000008"><a xlink:href="notation_8cpp.html#a62cf95674b846c7a13035e3c92ab1bcd" target="_top" xlink:title="Parse a move from coordinate notation.">
<polygon fill="white" stroke="#666666" points="255,-485 165.5,-485 165.5,-465 255,-465 255,-485"/>
<text xml:space="preserve" text-anchor="middle" x="210.25" y="-471.5" font-family="Helvetica,sans-Serif" font-size="10.00">parseMoveString</text>
</a>
</g>
</g>
<!-- Node2&#45;&gt;Node8 -->
<g id="edge53_Node000002_Node000008" class="edge">
<title>Node2&#45;&gt;Node8</title>
<g id="a_edge53_Node000002_Node000008"><a xlink:title=" ">
<path fill="none" stroke="#63b8ff" d="M774.57,-411.69C767.06,-477.96 741.14,-675.86 695.25,-718 649.66,-759.86 619.44,-735.1 557.75,-740 436.43,-749.64 375.6,-763.21 291.75,-675 236.82,-617.22 217.57,-517.13 212.65,-485.14"/>
<polygon fill="#63b8ff" stroke="#63b8ff" points="778.04,-412.1 775.66,-401.78 771.08,-411.33 778.04,-412.1"/>
</a>
</g>
</g>
<!-- Node9 -->
<g id="Node000009" class="node">
<title>Node9</title>
<g id="a_Node000009"><a xlink:href="perft_8cpp.html#a84c7e465b44101a59f96b9c21ed0224b" target="_top" xlink:title="Runs a perft search from a given board state.">
<polygon fill="white" stroke="#666666" points="228.75,-343 191.75,-343 191.75,-323 228.75,-323 228.75,-343"/>
<text xml:space="preserve" text-anchor="middle" x="210.25" y="-329.5" font-family="Helvetica,sans-Serif" font-size="10.00">Perft</text>
</a>
</g>
</g>
<!-- Node2&#45;&gt;Node9 -->
<g id="edge54_Node000002_Node000009" class="edge">
<title>Node2&#45;&gt;Node9</title>
<g id="a_edge54_Node000002_Node000009"><a xlink:title=" ">
<path fill="none" stroke="#63b8ff" d="M719.9,-384.26C595.37,-371.71 304.05,-342.35 229.09,-334.8"/>
<polygon fill="#63b8ff" stroke="#63b8ff" points="719.26,-387.71 729.56,-385.23 719.96,-380.75 719.26,-387.71"/>
</a>
</g>
</g>
<!-- Node10 -->
<g id="Node000010" class="node">
<title>Node10</title>
<g id="a_Node000010"><a xlink:href="perft_8cpp.html#a1b6b13d186dab20a18cec1a6b041220b" target="_top" xlink:title="Executes a perft test and prints move breakdown and timing.">
<polygon fill="white" stroke="#666666" points="128.75,-305 73,-305 73,-285 128.75,-285 128.75,-305"/>
<text xml:space="preserve" text-anchor="middle" x="100.88" y="-291.5" font-family="Helvetica,sans-Serif" font-size="10.00">PerftTest</text>
</a>
</g>
</g>
<!-- Node2&#45;&gt;Node10 -->
<g id="edge55_Node000002_Node000010" class="edge">
<title>Node2&#45;&gt;Node10</title>
<g id="a_edge55_Node000002_Node000010"><a xlink:title=" ">
<path fill="none" stroke="#63b8ff" d="M773.77,-368.55C764.65,-308.75 736.03,-142.31 695.25,-108 627.08,-50.64 585.09,-86 496,-86 496,-86 496,-86 343,-86 258.98,-86 226.12,-91.61 164.75,-149 123.43,-187.64 107.97,-258.02 103.45,-284.53"/>
<polygon fill="#63b8ff" stroke="#63b8ff" points="770.26,-368.73 775.19,-378.11 777.18,-367.7 770.26,-368.73"/>
</a>
</g>
</g>
<!-- Node12 -->
<g id="Node000012" class="node">
<title>Node12</title>
<g id="a_Node000012"><a xlink:href="move__generator_8cpp.html#a529fbdfe853d3ad841c4c0b88c8e55f8" target="_top" xlink:title=" ">
<polygon fill="white" stroke="#666666" points="548.38,-476 441.62,-476 441.62,-456 548.38,-456 548.38,-476"/>
<text xml:space="preserve" text-anchor="middle" x="495" y="-462.5" font-family="Helvetica,sans-Serif" font-size="10.00">AddBlackPawnMove</text>
</a>
</g>
</g>
<!-- Node2&#45;&gt;Node12 -->
<g id="edge13_Node000002_Node000012" class="edge">
<title>Node2&#45;&gt;Node12</title>
<g id="a_edge13_Node000002_Node000012"><a xlink:title=" ">
<path fill="none" stroke="#63b8ff" d="M757.83,-407.63C742.25,-420.91 718.98,-438.27 695.25,-447 647.8,-464.45 589.92,-468.2 548.8,-468.19"/>
<polygon fill="#63b8ff" stroke="#63b8ff" points="759.73,-410.61 764.92,-401.37 755.1,-405.36 759.73,-410.61"/>
</a>
</g>
</g>
<!-- Node13 -->
<g id="Node000013" class="node">
<title>Node13</title>
<g id="a_Node000013"><a xlink:href="move__generator_8cpp.html#ad22de88ed58f37e575d4d3bbb7925329" target="_top" xlink:title=" ">
<polygon fill="white" stroke="#666666" points="690.38,-590 598.62,-590 598.62,-570 690.38,-570 690.38,-590"/>
<text xml:space="preserve" text-anchor="middle" x="644.5" y="-576.5" font-family="Helvetica,sans-Serif" font-size="10.00">AddCaptureMove</text>
</a>
</g>
</g>
<!-- Node2&#45;&gt;Node13 -->
<g id="edge15_Node000002_Node000013" class="edge">
<title>Node2&#45;&gt;Node13</title>
<g id="a_edge15_Node000002_Node000013"><a xlink:title=" ">
<path fill="none" stroke="#63b8ff" d="M771.29,-411.43C761.33,-445.91 737.48,-514.09 695.25,-556 689.6,-561.61 682.39,-566.1 675.21,-569.61"/>
<polygon fill="#63b8ff" stroke="#63b8ff" points="774.66,-412.39 773.94,-401.82 767.91,-410.53 774.66,-412.39"/>
</a>
</g>
</g>
<!-- Node14 -->
<g id="Node000014" class="node">
<title>Node14</title>
<g id="a_Node000014"><a xlink:href="move__generator_8cpp.html#aa5050db53ab58a3d01f8db5b0c6681c9" target="_top" xlink:title=" ">
<polygon fill="white" stroke="#666666" points="557.75,-666 432.25,-666 432.25,-646 557.75,-646 557.75,-666"/>
<text xml:space="preserve" text-anchor="middle" x="495" y="-652.5" font-family="Helvetica,sans-Serif" font-size="10.00">AddWhitePawnCapMove</text>
</a>
</g>
</g>
<!-- Node2&#45;&gt;Node14 -->
<g id="edge30_Node000002_Node000014" class="edge">
<title>Node2&#45;&gt;Node14</title>
<g id="a_edge30_Node000002_Node000014"><a xlink:title=" ">
<path fill="none" stroke="#63b8ff" d="M774.66,-411.93C769.18,-454.39 751.11,-548.14 695.25,-599 657.74,-633.15 601.1,-646.98 557.79,-652.5"/>
<polygon fill="#63b8ff" stroke="#63b8ff" points="778.13,-412.34 775.81,-402 771.18,-411.53 778.13,-412.34"/>
</a>
</g>
</g>
<!-- Node15 -->
<g id="Node000015" class="node">
<title>Node15</title>
<g id="a_Node000015"><a xlink:href="move__generator_8cpp.html#a1f1451a443ea747e0af2376725f4c62f" target="_top" xlink:title=" ">
<polygon fill="white" stroke="#666666" points="547.62,-704 442.38,-704 442.38,-684 547.62,-684 547.62,-704"/>
<text xml:space="preserve" text-anchor="middle" x="495" y="-690.5" font-family="Helvetica,sans-Serif" font-size="10.00">AddEnPassantMove</text>
</a>
</g>
</g>
<!-- Node2&#45;&gt;Node15 -->
<g id="edge22_Node000002_Node000015" class="edge">
<title>Node2&#45;&gt;Node15</title>
<g id="a_edge22_Node000002_Node000015"><a xlink:title=" ">
<path fill="none" stroke="#63b8ff" d="M776.14,-411.75C773.32,-459.41 759.81,-573.79 695.25,-636 655.69,-674.12 592.55,-687.41 547.97,-691.92"/>
<polygon fill="#63b8ff" stroke="#63b8ff" points="779.63,-412.08 776.6,-401.92 772.63,-411.75 779.63,-412.08"/>
</a>
</g>
</g>
<!-- Node16 -->
<g id="Node000016" class="node">
<title>Node16</title>
<g id="a_Node000016"><a xlink:href="move__generator_8cpp.html#a3a38227acc56d0a4f2531c45bbf17a43" target="_top" xlink:title=" ">
<polygon fill="white" stroke="#666666" points="684.75,-438 604.25,-438 604.25,-418 684.75,-418 684.75,-438"/>
<text xml:space="preserve" text-anchor="middle" x="644.5" y="-424.5" font-family="Helvetica,sans-Serif" font-size="10.00">AddQuietMove</text>
</a>
</g>
</g>
<!-- Node2&#45;&gt;Node16 -->
<g id="edge25_Node000002_Node000016" class="edge">
<title>Node2&#45;&gt;Node16</title>
<g id="a_edge25_Node000002_Node000016"><a xlink:title=" ">
<path fill="none" stroke="#63b8ff" d="M729.93,-403.58C714.04,-408.18 696.55,-413.23 681.63,-417.55"/>
<polygon fill="#63b8ff" stroke="#63b8ff" points="730.54,-407.05 739.17,-400.9 728.6,-400.32 730.54,-407.05"/>
</a>
</g>
</g>
<!-- Node17 -->
<g id="Node000017" class="node">
<title>Node17</title>
<g id="a_Node000017"><a xlink:href="move__generator_8cpp.html#a6470c50ad0bc1167743755ec2a6be107" target="_top" xlink:title=" ">
<polygon fill="white" stroke="#666666" points="548.75,-400 441.25,-400 441.25,-380 548.75,-380 548.75,-400"/>
<text xml:space="preserve" text-anchor="middle" x="495" y="-386.5" font-family="Helvetica,sans-Serif" font-size="10.00">AddWhitePawnMove</text>
</a>
</g>
</g>
<!-- Node2&#45;&gt;Node17 -->
<g id="edge31_Node000002_Node000017" class="edge">
<title>Node2&#45;&gt;Node17</title>
<g id="a_edge31_Node000002_Node000017"><a xlink:title=" ">
<path fill="none" stroke="#63b8ff" d="M719.53,-390C669.49,-390 597.45,-390 548.79,-390"/>
<polygon fill="#63b8ff" stroke="#63b8ff" points="719.3,-393.5 729.3,-390 719.3,-386.5 719.3,-393.5"/>
</a>
</g>
</g>
<!-- Node18 -->
<g id="Node000018" class="node">
<title>Node18</title>
<g id="a_Node000018"><a xlink:href="make__move_8cpp.html#a7638b740f3b9301ec3ef126abaeef83e" target="_top" xlink:title=" ">
<polygon fill="white" stroke="#666666" points="676.5,-172 612.5,-172 612.5,-152 676.5,-152 676.5,-172"/>
<text xml:space="preserve" text-anchor="middle" x="644.5" y="-158.5" font-family="Helvetica,sans-Serif" font-size="10.00">ClearPiece</text>
</a>
</g>
</g>
<!-- Node2&#45;&gt;Node18 -->
<g id="edge32_Node000002_Node000018" class="edge">
<title>Node2&#45;&gt;Node18</title>
<g id="a_edge32_Node000002_Node000018"><a xlink:title=" ">
<path fill="none" stroke="#63b8ff" d="M773.56,-368.55C766.29,-328.09 745.39,-239.71 695.25,-186 690.02,-180.39 683.19,-175.94 676.29,-172.48"/>
<polygon fill="#63b8ff" stroke="#63b8ff" points="770.07,-368.92 775.18,-378.2 776.98,-367.76 770.07,-368.92"/>
</a>
</g>
</g>
<!-- Node19 -->
<g id="Node000019" class="node">
<title>Node19</title>
<g id="a_Node000019"><a xlink:href="make__move_8cpp.html#a1b56f6dd56425f5fcc2c84f44025d4f5" target="_top" xlink:title="Make a move; returns non&#45;zero if legal (king not left in check).">
<polygon fill="white" stroke="#666666" points="376,-286 312,-286 312,-266 376,-266 376,-286"/>
<text xml:space="preserve" text-anchor="middle" x="344" y="-272.5" font-family="Helvetica,sans-Serif" font-size="10.00">makeMove</text>
</a>
</g>
</g>
<!-- Node2&#45;&gt;Node19 -->
<g id="edge50_Node000002_Node000019" class="edge">
<title>Node2&#45;&gt;Node19</title>
<g id="a_edge50_Node000002_Node000019"><a xlink:title=" ">
<path fill="none" stroke="#63b8ff" d="M771.17,-368.69C761.37,-336.45 738.12,-275.77 695.25,-245 599.82,-176.52 541.72,-176.42 432.25,-219 412.02,-226.87 414.29,-239.92 396.25,-252 388.58,-257.14 379.63,-261.74 371.38,-265.5"/>
<polygon fill="#63b8ff" stroke="#63b8ff" points="767.74,-369.44 773.87,-378.08 774.47,-367.51 767.74,-369.44"/>
</a>
</g>
</g>
<!-- Node20 -->
<g id="Node000020" class="node">
<title>Node20</title>
<g id="a_Node000020"><a xlink:href="make__move_8cpp.html#aa9576282fc64517514da4a21518ae4d7" target="_top" xlink:title="Undo the last made move.">
<polygon fill="white" stroke="#666666" points="524.38,-134 465.62,-134 465.62,-114 524.38,-114 524.38,-134"/>
<text xml:space="preserve" text-anchor="middle" x="495" y="-120.5" font-family="Helvetica,sans-Serif" font-size="10.00">takeMove</text>
</a>
</g>
</g>
<!-- Node2&#45;&gt;Node20 -->
<g id="edge56_Node000002_Node000020" class="edge">
<title>Node2&#45;&gt;Node20</title>
<g id="a_edge56_Node000002_Node000020"><a xlink:title=" ">
<path fill="none" stroke="#63b8ff" d="M777.01,-368.22C776.02,-319.09 766.06,-199.49 695.25,-143 646.08,-103.78 566.84,-110.52 524.62,-117.84"/>
<polygon fill="#63b8ff" stroke="#63b8ff" points="773.51,-368.13 777.09,-378.1 780.51,-368.07 773.51,-368.13"/>
</a>
</g>
</g>
<!-- Node21 -->
<g id="Node000021" class="node">
<title>Node21</title>
<g id="a_Node000021"><a xlink:href="attack_8cpp.html#a36ea46ff61e0738a61f70dcf90b5178b" target="_top" xlink:title="Determines if a given square is attacked by a given side.">
<polygon fill="white" stroke="#666666" points="691.12,-315 597.88,-315 597.88,-295 691.12,-295 691.12,-315"/>
<text xml:space="preserve" text-anchor="middle" x="644.5" y="-301.5" font-family="Helvetica,sans-Serif" font-size="10.00">isSquareAttacked</text>
</a>
</g>
</g>
<!-- Node2&#45;&gt;Node21 -->
<g id="edge46_Node000002_Node000021" class="edge">
<title>Node2&#45;&gt;Node21</title>
<g id="a_edge46_Node000002_Node000021"><a xlink:title=" ">
<path fill="none" stroke="#63b8ff" d="M751.31,-373.46C724.64,-356.2 683.66,-329.69 661.33,-315.24"/>
<polygon fill="#63b8ff" stroke="#63b8ff" points="749.2,-376.26 759.5,-378.76 753,-370.38 749.2,-376.26"/>
</a>
</g>
</g>
<!-- Node22 -->
<g id="Node000022" class="node">
<title>Node22</title>
<g id="a_Node000022"><a xlink:href="make__move_8cpp.html#a9c21455a32eaf2bdea582755aa32aa4d" target="_top" xlink:title="Make a null move (side to move toggles, no pieces moved).">
<polygon fill="white" stroke="#666666" points="535.62,-248 454.38,-248 454.38,-228 535.62,-228 535.62,-248"/>
<text xml:space="preserve" text-anchor="middle" x="495" y="-234.5" font-family="Helvetica,sans-Serif" font-size="10.00">makeNullMove</text>
</a>
</g>
</g>
<!-- Node2&#45;&gt;Node22 -->
<g id="edge51_Node000002_Node000022" class="edge">
<title>Node2&#45;&gt;Node22</title>
<g id="a_edge51_Node000002_Node000022"><a xlink:title=" ">
<path fill="none" stroke="#63b8ff" d="M766.36,-369.48C753.07,-345.66 727.93,-306.99 695.25,-286 646.3,-254.56 578.6,-243.7 536.07,-239.96"/>
<polygon fill="#63b8ff" stroke="#63b8ff" points="763.23,-371.06 771.05,-378.21 769.4,-367.75 763.23,-371.06"/>
</a>
</g>
</g>
<!-- Node23 -->
<g id="Node000023" class="node">
<title>Node23</title>
<g id="a_Node000023"><a xlink:href="board_8cpp.html#aa79d9c29f4add58463f9a03d17085132" target="_top" xlink:title="Flip the board vertically, swapping colors and positions.">
<polygon fill="white" stroke="#666666" points="695.25,-58 593.75,-58 593.75,-38 695.25,-38 695.25,-58"/>
<text xml:space="preserve" text-anchor="middle" x="644.5" y="-44.5" font-family="Helvetica,sans-Serif" font-size="10.00">mirrorBoardPosition</text>
</a>
</g>
</g>
<!-- Node2&#45;&gt;Node23 -->
<g id="edge52_Node000002_Node000023" class="edge">
<title>Node2&#45;&gt;Node23</title>
<g id="a_edge52_Node000002_Node000023"><a xlink:title=" ">
<path fill="none" stroke="#63b8ff" d="M777.26,-368.33C777.13,-312.65 769.47,-162.61 695.25,-72 690.57,-66.29 684.21,-61.84 677.59,-58.41"/>
<polygon fill="#63b8ff" stroke="#63b8ff" points="773.77,-368.01 777.2,-378.04 780.77,-368.06 773.77,-368.01"/>
</a>
</g>
</g>
<!-- Node24 -->
<g id="Node000024" class="node">
<title>Node24</title>
<g id="a_Node000024"><a xlink:href="make__move_8cpp.html#a15152cddb56a865bf5796792f35b4d50" target="_top" xlink:title="Undo the last null move.">
<polygon fill="white" stroke="#666666" points="682.5,-20 606.5,-20 606.5,0 682.5,0 682.5,-20"/>
<text xml:space="preserve" text-anchor="middle" x="644.5" y="-6.5" font-family="Helvetica,sans-Serif" font-size="10.00">takeNullMove</text>
</a>
</g>
</g>
<!-- Node2&#45;&gt;Node24 -->
<g id="edge57_Node000002_Node000024" class="edge">
<title>Node2&#45;&gt;Node24</title>
<g id="a_edge57_Node000002_Node000024"><a xlink:title=" ">
<path fill="none" stroke="#63b8ff" d="M774.66,-368.4C767.11,-298.66 740.32,-80.99 695.25,-29 691.86,-25.09 687.57,-21.98 682.94,-19.51"/>
<polygon fill="#63b8ff" stroke="#63b8ff" points="771.15,-368.55 775.69,-378.12 778.12,-367.81 771.15,-368.55"/>
</a>
</g>
</g>
<!-- Node3&#45;&gt;Node4 -->
<g id="edge3_Node000003_Node000004" class="edge">
<title>Node3&#45;&gt;Node4</title>
<g id="a_edge3_Node000003_Node000004"><a xlink:title=" ">
<path fill="none" stroke="#63b8ff" d="M471.62,-559.13C440.18,-583.18 383.95,-626.2 358.35,-645.79"/>
<polygon fill="#63b8ff" stroke="#63b8ff" points="473.5,-562.09 479.31,-553.24 469.24,-556.53 473.5,-562.09"/>
</a>
</g>
</g>
<!-- Node3&#45;&gt;Node5 -->
<g id="edge4_Node000003_Node000005" class="edge">
<title>Node3&#45;&gt;Node5</title>
<g id="a_edge4_Node000003_Node000005"><a xlink:title=" ">
<path fill="none" stroke="#63b8ff" d="M450.77,-527.2C444.4,-524.45 438.05,-521.37 432.25,-518 401.86,-500.32 371.07,-472.4 355.47,-457.38"/>
<polygon fill="#63b8ff" stroke="#63b8ff" points="449.4,-530.42 459.98,-530.93 452.03,-523.93 449.4,-530.42"/>
</a>
</g>
</g>
<!-- Node6 -->
<g id="Node000006" class="node">
<title>Node6</title>
<g id="a_Node000006"><a xlink:href="interactive__helpers_8cpp.html#a37716374c6b9557c96dfddf75ab56e72" target="_top" xlink:title="Build list of legal moves that originate from from.">
<polygon fill="white" stroke="#666666" points="255.75,-229 164.75,-229 164.75,-209 255.75,-209 255.75,-229"/>
<text xml:space="preserve" text-anchor="middle" x="210.25" y="-215.5" font-family="Helvetica,sans-Serif" font-size="10.00">LegalMovesFrom</text>
</a>
</g>
</g>
<!-- Node5&#45;&gt;Node6 -->
<g id="edge5_Node000005_Node000006" class="edge">
<title>Node5&#45;&gt;Node6</title>
<g id="a_edge5_Node000005_Node000006"><a xlink:title=" ">
<path fill="none" stroke="#63b8ff" d="M336.4,-425.77C321.32,-378.38 283.52,-265.99 255.75,-238 252.32,-234.54 248.16,-231.67 243.77,-229.31"/>
<polygon fill="#63b8ff" stroke="#63b8ff" points="333,-426.63 339.34,-435.12 339.68,-424.53 333,-426.63"/>
</a>
</g>
</g>
<!-- Node7 -->
<g id="Node000007" class="node">
<title>Node7</title>
<g id="a_Node000007"><a xlink:href="move__generator_8cpp.html#a4edc18741a17d00498b72b349879e30d" target="_top" xlink:title="Check if a given move exists in the current position.">
<polygon fill="white" stroke="#666666" points="244.12,-267 176.38,-267 176.38,-247 244.12,-247 244.12,-267"/>
<text xml:space="preserve" text-anchor="middle" x="210.25" y="-253.5" font-family="Helvetica,sans-Serif" font-size="10.00">moveExists</text>
</a>
</g>
</g>
<!-- Node5&#45;&gt;Node7 -->
<g id="edge6_Node000005_Node000007" class="edge">
<title>Node5&#45;&gt;Node7</title>
<g id="a_edge6_Node000005_Node000007"><a xlink:title=" ">
<path fill="none" stroke="#63b8ff" d="M330.75,-427.24C314.3,-400.96 283.88,-353.26 255.75,-314 243.76,-297.26 228.87,-278.58 219.71,-267.31"/>
<polygon fill="#63b8ff" stroke="#63b8ff" points="327.65,-428.88 335.91,-435.51 333.59,-425.18 327.65,-428.88"/>
</a>
</g>
</g>
<!-- Node5&#45;&gt;Node8 -->
<g id="edge7_Node000005_Node000008" class="edge">
<title>Node5&#45;&gt;Node8</title>
<g id="a_edge7_Node000005_Node000008"><a xlink:title=" ">
<path fill="none" stroke="#63b8ff" d="M285.6,-459.2C275.37,-461.37 264.85,-463.61 255.07,-465.69"/>
<polygon fill="#63b8ff" stroke="#63b8ff" points="286.02,-462.69 295.07,-457.19 284.56,-455.84 286.02,-462.69"/>
</a>
</g>
</g>
<!-- Node5&#45;&gt;Node9 -->
<g id="edge8_Node000005_Node000009" class="edge">
<title>Node5&#45;&gt;Node9</title>
<g id="a_edge8_Node000005_Node000009"><a xlink:title=" ">
<path fill="none" stroke="#63b8ff" d="M322.75,-429.48C294.89,-405.37 245.64,-362.76 223.11,-343.26"/>
<polygon fill="#63b8ff" stroke="#63b8ff" points="320.31,-432 330.16,-435.89 324.89,-426.7 320.31,-432"/>
</a>
</g>
</g>
<!-- Node5&#45;&gt;Node10 -->
<g id="edge12_Node000005_Node000010" class="edge">
<title>Node5&#45;&gt;Node10</title>
<g id="a_edge12_Node000005_Node000010"><a xlink:title=" ">
<path fill="none" stroke="#63b8ff" d="M295.18,-433.11C257.35,-420.6 204.48,-399.61 164.75,-370 139.82,-351.42 118.4,-321.08 108.22,-305.29"/>
<polygon fill="#63b8ff" stroke="#63b8ff" points="293.88,-436.37 304.47,-436.1 296.02,-429.71 293.88,-436.37"/>
</a>
</g>
</g>
<!-- Node9&#45;&gt;Node9 -->
<g id="edge9_Node000009_Node000009" class="edge">
<title>Node9&#45;&gt;Node9</title>
<g id="a_edge9_Node000009_Node000009"><a xlink:title=" ">
<path fill="none" stroke="#63b8ff" d="M229.58,-354.44C227.09,-358.3 220.65,-361 210.25,-361 191.24,-361 185.44,-351.98 192.87,-343.34"/>
<polygon fill="#63b8ff" stroke="#63b8ff" points="233.07,-354.07 227.89,-344.83 226.18,-355.28 233.07,-354.07"/>
</a>
</g>
</g>
<!-- Node9&#45;&gt;Node10 -->
<g id="edge10_Node000009_Node000010" class="edge">
<title>Node9&#45;&gt;Node10</title>
<g id="a_edge10_Node000009_Node000010"><a xlink:title=" ">
<path fill="none" stroke="#63b8ff" d="M181.09,-323.04C164.97,-317.33 144.83,-310.2 128.9,-304.56"/>
<polygon fill="#63b8ff" stroke="#63b8ff" points="179.5,-326.18 190.09,-326.22 181.83,-319.58 179.5,-326.18"/>
</a>
</g>
</g>
<!-- Node11 -->
<g id="Node000011" class="node">
<title>Node11</title>
<g id="a_Node000011"><a xlink:href="main_8cpp.html#ae66f6b31b5ad750f1fe042a706a4e3d4" target="_top" xlink:title=" ">
<polygon fill="white" stroke="#666666" points="37,-305 0,-305 0,-285 37,-285 37,-305"/>
<text xml:space="preserve" text-anchor="middle" x="18.5" y="-291.5" font-family="Helvetica,sans-Serif" font-size="10.00">main</text>
</a>
</g>
</g>
<!-- Node10&#45;&gt;Node11 -->
<g id="edge11_Node000010_Node000011" class="edge">
<title>Node10&#45;&gt;Node11</title>
<g id="a_edge11_Node000010_Node000011"><a xlink:title=" ">
<path fill="none" stroke="#63b8ff" d="M61.39,-295C52.98,-295 44.47,-295 37.34,-295"/>
<polygon fill="#63b8ff" stroke="#63b8ff" points="61.15,-298.5 71.15,-295 61.15,-291.5 61.15,-298.5"/>
</a>
</g>
</g>
<!-- Node12&#45;&gt;Node5 -->
<g id="edge14_Node000012_Node000005" class="edge">
<title>Node12&#45;&gt;Node5</title>
<g id="a_edge14_Node000012_Node000005"><a xlink:title=" ">
<path fill="none" stroke="#63b8ff" d="M430.11,-457.85C417,-456.18 403.45,-454.45 391.11,-452.88"/>
<polygon fill="#63b8ff" stroke="#63b8ff" points="429.6,-461.32 439.97,-459.11 430.49,-454.37 429.6,-461.32"/>
</a>
</g>
</g>
<!-- Node13&#45;&gt;Node3 -->
<g id="edge16_Node000013_Node000003" class="edge">
<title>Node13&#45;&gt;Node3</title>
<g id="a_edge16_Node000013_Node000003"><a xlink:title=" ">
<path fill="none" stroke="#63b8ff" d="M591.82,-566.69C573.71,-562.02 553.64,-556.85 536.56,-552.45"/>
<polygon fill="#63b8ff" stroke="#63b8ff" points="590.78,-570.03 601.34,-569.14 592.53,-563.25 590.78,-570.03"/>
</a>
</g>
</g>
<!-- Node13&#45;&gt;Node4 -->
<g id="edge20_Node000013_Node000004" class="edge">
<title>Node13&#45;&gt;Node4</title>
<g id="a_edge20_Node000013_Node000004"><a xlink:title=" ">
<path fill="none" stroke="#63b8ff" d="M591.46,-593.25C532.96,-608.14 439.2,-632.02 385.77,-645.62"/>
<polygon fill="#63b8ff" stroke="#63b8ff" points="592.01,-596.72 600.84,-590.86 590.29,-589.94 592.01,-596.72"/>
</a>
</g>
</g>
<!-- Node13&#45;&gt;Node5 -->
<g id="edge21_Node000013_Node000005" class="edge">
<title>Node13&#45;&gt;Node5</title>
<g id="a_edge21_Node000013_Node000005"><a xlink:title=" ">
<path fill="none" stroke="#63b8ff" d="M587.18,-586.8C542.44,-589.52 479.72,-587.16 432.25,-561 388.37,-536.82 359.61,-480.33 349.28,-457.18"/>
<polygon fill="#63b8ff" stroke="#63b8ff" points="587.2,-590.3 596.92,-586.09 586.69,-583.32 587.2,-590.3"/>
</a>
</g>
</g>
<!-- Node13&#45;&gt;Node14 -->
<g id="edge17_Node000013_Node000014" class="edge">
<title>Node13&#45;&gt;Node14</title>
<g id="a_edge17_Node000013_Node000014"><a xlink:title=" ">
<path fill="none" stroke="#63b8ff" d="M618.57,-596.71C601.8,-607.55 578.96,-621.55 557.75,-632 547.64,-636.98 536.22,-641.67 525.98,-645.55"/>
<polygon fill="#63b8ff" stroke="#63b8ff" points="620.45,-599.67 626.89,-591.26 616.61,-593.81 620.45,-599.67"/>
</a>
</g>
</g>
<!-- Node14&#45;&gt;Node4 -->
<g id="edge18_Node000014_Node000004" class="edge">
<title>Node14&#45;&gt;Node4</title>
<g id="a_edge18_Node000014_Node000004"><a xlink:title=" ">
<path fill="none" stroke="#63b8ff" d="M420.64,-656C412.49,-656 404.33,-656 396.53,-656"/>
<polygon fill="#63b8ff" stroke="#63b8ff" points="420.59,-659.5 430.59,-656 420.59,-652.5 420.59,-659.5"/>
</a>
</g>
</g>
<!-- Node14&#45;&gt;Node5 -->
<g id="edge19_Node000014_Node000005" class="edge">
<title>Node14&#45;&gt;Node5</title>
<g id="a_edge19_Node000014_Node000005"><a xlink:title=" ">
<path fill="none" stroke="#63b8ff" d="M474.04,-638.37C461.27,-626.53 444.8,-610.19 432.25,-594 395.34,-546.39 362.1,-481.85 349.92,-457.17"/>
<polygon fill="#63b8ff" stroke="#63b8ff" points="471.33,-640.63 481.08,-644.77 476.04,-635.45 471.33,-640.63"/>
</a>
</g>
</g>
<!-- Node15&#45;&gt;Node4 -->
<g id="edge23_Node000015_Node000004" class="edge">
<title>Node15&#45;&gt;Node4</title>
<g id="a_edge23_Node000015_Node000004"><a xlink:title=" ">
<path fill="none" stroke="#63b8ff" d="M441.8,-680.69C423.5,-676.02 403.22,-670.85 385.98,-666.45"/>
<polygon fill="#63b8ff" stroke="#63b8ff" points="440.87,-684.06 451.42,-683.14 442.6,-677.28 440.87,-684.06"/>
</a>
</g>
</g>
<!-- Node15&#45;&gt;Node5 -->
<g id="edge24_Node000015_Node000005" class="edge">
<title>Node15&#45;&gt;Node5</title>
<g id="a_edge24_Node000015_Node000005"><a xlink:title=" ">
<path fill="none" stroke="#63b8ff" d="M435.12,-677.47C434.13,-676.68 433.17,-675.86 432.25,-675 365.39,-612.47 349.24,-493.14 345.83,-457.38"/>
<polygon fill="#63b8ff" stroke="#63b8ff" points="433.21,-680.4 443.54,-682.77 436.94,-674.48 433.21,-680.4"/>
</a>
</g>
</g>
<!-- Node16&#45;&gt;Node5 -->
<g id="edge29_Node000016_Node000005" class="edge">
<title>Node16&#45;&gt;Node5</title>
<g id="a_edge29_Node000016_Node000005"><a xlink:title=" ">
<path fill="none" stroke="#63b8ff" d="M592.71,-431.23C536.3,-434.82 446.02,-440.57 391.43,-444.04"/>
<polygon fill="#63b8ff" stroke="#63b8ff" points="592.59,-434.75 602.35,-430.62 592.15,-427.76 592.59,-434.75"/>
</a>
</g>
</g>
<!-- Node16&#45;&gt;Node12 -->
<g id="edge26_Node000016_Node000012" class="edge">
<title>Node16&#45;&gt;Node12</title>
<g id="a_edge26_Node000016_Node000012"><a xlink:title=" ">
<path fill="none" stroke="#63b8ff" d="M592.87,-441.04C574.52,-445.77 554.05,-451.05 536.66,-455.52"/>
<polygon fill="#63b8ff" stroke="#63b8ff" points="593.7,-444.45 602.51,-438.56 591.95,-437.67 593.7,-444.45"/>
</a>
</g>
</g>
<!-- Node16&#45;&gt;Node17 -->
<g id="edge27_Node000016_Node000017" class="edge">
<title>Node16&#45;&gt;Node17</title>
<g id="a_edge27_Node000016_Node000017"><a xlink:title=" ">
<path fill="none" stroke="#63b8ff" d="M592.87,-414.96C574.52,-410.23 554.05,-404.95 536.66,-400.48"/>
<polygon fill="#63b8ff" stroke="#63b8ff" points="591.95,-418.33 602.51,-417.44 593.7,-411.55 591.95,-418.33"/>
</a>
</g>
</g>
<!-- Node17&#45;&gt;Node5 -->
<g id="edge28_Node000017_Node000005" class="edge">
<title>Node17&#45;&gt;Node5</title>
<g id="a_edge28_Node000017_Node000005"><a xlink:title=" ">
<path fill="none" stroke="#63b8ff" d="M456.03,-404.53C429.93,-414.51 395.88,-427.54 372.41,-436.52"/>
<polygon fill="#63b8ff" stroke="#63b8ff" points="457.17,-407.84 465.26,-401 454.67,-401.3 457.17,-407.84"/>
</a>
</g>
</g>
<!-- Node18&#45;&gt;Node19 -->
<g id="edge33_Node000018_Node000019" class="edge">
<title>Node18&#45;&gt;Node19</title>
<g id="a_edge33_Node000018_Node000019"><a xlink:title=" ">
<path fill="none" stroke="#63b8ff" d="M600.89,-155.99C555.23,-151.86 482.54,-152.16 432.25,-186 404.53,-204.65 420.59,-229.11 396.25,-252 390.31,-257.59 382.83,-262.07 375.44,-265.59"/>
<polygon fill="#63b8ff" stroke="#63b8ff" points="600.36,-159.46 610.66,-157 601.08,-152.49 600.36,-159.46"/>
</a>
</g>
</g>
<!-- Node18&#45;&gt;Node20 -->
<g id="edge38_Node000018_Node000020" class="edge">
<title>Node18&#45;&gt;Node20</title>
<g id="a_edge38_Node000018_Node000020"><a xlink:title=" ">
<path fill="none" stroke="#63b8ff" d="M601.4,-151.15C576.86,-144.83 546.54,-137.02 524.73,-131.4"/>
<polygon fill="#63b8ff" stroke="#63b8ff" points="600.2,-154.46 610.75,-153.56 601.94,-147.68 600.2,-154.46"/>
</a>
</g>
</g>
<!-- Node19&#45;&gt;Node6 -->
<g id="edge34_Node000019_Node000006" class="edge">
<title>Node19&#45;&gt;Node6</title>
<g id="a_edge34_Node000019_Node000006"><a xlink:title=" ">
<path fill="none" stroke="#63b8ff" d="M308.79,-261.03C292.7,-254.01 273.25,-245.55 255.75,-238 249.27,-235.21 242.25,-232.2 235.75,-229.42"/>
<polygon fill="#63b8ff" stroke="#63b8ff" points="307.37,-264.23 317.93,-265.03 310.17,-257.82 307.37,-264.23"/>
</a>
</g>
</g>
<!-- Node19&#45;&gt;Node7 -->
<g id="edge35_Node000019_Node000007" class="edge">
<title>Node19&#45;&gt;Node7</title>
<g id="a_edge35_Node000019_Node000007"><a xlink:title=" ">
<path fill="none" stroke="#63b8ff" d="M300.6,-269.89C282.45,-267.27 261.56,-264.26 244.55,-261.8"/>
<polygon fill="#63b8ff" stroke="#63b8ff" points="299.88,-273.32 310.28,-271.28 300.88,-266.39 299.88,-273.32"/>
</a>
</g>
</g>
<!-- Node19&#45;&gt;Node9 -->
<g id="edge36_Node000019_Node000009" class="edge">
<title>Node19&#45;&gt;Node9</title>
<g id="a_edge36_Node000019_Node000009"><a xlink:title=" ">
<path fill="none" stroke="#63b8ff" d="M308.46,-290.94C282.93,-301.99 249.21,-316.58 228.94,-325.35"/>
<polygon fill="#63b8ff" stroke="#63b8ff" points="309.66,-294.24 317.45,-287.06 306.88,-287.81 309.66,-294.24"/>
</a>
</g>
</g>
<!-- Node19&#45;&gt;Node10 -->
<g id="edge37_Node000019_Node000010" class="edge">
<title>Node19&#45;&gt;Node10</title>
<g id="a_edge37_Node000019_Node000010"><a xlink:title=" ">
<path fill="none" stroke="#63b8ff" d="M300.71,-279.33C251.26,-283.23 170.87,-289.56 129.07,-292.86"/>
<polygon fill="#63b8ff" stroke="#63b8ff" points="300.77,-282.84 310.46,-278.56 300.22,-275.86 300.77,-282.84"/>
</a>
</g>
</g>
<!-- Node20&#45;&gt;Node6 -->
<g id="edge39_Node000020_Node000006" class="edge">
<title>Node20&#45;&gt;Node6</title>
<g id="a_edge39_Node000020_Node000006"><a xlink:title=" ">
<path fill="none" stroke="#63b8ff" d="M454.37,-134.98C413.34,-146.63 347.54,-166.06 291.75,-186 272.41,-192.91 250.9,-201.79 234.98,-208.6"/>
<polygon fill="#63b8ff" stroke="#63b8ff" points="455.13,-138.41 463.8,-132.32 453.23,-131.67 455.13,-138.41"/>
</a>
</g>
</g>
<!-- Node20&#45;&gt;Node7 -->
<g id="edge41_Node000020_Node000007" class="edge">
<title>Node20&#45;&gt;Node7</title>
<g id="a_edge41_Node000020_Node000007"><a xlink:title=" ">
<path fill="none" stroke="#63b8ff" d="M454.92,-138.05C447.16,-141.5 439.25,-145.51 432.25,-150 413.98,-161.72 414.66,-171.51 396.25,-183 353.92,-209.41 338.06,-205.43 291.75,-224 273.11,-231.48 252.11,-240.09 236.23,-246.65"/>
<polygon fill="#63b8ff" stroke="#63b8ff" points="456.04,-141.38 463.92,-134.29 453.34,-134.92 456.04,-141.38"/>
</a>
</g>
</g>
<!-- Node20&#45;&gt;Node9 -->
<g id="edge42_Node000020_Node000009" class="edge">
<title>Node20&#45;&gt;Node9</title>
<g id="a_edge42_Node000020_Node000009"><a xlink:title=" ">
<path fill="none" stroke="#63b8ff" d="M454.73,-135.77C446.67,-139.43 438.69,-144.1 432.25,-150 407.03,-173.09 421.95,-195.44 396.25,-218 359,-250.71 333.83,-230.8 291.75,-257 261.89,-275.59 233.59,-306.44 219.87,-322.52"/>
<polygon fill="#63b8ff" stroke="#63b8ff" points="455.88,-139.08 463.84,-132.08 453.25,-132.59 455.88,-139.08"/>
</a>
</g>
</g>
<!-- Node20&#45;&gt;Node10 -->
<g id="edge43_Node000020_Node000010" class="edge">
<title>Node20&#45;&gt;Node10</title>
<g id="a_edge43_Node000020_Node000010"><a xlink:title=" ">
<path fill="none" stroke="#63b8ff" d="M453.89,-122.42C386.52,-121.9 249.66,-130.3 164.75,-200 135.4,-224.1 114.71,-265.49 106.2,-284.67"/>
<polygon fill="#63b8ff" stroke="#63b8ff" points="453.69,-125.92 463.74,-122.57 453.8,-118.92 453.69,-125.92"/>
</a>
</g>
</g>
<!-- Node20&#45;&gt;Node19 -->
<g id="edge40_Node000020_Node000019" class="edge">
<title>Node20&#45;&gt;Node19</title>
<g id="a_edge40_Node000020_Node000019"><a xlink:title=" ">
<path fill="none" stroke="#63b8ff" d="M454.5,-133.51C446.32,-136.97 438.35,-141.66 432.25,-148 398.32,-183.23 428.98,-215.65 396.25,-252 390.86,-257.99 383.66,-262.6 376.37,-266.11"/>
<polygon fill="#63b8ff" stroke="#63b8ff" points="455.59,-136.83 463.8,-130.14 453.2,-130.25 455.59,-136.83"/>
</a>
</g>
</g>
<!-- Node21&#45;&gt;Node5 -->
<g id="edge47_Node000021_Node000005" class="edge">
<title>Node21&#45;&gt;Node5</title>
<g id="a_edge47_Node000021_Node000005"><a xlink:title=" ">
<path fill="none" stroke="#63b8ff" d="M586.54,-316.06C542.49,-326.17 481,-343.75 432.25,-371 399.99,-389.03 369.03,-420.41 354.17,-436.63"/>
<polygon fill="#63b8ff" stroke="#63b8ff" points="587.15,-319.51 596.15,-313.92 585.63,-312.68 587.15,-319.51"/>
</a>
</g>
</g>
<!-- Node21&#45;&gt;Node19 -->
<g id="edge48_Node000021_Node000019" class="edge">
<title>Node21&#45;&gt;Node19</title>
<g id="a_edge48_Node000021_Node000019"><a xlink:title=" ">
<path fill="none" stroke="#63b8ff" d="M586.28,-299.44C523.84,-293.37 426.14,-283.88 376.39,-279.05"/>
<polygon fill="#63b8ff" stroke="#63b8ff" points="585.72,-302.9 596.01,-300.39 586.39,-295.94 585.72,-302.9"/>
</a>
</g>
</g>
<!-- Node21&#45;&gt;Node22 -->
<g id="edge49_Node000021_Node000022" class="edge">
<title>Node21&#45;&gt;Node22</title>
<g id="a_edge49_Node000021_Node000022"><a xlink:title=" ">
<path fill="none" stroke="#63b8ff" d="M613.94,-289.32C597.56,-280.84 576.73,-270.42 557.75,-262 547.03,-257.24 535.05,-252.46 524.51,-248.44"/>
<polygon fill="#63b8ff" stroke="#63b8ff" points="612.17,-292.34 622.66,-293.86 615.41,-286.13 612.17,-292.34"/>
</a>
</g>
</g>
</g>
</svg>
