<?xml version="1.0" encoding="UTF-8" standalone="no"?>
<!DOCTYPE svg PUBLIC "-//W3C//DTD SVG 1.1//EN"
 "http://www.w3.org/Graphics/SVG/1.1/DTD/svg11.dtd">
<!-- Generated by graphviz version 13.1.2 (20250808.2320)
 -->
<!-- Title: updateListsMaterial Pages: 1 -->
<svg width="319pt" height="66pt"
 viewBox="0.00 0.00 319.00 66.00" xmlns="http://www.w3.org/2000/svg" xmlns:xlink="http://www.w3.org/1999/xlink">
<g id="graph0" class="graph" transform="scale(1 1) rotate(0) translate(4 62)">
<title>updateListsMaterial</title>
<!-- Node1 -->
<g id="Node000001" class="node">
<title>Node1</title>
<g id="a_Node000001"><a xlink:title="Update piece lists, material counts, and pawn bitboards from scratch.">
<polygon fill="#999999" stroke="#666666" points="311.25,-39 210.5,-39 210.5,-19 311.25,-19 311.25,-39"/>
<text xml:space="preserve" text-anchor="middle" x="260.88" y="-25.5" font-family="Helvetica,sans-Serif" font-size="10.00">updateListsMaterial</text>
</a>
</g>
</g>
<!-- Node2 -->
<g id="Node000002" class="node">
<title>Node2</title>
<g id="a_Node000002"><a xlink:href="board_8cpp.html#aad9cde553dadb6876eb29b43c8f66b08" target="_top" xlink:title="Parse a FEN string into the given board state.">
<polygon fill="white" stroke="#666666" points="150.88,-58 96.62,-58 96.62,-38 150.88,-38 150.88,-58"/>
<text xml:space="preserve" text-anchor="middle" x="123.75" y="-44.5" font-family="Helvetica,sans-Serif" font-size="10.00">loadFEN</text>
</a>
</g>
</g>
<!-- Node1&#45;&gt;Node2 -->
<g id="edge1_Node000001_Node000002" class="edge">
<title>Node1&#45;&gt;Node2</title>
<g id="a_edge1_Node000001_Node000002"><a xlink:title=" ">
<path fill="none" stroke="#63b8ff" d="M199.35,-37.51C182.45,-39.89 164.95,-42.35 151.16,-44.29"/>
<polygon fill="#63b8ff" stroke="#63b8ff" points="199.41,-41.04 208.83,-36.18 198.44,-34.1 199.41,-41.04"/>
</a>
</g>
</g>
<!-- Node4 -->
<g id="Node000004" class="node">
<title>Node4</title>
<g id="a_Node000004"><a xlink:href="board_8cpp.html#aa79d9c29f4add58463f9a03d17085132" target="_top" xlink:title="Flip the board vertically, swapping colors and positions.">
<polygon fill="white" stroke="#666666" points="174.5,-20 73,-20 73,0 174.5,0 174.5,-20"/>
<text xml:space="preserve" text-anchor="middle" x="123.75" y="-6.5" font-family="Helvetica,sans-Serif" font-size="10.00">mirrorBoardPosition</text>
</a>
</g>
</g>
<!-- Node1&#45;&gt;Node4 -->
<g id="edge3_Node000001_Node000004" class="edge">
<title>Node1&#45;&gt;Node4</title>
<g id="a_edge3_Node000001_Node000004"><a xlink:title=" ">
<path fill="none" stroke="#63b8ff" d="M198.99,-20.44C190.88,-19.3 182.64,-18.14 174.74,-17.03"/>
<polygon fill="#63b8ff" stroke="#63b8ff" points="198.44,-23.9 208.83,-21.82 199.41,-16.96 198.44,-23.9"/>
</a>
</g>
</g>
<!-- Node3 -->
<g id="Node000003" class="node">
<title>Node3</title>
<g id="a_Node000003"><a xlink:href="main_8cpp.html#ae66f6b31b5ad750f1fe042a706a4e3d4" target="_top" xlink:title=" ">
<polygon fill="white" stroke="#666666" points="37,-58 0,-58 0,-38 37,-38 37,-58"/>
<text xml:space="preserve" text-anchor="middle" x="18.5" y="-44.5" font-family="Helvetica,sans-Serif" font-size="10.00">main</text>
</a>
</g>
</g>
<!-- Node2&#45;&gt;Node3 -->
<g id="edge2_Node000002_Node000003" class="edge">
<title>Node2&#45;&gt;Node3</title>
<g id="a_edge2_Node000002_Node000003"><a xlink:title=" ">
<path fill="none" stroke="#63b8ff" d="M84.76,-48C68.49,-48 50.28,-48 37.23,-48"/>
<polygon fill="#63b8ff" stroke="#63b8ff" points="84.65,-51.5 94.65,-48 84.65,-44.5 84.65,-51.5"/>
</a>
</g>
</g>
</g>
</svg>
