<?xml version="1.0" encoding="UTF-8" standalone="no"?>
<!DOCTYPE svg PUBLIC "-//W3C//DTD SVG 1.1//EN"
 "http://www.w3.org/Graphics/SVG/1.1/DTD/svg11.dtd">
<!-- Generated by graphviz version 13.1.2 (20250808.2320)
 -->
<!-- Title: defs.h Pages: 1 -->
<svg width="1709pt" height="196pt"
 viewBox="0.00 0.00 1709.00 196.00" xmlns="http://www.w3.org/2000/svg" xmlns:xlink="http://www.w3.org/1999/xlink">
<g id="graph0" class="graph" transform="scale(1 1) rotate(0) translate(4 192)">
<title>defs.h</title>
<!-- Node1 -->
<g id="Node000001" class="node">
<title>Node1</title>
<g id="a_Node000001"><a xlink:title=" ">
<polygon fill="#999999" stroke="#666666" points="799.38,-188 756.38,-188 756.38,-168 799.38,-168 799.38,-188"/>
<text xml:space="preserve" text-anchor="middle" x="777.88" y="-174.5" font-family="Helvetica,sans-Serif" font-size="10.00">defs.h</text>
</a>
</g>
</g>
<!-- Node2 -->
<g id="Node000002" class="node">
<title>Node2</title>
<g id="a_Node000002"><a xlink:href="attack_8cpp.html" target="_top" xlink:title=" ">
<polygon fill="white" stroke="#666666" points="61.75,-132 0,-132 0,-112 61.75,-112 61.75,-132"/>
<text xml:space="preserve" text-anchor="middle" x="30.88" y="-118.5" font-family="Helvetica,sans-Serif" font-size="10.00">attack.cpp</text>
</a>
</g>
</g>
<!-- Node1&#45;&gt;Node2 -->
<g id="edge1_Node000001_Node000002" class="edge">
<title>Node1&#45;&gt;Node2</title>
<g id="a_edge1_Node000001_Node000002"><a xlink:title=" ">
<path fill="none" stroke="#63b8ff" d="M744.69,-176.44C643.79,-174.41 331.85,-165.65 75.88,-132 71.29,-131.4 66.48,-130.61 61.77,-129.74"/>
<polygon fill="#63b8ff" stroke="#63b8ff" points="744.36,-179.94 754.42,-176.63 744.49,-172.94 744.36,-179.94"/>
</a>
</g>
</g>
<!-- Node3 -->
<g id="Node000003" class="node">
<title>Node3</title>
<g id="a_Node000003"><a xlink:href="attack_8h.html" target="_top" xlink:title=" ">
<polygon fill="white" stroke="#666666" points="886.5,-132 835.25,-132 835.25,-112 886.5,-112 886.5,-132"/>
<text xml:space="preserve" text-anchor="middle" x="860.88" y="-118.5" font-family="Helvetica,sans-Serif" font-size="10.00">attack.h</text>
</a>
</g>
</g>
<!-- Node1&#45;&gt;Node3 -->
<g id="edge2_Node000001_Node000003" class="edge">
<title>Node1&#45;&gt;Node3</title>
<g id="a_edge2_Node000001_Node000003"><a xlink:title=" ">
<path fill="none" stroke="#63b8ff" d="M801.63,-161.54C816.04,-152.17 833.97,-140.51 846.3,-132.48"/>
<polygon fill="#63b8ff" stroke="#63b8ff" points="800.07,-158.38 793.6,-166.77 803.89,-164.25 800.07,-158.38"/>
</a>
</g>
</g>
<!-- Node4 -->
<g id="Node000004" class="node">
<title>Node4</title>
<g id="a_Node000004"><a xlink:href="make__move_8cpp.html" target="_top" xlink:title=" ">
<polygon fill="white" stroke="#666666" points="855.88,-76 767.88,-76 767.88,-56 855.88,-56 855.88,-76"/>
<text xml:space="preserve" text-anchor="middle" x="811.88" y="-62.5" font-family="Helvetica,sans-Serif" font-size="10.00">make_move.cpp</text>
</a>
</g>
</g>
<!-- Node1&#45;&gt;Node4 -->
<g id="edge28_Node000001_Node000004" class="edge">
<title>Node1&#45;&gt;Node4</title>
<g id="a_edge28_Node000001_Node000004"><a xlink:title=" ">
<path fill="none" stroke="#63b8ff" d="M784.17,-156.64C791.56,-132.72 803.52,-94.03 808.98,-76.35"/>
<polygon fill="#63b8ff" stroke="#63b8ff" points="780.83,-155.59 781.22,-166.18 787.52,-157.65 780.83,-155.59"/>
</a>
</g>
</g>
<!-- Node6 -->
<g id="Node000006" class="node">
<title>Node6</title>
<g id="a_Node000006"><a xlink:href="bitboard_8h.html" target="_top" xlink:title=" ">
<polygon fill="white" stroke="#666666" points="1548.25,-132 1489.5,-132 1489.5,-112 1548.25,-112 1548.25,-132"/>
<text xml:space="preserve" text-anchor="middle" x="1518.88" y="-118.5" font-family="Helvetica,sans-Serif" font-size="10.00">bitboard.h</text>
</a>
</g>
</g>
<!-- Node1&#45;&gt;Node6 -->
<g id="edge5_Node000001_Node000006" class="edge">
<title>Node1&#45;&gt;Node6</title>
<g id="a_edge5_Node000001_Node000006"><a xlink:title=" ">
<path fill="none" stroke="#63b8ff" d="M811.12,-175.88C910.3,-172.33 1212.66,-159.81 1461.88,-132 1470.74,-131.01 1480.33,-129.62 1489.07,-128.23"/>
<polygon fill="#63b8ff" stroke="#63b8ff" points="811.18,-172.38 801.3,-176.23 811.42,-179.38 811.18,-172.38"/>
</a>
</g>
</g>
<!-- Node8 -->
<g id="Node000008" class="node">
<title>Node8</title>
<g id="a_Node000008"><a xlink:href="bitboards_8cpp.html" target="_top" xlink:title=" ">
<polygon fill="white" stroke="#666666" points="1311.12,-76 1236.62,-76 1236.62,-56 1311.12,-56 1311.12,-76"/>
<text xml:space="preserve" text-anchor="middle" x="1273.88" y="-62.5" font-family="Helvetica,sans-Serif" font-size="10.00">bitboards.cpp</text>
</a>
</g>
</g>
<!-- Node1&#45;&gt;Node8 -->
<g id="edge7_Node000001_Node000008" class="edge">
<title>Node1&#45;&gt;Node8</title>
<g id="a_edge7_Node000001_Node000008"><a xlink:title=" ">
<path fill="none" stroke="#63b8ff" d="M810.95,-174.22C867.77,-169 987.35,-156 1085.88,-132 1146.94,-117.12 1216.2,-90.55 1251.14,-76.42"/>
<polygon fill="#63b8ff" stroke="#63b8ff" points="810.96,-170.71 801.31,-175.09 811.58,-177.68 810.96,-170.71"/>
</a>
</g>
</g>
<!-- Node9 -->
<g id="Node000009" class="node">
<title>Node9</title>
<g id="a_Node000009"><a xlink:href="board_8h.html" target="_top" xlink:title=" ">
<polygon fill="white" stroke="#666666" points="457,-132 408.75,-132 408.75,-112 457,-112 457,-132"/>
<text xml:space="preserve" text-anchor="middle" x="432.88" y="-118.5" font-family="Helvetica,sans-Serif" font-size="10.00">board.h</text>
</a>
</g>
</g>
<!-- Node1&#45;&gt;Node9 -->
<g id="edge8_Node000001_Node000009" class="edge">
<title>Node1&#45;&gt;Node9</title>
<g id="a_edge8_Node000001_Node000009"><a xlink:title=" ">
<path fill="none" stroke="#63b8ff" d="M745,-171.85C676.07,-161.06 517.76,-136.29 457.12,-126.79"/>
<polygon fill="#63b8ff" stroke="#63b8ff" points="744.12,-175.26 754.54,-173.35 745.2,-168.34 744.12,-175.26"/>
</a>
</g>
</g>
<!-- Node10 -->
<g id="Node000010" class="node">
<title>Node10</title>
<g id="a_Node000010"><a xlink:href="interactive__helpers_8h.html" target="_top" xlink:title=" ">
<polygon fill="white" stroke="#666666" points="375.88,-76 269.88,-76 269.88,-56 375.88,-56 375.88,-76"/>
<text xml:space="preserve" text-anchor="middle" x="322.88" y="-62.5" font-family="Helvetica,sans-Serif" font-size="10.00">interactive_helpers.h</text>
</a>
</g>
</g>
<!-- Node1&#45;&gt;Node10 -->
<g id="edge26_Node000001_Node000010" class="edge">
<title>Node1&#45;&gt;Node10</title>
<g id="a_edge26_Node000001_Node000010"><a xlink:title=" ">
<path fill="none" stroke="#63b8ff" d="M744.54,-175.48C664.13,-171.43 461.57,-158.8 399.88,-132 370.35,-119.18 343.49,-91.21 330.72,-76.49"/>
<polygon fill="#63b8ff" stroke="#63b8ff" points="744.26,-178.97 754.42,-175.96 744.6,-171.98 744.26,-178.97"/>
</a>
</g>
</g>
<!-- Node12 -->
<g id="Node000012" class="node">
<title>Node12</title>
<g id="a_Node000012"><a xlink:href="main_8cpp.html" target="_top" xlink:title=" ">
<polygon fill="white" stroke="#666666" points="431.75,-20 376,-20 376,0 431.75,0 431.75,-20"/>
<text xml:space="preserve" text-anchor="middle" x="403.88" y="-6.5" font-family="Helvetica,sans-Serif" font-size="10.00">main.cpp</text>
</a>
</g>
</g>
<!-- Node1&#45;&gt;Node12 -->
<g id="edge27_Node000001_Node000012" class="edge">
<title>Node1&#45;&gt;Node12</title>
<g id="a_edge27_Node000001_Node000012"><a xlink:title=" ">
<path fill="none" stroke="#63b8ff" d="M744.53,-177.51C660.36,-178.08 432.94,-175.16 249.88,-132 184.25,-116.53 146.75,-131.79 108.88,-76 103.88,-68.65 103.08,-62.74 108.88,-56 143.14,-16.11 308.56,-11.19 375.58,-10.86"/>
<polygon fill="#63b8ff" stroke="#63b8ff" points="744.41,-181.01 754.38,-177.42 744.34,-174.01 744.41,-181.01"/>
</a>
</g>
</g>
<!-- Node13 -->
<g id="Node000013" class="node">
<title>Node13</title>
<g id="a_Node000013"><a xlink:href="perft_8cpp.html" target="_top" xlink:title=" ">
<polygon fill="white" stroke="#666666" points="598,-76 543.75,-76 543.75,-56 598,-56 598,-76"/>
<text xml:space="preserve" text-anchor="middle" x="570.88" y="-62.5" font-family="Helvetica,sans-Serif" font-size="10.00">perft.cpp</text>
</a>
</g>
</g>
<!-- Node1&#45;&gt;Node13 -->
<g id="edge51_Node000001_Node000013" class="edge">
<title>Node1&#45;&gt;Node13</title>
<g id="a_edge51_Node000001_Node000013"><a xlink:title=" ">
<path fill="none" stroke="#63b8ff" d="M744.5,-174.4C709.59,-170.25 654.6,-159.54 615.88,-132 595.29,-117.37 581.05,-90.19 574.67,-76.06"/>
<polygon fill="#63b8ff" stroke="#63b8ff" points="744.13,-177.88 754.44,-175.45 744.86,-170.92 744.13,-177.88"/>
</a>
</g>
</g>
<!-- Node14 -->
<g id="Node000014" class="node">
<title>Node14</title>
<g id="a_Node000014"><a xlink:href="perft_8h.html" target="_top" xlink:title=" ">
<polygon fill="white" stroke="#666666" points="251.75,-76 208,-76 208,-56 251.75,-56 251.75,-76"/>
<text xml:space="preserve" text-anchor="middle" x="229.88" y="-62.5" font-family="Helvetica,sans-Serif" font-size="10.00">perft.h</text>
</a>
</g>
</g>
<!-- Node1&#45;&gt;Node14 -->
<g id="edge52_Node000001_Node000014" class="edge">
<title>Node1&#45;&gt;Node14</title>
<g id="a_edge52_Node000001_Node000014"><a xlink:title=" ">
<path fill="none" stroke="#63b8ff" d="M744.65,-177.12C673.68,-176.57 502.6,-170.92 365.88,-132 319.56,-118.82 269.57,-91.01 245.11,-76.4"/>
<polygon fill="#63b8ff" stroke="#63b8ff" points="744.41,-180.62 754.42,-177.16 744.44,-173.62 744.41,-180.62"/>
</a>
</g>
</g>
<!-- Node15 -->
<g id="Node000015" class="node">
<title>Node15</title>
<g id="a_Node000015"><a xlink:href="board__data_8h.html" target="_top" xlink:title=" ">
<polygon fill="white" stroke="#666666" points="190,-76 117.75,-76 117.75,-56 190,-56 190,-76"/>
<text xml:space="preserve" text-anchor="middle" x="153.88" y="-62.5" font-family="Helvetica,sans-Serif" font-size="10.00">board_data.h</text>
</a>
</g>
</g>
<!-- Node1&#45;&gt;Node15 -->
<g id="edge17_Node000001_Node000015" class="edge">
<title>Node1&#45;&gt;Node15</title>
<g id="a_edge17_Node000001_Node000015"><a xlink:title=" ">
<path fill="none" stroke="#63b8ff" d="M744.67,-177.13C666.19,-176.85 464.62,-172.14 302.88,-132 249.91,-118.85 191.46,-91.03 166.11,-76.41"/>
<polygon fill="#63b8ff" stroke="#63b8ff" points="744.67,-180.63 754.67,-177.14 744.68,-173.63 744.67,-180.63"/>
</a>
</g>
</g>
<!-- Node17 -->
<g id="Node000017" class="node">
<title>Node17</title>
<g id="a_Node000017"><a xlink:href="hash__keys_8cpp.html" target="_top" xlink:title=" ">
<polygon fill="white" stroke="#666666" points="1486.88,-76 1404.88,-76 1404.88,-56 1486.88,-56 1486.88,-76"/>
<text xml:space="preserve" text-anchor="middle" x="1445.88" y="-62.5" font-family="Helvetica,sans-Serif" font-size="10.00">hash_keys.cpp</text>
</a>
</g>
</g>
<!-- Node1&#45;&gt;Node17 -->
<g id="edge23_Node000001_Node000017" class="edge">
<title>Node1&#45;&gt;Node17</title>
<g id="a_edge23_Node000001_Node000017"><a xlink:title=" ">
<path fill="none" stroke="#63b8ff" d="M810.84,-175.71C911.28,-171.55 1212.43,-157.24 1306.88,-132 1354.49,-119.28 1405.88,-91 1430.72,-76.29"/>
<polygon fill="#63b8ff" stroke="#63b8ff" points="810.97,-172.2 801.12,-176.11 811.26,-179.2 810.97,-172.2"/>
</a>
</g>
</g>
<!-- Node18 -->
<g id="Node000018" class="node">
<title>Node18</title>
<g id="a_Node000018"><a xlink:href="hash__keys_8h.html" target="_top" xlink:title=" ">
<polygon fill="white" stroke="#666666" points="1576.62,-76 1505.12,-76 1505.12,-56 1576.62,-56 1576.62,-76"/>
<text xml:space="preserve" text-anchor="middle" x="1540.88" y="-62.5" font-family="Helvetica,sans-Serif" font-size="10.00">hash_keys.h</text>
</a>
</g>
</g>
<!-- Node1&#45;&gt;Node18 -->
<g id="edge24_Node000001_Node000018" class="edge">
<title>Node1&#45;&gt;Node18</title>
<g id="a_edge24_Node000001_Node000018"><a xlink:title=" ">
<path fill="none" stroke="#63b8ff" d="M811.24,-177.19C899.59,-177.08 1146.57,-172.84 1346.88,-132 1410.92,-118.94 1483.12,-91.08 1518.67,-76.43"/>
<polygon fill="#63b8ff" stroke="#63b8ff" points="811.36,-173.69 801.36,-177.18 811.36,-180.69 811.36,-173.69"/>
</a>
</g>
</g>
<!-- Node19 -->
<g id="Node000019" class="node">
<title>Node19</title>
<g id="a_Node000019"><a xlink:href="make__move_8h.html" target="_top" xlink:title=" ">
<polygon fill="white" stroke="#666666" points="702.62,-132 625.12,-132 625.12,-112 702.62,-112 702.62,-132"/>
<text xml:space="preserve" text-anchor="middle" x="663.88" y="-118.5" font-family="Helvetica,sans-Serif" font-size="10.00">make_move.h</text>
</a>
</g>
</g>
<!-- Node1&#45;&gt;Node19 -->
<g id="edge29_Node000001_Node000019" class="edge">
<title>Node1&#45;&gt;Node19</title>
<g id="a_edge29_Node000001_Node000019"><a xlink:title=" ">
<path fill="none" stroke="#63b8ff" d="M747.78,-162.75C727.59,-153.18 701.56,-140.85 683.89,-132.48"/>
<polygon fill="#63b8ff" stroke="#63b8ff" points="746.11,-165.83 756.65,-166.95 749.11,-159.5 746.11,-165.83"/>
</a>
</g>
</g>
<!-- Node20 -->
<g id="Node000020" class="node">
<title>Node20</title>
<g id="a_Node000020"><a xlink:href="misc_8h.html" target="_top" xlink:title=" ">
<polygon fill="white" stroke="#666666" points="568.5,-132 523.25,-132 523.25,-112 568.5,-112 568.5,-132"/>
<text xml:space="preserve" text-anchor="middle" x="545.88" y="-118.5" font-family="Helvetica,sans-Serif" font-size="10.00">misc.h</text>
</a>
</g>
</g>
<!-- Node1&#45;&gt;Node20 -->
<g id="edge35_Node000001_Node000020" class="edge">
<title>Node1&#45;&gt;Node20</title>
<g id="a_edge35_Node000001_Node000020"><a xlink:title=" ">
<path fill="none" stroke="#63b8ff" d="M744.8,-169.49C705.99,-160.65 639.71,-145.47 582.88,-132 578.37,-130.93 573.57,-129.78 568.96,-128.66"/>
<polygon fill="#63b8ff" stroke="#63b8ff" points="743.92,-172.88 754.45,-171.69 745.47,-166.06 743.92,-172.88"/>
</a>
</g>
</g>
<!-- Node22 -->
<g id="Node000022" class="node">
<title>Node22</title>
<g id="a_Node000022"><a xlink:href="move__generator_8h.html" target="_top" xlink:title=" ">
<polygon fill="white" stroke="#666666" points="1052.88,-132 958.88,-132 958.88,-112 1052.88,-112 1052.88,-132"/>
<text xml:space="preserve" text-anchor="middle" x="1005.88" y="-118.5" font-family="Helvetica,sans-Serif" font-size="10.00">move_generator.h</text>
</a>
</g>
</g>
<!-- Node1&#45;&gt;Node22 -->
<g id="edge38_Node000001_Node000022" class="edge">
<title>Node1&#45;&gt;Node22</title>
<g id="a_edge38_Node000001_Node000022"><a xlink:title=" ">
<path fill="none" stroke="#63b8ff" d="M810.72,-169.22C851.7,-159.51 921.74,-142.93 965.82,-132.49"/>
<polygon fill="#63b8ff" stroke="#63b8ff" points="810.13,-165.76 801.21,-171.47 811.75,-172.57 810.13,-165.76"/>
</a>
</g>
</g>
<!-- Node23 -->
<g id="Node000023" class="node">
<title>Node23</title>
<g id="a_Node000023"><a xlink:href="notation_8cpp.html" target="_top" xlink:title=" ">
<polygon fill="white" stroke="#666666" points="1141.5,-76 1072.25,-76 1072.25,-56 1141.5,-56 1141.5,-76"/>
<text xml:space="preserve" text-anchor="middle" x="1106.88" y="-62.5" font-family="Helvetica,sans-Serif" font-size="10.00">notation.cpp</text>
</a>
</g>
</g>
<!-- Node1&#45;&gt;Node23 -->
<g id="edge45_Node000001_Node000023" class="edge">
<title>Node1&#45;&gt;Node23</title>
<g id="a_edge45_Node000001_Node000023"><a xlink:title=" ">
<path fill="none" stroke="#63b8ff" d="M811.2,-174.99C876.95,-170.5 1020.6,-157.95 1061.88,-132 1083.26,-118.56 1097.15,-90.86 1103.27,-76.34"/>
<polygon fill="#63b8ff" stroke="#63b8ff" points="811.13,-171.49 801.38,-175.64 811.59,-178.47 811.13,-171.49"/>
</a>
</g>
</g>
<!-- Node25 -->
<g id="Node000025" class="node">
<title>Node25</title>
<g id="a_Node000025"><a xlink:href="notation_8h.html" target="_top" xlink:title=" ">
<polygon fill="white" stroke="#666666" points="779.25,-132 720.5,-132 720.5,-112 779.25,-112 779.25,-132"/>
<text xml:space="preserve" text-anchor="middle" x="749.88" y="-118.5" font-family="Helvetica,sans-Serif" font-size="10.00">notation.h</text>
</a>
</g>
</g>
<!-- Node1&#45;&gt;Node25 -->
<g id="edge46_Node000001_Node000025" class="edge">
<title>Node1&#45;&gt;Node25</title>
<g id="a_edge46_Node000001_Node000025"><a xlink:title=" ">
<path fill="none" stroke="#63b8ff" d="M767.81,-157.58C763.34,-148.97 758.29,-139.24 754.7,-132.3"/>
<polygon fill="#63b8ff" stroke="#63b8ff" points="764.59,-158.98 772.3,-166.25 770.8,-155.76 764.59,-158.98"/>
</a>
</g>
</g>
<!-- Node26 -->
<g id="Node000026" class="node">
<title>Node26</title>
<g id="a_Node000026"><a xlink:href="setup_8h.html" target="_top" xlink:title=" ">
<polygon fill="white" stroke="#666666" points="1298,-132 1249.75,-132 1249.75,-112 1298,-112 1298,-132"/>
<text xml:space="preserve" text-anchor="middle" x="1273.88" y="-118.5" font-family="Helvetica,sans-Serif" font-size="10.00">setup.h</text>
</a>
</g>
</g>
<!-- Node1&#45;&gt;Node26 -->
<g id="edge53_Node000001_Node000026" class="edge">
<title>Node1&#45;&gt;Node26</title>
<g id="a_edge53_Node000001_Node000026"><a xlink:title=" ">
<path fill="none" stroke="#63b8ff" d="M811.03,-173.57C882,-166.21 1053.9,-148.24 1197.88,-132 1215.17,-130.05 1234.67,-127.74 1249.58,-125.95"/>
<polygon fill="#63b8ff" stroke="#63b8ff" points="810.84,-170.08 801.25,-174.59 811.56,-177.04 810.84,-170.08"/>
</a>
</g>
</g>
<!-- Node27 -->
<g id="Node000027" class="node">
<title>Node27</title>
<g id="a_Node000027"><a xlink:href="validate_8cpp.html" target="_top" xlink:title=" ">
<polygon fill="white" stroke="#666666" points="1701.12,-76 1632.62,-76 1632.62,-56 1701.12,-56 1701.12,-76"/>
<text xml:space="preserve" text-anchor="middle" x="1666.88" y="-62.5" font-family="Helvetica,sans-Serif" font-size="10.00">validate.cpp</text>
</a>
</g>
</g>
<!-- Node1&#45;&gt;Node27 -->
<g id="edge64_Node000001_Node000027" class="edge">
<title>Node1&#45;&gt;Node27</title>
<g id="a_edge64_Node000001_Node000027"><a xlink:title=" ">
<path fill="none" stroke="#63b8ff" d="M810.85,-177.33C960.47,-178.54 1571.18,-180.48 1639.88,-132 1658.24,-119.03 1664.16,-91.13 1666.03,-76.46"/>
<polygon fill="#63b8ff" stroke="#63b8ff" points="811.27,-173.83 801.24,-177.24 811.21,-180.83 811.27,-173.83"/>
</a>
</g>
</g>
<!-- Node28 -->
<g id="Node000028" class="node">
<title>Node28</title>
<g id="a_Node000028"><a xlink:href="validate_8h.html" target="_top" xlink:title=" ">
<polygon fill="white" stroke="#666666" points="1630.88,-132 1572.88,-132 1572.88,-112 1630.88,-112 1630.88,-132"/>
<text xml:space="preserve" text-anchor="middle" x="1601.88" y="-118.5" font-family="Helvetica,sans-Serif" font-size="10.00">validate.h</text>
</a>
</g>
</g>
<!-- Node1&#45;&gt;Node28 -->
<g id="edge65_Node000001_Node000028" class="edge">
<title>Node1&#45;&gt;Node28</title>
<g id="a_edge65_Node000001_Node000028"><a xlink:title=" ">
<path fill="none" stroke="#63b8ff" d="M811.04,-176.74C918.95,-175.53 1269.65,-168.84 1556.88,-132 1561.93,-131.35 1567.27,-130.46 1572.44,-129.5"/>
<polygon fill="#63b8ff" stroke="#63b8ff" points="811.14,-173.24 801.18,-176.84 811.21,-180.24 811.14,-173.24"/>
</a>
</g>
</g>
<!-- Node3&#45;&gt;Node4 -->
<g id="edge3_Node000003_Node000004" class="edge">
<title>Node3&#45;&gt;Node4</title>
<g id="a_edge3_Node000003_Node000004"><a xlink:title=" ">
<path fill="none" stroke="#63b8ff" d="M844.8,-103.29C836.63,-94.28 827.03,-83.7 820.31,-76.3"/>
<polygon fill="#63b8ff" stroke="#63b8ff" points="842.01,-105.42 851.32,-110.47 847.19,-100.72 842.01,-105.42"/>
</a>
</g>
</g>
<!-- Node5 -->
<g id="Node000005" class="node">
<title>Node5</title>
<g id="a_Node000005"><a xlink:href="move__generator_8cpp.html" target="_top" xlink:title=" ">
<polygon fill="white" stroke="#666666" points="978.12,-76 873.62,-76 873.62,-56 978.12,-56 978.12,-76"/>
<text xml:space="preserve" text-anchor="middle" x="925.88" y="-62.5" font-family="Helvetica,sans-Serif" font-size="10.00">move_generator.cpp</text>
</a>
</g>
</g>
<!-- Node3&#45;&gt;Node5 -->
<g id="edge4_Node000003_Node000005" class="edge">
<title>Node3&#45;&gt;Node5</title>
<g id="a_edge4_Node000003_Node000005"><a xlink:title=" ">
<path fill="none" stroke="#63b8ff" d="M880.85,-104.4C891.97,-95.17 905.4,-84.01 914.68,-76.3"/>
<polygon fill="#63b8ff" stroke="#63b8ff" points="878.82,-101.54 873.36,-110.63 883.29,-106.93 878.82,-101.54"/>
</a>
</g>
</g>
<!-- Node7 -->
<g id="Node000007" class="node">
<title>Node7</title>
<g id="a_Node000007"><a xlink:href="board_8cpp.html" target="_top" xlink:title=" ">
<polygon fill="white" stroke="#666666" points="1406.25,-20 1347.5,-20 1347.5,0 1406.25,0 1406.25,-20"/>
<text xml:space="preserve" text-anchor="middle" x="1376.88" y="-6.5" font-family="Helvetica,sans-Serif" font-size="10.00">board.cpp</text>
</a>
</g>
</g>
<!-- Node6&#45;&gt;Node7 -->
<g id="edge6_Node000006_Node000007" class="edge">
<title>Node6&#45;&gt;Node7</title>
<g id="a_edge6_Node000006_Node000007"><a xlink:title=" ">
<path fill="none" stroke="#63b8ff" d="M1551.44,-106.65C1575.35,-94.1 1601.2,-74.98 1585.88,-56 1563.66,-28.5 1458.78,-17.01 1406.56,-12.93"/>
<polygon fill="#63b8ff" stroke="#63b8ff" points="1550.2,-103.36 1542.8,-110.93 1553.31,-109.63 1550.2,-103.36"/>
</a>
</g>
</g>
<!-- Node9&#45;&gt;Node7 -->
<g id="edge9_Node000009_Node000007" class="edge">
<title>Node9&#45;&gt;Node7</title>
<g id="a_edge9_Node000009_Node000007"><a xlink:title=" ">
<path fill="none" stroke="#63b8ff" d="M435.93,-100.28C439.32,-85.32 446.36,-66.07 460.88,-56 498.12,-30.16 1194.08,-14.68 1347.23,-11.58"/>
<polygon fill="#63b8ff" stroke="#63b8ff" points="432.51,-99.57 434.14,-110.04 439.39,-100.83 432.51,-99.57"/>
</a>
</g>
</g>
<!-- Node9&#45;&gt;Node10 -->
<g id="edge10_Node000009_Node000010" class="edge">
<title>Node9&#45;&gt;Node10</title>
<g id="a_edge10_Node000009_Node000010"><a xlink:title=" ">
<path fill="none" stroke="#63b8ff" d="M403.57,-106.61C384.13,-97.07 359.16,-84.81 342.19,-76.48"/>
<polygon fill="#63b8ff" stroke="#63b8ff" points="401.84,-109.66 412.36,-110.93 404.92,-103.38 401.84,-109.66"/>
</a>
</g>
</g>
<!-- Node9&#45;&gt;Node12 -->
<g id="edge13_Node000009_Node000012" class="edge">
<title>Node9&#45;&gt;Node12</title>
<g id="a_edge13_Node000009_Node000012"><a xlink:title=" ">
<path fill="none" stroke="#63b8ff" d="M427.51,-100.64C421.2,-76.72 411,-38.03 406.34,-20.35"/>
<polygon fill="#63b8ff" stroke="#63b8ff" points="424.08,-101.38 430.02,-110.16 430.85,-99.6 424.08,-101.38"/>
</a>
</g>
</g>
<!-- Node9&#45;&gt;Node13 -->
<g id="edge14_Node000009_Node000013" class="edge">
<title>Node9&#45;&gt;Node13</title>
<g id="a_edge14_Node000009_Node000013"><a xlink:title=" ">
<path fill="none" stroke="#63b8ff" d="M467.63,-107.4C492.28,-97.75 524.76,-85.05 546.65,-76.48"/>
<polygon fill="#63b8ff" stroke="#63b8ff" points="466.36,-104.14 458.32,-111.04 468.91,-110.66 466.36,-104.14"/>
</a>
</g>
</g>
<!-- Node9&#45;&gt;Node14 -->
<g id="edge15_Node000009_Node000014" class="edge">
<title>Node9&#45;&gt;Node14</title>
<g id="a_edge15_Node000009_Node000014"><a xlink:title=" ">
<path fill="none" stroke="#63b8ff" d="M397.31,-111.99C362.47,-103.1 307.92,-88.98 260.88,-76 258.07,-75.22 255.12,-74.39 252.21,-73.56"/>
<polygon fill="#63b8ff" stroke="#63b8ff" points="396.3,-115.35 406.86,-114.42 398.03,-108.56 396.3,-115.35"/>
</a>
</g>
</g>
<!-- Node11 -->
<g id="Node000011" class="node">
<title>Node11</title>
<g id="a_Node000011"><a xlink:href="interactive__helpers_8cpp.html" target="_top" xlink:title=" ">
<polygon fill="white" stroke="#666666" points="722.12,-20 605.62,-20 605.62,0 722.12,0 722.12,-20"/>
<text xml:space="preserve" text-anchor="middle" x="663.88" y="-6.5" font-family="Helvetica,sans-Serif" font-size="10.00">interactive_helpers.cpp</text>
</a>
</g>
</g>
<!-- Node10&#45;&gt;Node11 -->
<g id="edge11_Node000010_Node000011" class="edge">
<title>Node10&#45;&gt;Node11</title>
<g id="a_edge11_Node000010_Node000011"><a xlink:title=" ">
<path fill="none" stroke="#63b8ff" d="M387.49,-54.77C450.23,-44.83 544.63,-29.88 605.26,-20.28"/>
<polygon fill="#63b8ff" stroke="#63b8ff" points="386.98,-51.3 377.65,-56.33 388.08,-58.22 386.98,-51.3"/>
</a>
</g>
</g>
<!-- Node10&#45;&gt;Node12 -->
<g id="edge12_Node000010_Node000012" class="edge">
<title>Node10&#45;&gt;Node12</title>
<g id="a_edge12_Node000010_Node000012"><a xlink:title=" ">
<path fill="none" stroke="#63b8ff" d="M346.47,-49.27C360.46,-39.94 377.73,-28.43 389.66,-20.48"/>
<polygon fill="#63b8ff" stroke="#63b8ff" points="344.62,-46.3 338.24,-54.75 348.51,-52.12 344.62,-46.3"/>
</a>
</g>
</g>
<!-- Node14&#45;&gt;Node12 -->
<g id="edge16_Node000014_Node000012" class="edge">
<title>Node14&#45;&gt;Node12</title>
<g id="a_edge16_Node000014_Node000012"><a xlink:title=" ">
<path fill="none" stroke="#63b8ff" d="M262.69,-54.82C295.3,-44.7 344.8,-29.33 375.69,-19.75"/>
<polygon fill="#63b8ff" stroke="#63b8ff" points="261.87,-51.41 253.36,-57.71 263.95,-58.09 261.87,-51.41"/>
</a>
</g>
</g>
<!-- Node15&#45;&gt;Node1 -->
<g id="edge20_Node000015_Node000001" class="edge">
<title>Node15&#45;&gt;Node1</title>
<g id="a_edge20_Node000015_Node000001"><a xlink:title=" ">
<path fill="none" stroke="#63b8ff" d="M187.54,-81.05C220.82,-96.32 273.08,-120.14 320.88,-132 484.96,-172.72 690.04,-176.98 756.35,-177.14"/>
<polygon fill="#63b8ff" stroke="#63b8ff" points="189.35,-78.03 178.8,-77.04 186.44,-84.39 189.35,-78.03"/>
</a>
</g>
</g>
<!-- Node15&#45;&gt;Node7 -->
<g id="edge18_Node000015_Node000007" class="edge">
<title>Node15&#45;&gt;Node7</title>
<g id="a_edge18_Node000015_Node000007"><a xlink:title=" ">
<path fill="none" stroke="#63b8ff" d="M201.44,-55.94C453.84,-28.09 1189.69,-14.2 1347.05,-11.49"/>
<polygon fill="#63b8ff" stroke="#63b8ff" points="201.19,-52.44 191.65,-57.06 201.98,-59.4 201.19,-52.44"/>
</a>
</g>
</g>
<!-- Node15&#45;&gt;Node11 -->
<g id="edge21_Node000015_Node000011" class="edge">
<title>Node15&#45;&gt;Node11</title>
<g id="a_edge21_Node000015_Node000011"><a xlink:title=" ">
<path fill="none" stroke="#63b8ff" d="M201.49,-55.75C352.67,-33.82 519.05,-20.72 605.29,-14.76"/>
<polygon fill="#63b8ff" stroke="#63b8ff" points="201.05,-52.28 191.67,-57.19 202.07,-59.2 201.05,-52.28"/>
</a>
</g>
</g>
<!-- Node15&#45;&gt;Node12 -->
<g id="edge22_Node000015_Node000012" class="edge">
<title>Node15&#45;&gt;Node12</title>
<g id="a_edge22_Node000015_Node000012"><a xlink:title=" ">
<path fill="none" stroke="#63b8ff" d="M201.66,-54.68C253.17,-43.55 333.44,-26.21 375.69,-17.09"/>
<polygon fill="#63b8ff" stroke="#63b8ff" points="201.01,-51.24 191.97,-56.77 202.49,-58.08 201.01,-51.24"/>
</a>
</g>
</g>
<!-- Node16 -->
<g id="Node000016" class="node">
<title>Node16</title>
<g id="a_Node000016"><a xlink:href="board__data_8cpp.html" target="_top" xlink:title=" ">
<polygon fill="white" stroke="#666666" points="195.25,-20 112.5,-20 112.5,0 195.25,0 195.25,-20"/>
<text xml:space="preserve" text-anchor="middle" x="153.88" y="-6.5" font-family="Helvetica,sans-Serif" font-size="10.00">board_data.cpp</text>
</a>
</g>
</g>
<!-- Node15&#45;&gt;Node16 -->
<g id="edge19_Node000015_Node000016" class="edge">
<title>Node15&#45;&gt;Node16</title>
<g id="a_edge19_Node000015_Node000016"><a xlink:title=" ">
<path fill="none" stroke="#63b8ff" d="M153.88,-44.13C153.88,-35.9 153.88,-26.85 153.88,-20.3"/>
<polygon fill="#63b8ff" stroke="#63b8ff" points="150.38,-44.08 153.88,-54.08 157.38,-44.08 150.38,-44.08"/>
</a>
</g>
</g>
<!-- Node18&#45;&gt;Node7 -->
<g id="edge25_Node000018_Node000007" class="edge">
<title>Node18&#45;&gt;Node7</title>
<g id="a_edge25_Node000018_Node000007"><a xlink:title=" ">
<path fill="none" stroke="#63b8ff" d="M1501.54,-52.05C1472.02,-42.33 1432.27,-29.24 1405.66,-20.48"/>
<polygon fill="#63b8ff" stroke="#63b8ff" points="1500.28,-55.32 1510.87,-55.12 1502.47,-48.67 1500.28,-55.32"/>
</a>
</g>
</g>
<!-- Node19&#45;&gt;Node4 -->
<g id="edge32_Node000019_Node000004" class="edge">
<title>Node19&#45;&gt;Node4</title>
<g id="a_edge32_Node000019_Node000004"><a xlink:title=" ">
<path fill="none" stroke="#63b8ff" d="M700.43,-107.66C726.96,-97.98 762.2,-85.12 785.89,-76.48"/>
<polygon fill="#63b8ff" stroke="#63b8ff" points="699.27,-104.36 691.08,-111.08 701.67,-110.94 699.27,-104.36"/>
</a>
</g>
</g>
<!-- Node19&#45;&gt;Node5 -->
<g id="edge33_Node000019_Node000005" class="edge">
<title>Node19&#45;&gt;Node5</title>
<g id="a_edge33_Node000019_Node000005"><a xlink:title=" ">
<path fill="none" stroke="#63b8ff" d="M714.16,-110.64C762.15,-100.75 833.81,-85.97 880.21,-76.41"/>
<polygon fill="#63b8ff" stroke="#63b8ff" points="713.67,-107.16 704.58,-112.61 715.08,-114.02 713.67,-107.16"/>
</a>
</g>
</g>
<!-- Node19&#45;&gt;Node11 -->
<g id="edge30_Node000019_Node000011" class="edge">
<title>Node19&#45;&gt;Node11</title>
<g id="a_edge30_Node000019_Node000011"><a xlink:title=" ">
<path fill="none" stroke="#63b8ff" d="M663.88,-100.31C663.88,-76.36 663.88,-37.95 663.88,-20.35"/>
<polygon fill="#63b8ff" stroke="#63b8ff" points="660.38,-100.11 663.88,-110.11 667.38,-100.11 660.38,-100.11"/>
</a>
</g>
</g>
<!-- Node19&#45;&gt;Node12 -->
<g id="edge31_Node000019_Node000012" class="edge">
<title>Node19&#45;&gt;Node12</title>
<g id="a_edge31_Node000019_Node000012"><a xlink:title=" ">
<path fill="none" stroke="#63b8ff" d="M652.51,-102.55C642.38,-87.68 626.18,-67.43 606.88,-56 550.96,-22.9 473.32,-14.1 432.14,-11.79"/>
<polygon fill="#63b8ff" stroke="#63b8ff" points="649.32,-104.05 657.7,-110.54 655.19,-100.24 649.32,-104.05"/>
</a>
</g>
</g>
<!-- Node19&#45;&gt;Node13 -->
<g id="edge34_Node000019_Node000013" class="edge">
<title>Node19&#45;&gt;Node13</title>
<g id="a_edge34_Node000019_Node000013"><a xlink:title=" ">
<path fill="none" stroke="#63b8ff" d="M638.18,-106.08C621.88,-96.62 601.29,-84.66 587.2,-76.48"/>
<polygon fill="#63b8ff" stroke="#63b8ff" points="635.96,-108.84 646.37,-110.83 639.48,-102.79 635.96,-108.84"/>
</a>
</g>
</g>
<!-- Node20&#45;&gt;Node13 -->
<g id="edge37_Node000020_Node000013" class="edge">
<title>Node20&#45;&gt;Node13</title>
<g id="a_edge37_Node000020_Node000013"><a xlink:title=" ">
<path fill="none" stroke="#63b8ff" d="M555,-101.29C558.95,-92.75 563.39,-83.16 566.57,-76.3"/>
<polygon fill="#63b8ff" stroke="#63b8ff" points="551.89,-99.68 550.87,-110.22 558.24,-102.62 551.89,-99.68"/>
</a>
</g>
</g>
<!-- Node21 -->
<g id="Node000021" class="node">
<title>Node21</title>
<g id="a_Node000021"><a xlink:href="misc_8cpp.html" target="_top" xlink:title=" ">
<polygon fill="white" stroke="#666666" points="525.75,-76 470,-76 470,-56 525.75,-56 525.75,-76"/>
<text xml:space="preserve" text-anchor="middle" x="497.88" y="-62.5" font-family="Helvetica,sans-Serif" font-size="10.00">misc.cpp</text>
</a>
</g>
</g>
<!-- Node20&#45;&gt;Node21 -->
<g id="edge36_Node000020_Node000021" class="edge">
<title>Node20&#45;&gt;Node21</title>
<g id="a_edge36_Node000020_Node000021"><a xlink:title=" ">
<path fill="none" stroke="#63b8ff" d="M529.88,-103C521.93,-94.06 512.65,-83.62 506.14,-76.3"/>
<polygon fill="#63b8ff" stroke="#63b8ff" points="527.25,-105.31 536.51,-110.46 532.48,-100.66 527.25,-105.31"/>
</a>
</g>
</g>
<!-- Node22&#45;&gt;Node5 -->
<g id="edge41_Node000022_Node000005" class="edge">
<title>Node22&#45;&gt;Node5</title>
<g id="a_edge41_Node000022_Node000005"><a xlink:title=" ">
<path fill="none" stroke="#63b8ff" d="M982.57,-105.27C968.75,-95.94 951.69,-84.43 939.92,-76.48"/>
<polygon fill="#63b8ff" stroke="#63b8ff" points="980.44,-108.05 990.69,-110.75 984.36,-102.25 980.44,-108.05"/>
</a>
</g>
</g>
<!-- Node22&#45;&gt;Node11 -->
<g id="edge39_Node000022_Node000011" class="edge">
<title>Node22&#45;&gt;Node11</title>
<g id="a_edge39_Node000022_Node000011"><a xlink:title=" ">
<path fill="none" stroke="#63b8ff" d="M1017.73,-102.03C1024.98,-87.75 1030.95,-68.56 1019.88,-56 1000.56,-34.09 818.57,-20.14 722.55,-14.24"/>
<polygon fill="#63b8ff" stroke="#63b8ff" points="1014.82,-100.05 1012.94,-110.48 1020.91,-103.51 1014.82,-100.05"/>
</a>
</g>
</g>
<!-- Node22&#45;&gt;Node12 -->
<g id="edge40_Node000022_Node000012" class="edge">
<title>Node22&#45;&gt;Node12</title>
<g id="a_edge40_Node000022_Node000012"><a xlink:title=" ">
<path fill="none" stroke="#63b8ff" d="M1005.69,-100.61C1004.37,-85.83 1000,-66.65 986.88,-56 965.07,-38.31 545.49,-17.58 431.98,-12.28"/>
<polygon fill="#63b8ff" stroke="#63b8ff" points="1002.17,-100.36 1006.13,-110.19 1009.17,-100.04 1002.17,-100.36"/>
</a>
</g>
</g>
<!-- Node22&#45;&gt;Node13 -->
<g id="edge43_Node000022_Node000013" class="edge">
<title>Node22&#45;&gt;Node13</title>
<g id="a_edge43_Node000022_Node000013"><a xlink:title=" ">
<path fill="none" stroke="#63b8ff" d="M947.35,-113.74C852.26,-101.93 667.81,-79.03 598.28,-70.4"/>
<polygon fill="#63b8ff" stroke="#63b8ff" points="946.64,-117.17 956.99,-114.93 947.5,-110.23 946.64,-117.17"/>
</a>
</g>
</g>
<!-- Node22&#45;&gt;Node23 -->
<g id="edge42_Node000022_Node000023" class="edge">
<title>Node22&#45;&gt;Node23</title>
<g id="a_edge42_Node000022_Node000023"><a xlink:title=" ">
<path fill="none" stroke="#63b8ff" d="M1033.28,-106.35C1051.06,-96.84 1073.7,-84.74 1089.14,-76.48"/>
<polygon fill="#63b8ff" stroke="#63b8ff" points="1031.97,-103.08 1024.8,-110.88 1035.27,-109.25 1031.97,-103.08"/>
</a>
</g>
</g>
<!-- Node24 -->
<g id="Node000024" class="node">
<title>Node24</title>
<g id="a_Node000024"><a xlink:href="setup_8cpp.html" target="_top" xlink:title=" ">
<polygon fill="white" stroke="#666666" points="1218.25,-76 1159.5,-76 1159.5,-56 1218.25,-56 1218.25,-76"/>
<text xml:space="preserve" text-anchor="middle" x="1188.88" y="-62.5" font-family="Helvetica,sans-Serif" font-size="10.00">setup.cpp</text>
</a>
</g>
</g>
<!-- Node22&#45;&gt;Node24 -->
<g id="edge44_Node000022_Node000024" class="edge">
<title>Node22&#45;&gt;Node24</title>
<g id="a_edge44_Node000022_Node000024"><a xlink:title=" ">
<path fill="none" stroke="#63b8ff" d="M1048.74,-108.35C1082.69,-98.33 1129.23,-84.6 1159.18,-75.76"/>
<polygon fill="#63b8ff" stroke="#63b8ff" points="1047.8,-104.98 1039.2,-111.17 1049.78,-111.69 1047.8,-104.98"/>
</a>
</g>
</g>
<!-- Node25&#45;&gt;Node11 -->
<g id="edge47_Node000025_Node000011" class="edge">
<title>Node25&#45;&gt;Node11</title>
<g id="a_edge47_Node000025_Node000011"><a xlink:title=" ">
<path fill="none" stroke="#63b8ff" d="M741.77,-100.99C735.77,-87.51 726.76,-69.75 715.88,-56 704.61,-41.77 688.39,-28.58 677.07,-20.2"/>
<polygon fill="#63b8ff" stroke="#63b8ff" points="738.53,-102.29 745.66,-110.13 744.97,-99.56 738.53,-102.29"/>
</a>
</g>
</g>
<!-- Node25&#45;&gt;Node12 -->
<g id="edge48_Node000025_Node000012" class="edge">
<title>Node25&#45;&gt;Node12</title>
<g id="a_edge48_Node000025_Node000012"><a xlink:title=" ">
<path fill="none" stroke="#63b8ff" d="M727.03,-105.46C704.16,-90.61 667.51,-68.66 632.88,-56 563.24,-30.54 476.14,-18.48 432.13,-13.68"/>
<polygon fill="#63b8ff" stroke="#63b8ff" points="724.97,-108.29 735.24,-110.89 728.83,-102.45 724.97,-108.29"/>
</a>
</g>
</g>
<!-- Node25&#45;&gt;Node13 -->
<g id="edge50_Node000025_Node000013" class="edge">
<title>Node25&#45;&gt;Node13</title>
<g id="a_edge50_Node000025_Node000013"><a xlink:title=" ">
<path fill="none" stroke="#63b8ff" d="M709.39,-108.79C675.5,-98.56 628.06,-84.25 598.42,-75.31"/>
<polygon fill="#63b8ff" stroke="#63b8ff" points="708.28,-112.11 718.87,-111.65 710.3,-105.41 708.28,-112.11"/>
</a>
</g>
</g>
<!-- Node25&#45;&gt;Node23 -->
<g id="edge49_Node000025_Node000023" class="edge">
<title>Node25&#45;&gt;Node23</title>
<g id="a_edge49_Node000025_Node000023"><a xlink:title=" ">
<path fill="none" stroke="#63b8ff" d="M790.81,-114.81C861.58,-104.1 1005.57,-82.32 1071.94,-72.28"/>
<polygon fill="#63b8ff" stroke="#63b8ff" points="790.56,-111.31 781.2,-116.26 791.61,-118.23 790.56,-111.31"/>
</a>
</g>
</g>
<!-- Node26&#45;&gt;Node4 -->
<g id="edge59_Node000026_Node000004" class="edge">
<title>Node26&#45;&gt;Node4</title>
<g id="a_edge59_Node000026_Node000004"><a xlink:title=" ">
<path fill="none" stroke="#63b8ff" d="M1237.97,-117.76C1166.68,-111.18 1002.31,-95.21 864.88,-76 862.01,-75.6 859.06,-75.16 856.09,-74.71"/>
<polygon fill="#63b8ff" stroke="#63b8ff" points="1237.59,-121.24 1247.87,-118.67 1238.23,-114.27 1237.59,-121.24"/>
</a>
</g>
</g>
<!-- Node26&#45;&gt;Node5 -->
<g id="edge60_Node000026_Node000005" class="edge">
<title>Node26&#45;&gt;Node5</title>
<g id="a_edge60_Node000026_Node000005"><a xlink:title=" ">
<path fill="none" stroke="#63b8ff" d="M1238.36,-115.49C1176.85,-105.94 1050.23,-86.3 978.49,-75.16"/>
<polygon fill="#63b8ff" stroke="#63b8ff" points="1237.49,-118.9 1247.91,-116.97 1238.56,-111.98 1237.49,-118.9"/>
</a>
</g>
</g>
<!-- Node26&#45;&gt;Node7 -->
<g id="edge55_Node000026_Node000007" class="edge">
<title>Node26&#45;&gt;Node7</title>
<g id="a_edge55_Node000026_Node000007"><a xlink:title=" ">
<path fill="none" stroke="#63b8ff" d="M1308.54,-107.76C1323.89,-100.4 1341.1,-89.89 1352.88,-76 1366.88,-59.49 1373.06,-34.06 1375.49,-20.42"/>
<polygon fill="#63b8ff" stroke="#63b8ff" points="1307.37,-104.44 1299.68,-111.73 1310.23,-110.83 1307.37,-104.44"/>
</a>
</g>
</g>
<!-- Node26&#45;&gt;Node8 -->
<g id="edge54_Node000026_Node000008" class="edge">
<title>Node26&#45;&gt;Node8</title>
<g id="a_edge54_Node000026_Node000008"><a xlink:title=" ">
<path fill="none" stroke="#63b8ff" d="M1273.88,-100.13C1273.88,-91.9 1273.88,-82.85 1273.88,-76.3"/>
<polygon fill="#63b8ff" stroke="#63b8ff" points="1270.38,-100.08 1273.88,-110.08 1277.38,-100.08 1270.38,-100.08"/>
</a>
</g>
</g>
<!-- Node26&#45;&gt;Node12 -->
<g id="edge58_Node000026_Node000012" class="edge">
<title>Node26&#45;&gt;Node12</title>
<g id="a_edge58_Node000026_Node000012"><a xlink:title=" ">
<path fill="none" stroke="#63b8ff" d="M1297.8,-104.95C1315.54,-91.17 1334.32,-71.18 1319.88,-56 1317.91,-53.94 586.49,-19.56 432.23,-12.33"/>
<polygon fill="#63b8ff" stroke="#63b8ff" points="1296.03,-101.91 1290.03,-110.64 1300.17,-107.56 1296.03,-101.91"/>
</a>
</g>
</g>
<!-- Node26&#45;&gt;Node17 -->
<g id="edge56_Node000026_Node000017" class="edge">
<title>Node26&#45;&gt;Node17</title>
<g id="a_edge56_Node000026_Node000017"><a xlink:title=" ">
<path fill="none" stroke="#63b8ff" d="M1309.02,-109.97C1340.39,-100.12 1385.86,-85.84 1415.64,-76.49"/>
<polygon fill="#63b8ff" stroke="#63b8ff" points="1308.09,-106.59 1299.6,-112.92 1310.19,-113.27 1308.09,-106.59"/>
</a>
</g>
</g>
<!-- Node26&#45;&gt;Node18 -->
<g id="edge57_Node000026_Node000018" class="edge">
<title>Node26&#45;&gt;Node18</title>
<g id="a_edge57_Node000026_Node000018"><a xlink:title=" ">
<path fill="none" stroke="#63b8ff" d="M1309.11,-113.87C1359.98,-103.59 1453.49,-84.67 1504.81,-74.29"/>
<polygon fill="#63b8ff" stroke="#63b8ff" points="1308.63,-110.4 1299.52,-115.81 1310.02,-117.26 1308.63,-110.4"/>
</a>
</g>
</g>
<!-- Node26&#45;&gt;Node23 -->
<g id="edge61_Node000026_Node000023" class="edge">
<title>Node26&#45;&gt;Node23</title>
<g id="a_edge61_Node000026_Node000023"><a xlink:title=" ">
<path fill="none" stroke="#63b8ff" d="M1239.03,-109.73C1208.61,-99.9 1164.94,-85.78 1136.25,-76.5"/>
<polygon fill="#63b8ff" stroke="#63b8ff" points="1237.56,-112.94 1248.15,-112.68 1239.71,-106.28 1237.56,-112.94"/>
</a>
</g>
</g>
<!-- Node26&#45;&gt;Node24 -->
<g id="edge62_Node000026_Node000024" class="edge">
<title>Node26&#45;&gt;Node24</title>
<g id="a_edge62_Node000026_Node000024"><a xlink:title=" ">
<path fill="none" stroke="#63b8ff" d="M1249.54,-105.54C1234.79,-96.17 1216.43,-84.51 1203.8,-76.48"/>
<polygon fill="#63b8ff" stroke="#63b8ff" points="1247.47,-108.37 1257.79,-110.78 1251.23,-102.47 1247.47,-108.37"/>
</a>
</g>
</g>
<!-- Node26&#45;&gt;Node27 -->
<g id="edge63_Node000026_Node000027" class="edge">
<title>Node26&#45;&gt;Node27</title>
<g id="a_edge63_Node000026_Node000027"><a xlink:title=" ">
<path fill="none" stroke="#63b8ff" d="M1309.64,-116.09C1384.76,-105.76 1558.1,-81.95 1632.23,-71.76"/>
<polygon fill="#63b8ff" stroke="#63b8ff" points="1309.39,-112.59 1299.96,-117.42 1310.34,-119.52 1309.39,-112.59"/>
</a>
</g>
</g>
<!-- Node28&#45;&gt;Node27 -->
<g id="edge66_Node000028_Node000027" class="edge">
<title>Node28&#45;&gt;Node27</title>
<g id="a_edge66_Node000028_Node000027"><a xlink:title=" ">
<path fill="none" stroke="#63b8ff" d="M1621.85,-104.4C1632.97,-95.17 1646.4,-84.01 1655.68,-76.3"/>
<polygon fill="#63b8ff" stroke="#63b8ff" points="1619.82,-101.54 1614.36,-110.63 1624.29,-106.93 1619.82,-101.54"/>
</a>
</g>
</g>
</g>
</svg>
