<?xml version="1.0" encoding="UTF-8" standalone="no"?>
<!DOCTYPE svg PUBLIC "-//W3C//DTD SVG 1.1//EN"
 "http://www.w3.org/Graphics/SVG/1.1/DTD/svg11.dtd">
<!-- Generated by graphviz version 13.1.2 (20250808.2320)
 -->
<!-- Title: generatePositionKeys Pages: 1 -->
<!--zoomable 832 -->

<svg id="main" version="1.1" xmlns="http://www.w3.org/2000/svg" xmlns:xlink="http://www.w3.org/1999/xlink" xml:space="preserve" onload="init(evt)">

<style type="text/css"><![CDATA[
.node, .edge {opacity: 0.7;}
.node.selected, .edge.selected {opacity: 1;}
.edge:hover path { stroke: red; }
.edge:hover polygon { stroke: red; fill: red; }
]]></style>

<defs>
  <circle id="rim" cx="0" cy="0" r="7"/>
  <circle id="rim2" cx="0" cy="0" r="3.5"/>
  <g id="zoomPlus">
    <use xlink:href="#rim" fill="#404040"><set attributeName="fill" to="#808080" begin="zoomplus.mouseover" end="zoomplus.mouseout"/></use>
    <path d="M-4,0h8M0,-4v8" fill="none" stroke="white" stroke-width="1.5" pointer-events="none"/>
  </g>
  <g id="zoomMin">
    <use xlink:href="#rim" fill="#404040"><set attributeName="fill" to="#808080" begin="zoomminus.mouseover" end="zoomminus.mouseout"/></use>
    <path d="M-4,0h8" fill="none" stroke="white" stroke-width="1.5" pointer-events="none"/>
  </g>
  <g id="arrowUp" transform="translate(30 24)">
    <use xlink:href="#rim"/>
    <path pointer-events="none" fill="none" stroke="white" stroke-width="1.5" d="M0,-3.0v7 M-2.5,-0.5L0,-3.0L2.5,-0.5"/>
  </g>
  <g id="arrowRight" transform="rotate(90) translate(36 -43)">
    <use xlink:href="#rim"/>
    <path pointer-events="none" fill="none" stroke="white" stroke-width="1.5" d="M0,-3.0v7 M-2.5,-0.5L0,-3.0L2.5,-0.5"/>
  </g>
  <g id="arrowDown" transform="rotate(180) translate(-30 -48)">
    <use xlink:href="#rim"/>
    <path pointer-events="none" fill="none" stroke="white" stroke-width="1.5" d="M0,-3.0v7 M-2.5,-0.5L0,-3.0L2.5,-0.5"/>
  </g>
  <g id="arrowLeft" transform="rotate(270) translate(-36 17)">
    <use xlink:href="#rim"/>
    <path pointer-events="none" fill="none" stroke="white" stroke-width="1.5" d="M0,-3.0v7 M-2.5,-0.5L0,-3.0L2.5,-0.5"/>
  </g>
  <g id="resetDef">
    <use xlink:href="#rim2" fill="#404040"><set attributeName="fill" to="#808080" begin="reset.mouseover" end="reset.mouseout"/></use>
  </g>
</defs>
<script type="application/ecmascript">
var viewWidth = 980;
var viewHeight = 832;
var sectionId = 'dynsection-3';
</script>
<script type="application/ecmascript" xlink:href="svg.min.js"/>
<svg id="graph" class="graph">
<g id="viewport">
<title>generatePositionKeys</title>
<!-- Node1 -->
<g id="Node000001" class="node">
<title>Node1</title>
<g id="a_Node000001"><a xlink:title="Generates a Zobrist hash key for the given board position.">
<polygon fill="#999999" stroke="#666666" points="971.75,-48 860.5,-48 860.5,-28 971.75,-28 971.75,-48"/>
<text xml:space="preserve" text-anchor="middle" x="916.12" y="-34.5" font-family="Helvetica,sans-Serif" font-size="10.00">generatePositionKeys</text>
</a>
</g>
</g>
<!-- Node2 -->
<g id="Node000002" class="node">
<title>Node2</title>
<g id="a_Node000002"><a xlink:href="board_8cpp.html#a27f071824f45c724e8ddd02c72b39871" target="_top" xlink:title="Performs a full internal consistency check of the board state.">
<polygon fill="white" stroke="#666666" points="824.5,-409 731.25,-409 731.25,-389 824.5,-389 824.5,-409"/>
<text xml:space="preserve" text-anchor="middle" x="777.88" y="-395.5" font-family="Helvetica,sans-Serif" font-size="10.00">isBoardStateValid</text>
</a>
</g>
</g>
<!-- Node1&#45;&gt;Node2 -->
<g id="edge1_Node000001_Node000002" class="edge">
<title>Node1&#45;&gt;Node2</title>
<g id="a_edge1_Node000001_Node000002"><a xlink:title=" ">
<path fill="none" stroke="#63b8ff" d="M907.19,-59.02C881.56,-126.94 801.54,-338.94 782.82,-388.54"/>
<polygon fill="#63b8ff" stroke="#63b8ff" points="910.4,-60.42 910.66,-49.83 903.85,-57.95 910.4,-60.42"/>
</a>
</g>
</g>
<!-- Node23 -->
<g id="Node000023" class="node">
<title>Node23</title>
<g id="a_Node000023"><a xlink:href="board_8cpp.html#aa79d9c29f4add58463f9a03d17085132" target="_top" xlink:title="Flip the board vertically, swapping colors and positions.">
<polygon fill="white" stroke="#666666" points="695.25,-48 593.75,-48 593.75,-28 695.25,-28 695.25,-48"/>
<text xml:space="preserve" text-anchor="middle" x="644.5" y="-34.5" font-family="Helvetica,sans-Serif" font-size="10.00">mirrorBoardPosition</text>
</a>
</g>
</g>
<!-- Node1&#45;&gt;Node23 -->
<g id="edge60_Node000001_Node000023" class="edge">
<title>Node1&#45;&gt;Node23</title>
<g id="a_edge60_Node000001_Node000023"><a xlink:title=" ">
<path fill="none" stroke="#63b8ff" d="M848.84,-38C801.39,-38 738.52,-38 695.31,-38"/>
<polygon fill="#63b8ff" stroke="#63b8ff" points="848.72,-41.5 858.72,-38 848.72,-34.5 848.72,-41.5"/>
</a>
</g>
</g>
<!-- Node25 -->
<g id="Node000025" class="node">
<title>Node25</title>
<g id="a_Node000025"><a xlink:href="board_8cpp.html#aad9cde553dadb6876eb29b43c8f66b08" target="_top" xlink:title="Parse a FEN string into the given board state.">
<polygon fill="white" stroke="#666666" points="128,-86 73.75,-86 73.75,-66 128,-66 128,-86"/>
<text xml:space="preserve" text-anchor="middle" x="100.88" y="-72.5" font-family="Helvetica,sans-Serif" font-size="10.00">loadFEN</text>
</a>
</g>
</g>
<!-- Node1&#45;&gt;Node25 -->
<g id="edge58_Node000001_Node000025" class="edge">
<title>Node1&#45;&gt;Node25</title>
<g id="a_edge58_Node000001_Node000025"><a xlink:title=" ">
<path fill="none" stroke="#63b8ff" d="M857.99,-25.21C803.64,-14.18 719.42,0 645.5,0 645.5,0 645.5,0 343,0 256.75,0 160.84,-44.78 120.92,-65.59"/>
<polygon fill="#63b8ff" stroke="#63b8ff" points="857.14,-28.61 867.64,-27.21 858.56,-21.76 857.14,-28.61"/>
</a>
</g>
</g>
<!-- Node3 -->
<g id="Node000003" class="node">
<title>Node3</title>
<g id="a_Node000003"><a xlink:href="move__generator_8cpp.html#a21d952c048f6586610eafeefcd4a0341" target="_top" xlink:title=" ">
<polygon fill="white" stroke="#666666" points="557.38,-580 432.62,-580 432.62,-560 557.38,-560 557.38,-580"/>
<text xml:space="preserve" text-anchor="middle" x="495" y="-566.5" font-family="Helvetica,sans-Serif" font-size="10.00">AddBlackPawnCapMove</text>
</a>
</g>
</g>
<!-- Node2&#45;&gt;Node3 -->
<g id="edge2_Node000002_Node000003" class="edge">
<title>Node2&#45;&gt;Node3</title>
<g id="a_edge2_Node000002_Node000003"><a xlink:title=" ">
<path fill="none" stroke="#63b8ff" d="M770.6,-420.1C760.26,-450.92 736.57,-507.66 695.25,-536 655.03,-563.59 599.74,-571.24 557.61,-572.48"/>
<polygon fill="#63b8ff" stroke="#63b8ff" points="773.87,-421.36 773.56,-410.77 767.2,-419.24 773.87,-421.36"/>
</a>
</g>
</g>
<!-- Node4 -->
<g id="Node000004" class="node">
<title>Node4</title>
<g id="a_Node000004"><a xlink:href="move__generator_8cpp.html#ae4238c052984ad1c8581f8d0ea5a54bb" target="_top" xlink:title="Generate all pseudo&#45;legal capture moves (including en passant).">
<polygon fill="white" stroke="#666666" points="396.25,-656 291.75,-656 291.75,-636 396.25,-636 396.25,-656"/>
<text xml:space="preserve" text-anchor="middle" x="344" y="-642.5" font-family="Helvetica,sans-Serif" font-size="10.00">generateAllCaptures</text>
</a>
</g>
</g>
<!-- Node2&#45;&gt;Node4 -->
<g id="edge44_Node000002_Node000004" class="edge">
<title>Node2&#45;&gt;Node4</title>
<g id="a_edge44_Node000002_Node000004"><a xlink:title=" ">
<path fill="none" stroke="#63b8ff" d="M776.84,-420.84C775.53,-471.36 765.02,-597.16 695.25,-665 610.57,-747.33 545.44,-736.7 432.25,-703 401.56,-693.86 371.6,-670.11 356.03,-656.32"/>
<polygon fill="#63b8ff" stroke="#63b8ff" points="780.34,-421.01 776.98,-410.96 773.34,-420.9 780.34,-421.01"/>
</a>
</g>
</g>
<!-- Node5 -->
<g id="Node000005" class="node">
<title>Node5</title>
<g id="a_Node000005"><a xlink:href="move__generator_8cpp.html#a4d7178784dec62b5c55f61f52c432fdf" target="_top" xlink:title="Generate all pseudo&#45;legal moves for the side to move.">
<polygon fill="white" stroke="#666666" points="391,-447 297,-447 297,-427 391,-427 391,-447"/>
<text xml:space="preserve" text-anchor="middle" x="344" y="-433.5" font-family="Helvetica,sans-Serif" font-size="10.00">generateAllMoves</text>
</a>
</g>
</g>
<!-- Node2&#45;&gt;Node5 -->
<g id="edge45_Node000002_Node000005" class="edge">
<title>Node2&#45;&gt;Node5</title>
<g id="a_edge45_Node000002_Node000005"><a xlink:title=" ">
<path fill="none" stroke="#63b8ff" d="M758.73,-416.71C743.22,-430.7 719.6,-449.42 695.25,-459 586.28,-501.88 546.89,-498.88 432.25,-475 407.02,-469.74 380.14,-456.78 362.99,-447.46"/>
<polygon fill="#63b8ff" stroke="#63b8ff" points="760.84,-419.53 765.77,-410.16 756.06,-414.41 760.84,-419.53"/>
</a>
</g>
</g>
<!-- Node8 -->
<g id="Node000008" class="node">
<title>Node8</title>
<g id="a_Node000008"><a xlink:href="notation_8cpp.html#a62cf95674b846c7a13035e3c92ab1bcd" target="_top" xlink:title="Parse a move from coordinate notation.">
<polygon fill="white" stroke="#666666" points="255,-466 165.5,-466 165.5,-446 255,-446 255,-466"/>
<text xml:space="preserve" text-anchor="middle" x="210.25" y="-452.5" font-family="Helvetica,sans-Serif" font-size="10.00">parseMoveString</text>
</a>
</g>
</g>
<!-- Node2&#45;&gt;Node8 -->
<g id="edge53_Node000002_Node000008" class="edge">
<title>Node2&#45;&gt;Node8</title>
<g id="a_edge53_Node000002_Node000008"><a xlink:title=" ">
<path fill="none" stroke="#63b8ff" d="M775.55,-420.46C770.58,-492.64 750.52,-724.59 695.25,-769 550.88,-884.99 418.33,-800.18 291.75,-665 234.87,-604.26 216.84,-499.02 212.45,-466.13"/>
<polygon fill="#63b8ff" stroke="#63b8ff" points="779.02,-420.98 776.18,-410.77 772.03,-420.52 779.02,-420.98"/>
</a>
</g>
</g>
<!-- Node9 -->
<g id="Node000009" class="node">
<title>Node9</title>
<g id="a_Node000009"><a xlink:href="perft_8cpp.html#a84c7e465b44101a59f96b9c21ed0224b" target="_top" xlink:title="Runs a perft search from a given board state.">
<polygon fill="white" stroke="#666666" points="228.75,-200 191.75,-200 191.75,-180 228.75,-180 228.75,-200"/>
<text xml:space="preserve" text-anchor="middle" x="210.25" y="-186.5" font-family="Helvetica,sans-Serif" font-size="10.00">Perft</text>
</a>
</g>
</g>
<!-- Node2&#45;&gt;Node9 -->
<g id="edge54_Node000002_Node000009" class="edge">
<title>Node2&#45;&gt;Node9</title>
<g id="a_edge54_Node000002_Node000009"><a xlink:title=" ">
<path fill="none" stroke="#63b8ff" d="M777.74,-377.33C778.47,-325.71 772.23,-195.39 695.25,-137 547.42,-24.87 297.27,-143.99 228.95,-180.24"/>
<polygon fill="#63b8ff" stroke="#63b8ff" points="774.24,-377.07 777.48,-387.16 781.24,-377.25 774.24,-377.07"/>
</a>
</g>
</g>
<!-- Node10 -->
<g id="Node000010" class="node">
<title>Node10</title>
<g id="a_Node000010"><a xlink:href="perft_8cpp.html#a1b6b13d186dab20a18cec1a6b041220b" target="_top" xlink:title="Executes a perft test and prints move breakdown and timing.">
<polygon fill="white" stroke="#666666" points="128.75,-181 73,-181 73,-161 128.75,-161 128.75,-181"/>
<text xml:space="preserve" text-anchor="middle" x="100.88" y="-167.5" font-family="Helvetica,sans-Serif" font-size="10.00">PerftTest</text>
</a>
</g>
</g>
<!-- Node2&#45;&gt;Node10 -->
<g id="edge55_Node000002_Node000010" class="edge">
<title>Node2&#45;&gt;Node10</title>
<g id="a_edge55_Node000002_Node000010"><a xlink:title=" ">
<path fill="none" stroke="#63b8ff" d="M774.33,-377.3C766.4,-313.6 739.91,-129.28 695.25,-92 627.05,-35.07 584.84,-76 496,-76 496,-76 496,-76 343,-76 251.44,-76 153.08,-136.03 116.59,-160.65"/>
<polygon fill="#63b8ff" stroke="#63b8ff" points="770.85,-377.65 775.53,-387.16 777.8,-376.81 770.85,-377.65"/>
</a>
</g>
</g>
<!-- Node12 -->
<g id="Node000012" class="node">
<title>Node12</title>
<g id="a_Node000012"><a xlink:href="move__generator_8cpp.html#a529fbdfe853d3ad841c4c0b88c8e55f8" target="_top" xlink:title=" ">
<polygon fill="white" stroke="#666666" points="548.38,-466 441.62,-466 441.62,-446 548.38,-446 548.38,-466"/>
<text xml:space="preserve" text-anchor="middle" x="495" y="-452.5" font-family="Helvetica,sans-Serif" font-size="10.00">AddBlackPawnMove</text>
</a>
</g>
</g>
<!-- Node2&#45;&gt;Node12 -->
<g id="edge13_Node000002_Node000012" class="edge">
<title>Node2&#45;&gt;Node12</title>
<g id="a_edge13_Node000002_Node000012"><a xlink:title=" ">
<path fill="none" stroke="#63b8ff" d="M749.18,-414.77C733.79,-422.8 714,-431.9 695.25,-437 646.63,-450.22 589.16,-454.56 548.47,-455.84"/>
<polygon fill="#63b8ff" stroke="#63b8ff" points="750.59,-417.99 757.74,-410.17 747.28,-411.83 750.59,-417.99"/>
</a>
</g>
</g>
<!-- Node13 -->
<g id="Node000013" class="node">
<title>Node13</title>
<g id="a_Node000013"><a xlink:href="move__generator_8cpp.html#ad22de88ed58f37e575d4d3bbb7925329" target="_top" xlink:title=" ">
<polygon fill="white" stroke="#666666" points="690.38,-618 598.62,-618 598.62,-598 690.38,-598 690.38,-618"/>
<text xml:space="preserve" text-anchor="middle" x="644.5" y="-604.5" font-family="Helvetica,sans-Serif" font-size="10.00">AddCaptureMove</text>
</a>
</g>
</g>
<!-- Node2&#45;&gt;Node13 -->
<g id="edge15_Node000002_Node000013" class="edge">
<title>Node2&#45;&gt;Node13</title>
<g id="a_edge15_Node000002_Node000013"><a xlink:title=" ">
<path fill="none" stroke="#63b8ff" d="M772.58,-420.24C764.01,-457.72 741.5,-536.15 695.25,-584 689.85,-589.58 682.89,-594.04 675.89,-597.52"/>
<polygon fill="#63b8ff" stroke="#63b8ff" points="775.96,-421.2 774.65,-410.68 769.11,-419.72 775.96,-421.2"/>
</a>
</g>
</g>
<!-- Node14 -->
<g id="Node000014" class="node">
<title>Node14</title>
<g id="a_Node000014"><a xlink:href="move__generator_8cpp.html#aa5050db53ab58a3d01f8db5b0c6681c9" target="_top" xlink:title=" ">
<polygon fill="white" stroke="#666666" points="557.75,-694 432.25,-694 432.25,-674 557.75,-674 557.75,-694"/>
<text xml:space="preserve" text-anchor="middle" x="495" y="-680.5" font-family="Helvetica,sans-Serif" font-size="10.00">AddWhitePawnCapMove</text>
</a>
</g>
</g>
<!-- Node2&#45;&gt;Node14 -->
<g id="edge30_Node000002_Node000014" class="edge">
<title>Node2&#45;&gt;Node14</title>
<g id="a_edge30_Node000002_Node000014"><a xlink:title=" ">
<path fill="none" stroke="#63b8ff" d="M775.5,-420.71C771.45,-465.86 755.7,-570.37 695.25,-627 658.23,-661.68 601.54,-675.45 558.09,-680.82"/>
<polygon fill="#63b8ff" stroke="#63b8ff" points="778.97,-421.16 776.26,-410.92 772,-420.62 778.97,-421.16"/>
</a>
</g>
</g>
<!-- Node15 -->
<g id="Node000015" class="node">
<title>Node15</title>
<g id="a_Node000015"><a xlink:href="move__generator_8cpp.html#a1f1451a443ea747e0af2376725f4c62f" target="_top" xlink:title=" ">
<polygon fill="white" stroke="#666666" points="547.62,-542 442.38,-542 442.38,-522 547.62,-522 547.62,-542"/>
<text xml:space="preserve" text-anchor="middle" x="495" y="-528.5" font-family="Helvetica,sans-Serif" font-size="10.00">AddEnPassantMove</text>
</a>
</g>
</g>
<!-- Node2&#45;&gt;Node15 -->
<g id="edge22_Node000002_Node000015" class="edge">
<title>Node2&#45;&gt;Node15</title>
<g id="a_edge22_Node000002_Node000015"><a xlink:title=" ">
<path fill="none" stroke="#63b8ff" d="M767.77,-419.68C755.37,-445.16 730.58,-487.59 695.25,-508 650.3,-533.97 590.18,-537.84 547.77,-536.54"/>
<polygon fill="#63b8ff" stroke="#63b8ff" points="770.92,-421.22 771.96,-410.68 764.57,-418.27 770.92,-421.22"/>
</a>
</g>
</g>
<!-- Node16 -->
<g id="Node000016" class="node">
<title>Node16</title>
<g id="a_Node000016"><a xlink:href="move__generator_8cpp.html#a3a38227acc56d0a4f2531c45bbf17a43" target="_top" xlink:title=" ">
<polygon fill="white" stroke="#666666" points="684.75,-428 604.25,-428 604.25,-408 684.75,-408 684.75,-428"/>
<text xml:space="preserve" text-anchor="middle" x="644.5" y="-414.5" font-family="Helvetica,sans-Serif" font-size="10.00">AddQuietMove</text>
</a>
</g>
</g>
<!-- Node2&#45;&gt;Node16 -->
<g id="edge25_Node000002_Node000016" class="edge">
<title>Node2&#45;&gt;Node16</title>
<g id="a_edge25_Node000002_Node000016"><a xlink:title=" ">
<path fill="none" stroke="#63b8ff" d="M719.85,-407.25C708.13,-408.94 696.03,-410.69 685.09,-412.27"/>
<polygon fill="#63b8ff" stroke="#63b8ff" points="720.03,-410.76 729.43,-405.86 719.03,-403.83 720.03,-410.76"/>
</a>
</g>
</g>
<!-- Node17 -->
<g id="Node000017" class="node">
<title>Node17</title>
<g id="a_Node000017"><a xlink:href="move__generator_8cpp.html#a6470c50ad0bc1167743755ec2a6be107" target="_top" xlink:title=" ">
<polygon fill="white" stroke="#666666" points="548.75,-390 441.25,-390 441.25,-370 548.75,-370 548.75,-390"/>
<text xml:space="preserve" text-anchor="middle" x="495" y="-376.5" font-family="Helvetica,sans-Serif" font-size="10.00">AddWhitePawnMove</text>
</a>
</g>
</g>
<!-- Node2&#45;&gt;Node17 -->
<g id="edge31_Node000002_Node000017" class="edge">
<title>Node2&#45;&gt;Node17</title>
<g id="a_edge31_Node000002_Node000017"><a xlink:title=" ">
<path fill="none" stroke="#63b8ff" d="M719.53,-395.12C669.49,-391.74 597.45,-386.86 548.79,-383.57"/>
<polygon fill="#63b8ff" stroke="#63b8ff" points="719.09,-398.6 729.3,-395.78 719.56,-391.61 719.09,-398.6"/>
</a>
</g>
</g>
<!-- Node18 -->
<g id="Node000018" class="node">
<title>Node18</title>
<g id="a_Node000018"><a xlink:href="make__move_8cpp.html#a7638b740f3b9301ec3ef126abaeef83e" target="_top" xlink:title=" ">
<polygon fill="white" stroke="#666666" points="676.5,-200 612.5,-200 612.5,-180 676.5,-180 676.5,-200"/>
<text xml:space="preserve" text-anchor="middle" x="644.5" y="-186.5" font-family="Helvetica,sans-Serif" font-size="10.00">ClearPiece</text>
</a>
</g>
</g>
<!-- Node2&#45;&gt;Node18 -->
<g id="edge32_Node000002_Node000018" class="edge">
<title>Node2&#45;&gt;Node18</title>
<g id="a_edge32_Node000002_Node000018"><a xlink:title=" ">
<path fill="none" stroke="#63b8ff" d="M771.12,-378.11C760.66,-343.11 735.81,-271.78 695.25,-224 687.13,-214.43 675.69,-206.36 665.83,-200.49"/>
<polygon fill="#63b8ff" stroke="#63b8ff" points="767.67,-378.78 773.8,-387.42 774.39,-376.84 767.67,-378.78"/>
</a>
</g>
</g>
<!-- Node19 -->
<g id="Node000019" class="node">
<title>Node19</title>
<g id="a_Node000019"><a xlink:href="make__move_8cpp.html#a1b56f6dd56425f5fcc2c84f44025d4f5" target="_top" xlink:title="Make a move; returns non&#45;zero if legal (king not left in check).">
<polygon fill="white" stroke="#666666" points="376,-314 312,-314 312,-294 376,-294 376,-314"/>
<text xml:space="preserve" text-anchor="middle" x="344" y="-300.5" font-family="Helvetica,sans-Serif" font-size="10.00">makeMove</text>
</a>
</g>
</g>
<!-- Node2&#45;&gt;Node19 -->
<g id="edge50_Node000002_Node000019" class="edge">
<title>Node2&#45;&gt;Node19</title>
<g id="a_edge50_Node000002_Node000019"><a xlink:title=" ">
<path fill="none" stroke="#63b8ff" d="M720,-386.49C627.81,-366.21 448.8,-326.83 376.46,-310.92"/>
<polygon fill="#63b8ff" stroke="#63b8ff" points="719.07,-389.87 729.59,-388.6 720.57,-383.03 719.07,-389.87"/>
</a>
</g>
</g>
<!-- Node20 -->
<g id="Node000020" class="node">
<title>Node20</title>
<g id="a_Node000020"><a xlink:href="make__move_8cpp.html#aa9576282fc64517514da4a21518ae4d7" target="_top" xlink:title="Undo the last made move.">
<polygon fill="white" stroke="#666666" points="524.38,-162 465.62,-162 465.62,-142 524.38,-142 524.38,-162"/>
<text xml:space="preserve" text-anchor="middle" x="495" y="-148.5" font-family="Helvetica,sans-Serif" font-size="10.00">takeMove</text>
</a>
</g>
</g>
<!-- Node2&#45;&gt;Node20 -->
<g id="edge56_Node000002_Node000020" class="edge">
<title>Node2&#45;&gt;Node20</title>
<g id="a_edge56_Node000002_Node000020"><a xlink:title=" ">
<path fill="none" stroke="#63b8ff" d="M776.34,-377.31C773.9,-330.93 761.08,-222.2 695.25,-171 645.74,-132.49 566.99,-138.84 524.85,-145.94"/>
<polygon fill="#63b8ff" stroke="#63b8ff" points="772.83,-377.27 776.72,-387.13 779.83,-376.99 772.83,-377.27"/>
</a>
</g>
</g>
<!-- Node21 -->
<g id="Node000021" class="node">
<title>Node21</title>
<g id="a_Node000021"><a xlink:href="attack_8cpp.html#a36ea46ff61e0738a61f70dcf90b5178b" target="_top" xlink:title="Determines if a given square is attacked by a given side.">
<polygon fill="white" stroke="#666666" points="691.12,-305 597.88,-305 597.88,-285 691.12,-285 691.12,-305"/>
<text xml:space="preserve" text-anchor="middle" x="644.5" y="-291.5" font-family="Helvetica,sans-Serif" font-size="10.00">isSquareAttacked</text>
</a>
</g>
</g>
<!-- Node2&#45;&gt;Node21 -->
<g id="edge46_Node000002_Node000021" class="edge">
<title>Node2&#45;&gt;Node21</title>
<g id="a_edge46_Node000002_Node000021"><a xlink:title=" ">
<path fill="none" stroke="#63b8ff" d="M757.8,-381.15C741.62,-366.32 717.57,-344.99 695.25,-328 684.69,-319.96 672.26,-311.71 662.46,-305.47"/>
<polygon fill="#63b8ff" stroke="#63b8ff" points="755.08,-383.4 764.8,-387.62 759.83,-378.26 755.08,-383.4"/>
</a>
</g>
</g>
<!-- Node22 -->
<g id="Node000022" class="node">
<title>Node22</title>
<g id="a_Node000022"><a xlink:href="make__move_8cpp.html#a9c21455a32eaf2bdea582755aa32aa4d" target="_top" xlink:title="Make a null move (side to move toggles, no pieces moved).">
<polygon fill="white" stroke="#666666" points="535.62,-238 454.38,-238 454.38,-218 535.62,-218 535.62,-238"/>
<text xml:space="preserve" text-anchor="middle" x="495" y="-224.5" font-family="Helvetica,sans-Serif" font-size="10.00">makeNullMove</text>
</a>
</g>
</g>
<!-- Node2&#45;&gt;Node22 -->
<g id="edge51_Node000002_Node000022" class="edge">
<title>Node2&#45;&gt;Node22</title>
<g id="a_edge51_Node000002_Node000022"><a xlink:title=" ">
<path fill="none" stroke="#63b8ff" d="M768.92,-378.4C757.14,-350.71 732.36,-301.97 695.25,-276 647.3,-242.44 578.7,-232.19 535.79,-229.15"/>
<polygon fill="#63b8ff" stroke="#63b8ff" points="765.59,-379.51 772.6,-387.45 772.07,-376.87 765.59,-379.51"/>
</a>
</g>
</g>
<!-- Node2&#45;&gt;Node23 -->
<g id="edge52_Node000002_Node000023" class="edge">
<title>Node2&#45;&gt;Node23</title>
<g id="a_edge52_Node000002_Node000023"><a xlink:title=" ">
<path fill="none" stroke="#63b8ff" d="M777.66,-377.22C778.59,-319.22 773.5,-158.87 695.25,-62 690.61,-56.26 684.26,-51.8 677.65,-48.37"/>
<polygon fill="#63b8ff" stroke="#63b8ff" points="774.16,-376.95 777.41,-387.04 781.16,-377.13 774.16,-376.95"/>
</a>
</g>
</g>
<!-- Node24 -->
<g id="Node000024" class="node">
<title>Node24</title>
<g id="a_Node000024"><a xlink:href="make__move_8cpp.html#a15152cddb56a865bf5796792f35b4d50" target="_top" xlink:title="Undo the last null move.">
<polygon fill="white" stroke="#666666" points="682.5,-760 606.5,-760 606.5,-740 682.5,-740 682.5,-760"/>
<text xml:space="preserve" text-anchor="middle" x="644.5" y="-746.5" font-family="Helvetica,sans-Serif" font-size="10.00">takeNullMove</text>
</a>
</g>
</g>
<!-- Node2&#45;&gt;Node24 -->
<g id="edge57_Node000002_Node000024" class="edge">
<title>Node2&#45;&gt;Node24</title>
<g id="a_edge57_Node000002_Node000024"><a xlink:title=" ">
<path fill="none" stroke="#63b8ff" d="M777.46,-420.88C777.82,-477.8 771.3,-632.52 695.25,-726 690.59,-731.73 684.23,-736.18 677.62,-739.61"/>
<polygon fill="#63b8ff" stroke="#63b8ff" points="780.96,-420.9 777.3,-410.95 773.96,-421.01 780.96,-420.9"/>
</a>
</g>
</g>
<!-- Node3&#45;&gt;Node4 -->
<g id="edge3_Node000003_Node000004" class="edge">
<title>Node3&#45;&gt;Node4</title>
<g id="a_edge3_Node000003_Node000004"><a xlink:title=" ">
<path fill="none" stroke="#63b8ff" d="M463.47,-585.57C434.07,-600.57 390.45,-622.82 365.16,-635.72"/>
<polygon fill="#63b8ff" stroke="#63b8ff" points="464.93,-588.76 472.25,-581.1 461.75,-582.52 464.93,-588.76"/>
</a>
</g>
</g>
<!-- Node3&#45;&gt;Node5 -->
<g id="edge4_Node000003_Node000005" class="edge">
<title>Node3&#45;&gt;Node5</title>
<g id="a_edge4_Node000003_Node000005"><a xlink:title=" ">
<path fill="none" stroke="#63b8ff" d="M437.98,-554.58C436,-553.46 434.08,-552.27 432.25,-551 391.54,-522.67 361.4,-469.5 350,-447.22"/>
<polygon fill="#63b8ff" stroke="#63b8ff" points="436.4,-557.7 446.93,-558.86 439.42,-551.39 436.4,-557.7"/>
</a>
</g>
</g>
<!-- Node6 -->
<g id="Node000006" class="node">
<title>Node6</title>
<g id="a_Node000006"><a xlink:href="interactive__helpers_8cpp.html#a37716374c6b9557c96dfddf75ab56e72" target="_top" xlink:title="Build list of legal moves that originate from from.">
<polygon fill="white" stroke="#666666" points="255.75,-304 164.75,-304 164.75,-284 255.75,-284 255.75,-304"/>
<text xml:space="preserve" text-anchor="middle" x="210.25" y="-290.5" font-family="Helvetica,sans-Serif" font-size="10.00">LegalMovesFrom</text>
</a>
</g>
</g>
<!-- Node5&#45;&gt;Node6 -->
<g id="edge5_Node000005_Node000006" class="edge">
<title>Node5&#45;&gt;Node6</title>
<g id="a_edge5_Node000005_Node000006"><a xlink:title=" ">
<path fill="none" stroke="#63b8ff" d="M333.08,-416.32C319.18,-389.29 291.55,-341.99 255.75,-313 251.57,-309.62 246.7,-306.74 241.75,-304.32"/>
<polygon fill="#63b8ff" stroke="#63b8ff" points="329.91,-417.81 337.5,-425.2 336.17,-414.68 329.91,-417.81"/>
</a>
</g>
</g>
<!-- Node7 -->
<g id="Node000007" class="node">
<title>Node7</title>
<g id="a_Node000007"><a xlink:href="move__generator_8cpp.html#a4edc18741a17d00498b72b349879e30d" target="_top" xlink:title="Check if a given move exists in the current position.">
<polygon fill="white" stroke="#666666" points="244.12,-342 176.38,-342 176.38,-322 244.12,-322 244.12,-342"/>
<text xml:space="preserve" text-anchor="middle" x="210.25" y="-328.5" font-family="Helvetica,sans-Serif" font-size="10.00">moveExists</text>
</a>
</g>
</g>
<!-- Node5&#45;&gt;Node7 -->
<g id="edge6_Node000005_Node000007" class="edge">
<title>Node5&#45;&gt;Node7</title>
<g id="a_edge6_Node000005_Node000007"><a xlink:title=" ">
<path fill="none" stroke="#63b8ff" d="M320.97,-419.44C293.34,-397.42 246.86,-360.38 224.31,-342.41"/>
<polygon fill="#63b8ff" stroke="#63b8ff" points="318.7,-422.11 328.7,-425.61 323.06,-416.64 318.7,-422.11"/>
</a>
</g>
</g>
<!-- Node5&#45;&gt;Node8 -->
<g id="edge7_Node000005_Node000008" class="edge">
<title>Node5&#45;&gt;Node8</title>
<g id="a_edge7_Node000005_Node000008"><a xlink:title=" ">
<path fill="none" stroke="#63b8ff" d="M285.27,-445.32C275.14,-446.79 264.75,-448.28 255.07,-449.68"/>
<polygon fill="#63b8ff" stroke="#63b8ff" points="285.65,-448.81 295.05,-443.91 284.65,-441.88 285.65,-448.81"/>
</a>
</g>
</g>
<!-- Node5&#45;&gt;Node9 -->
<g id="edge8_Node000005_Node000009" class="edge">
<title>Node5&#45;&gt;Node9</title>
<g id="a_edge8_Node000005_Node000009"><a xlink:title=" ">
<path fill="none" stroke="#63b8ff" d="M332.19,-416.73C305.41,-366.53 236.73,-237.76 216.77,-200.34"/>
<polygon fill="#63b8ff" stroke="#63b8ff" points="329,-418.19 336.79,-425.37 335.18,-414.9 329,-418.19"/>
</a>
</g>
</g>
<!-- Node5&#45;&gt;Node10 -->
<g id="edge12_Node000005_Node000010" class="edge">
<title>Node5&#45;&gt;Node10</title>
<g id="a_edge12_Node000005_Node000010"><a xlink:title=" ">
<path fill="none" stroke="#63b8ff" d="M289.39,-423.21C249.95,-410.5 197.69,-387.9 164.75,-351 118.46,-299.14 105.81,-211.24 102.75,-181.32"/>
<polygon fill="#63b8ff" stroke="#63b8ff" points="288.11,-426.48 298.7,-426.09 290.18,-419.79 288.11,-426.48"/>
</a>
</g>
</g>
<!-- Node9&#45;&gt;Node9 -->
<g id="edge9_Node000009_Node000009" class="edge">
<title>Node9&#45;&gt;Node9</title>
<g id="a_edge9_Node000009_Node000009"><a xlink:title=" ">
<path fill="none" stroke="#63b8ff" d="M229.58,-211.44C227.09,-215.3 220.65,-218 210.25,-218 191.24,-218 185.44,-208.98 192.87,-200.34"/>
<polygon fill="#63b8ff" stroke="#63b8ff" points="233.07,-211.07 227.89,-201.83 226.18,-212.28 233.07,-211.07"/>
</a>
</g>
</g>
<!-- Node9&#45;&gt;Node10 -->
<g id="edge10_Node000009_Node000010" class="edge">
<title>Node9&#45;&gt;Node10</title>
<g id="a_edge10_Node000009_Node000010"><a xlink:title=" ">
<path fill="none" stroke="#63b8ff" d="M180.63,-184.94C164.58,-182.1 144.68,-178.57 128.9,-175.78"/>
<polygon fill="#63b8ff" stroke="#63b8ff" points="179.57,-188.3 190.03,-186.6 180.79,-181.41 179.57,-188.3"/>
</a>
</g>
</g>
<!-- Node11 -->
<g id="Node000011" class="node">
<title>Node11</title>
<g id="a_Node000011"><a xlink:href="main_8cpp.html#ae66f6b31b5ad750f1fe042a706a4e3d4" target="_top" xlink:title=" ">
<polygon fill="white" stroke="#666666" points="37,-105 0,-105 0,-85 37,-85 37,-105"/>
<text xml:space="preserve" text-anchor="middle" x="18.5" y="-91.5" font-family="Helvetica,sans-Serif" font-size="10.00">main</text>
</a>
</g>
</g>
<!-- Node10&#45;&gt;Node11 -->
<g id="edge11_Node000010_Node000011" class="edge">
<title>Node10&#45;&gt;Node11</title>
<g id="a_edge11_Node000010_Node000011"><a xlink:title=" ">
<path fill="none" stroke="#63b8ff" d="M81.02,-153.17C65.29,-138.29 43.41,-117.61 30.42,-105.33"/>
<polygon fill="#63b8ff" stroke="#63b8ff" points="78.26,-155.38 87.94,-159.71 83.07,-150.3 78.26,-155.38"/>
</a>
</g>
</g>
<!-- Node12&#45;&gt;Node5 -->
<g id="edge14_Node000012_Node000005" class="edge">
<title>Node12&#45;&gt;Node5</title>
<g id="a_edge14_Node000012_Node000005"><a xlink:title=" ">
<path fill="none" stroke="#63b8ff" d="M430.11,-447.85C417,-446.18 403.45,-444.45 391.11,-442.88"/>
<polygon fill="#63b8ff" stroke="#63b8ff" points="429.6,-451.32 439.97,-449.11 430.49,-444.37 429.6,-451.32"/>
</a>
</g>
</g>
<!-- Node13&#45;&gt;Node3 -->
<g id="edge16_Node000013_Node000003" class="edge">
<title>Node13&#45;&gt;Node3</title>
<g id="a_edge16_Node000013_Node000003"><a xlink:title=" ">
<path fill="none" stroke="#63b8ff" d="M591.82,-594.69C573.71,-590.02 553.64,-584.85 536.56,-580.45"/>
<polygon fill="#63b8ff" stroke="#63b8ff" points="590.78,-598.03 601.34,-597.14 592.53,-591.25 590.78,-598.03"/>
</a>
</g>
</g>
<!-- Node13&#45;&gt;Node4 -->
<g id="edge20_Node000013_Node000004" class="edge">
<title>Node13&#45;&gt;Node4</title>
<g id="a_edge20_Node000013_Node000004"><a xlink:title=" ">
<path fill="none" stroke="#63b8ff" d="M586.94,-617.64C577.22,-619.18 567.2,-620.7 557.75,-622 502.89,-629.57 439.82,-636.46 396.68,-640.89"/>
<polygon fill="#63b8ff" stroke="#63b8ff" points="587.36,-621.12 596.68,-616.07 586.25,-614.21 587.36,-621.12"/>
</a>
</g>
</g>
<!-- Node13&#45;&gt;Node5 -->
<g id="edge21_Node000013_Node000005" class="edge">
<title>Node13&#45;&gt;Node5</title>
<g id="a_edge21_Node000013_Node000005"><a xlink:title=" ">
<path fill="none" stroke="#63b8ff" d="M587.03,-616.4C541.67,-620.16 478.17,-618.42 432.25,-589 378.96,-554.86 354.67,-475.85 347.43,-447.43"/>
<polygon fill="#63b8ff" stroke="#63b8ff" points="587.31,-619.88 596.93,-615.45 586.65,-612.92 587.31,-619.88"/>
</a>
</g>
</g>
<!-- Node13&#45;&gt;Node14 -->
<g id="edge17_Node000013_Node000014" class="edge">
<title>Node13&#45;&gt;Node14</title>
<g id="a_edge17_Node000013_Node000014"><a xlink:title=" ">
<path fill="none" stroke="#63b8ff" d="M618.57,-624.71C601.8,-635.55 578.96,-649.55 557.75,-660 547.64,-664.98 536.22,-669.67 525.98,-673.55"/>
<polygon fill="#63b8ff" stroke="#63b8ff" points="620.45,-627.67 626.89,-619.26 616.61,-621.81 620.45,-627.67"/>
</a>
</g>
</g>
<!-- Node14&#45;&gt;Node4 -->
<g id="edge18_Node000014_Node000004" class="edge">
<title>Node14&#45;&gt;Node4</title>
<g id="a_edge18_Node000014_Node000004"><a xlink:title=" ">
<path fill="none" stroke="#63b8ff" d="M441.8,-670.69C423.5,-666.02 403.22,-660.85 385.98,-656.45"/>
<polygon fill="#63b8ff" stroke="#63b8ff" points="440.87,-674.06 451.42,-673.14 442.6,-667.28 440.87,-674.06"/>
</a>
</g>
</g>
<!-- Node14&#45;&gt;Node5 -->
<g id="edge19_Node000014_Node000005" class="edge">
<title>Node14&#45;&gt;Node5</title>
<g id="a_edge19_Node000014_Node000005"><a xlink:title=" ">
<path fill="none" stroke="#63b8ff" d="M473.05,-666.33C460.13,-654.69 443.88,-638.57 432.25,-622 389.61,-561.25 358.44,-476.39 348.43,-447.27"/>
<polygon fill="#63b8ff" stroke="#63b8ff" points="470.39,-668.66 480.22,-672.64 475.01,-663.41 470.39,-668.66"/>
</a>
</g>
</g>
<!-- Node15&#45;&gt;Node4 -->
<g id="edge23_Node000015_Node000004" class="edge">
<title>Node15&#45;&gt;Node4</title>
<g id="a_edge23_Node000015_Node000004"><a xlink:title=" ">
<path fill="none" stroke="#63b8ff" d="M439.4,-546.98C436.93,-548.22 434.53,-549.56 432.25,-551 395.71,-574.07 364.67,-616.35 351.61,-635.76"/>
<polygon fill="#63b8ff" stroke="#63b8ff" points="440.72,-550.22 448.48,-543.01 437.92,-543.81 440.72,-550.22"/>
</a>
</g>
</g>
<!-- Node15&#45;&gt;Node5 -->
<g id="edge24_Node000015_Node000005" class="edge">
<title>Node15&#45;&gt;Node5</title>
<g id="a_edge24_Node000015_Node000005"><a xlink:title=" ">
<path fill="none" stroke="#63b8ff" d="M450.77,-517.2C444.4,-514.45 438.05,-511.37 432.25,-508 401.86,-490.32 371.07,-462.4 355.47,-447.38"/>
<polygon fill="#63b8ff" stroke="#63b8ff" points="449.4,-520.42 459.98,-520.93 452.03,-513.93 449.4,-520.42"/>
</a>
</g>
</g>
<!-- Node16&#45;&gt;Node5 -->
<g id="edge29_Node000016_Node000005" class="edge">
<title>Node16&#45;&gt;Node5</title>
<g id="a_edge29_Node000016_Node000005"><a xlink:title=" ">
<path fill="none" stroke="#63b8ff" d="M592.71,-421.23C536.3,-424.82 446.02,-430.57 391.43,-434.04"/>
<polygon fill="#63b8ff" stroke="#63b8ff" points="592.59,-424.75 602.35,-420.62 592.15,-417.76 592.59,-424.75"/>
</a>
</g>
</g>
<!-- Node16&#45;&gt;Node12 -->
<g id="edge26_Node000016_Node000012" class="edge">
<title>Node16&#45;&gt;Node12</title>
<g id="a_edge26_Node000016_Node000012"><a xlink:title=" ">
<path fill="none" stroke="#63b8ff" d="M592.87,-431.04C574.52,-435.77 554.05,-441.05 536.66,-445.52"/>
<polygon fill="#63b8ff" stroke="#63b8ff" points="593.7,-434.45 602.51,-428.56 591.95,-427.67 593.7,-434.45"/>
</a>
</g>
</g>
<!-- Node16&#45;&gt;Node17 -->
<g id="edge27_Node000016_Node000017" class="edge">
<title>Node16&#45;&gt;Node17</title>
<g id="a_edge27_Node000016_Node000017"><a xlink:title=" ">
<path fill="none" stroke="#63b8ff" d="M592.87,-404.96C574.52,-400.23 554.05,-394.95 536.66,-390.48"/>
<polygon fill="#63b8ff" stroke="#63b8ff" points="591.95,-408.33 602.51,-407.44 593.7,-401.55 591.95,-408.33"/>
</a>
</g>
</g>
<!-- Node17&#45;&gt;Node5 -->
<g id="edge28_Node000017_Node000005" class="edge">
<title>Node17&#45;&gt;Node5</title>
<g id="a_edge28_Node000017_Node000005"><a xlink:title=" ">
<path fill="none" stroke="#63b8ff" d="M456.03,-394.53C429.93,-404.51 395.88,-417.54 372.41,-426.52"/>
<polygon fill="#63b8ff" stroke="#63b8ff" points="457.17,-397.84 465.26,-391 454.67,-391.3 457.17,-397.84"/>
</a>
</g>
</g>
<!-- Node18&#45;&gt;Node19 -->
<g id="edge33_Node000018_Node000019" class="edge">
<title>Node18&#45;&gt;Node19</title>
<g id="a_edge33_Node000018_Node000019"><a xlink:title=" ">
<path fill="none" stroke="#63b8ff" d="M600.8,-182.49C555.06,-176.86 482.3,-175.08 432.25,-209 402.96,-228.85 421.66,-255.38 396.25,-280 390.46,-285.61 383.13,-290.08 375.83,-293.58"/>
<polygon fill="#63b8ff" stroke="#63b8ff" points="600.22,-185.95 610.6,-183.83 601.16,-179.01 600.22,-185.95"/>
</a>
</g>
</g>
<!-- Node18&#45;&gt;Node20 -->
<g id="edge38_Node000018_Node000020" class="edge">
<title>Node18&#45;&gt;Node20</title>
<g id="a_edge38_Node000018_Node000020"><a xlink:title=" ">
<path fill="none" stroke="#63b8ff" d="M601.4,-179.15C576.86,-172.83 546.54,-165.02 524.73,-159.4"/>
<polygon fill="#63b8ff" stroke="#63b8ff" points="600.2,-182.46 610.75,-181.56 601.94,-175.68 600.2,-182.46"/>
</a>
</g>
</g>
<!-- Node19&#45;&gt;Node6 -->
<g id="edge34_Node000019_Node000006" class="edge">
<title>Node19&#45;&gt;Node6</title>
<g id="a_edge34_Node000019_Node000006"><a xlink:title=" ">
<path fill="none" stroke="#63b8ff" d="M300.37,-300.76C286.25,-299.69 270.5,-298.5 256.21,-297.41"/>
<polygon fill="#63b8ff" stroke="#63b8ff" points="300.03,-304.25 310.27,-301.52 300.56,-297.27 300.03,-304.25"/>
</a>
</g>
</g>
<!-- Node19&#45;&gt;Node7 -->
<g id="edge35_Node000019_Node000007" class="edge">
<title>Node19&#45;&gt;Node7</title>
<g id="a_edge35_Node000019_Node000007"><a xlink:title=" ">
<path fill="none" stroke="#63b8ff" d="M300.6,-313.01C282.45,-316.87 261.56,-321.31 244.55,-324.92"/>
<polygon fill="#63b8ff" stroke="#63b8ff" points="301.24,-316.45 310.3,-310.95 299.79,-309.61 301.24,-316.45"/>
</a>
</g>
</g>
<!-- Node19&#45;&gt;Node9 -->
<g id="edge36_Node000019_Node000009" class="edge">
<title>Node19&#45;&gt;Node9</title>
<g id="a_edge36_Node000019_Node000009"><a xlink:title=" ">
<path fill="none" stroke="#63b8ff" d="M322.75,-286.48C294.89,-262.37 245.64,-219.76 223.11,-200.26"/>
<polygon fill="#63b8ff" stroke="#63b8ff" points="320.31,-289 330.16,-292.89 324.89,-283.7 320.31,-289"/>
</a>
</g>
</g>
<!-- Node19&#45;&gt;Node10 -->
<g id="edge37_Node000019_Node000010" class="edge">
<title>Node19&#45;&gt;Node10</title>
<g id="a_edge37_Node000019_Node000010"><a xlink:title=" ">
<path fill="none" stroke="#63b8ff" d="M301.04,-290.2C263.67,-276.92 208.34,-254.8 164.75,-227 143.8,-213.64 122.95,-193.33 111.3,-181.19"/>
<polygon fill="#63b8ff" stroke="#63b8ff" points="299.52,-293.38 310.12,-293.37 301.83,-286.77 299.52,-293.38"/>
</a>
</g>
</g>
<!-- Node20&#45;&gt;Node6 -->
<g id="edge39_Node000020_Node000006" class="edge">
<title>Node20&#45;&gt;Node6</title>
<g id="a_edge39_Node000020_Node000006"><a xlink:title=" ">
<path fill="none" stroke="#63b8ff" d="M454.65,-165.73C447.13,-168.61 439.39,-171.77 432.25,-175 354.05,-210.42 265.33,-261.79 228.59,-283.59"/>
<polygon fill="#63b8ff" stroke="#63b8ff" points="455.82,-169.03 463.97,-162.26 453.38,-162.47 455.82,-169.03"/>
</a>
</g>
</g>
<!-- Node20&#45;&gt;Node7 -->
<g id="edge41_Node000020_Node000007" class="edge">
<title>Node20&#45;&gt;Node7</title>
<g id="a_edge41_Node000020_Node000007"><a xlink:title=" ">
<path fill="none" stroke="#63b8ff" d="M454.54,-162.27C446.63,-165.5 438.76,-169.67 432.25,-175 408.77,-194.22 418.69,-212.58 396.25,-233 357.89,-267.92 335.66,-257.38 291.75,-285 274.59,-295.79 273.22,-302.71 255.75,-313 250.39,-316.15 244.42,-319.07 238.62,-321.63"/>
<polygon fill="#63b8ff" stroke="#63b8ff" points="455.58,-165.62 463.8,-158.94 453.2,-159.03 455.58,-165.62"/>
</a>
</g>
</g>
<!-- Node20&#45;&gt;Node9 -->
<g id="edge42_Node000020_Node000009" class="edge">
<title>Node20&#45;&gt;Node9</title>
<g id="a_edge42_Node000020_Node000009"><a xlink:title=" ">
<path fill="none" stroke="#63b8ff" d="M453.99,-157.85C436.31,-160.41 415.25,-163.41 396.25,-166 334.96,-174.36 262.14,-183.61 229.12,-187.76"/>
<polygon fill="#63b8ff" stroke="#63b8ff" points="454.46,-161.32 463.86,-156.42 453.46,-154.39 454.46,-161.32"/>
</a>
</g>
</g>
<!-- Node20&#45;&gt;Node10 -->
<g id="edge43_Node000020_Node000010" class="edge">
<title>Node20&#45;&gt;Node10</title>
<g id="a_edge43_Node000020_Node000010"><a xlink:title=" ">
<path fill="none" stroke="#63b8ff" d="M454.14,-153.93C374.42,-157.79 197.19,-166.38 129.18,-169.68"/>
<polygon fill="#63b8ff" stroke="#63b8ff" points="453.84,-157.45 463.65,-153.47 453.5,-150.46 453.84,-157.45"/>
</a>
</g>
</g>
<!-- Node20&#45;&gt;Node19 -->
<g id="edge40_Node000020_Node000019" class="edge">
<title>Node20&#45;&gt;Node19</title>
<g id="a_edge40_Node000020_Node000019"><a xlink:title=" ">
<path fill="none" stroke="#63b8ff" d="M454.5,-161.51C446.32,-164.97 438.35,-169.66 432.25,-176 398.32,-211.23 428.98,-243.65 396.25,-280 390.86,-285.99 383.66,-290.6 376.37,-294.11"/>
<polygon fill="#63b8ff" stroke="#63b8ff" points="455.59,-164.83 463.8,-158.14 453.2,-158.25 455.59,-164.83"/>
</a>
</g>
</g>
<!-- Node21&#45;&gt;Node5 -->
<g id="edge47_Node000021_Node000005" class="edge">
<title>Node21&#45;&gt;Node5</title>
<g id="a_edge47_Node000021_Node000005"><a xlink:title=" ">
<path fill="none" stroke="#63b8ff" d="M586.54,-306.06C542.49,-316.17 481,-333.75 432.25,-361 399.99,-379.03 369.03,-410.41 354.17,-426.63"/>
<polygon fill="#63b8ff" stroke="#63b8ff" points="587.15,-309.51 596.15,-303.92 585.63,-302.68 587.15,-309.51"/>
</a>
</g>
</g>
<!-- Node21&#45;&gt;Node19 -->
<g id="edge48_Node000021_Node000019" class="edge">
<title>Node21&#45;&gt;Node19</title>
<g id="a_edge48_Node000021_Node000019"><a xlink:title=" ">
<path fill="none" stroke="#63b8ff" d="M586.42,-290.47C543.86,-287.86 484.34,-285.85 432.25,-290 413.59,-291.49 392.9,-294.74 376.35,-297.73"/>
<polygon fill="#63b8ff" stroke="#63b8ff" points="585.97,-293.95 596.17,-291.1 586.42,-286.96 585.97,-293.95"/>
</a>
</g>
</g>
<!-- Node21&#45;&gt;Node22 -->
<g id="edge49_Node000021_Node000022" class="edge">
<title>Node21&#45;&gt;Node22</title>
<g id="a_edge49_Node000021_Node000022"><a xlink:title=" ">
<path fill="none" stroke="#63b8ff" d="M613.94,-279.32C597.56,-270.84 576.73,-260.42 557.75,-252 547.03,-247.24 535.05,-242.46 524.51,-238.44"/>
<polygon fill="#63b8ff" stroke="#63b8ff" points="612.17,-282.34 622.66,-283.86 615.41,-276.13 612.17,-282.34"/>
</a>
</g>
</g>
<!-- Node25&#45;&gt;Node11 -->
<g id="edge59_Node000025_Node000011" class="edge">
<title>Node25&#45;&gt;Node11</title>
<g id="a_edge59_Node000025_Node000011"><a xlink:title=" ">
<path fill="none" stroke="#63b8ff" d="M62.6,-84.81C53.76,-86.9 44.74,-89.03 37.24,-90.81"/>
<polygon fill="#63b8ff" stroke="#63b8ff" points="63.16,-88.28 72.08,-82.57 61.55,-81.46 63.16,-88.28"/>
</a>
</g>
</g>
</g>
</svg>

<g id="navigator" transform="translate(0 0)" fill="#404254">
  <rect fill="#f2f5e9" fill-opacity="0.5" stroke="#606060" stroke-width=".5" x="0" y="0" width="60" height="60"/>
  <use id="zoomplus" xlink:href="#zoomPlus" x="17" y="9" onmousedown="handleZoom(evt,'in')"/>
  <use id="zoomminus" xlink:href="#zoomMin" x="42" y="9" onmousedown="handleZoom(evt,'out')"/>
  <use id="reset" xlink:href="#resetDef" x="30" y="36" onmousedown="handleReset()"/>
   <use id="arrowup" xlink:href="#arrowUp" x="0" y="0" onmousedown="handlePan(0,-1)"/>
  <use id="arrowright" xlink:href="#arrowRight" x="0" y="0" onmousedown="handlePan(1,0)"/>
  <use id="arrowdown" xlink:href="#arrowDown" x="0" y="0" onmousedown="handlePan(0,1)"/>
  <use id="arrowleft" xlink:href="#arrowLeft" x="0" y="0" onmousedown="handlePan(-1,0)"/>
</g>
<svg viewBox="0 0 15 15" width="100%" height="30px" preserveAspectRatio="xMaxYMin meet">
 <g id="arrow_out" transform="scale(0.3 0.3)">
  <a xlink:href="hash__keys_8h_a51235b5dbe2ee64d38873eb08447cc4f_icgraph_org.svg" target="_base">
   <rect id="button" ry="5" rx="5" y="6" x="6" height="38" width="38"
        fill="#f2f5e9" fill-opacity="0.5" stroke="#606060" stroke-width="1.0"/>
   <path id="arrow"
     d="M 11.500037,31.436501 C 11.940474,20.09759 22.043105,11.32322 32.158766,21.979434 L 37.068811,17.246167 C 37.068811,17.246167 37.088388,32 37.088388,32 L 22.160133,31.978069 C 22.160133,31.978069 26.997745,27.140456 26.997745,27.140456 C 18.528582,18.264221 13.291696,25.230495 11.500037,31.436501 z"
     style="fill:#404040;"/>
  </a>
 </g>
</svg>

<style type='text/css'>
<![CDATA[
[data-mouse-over-selected='false'] { opacity: 0.7; }
[data-mouse-over-selected='true']  { opacity: 1.0; }
]]>
</style>
<script type="application/ecmascript"><![CDATA[
document.addEventListener('DOMContentLoaded', (event) => {
  highlightEdges();
  highlightAdjacentNodes();
});
]]></script>
</svg>
