<?xml version="1.0" encoding="UTF-8" standalone="no"?>
<!DOCTYPE svg PUBLIC "-//W3C//DTD SVG 1.1//EN"
 "http://www.w3.org/Graphics/SVG/1.1/DTD/svg11.dtd">
<!-- Generated by graphviz version 13.1.2 (20250808.2320)
 -->
<!-- Title: takeMove Pages: 1 -->
<svg width="459pt" height="174pt"
 viewBox="0.00 0.00 459.00 174.00" xmlns="http://www.w3.org/2000/svg" xmlns:xlink="http://www.w3.org/1999/xlink">

<svg id="main" version="1.1" xmlns="http://www.w3.org/2000/svg" xmlns:xlink="http://www.w3.org/1999/xlink" xml:space="preserve">

<style type="text/css"><![CDATA[
.node, .edge {opacity: 0.7;}
.node.selected, .edge.selected {opacity: 1;}
.edge:hover path { stroke: red; }
.edge:hover polygon { stroke: red; fill: red; }
]]></style>
<script type="application/ecmascript" xlink:href="svg.min.js"/>
<svg id="graph" class="graph">
<g id="graph0" class="graph" transform="scale(1 1) rotate(0) translate(4 169.87)">
<title>takeMove</title>
<!-- Node1 -->
<g id="Node000001" class="node">
<title>Node1</title>
<g id="a_Node000001"><a xlink:title="Undo the last made move.">
<polygon fill="#999999" stroke="#666666" points="450.5,-89.87 391.75,-89.87 391.75,-69.87 450.5,-69.87 450.5,-89.87"/>
<text xml:space="preserve" text-anchor="middle" x="421.12" y="-76.37" font-family="Helvetica,sans-Serif" font-size="10.00">takeMove</text>
</a>
</g>
</g>
<!-- Node2 -->
<g id="Node000002" class="node">
<title>Node2</title>
<g id="a_Node000002"><a xlink:href="interactive__helpers_8cpp.html#a37716374c6b9557c96dfddf75ab56e72" target="_top" xlink:title="Build list of legal moves that originate from from.">
<polygon fill="white" stroke="#666666" points="255.75,-165.87 164.75,-165.87 164.75,-145.87 255.75,-145.87 255.75,-165.87"/>
<text xml:space="preserve" text-anchor="middle" x="210.25" y="-152.37" font-family="Helvetica,sans-Serif" font-size="10.00">LegalMovesFrom</text>
</a>
</g>
</g>
<!-- Node1&#45;&gt;Node2 -->
<g id="edge1_Node000001_Node000002" class="edge">
<title>Node1&#45;&gt;Node2</title>
<g id="a_edge1_Node000001_Node000002"><a xlink:title=" ">
<path fill="none" stroke="#63b8ff" d="M395.66,-96.48C383.97,-103.83 369.55,-112.11 355.75,-117.87 323.55,-131.3 285.3,-141.11 256.24,-147.39"/>
<polygon fill="#63b8ff" stroke="#63b8ff" points="397.38,-99.53 403.87,-91.15 393.58,-93.66 397.38,-99.53"/>
</a>
</g>
</g>
<!-- Node3 -->
<g id="Node000003" class="node">
<title>Node3</title>
<g id="a_Node000003"><a xlink:href="make__move_8cpp.html#a1b56f6dd56425f5fcc2c84f44025d4f5" target="_top" xlink:title="Make a move; returns non&#45;zero if legal (king not left in check).">
<polygon fill="white" stroke="#666666" points="355.75,-89.87 291.75,-89.87 291.75,-69.87 355.75,-69.87 355.75,-89.87"/>
<text xml:space="preserve" text-anchor="middle" x="323.75" y="-76.37" font-family="Helvetica,sans-Serif" font-size="10.00">makeMove</text>
</a>
</g>
</g>
<!-- Node1&#45;&gt;Node3 -->
<g id="edge2_Node000001_Node000003" class="edge">
<title>Node1&#45;&gt;Node3</title>
<g id="a_edge2_Node000001_Node000003"><a xlink:title=" ">
<path fill="none" stroke="#63b8ff" d="M379.93,-79.87C372,-79.87 363.78,-79.87 356.18,-79.87"/>
<polygon fill="#63b8ff" stroke="#63b8ff" points="379.74,-83.37 389.74,-79.87 379.74,-76.37 379.74,-83.37"/>
</a>
</g>
</g>
<!-- Node4 -->
<g id="Node000004" class="node">
<title>Node4</title>
<g id="a_Node000004"><a xlink:href="move__generator_8cpp.html#a4edc18741a17d00498b72b349879e30d" target="_top" xlink:title="Check if a given move exists in the current position.">
<polygon fill="white" stroke="#666666" points="244.12,-127.87 176.38,-127.87 176.38,-107.87 244.12,-107.87 244.12,-127.87"/>
<text xml:space="preserve" text-anchor="middle" x="210.25" y="-114.37" font-family="Helvetica,sans-Serif" font-size="10.00">moveExists</text>
</a>
</g>
</g>
<!-- Node1&#45;&gt;Node4 -->
<g id="edge10_Node000001_Node000004" class="edge">
<title>Node1&#45;&gt;Node4</title>
<g id="a_edge10_Node000001_Node000004"><a xlink:title=" ">
<path fill="none" stroke="#63b8ff" d="M380.71,-92.56C372.52,-94.89 363.9,-97.14 355.75,-98.87 318,-106.87 273.95,-112.08 244.5,-114.98"/>
<polygon fill="#63b8ff" stroke="#63b8ff" points="381.49,-95.98 390.08,-89.78 379.5,-89.27 381.49,-95.98"/>
</a>
</g>
</g>
<!-- Node5 -->
<g id="Node000005" class="node">
<title>Node5</title>
<g id="a_Node000005"><a xlink:href="perft_8cpp.html#a84c7e465b44101a59f96b9c21ed0224b" target="_top" xlink:title="Runs a perft search from a given board state.">
<polygon fill="white" stroke="#666666" points="228.75,-33.87 191.75,-33.87 191.75,-13.87 228.75,-13.87 228.75,-33.87"/>
<text xml:space="preserve" text-anchor="middle" x="210.25" y="-20.37" font-family="Helvetica,sans-Serif" font-size="10.00">Perft</text>
</a>
</g>
</g>
<!-- Node1&#45;&gt;Node5 -->
<g id="edge11_Node000001_Node000005" class="edge">
<title>Node1&#45;&gt;Node5</title>
<g id="a_edge11_Node000001_Node000005"><a xlink:title=" ">
<path fill="none" stroke="#63b8ff" d="M380.53,-67.93C372.35,-65.54 363.78,-63.08 355.75,-60.87 310.31,-48.35 256.45,-34.93 229.1,-28.22"/>
<polygon fill="#63b8ff" stroke="#63b8ff" points="379.31,-71.22 389.9,-70.7 381.3,-64.51 379.31,-71.22"/>
</a>
</g>
</g>
<!-- Node6 -->
<g id="Node000006" class="node">
<title>Node6</title>
<g id="a_Node000006"><a xlink:href="perft_8cpp.html#a1b6b13d186dab20a18cec1a6b041220b" target="_top" xlink:title="Executes a perft test and prints move breakdown and timing.">
<polygon fill="white" stroke="#666666" points="128.75,-33.87 73,-33.87 73,-13.87 128.75,-13.87 128.75,-33.87"/>
<text xml:space="preserve" text-anchor="middle" x="100.88" y="-20.37" font-family="Helvetica,sans-Serif" font-size="10.00">PerftTest</text>
</a>
</g>
</g>
<!-- Node1&#45;&gt;Node6 -->
<g id="edge12_Node000001_Node000006" class="edge">
<title>Node1&#45;&gt;Node6</title>
<g id="a_edge12_Node000001_Node000006"><a xlink:title=" ">
<path fill="none" stroke="#63b8ff" d="M396.02,-63.13C384.22,-55.41 369.61,-46.5 355.75,-39.87 313.27,-19.54 302.17,-12.76 255.75,-4.87 215.88,1.91 204.76,1.05 164.75,-4.87 152.79,-6.63 139.96,-10.19 129.02,-13.76"/>
<polygon fill="#63b8ff" stroke="#63b8ff" points="394.05,-66.03 404.31,-68.68 397.95,-60.21 394.05,-66.03"/>
</a>
</g>
</g>
<!-- Node3&#45;&gt;Node2 -->
<g id="edge3_Node000003_Node000002" class="edge">
<title>Node3&#45;&gt;Node2</title>
<g id="a_edge3_Node000003_Node000002"><a xlink:title=" ">
<path fill="none" stroke="#63b8ff" d="M304.62,-97.93C291.77,-110.05 273.69,-125.76 255.75,-136.87 250.61,-140.05 244.84,-142.95 239.2,-145.46"/>
<polygon fill="#63b8ff" stroke="#63b8ff" points="306.76,-100.73 311.53,-91.27 301.9,-95.69 306.76,-100.73"/>
</a>
</g>
</g>
<!-- Node3&#45;&gt;Node4 -->
<g id="edge4_Node000003_Node000004" class="edge">
<title>Node3&#45;&gt;Node4</title>
<g id="a_edge4_Node000003_Node000004"><a xlink:title=" ">
<path fill="none" stroke="#63b8ff" d="M281.35,-93.98C268.28,-98.43 254.09,-103.27 241.91,-107.42"/>
<polygon fill="#63b8ff" stroke="#63b8ff" points="282.22,-97.38 290.55,-90.84 279.96,-90.75 282.22,-97.38"/>
</a>
</g>
</g>
<!-- Node3&#45;&gt;Node5 -->
<g id="edge5_Node000003_Node000005" class="edge">
<title>Node3&#45;&gt;Node5</title>
<g id="a_edge5_Node000003_Node000005"><a xlink:title=" ">
<path fill="none" stroke="#63b8ff" d="M292.01,-64.43C271.71,-54.23 245.83,-41.23 228.91,-32.74"/>
<polygon fill="#63b8ff" stroke="#63b8ff" points="290.18,-67.42 300.69,-68.79 293.32,-61.17 290.18,-67.42"/>
</a>
</g>
</g>
<!-- Node3&#45;&gt;Node6 -->
<g id="edge9_Node000003_Node000006" class="edge">
<title>Node3&#45;&gt;Node6</title>
<g id="a_edge9_Node000003_Node000006"><a xlink:title=" ">
<path fill="none" stroke="#63b8ff" d="M280.02,-79.45C247.62,-78.01 202.4,-73.59 164.75,-60.87 146.51,-54.7 127.76,-42.82 115.54,-34.17"/>
<polygon fill="#63b8ff" stroke="#63b8ff" points="279.71,-82.94 289.82,-79.79 279.95,-75.94 279.71,-82.94"/>
</a>
</g>
</g>
<!-- Node5&#45;&gt;Node5 -->
<g id="edge6_Node000005_Node000005" class="edge">
<title>Node5&#45;&gt;Node5</title>
<g id="a_edge6_Node000005_Node000005"><a xlink:title=" ">
<path fill="none" stroke="#63b8ff" d="M229.58,-45.31C227.09,-49.17 220.65,-51.87 210.25,-51.87 191.24,-51.87 185.44,-42.84 192.87,-34.21"/>
<polygon fill="#63b8ff" stroke="#63b8ff" points="233.07,-44.94 227.89,-35.7 226.18,-46.15 233.07,-44.94"/>
</a>
</g>
</g>
<!-- Node5&#45;&gt;Node6 -->
<g id="edge7_Node000005_Node000006" class="edge">
<title>Node5&#45;&gt;Node6</title>
<g id="a_edge7_Node000005_Node000006"><a xlink:title=" ">
<path fill="none" stroke="#63b8ff" d="M180.16,-23.87C164.19,-23.87 144.52,-23.87 128.9,-23.87"/>
<polygon fill="#63b8ff" stroke="#63b8ff" points="180.01,-27.37 190.01,-23.87 180.01,-20.37 180.01,-27.37"/>
</a>
</g>
</g>
<!-- Node7 -->
<g id="Node000007" class="node">
<title>Node7</title>
<g id="a_Node000007"><a xlink:href="main_8cpp.html#ae66f6b31b5ad750f1fe042a706a4e3d4" target="_top" xlink:title=" ">
<polygon fill="white" stroke="#666666" points="37,-33.87 0,-33.87 0,-13.87 37,-13.87 37,-33.87"/>
<text xml:space="preserve" text-anchor="middle" x="18.5" y="-20.37" font-family="Helvetica,sans-Serif" font-size="10.00">main</text>
</a>
</g>
</g>
<!-- Node6&#45;&gt;Node7 -->
<g id="edge8_Node000006_Node000007" class="edge">
<title>Node6&#45;&gt;Node7</title>
<g id="a_edge8_Node000006_Node000007"><a xlink:title=" ">
<path fill="none" stroke="#63b8ff" d="M61.39,-23.87C52.98,-23.87 44.47,-23.87 37.34,-23.87"/>
<polygon fill="#63b8ff" stroke="#63b8ff" points="61.15,-27.37 71.15,-23.87 61.15,-20.37 61.15,-27.37"/>
</a>
</g>
</g>
</g>
</svg>
</svg>

<style type='text/css'>
<![CDATA[
[data-mouse-over-selected='false'] { opacity: 0.7; }
[data-mouse-over-selected='true']  { opacity: 1.0; }
]]>
</style>
<script type="application/ecmascript"><![CDATA[
document.addEventListener('DOMContentLoaded', (event) => {
  highlightEdges();
  highlightAdjacentNodes();
});
]]></script>
</svg>
