<?xml version="1.0" encoding="UTF-8" standalone="no"?>
<!DOCTYPE svg PUBLIC "-//W3C//DTD SVG 1.1//EN"
 "http://www.w3.org/Graphics/SVG/1.1/DTD/svg11.dtd">
<!-- Generated by graphviz version 13.1.2 (20250808.2320)
 -->
<!-- Title: make_move.h Pages: 1 -->
<svg width="498pt" height="84pt"
 viewBox="0.00 0.00 498.00 84.00" xmlns="http://www.w3.org/2000/svg" xmlns:xlink="http://www.w3.org/1999/xlink">
<g id="graph0" class="graph" transform="scale(1 1) rotate(0) translate(4 80)">
<title>make_move.h</title>
<!-- Node1 -->
<g id="Node000001" class="node">
<title>Node1</title>
<g id="a_Node000001"><a xlink:title=" ">
<polygon fill="#999999" stroke="#666666" points="291,-76 213.5,-76 213.5,-56 291,-56 291,-76"/>
<text xml:space="preserve" text-anchor="middle" x="252.25" y="-62.5" font-family="Helvetica,sans-Serif" font-size="10.00">make_move.h</text>
</a>
</g>
</g>
<!-- Node2 -->
<g id="Node000002" class="node">
<title>Node2</title>
<g id="a_Node000002"><a xlink:href="interactive__helpers_8cpp.html" target="_top" xlink:title=" ">
<polygon fill="white" stroke="#666666" points="116.5,-20 0,-20 0,0 116.5,0 116.5,-20"/>
<text xml:space="preserve" text-anchor="middle" x="58.25" y="-6.5" font-family="Helvetica,sans-Serif" font-size="10.00">interactive_helpers.cpp</text>
</a>
</g>
</g>
<!-- Node1&#45;&gt;Node2 -->
<g id="edge1_Node000001_Node000002" class="edge">
<title>Node1&#45;&gt;Node2</title>
<g id="a_edge1_Node000001_Node000002"><a xlink:title=" ">
<path fill="none" stroke="#63b8ff" d="M207.56,-52.56C172.46,-42.79 124.33,-29.39 92.31,-20.48"/>
<polygon fill="#63b8ff" stroke="#63b8ff" points="206.43,-55.88 217,-55.19 208.3,-49.13 206.43,-55.88"/>
</a>
</g>
</g>
<!-- Node3 -->
<g id="Node000003" class="node">
<title>Node3</title>
<g id="a_Node000003"><a xlink:href="main_8cpp.html" target="_top" xlink:title=" ">
<polygon fill="white" stroke="#666666" points="190.12,-20 134.38,-20 134.38,0 190.12,0 190.12,-20"/>
<text xml:space="preserve" text-anchor="middle" x="162.25" y="-6.5" font-family="Helvetica,sans-Serif" font-size="10.00">main.cpp</text>
</a>
</g>
</g>
<!-- Node1&#45;&gt;Node3 -->
<g id="edge2_Node000001_Node000003" class="edge">
<title>Node1&#45;&gt;Node3</title>
<g id="a_edge2_Node000001_Node000003"><a xlink:title=" ">
<path fill="none" stroke="#63b8ff" d="M226.94,-49.81C211.24,-40.39 191.55,-28.58 178.05,-20.48"/>
<polygon fill="#63b8ff" stroke="#63b8ff" points="224.9,-52.67 235.28,-54.82 228.5,-46.67 224.9,-52.67"/>
</a>
</g>
</g>
<!-- Node4 -->
<g id="Node000004" class="node">
<title>Node4</title>
<g id="a_Node000004"><a xlink:href="make__move_8cpp.html" target="_top" xlink:title=" ">
<polygon fill="white" stroke="#666666" points="296.25,-20 208.25,-20 208.25,0 296.25,0 296.25,-20"/>
<text xml:space="preserve" text-anchor="middle" x="252.25" y="-6.5" font-family="Helvetica,sans-Serif" font-size="10.00">make_move.cpp</text>
</a>
</g>
</g>
<!-- Node1&#45;&gt;Node4 -->
<g id="edge3_Node000001_Node000004" class="edge">
<title>Node1&#45;&gt;Node4</title>
<g id="a_edge3_Node000001_Node000004"><a xlink:title=" ">
<path fill="none" stroke="#63b8ff" d="M252.25,-44.13C252.25,-35.9 252.25,-26.85 252.25,-20.3"/>
<polygon fill="#63b8ff" stroke="#63b8ff" points="248.75,-44.08 252.25,-54.08 255.75,-44.08 248.75,-44.08"/>
</a>
</g>
</g>
<!-- Node5 -->
<g id="Node000005" class="node">
<title>Node5</title>
<g id="a_Node000005"><a xlink:href="move__generator_8cpp.html" target="_top" xlink:title=" ">
<polygon fill="white" stroke="#666666" points="418.5,-20 314,-20 314,0 418.5,0 418.5,-20"/>
<text xml:space="preserve" text-anchor="middle" x="366.25" y="-6.5" font-family="Helvetica,sans-Serif" font-size="10.00">move_generator.cpp</text>
</a>
</g>
</g>
<!-- Node1&#45;&gt;Node5 -->
<g id="edge4_Node000001_Node000005" class="edge">
<title>Node1&#45;&gt;Node5</title>
<g id="a_edge4_Node000001_Node000005"><a xlink:title=" ">
<path fill="none" stroke="#63b8ff" d="M282.34,-50.75C302.53,-41.18 328.56,-28.85 346.24,-20.48"/>
<polygon fill="#63b8ff" stroke="#63b8ff" points="281.01,-47.5 273.48,-54.95 284.01,-53.83 281.01,-47.5"/>
</a>
</g>
</g>
<!-- Node6 -->
<g id="Node000006" class="node">
<title>Node6</title>
<g id="a_Node000006"><a xlink:href="perft_8cpp.html" target="_top" xlink:title=" ">
<polygon fill="white" stroke="#666666" points="490.38,-20 436.12,-20 436.12,0 490.38,0 490.38,-20"/>
<text xml:space="preserve" text-anchor="middle" x="463.25" y="-6.5" font-family="Helvetica,sans-Serif" font-size="10.00">perft.cpp</text>
</a>
</g>
</g>
<!-- Node1&#45;&gt;Node6 -->
<g id="edge5_Node000001_Node000006" class="edge">
<title>Node1&#45;&gt;Node6</title>
<g id="a_edge5_Node000001_Node000006"><a xlink:title=" ">
<path fill="none" stroke="#63b8ff" d="M300.04,-52.77C341.89,-42.06 401.25,-26.87 435.65,-18.06"/>
<polygon fill="#63b8ff" stroke="#63b8ff" points="299.29,-49.35 290.47,-55.22 301.03,-56.13 299.29,-49.35"/>
</a>
</g>
</g>
</g>
</svg>
