<?xml version="1.0" encoding="UTF-8" standalone="no"?>
<!DOCTYPE svg PUBLIC "-//W3C//DTD SVG 1.1//EN"
 "http://www.w3.org/Graphics/SVG/1.1/DTD/svg11.dtd">
<!-- Generated by graphviz version 13.1.2 (20250808.2320)
 -->
<!-- Title: MovePiece Pages: 1 -->
<svg width="559pt" height="176pt"
 viewBox="0.00 0.00 559.00 176.00" xmlns="http://www.w3.org/2000/svg" xmlns:xlink="http://www.w3.org/1999/xlink">
<g id="graph0" class="graph" transform="scale(1 1) rotate(0) translate(4 172.09)">
<title>MovePiece</title>
<!-- Node1 -->
<g id="Node000001" class="node">
<title>Node1</title>
<g id="a_Node000001"><a xlink:title=" ">
<polygon fill="#999999" stroke="#666666" points="551.25,-77 486.5,-77 486.5,-57 551.25,-57 551.25,-77"/>
<text xml:space="preserve" text-anchor="middle" x="518.88" y="-63.5" font-family="Helvetica,sans-Serif" font-size="10.00">MovePiece</text>
</a>
</g>
</g>
<!-- Node2 -->
<g id="Node000002" class="node">
<title>Node2</title>
<g id="a_Node000002"><a xlink:href="make__move_8cpp.html#a1b56f6dd56425f5fcc2c84f44025d4f5" target="_top" xlink:title="Make a move; returns non&#45;zero if legal (king not left in check).">
<polygon fill="white" stroke="#666666" points="355.75,-58 291.75,-58 291.75,-38 355.75,-38 355.75,-58"/>
<text xml:space="preserve" text-anchor="middle" x="323.75" y="-44.5" font-family="Helvetica,sans-Serif" font-size="10.00">makeMove</text>
</a>
</g>
</g>
<!-- Node1&#45;&gt;Node2 -->
<g id="edge1_Node000001_Node000002" class="edge">
<title>Node1&#45;&gt;Node2</title>
<g id="a_edge1_Node000001_Node000002"><a xlink:title=" ">
<path fill="none" stroke="#63b8ff" d="M475.29,-62.81C439.31,-59.27 388.6,-54.28 356.2,-51.09"/>
<polygon fill="#63b8ff" stroke="#63b8ff" points="474.62,-66.26 484.91,-63.76 475.3,-59.29 474.62,-66.26"/>
</a>
</g>
</g>
<!-- Node8 -->
<g id="Node000008" class="node">
<title>Node8</title>
<g id="a_Node000008"><a xlink:href="make__move_8cpp.html#aa9576282fc64517514da4a21518ae4d7" target="_top" xlink:title="Undo the last made move.">
<polygon fill="white" stroke="#666666" points="450.5,-96 391.75,-96 391.75,-76 450.5,-76 450.5,-96"/>
<text xml:space="preserve" text-anchor="middle" x="421.12" y="-82.5" font-family="Helvetica,sans-Serif" font-size="10.00">takeMove</text>
</a>
</g>
</g>
<!-- Node1&#45;&gt;Node8 -->
<g id="edge9_Node000001_Node000008" class="edge">
<title>Node1&#45;&gt;Node8</title>
<g id="a_edge9_Node000001_Node000008"><a xlink:title=" ">
<path fill="none" stroke="#63b8ff" d="M475.22,-75.47C466.95,-77.1 458.48,-78.79 450.8,-80.31"/>
<polygon fill="#63b8ff" stroke="#63b8ff" points="475.65,-78.95 484.77,-73.57 474.28,-72.08 475.65,-78.95"/>
</a>
</g>
</g>
<!-- Node3 -->
<g id="Node000003" class="node">
<title>Node3</title>
<g id="a_Node000003"><a xlink:href="interactive__helpers_8cpp.html#a37716374c6b9557c96dfddf75ab56e72" target="_top" xlink:title="Build list of legal moves that originate from from.">
<polygon fill="white" stroke="#666666" points="255.75,-96 164.75,-96 164.75,-76 255.75,-76 255.75,-96"/>
<text xml:space="preserve" text-anchor="middle" x="210.25" y="-82.5" font-family="Helvetica,sans-Serif" font-size="10.00">LegalMovesFrom</text>
</a>
</g>
</g>
<!-- Node2&#45;&gt;Node3 -->
<g id="edge2_Node000002_Node000003" class="edge">
<title>Node2&#45;&gt;Node3</title>
<g id="a_edge2_Node000002_Node000003"><a xlink:title=" ">
<path fill="none" stroke="#63b8ff" d="M281.35,-62.11C268.28,-66.56 254.09,-71.4 241.91,-75.55"/>
<polygon fill="#63b8ff" stroke="#63b8ff" points="282.22,-65.51 290.55,-58.97 279.96,-58.89 282.22,-65.51"/>
</a>
</g>
</g>
<!-- Node4 -->
<g id="Node000004" class="node">
<title>Node4</title>
<g id="a_Node000004"><a xlink:href="move__generator_8cpp.html#a4edc18741a17d00498b72b349879e30d" target="_top" xlink:title="Check if a given move exists in the current position.">
<polygon fill="white" stroke="#666666" points="244.12,-20 176.38,-20 176.38,0 244.12,0 244.12,-20"/>
<text xml:space="preserve" text-anchor="middle" x="210.25" y="-6.5" font-family="Helvetica,sans-Serif" font-size="10.00">moveExists</text>
</a>
</g>
</g>
<!-- Node2&#45;&gt;Node4 -->
<g id="edge3_Node000002_Node000004" class="edge">
<title>Node2&#45;&gt;Node4</title>
<g id="a_edge3_Node000002_Node000004"><a xlink:title=" ">
<path fill="none" stroke="#63b8ff" d="M281.35,-33.89C268.28,-29.44 254.09,-24.6 241.91,-20.45"/>
<polygon fill="#63b8ff" stroke="#63b8ff" points="279.96,-37.11 290.55,-37.03 282.22,-30.49 279.96,-37.11"/>
</a>
</g>
</g>
<!-- Node5 -->
<g id="Node000005" class="node">
<title>Node5</title>
<g id="a_Node000005"><a xlink:href="perft_8cpp.html#a84c7e465b44101a59f96b9c21ed0224b" target="_top" xlink:title="Runs a perft search from a given board state.">
<polygon fill="white" stroke="#666666" points="228.75,-134 191.75,-134 191.75,-114 228.75,-114 228.75,-134"/>
<text xml:space="preserve" text-anchor="middle" x="210.25" y="-120.5" font-family="Helvetica,sans-Serif" font-size="10.00">Perft</text>
</a>
</g>
</g>
<!-- Node2&#45;&gt;Node5 -->
<g id="edge4_Node000002_Node000005" class="edge">
<title>Node2&#45;&gt;Node5</title>
<g id="a_edge4_Node000002_Node000005"><a xlink:title=" ">
<path fill="none" stroke="#63b8ff" d="M304.62,-66.06C291.77,-78.18 273.69,-93.9 255.75,-105 247.46,-110.13 237.55,-114.51 229.19,-117.77"/>
<polygon fill="#63b8ff" stroke="#63b8ff" points="306.76,-68.86 311.53,-59.4 301.9,-63.83 306.76,-68.86"/>
</a>
</g>
</g>
<!-- Node6 -->
<g id="Node000006" class="node">
<title>Node6</title>
<g id="a_Node000006"><a xlink:href="perft_8cpp.html#a1b6b13d186dab20a18cec1a6b041220b" target="_top" xlink:title="Executes a perft test and prints move breakdown and timing.">
<polygon fill="white" stroke="#666666" points="128.75,-134 73,-134 73,-114 128.75,-114 128.75,-134"/>
<text xml:space="preserve" text-anchor="middle" x="100.88" y="-120.5" font-family="Helvetica,sans-Serif" font-size="10.00">PerftTest</text>
</a>
</g>
</g>
<!-- Node2&#45;&gt;Node6 -->
<g id="edge8_Node000002_Node000006" class="edge">
<title>Node2&#45;&gt;Node6</title>
<g id="a_edge8_Node000002_Node000006"><a xlink:title=" ">
<path fill="none" stroke="#63b8ff" d="M279.77,-46.24C246.87,-46.5 201.13,-50.4 164.75,-67 141.16,-77.76 120.29,-100.67 109.55,-113.93"/>
<polygon fill="#63b8ff" stroke="#63b8ff" points="279.73,-49.74 289.75,-46.29 279.76,-42.74 279.73,-49.74"/>
</a>
</g>
</g>
<!-- Node5&#45;&gt;Node5 -->
<g id="edge5_Node000005_Node000005" class="edge">
<title>Node5&#45;&gt;Node5</title>
<g id="a_edge5_Node000005_Node000005"><a xlink:title=" ">
<path fill="none" stroke="#63b8ff" d="M229.58,-145.44C227.09,-149.3 220.65,-152 210.25,-152 191.24,-152 185.44,-142.98 192.87,-134.34"/>
<polygon fill="#63b8ff" stroke="#63b8ff" points="233.07,-145.07 227.89,-135.83 226.18,-146.28 233.07,-145.07"/>
</a>
</g>
</g>
<!-- Node5&#45;&gt;Node6 -->
<g id="edge6_Node000005_Node000006" class="edge">
<title>Node5&#45;&gt;Node6</title>
<g id="a_edge6_Node000005_Node000006"><a xlink:title=" ">
<path fill="none" stroke="#63b8ff" d="M180.16,-124C164.19,-124 144.52,-124 128.9,-124"/>
<polygon fill="#63b8ff" stroke="#63b8ff" points="180.01,-127.5 190.01,-124 180.01,-120.5 180.01,-127.5"/>
</a>
</g>
</g>
<!-- Node7 -->
<g id="Node000007" class="node">
<title>Node7</title>
<g id="a_Node000007"><a xlink:href="main_8cpp.html#ae66f6b31b5ad750f1fe042a706a4e3d4" target="_top" xlink:title=" ">
<polygon fill="white" stroke="#666666" points="37,-134 0,-134 0,-114 37,-114 37,-134"/>
<text xml:space="preserve" text-anchor="middle" x="18.5" y="-120.5" font-family="Helvetica,sans-Serif" font-size="10.00">main</text>
</a>
</g>
</g>
<!-- Node6&#45;&gt;Node7 -->
<g id="edge7_Node000006_Node000007" class="edge">
<title>Node6&#45;&gt;Node7</title>
<g id="a_edge7_Node000006_Node000007"><a xlink:title=" ">
<path fill="none" stroke="#63b8ff" d="M61.39,-124C52.98,-124 44.47,-124 37.34,-124"/>
<polygon fill="#63b8ff" stroke="#63b8ff" points="61.15,-127.5 71.15,-124 61.15,-120.5 61.15,-127.5"/>
</a>
</g>
</g>
<!-- Node8&#45;&gt;Node2 -->
<g id="edge11_Node000008_Node000002" class="edge">
<title>Node8&#45;&gt;Node2</title>
<g id="a_edge11_Node000008_Node000002"><a xlink:title=" ">
<path fill="none" stroke="#63b8ff" d="M383.36,-71.35C372.57,-67.05 360.98,-62.43 350.98,-58.45"/>
<polygon fill="#63b8ff" stroke="#63b8ff" points="381.82,-74.51 392.4,-74.96 384.41,-68 381.82,-74.51"/>
</a>
</g>
</g>
<!-- Node8&#45;&gt;Node3 -->
<g id="edge10_Node000008_Node000003" class="edge">
<title>Node8&#45;&gt;Node3</title>
<g id="a_edge10_Node000008_Node000003"><a xlink:title=" ">
<path fill="none" stroke="#63b8ff" d="M380.15,-86C344.64,-86 292.8,-86 255.93,-86"/>
<polygon fill="#63b8ff" stroke="#63b8ff" points="380.01,-89.5 390.01,-86 380.01,-82.5 380.01,-89.5"/>
</a>
</g>
</g>
<!-- Node8&#45;&gt;Node4 -->
<g id="edge12_Node000008_Node000004" class="edge">
<title>Node8&#45;&gt;Node4</title>
<g id="a_edge12_Node000008_Node000004"><a xlink:title=" ">
<path fill="none" stroke="#63b8ff" d="M404.51,-67.22C392.58,-54.22 374.95,-37.75 355.75,-29 320.18,-12.78 274.91,-9.22 244.61,-8.94"/>
<polygon fill="#63b8ff" stroke="#63b8ff" points="401.58,-69.18 410.82,-74.38 406.84,-64.56 401.58,-69.18"/>
</a>
</g>
</g>
<!-- Node8&#45;&gt;Node5 -->
<g id="edge13_Node000008_Node000005" class="edge">
<title>Node8&#45;&gt;Node5</title>
<g id="a_edge13_Node000008_Node000005"><a xlink:title=" ">
<path fill="none" stroke="#63b8ff" d="M380.25,-94.99C372.15,-96.73 363.69,-98.48 355.75,-100 310.29,-108.71 256.44,-117.17 229.1,-121.33"/>
<polygon fill="#63b8ff" stroke="#63b8ff" points="380.84,-98.45 389.87,-92.9 379.35,-91.61 380.84,-98.45"/>
</a>
</g>
</g>
<!-- Node8&#45;&gt;Node6 -->
<g id="edge14_Node000008_Node000006" class="edge">
<title>Node8&#45;&gt;Node6</title>
<g id="a_edge14_Node000008_Node000006"><a xlink:title=" ">
<path fill="none" stroke="#63b8ff" d="M394.54,-102.28C363.26,-121.07 308.01,-150.7 255.75,-161 216.07,-168.82 203.77,-171.63 164.75,-161 145.93,-155.87 127,-143.53 114.9,-134.5"/>
<polygon fill="#63b8ff" stroke="#63b8ff" points="396.2,-105.37 402.9,-97.16 392.55,-99.4 396.2,-105.37"/>
</a>
</g>
</g>
</g>
</svg>
