<?xml version="1.0" encoding="UTF-8" standalone="no"?>
<!DOCTYPE svg PUBLIC "-//W3C//DTD SVG 1.1//EN"
 "http://www.w3.org/Graphics/SVG/1.1/DTD/svg11.dtd">
<!-- Generated by graphviz version 13.1.2 (20250808.2320)
 -->
<!-- Title: misc.cpp Pages: 1 -->
<svg width="586pt" height="252pt"
 viewBox="0.00 0.00 586.00 252.00" xmlns="http://www.w3.org/2000/svg" xmlns:xlink="http://www.w3.org/1999/xlink">
<g id="graph0" class="graph" transform="scale(1 1) rotate(0) translate(4 248)">
<title>misc.cpp</title>
<!-- Node1 -->
<g id="Node000001" class="node">
<title>Node1</title>
<g id="a_Node000001"><a xlink:title=" ">
<polygon fill="#999999" stroke="#666666" points="347.62,-244 291.88,-244 291.88,-224 347.62,-224 347.62,-244"/>
<text xml:space="preserve" text-anchor="middle" x="319.75" y="-230.5" font-family="Helvetica,sans-Serif" font-size="10.00">misc.cpp</text>
</a>
</g>
</g>
<!-- Node2 -->
<g id="Node000002" class="node">
<title>Node2</title>
<g id="a_Node000002"><a xlink:href="misc_8h.html" target="_top" xlink:title=" ">
<polygon fill="white" stroke="#666666" points="155.38,-188 110.12,-188 110.12,-168 155.38,-168 155.38,-188"/>
<text xml:space="preserve" text-anchor="middle" x="132.75" y="-174.5" font-family="Helvetica,sans-Serif" font-size="10.00">misc.h</text>
</a>
</g>
</g>
<!-- Node1&#45;&gt;Node2 -->
<g id="edge1_Node000001_Node000002" class="edge">
<title>Node1&#45;&gt;Node2</title>
<g id="a_edge1_Node000001_Node000002"><a xlink:title=" ">
<path fill="none" stroke="#63b8ff" d="M291.56,-224.89C262.45,-216.5 215.42,-202.95 166.55,-188.81"/>
<polygon fill="#63b8ff" stroke="#63b8ff" points="167.8,-185.53 157.23,-186.11 165.86,-192.25 167.8,-185.53"/>
</a>
</g>
</g>
<!-- Node8 -->
<g id="Node000008" class="node">
<title>Node8</title>
<g id="a_Node000008"><a xlink:title=" ">
<polygon fill="#e0e0e0" stroke="#999999" points="218.38,-188 173.12,-188 173.12,-168 218.38,-168 218.38,-188"/>
<text xml:space="preserve" text-anchor="middle" x="195.75" y="-174.5" font-family="Helvetica,sans-Serif" font-size="10.00">chrono</text>
</a>
</g>
</g>
<!-- Node1&#45;&gt;Node8 -->
<g id="edge8_Node000001_Node000008" class="edge">
<title>Node1&#45;&gt;Node8</title>
<g id="a_edge8_Node000001_Node000008"><a xlink:title=" ">
<path fill="none" stroke="#63b8ff" d="M298.15,-223.59C278.8,-215.17 250.15,-202.69 228.07,-193.07"/>
<polygon fill="#63b8ff" stroke="#63b8ff" points="229.47,-189.87 218.91,-189.08 226.68,-196.29 229.47,-189.87"/>
</a>
</g>
</g>
<!-- Node9 -->
<g id="Node000009" class="node">
<title>Node9</title>
<g id="a_Node000009"><a xlink:title=" ">
<polygon fill="#e0e0e0" stroke="#999999" points="278.88,-188 236.62,-188 236.62,-168 278.88,-168 278.88,-188"/>
<text xml:space="preserve" text-anchor="middle" x="257.75" y="-174.5" font-family="Helvetica,sans-Serif" font-size="10.00">cstdio</text>
</a>
</g>
</g>
<!-- Node1&#45;&gt;Node9 -->
<g id="edge9_Node000001_Node000009" class="edge">
<title>Node1&#45;&gt;Node9</title>
<g id="a_edge9_Node000001_Node000009"><a xlink:title=" ">
<path fill="none" stroke="#63b8ff" d="M308.95,-223.59C300.15,-215.93 287.5,-204.91 276.98,-195.75"/>
<polygon fill="#63b8ff" stroke="#63b8ff" points="279.41,-193.22 269.57,-189.29 274.81,-198.5 279.41,-193.22"/>
</a>
</g>
</g>
<!-- Node10 -->
<g id="Node000010" class="node">
<title>Node10</title>
<g id="a_Node000010"><a xlink:title=" ">
<polygon fill="#e0e0e0" stroke="#999999" points="342.38,-188 297.12,-188 297.12,-168 342.38,-168 342.38,-188"/>
<text xml:space="preserve" text-anchor="middle" x="319.75" y="-174.5" font-family="Helvetica,sans-Serif" font-size="10.00">cstring</text>
</a>
</g>
</g>
<!-- Node1&#45;&gt;Node10 -->
<g id="edge10_Node000001_Node000010" class="edge">
<title>Node1&#45;&gt;Node10</title>
<g id="a_edge10_Node000001_Node000010"><a xlink:title=" ">
<path fill="none" stroke="#63b8ff" d="M319.75,-223.59C319.75,-217.01 319.75,-207.96 319.75,-199.73"/>
<polygon fill="#63b8ff" stroke="#63b8ff" points="323.25,-199.81 319.75,-189.81 316.25,-199.81 323.25,-199.81"/>
</a>
</g>
</g>
<!-- Node11 -->
<g id="Node000011" class="node">
<title>Node11</title>
<g id="a_Node000011"><a xlink:title=" ">
<polygon fill="#e0e0e0" stroke="#999999" points="429.38,-188 360.12,-188 360.12,-168 429.38,-168 429.38,-188"/>
<text xml:space="preserve" text-anchor="middle" x="394.75" y="-174.5" font-family="Helvetica,sans-Serif" font-size="10.00">sys/select.h</text>
</a>
</g>
</g>
<!-- Node1&#45;&gt;Node11 -->
<g id="edge11_Node000001_Node000011" class="edge">
<title>Node1&#45;&gt;Node11</title>
<g id="a_edge11_Node000001_Node000011"><a xlink:title=" ">
<path fill="none" stroke="#63b8ff" d="M332.81,-223.59C343.72,-215.74 359.5,-204.38 372.41,-195.09"/>
<polygon fill="#63b8ff" stroke="#63b8ff" points="374.29,-198.05 380.36,-189.36 370.2,-192.37 374.29,-198.05"/>
</a>
</g>
</g>
<!-- Node12 -->
<g id="Node000012" class="node">
<title>Node12</title>
<g id="a_Node000012"><a xlink:title=" ">
<polygon fill="#e0e0e0" stroke="#999999" points="509.62,-188 447.88,-188 447.88,-168 509.62,-168 509.62,-188"/>
<text xml:space="preserve" text-anchor="middle" x="478.75" y="-174.5" font-family="Helvetica,sans-Serif" font-size="10.00">sys/time.h</text>
</a>
</g>
</g>
<!-- Node1&#45;&gt;Node12 -->
<g id="edge12_Node000001_Node000012" class="edge">
<title>Node1&#45;&gt;Node12</title>
<g id="a_edge12_Node000001_Node000012"><a xlink:title=" ">
<path fill="none" stroke="#63b8ff" d="M347.45,-223.59C373.05,-214.9 411.36,-201.89 440,-192.16"/>
<polygon fill="#63b8ff" stroke="#63b8ff" points="441.06,-195.5 449.41,-188.97 438.81,-188.87 441.06,-195.5"/>
</a>
</g>
</g>
<!-- Node13 -->
<g id="Node000013" class="node">
<title>Node13</title>
<g id="a_Node000013"><a xlink:title=" ">
<polygon fill="#e0e0e0" stroke="#999999" points="578,-188 527.5,-188 527.5,-168 578,-168 578,-188"/>
<text xml:space="preserve" text-anchor="middle" x="552.75" y="-174.5" font-family="Helvetica,sans-Serif" font-size="10.00">unistd.h</text>
</a>
</g>
</g>
<!-- Node1&#45;&gt;Node13 -->
<g id="edge13_Node000001_Node000013" class="edge">
<title>Node1&#45;&gt;Node13</title>
<g id="a_edge13_Node000001_Node000013"><a xlink:title=" ">
<path fill="none" stroke="#63b8ff" d="M347.84,-226.99C384.41,-219.08 450.57,-204.54 516.2,-188.56"/>
<polygon fill="#63b8ff" stroke="#63b8ff" points="516.8,-192.02 525.69,-186.24 515.14,-185.22 516.8,-192.02"/>
</a>
</g>
</g>
<!-- Node3 -->
<g id="Node000003" class="node">
<title>Node3</title>
<g id="a_Node000003"><a xlink:href="defs_8h.html" target="_top" xlink:title=" ">
<polygon fill="white" stroke="#666666" points="158.75,-132 106.75,-132 106.75,-112 158.75,-112 158.75,-132"/>
<text xml:space="preserve" text-anchor="middle" x="132.75" y="-118.5" font-family="Helvetica,sans-Serif" font-size="10.00">../defs.h</text>
</a>
</g>
</g>
<!-- Node2&#45;&gt;Node3 -->
<g id="edge2_Node000002_Node000003" class="edge">
<title>Node2&#45;&gt;Node3</title>
<g id="a_edge2_Node000002_Node000003"><a xlink:title=" ">
<path fill="none" stroke="#63b8ff" d="M132.75,-167.59C132.75,-161.01 132.75,-151.96 132.75,-143.73"/>
<polygon fill="#63b8ff" stroke="#63b8ff" points="136.25,-143.81 132.75,-133.81 129.25,-143.81 136.25,-143.81"/>
</a>
</g>
</g>
<!-- Node4 -->
<g id="Node000004" class="node">
<title>Node4</title>
<g id="a_Node000004"><a xlink:title=" ">
<polygon fill="#e0e0e0" stroke="#999999" points="47.5,-76 0,-76 0,-56 47.5,-56 47.5,-76"/>
<text xml:space="preserve" text-anchor="middle" x="23.75" y="-62.5" font-family="Helvetica,sans-Serif" font-size="10.00">stdlib.h</text>
</a>
</g>
</g>
<!-- Node3&#45;&gt;Node4 -->
<g id="edge3_Node000003_Node000004" class="edge">
<title>Node3&#45;&gt;Node4</title>
<g id="a_edge3_Node000003_Node000004"><a xlink:title=" ">
<path fill="none" stroke="#63b8ff" d="M113.76,-111.59C96.99,-103.28 72.26,-91.03 52.96,-81.47"/>
<polygon fill="#63b8ff" stroke="#63b8ff" points="54.76,-78.45 44.24,-77.15 51.65,-84.73 54.76,-78.45"/>
</a>
</g>
</g>
<!-- Node5 -->
<g id="Node000005" class="node">
<title>Node5</title>
<g id="a_Node000005"><a xlink:title=" ">
<polygon fill="#e0e0e0" stroke="#999999" points="110.38,-76 65.12,-76 65.12,-56 110.38,-56 110.38,-76"/>
<text xml:space="preserve" text-anchor="middle" x="87.75" y="-62.5" font-family="Helvetica,sans-Serif" font-size="10.00">stdio.h</text>
</a>
</g>
</g>
<!-- Node3&#45;&gt;Node5 -->
<g id="edge4_Node000003_Node000005" class="edge">
<title>Node3&#45;&gt;Node5</title>
<g id="a_edge4_Node000003_Node000005"><a xlink:title=" ">
<path fill="none" stroke="#63b8ff" d="M124.91,-111.59C118.78,-104.24 110.08,-93.8 102.64,-84.87"/>
<polygon fill="#63b8ff" stroke="#63b8ff" points="105.56,-82.9 96.47,-77.46 100.18,-87.38 105.56,-82.9"/>
</a>
</g>
</g>
<!-- Node6 -->
<g id="Node000006" class="node">
<title>Node6</title>
<g id="a_Node000006"><a xlink:href="board__data_8h.html" target="_top" xlink:title=" ">
<polygon fill="white" stroke="#666666" points="227.38,-76 128.12,-76 128.12,-56 227.38,-56 227.38,-76"/>
<text xml:space="preserve" text-anchor="middle" x="177.75" y="-62.5" font-family="Helvetica,sans-Serif" font-size="10.00">board/board_data.h</text>
</a>
</g>
</g>
<!-- Node3&#45;&gt;Node6 -->
<g id="edge5_Node000003_Node000006" class="edge">
<title>Node3&#45;&gt;Node6</title>
<g id="a_edge5_Node000003_Node000006"><a xlink:title=" ">
<path fill="none" stroke="#63b8ff" d="M135.32,-111.59C140.08,-104.08 148.66,-93.35 156.98,-84.3"/>
<polygon fill="#63b8ff" stroke="#63b8ff" points="159.25,-87 163.7,-77.38 154.22,-82.12 159.25,-87"/>
</a>
</g>
</g>
<!-- Node6&#45;&gt;Node3 -->
<g id="edge7_Node000006_Node000003" class="edge">
<title>Node6&#45;&gt;Node3</title>
<g id="a_edge7_Node000006_Node000003"><a xlink:title=" ">
<path fill="none" stroke="#63b8ff" d="M175.25,-76.3C170.53,-83.78 161.97,-94.5 153.64,-103.57"/>
<polygon fill="#63b8ff" stroke="#63b8ff" points="151.36,-100.89 146.91,-110.51 156.38,-105.76 151.36,-100.89"/>
</a>
</g>
</g>
<!-- Node7 -->
<g id="Node000007" class="node">
<title>Node7</title>
<g id="a_Node000007"><a xlink:title=" ">
<polygon fill="#e0e0e0" stroke="#999999" points="196.62,-20 158.88,-20 158.88,0 196.62,0 196.62,-20"/>
<text xml:space="preserve" text-anchor="middle" x="177.75" y="-6.5" font-family="Helvetica,sans-Serif" font-size="10.00">array</text>
</a>
</g>
</g>
<!-- Node6&#45;&gt;Node7 -->
<g id="edge6_Node000006_Node000007" class="edge">
<title>Node6&#45;&gt;Node7</title>
<g id="a_edge6_Node000006_Node000007"><a xlink:title=" ">
<path fill="none" stroke="#63b8ff" d="M177.75,-55.59C177.75,-49.01 177.75,-39.96 177.75,-31.73"/>
<polygon fill="#63b8ff" stroke="#63b8ff" points="181.25,-31.81 177.75,-21.81 174.25,-31.81 181.25,-31.81"/>
</a>
</g>
</g>
</g>
</svg>
