<?xml version="1.0" encoding="UTF-8" standalone="no"?>
<!DOCTYPE svg PUBLIC "-//W3C//DTD SVG 1.1//EN"
 "http://www.w3.org/Graphics/SVG/1.1/DTD/svg11.dtd">
<!-- Generated by graphviz version 13.1.2 (20250808.2320)
 -->
<!-- Title: moveExists Pages: 1 -->
<!--zoomable 1007 -->

<svg id="main" version="1.1" xmlns="http://www.w3.org/2000/svg" xmlns:xlink="http://www.w3.org/1999/xlink" xml:space="preserve" onload="init(evt)">

<style type="text/css"><![CDATA[
.node, .edge {opacity: 0.7;}
.node.selected, .edge.selected {opacity: 1;}
.edge:hover path { stroke: red; }
.edge:hover polygon { stroke: red; fill: red; }
]]></style>

<defs>
  <circle id="rim" cx="0" cy="0" r="7"/>
  <circle id="rim2" cx="0" cy="0" r="3.5"/>
  <g id="zoomPlus">
    <use xlink:href="#rim" fill="#404040"><set attributeName="fill" to="#808080" begin="zoomplus.mouseover" end="zoomplus.mouseout"/></use>
    <path d="M-4,0h8M0,-4v8" fill="none" stroke="white" stroke-width="1.5" pointer-events="none"/>
  </g>
  <g id="zoomMin">
    <use xlink:href="#rim" fill="#404040"><set attributeName="fill" to="#808080" begin="zoomminus.mouseover" end="zoomminus.mouseout"/></use>
    <path d="M-4,0h8" fill="none" stroke="white" stroke-width="1.5" pointer-events="none"/>
  </g>
  <g id="arrowUp" transform="translate(30 24)">
    <use xlink:href="#rim"/>
    <path pointer-events="none" fill="none" stroke="white" stroke-width="1.5" d="M0,-3.0v7 M-2.5,-0.5L0,-3.0L2.5,-0.5"/>
  </g>
  <g id="arrowRight" transform="rotate(90) translate(36 -43)">
    <use xlink:href="#rim"/>
    <path pointer-events="none" fill="none" stroke="white" stroke-width="1.5" d="M0,-3.0v7 M-2.5,-0.5L0,-3.0L2.5,-0.5"/>
  </g>
  <g id="arrowDown" transform="rotate(180) translate(-30 -48)">
    <use xlink:href="#rim"/>
    <path pointer-events="none" fill="none" stroke="white" stroke-width="1.5" d="M0,-3.0v7 M-2.5,-0.5L0,-3.0L2.5,-0.5"/>
  </g>
  <g id="arrowLeft" transform="rotate(270) translate(-36 17)">
    <use xlink:href="#rim"/>
    <path pointer-events="none" fill="none" stroke="white" stroke-width="1.5" d="M0,-3.0v7 M-2.5,-0.5L0,-3.0L2.5,-0.5"/>
  </g>
  <g id="resetDef">
    <use xlink:href="#rim2" fill="#404040"><set attributeName="fill" to="#808080" begin="reset.mouseover" end="reset.mouseout"/></use>
  </g>
</defs>
<script type="application/ecmascript">
var viewWidth = 903;
var viewHeight = 1007;
var sectionId = 'dynsection-19';
</script>
<script type="application/ecmascript" xlink:href="svg.min.js"/>
<svg id="graph" class="graph">
<g id="viewport">
<title>moveExists</title>
<!-- Node1 -->
<g id="Node000001" class="node">
<title>Node1</title>
<g id="a_Node000001"><a xlink:title="Check if a given move exists in the current position.">
<polygon fill="#999999" stroke="#666666" points="67.75,-210.67 0,-210.67 0,-190.67 67.75,-190.67 67.75,-210.67"/>
<text xml:space="preserve" text-anchor="middle" x="33.88" y="-197.17" font-family="Helvetica,sans-Serif" font-size="10.00">moveExists</text>
</a>
</g>
</g>
<!-- Node2 -->
<g id="Node000002" class="node">
<title>Node2</title>
<g id="a_Node000002"><a xlink:href="move__generator_8cpp.html#a4d7178784dec62b5c55f61f52c432fdf" target="_top" xlink:title="Generate all pseudo&#45;legal moves for the side to move.">
<polygon fill="white" stroke="#666666" points="197.75,-628.67 103.75,-628.67 103.75,-608.67 197.75,-608.67 197.75,-628.67"/>
<text xml:space="preserve" text-anchor="middle" x="150.75" y="-615.17" font-family="Helvetica,sans-Serif" font-size="10.00">generateAllMoves</text>
</a>
</g>
</g>
<!-- Node1&#45;&gt;Node2 -->
<g id="edge1_Node000001_Node000002" class="edge">
<title>Node1&#45;&gt;Node2</title>
<g id="a_edge1_Node000001_Node000002"><a xlink:title=" ">
<path fill="none" stroke="#63b8ff" d="M37.71,-211C52.74,-265.66 123.04,-521.48 143.9,-597.38"/>
<polygon fill="#63b8ff" stroke="#63b8ff" points="140.48,-598.15 146.51,-606.86 147.23,-596.29 140.48,-598.15"/>
</a>
</g>
</g>
<!-- Node21 -->
<g id="Node000021" class="node">
<title>Node21</title>
<g id="a_Node000021"><a xlink:href="make__move_8cpp.html#a1b56f6dd56425f5fcc2c84f44025d4f5" target="_top" xlink:title="Make a move; returns non&#45;zero if legal (king not left in check).">
<polygon fill="white" stroke="#666666" points="182.75,-210.67 118.75,-210.67 118.75,-190.67 182.75,-190.67 182.75,-210.67"/>
<text xml:space="preserve" text-anchor="middle" x="150.75" y="-197.17" font-family="Helvetica,sans-Serif" font-size="10.00">makeMove</text>
</a>
</g>
</g>
<!-- Node1&#45;&gt;Node21 -->
<g id="edge46_Node000001_Node000021" class="edge">
<title>Node1&#45;&gt;Node21</title>
<g id="a_edge46_Node000001_Node000021"><a xlink:title=" ">
<path fill="none" stroke="#63b8ff" d="M68.1,-200.67C80.28,-200.67 94.23,-200.67 107.12,-200.67"/>
<polygon fill="#63b8ff" stroke="#63b8ff" points="107.05,-204.17 117.05,-200.67 107.05,-197.17 107.05,-204.17"/>
</a>
</g>
</g>
<!-- Node25 -->
<g id="Node000025" class="node">
<title>Node25</title>
<g id="a_Node000025"><a xlink:href="make__move_8cpp.html#aa9576282fc64517514da4a21518ae4d7" target="_top" xlink:title="Undo the last made move.">
<polygon fill="white" stroke="#666666" points="325.88,-134.67 267.12,-134.67 267.12,-114.67 325.88,-114.67 325.88,-134.67"/>
<text xml:space="preserve" text-anchor="middle" x="296.5" y="-121.17" font-family="Helvetica,sans-Serif" font-size="10.00">takeMove</text>
</a>
</g>
</g>
<!-- Node1&#45;&gt;Node25 -->
<g id="edge72_Node000001_Node000025" class="edge">
<title>Node1&#45;&gt;Node25</title>
<g id="a_edge72_Node000001_Node000025"><a xlink:title=" ">
<path fill="none" stroke="#63b8ff" d="M68.15,-190.97C116.12,-176.98 204.56,-151.19 255.85,-136.23"/>
<polygon fill="#63b8ff" stroke="#63b8ff" points="256.75,-139.61 265.37,-133.46 254.79,-132.89 256.75,-139.61"/>
</a>
</g>
</g>
<!-- Node3 -->
<g id="Node000003" class="node">
<title>Node3</title>
<g id="a_Node000003"><a xlink:href="move__generator_8cpp.html#a21d952c048f6586610eafeefcd4a0341" target="_top" xlink:title=" ">
<polygon fill="white" stroke="#666666" points="358.88,-628.67 234.12,-628.67 234.12,-608.67 358.88,-608.67 358.88,-628.67"/>
<text xml:space="preserve" text-anchor="middle" x="296.5" y="-615.17" font-family="Helvetica,sans-Serif" font-size="10.00">AddBlackPawnCapMove</text>
</a>
</g>
</g>
<!-- Node2&#45;&gt;Node3 -->
<g id="edge2_Node000002_Node000003" class="edge">
<title>Node2&#45;&gt;Node3</title>
<g id="a_edge2_Node000002_Node000003"><a xlink:title=" ">
<path fill="none" stroke="#63b8ff" d="M198.02,-618.67C205.87,-618.67 214.18,-618.67 222.51,-618.67"/>
<polygon fill="#63b8ff" stroke="#63b8ff" points="222.33,-622.17 232.33,-618.67 222.33,-615.17 222.33,-622.17"/>
</a>
</g>
</g>
<!-- Node4 -->
<g id="Node000004" class="node">
<title>Node4</title>
<g id="a_Node000004"><a xlink:href="move__generator_8cpp.html#ad22de88ed58f37e575d4d3bbb7925329" target="_top" xlink:title=" ">
<polygon fill="white" stroke="#666666" points="493.75,-476.67 402,-476.67 402,-456.67 493.75,-456.67 493.75,-476.67"/>
<text xml:space="preserve" text-anchor="middle" x="447.88" y="-463.17" font-family="Helvetica,sans-Serif" font-size="10.00">AddCaptureMove</text>
</a>
</g>
</g>
<!-- Node2&#45;&gt;Node4 -->
<g id="edge20_Node000002_Node000004" class="edge">
<title>Node2&#45;&gt;Node4</title>
<g id="a_edge20_Node000002_Node000004"><a xlink:title=" ">
<path fill="none" stroke="#63b8ff" d="M157.73,-608.3C169.61,-588.66 198.12,-546.01 233.75,-523.67 259.73,-507.38 336.58,-489.17 390.51,-477.81"/>
<polygon fill="#63b8ff" stroke="#63b8ff" points="391.08,-481.27 400.16,-475.81 389.65,-474.42 391.08,-481.27"/>
</a>
</g>
</g>
<!-- Node5 -->
<g id="Node000005" class="node">
<title>Node5</title>
<g id="a_Node000005"><a xlink:href="board_8cpp.html#a27f071824f45c724e8ddd02c72b39871" target="_top" xlink:title="Performs a full internal consistency check of the board state.">
<polygon fill="white" stroke="#666666" points="637.62,-571.67 544.38,-571.67 544.38,-551.67 637.62,-551.67 637.62,-571.67"/>
<text xml:space="preserve" text-anchor="middle" x="591" y="-558.17" font-family="Helvetica,sans-Serif" font-size="10.00">isBoardStateValid</text>
</a>
</g>
</g>
<!-- Node2&#45;&gt;Node5 -->
<g id="edge34_Node000002_Node000005" class="edge">
<title>Node2&#45;&gt;Node5</title>
<g id="a_edge34_Node000002_Node000005"><a xlink:title=" ">
<path fill="none" stroke="#63b8ff" d="M192.43,-608.21C205.55,-605.12 220.2,-601.95 233.75,-599.67 338.48,-582.02 461.98,-571.01 532.63,-565.63"/>
<polygon fill="#63b8ff" stroke="#63b8ff" points="532.7,-569.14 542.41,-564.9 532.18,-562.16 532.7,-569.14"/>
</a>
</g>
</g>
<!-- Node7 -->
<g id="Node000007" class="node">
<title>Node7</title>
<g id="a_Node000007"><a xlink:href="validate_8cpp.html#ad5a569564ef016ed02a4fef23d89d9c4" target="_top" xlink:title="Checks if a given square index refers to a valid on&#45;board square.">
<polygon fill="white" stroke="#666666" points="895,-552.67 828.75,-552.67 828.75,-532.67 895,-532.67 895,-552.67"/>
<text xml:space="preserve" text-anchor="middle" x="861.88" y="-539.17" font-family="Helvetica,sans-Serif" font-size="10.00">SqOnBoard</text>
</a>
</g>
</g>
<!-- Node2&#45;&gt;Node7 -->
<g id="edge45_Node000002_Node000007" class="edge">
<title>Node2&#45;&gt;Node7</title>
<g id="a_edge45_Node000002_Node000007"><a xlink:title=" ">
<path fill="none" stroke="#63b8ff" d="M153.1,-629.02C159.66,-678.09 189.85,-886.75 233.75,-932.67 302.28,-1004.34 347.71,-998.67 446.88,-998.67 446.88,-998.67 446.88,-998.67 592,-998.67 684.87,-998.67 730.85,-1009.9 792.75,-940.67 843.32,-884.1 857.08,-638.61 860.12,-564.15"/>
<polygon fill="#63b8ff" stroke="#63b8ff" points="863.6,-564.66 860.49,-554.53 856.61,-564.39 863.6,-564.66"/>
</a>
</g>
</g>
<!-- Node9 -->
<g id="Node000009" class="node">
<title>Node9</title>
<g id="a_Node000009"><a xlink:href="validate_8cpp.html#aca205110cd18879d0e0a965dee34b776" target="_top" xlink:title="Checks if the given piece code is a valid piece (non&#45;empty).">
<polygon fill="white" stroke="#666666" points="626.38,-248.67 555.62,-248.67 555.62,-228.67 626.38,-228.67 626.38,-248.67"/>
<text xml:space="preserve" text-anchor="middle" x="591" y="-235.17" font-family="Helvetica,sans-Serif" font-size="10.00">pieceValueid</text>
</a>
</g>
</g>
<!-- Node2&#45;&gt;Node9 -->
<g id="edge44_Node000002_Node000009" class="edge">
<title>Node2&#45;&gt;Node9</title>
<g id="a_edge44_Node000002_Node000009"><a xlink:title=" ">
<path fill="none" stroke="#63b8ff" d="M152.39,-608.36C155.17,-572.8 169.09,-454 233.75,-389.67 322.86,-301.01 387.47,-350.68 500.5,-295.67 524.26,-284.1 549.49,-267.6 567.09,-255.33"/>
<polygon fill="#63b8ff" stroke="#63b8ff" points="568.65,-258.52 574.78,-249.88 564.6,-252.8 568.65,-258.52"/>
</a>
</g>
</g>
<!-- Node11 -->
<g id="Node000011" class="node">
<title>Node11</title>
<g id="a_Node000011"><a xlink:href="move__generator_8cpp.html#a529fbdfe853d3ad841c4c0b88c8e55f8" target="_top" xlink:title=" ">
<polygon fill="white" stroke="#666666" points="349.88,-923.67 243.12,-923.67 243.12,-903.67 349.88,-903.67 349.88,-923.67"/>
<text xml:space="preserve" text-anchor="middle" x="296.5" y="-910.17" font-family="Helvetica,sans-Serif" font-size="10.00">AddBlackPawnMove</text>
</a>
</g>
</g>
<!-- Node2&#45;&gt;Node11 -->
<g id="edge14_Node000002_Node000011" class="edge">
<title>Node2&#45;&gt;Node11</title>
<g id="a_edge14_Node000002_Node000011"><a xlink:title=" ">
<path fill="none" stroke="#63b8ff" d="M152.74,-628.85C156.7,-665.18 174.24,-790.5 233.75,-870.67 241.74,-881.43 253.24,-890.47 264.16,-897.44"/>
<polygon fill="#63b8ff" stroke="#63b8ff" points="262.22,-900.36 272.6,-902.48 265.81,-894.35 262.22,-900.36"/>
</a>
</g>
</g>
<!-- Node12 -->
<g id="Node000012" class="node">
<title>Node12</title>
<g id="a_Node000012"><a xlink:href="move__generator_8cpp.html#a3a38227acc56d0a4f2531c45bbf17a43" target="_top" xlink:title=" ">
<polygon fill="white" stroke="#666666" points="488.12,-894.67 407.62,-894.67 407.62,-874.67 488.12,-874.67 488.12,-894.67"/>
<text xml:space="preserve" text-anchor="middle" x="447.88" y="-881.17" font-family="Helvetica,sans-Serif" font-size="10.00">AddQuietMove</text>
</a>
</g>
</g>
<!-- Node2&#45;&gt;Node12 -->
<g id="edge24_Node000002_Node000012" class="edge">
<title>Node2&#45;&gt;Node12</title>
<g id="a_edge24_Node000002_Node000012"><a xlink:title=" ">
<path fill="none" stroke="#63b8ff" d="M153.58,-628.82C159.54,-659.03 181.11,-749.39 233.75,-799.67 278.99,-842.88 348.93,-865.06 396.24,-875.76"/>
<polygon fill="#63b8ff" stroke="#63b8ff" points="395.47,-879.17 405.98,-877.85 396.94,-872.33 395.47,-879.17"/>
</a>
</g>
</g>
<!-- Node13 -->
<g id="Node000013" class="node">
<title>Node13</title>
<g id="a_Node000013"><a xlink:href="move__generator_8cpp.html#a1f1451a443ea747e0af2376725f4c62f" target="_top" xlink:title=" ">
<polygon fill="white" stroke="#666666" points="500.5,-742.67 395.25,-742.67 395.25,-722.67 500.5,-722.67 500.5,-742.67"/>
<text xml:space="preserve" text-anchor="middle" x="447.88" y="-729.17" font-family="Helvetica,sans-Serif" font-size="10.00">AddEnPassantMove</text>
</a>
</g>
</g>
<!-- Node2&#45;&gt;Node13 -->
<g id="edge21_Node000002_Node000013" class="edge">
<title>Node2&#45;&gt;Node13</title>
<g id="a_edge21_Node000002_Node000013"><a xlink:title=" ">
<path fill="none" stroke="#63b8ff" d="M194.31,-629.05C250.78,-643.04 345.03,-667.14 359.25,-675.67 379.2,-687.63 375.82,-700.87 395.25,-713.67 397.21,-714.96 399.28,-716.18 401.4,-717.33"/>
<polygon fill="#63b8ff" stroke="#63b8ff" points="399.76,-720.42 410.29,-721.55 402.76,-714.1 399.76,-720.42"/>
</a>
</g>
</g>
<!-- Node14 -->
<g id="Node000014" class="node">
<title>Node14</title>
<g id="a_Node000014"><a xlink:href="move__generator_8cpp.html#aa5050db53ab58a3d01f8db5b0c6681c9" target="_top" xlink:title=" ">
<polygon fill="white" stroke="#666666" points="359.25,-552.67 233.75,-552.67 233.75,-532.67 359.25,-532.67 359.25,-552.67"/>
<text xml:space="preserve" text-anchor="middle" x="296.5" y="-539.17" font-family="Helvetica,sans-Serif" font-size="10.00">AddWhitePawnCapMove</text>
</a>
</g>
</g>
<!-- Node2&#45;&gt;Node14 -->
<g id="edge25_Node000002_Node000014" class="edge">
<title>Node2&#45;&gt;Node14</title>
<g id="a_edge25_Node000002_Node000014"><a xlink:title=" ">
<path fill="none" stroke="#63b8ff" d="M166.35,-608.18C182.36,-596.97 209.08,-579.14 233.75,-566.67 240.44,-563.29 247.73,-560.07 254.87,-557.16"/>
<polygon fill="#63b8ff" stroke="#63b8ff" points="255.72,-560.59 263.74,-553.67 253.16,-554.07 255.72,-560.59"/>
</a>
</g>
</g>
<!-- Node15 -->
<g id="Node000015" class="node">
<title>Node15</title>
<g id="a_Node000015"><a xlink:href="move__generator_8cpp.html#a6470c50ad0bc1167743755ec2a6be107" target="_top" xlink:title=" ">
<polygon fill="white" stroke="#666666" points="350.25,-790.67 242.75,-790.67 242.75,-770.67 350.25,-770.67 350.25,-790.67"/>
<text xml:space="preserve" text-anchor="middle" x="296.5" y="-777.17" font-family="Helvetica,sans-Serif" font-size="10.00">AddWhitePawnMove</text>
</a>
</g>
</g>
<!-- Node2&#45;&gt;Node15 -->
<g id="edge30_Node000002_Node000015" class="edge">
<title>Node2&#45;&gt;Node15</title>
<g id="a_edge30_Node000002_Node000015"><a xlink:title=" ">
<path fill="none" stroke="#63b8ff" d="M160.5,-629.03C175.38,-646.59 206.63,-683.26 233.75,-713.67 248.47,-730.17 265.52,-748.62 277.97,-761.97"/>
<polygon fill="#63b8ff" stroke="#63b8ff" points="275.35,-764.3 284.73,-769.21 280.46,-759.52 275.35,-764.3"/>
</a>
</g>
</g>
<!-- Node16 -->
<g id="Node000016" class="node">
<title>Node16</title>
<g id="a_Node000016"><a xlink:href="attack_8cpp.html#a36ea46ff61e0738a61f70dcf90b5178b" target="_top" xlink:title="Determines if a given square is attacked by a given side.">
<polygon fill="white" stroke="#666666" points="494.5,-362.67 401.25,-362.67 401.25,-342.67 494.5,-342.67 494.5,-362.67"/>
<text xml:space="preserve" text-anchor="middle" x="447.88" y="-349.17" font-family="Helvetica,sans-Serif" font-size="10.00">isSquareAttacked</text>
</a>
</g>
</g>
<!-- Node2&#45;&gt;Node16 -->
<g id="edge35_Node000002_Node000016" class="edge">
<title>Node2&#45;&gt;Node16</title>
<g id="a_edge35_Node000002_Node000016"><a xlink:title=" ">
<path fill="none" stroke="#63b8ff" d="M155.88,-608.25C166.03,-583.71 194.25,-521.36 233.75,-481.67 286.71,-428.45 365.84,-388.09 411.3,-367.62"/>
<polygon fill="#63b8ff" stroke="#63b8ff" points="412.44,-370.95 420.17,-363.7 409.6,-364.54 412.44,-370.95"/>
</a>
</g>
</g>
<!-- Node20 -->
<g id="Node000020" class="node">
<title>Node20</title>
<g id="a_Node000020"><a xlink:href="validate_8cpp.html#a63d4de5e5c2a915fbce5d856620285d6" target="_top" xlink:title="Validates that a move list is within bounds and references valid moves.">
<polygon fill="white" stroke="#666666" points="330.75,-704.67 262.25,-704.67 262.25,-684.67 330.75,-684.67 330.75,-704.67"/>
<text xml:space="preserve" text-anchor="middle" x="296.5" y="-691.17" font-family="Helvetica,sans-Serif" font-size="10.00">MoveListOk</text>
</a>
</g>
</g>
<!-- Node2&#45;&gt;Node20 -->
<g id="edge41_Node000002_Node000020" class="edge">
<title>Node2&#45;&gt;Node20</title>
<g id="a_edge41_Node000002_Node000020"><a xlink:title=" ">
<path fill="none" stroke="#63b8ff" d="M166.35,-629.16C182.36,-640.37 209.08,-658.2 233.75,-670.67 240.44,-674.05 247.73,-677.26 254.87,-680.18"/>
<polygon fill="#63b8ff" stroke="#63b8ff" points="253.16,-683.26 263.74,-683.66 255.72,-676.75 253.16,-683.26"/>
</a>
</g>
</g>
<!-- Node3&#45;&gt;Node4 -->
<g id="edge3_Node000003_Node000004" class="edge">
<title>Node3&#45;&gt;Node4</title>
<g id="a_edge3_Node000003_Node000004"><a xlink:title=" ">
<path fill="none" stroke="#63b8ff" d="M309.14,-608.43C321.75,-597.22 342.33,-578.59 359.25,-561.67 384.88,-536.03 413.06,-504.92 430.36,-485.45"/>
<polygon fill="#63b8ff" stroke="#63b8ff" points="432.92,-487.84 436.92,-478.03 427.67,-483.2 432.92,-487.84"/>
</a>
</g>
</g>
<!-- Node3&#45;&gt;Node5 -->
<g id="edge11_Node000003_Node000005" class="edge">
<title>Node3&#45;&gt;Node5</title>
<g id="a_edge11_Node000003_Node000005"><a xlink:title=" ">
<path fill="none" stroke="#63b8ff" d="M359.01,-615.18C399.61,-611.95 453.74,-605.89 500.5,-594.67 519.39,-590.14 539.76,-582.83 556.29,-576.24"/>
<polygon fill="#63b8ff" stroke="#63b8ff" points="557.21,-579.65 565.14,-572.62 554.56,-573.17 557.21,-579.65"/>
</a>
</g>
</g>
<!-- Node3&#45;&gt;Node7 -->
<g id="edge13_Node000003_Node000007" class="edge">
<title>Node3&#45;&gt;Node7</title>
<g id="a_edge13_Node000003_Node000007"><a xlink:title=" ">
<path fill="none" stroke="#63b8ff" d="M359.27,-629.08C455.73,-642.57 646.27,-658.02 792.75,-599.67 813.24,-591.51 832.09,-574.68 844.75,-561.41"/>
<polygon fill="#63b8ff" stroke="#63b8ff" points="847.29,-563.81 851.44,-554.06 842.12,-559.1 847.29,-563.81"/>
</a>
</g>
</g>
<!-- Node10 -->
<g id="Node000010" class="node">
<title>Node10</title>
<g id="a_Node000010"><a xlink:href="validate_8cpp.html#ac8317193b0ce2ab0c3d8d0f212cdd2b6" target="_top" xlink:title="Checks if the given piece code is either empty or a valid piece.">
<polygon fill="white" stroke="#666666" points="497.5,-704.67 398.25,-704.67 398.25,-684.67 497.5,-684.67 497.5,-704.67"/>
<text xml:space="preserve" text-anchor="middle" x="447.88" y="-691.17" font-family="Helvetica,sans-Serif" font-size="10.00">pieceValueidEmpty</text>
</a>
</g>
</g>
<!-- Node3&#45;&gt;Node10 -->
<g id="edge12_Node000003_Node000010" class="edge">
<title>Node3&#45;&gt;Node10</title>
<g id="a_edge12_Node000003_Node000010"><a xlink:title=" ">
<path fill="none" stroke="#63b8ff" d="M329.41,-629.05C339.25,-632.78 349.95,-637.39 359.25,-642.67 376.88,-652.67 377.95,-660.11 395.25,-670.67 400.24,-673.71 405.67,-676.63 411.08,-679.32"/>
<polygon fill="#63b8ff" stroke="#63b8ff" points="409.43,-682.41 419.97,-683.53 412.43,-676.08 409.43,-682.41"/>
</a>
</g>
</g>
<!-- Node4&#45;&gt;Node5 -->
<g id="edge4_Node000004_Node000005" class="edge">
<title>Node4&#45;&gt;Node5</title>
<g id="a_edge4_Node000004_Node000005"><a xlink:title=" ">
<path fill="none" stroke="#63b8ff" d="M464.25,-477.02C488.53,-493.36 536,-525.32 565.16,-544.95"/>
<polygon fill="#63b8ff" stroke="#63b8ff" points="563.14,-547.81 573.39,-550.49 567.05,-542 563.14,-547.81"/>
</a>
</g>
</g>
<!-- Node4&#45;&gt;Node7 -->
<g id="edge10_Node000004_Node000007" class="edge">
<title>Node4&#45;&gt;Node7</title>
<g id="a_edge10_Node000004_Node000007"><a xlink:title=" ">
<path fill="none" stroke="#63b8ff" d="M494.03,-461.79C561.47,-456.26 691.4,-452.43 792.75,-490.67 812.2,-498.01 830.72,-512.83 843.52,-524.78"/>
<polygon fill="#63b8ff" stroke="#63b8ff" points="840.73,-526.94 850.33,-531.41 845.61,-521.93 840.73,-526.94"/>
</a>
</g>
</g>
<!-- Node4&#45;&gt;Node9 -->
<g id="edge9_Node000004_Node000009" class="edge">
<title>Node4&#45;&gt;Node9</title>
<g id="a_edge9_Node000004_Node000009"><a xlink:title=" ">
<path fill="none" stroke="#63b8ff" d="M454.31,-456.52C467.63,-431.83 503.23,-366.79 536.5,-314.67 549.18,-294.81 564.8,-272.88 575.88,-257.7"/>
<polygon fill="#63b8ff" stroke="#63b8ff" points="578.43,-260.14 581.53,-250.01 572.79,-256 578.43,-260.14"/>
</a>
</g>
</g>
<!-- Node6 -->
<g id="Node000006" class="node">
<title>Node6</title>
<g id="a_Node000006"><a xlink:href="hash__keys_8cpp.html#a8c1832e1dfd853cce944ddd2df57dd53" target="_top" xlink:title="Generates a Zobrist hash key for the given board position.">
<polygon fill="white" stroke="#666666" points="792.75,-552.67 681.5,-552.67 681.5,-532.67 792.75,-532.67 792.75,-552.67"/>
<text xml:space="preserve" text-anchor="middle" x="737.12" y="-539.17" font-family="Helvetica,sans-Serif" font-size="10.00">generatePositionKeys</text>
</a>
</g>
</g>
<!-- Node5&#45;&gt;Node6 -->
<g id="edge5_Node000005_Node000006" class="edge">
<title>Node5&#45;&gt;Node6</title>
<g id="a_edge5_Node000005_Node000006"><a xlink:title=" ">
<path fill="none" stroke="#63b8ff" d="M638,-555.6C648.21,-554.26 659.23,-552.81 670.06,-551.38"/>
<polygon fill="#63b8ff" stroke="#63b8ff" points="670.29,-554.88 679.75,-550.1 669.37,-547.94 670.29,-554.88"/>
</a>
</g>
</g>
<!-- Node8 -->
<g id="Node000008" class="node">
<title>Node8</title>
<g id="a_Node000008"><a xlink:href="board_8cpp.html#addbaf4fbab51f8032e0e7aabbffeab96" target="_top" xlink:title="Validate that piece list array is consistent with board state.">
<polygon fill="white" stroke="#666666" points="779.62,-590.67 694.62,-590.67 694.62,-570.67 779.62,-570.67 779.62,-590.67"/>
<text xml:space="preserve" text-anchor="middle" x="737.12" y="-577.17" font-family="Helvetica,sans-Serif" font-size="10.00">isPieceListValid</text>
</a>
</g>
</g>
<!-- Node5&#45;&gt;Node8 -->
<g id="edge7_Node000005_Node000008" class="edge">
<title>Node5&#45;&gt;Node8</title>
<g id="a_edge7_Node000005_Node000008"><a xlink:title=" ">
<path fill="none" stroke="#63b8ff" d="M638,-567.73C652.44,-569.64 668.5,-571.75 683.37,-573.71"/>
<polygon fill="#63b8ff" stroke="#63b8ff" points="682.59,-577.14 692.96,-574.98 683.51,-570.2 682.59,-577.14"/>
</a>
</g>
</g>
<!-- Node6&#45;&gt;Node7 -->
<g id="edge6_Node000006_Node000007" class="edge">
<title>Node6&#45;&gt;Node7</title>
<g id="a_edge6_Node000006_Node000007"><a xlink:title=" ">
<path fill="none" stroke="#63b8ff" d="M793.04,-542.67C801.09,-542.67 809.3,-542.67 817.09,-542.67"/>
<polygon fill="#63b8ff" stroke="#63b8ff" points="817.01,-546.17 827.01,-542.67 817.01,-539.17 817.01,-546.17"/>
</a>
</g>
</g>
<!-- Node8&#45;&gt;Node7 -->
<g id="edge8_Node000008_Node000007" class="edge">
<title>Node8&#45;&gt;Node7</title>
<g id="a_edge8_Node000008_Node000007"><a xlink:title=" ">
<path fill="none" stroke="#63b8ff" d="M771.99,-570.18C786.15,-565.8 802.78,-560.65 817.8,-556"/>
<polygon fill="#63b8ff" stroke="#63b8ff" points="818.42,-559.47 826.94,-553.17 816.35,-552.79 818.42,-559.47"/>
</a>
</g>
</g>
<!-- Node11&#45;&gt;Node5 -->
<g id="edge18_Node000011_Node000005" class="edge">
<title>Node11&#45;&gt;Node5</title>
<g id="a_edge18_Node000011_Node000005"><a xlink:title=" ">
<path fill="none" stroke="#63b8ff" d="M336.26,-924.1C381,-933.62 454.34,-941.15 500.5,-903.67 551.41,-862.33 579.69,-651.69 587.65,-583.21"/>
<polygon fill="#63b8ff" stroke="#63b8ff" points="591.08,-583.98 588.73,-573.65 584.13,-583.2 591.08,-583.98"/>
</a>
</g>
</g>
<!-- Node11&#45;&gt;Node7 -->
<g id="edge19_Node000011_Node000007" class="edge">
<title>Node11&#45;&gt;Node7</title>
<g id="a_edge19_Node000011_Node000007"><a xlink:title=" ">
<path fill="none" stroke="#63b8ff" d="M326,-924.13C410.7,-953.17 663.03,-1024.64 792.75,-897.67 840.78,-850.66 856.13,-633.84 859.86,-564.24"/>
<polygon fill="#63b8ff" stroke="#63b8ff" points="863.34,-564.71 860.35,-554.54 856.35,-564.35 863.34,-564.71"/>
</a>
</g>
</g>
<!-- Node11&#45;&gt;Node12 -->
<g id="edge15_Node000011_Node000012" class="edge">
<title>Node11&#45;&gt;Node12</title>
<g id="a_edge15_Node000011_Node000012"><a xlink:title=" ">
<path fill="none" stroke="#63b8ff" d="M350.16,-903.44C365.16,-900.53 381.45,-897.37 396.32,-894.48"/>
<polygon fill="#63b8ff" stroke="#63b8ff" points="396.72,-897.97 405.87,-892.63 395.39,-891.1 396.72,-897.97"/>
</a>
</g>
</g>
<!-- Node12&#45;&gt;Node5 -->
<g id="edge16_Node000012_Node000005" class="edge">
<title>Node12&#45;&gt;Node5</title>
<g id="a_edge16_Node000012_Node000005"><a xlink:title=" ">
<path fill="none" stroke="#63b8ff" d="M454.63,-874.32C464.54,-856.34 485.22,-818.07 500.5,-784.67 533.85,-711.79 567.55,-622.7 582.29,-582.78"/>
<polygon fill="#63b8ff" stroke="#63b8ff" points="585.55,-584.05 585.72,-573.46 578.98,-581.64 585.55,-584.05"/>
</a>
</g>
</g>
<!-- Node12&#45;&gt;Node7 -->
<g id="edge17_Node000012_Node000007" class="edge">
<title>Node12&#45;&gt;Node7</title>
<g id="a_edge17_Node000012_Node000007"><a xlink:title=" ">
<path fill="none" stroke="#63b8ff" d="M486.61,-895.1C556.32,-911.89 706.08,-935.88 792.75,-860.67 837.93,-821.47 854.99,-629.33 859.53,-564.26"/>
<polygon fill="#63b8ff" stroke="#63b8ff" points="863,-564.74 860.17,-554.53 856.02,-564.28 863,-564.74"/>
</a>
</g>
</g>
<!-- Node13&#45;&gt;Node5 -->
<g id="edge22_Node000013_Node000005" class="edge">
<title>Node13&#45;&gt;Node5</title>
<g id="a_edge22_Node000013_Node000005"><a xlink:title=" ">
<path fill="none" stroke="#63b8ff" d="M486.65,-722.27C491.61,-719.93 496.39,-717.1 500.5,-713.67 543.84,-677.49 571.17,-614.59 583.08,-582.22"/>
<polygon fill="#63b8ff" stroke="#63b8ff" points="586.23,-583.8 586.26,-573.2 579.63,-581.47 586.23,-583.8"/>
</a>
</g>
</g>
<!-- Node13&#45;&gt;Node7 -->
<g id="edge23_Node000013_Node000007" class="edge">
<title>Node13&#45;&gt;Node7</title>
<g id="a_edge23_Node000013_Node000007"><a xlink:title=" ">
<path fill="none" stroke="#63b8ff" d="M500.89,-736.63C573.33,-739.41 705.5,-734.29 792.75,-670.67 828.88,-644.32 847.67,-592.91 855.79,-563.91"/>
<polygon fill="#63b8ff" stroke="#63b8ff" points="859.12,-565.01 858.25,-554.45 852.34,-563.24 859.12,-565.01"/>
</a>
</g>
</g>
<!-- Node14&#45;&gt;Node4 -->
<g id="edge26_Node000014_Node000004" class="edge">
<title>Node14&#45;&gt;Node4</title>
<g id="a_edge26_Node000014_Node000004"><a xlink:title=" ">
<path fill="none" stroke="#63b8ff" d="M329.41,-532.29C339.25,-528.56 349.95,-523.94 359.25,-518.67 376.88,-508.67 377.95,-501.23 395.25,-490.67 400.24,-487.62 405.67,-484.71 411.08,-482.02"/>
<polygon fill="#63b8ff" stroke="#63b8ff" points="412.43,-485.25 419.97,-477.81 409.43,-478.93 412.43,-485.25"/>
</a>
</g>
</g>
<!-- Node14&#45;&gt;Node5 -->
<g id="edge27_Node000014_Node000005" class="edge">
<title>Node14&#45;&gt;Node5</title>
<g id="a_edge27_Node000014_Node000005"><a xlink:title=" ">
<path fill="none" stroke="#63b8ff" d="M359.53,-546.7C410.87,-550.03 483.22,-554.73 533.09,-557.97"/>
<polygon fill="#63b8ff" stroke="#63b8ff" points="532.6,-561.45 542.81,-558.6 533.05,-554.46 532.6,-561.45"/>
</a>
</g>
</g>
<!-- Node14&#45;&gt;Node7 -->
<g id="edge29_Node000014_Node000007" class="edge">
<title>Node14&#45;&gt;Node7</title>
<g id="a_edge29_Node000014_Node000007"><a xlink:title=" ">
<path fill="none" stroke="#63b8ff" d="M359.6,-533.4C453.75,-520.9 638.02,-502.5 792.75,-523.67 801.46,-524.86 810.63,-526.87 819.32,-529.15"/>
<polygon fill="#63b8ff" stroke="#63b8ff" points="818.36,-532.52 828.93,-531.85 820.25,-525.78 818.36,-532.52"/>
</a>
</g>
</g>
<!-- Node14&#45;&gt;Node10 -->
<g id="edge28_Node000014_Node000010" class="edge">
<title>Node14&#45;&gt;Node10</title>
<g id="a_edge28_Node000014_Node000010"><a xlink:title=" ">
<path fill="none" stroke="#63b8ff" d="M309.14,-552.91C321.75,-564.11 342.33,-582.75 359.25,-599.67 384.88,-625.31 413.06,-656.42 430.36,-675.89"/>
<polygon fill="#63b8ff" stroke="#63b8ff" points="427.67,-678.13 436.92,-683.3 432.92,-673.49 427.67,-678.13"/>
</a>
</g>
</g>
<!-- Node15&#45;&gt;Node5 -->
<g id="edge32_Node000015_Node000005" class="edge">
<title>Node15&#45;&gt;Node5</title>
<g id="a_edge32_Node000015_Node000005"><a xlink:title=" ">
<path fill="none" stroke="#63b8ff" d="M350.56,-786.17C394.82,-787.93 457.4,-783.5 500.5,-751.67 556.99,-709.94 579.14,-623.44 586.65,-583.17"/>
<polygon fill="#63b8ff" stroke="#63b8ff" points="590.06,-583.98 588.3,-573.53 583.16,-582.8 590.06,-583.98"/>
</a>
</g>
</g>
<!-- Node15&#45;&gt;Node7 -->
<g id="edge33_Node000015_Node000007" class="edge">
<title>Node15&#45;&gt;Node7</title>
<g id="a_edge33_Node000015_Node000007"><a xlink:title=" ">
<path fill="none" stroke="#63b8ff" d="M349.68,-791.13C418.01,-803.22 541.35,-819.56 645.5,-803.67 713.28,-793.33 744.17,-806.05 792.75,-757.67 846.92,-703.72 858.09,-606.98 860.34,-564.12"/>
<polygon fill="#63b8ff" stroke="#63b8ff" points="863.83,-564.52 860.72,-554.39 856.83,-564.24 863.83,-564.52"/>
</a>
</g>
</g>
<!-- Node15&#45;&gt;Node12 -->
<g id="edge31_Node000015_Node000012" class="edge">
<title>Node15&#45;&gt;Node12</title>
<g id="a_edge31_Node000015_Node000012"><a xlink:title=" ">
<path fill="none" stroke="#63b8ff" d="M308.24,-791C325.53,-807.27 361.07,-839.22 395.25,-860.67 400.15,-863.74 405.5,-866.66 410.85,-869.34"/>
<polygon fill="#63b8ff" stroke="#63b8ff" points="409.1,-872.39 419.64,-873.52 412.11,-866.07 409.1,-872.39"/>
</a>
</g>
</g>
<!-- Node16&#45;&gt;Node5 -->
<g id="edge36_Node000016_Node000005" class="edge">
<title>Node16&#45;&gt;Node5</title>
<g id="a_edge36_Node000016_Node000005"><a xlink:title=" ">
<path fill="none" stroke="#63b8ff" d="M480.27,-363.11C487.53,-366.59 494.8,-371.05 500.5,-376.67 525.6,-401.38 565.22,-498.02 582.03,-540.93"/>
<polygon fill="#63b8ff" stroke="#63b8ff" points="578.71,-542.04 585.59,-550.1 585.23,-539.51 578.71,-542.04"/>
</a>
</g>
</g>
<!-- Node16&#45;&gt;Node7 -->
<g id="edge40_Node000016_Node000007" class="edge">
<title>Node16&#45;&gt;Node7</title>
<g id="a_edge40_Node000016_Node000007"><a xlink:title=" ">
<path fill="none" stroke="#63b8ff" d="M494.76,-356.86C565.46,-365.4 702.33,-390.4 792.75,-460.67 815.47,-478.33 835.72,-504.78 848.12,-522.84"/>
<polygon fill="#63b8ff" stroke="#63b8ff" points="845.18,-524.73 853.64,-531.11 851,-520.85 845.18,-524.73"/>
</a>
</g>
</g>
<!-- Node17 -->
<g id="Node000017" class="node">
<title>Node17</title>
<g id="a_Node000017"><a xlink:href="validate_8cpp.html#aac5a1baab60b7b72d85de73be258f91b" target="_top" xlink:title="Checks if the given piece code is empty, valid, or OFFBOARD.">
<polygon fill="white" stroke="#666666" points="645.5,-343.67 536.5,-343.67 536.5,-323.67 645.5,-323.67 645.5,-343.67"/>
<text xml:space="preserve" text-anchor="middle" x="591" y="-330.17" font-family="Helvetica,sans-Serif" font-size="10.00">PceValidEmptyOffbrd</text>
</a>
</g>
</g>
<!-- Node16&#45;&gt;Node17 -->
<g id="edge37_Node000016_Node000017" class="edge">
<title>Node16&#45;&gt;Node17</title>
<g id="a_edge37_Node000016_Node000017"><a xlink:title=" ">
<path fill="none" stroke="#63b8ff" d="M494.69,-346.5C504.28,-345.21 514.57,-343.82 524.71,-342.46"/>
<polygon fill="#63b8ff" stroke="#63b8ff" points="525.11,-345.94 534.56,-341.13 524.18,-339 525.11,-345.94"/>
</a>
</g>
</g>
<!-- Node18 -->
<g id="Node000018" class="node">
<title>Node18</title>
<g id="a_Node000018"><a xlink:href="validate_8cpp.html#ad7a2e012bffa6db3df97e7742c9d731d" target="_top" xlink:title="Checks if the given side identifier is valid.">
<polygon fill="white" stroke="#666666" points="619.25,-210.67 562.75,-210.67 562.75,-190.67 619.25,-190.67 619.25,-210.67"/>
<text xml:space="preserve" text-anchor="middle" x="591" y="-197.17" font-family="Helvetica,sans-Serif" font-size="10.00">SideValid</text>
</a>
</g>
</g>
<!-- Node16&#45;&gt;Node18 -->
<g id="edge38_Node000016_Node000018" class="edge">
<title>Node16&#45;&gt;Node18</title>
<g id="a_edge38_Node000016_Node000018"><a xlink:title=" ">
<path fill="none" stroke="#63b8ff" d="M459.78,-342.53C471,-331.7 488.48,-313.65 500.5,-295.67 521.27,-264.59 508.77,-244.73 536.5,-219.67 540.91,-215.68 546.22,-212.52 551.75,-210.01"/>
<polygon fill="#63b8ff" stroke="#63b8ff" points="552.95,-213.3 561.07,-206.49 550.48,-206.75 552.95,-213.3"/>
</a>
</g>
</g>
<!-- Node19 -->
<g id="Node000019" class="node">
<title>Node19</title>
<g id="a_Node000019"><a xlink:href="validate_8cpp.html#a48b5f0e20cf731ceeeb659fbc27b972c" target="_top" xlink:title="Checks if a given square index is within the 120&#45;based range.">
<polygon fill="white" stroke="#666666" points="617,-419.67 565,-419.67 565,-399.67 617,-399.67 617,-419.67"/>
<text xml:space="preserve" text-anchor="middle" x="591" y="-406.17" font-family="Helvetica,sans-Serif" font-size="10.00">SqIs120</text>
</a>
</g>
</g>
<!-- Node16&#45;&gt;Node19 -->
<g id="edge39_Node000016_Node000019" class="edge">
<title>Node16&#45;&gt;Node19</title>
<g id="a_edge39_Node000016_Node000019"><a xlink:title=" ">
<path fill="none" stroke="#63b8ff" d="M474.76,-363.12C497.08,-372.14 529.53,-385.24 554.31,-395.25"/>
<polygon fill="#63b8ff" stroke="#63b8ff" points="552.77,-398.41 563.35,-398.9 555.39,-391.91 552.77,-398.41"/>
</a>
</g>
</g>
<!-- Node20&#45;&gt;Node7 -->
<g id="edge43_Node000020_Node000007" class="edge">
<title>Node20&#45;&gt;Node7</title>
<g id="a_edge43_Node000020_Node000007"><a xlink:title=" ">
<path fill="none" stroke="#63b8ff" d="M310.09,-705.01C327.8,-718.82 361.68,-742.6 395.25,-751.67 566.75,-798.02 658.59,-826.12 792.75,-709.67 836.96,-671.3 852.93,-599.9 858.33,-564.18"/>
<polygon fill="#63b8ff" stroke="#63b8ff" points="861.75,-565.03 859.62,-554.65 854.81,-564.09 861.75,-565.03"/>
</a>
</g>
</g>
<!-- Node20&#45;&gt;Node10 -->
<g id="edge42_Node000020_Node000010" class="edge">
<title>Node20&#45;&gt;Node10</title>
<g id="a_edge42_Node000020_Node000010"><a xlink:title=" ">
<path fill="none" stroke="#63b8ff" d="M331.02,-694.67C347.41,-694.67 367.65,-694.67 386.6,-694.67"/>
<polygon fill="#63b8ff" stroke="#63b8ff" points="386.36,-698.17 396.36,-694.67 386.36,-691.17 386.36,-698.17"/>
</a>
</g>
</g>
<!-- Node21&#45;&gt;Node5 -->
<g id="edge56_Node000021_Node000005" class="edge">
<title>Node21&#45;&gt;Node5</title>
<g id="a_edge56_Node000021_Node000005"><a xlink:title=" ">
<path fill="none" stroke="#63b8ff" d="M156.85,-210.9C168.17,-232.77 197.28,-284.77 233.75,-317.67 294.76,-372.71 320.76,-372.98 395.25,-407.67 440.61,-428.79 460.19,-418.02 500.5,-447.67 535.46,-473.38 563.94,-516.2 578.8,-541.39"/>
<polygon fill="#63b8ff" stroke="#63b8ff" points="575.72,-543.06 583.73,-550 581.79,-539.58 575.72,-543.06"/>
</a>
</g>
</g>
<!-- Node21&#45;&gt;Node7 -->
<g id="edge64_Node000021_Node000007" class="edge">
<title>Node21&#45;&gt;Node7</title>
<g id="a_edge64_Node000021_Node000007"><a xlink:title=" ">
<path fill="none" stroke="#63b8ff" d="M155.7,-190.17C165.26,-166.17 192,-106.95 233.75,-75.67 313,-16.28 347.85,-10.67 446.88,-10.67 446.88,-10.67 446.88,-10.67 592,-10.67 682.03,-10.67 729.08,25.98 792.75,-37.67 862.01,-106.9 862.43,-434.03 861.27,-521.25"/>
<polygon fill="#63b8ff" stroke="#63b8ff" points="857.78,-520.95 861.12,-531.01 864.78,-521.06 857.78,-520.95"/>
</a>
</g>
</g>
<!-- Node21&#45;&gt;Node9 -->
<g id="edge62_Node000021_Node000009" class="edge">
<title>Node21&#45;&gt;Node9</title>
<g id="a_edge62_Node000021_Node000009"><a xlink:title=" ">
<path fill="none" stroke="#63b8ff" d="M183.18,-206.81C198.4,-209.58 216.97,-212.68 233.75,-214.67 344.75,-227.85 476.13,-234.37 544.11,-237.07"/>
<polygon fill="#63b8ff" stroke="#63b8ff" points="543.61,-240.55 553.74,-237.44 543.88,-233.56 543.61,-240.55"/>
</a>
</g>
</g>
<!-- Node21&#45;&gt;Node16 -->
<g id="edge57_Node000021_Node000016" class="edge">
<title>Node21&#45;&gt;Node16</title>
<g id="a_edge57_Node000021_Node000016"><a xlink:title=" ">
<path fill="none" stroke="#63b8ff" d="M160.27,-211.09C174.12,-227.39 203.04,-259 233.75,-277.67 282.73,-307.44 345.23,-327.66 389.86,-339.53"/>
<polygon fill="#63b8ff" stroke="#63b8ff" points="388.77,-342.87 399.33,-341.99 390.53,-336.09 388.77,-342.87"/>
</a>
</g>
</g>
<!-- Node21&#45;&gt;Node18 -->
<g id="edge63_Node000021_Node000018" class="edge">
<title>Node21&#45;&gt;Node18</title>
<g id="a_edge63_Node000021_Node000018"><a xlink:title=" ">
<path fill="none" stroke="#63b8ff" d="M182.92,-200.67C261.08,-200.67 465.3,-200.67 551.12,-200.67"/>
<polygon fill="#63b8ff" stroke="#63b8ff" points="550.9,-204.17 560.9,-200.67 550.9,-197.17 550.9,-204.17"/>
</a>
</g>
</g>
<!-- Node22 -->
<g id="Node000022" class="node">
<title>Node22</title>
<g id="a_Node000022"><a xlink:href="make__move_8cpp.html#a6ac5b01b46acf941303b6ff4505889b4" target="_top" xlink:title=" ">
<polygon fill="white" stroke="#666666" points="476.88,-96.67 418.88,-96.67 418.88,-76.67 476.88,-76.67 476.88,-96.67"/>
<text xml:space="preserve" text-anchor="middle" x="447.88" y="-83.17" font-family="Helvetica,sans-Serif" font-size="10.00">AddPiece</text>
</a>
</g>
</g>
<!-- Node21&#45;&gt;Node22 -->
<g id="edge47_Node000021_Node000022" class="edge">
<title>Node21&#45;&gt;Node22</title>
<g id="a_edge47_Node000021_Node000022"><a xlink:title=" ">
<path fill="none" stroke="#63b8ff" d="M157.06,-190.36C168.16,-170.03 195.95,-125.05 233.75,-105.67 288.82,-77.43 362.48,-77.9 407.21,-81.67"/>
<polygon fill="#63b8ff" stroke="#63b8ff" points="406.68,-85.14 416.97,-82.6 407.34,-78.17 406.68,-85.14"/>
</a>
</g>
</g>
<!-- Node23 -->
<g id="Node000023" class="node">
<title>Node23</title>
<g id="a_Node000023"><a xlink:href="make__move_8cpp.html#a7638b740f3b9301ec3ef126abaeef83e" target="_top" xlink:title=" ">
<polygon fill="white" stroke="#666666" points="479.88,-286.67 415.88,-286.67 415.88,-266.67 479.88,-266.67 479.88,-286.67"/>
<text xml:space="preserve" text-anchor="middle" x="447.88" y="-273.17" font-family="Helvetica,sans-Serif" font-size="10.00">ClearPiece</text>
</a>
</g>
</g>
<!-- Node21&#45;&gt;Node23 -->
<g id="edge51_Node000021_Node000023" class="edge">
<title>Node21&#45;&gt;Node23</title>
<g id="a_edge51_Node000021_Node000023"><a xlink:title=" ">
<path fill="none" stroke="#63b8ff" d="M164.14,-211.11C179.43,-223.34 206.72,-243.15 233.75,-252.67 290.37,-272.61 360.2,-276.95 404.15,-277.44"/>
<polygon fill="#63b8ff" stroke="#63b8ff" points="404.03,-280.94 414.04,-277.47 404.05,-273.94 404.03,-280.94"/>
</a>
</g>
</g>
<!-- Node24 -->
<g id="Node000024" class="node">
<title>Node24</title>
<g id="a_Node000024"><a xlink:href="make__move_8cpp.html#ad096f1812d822251b98ffbc3894bc1d5" target="_top" xlink:title=" ">
<polygon fill="white" stroke="#666666" points="480.25,-134.67 415.5,-134.67 415.5,-114.67 480.25,-114.67 480.25,-134.67"/>
<text xml:space="preserve" text-anchor="middle" x="447.88" y="-121.17" font-family="Helvetica,sans-Serif" font-size="10.00">MovePiece</text>
</a>
</g>
</g>
<!-- Node21&#45;&gt;Node24 -->
<g id="edge58_Node000021_Node000024" class="edge">
<title>Node21&#45;&gt;Node24</title>
<g id="a_edge58_Node000021_Node000024"><a xlink:title=" ">
<path fill="none" stroke="#63b8ff" d="M183.05,-192.61C236.15,-178.93 343.94,-151.17 404.01,-135.71"/>
<polygon fill="#63b8ff" stroke="#63b8ff" points="404.72,-139.14 413.53,-133.25 402.98,-132.36 404.72,-139.14"/>
</a>
</g>
</g>
<!-- Node21&#45;&gt;Node25 -->
<g id="edge65_Node000021_Node000025" class="edge">
<title>Node21&#45;&gt;Node25</title>
<g id="a_edge65_Node000021_Node000025"><a xlink:title=" ">
<path fill="none" stroke="#63b8ff" d="M166.35,-190.18C182.36,-178.97 209.08,-161.14 233.75,-148.67 240.87,-145.07 248.66,-141.66 256.24,-138.6"/>
<polygon fill="#63b8ff" stroke="#63b8ff" points="257.25,-141.96 265.3,-135.08 254.72,-135.44 257.25,-141.96"/>
</a>
</g>
</g>
<!-- Node22&#45;&gt;Node7 -->
<g id="edge50_Node000022_Node000007" class="edge">
<title>Node22&#45;&gt;Node7</title>
<g id="a_edge50_Node000022_Node000007"><a xlink:title=" ">
<path fill="none" stroke="#63b8ff" d="M477.12,-86.49C543.97,-87.75 712.32,-101.05 792.75,-199.67 833.57,-249.72 853.6,-453.54 859.2,-520.93"/>
<polygon fill="#63b8ff" stroke="#63b8ff" points="855.69,-520.98 859.98,-530.67 862.67,-520.42 855.69,-520.98"/>
</a>
</g>
</g>
<!-- Node22&#45;&gt;Node9 -->
<g id="edge48_Node000022_Node000009" class="edge">
<title>Node22&#45;&gt;Node9</title>
<g id="a_edge48_Node000022_Node000009"><a xlink:title=" ">
<path fill="none" stroke="#63b8ff" d="M477.28,-92.06C485.7,-94.89 494.3,-99.17 500.5,-105.67 537.18,-144.11 499.6,-181.44 536.5,-219.67 539.07,-222.33 542.03,-224.62 545.22,-226.58"/>
<polygon fill="#63b8ff" stroke="#63b8ff" points="543.42,-229.6 553.93,-230.91 546.53,-223.33 543.42,-229.6"/>
</a>
</g>
</g>
<!-- Node22&#45;&gt;Node18 -->
<g id="edge49_Node000022_Node000018" class="edge">
<title>Node22&#45;&gt;Node18</title>
<g id="a_edge49_Node000022_Node000018"><a xlink:title=" ">
<path fill="none" stroke="#63b8ff" d="M477.33,-94.49C485.2,-97.34 493.49,-101.03 500.5,-105.67 531.84,-126.37 560.11,-160.09 576.16,-181.29"/>
<polygon fill="#63b8ff" stroke="#63b8ff" points="573.17,-183.14 581.92,-189.1 578.8,-178.98 573.17,-183.14"/>
</a>
</g>
</g>
<!-- Node23&#45;&gt;Node5 -->
<g id="edge52_Node000023_Node000005" class="edge">
<title>Node23&#45;&gt;Node5</title>
<g id="a_edge52_Node000023_Node000005"><a xlink:title=" ">
<path fill="none" stroke="#63b8ff" d="M460.51,-287.02C471.97,-297.74 489.35,-315.45 500.5,-333.67 524.07,-372.18 520.07,-386.61 536.5,-428.67 552.05,-468.47 570.81,-514.71 581.47,-540.85"/>
<polygon fill="#63b8ff" stroke="#63b8ff" points="578.17,-542.02 585.19,-549.95 584.65,-539.37 578.17,-542.02"/>
</a>
</g>
</g>
<!-- Node23&#45;&gt;Node7 -->
<g id="edge55_Node000023_Node000007" class="edge">
<title>Node23&#45;&gt;Node7</title>
<g id="a_edge55_Node000023_Node000007"><a xlink:title=" ">
<path fill="none" stroke="#63b8ff" d="M480.18,-278.21C547.58,-283.25 707.23,-304.8 792.75,-396.67 827.07,-433.54 846.82,-490.79 855.51,-521.5"/>
<polygon fill="#63b8ff" stroke="#63b8ff" points="852.02,-522.01 858,-530.75 858.78,-520.19 852.02,-522.01"/>
</a>
</g>
</g>
<!-- Node23&#45;&gt;Node9 -->
<g id="edge53_Node000023_Node000009" class="edge">
<title>Node23&#45;&gt;Node9</title>
<g id="a_edge53_Node000023_Node000009"><a xlink:title=" ">
<path fill="none" stroke="#63b8ff" d="M480.2,-268.23C499.06,-263.16 523.4,-256.6 544.37,-250.95"/>
<polygon fill="#63b8ff" stroke="#63b8ff" points="545.09,-254.38 553.84,-248.4 543.27,-247.63 545.09,-254.38"/>
</a>
</g>
</g>
<!-- Node23&#45;&gt;Node18 -->
<g id="edge54_Node000023_Node000018" class="edge">
<title>Node23&#45;&gt;Node18</title>
<g id="a_edge54_Node000023_Node000018"><a xlink:title=" ">
<path fill="none" stroke="#63b8ff" d="M462.53,-266.32C479.28,-253.99 508.84,-233.34 536.5,-219.67 541.33,-217.28 546.53,-215.05 551.73,-213.01"/>
<polygon fill="#63b8ff" stroke="#63b8ff" points="552.68,-216.39 560.85,-209.65 550.26,-209.83 552.68,-216.39"/>
</a>
</g>
</g>
<!-- Node24&#45;&gt;Node7 -->
<g id="edge61_Node000024_Node000007" class="edge">
<title>Node24&#45;&gt;Node7</title>
<g id="a_edge61_Node000024_Node000007"><a xlink:title=" ">
<path fill="none" stroke="#63b8ff" d="M480.63,-129.16C521.06,-135.91 592.07,-151.25 645.5,-181.67 723.44,-226.05 745.32,-243.54 792.75,-319.67 834.17,-386.16 851.9,-479.56 858.08,-521.18"/>
<polygon fill="#63b8ff" stroke="#63b8ff" points="854.62,-521.65 859.47,-531.07 861.55,-520.68 854.62,-521.65"/>
</a>
</g>
</g>
<!-- Node24&#45;&gt;Node9 -->
<g id="edge59_Node000024_Node000009" class="edge">
<title>Node24&#45;&gt;Node9</title>
<g id="a_edge59_Node000024_Node000009"><a xlink:title=" ">
<path fill="none" stroke="#63b8ff" d="M479.93,-135.05C487.28,-138.55 494.67,-143.04 500.5,-148.67 525.94,-173.26 509.93,-196.3 536.5,-219.67 539.12,-221.97 542.03,-224 545.11,-225.78"/>
<polygon fill="#63b8ff" stroke="#63b8ff" points="543.46,-228.87 553.99,-230.05 546.49,-222.56 543.46,-228.87"/>
</a>
</g>
</g>
<!-- Node24&#45;&gt;Node18 -->
<g id="edge60_Node000024_Node000018" class="edge">
<title>Node24&#45;&gt;Node18</title>
<g id="a_edge60_Node000024_Node000018"><a xlink:title=" ">
<path fill="none" stroke="#63b8ff" d="M472.48,-135.09C481.35,-139.16 491.47,-143.96 500.5,-148.67 522.08,-159.92 545.87,-173.82 563.5,-184.42"/>
<polygon fill="#63b8ff" stroke="#63b8ff" points="561.44,-187.26 571.81,-189.45 565.06,-181.27 561.44,-187.26"/>
</a>
</g>
</g>
<!-- Node25&#45;&gt;Node5 -->
<g id="edge68_Node000025_Node000005" class="edge">
<title>Node25&#45;&gt;Node5</title>
<g id="a_edge68_Node000025_Node000005"><a xlink:title=" ">
<path fill="none" stroke="#63b8ff" d="M298.71,-135.17C303.57,-172.51 324.88,-300.52 395.25,-371.67 430.78,-407.6 462.04,-381.89 500.5,-414.67 541.83,-449.9 569.59,-509.22 582.22,-540.65"/>
<polygon fill="#63b8ff" stroke="#63b8ff" points="578.89,-541.75 585.76,-549.81 585.42,-539.22 578.89,-541.75"/>
</a>
</g>
</g>
<!-- Node25&#45;&gt;Node7 -->
<g id="edge71_Node000025_Node000007" class="edge">
<title>Node25&#45;&gt;Node7</title>
<g id="a_edge71_Node000025_Node000007"><a xlink:title=" ">
<path fill="none" stroke="#63b8ff" d="M310.09,-114.33C327.8,-100.52 361.68,-76.74 395.25,-67.67 567.36,-21.15 671.36,8.91 792.75,-121.67 847.67,-180.74 858.45,-444.2 860.45,-521.36"/>
<polygon fill="#63b8ff" stroke="#63b8ff" points="856.94,-521.02 860.67,-530.94 863.94,-520.86 856.94,-521.02"/>
</a>
</g>
</g>
<!-- Node25&#45;&gt;Node9 -->
<g id="edge70_Node000025_Node000009" class="edge">
<title>Node25&#45;&gt;Node9</title>
<g id="a_edge70_Node000025_Node000009"><a xlink:title=" ">
<path fill="none" stroke="#63b8ff" d="M322.85,-135.1C366.36,-152.93 458.14,-190.19 536.5,-219.67 540.64,-221.22 544.97,-222.82 549.29,-224.39"/>
<polygon fill="#63b8ff" stroke="#63b8ff" points="547.92,-227.61 558.51,-227.7 550.28,-221.03 547.92,-227.61"/>
</a>
</g>
</g>
<!-- Node25&#45;&gt;Node22 -->
<g id="edge66_Node000025_Node000022" class="edge">
<title>Node25&#45;&gt;Node22</title>
<g id="a_edge66_Node000025_Node000022"><a xlink:title=" ">
<path fill="none" stroke="#63b8ff" d="M326.3,-117.34C349.31,-111.49 381.81,-103.22 407.27,-96.74"/>
<polygon fill="#63b8ff" stroke="#63b8ff" points="408.12,-100.14 416.95,-94.28 406.4,-93.35 408.12,-100.14"/>
</a>
</g>
</g>
<!-- Node25&#45;&gt;Node23 -->
<g id="edge67_Node000025_Node000023" class="edge">
<title>Node25&#45;&gt;Node23</title>
<g id="a_edge67_Node000025_Node000023"><a xlink:title=" ">
<path fill="none" stroke="#63b8ff" d="M307.77,-135.12C332.83,-160.62 397.39,-226.32 428.96,-258.44"/>
<polygon fill="#63b8ff" stroke="#63b8ff" points="426.36,-260.79 435.87,-265.47 431.36,-255.88 426.36,-260.79"/>
</a>
</g>
</g>
<!-- Node25&#45;&gt;Node24 -->
<g id="edge69_Node000025_Node000024" class="edge">
<title>Node25&#45;&gt;Node24</title>
<g id="a_edge69_Node000025_Node000024"><a xlink:title=" ">
<path fill="none" stroke="#63b8ff" d="M326.3,-124.67C348.26,-124.67 378.85,-124.67 403.73,-124.67"/>
<polygon fill="#63b8ff" stroke="#63b8ff" points="403.55,-128.17 413.55,-124.67 403.55,-121.17 403.55,-128.17"/>
</a>
</g>
</g>
</g>
</svg>

<g id="navigator" transform="translate(0 0)" fill="#404254">
  <rect fill="#f2f5e9" fill-opacity="0.5" stroke="#606060" stroke-width=".5" x="0" y="0" width="60" height="60"/>
  <use id="zoomplus" xlink:href="#zoomPlus" x="17" y="9" onmousedown="handleZoom(evt,'in')"/>
  <use id="zoomminus" xlink:href="#zoomMin" x="42" y="9" onmousedown="handleZoom(evt,'out')"/>
  <use id="reset" xlink:href="#resetDef" x="30" y="36" onmousedown="handleReset()"/>
   <use id="arrowup" xlink:href="#arrowUp" x="0" y="0" onmousedown="handlePan(0,-1)"/>
  <use id="arrowright" xlink:href="#arrowRight" x="0" y="0" onmousedown="handlePan(1,0)"/>
  <use id="arrowdown" xlink:href="#arrowDown" x="0" y="0" onmousedown="handlePan(0,1)"/>
  <use id="arrowleft" xlink:href="#arrowLeft" x="0" y="0" onmousedown="handlePan(-1,0)"/>
</g>
<svg viewBox="0 0 15 15" width="100%" height="30px" preserveAspectRatio="xMaxYMin meet">
 <g id="arrow_out" transform="scale(0.3 0.3)">
  <a xlink:href="move__generator_8cpp_a4edc18741a17d00498b72b349879e30d_cgraph_org.svg" target="_base">
   <rect id="button" ry="5" rx="5" y="6" x="6" height="38" width="38"
        fill="#f2f5e9" fill-opacity="0.5" stroke="#606060" stroke-width="1.0"/>
   <path id="arrow"
     d="M 11.500037,31.436501 C 11.940474,20.09759 22.043105,11.32322 32.158766,21.979434 L 37.068811,17.246167 C 37.068811,17.246167 37.088388,32 37.088388,32 L 22.160133,31.978069 C 22.160133,31.978069 26.997745,27.140456 26.997745,27.140456 C 18.528582,18.264221 13.291696,25.230495 11.500037,31.436501 z"
     style="fill:#404040;"/>
  </a>
 </g>
</svg>

<style type='text/css'>
<![CDATA[
[data-mouse-over-selected='false'] { opacity: 0.7; }
[data-mouse-over-selected='true']  { opacity: 1.0; }
]]>
</style>
<script type="application/ecmascript"><![CDATA[
document.addEventListener('DOMContentLoaded', (event) => {
  highlightEdges();
  highlightAdjacentNodes();
});
]]></script>
</svg>
