<?xml version="1.0" encoding="UTF-8" standalone="no"?>
<!DOCTYPE svg PUBLIC "-//W3C//DTD SVG 1.1//EN"
 "http://www.w3.org/Graphics/SVG/1.1/DTD/svg11.dtd">
<!-- Generated by graphviz version 13.1.2 (20250808.2320)
 -->
<!-- Title: generateAllMoves Pages: 1 -->
<svg width="799pt" height="732pt"
 viewBox="0.00 0.00 799.00 732.00" xmlns="http://www.w3.org/2000/svg" xmlns:xlink="http://www.w3.org/1999/xlink">
<g id="graph0" class="graph" transform="scale(1 1) rotate(0) translate(4 727.87)">
<title>generateAllMoves</title>
<!-- Node1 -->
<g id="Node000001" class="node">
<title>Node1</title>
<g id="a_Node000001"><a xlink:title="Generate all pseudo&#45;legal moves for the side to move.">
<polygon fill="#999999" stroke="#666666" points="94,-409 0,-409 0,-389 94,-389 94,-409"/>
<text xml:space="preserve" text-anchor="middle" x="47" y="-395.5" font-family="Helvetica,sans-Serif" font-size="10.00">generateAllMoves</text>
</a>
</g>
</g>
<!-- Node2 -->
<g id="Node000002" class="node">
<title>Node2</title>
<g id="a_Node000002"><a xlink:href="move__generator_8cpp.html#a21d952c048f6586610eafeefcd4a0341" target="_top" xlink:title=" ">
<polygon fill="white" stroke="#666666" points="255.12,-580 130.38,-580 130.38,-560 255.12,-560 255.12,-580"/>
<text xml:space="preserve" text-anchor="middle" x="192.75" y="-566.5" font-family="Helvetica,sans-Serif" font-size="10.00">AddBlackPawnCapMove</text>
</a>
</g>
</g>
<!-- Node1&#45;&gt;Node2 -->
<g id="edge1_Node000001_Node000002" class="edge">
<title>Node1&#45;&gt;Node2</title>
<g id="a_edge1_Node000001_Node000002"><a xlink:title=" ">
<path fill="none" stroke="#63b8ff" d="M54.38,-409.27C67.41,-429.89 98.49,-477.4 130,-513 142.6,-527.24 158.38,-541.76 170.84,-552.58"/>
<polygon fill="#63b8ff" stroke="#63b8ff" points="168.2,-554.93 178.07,-558.76 172.74,-549.61 168.2,-554.93"/>
</a>
</g>
</g>
<!-- Node3 -->
<g id="Node000003" class="node">
<title>Node3</title>
<g id="a_Node000003"><a xlink:href="move__generator_8cpp.html#ad22de88ed58f37e575d4d3bbb7925329" target="_top" xlink:title=" ">
<polygon fill="white" stroke="#666666" points="390,-656 298.25,-656 298.25,-636 390,-636 390,-656"/>
<text xml:space="preserve" text-anchor="middle" x="344.12" y="-642.5" font-family="Helvetica,sans-Serif" font-size="10.00">AddCaptureMove</text>
</a>
</g>
</g>
<!-- Node1&#45;&gt;Node3 -->
<g id="edge19_Node000001_Node000003" class="edge">
<title>Node1&#45;&gt;Node3</title>
<g id="a_edge19_Node000001_Node000003"><a xlink:title=" ">
<path fill="none" stroke="#63b8ff" d="M49.33,-409.5C53.95,-441.59 72.36,-539.22 130,-589 173.65,-626.7 239.69,-639.77 286.68,-644.14"/>
<polygon fill="#63b8ff" stroke="#63b8ff" points="286.13,-647.61 296.38,-644.93 286.7,-640.63 286.13,-647.61"/>
</a>
</g>
</g>
<!-- Node4 -->
<g id="Node000004" class="node">
<title>Node4</title>
<g id="a_Node000004"><a xlink:href="board_8cpp.html#a27f071824f45c724e8ddd02c72b39871" target="_top" xlink:title="Performs a full internal consistency check of the board state.">
<polygon fill="white" stroke="#666666" points="533.88,-314 440.62,-314 440.62,-294 533.88,-294 533.88,-314"/>
<text xml:space="preserve" text-anchor="middle" x="487.25" y="-300.5" font-family="Helvetica,sans-Serif" font-size="10.00">isBoardStateValid</text>
</a>
</g>
</g>
<!-- Node1&#45;&gt;Node4 -->
<g id="edge33_Node000001_Node000004" class="edge">
<title>Node1&#45;&gt;Node4</title>
<g id="a_edge33_Node000001_Node000004"><a xlink:title=" ">
<path fill="none" stroke="#63b8ff" d="M59.22,-388.62C74.15,-375.46 101.96,-353.12 130,-342 229.75,-302.45 356.85,-298.95 429.13,-300.87"/>
<polygon fill="#63b8ff" stroke="#63b8ff" points="428.63,-304.36 438.74,-301.17 428.85,-297.36 428.63,-304.36"/>
</a>
</g>
</g>
<!-- Node6 -->
<g id="Node000006" class="node">
<title>Node6</title>
<g id="a_Node000006"><a xlink:href="validate_8cpp.html#ad5a569564ef016ed02a4fef23d89d9c4" target="_top" xlink:title="Checks if a given square index refers to a valid on&#45;board square.">
<polygon fill="white" stroke="#666666" points="791.25,-371 725,-371 725,-351 791.25,-351 791.25,-371"/>
<text xml:space="preserve" text-anchor="middle" x="758.12" y="-357.5" font-family="Helvetica,sans-Serif" font-size="10.00">SqOnBoard</text>
</a>
</g>
</g>
<!-- Node1&#45;&gt;Node6 -->
<g id="edge44_Node000001_Node000006" class="edge">
<title>Node1&#45;&gt;Node6</title>
<g id="a_edge44_Node000001_Node000006"><a xlink:title=" ">
<path fill="none" stroke="#63b8ff" d="M47.72,-409.48C47.26,-449.85 51.26,-596.7 130,-671 200.84,-737.85 245.73,-722 343.12,-722 343.12,-722 343.12,-722 488.25,-722 527.56,-722 640.13,-704.78 689,-650 724.88,-609.78 747.6,-442.42 754.72,-382.47"/>
<polygon fill="#63b8ff" stroke="#63b8ff" points="758.15,-383.24 755.83,-372.9 751.2,-382.43 758.15,-383.24"/>
</a>
</g>
</g>
<!-- Node8 -->
<g id="Node000008" class="node">
<title>Node8</title>
<g id="a_Node000008"><a xlink:href="validate_8cpp.html#aca205110cd18879d0e0a965dee34b776" target="_top" xlink:title="Checks if the given piece code is a valid piece (non&#45;empty).">
<polygon fill="white" stroke="#666666" points="522.62,-694 451.88,-694 451.88,-674 522.62,-674 522.62,-694"/>
<text xml:space="preserve" text-anchor="middle" x="487.25" y="-680.5" font-family="Helvetica,sans-Serif" font-size="10.00">pieceValueid</text>
</a>
</g>
</g>
<!-- Node1&#45;&gt;Node8 -->
<g id="edge43_Node000001_Node000008" class="edge">
<title>Node1&#45;&gt;Node8</title>
<g id="a_edge43_Node000001_Node000008"><a xlink:title=" ">
<path fill="none" stroke="#63b8ff" d="M48.36,-409.09C50.2,-444.92 61.48,-567.16 130,-628 216.99,-705.24 365.38,-699.86 440.21,-691.1"/>
<polygon fill="#63b8ff" stroke="#63b8ff" points="440.58,-694.58 450.07,-689.86 439.71,-687.63 440.58,-694.58"/>
</a>
</g>
</g>
<!-- Node10 -->
<g id="Node000010" class="node">
<title>Node10</title>
<g id="a_Node000010"><a xlink:href="move__generator_8cpp.html#a529fbdfe853d3ad841c4c0b88c8e55f8" target="_top" xlink:title=" ">
<polygon fill="white" stroke="#666666" points="246.12,-371 139.38,-371 139.38,-351 246.12,-351 246.12,-371"/>
<text xml:space="preserve" text-anchor="middle" x="192.75" y="-357.5" font-family="Helvetica,sans-Serif" font-size="10.00">AddBlackPawnMove</text>
</a>
</g>
</g>
<!-- Node1&#45;&gt;Node10 -->
<g id="edge13_Node000001_Node000010" class="edge">
<title>Node1&#45;&gt;Node10</title>
<g id="a_edge13_Node000001_Node000010"><a xlink:title=" ">
<path fill="none" stroke="#63b8ff" d="M87.66,-388.52C104.32,-384.11 123.88,-378.94 141.52,-374.28"/>
<polygon fill="#63b8ff" stroke="#63b8ff" points="141.98,-377.78 150.76,-371.84 140.19,-371.01 141.98,-377.78"/>
</a>
</g>
</g>
<!-- Node11 -->
<g id="Node000011" class="node">
<title>Node11</title>
<g id="a_Node000011"><a xlink:href="move__generator_8cpp.html#a3a38227acc56d0a4f2531c45bbf17a43" target="_top" xlink:title=" ">
<polygon fill="white" stroke="#666666" points="384.38,-276 303.88,-276 303.88,-256 384.38,-256 384.38,-276"/>
<text xml:space="preserve" text-anchor="middle" x="344.12" y="-262.5" font-family="Helvetica,sans-Serif" font-size="10.00">AddQuietMove</text>
</a>
</g>
</g>
<!-- Node1&#45;&gt;Node11 -->
<g id="edge23_Node000001_Node000011" class="edge">
<title>Node1&#45;&gt;Node11</title>
<g id="a_edge23_Node000001_Node000011"><a xlink:title=" ">
<path fill="none" stroke="#63b8ff" d="M52.3,-388.67C62.23,-366.27 89.08,-313.37 130,-290 179.82,-261.54 246.88,-258.65 292.37,-260.85"/>
<polygon fill="#63b8ff" stroke="#63b8ff" points="292.04,-264.34 302.23,-261.44 292.46,-257.35 292.04,-264.34"/>
</a>
</g>
</g>
<!-- Node12 -->
<g id="Node000012" class="node">
<title>Node12</title>
<g id="a_Node000012"><a xlink:href="move__generator_8cpp.html#a1f1451a443ea747e0af2376725f4c62f" target="_top" xlink:title=" ">
<polygon fill="white" stroke="#666666" points="396.75,-162 291.5,-162 291.5,-142 396.75,-142 396.75,-162"/>
<text xml:space="preserve" text-anchor="middle" x="344.12" y="-148.5" font-family="Helvetica,sans-Serif" font-size="10.00">AddEnPassantMove</text>
</a>
</g>
</g>
<!-- Node1&#45;&gt;Node12 -->
<g id="edge20_Node000001_Node000012" class="edge">
<title>Node1&#45;&gt;Node12</title>
<g id="a_edge20_Node000001_Node000012"><a xlink:title=" ">
<path fill="none" stroke="#63b8ff" d="M49.33,-388.5C53.95,-356.41 72.36,-258.78 130,-209 171.55,-173.11 233.4,-159.54 279.78,-154.55"/>
<polygon fill="#63b8ff" stroke="#63b8ff" points="280.09,-158.04 289.71,-153.6 279.42,-151.07 280.09,-158.04"/>
</a>
</g>
</g>
<!-- Node13 -->
<g id="Node000013" class="node">
<title>Node13</title>
<g id="a_Node000013"><a xlink:href="move__generator_8cpp.html#aa5050db53ab58a3d01f8db5b0c6681c9" target="_top" xlink:title=" ">
<polygon fill="white" stroke="#666666" points="255.5,-504 130,-504 130,-484 255.5,-484 255.5,-504"/>
<text xml:space="preserve" text-anchor="middle" x="192.75" y="-490.5" font-family="Helvetica,sans-Serif" font-size="10.00">AddWhitePawnCapMove</text>
</a>
</g>
</g>
<!-- Node1&#45;&gt;Node13 -->
<g id="edge24_Node000001_Node000013" class="edge">
<title>Node1&#45;&gt;Node13</title>
<g id="a_edge24_Node000001_Node000013"><a xlink:title=" ">
<path fill="none" stroke="#63b8ff" d="M63.66,-409.35C88.5,-425.77 137.17,-457.93 166.84,-477.54"/>
<polygon fill="#63b8ff" stroke="#63b8ff" points="164.58,-480.24 174.85,-482.83 168.44,-474.4 164.58,-480.24"/>
</a>
</g>
</g>
<!-- Node14 -->
<g id="Node000014" class="node">
<title>Node14</title>
<g id="a_Node000014"><a xlink:href="move__generator_8cpp.html#a6470c50ad0bc1167743755ec2a6be107" target="_top" xlink:title=" ">
<polygon fill="white" stroke="#666666" points="246.5,-238 139,-238 139,-218 246.5,-218 246.5,-238"/>
<text xml:space="preserve" text-anchor="middle" x="192.75" y="-224.5" font-family="Helvetica,sans-Serif" font-size="10.00">AddWhitePawnMove</text>
</a>
</g>
</g>
<!-- Node1&#45;&gt;Node14 -->
<g id="edge29_Node000001_Node000014" class="edge">
<title>Node1&#45;&gt;Node14</title>
<g id="a_edge29_Node000001_Node000014"><a xlink:title=" ">
<path fill="none" stroke="#63b8ff" d="M51.09,-388.51C59.41,-361.94 84.82,-291.34 130,-252 133.81,-248.68 138.13,-245.8 142.68,-243.29"/>
<polygon fill="#63b8ff" stroke="#63b8ff" points="144.01,-246.53 151.51,-239.05 140.98,-240.22 144.01,-246.53"/>
</a>
</g>
</g>
<!-- Node15 -->
<g id="Node000015" class="node">
<title>Node15</title>
<g id="a_Node000015"><a xlink:href="attack_8cpp.html#a36ea46ff61e0738a61f70dcf90b5178b" target="_top" xlink:title="Determines if a given square is attacked by a given side.">
<polygon fill="white" stroke="#666666" points="390.75,-115 297.5,-115 297.5,-95 390.75,-95 390.75,-115"/>
<text xml:space="preserve" text-anchor="middle" x="344.12" y="-101.5" font-family="Helvetica,sans-Serif" font-size="10.00">isSquareAttacked</text>
</a>
</g>
</g>
<!-- Node1&#45;&gt;Node15 -->
<g id="edge34_Node000001_Node000015" class="edge">
<title>Node1&#45;&gt;Node15</title>
<g id="a_edge34_Node000001_Node000015"><a xlink:title=" ">
<path fill="none" stroke="#63b8ff" d="M48.1,-388.75C49.04,-351.17 57.59,-219.71 130,-154 172.34,-115.58 238.61,-105.41 286.01,-103.54"/>
<polygon fill="#63b8ff" stroke="#63b8ff" points="285.91,-107.04 295.81,-103.28 285.72,-100.05 285.91,-107.04"/>
</a>
</g>
</g>
<!-- Node19 -->
<g id="Node000019" class="node">
<title>Node19</title>
<g id="a_Node000019"><a xlink:href="validate_8cpp.html#a63d4de5e5c2a915fbce5d856620285d6" target="_top" xlink:title="Validates that a move list is within bounds and references valid moves.">
<polygon fill="white" stroke="#666666" points="227,-428 158.5,-428 158.5,-408 227,-408 227,-428"/>
<text xml:space="preserve" text-anchor="middle" x="192.75" y="-414.5" font-family="Helvetica,sans-Serif" font-size="10.00">MoveListOk</text>
</a>
</g>
</g>
<!-- Node1&#45;&gt;Node19 -->
<g id="edge40_Node000001_Node000019" class="edge">
<title>Node1&#45;&gt;Node19</title>
<g id="a_edge40_Node000001_Node000019"><a xlink:title=" ">
<path fill="none" stroke="#63b8ff" d="M94.27,-405.12C111.21,-407.36 130.33,-409.88 147.12,-412.1"/>
<polygon fill="#63b8ff" stroke="#63b8ff" points="146.45,-415.54 156.82,-413.38 147.37,-408.6 146.45,-415.54"/>
</a>
</g>
</g>
<!-- Node2&#45;&gt;Node3 -->
<g id="edge2_Node000002_Node000003" class="edge">
<title>Node2&#45;&gt;Node3</title>
<g id="a_edge2_Node000002_Node000003"><a xlink:title=" ">
<path fill="none" stroke="#63b8ff" d="M212.7,-580.47C232.28,-591.19 263.8,-608.2 291.5,-622 297.39,-624.94 303.72,-627.97 309.85,-630.85"/>
<polygon fill="#63b8ff" stroke="#63b8ff" points="307.95,-633.83 318.5,-634.87 310.91,-627.48 307.95,-633.83"/>
</a>
</g>
</g>
<!-- Node2&#45;&gt;Node4 -->
<g id="edge10_Node000002_Node000004" class="edge">
<title>Node2&#45;&gt;Node4</title>
<g id="a_edge10_Node000002_Node000004"><a xlink:title=" ">
<path fill="none" stroke="#63b8ff" d="M255.41,-566.55C299.49,-561.06 357.67,-547.27 396.75,-513 454.57,-462.29 476.22,-367.7 483.27,-325.4"/>
<polygon fill="#63b8ff" stroke="#63b8ff" points="486.72,-325.97 484.78,-315.56 479.8,-324.91 486.72,-325.97"/>
</a>
</g>
</g>
<!-- Node2&#45;&gt;Node6 -->
<g id="edge12_Node000002_Node000006" class="edge">
<title>Node2&#45;&gt;Node6</title>
<g id="a_edge12_Node000002_Node000006"><a xlink:title=" ">
<path fill="none" stroke="#63b8ff" d="M255.61,-567.56C296.12,-565.07 350.01,-560.06 396.75,-550 532.27,-520.82 576.67,-522.24 689,-441 711.86,-424.47 731.96,-398.71 744.3,-380.91"/>
<polygon fill="#63b8ff" stroke="#63b8ff" points="747.11,-382.99 749.78,-372.74 741.3,-379.1 747.11,-382.99"/>
</a>
</g>
</g>
<!-- Node9 -->
<g id="Node000009" class="node">
<title>Node9</title>
<g id="a_Node000009"><a xlink:href="validate_8cpp.html#ac8317193b0ce2ab0c3d8d0f212cdd2b6" target="_top" xlink:title="Checks if the given piece code is either empty or a valid piece.">
<polygon fill="white" stroke="#666666" points="393.75,-504 294.5,-504 294.5,-484 393.75,-484 393.75,-504"/>
<text xml:space="preserve" text-anchor="middle" x="344.12" y="-490.5" font-family="Helvetica,sans-Serif" font-size="10.00">pieceValueidEmpty</text>
</a>
</g>
</g>
<!-- Node2&#45;&gt;Node9 -->
<g id="edge11_Node000002_Node000009" class="edge">
<title>Node2&#45;&gt;Node9</title>
<g id="a_edge11_Node000002_Node000009"><a xlink:title=" ">
<path fill="none" stroke="#63b8ff" d="M214.21,-559.59C239.68,-546.63 283.42,-524.37 312.8,-509.43"/>
<polygon fill="#63b8ff" stroke="#63b8ff" points="314.24,-512.62 321.57,-504.97 311.07,-506.38 314.24,-512.62"/>
</a>
</g>
</g>
<!-- Node3&#45;&gt;Node4 -->
<g id="edge3_Node000003_Node000004" class="edge">
<title>Node3&#45;&gt;Node4</title>
<g id="a_edge3_Node000003_Node000004"><a xlink:title=" ">
<path fill="none" stroke="#63b8ff" d="M356.05,-635.54C367.62,-623.92 385.7,-604.14 396.75,-584 445.77,-494.67 472.77,-374.37 482.28,-325.74"/>
<polygon fill="#63b8ff" stroke="#63b8ff" points="485.7,-326.46 484.13,-315.98 478.82,-325.15 485.7,-326.46"/>
</a>
</g>
</g>
<!-- Node3&#45;&gt;Node6 -->
<g id="edge9_Node000003_Node000006" class="edge">
<title>Node3&#45;&gt;Node6</title>
<g id="a_edge9_Node000003_Node000006"><a xlink:title=" ">
<path fill="none" stroke="#63b8ff" d="M390.24,-649.11C473.02,-653.83 644.73,-658.73 689,-622 726.36,-591 747.89,-439.03 754.72,-382.36"/>
<polygon fill="#63b8ff" stroke="#63b8ff" points="758.17,-383.07 755.85,-372.73 751.21,-382.26 758.17,-383.07"/>
</a>
</g>
</g>
<!-- Node3&#45;&gt;Node8 -->
<g id="edge8_Node000003_Node000008" class="edge">
<title>Node3&#45;&gt;Node8</title>
<g id="a_edge8_Node000003_Node000008"><a xlink:title=" ">
<path fill="none" stroke="#63b8ff" d="M384.06,-656.48C401.63,-661.21 422.49,-666.83 440.77,-671.75"/>
<polygon fill="#63b8ff" stroke="#63b8ff" points="439.74,-675.1 450.31,-674.32 441.56,-668.34 439.74,-675.1"/>
</a>
</g>
</g>
<!-- Node5 -->
<g id="Node000005" class="node">
<title>Node5</title>
<g id="a_Node000005"><a xlink:href="hash__keys_8cpp.html#a8c1832e1dfd853cce944ddd2df57dd53" target="_top" xlink:title="Generates a Zobrist hash key for the given board position.">
<polygon fill="white" stroke="#666666" points="689,-352 577.75,-352 577.75,-332 689,-332 689,-352"/>
<text xml:space="preserve" text-anchor="middle" x="633.38" y="-338.5" font-family="Helvetica,sans-Serif" font-size="10.00">generatePositionKeys</text>
</a>
</g>
</g>
<!-- Node4&#45;&gt;Node5 -->
<g id="edge4_Node000004_Node000005" class="edge">
<title>Node4&#45;&gt;Node5</title>
<g id="a_edge4_Node000004_Node000005"><a xlink:title=" ">
<path fill="none" stroke="#63b8ff" d="M528.01,-314.48C544.63,-318.87 564.14,-324.01 581.77,-328.66"/>
<polygon fill="#63b8ff" stroke="#63b8ff" points="580.72,-332 591.28,-331.16 582.5,-325.23 580.72,-332"/>
</a>
</g>
</g>
<!-- Node7 -->
<g id="Node000007" class="node">
<title>Node7</title>
<g id="a_Node000007"><a xlink:href="board_8cpp.html#addbaf4fbab51f8032e0e7aabbffeab96" target="_top" xlink:title="Validate that piece list array is consistent with board state.">
<polygon fill="white" stroke="#666666" points="675.88,-314 590.88,-314 590.88,-294 675.88,-294 675.88,-314"/>
<text xml:space="preserve" text-anchor="middle" x="633.38" y="-300.5" font-family="Helvetica,sans-Serif" font-size="10.00">isPieceListValid</text>
</a>
</g>
</g>
<!-- Node4&#45;&gt;Node7 -->
<g id="edge6_Node000004_Node000007" class="edge">
<title>Node4&#45;&gt;Node7</title>
<g id="a_edge6_Node000004_Node000007"><a xlink:title=" ">
<path fill="none" stroke="#63b8ff" d="M534.25,-304C548.69,-304 564.75,-304 579.62,-304"/>
<polygon fill="#63b8ff" stroke="#63b8ff" points="579.2,-307.5 589.2,-304 579.2,-300.5 579.2,-307.5"/>
</a>
</g>
</g>
<!-- Node5&#45;&gt;Node6 -->
<g id="edge5_Node000005_Node000006" class="edge">
<title>Node5&#45;&gt;Node6</title>
<g id="a_edge5_Node000005_Node000006"><a xlink:title=" ">
<path fill="none" stroke="#63b8ff" d="M689.29,-350.5C697.44,-351.76 705.74,-353.05 713.61,-354.26"/>
<polygon fill="#63b8ff" stroke="#63b8ff" points="712.86,-357.69 723.28,-355.76 713.93,-350.77 712.86,-357.69"/>
</a>
</g>
</g>
<!-- Node7&#45;&gt;Node6 -->
<g id="edge7_Node000007_Node000006" class="edge">
<title>Node7&#45;&gt;Node6</title>
<g id="a_edge7_Node000007_Node000006"><a xlink:title=" ">
<path fill="none" stroke="#63b8ff" d="M667.38,-314.44C674.6,-317.01 682.13,-319.92 689,-323 703.19,-329.37 718.36,-337.67 730.77,-344.89"/>
<polygon fill="#63b8ff" stroke="#63b8ff" points="728.78,-347.78 739.17,-349.86 732.35,-341.75 728.78,-347.78"/>
</a>
</g>
</g>
<!-- Node10&#45;&gt;Node4 -->
<g id="edge17_Node000010_Node000004" class="edge">
<title>Node10&#45;&gt;Node4</title>
<g id="a_edge17_Node000010_Node000004"><a xlink:title=" ">
<path fill="none" stroke="#63b8ff" d="M246.38,-350.74C297.87,-340.71 376.06,-325.47 429.06,-315.15"/>
<polygon fill="#63b8ff" stroke="#63b8ff" points="429.66,-318.59 438.81,-313.24 428.33,-311.72 429.66,-318.59"/>
</a>
</g>
</g>
<!-- Node10&#45;&gt;Node6 -->
<g id="edge18_Node000010_Node000006" class="edge">
<title>Node10&#45;&gt;Node6</title>
<g id="a_edge18_Node000010_Node000006"><a xlink:title=" ">
<path fill="none" stroke="#63b8ff" d="M246.5,-361C357.01,-361 611.05,-361 713.3,-361"/>
<polygon fill="#63b8ff" stroke="#63b8ff" points="713.2,-364.5 723.2,-361 713.2,-357.5 713.2,-364.5"/>
</a>
</g>
</g>
<!-- Node10&#45;&gt;Node11 -->
<g id="edge14_Node000010_Node000011" class="edge">
<title>Node10&#45;&gt;Node11</title>
<g id="a_edge14_Node000010_Node000011"><a xlink:title=" ">
<path fill="none" stroke="#63b8ff" d="M210.02,-350.65C235.84,-334.23 286.41,-302.07 317.24,-282.46"/>
<polygon fill="#63b8ff" stroke="#63b8ff" points="319.04,-285.47 325.6,-277.15 315.28,-279.56 319.04,-285.47"/>
</a>
</g>
</g>
<!-- Node11&#45;&gt;Node4 -->
<g id="edge15_Node000011_Node000004" class="edge">
<title>Node11&#45;&gt;Node4</title>
<g id="a_edge15_Node000011_Node000004"><a xlink:title=" ">
<path fill="none" stroke="#63b8ff" d="M384.06,-276.48C400.26,-280.85 419.26,-285.96 436.45,-290.59"/>
<polygon fill="#63b8ff" stroke="#63b8ff" points="435.41,-293.94 445.98,-293.16 437.23,-287.18 435.41,-293.94"/>
</a>
</g>
</g>
<!-- Node11&#45;&gt;Node6 -->
<g id="edge16_Node000011_Node000006" class="edge">
<title>Node11&#45;&gt;Node6</title>
<g id="a_edge16_Node000011_Node000006"><a xlink:title=" ">
<path fill="none" stroke="#63b8ff" d="M384.64,-258.85C451.18,-248.78 588.2,-236.61 689,-285 713.97,-296.99 733.85,-322.67 745.54,-340.86"/>
<polygon fill="#63b8ff" stroke="#63b8ff" points="742.47,-342.54 750.67,-349.25 748.44,-338.89 742.47,-342.54"/>
</a>
</g>
</g>
<!-- Node12&#45;&gt;Node4 -->
<g id="edge21_Node000012_Node000004" class="edge">
<title>Node12&#45;&gt;Node4</title>
<g id="a_edge21_Node000012_Node000004"><a xlink:title=" ">
<path fill="none" stroke="#63b8ff" d="M354.83,-162.45C378.5,-187.95 439.5,-253.65 469.33,-285.77"/>
<polygon fill="#63b8ff" stroke="#63b8ff" points="466.45,-287.82 475.82,-292.77 471.58,-283.06 466.45,-287.82"/>
</a>
</g>
</g>
<!-- Node12&#45;&gt;Node6 -->
<g id="edge22_Node000012_Node000006" class="edge">
<title>Node12&#45;&gt;Node6</title>
<g id="a_edge22_Node000012_Node000006"><a xlink:title=" ">
<path fill="none" stroke="#63b8ff" d="M397.2,-150.68C481.86,-149.59 644.37,-152.14 689,-186 738.24,-223.36 751.91,-301.35 755.69,-339.31"/>
<polygon fill="#63b8ff" stroke="#63b8ff" points="752.18,-339.35 756.5,-349.03 759.16,-338.77 752.18,-339.35"/>
</a>
</g>
</g>
<!-- Node13&#45;&gt;Node3 -->
<g id="edge25_Node000013_Node000003" class="edge">
<title>Node13&#45;&gt;Node3</title>
<g id="a_edge25_Node000013_Node000003"><a xlink:title=" ">
<path fill="none" stroke="#63b8ff" d="M205.39,-504.24C218,-515.44 238.58,-534.08 255.5,-551 281.13,-576.64 309.31,-607.75 326.61,-627.22"/>
<polygon fill="#63b8ff" stroke="#63b8ff" points="323.92,-629.46 333.17,-634.63 329.17,-624.83 323.92,-629.46"/>
</a>
</g>
</g>
<!-- Node13&#45;&gt;Node4 -->
<g id="edge26_Node000013_Node000004" class="edge">
<title>Node13&#45;&gt;Node4</title>
<g id="a_edge26_Node000013_Node000004"><a xlink:title=" ">
<path fill="none" stroke="#63b8ff" d="M209.89,-483.51C258.24,-452.11 402.12,-358.65 460.85,-320.5"/>
<polygon fill="#63b8ff" stroke="#63b8ff" points="462.41,-323.66 468.89,-315.28 458.6,-317.79 462.41,-323.66"/>
</a>
</g>
</g>
<!-- Node13&#45;&gt;Node6 -->
<g id="edge28_Node000013_Node000006" class="edge">
<title>Node13&#45;&gt;Node6</title>
<g id="a_edge28_Node000013_Node000006"><a xlink:title=" ">
<path fill="none" stroke="#63b8ff" d="M234.13,-504.45C275.34,-513.55 340.96,-523.75 396.75,-513 528.56,-487.59 671.71,-410.78 730.07,-377.11"/>
<polygon fill="#63b8ff" stroke="#63b8ff" points="731.78,-380.17 738.65,-372.11 728.25,-374.12 731.78,-380.17"/>
</a>
</g>
</g>
<!-- Node13&#45;&gt;Node9 -->
<g id="edge27_Node000013_Node000009" class="edge">
<title>Node13&#45;&gt;Node9</title>
<g id="a_edge27_Node000013_Node000009"><a xlink:title=" ">
<path fill="none" stroke="#63b8ff" d="M255.8,-494C264.72,-494 273.88,-494 282.77,-494"/>
<polygon fill="#63b8ff" stroke="#63b8ff" points="282.73,-497.5 292.73,-494 282.73,-490.5 282.73,-497.5"/>
</a>
</g>
</g>
<!-- Node14&#45;&gt;Node4 -->
<g id="edge31_Node000014_Node000004" class="edge">
<title>Node14&#45;&gt;Node4</title>
<g id="a_edge31_Node000014_Node000004"><a xlink:title=" ">
<path fill="none" stroke="#63b8ff" d="M246.9,-226.23C288.71,-226.42 347.86,-230.24 396.75,-247 422.48,-255.82 448.3,-273.43 465.55,-286.75"/>
<polygon fill="#63b8ff" stroke="#63b8ff" points="463.01,-289.2 473.01,-292.69 467.37,-283.72 463.01,-289.2"/>
</a>
</g>
</g>
<!-- Node14&#45;&gt;Node6 -->
<g id="edge32_Node000014_Node000006" class="edge">
<title>Node14&#45;&gt;Node6</title>
<g id="a_edge32_Node000014_Node000006"><a xlink:title=" ">
<path fill="none" stroke="#63b8ff" d="M234.81,-217.51C324.88,-196.96 543.35,-160.86 689,-251 721.81,-271.31 741.27,-313.9 750.51,-339.72"/>
<polygon fill="#63b8ff" stroke="#63b8ff" points="747.17,-340.76 753.67,-349.13 753.81,-338.54 747.17,-340.76"/>
</a>
</g>
</g>
<!-- Node14&#45;&gt;Node11 -->
<g id="edge30_Node000014_Node000011" class="edge">
<title>Node14&#45;&gt;Node11</title>
<g id="a_edge30_Node000014_Node000011"><a xlink:title=" ">
<path fill="none" stroke="#63b8ff" d="M234.96,-238.48C252.78,-243.02 273.81,-248.37 292.56,-253.14"/>
<polygon fill="#63b8ff" stroke="#63b8ff" points="291.57,-256.5 302.12,-255.57 293.3,-249.71 291.57,-256.5"/>
</a>
</g>
</g>
<!-- Node15&#45;&gt;Node4 -->
<g id="edge35_Node000015_Node000004" class="edge">
<title>Node15&#45;&gt;Node4</title>
<g id="a_edge35_Node000015_Node000004"><a xlink:title=" ">
<path fill="none" stroke="#63b8ff" d="M371.3,-115.43C380.15,-119.88 389.59,-125.74 396.75,-133 440.72,-177.62 468.2,-248.27 479.83,-283.13"/>
<polygon fill="#63b8ff" stroke="#63b8ff" points="476.42,-283.98 482.81,-292.43 483.09,-281.84 476.42,-283.98"/>
</a>
</g>
</g>
<!-- Node15&#45;&gt;Node6 -->
<g id="edge39_Node000015_Node000006" class="edge">
<title>Node15&#45;&gt;Node6</title>
<g id="a_edge39_Node000015_Node000006"><a xlink:title=" ">
<path fill="none" stroke="#63b8ff" d="M391.18,-105.55C474.27,-107.48 644.72,-115.97 689,-153 745.92,-200.6 755.64,-296.6 757.05,-339.47"/>
<polygon fill="#63b8ff" stroke="#63b8ff" points="753.55,-339.29 757.24,-349.22 760.55,-339.16 753.55,-339.29"/>
</a>
</g>
</g>
<!-- Node16 -->
<g id="Node000016" class="node">
<title>Node16</title>
<g id="a_Node000016"><a xlink:href="validate_8cpp.html#aac5a1baab60b7b72d85de73be258f91b" target="_top" xlink:title="Checks if the given piece code is empty, valid, or OFFBOARD.">
<polygon fill="white" stroke="#666666" points="541.75,-96 432.75,-96 432.75,-76 541.75,-76 541.75,-96"/>
<text xml:space="preserve" text-anchor="middle" x="487.25" y="-82.5" font-family="Helvetica,sans-Serif" font-size="10.00">PceValidEmptyOffbrd</text>
</a>
</g>
</g>
<!-- Node15&#45;&gt;Node16 -->
<g id="edge36_Node000015_Node000016" class="edge">
<title>Node15&#45;&gt;Node16</title>
<g id="a_edge36_Node000015_Node000016"><a xlink:title=" ">
<path fill="none" stroke="#63b8ff" d="M390.94,-98.83C400.53,-97.54 410.82,-96.15 420.96,-94.79"/>
<polygon fill="#63b8ff" stroke="#63b8ff" points="421.36,-98.27 430.81,-93.46 420.43,-91.33 421.36,-98.27"/>
</a>
</g>
</g>
<!-- Node17 -->
<g id="Node000017" class="node">
<title>Node17</title>
<g id="a_Node000017"><a xlink:href="validate_8cpp.html#ad7a2e012bffa6db3df97e7742c9d731d" target="_top" xlink:title="Checks if the given side identifier is valid.">
<polygon fill="white" stroke="#666666" points="515.5,-58 459,-58 459,-38 515.5,-38 515.5,-58"/>
<text xml:space="preserve" text-anchor="middle" x="487.25" y="-44.5" font-family="Helvetica,sans-Serif" font-size="10.00">SideValid</text>
</a>
</g>
</g>
<!-- Node15&#45;&gt;Node17 -->
<g id="edge37_Node000015_Node000017" class="edge">
<title>Node15&#45;&gt;Node17</title>
<g id="a_edge37_Node000015_Node000017"><a xlink:title=" ">
<path fill="none" stroke="#63b8ff" d="M368.01,-94.57C385.59,-86.68 410.53,-75.75 432.75,-67 437.71,-65.05 442.95,-63.07 448.15,-61.17"/>
<polygon fill="#63b8ff" stroke="#63b8ff" points="448.97,-64.6 457.2,-57.92 446.61,-58.01 448.97,-64.6"/>
</a>
</g>
</g>
<!-- Node18 -->
<g id="Node000018" class="node">
<title>Node18</title>
<g id="a_Node000018"><a xlink:href="validate_8cpp.html#a48b5f0e20cf731ceeeb659fbc27b972c" target="_top" xlink:title="Checks if a given square index is within the 120&#45;based range.">
<polygon fill="white" stroke="#666666" points="513.25,-20 461.25,-20 461.25,0 513.25,0 513.25,-20"/>
<text xml:space="preserve" text-anchor="middle" x="487.25" y="-6.5" font-family="Helvetica,sans-Serif" font-size="10.00">SqIs120</text>
</a>
</g>
</g>
<!-- Node15&#45;&gt;Node18 -->
<g id="edge38_Node000015_Node000018" class="edge">
<title>Node15&#45;&gt;Node18</title>
<g id="a_edge38_Node000015_Node000018"><a xlink:title=" ">
<path fill="none" stroke="#63b8ff" d="M354.67,-94.51C369.82,-78.42 400.91,-47.56 432.75,-29 438.18,-25.84 444.22,-23.07 450.23,-20.7"/>
<polygon fill="#63b8ff" stroke="#63b8ff" points="451.25,-24.05 459.47,-17.37 448.87,-17.47 451.25,-24.05"/>
</a>
</g>
</g>
<!-- Node19&#45;&gt;Node6 -->
<g id="edge42_Node000019_Node000006" class="edge">
<title>Node19&#45;&gt;Node6</title>
<g id="a_edge42_Node000019_Node000006"><a xlink:title=" ">
<path fill="none" stroke="#63b8ff" d="M227.24,-416.44C307.35,-412.4 516.27,-400.16 689,-375 696.96,-373.84 705.39,-372.34 713.5,-370.75"/>
<polygon fill="#63b8ff" stroke="#63b8ff" points="714.11,-374.2 723.2,-368.77 712.71,-367.34 714.11,-374.2"/>
</a>
</g>
</g>
<!-- Node19&#45;&gt;Node9 -->
<g id="edge41_Node000019_Node000009" class="edge">
<title>Node19&#45;&gt;Node9</title>
<g id="a_edge41_Node000019_Node000009"><a xlink:title=" ">
<path fill="none" stroke="#63b8ff" d="M214.21,-428.41C239.68,-441.37 283.42,-463.63 312.8,-478.57"/>
<polygon fill="#63b8ff" stroke="#63b8ff" points="311.07,-481.62 321.57,-483.03 314.24,-475.38 311.07,-481.62"/>
</a>
</g>
</g>
</g>
</svg>
