<?xml version="1.0" encoding="UTF-8" standalone="no"?>
<!DOCTYPE svg PUBLIC "-//W3C//DTD SVG 1.1//EN"
 "http://www.w3.org/Graphics/SVG/1.1/DTD/svg11.dtd">
<!-- Generated by graphviz version 13.1.2 (20250808.2320)
 -->
<!-- Title: move_generator.h Pages: 1 -->
<svg width="558pt" height="84pt"
 viewBox="0.00 0.00 558.00 84.00" xmlns="http://www.w3.org/2000/svg" xmlns:xlink="http://www.w3.org/1999/xlink">
<g id="graph0" class="graph" transform="scale(1 1) rotate(0) translate(4 80)">
<title>move_generator.h</title>
<!-- Node1 -->
<g id="Node000001" class="node">
<title>Node1</title>
<g id="a_Node000001"><a xlink:title=" ">
<polygon fill="#999999" stroke="#666666" points="359.25,-76 265.25,-76 265.25,-56 359.25,-56 359.25,-76"/>
<text xml:space="preserve" text-anchor="middle" x="312.25" y="-62.5" font-family="Helvetica,sans-Serif" font-size="10.00">move_generator.h</text>
</a>
</g>
</g>
<!-- Node2 -->
<g id="Node000002" class="node">
<title>Node2</title>
<g id="a_Node000002"><a xlink:href="interactive__helpers_8cpp.html" target="_top" xlink:title=" ">
<polygon fill="white" stroke="#666666" points="116.5,-20 0,-20 0,0 116.5,0 116.5,-20"/>
<text xml:space="preserve" text-anchor="middle" x="58.25" y="-6.5" font-family="Helvetica,sans-Serif" font-size="10.00">interactive_helpers.cpp</text>
</a>
</g>
</g>
<!-- Node1&#45;&gt;Node2 -->
<g id="edge1_Node000001_Node000002" class="edge">
<title>Node1&#45;&gt;Node2</title>
<g id="a_edge1_Node000001_Node000002"><a xlink:title=" ">
<path fill="none" stroke="#63b8ff" d="M256.69,-53.19C210.48,-43.36 145.56,-29.56 102.73,-20.46"/>
<polygon fill="#63b8ff" stroke="#63b8ff" points="255.73,-56.56 266.24,-55.22 257.18,-49.71 255.73,-56.56"/>
</a>
</g>
</g>
<!-- Node3 -->
<g id="Node000003" class="node">
<title>Node3</title>
<g id="a_Node000003"><a xlink:href="main_8cpp.html" target="_top" xlink:title=" ">
<polygon fill="white" stroke="#666666" points="190.12,-20 134.38,-20 134.38,0 190.12,0 190.12,-20"/>
<text xml:space="preserve" text-anchor="middle" x="162.25" y="-6.5" font-family="Helvetica,sans-Serif" font-size="10.00">main.cpp</text>
</a>
</g>
</g>
<!-- Node1&#45;&gt;Node3 -->
<g id="edge2_Node000001_Node000003" class="edge">
<title>Node1&#45;&gt;Node3</title>
<g id="a_edge2_Node000001_Node000003"><a xlink:title=" ">
<path fill="none" stroke="#63b8ff" d="M275.56,-51.79C248.63,-42.1 212.7,-29.16 188.58,-20.48"/>
<polygon fill="#63b8ff" stroke="#63b8ff" points="274.1,-54.99 284.7,-55.08 276.47,-48.4 274.1,-54.99"/>
</a>
</g>
</g>
<!-- Node4 -->
<g id="Node000004" class="node">
<title>Node4</title>
<g id="a_Node000004"><a xlink:href="move__generator_8cpp.html" target="_top" xlink:title=" ">
<polygon fill="white" stroke="#666666" points="312.5,-20 208,-20 208,0 312.5,0 312.5,-20"/>
<text xml:space="preserve" text-anchor="middle" x="260.25" y="-6.5" font-family="Helvetica,sans-Serif" font-size="10.00">move_generator.cpp</text>
</a>
</g>
</g>
<!-- Node1&#45;&gt;Node4 -->
<g id="edge3_Node000001_Node000004" class="edge">
<title>Node1&#45;&gt;Node4</title>
<g id="a_edge3_Node000001_Node000004"><a xlink:title=" ">
<path fill="none" stroke="#63b8ff" d="M295.46,-47.57C286.73,-38.5 276.41,-27.78 269.2,-20.3"/>
<polygon fill="#63b8ff" stroke="#63b8ff" points="292.68,-49.73 302.14,-54.5 297.73,-44.87 292.68,-49.73"/>
</a>
</g>
</g>
<!-- Node5 -->
<g id="Node000005" class="node">
<title>Node5</title>
<g id="a_Node000005"><a xlink:href="notation_8cpp.html" target="_top" xlink:title=" ">
<polygon fill="white" stroke="#666666" points="399.88,-20 330.62,-20 330.62,0 399.88,0 399.88,-20"/>
<text xml:space="preserve" text-anchor="middle" x="365.25" y="-6.5" font-family="Helvetica,sans-Serif" font-size="10.00">notation.cpp</text>
</a>
</g>
</g>
<!-- Node1&#45;&gt;Node5 -->
<g id="edge4_Node000001_Node000005" class="edge">
<title>Node1&#45;&gt;Node5</title>
<g id="a_edge4_Node000001_Node000005"><a xlink:title=" ">
<path fill="none" stroke="#63b8ff" d="M329.36,-47.57C338.26,-38.5 348.78,-27.78 356.12,-20.3"/>
<polygon fill="#63b8ff" stroke="#63b8ff" points="327.05,-44.93 322.54,-54.51 332.04,-49.83 327.05,-44.93"/>
</a>
</g>
</g>
<!-- Node6 -->
<g id="Node000006" class="node">
<title>Node6</title>
<g id="a_Node000006"><a xlink:href="perft_8cpp.html" target="_top" xlink:title=" ">
<polygon fill="white" stroke="#666666" points="472.38,-20 418.12,-20 418.12,0 472.38,0 472.38,-20"/>
<text xml:space="preserve" text-anchor="middle" x="445.25" y="-6.5" font-family="Helvetica,sans-Serif" font-size="10.00">perft.cpp</text>
</a>
</g>
</g>
<!-- Node1&#45;&gt;Node6 -->
<g id="edge5_Node000001_Node000006" class="edge">
<title>Node1&#45;&gt;Node6</title>
<g id="a_edge5_Node000001_Node000006"><a xlink:title=" ">
<path fill="none" stroke="#63b8ff" d="M346.06,-51.27C369.79,-41.64 400.9,-29.01 421.9,-20.48"/>
<polygon fill="#63b8ff" stroke="#63b8ff" points="344.77,-48.02 336.82,-55.02 347.4,-54.51 344.77,-48.02"/>
</a>
</g>
</g>
<!-- Node7 -->
<g id="Node000007" class="node">
<title>Node7</title>
<g id="a_Node000007"><a xlink:href="setup_8cpp.html" target="_top" xlink:title=" ">
<polygon fill="white" stroke="#666666" points="549.62,-20 490.88,-20 490.88,0 549.62,0 549.62,-20"/>
<text xml:space="preserve" text-anchor="middle" x="520.25" y="-6.5" font-family="Helvetica,sans-Serif" font-size="10.00">setup.cpp</text>
</a>
</g>
</g>
<!-- Node1&#45;&gt;Node7 -->
<g id="edge6_Node000001_Node000007" class="edge">
<title>Node1&#45;&gt;Node7</title>
<g id="a_edge6_Node000001_Node000007"><a xlink:title=" ">
<path fill="none" stroke="#63b8ff" d="M359.62,-52.7C399.85,-42.26 456.33,-27.59 490.49,-18.73"/>
<polygon fill="#63b8ff" stroke="#63b8ff" points="358.75,-49.31 349.95,-55.21 360.5,-56.09 358.75,-49.31"/>
</a>
</g>
</g>
</g>
</svg>
