<?xml version="1.0" encoding="UTF-8" standalone="no"?>
<!DOCTYPE svg PUBLIC "-//W3C//DTD SVG 1.1//EN"
 "http://www.w3.org/Graphics/SVG/1.1/DTD/svg11.dtd">
<!-- Generated by graphviz version 13.1.2 (20250808.2320)
 -->
<!-- Title: AddWhitePawnCapMove Pages: 1 -->
<svg width="648pt" height="218pt"
 viewBox="0.00 0.00 648.00 218.00" xmlns="http://www.w3.org/2000/svg" xmlns:xlink="http://www.w3.org/1999/xlink">
<g id="graph0" class="graph" transform="scale(1 1) rotate(0) translate(4 214)">
<title>AddWhitePawnCapMove</title>
<!-- Node1 -->
<g id="Node000001" class="node">
<title>Node1</title>
<g id="a_Node000001"><a xlink:title=" ">
<polygon fill="#999999" stroke="#666666" points="125.5,-96 0,-96 0,-76 125.5,-76 125.5,-96"/>
<text xml:space="preserve" text-anchor="middle" x="62.75" y="-82.5" font-family="Helvetica,sans-Serif" font-size="10.00">AddWhitePawnCapMove</text>
</a>
</g>
</g>
<!-- Node2 -->
<g id="Node000002" class="node">
<title>Node2</title>
<g id="a_Node000002"><a xlink:href="move__generator_8cpp.html#ad22de88ed58f37e575d4d3bbb7925329" target="_top" xlink:title=" ">
<polygon fill="white" stroke="#666666" points="257,-115 165.25,-115 165.25,-95 257,-95 257,-115"/>
<text xml:space="preserve" text-anchor="middle" x="211.12" y="-101.5" font-family="Helvetica,sans-Serif" font-size="10.00">AddCaptureMove</text>
</a>
</g>
</g>
<!-- Node1&#45;&gt;Node2 -->
<g id="edge1_Node000001_Node000002" class="edge">
<title>Node1&#45;&gt;Node2</title>
<g id="a_edge1_Node000001_Node000002"><a xlink:title=" ">
<path fill="none" stroke="#63b8ff" d="M125.83,-94.06C135.03,-95.25 144.47,-96.48 153.56,-97.66"/>
<polygon fill="#63b8ff" stroke="#63b8ff" points="152.96,-101.11 163.33,-98.93 153.86,-94.17 152.96,-101.11"/>
</a>
</g>
</g>
<!-- Node3 -->
<g id="Node000003" class="node">
<title>Node3</title>
<g id="a_Node000003"><a xlink:href="board_8cpp.html#a27f071824f45c724e8ddd02c72b39871" target="_top" xlink:title="Performs a full internal consistency check of the board state.">
<polygon fill="white" stroke="#666666" points="390,-172 296.75,-172 296.75,-152 390,-152 390,-172"/>
<text xml:space="preserve" text-anchor="middle" x="343.38" y="-158.5" font-family="Helvetica,sans-Serif" font-size="10.00">isBoardStateValid</text>
</a>
</g>
</g>
<!-- Node1&#45;&gt;Node3 -->
<g id="edge9_Node000001_Node000003" class="edge">
<title>Node1&#45;&gt;Node3</title>
<g id="a_edge9_Node000001_Node000003"><a xlink:title=" ">
<path fill="none" stroke="#63b8ff" d="M87.47,-96.48C107.03,-104.82 135.67,-116.32 161.5,-124 202.3,-136.13 249.38,-145.89 285.28,-152.48"/>
<polygon fill="#63b8ff" stroke="#63b8ff" points="284.56,-155.91 295.03,-154.24 285.81,-149.02 284.56,-155.91"/>
</a>
</g>
</g>
<!-- Node5 -->
<g id="Node000005" class="node">
<title>Node5</title>
<g id="a_Node000005"><a xlink:href="validate_8cpp.html#ad5a569564ef016ed02a4fef23d89d9c4" target="_top" xlink:title="Checks if a given square index refers to a valid on&#45;board square.">
<polygon fill="white" stroke="#666666" points="639.5,-153 573.25,-153 573.25,-133 639.5,-133 639.5,-153"/>
<text xml:space="preserve" text-anchor="middle" x="606.38" y="-139.5" font-family="Helvetica,sans-Serif" font-size="10.00">SqOnBoard</text>
</a>
</g>
</g>
<!-- Node1&#45;&gt;Node5 -->
<g id="edge11_Node000001_Node000005" class="edge">
<title>Node1&#45;&gt;Node5</title>
<g id="a_edge11_Node000001_Node000005"><a xlink:title=" ">
<path fill="none" stroke="#63b8ff" d="M117,-75.54C181.93,-64.48 294.79,-50.69 390,-67 457.63,-78.58 532.23,-109.23 573.48,-127.88"/>
<polygon fill="#63b8ff" stroke="#63b8ff" points="571.79,-130.95 582.34,-131.94 574.71,-124.59 571.79,-130.95"/>
</a>
</g>
</g>
<!-- Node8 -->
<g id="Node000008" class="node">
<title>Node8</title>
<g id="a_Node000008"><a xlink:href="validate_8cpp.html#ac8317193b0ce2ab0c3d8d0f212cdd2b6" target="_top" xlink:title="Checks if the given piece code is either empty or a valid piece.">
<polygon fill="white" stroke="#666666" points="260.75,-20 161.5,-20 161.5,0 260.75,0 260.75,-20"/>
<text xml:space="preserve" text-anchor="middle" x="211.12" y="-6.5" font-family="Helvetica,sans-Serif" font-size="10.00">pieceValueidEmpty</text>
</a>
</g>
</g>
<!-- Node1&#45;&gt;Node8 -->
<g id="edge10_Node000001_Node000008" class="edge">
<title>Node1&#45;&gt;Node8</title>
<g id="a_edge10_Node000001_Node000008"><a xlink:title=" ">
<path fill="none" stroke="#63b8ff" d="M82.77,-75.66C102.4,-65.05 133.96,-48.12 161.5,-34 167.05,-31.15 172.98,-28.18 178.73,-25.32"/>
<polygon fill="#63b8ff" stroke="#63b8ff" points="179.98,-28.61 187.4,-21.04 176.88,-22.33 179.98,-28.61"/>
</a>
</g>
</g>
<!-- Node2&#45;&gt;Node3 -->
<g id="edge2_Node000002_Node000003" class="edge">
<title>Node2&#45;&gt;Node3</title>
<g id="a_edge2_Node000002_Node000003"><a xlink:title=" ">
<path fill="none" stroke="#63b8ff" d="M236.01,-115.45C256.3,-124.33 285.66,-137.18 308.4,-147.13"/>
<polygon fill="#63b8ff" stroke="#63b8ff" points="306.69,-150.2 317.25,-151 309.49,-143.79 306.69,-150.2"/>
</a>
</g>
</g>
<!-- Node2&#45;&gt;Node5 -->
<g id="edge8_Node000002_Node000005" class="edge">
<title>Node2&#45;&gt;Node5</title>
<g id="a_edge8_Node000002_Node000005"><a xlink:title=" ">
<path fill="none" stroke="#63b8ff" d="M257.24,-109.36C333.36,-116.71 486.35,-131.5 561.58,-138.77"/>
<polygon fill="#63b8ff" stroke="#63b8ff" points="561.16,-142.24 571.45,-139.72 561.84,-135.28 561.16,-142.24"/>
</a>
</g>
</g>
<!-- Node7 -->
<g id="Node000007" class="node">
<title>Node7</title>
<g id="a_Node000007"><a xlink:href="validate_8cpp.html#aca205110cd18879d0e0a965dee34b776" target="_top" xlink:title="Checks if the given piece code is a valid piece (non&#45;empty).">
<polygon fill="white" stroke="#666666" points="378.75,-96 308,-96 308,-76 378.75,-76 378.75,-96"/>
<text xml:space="preserve" text-anchor="middle" x="343.38" y="-82.5" font-family="Helvetica,sans-Serif" font-size="10.00">pieceValueid</text>
</a>
</g>
</g>
<!-- Node2&#45;&gt;Node7 -->
<g id="edge7_Node000002_Node000007" class="edge">
<title>Node2&#45;&gt;Node7</title>
<g id="a_edge7_Node000002_Node000007"><a xlink:title=" ">
<path fill="none" stroke="#63b8ff" d="M257.31,-98.41C269.92,-96.57 283.62,-94.57 296.27,-92.73"/>
<polygon fill="#63b8ff" stroke="#63b8ff" points="296.65,-96.21 306.04,-91.3 295.64,-89.28 296.65,-96.21"/>
</a>
</g>
</g>
<!-- Node4 -->
<g id="Node000004" class="node">
<title>Node4</title>
<g id="a_Node000004"><a xlink:href="hash__keys_8cpp.html#a8c1832e1dfd853cce944ddd2df57dd53" target="_top" xlink:title="Generates a Zobrist hash key for the given board position.">
<polygon fill="white" stroke="#666666" points="537.25,-210 426,-210 426,-190 537.25,-190 537.25,-210"/>
<text xml:space="preserve" text-anchor="middle" x="481.62" y="-196.5" font-family="Helvetica,sans-Serif" font-size="10.00">generatePositionKeys</text>
</a>
</g>
</g>
<!-- Node3&#45;&gt;Node4 -->
<g id="edge3_Node000003_Node000004" class="edge">
<title>Node3&#45;&gt;Node4</title>
<g id="a_edge3_Node000003_Node000004"><a xlink:title=" ">
<path fill="none" stroke="#63b8ff" d="M381.97,-172.48C397.45,-176.8 415.6,-181.86 432.07,-186.46"/>
<polygon fill="#63b8ff" stroke="#63b8ff" points="431.13,-189.83 441.7,-189.14 433.01,-183.09 431.13,-189.83"/>
</a>
</g>
</g>
<!-- Node6 -->
<g id="Node000006" class="node">
<title>Node6</title>
<g id="a_Node000006"><a xlink:href="board_8cpp.html#addbaf4fbab51f8032e0e7aabbffeab96" target="_top" xlink:title="Validate that piece list array is consistent with board state.">
<polygon fill="white" stroke="#666666" points="524.12,-172 439.12,-172 439.12,-152 524.12,-152 524.12,-172"/>
<text xml:space="preserve" text-anchor="middle" x="481.62" y="-158.5" font-family="Helvetica,sans-Serif" font-size="10.00">isPieceListValid</text>
</a>
</g>
</g>
<!-- Node3&#45;&gt;Node6 -->
<g id="edge5_Node000003_Node000006" class="edge">
<title>Node3&#45;&gt;Node6</title>
<g id="a_edge5_Node000003_Node000006"><a xlink:title=" ">
<path fill="none" stroke="#63b8ff" d="M390.12,-162C402.2,-162 415.33,-162 427.75,-162"/>
<polygon fill="#63b8ff" stroke="#63b8ff" points="427.38,-165.5 437.38,-162 427.38,-158.5 427.38,-165.5"/>
</a>
</g>
</g>
<!-- Node4&#45;&gt;Node5 -->
<g id="edge4_Node000004_Node000005" class="edge">
<title>Node4&#45;&gt;Node5</title>
<g id="a_edge4_Node000004_Node000005"><a xlink:title=" ">
<path fill="none" stroke="#63b8ff" d="M515.63,-189.56C522.85,-186.99 530.38,-184.08 537.25,-181 551.44,-174.63 566.61,-166.33 579.02,-159.11"/>
<polygon fill="#63b8ff" stroke="#63b8ff" points="580.6,-162.25 587.42,-154.14 577.03,-156.22 580.6,-162.25"/>
</a>
</g>
</g>
<!-- Node6&#45;&gt;Node5 -->
<g id="edge6_Node000006_Node000005" class="edge">
<title>Node6&#45;&gt;Node5</title>
<g id="a_edge6_Node000006_Node000005"><a xlink:title=" ">
<path fill="none" stroke="#63b8ff" d="M524.53,-155.51C536.53,-153.66 549.63,-151.63 561.74,-149.75"/>
<polygon fill="#63b8ff" stroke="#63b8ff" points="562.12,-153.24 571.47,-148.25 561.05,-146.32 562.12,-153.24"/>
</a>
</g>
</g>
</g>
</svg>
