<?xml version="1.0" encoding="UTF-8" standalone="no"?>
<!DOCTYPE svg PUBLIC "-//W3C//DTD SVG 1.1//EN"
 "http://www.w3.org/Graphics/SVG/1.1/DTD/svg11.dtd">
<!-- Generated by graphviz version 13.1.2 (20250808.2320)
 -->
<!-- Title: parseMoveString Pages: 1 -->
<svg width="925pt" height="778pt"
 viewBox="0.00 0.00 925.00 778.00" xmlns="http://www.w3.org/2000/svg" xmlns:xlink="http://www.w3.org/1999/xlink">
<g id="graph0" class="graph" transform="scale(1 1) rotate(0) translate(4 774)">
<title>parseMoveString</title>
<!-- Node1 -->
<g id="Node000001" class="node">
<title>Node1</title>
<g id="a_Node000001"><a xlink:title="Parse a move from coordinate notation.">
<polygon fill="#999999" stroke="#666666" points="89.5,-438 0,-438 0,-418 89.5,-418 89.5,-438"/>
<text xml:space="preserve" text-anchor="middle" x="44.75" y="-424.5" font-family="Helvetica,sans-Serif" font-size="10.00">parseMoveString</text>
</a>
</g>
</g>
<!-- Node2 -->
<g id="Node000002" class="node">
<title>Node2</title>
<g id="a_Node000002"><a xlink:href="move__generator_8cpp.html#a4d7178784dec62b5c55f61f52c432fdf" target="_top" xlink:title="Generate all pseudo&#45;legal moves for the side to move.">
<polygon fill="white" stroke="#666666" points="219.5,-438 125.5,-438 125.5,-418 219.5,-418 219.5,-438"/>
<text xml:space="preserve" text-anchor="middle" x="172.5" y="-424.5" font-family="Helvetica,sans-Serif" font-size="10.00">generateAllMoves</text>
</a>
</g>
</g>
<!-- Node1&#45;&gt;Node2 -->
<g id="edge1_Node000001_Node000002" class="edge">
<title>Node1&#45;&gt;Node2</title>
<g id="a_edge1_Node000001_Node000002"><a xlink:title=" ">
<path fill="none" stroke="#63b8ff" d="M89.73,-428C97.53,-428 105.76,-428 113.86,-428"/>
<polygon fill="#63b8ff" stroke="#63b8ff" points="113.68,-431.5 123.68,-428 113.68,-424.5 113.68,-431.5"/>
</a>
</g>
</g>
<!-- Node5 -->
<g id="Node000005" class="node">
<title>Node5</title>
<g id="a_Node000005"><a xlink:href="board_8cpp.html#a27f071824f45c724e8ddd02c72b39871" target="_top" xlink:title="Performs a full internal consistency check of the board state.">
<polygon fill="white" stroke="#666666" points="659.38,-320 566.12,-320 566.12,-300 659.38,-300 659.38,-320"/>
<text xml:space="preserve" text-anchor="middle" x="612.75" y="-306.5" font-family="Helvetica,sans-Serif" font-size="10.00">isBoardStateValid</text>
</a>
</g>
</g>
<!-- Node1&#45;&gt;Node5 -->
<g id="edge46_Node000001_Node000005" class="edge">
<title>Node1&#45;&gt;Node5</title>
<g id="a_edge46_Node000001_Node000005"><a xlink:title=" ">
<path fill="none" stroke="#63b8ff" d="M50.42,-417.68C69.28,-377.36 144.17,-229.54 255.5,-166 358.85,-107.02 420.15,-81.88 522.25,-143 575.75,-175.03 599.1,-251.2 607.61,-288.57"/>
<polygon fill="#63b8ff" stroke="#63b8ff" points="604.14,-289.1 609.63,-298.16 610.99,-287.65 604.14,-289.1"/>
</a>
</g>
</g>
<!-- Node7 -->
<g id="Node000007" class="node">
<title>Node7</title>
<g id="a_Node000007"><a xlink:href="validate_8cpp.html#ad5a569564ef016ed02a4fef23d89d9c4" target="_top" xlink:title="Checks if a given square index refers to a valid on&#45;board square.">
<polygon fill="white" stroke="#666666" points="916.75,-391 850.5,-391 850.5,-371 916.75,-371 916.75,-391"/>
<text xml:space="preserve" text-anchor="middle" x="883.62" y="-377.5" font-family="Helvetica,sans-Serif" font-size="10.00">SqOnBoard</text>
</a>
</g>
</g>
<!-- Node1&#45;&gt;Node7 -->
<g id="edge47_Node000001_Node000007" class="edge">
<title>Node1&#45;&gt;Node7</title>
<g id="a_edge47_Node000001_Node000007"><a xlink:title=" ">
<path fill="none" stroke="#63b8ff" d="M48.28,-438.24C63.03,-495.14 143.27,-770 317.25,-770 317.25,-770 317.25,-770 613.75,-770 651.21,-770 758.87,-746.53 814.5,-678 849.44,-634.96 872.83,-463.31 880.16,-402.5"/>
<polygon fill="#63b8ff" stroke="#63b8ff" points="883.61,-403.13 881.31,-392.79 876.66,-402.31 883.61,-403.13"/>
</a>
</g>
</g>
<!-- Node3 -->
<g id="Node000003" class="node">
<title>Node3</title>
<g id="a_Node000003"><a xlink:href="move__generator_8cpp.html#a21d952c048f6586610eafeefcd4a0341" target="_top" xlink:title=" ">
<polygon fill="white" stroke="#666666" points="380.62,-552 255.88,-552 255.88,-532 380.62,-532 380.62,-552"/>
<text xml:space="preserve" text-anchor="middle" x="318.25" y="-538.5" font-family="Helvetica,sans-Serif" font-size="10.00">AddBlackPawnCapMove</text>
</a>
</g>
</g>
<!-- Node2&#45;&gt;Node3 -->
<g id="edge2_Node000002_Node000003" class="edge">
<title>Node2&#45;&gt;Node3</title>
<g id="a_edge2_Node000002_Node000003"><a xlink:title=" ">
<path fill="none" stroke="#63b8ff" d="M180.44,-438.33C193.25,-456.71 222.38,-495.28 255.5,-518 260.54,-521.46 266.15,-524.51 271.87,-527.18"/>
<polygon fill="#63b8ff" stroke="#63b8ff" points="270.23,-530.29 280.8,-530.99 272.97,-523.85 270.23,-530.29"/>
</a>
</g>
</g>
<!-- Node4 -->
<g id="Node000004" class="node">
<title>Node4</title>
<g id="a_Node000004"><a xlink:href="move__generator_8cpp.html#ad22de88ed58f37e575d4d3bbb7925329" target="_top" xlink:title=" ">
<polygon fill="white" stroke="#666666" points="515.5,-552 423.75,-552 423.75,-532 515.5,-532 515.5,-552"/>
<text xml:space="preserve" text-anchor="middle" x="469.62" y="-538.5" font-family="Helvetica,sans-Serif" font-size="10.00">AddCaptureMove</text>
</a>
</g>
</g>
<!-- Node2&#45;&gt;Node4 -->
<g id="edge20_Node000002_Node000004" class="edge">
<title>Node2&#45;&gt;Node4</title>
<g id="a_edge20_Node000002_Node000004"><a xlink:title=" ">
<path fill="none" stroke="#63b8ff" d="M185.45,-438.33C200.73,-451.03 228.45,-472.45 255.5,-485 283.23,-497.87 359.26,-516.85 412.56,-529.32"/>
<polygon fill="#63b8ff" stroke="#63b8ff" points="411.56,-532.68 422.09,-531.54 413.14,-525.86 411.56,-532.68"/>
</a>
</g>
</g>
<!-- Node2&#45;&gt;Node5 -->
<g id="edge34_Node000002_Node000005" class="edge">
<title>Node2&#45;&gt;Node5</title>
<g id="a_edge34_Node000002_Node000005"><a xlink:title=" ">
<path fill="none" stroke="#63b8ff" d="M219.88,-418.14C287.09,-403.49 415.22,-374.24 522.25,-342 539.58,-336.78 558.49,-330.16 574.45,-324.29"/>
<polygon fill="#63b8ff" stroke="#63b8ff" points="575.39,-327.68 583.54,-320.91 572.95,-321.12 575.39,-327.68"/>
</a>
</g>
</g>
<!-- Node2&#45;&gt;Node7 -->
<g id="edge45_Node000002_Node000007" class="edge">
<title>Node2&#45;&gt;Node7</title>
<g id="a_edge45_Node000002_Node000007"><a xlink:title=" ">
<path fill="none" stroke="#63b8ff" d="M175.01,-438.15C180.27,-470.19 200.55,-570.48 255.5,-629 327.52,-705.69 363.42,-732 468.62,-732 468.62,-732 468.62,-732 613.75,-732 717.7,-732 750.82,-694.16 814.5,-612 864.63,-547.33 877.93,-446.56 881.41,-402.66"/>
<polygon fill="#63b8ff" stroke="#63b8ff" points="884.88,-403.14 882.08,-392.92 877.9,-402.66 884.88,-403.14"/>
</a>
</g>
</g>
<!-- Node9 -->
<g id="Node000009" class="node">
<title>Node9</title>
<g id="a_Node000009"><a xlink:href="validate_8cpp.html#aca205110cd18879d0e0a965dee34b776" target="_top" xlink:title="Checks if the given piece code is a valid piece (non&#45;empty).">
<polygon fill="white" stroke="#666666" points="648.12,-581 577.38,-581 577.38,-561 648.12,-561 648.12,-581"/>
<text xml:space="preserve" text-anchor="middle" x="612.75" y="-567.5" font-family="Helvetica,sans-Serif" font-size="10.00">pieceValueid</text>
</a>
</g>
</g>
<!-- Node2&#45;&gt;Node9 -->
<g id="edge44_Node000002_Node000009" class="edge">
<title>Node2&#45;&gt;Node9</title>
<g id="a_edge44_Node000002_Node000009"><a xlink:title=" ">
<path fill="none" stroke="#63b8ff" d="M174.7,-438.12C178.96,-468.95 196.43,-561.82 255.5,-599 358.2,-663.65 511.95,-613.15 578.78,-585.73"/>
<polygon fill="#63b8ff" stroke="#63b8ff" points="579.85,-589.08 587.71,-581.98 577.13,-582.63 579.85,-589.08"/>
</a>
</g>
</g>
<!-- Node11 -->
<g id="Node000011" class="node">
<title>Node11</title>
<g id="a_Node000011"><a xlink:href="move__generator_8cpp.html#a529fbdfe853d3ad841c4c0b88c8e55f8" target="_top" xlink:title=" ">
<polygon fill="white" stroke="#666666" points="371.62,-357 264.88,-357 264.88,-337 371.62,-337 371.62,-357"/>
<text xml:space="preserve" text-anchor="middle" x="318.25" y="-343.5" font-family="Helvetica,sans-Serif" font-size="10.00">AddBlackPawnMove</text>
</a>
</g>
</g>
<!-- Node2&#45;&gt;Node11 -->
<g id="edge14_Node000002_Node000011" class="edge">
<title>Node2&#45;&gt;Node11</title>
<g id="a_edge14_Node000002_Node000011"><a xlink:title=" ">
<path fill="none" stroke="#63b8ff" d="M188.57,-417.63C204.76,-406.69 231.41,-389.22 255.5,-376 264.23,-371.21 273.89,-366.43 282.92,-362.18"/>
<polygon fill="#63b8ff" stroke="#63b8ff" points="284.16,-365.47 291.77,-358.1 281.23,-359.11 284.16,-365.47"/>
</a>
</g>
</g>
<!-- Node12 -->
<g id="Node000012" class="node">
<title>Node12</title>
<g id="a_Node000012"><a xlink:href="move__generator_8cpp.html#a3a38227acc56d0a4f2531c45bbf17a43" target="_top" xlink:title=" ">
<polygon fill="white" stroke="#666666" points="509.88,-286 429.38,-286 429.38,-266 509.88,-266 509.88,-286"/>
<text xml:space="preserve" text-anchor="middle" x="469.62" y="-272.5" font-family="Helvetica,sans-Serif" font-size="10.00">AddQuietMove</text>
</a>
</g>
</g>
<!-- Node2&#45;&gt;Node12 -->
<g id="edge24_Node000002_Node000012" class="edge">
<title>Node2&#45;&gt;Node12</title>
<g id="a_edge24_Node000002_Node000012"><a xlink:title=" ">
<path fill="none" stroke="#63b8ff" d="M178.94,-417.64C190.26,-397.13 218.44,-351.32 255.5,-328 305.17,-296.75 372.26,-284.28 417.8,-279.3"/>
<polygon fill="#63b8ff" stroke="#63b8ff" points="418.07,-282.79 427.68,-278.32 417.38,-275.83 418.07,-282.79"/>
</a>
</g>
</g>
<!-- Node13 -->
<g id="Node000013" class="node">
<title>Node13</title>
<g id="a_Node000013"><a xlink:href="move__generator_8cpp.html#a1f1451a443ea747e0af2376725f4c62f" target="_top" xlink:title=" ">
<polygon fill="white" stroke="#666666" points="522.25,-172 417,-172 417,-152 522.25,-152 522.25,-172"/>
<text xml:space="preserve" text-anchor="middle" x="469.62" y="-158.5" font-family="Helvetica,sans-Serif" font-size="10.00">AddEnPassantMove</text>
</a>
</g>
</g>
<!-- Node2&#45;&gt;Node13 -->
<g id="edge21_Node000002_Node000013" class="edge">
<title>Node2&#45;&gt;Node13</title>
<g id="a_edge21_Node000002_Node000013"><a xlink:title=" ">
<path fill="none" stroke="#63b8ff" d="M174.51,-417.76C178.33,-384.54 194.95,-278.83 255.5,-224 296.67,-186.72 359.03,-171.77 405.67,-165.82"/>
<polygon fill="#63b8ff" stroke="#63b8ff" points="405.83,-169.32 415.37,-164.69 405.03,-162.37 405.83,-169.32"/>
</a>
</g>
</g>
<!-- Node14 -->
<g id="Node000014" class="node">
<title>Node14</title>
<g id="a_Node000014"><a xlink:href="move__generator_8cpp.html#aa5050db53ab58a3d01f8db5b0c6681c9" target="_top" xlink:title=" ">
<polygon fill="white" stroke="#666666" points="381,-476 255.5,-476 255.5,-456 381,-456 381,-476"/>
<text xml:space="preserve" text-anchor="middle" x="318.25" y="-462.5" font-family="Helvetica,sans-Serif" font-size="10.00">AddWhitePawnCapMove</text>
</a>
</g>
</g>
<!-- Node2&#45;&gt;Node14 -->
<g id="edge25_Node000002_Node000014" class="edge">
<title>Node2&#45;&gt;Node14</title>
<g id="a_edge25_Node000002_Node000014"><a xlink:title=" ">
<path fill="none" stroke="#63b8ff" d="M213.16,-438.48C229.82,-442.89 249.38,-448.06 267.02,-452.72"/>
<polygon fill="#63b8ff" stroke="#63b8ff" points="265.69,-455.99 276.26,-455.16 267.48,-449.22 265.69,-455.99"/>
</a>
</g>
</g>
<!-- Node15 -->
<g id="Node000015" class="node">
<title>Node15</title>
<g id="a_Node000015"><a xlink:href="move__generator_8cpp.html#a6470c50ad0bc1167743755ec2a6be107" target="_top" xlink:title=" ">
<polygon fill="white" stroke="#666666" points="372,-253 264.5,-253 264.5,-233 372,-233 372,-253"/>
<text xml:space="preserve" text-anchor="middle" x="318.25" y="-239.5" font-family="Helvetica,sans-Serif" font-size="10.00">AddWhitePawnMove</text>
</a>
</g>
</g>
<!-- Node2&#45;&gt;Node15 -->
<g id="edge30_Node000002_Node000015" class="edge">
<title>Node2&#45;&gt;Node15</title>
<g id="a_edge30_Node000002_Node000015"><a xlink:title=" ">
<path fill="none" stroke="#63b8ff" d="M176.65,-417.86C185.31,-391.45 211.74,-319.59 255.5,-276 262.43,-269.09 271.11,-263.27 279.75,-258.53"/>
<polygon fill="#63b8ff" stroke="#63b8ff" points="281.08,-261.78 288.42,-254.14 277.92,-255.53 281.08,-261.78"/>
</a>
</g>
</g>
<!-- Node16 -->
<g id="Node000016" class="node">
<title>Node16</title>
<g id="a_Node000016"><a xlink:href="attack_8cpp.html#a36ea46ff61e0738a61f70dcf90b5178b" target="_top" xlink:title="Determines if a given square is attacked by a given side.">
<polygon fill="white" stroke="#666666" points="516.25,-96 423,-96 423,-76 516.25,-76 516.25,-96"/>
<text xml:space="preserve" text-anchor="middle" x="469.62" y="-82.5" font-family="Helvetica,sans-Serif" font-size="10.00">isSquareAttacked</text>
</a>
</g>
</g>
<!-- Node2&#45;&gt;Node16 -->
<g id="edge35_Node000002_Node000016" class="edge">
<title>Node2&#45;&gt;Node16</title>
<g id="a_edge35_Node000002_Node000016"><a xlink:title=" ">
<path fill="none" stroke="#63b8ff" d="M173.66,-417.65C174.8,-379.03 183.94,-241.66 255.5,-166 296.6,-122.54 363.61,-102.5 411.52,-93.39"/>
<polygon fill="#63b8ff" stroke="#63b8ff" points="411.93,-96.87 421.16,-91.66 410.7,-89.98 411.93,-96.87"/>
</a>
</g>
</g>
<!-- Node20 -->
<g id="Node000020" class="node">
<title>Node20</title>
<g id="a_Node000020"><a xlink:href="validate_8cpp.html#a63d4de5e5c2a915fbce5d856620285d6" target="_top" xlink:title="Validates that a move list is within bounds and references valid moves.">
<polygon fill="white" stroke="#666666" points="352.5,-590 284,-590 284,-570 352.5,-570 352.5,-590"/>
<text xml:space="preserve" text-anchor="middle" x="318.25" y="-576.5" font-family="Helvetica,sans-Serif" font-size="10.00">MoveListOk</text>
</a>
</g>
</g>
<!-- Node2&#45;&gt;Node20 -->
<g id="edge41_Node000002_Node000020" class="edge">
<title>Node2&#45;&gt;Node20</title>
<g id="a_edge41_Node000002_Node000020"><a xlink:title=" ">
<path fill="none" stroke="#63b8ff" d="M176.99,-438.41C185.9,-463.42 211.94,-527.31 255.5,-561 260.73,-565.04 266.82,-568.23 273.11,-570.75"/>
<polygon fill="#63b8ff" stroke="#63b8ff" points="271.72,-573.97 282.31,-573.88 273.97,-567.35 271.72,-573.97"/>
</a>
</g>
</g>
<!-- Node3&#45;&gt;Node4 -->
<g id="edge3_Node000003_Node000004" class="edge">
<title>Node3&#45;&gt;Node4</title>
<g id="a_edge3_Node000003_Node000004"><a xlink:title=" ">
<path fill="none" stroke="#63b8ff" d="M380.87,-542C391.26,-542 402,-542 412.26,-542"/>
<polygon fill="#63b8ff" stroke="#63b8ff" points="412.06,-545.5 422.06,-542 412.06,-538.5 412.06,-545.5"/>
</a>
</g>
</g>
<!-- Node3&#45;&gt;Node5 -->
<g id="edge11_Node000003_Node000005" class="edge">
<title>Node3&#45;&gt;Node5</title>
<g id="a_edge11_Node000003_Node000005"><a xlink:title=" ">
<path fill="none" stroke="#63b8ff" d="M350.61,-531.63C393.1,-516.43 469.67,-484.83 522.25,-439 558.55,-407.36 587.37,-357.96 601.75,-330.37"/>
<polygon fill="#63b8ff" stroke="#63b8ff" points="604.76,-332.17 606.17,-321.67 598.52,-329 604.76,-332.17"/>
</a>
</g>
</g>
<!-- Node3&#45;&gt;Node7 -->
<g id="edge13_Node000003_Node000007" class="edge">
<title>Node3&#45;&gt;Node7</title>
<g id="a_edge13_Node000003_Node000007"><a xlink:title=" ">
<path fill="none" stroke="#63b8ff" d="M363.33,-552.48C369.49,-554.82 375.57,-557.63 381,-561 400.77,-573.27 395.63,-589.81 417,-599 444.38,-610.78 662.23,-591.36 667.25,-590 737.96,-570.9 762.67,-567.75 814.5,-516 847.34,-483.22 867.31,-431.35 876.52,-402.38"/>
<polygon fill="#63b8ff" stroke="#63b8ff" points="879.83,-403.52 879.38,-392.93 873.13,-401.49 879.83,-403.52"/>
</a>
</g>
</g>
<!-- Node10 -->
<g id="Node000010" class="node">
<title>Node10</title>
<g id="a_Node000010"><a xlink:href="validate_8cpp.html#ac8317193b0ce2ab0c3d8d0f212cdd2b6" target="_top" xlink:title="Checks if the given piece code is either empty or a valid piece.">
<polygon fill="white" stroke="#666666" points="519.25,-590 420,-590 420,-570 519.25,-570 519.25,-590"/>
<text xml:space="preserve" text-anchor="middle" x="469.62" y="-576.5" font-family="Helvetica,sans-Serif" font-size="10.00">pieceValueidEmpty</text>
</a>
</g>
</g>
<!-- Node3&#45;&gt;Node10 -->
<g id="edge12_Node000003_Node000010" class="edge">
<title>Node3&#45;&gt;Node10</title>
<g id="a_edge12_Node000003_Node000010"><a xlink:title=" ">
<path fill="none" stroke="#63b8ff" d="M360.46,-552.48C377.77,-556.89 398.1,-562.06 416.43,-566.72"/>
<polygon fill="#63b8ff" stroke="#63b8ff" points="415.53,-570.1 426.08,-569.18 417.25,-563.32 415.53,-570.1"/>
</a>
</g>
</g>
<!-- Node4&#45;&gt;Node5 -->
<g id="edge4_Node000004_Node000005" class="edge">
<title>Node4&#45;&gt;Node5</title>
<g id="a_edge4_Node000004_Node000005"><a xlink:title=" ">
<path fill="none" stroke="#63b8ff" d="M502.46,-531.61C509.63,-528.14 516.74,-523.67 522.25,-518 575.26,-463.44 599.27,-372.51 607.83,-331.37"/>
<polygon fill="#63b8ff" stroke="#63b8ff" points="611.26,-332.06 609.76,-321.57 604.4,-330.71 611.26,-332.06"/>
</a>
</g>
</g>
<!-- Node4&#45;&gt;Node7 -->
<g id="edge10_Node000004_Node000007" class="edge">
<title>Node4&#45;&gt;Node7</title>
<g id="a_edge10_Node000004_Node000007"><a xlink:title=" ">
<path fill="none" stroke="#63b8ff" d="M515.81,-544.44C585.59,-546.02 721.23,-540.21 814.5,-480 843.74,-461.12 863.8,-424.81 874.23,-401.8"/>
<polygon fill="#63b8ff" stroke="#63b8ff" points="877.36,-403.39 878.09,-392.82 870.93,-400.62 877.36,-403.39"/>
</a>
</g>
</g>
<!-- Node4&#45;&gt;Node9 -->
<g id="edge9_Node000004_Node000009" class="edge">
<title>Node4&#45;&gt;Node9</title>
<g id="a_edge9_Node000004_Node000009"><a xlink:title=" ">
<path fill="none" stroke="#63b8ff" d="M515.67,-551.26C531.79,-554.57 549.97,-558.3 566.14,-561.63"/>
<polygon fill="#63b8ff" stroke="#63b8ff" points="564.98,-564.96 575.48,-563.55 566.39,-558.11 564.98,-564.96"/>
</a>
</g>
</g>
<!-- Node6 -->
<g id="Node000006" class="node">
<title>Node6</title>
<g id="a_Node000006"><a xlink:href="hash__keys_8cpp.html#a8c1832e1dfd853cce944ddd2df57dd53" target="_top" xlink:title="Generates a Zobrist hash key for the given board position.">
<polygon fill="white" stroke="#666666" points="814.5,-315 703.25,-315 703.25,-295 814.5,-295 814.5,-315"/>
<text xml:space="preserve" text-anchor="middle" x="758.88" y="-301.5" font-family="Helvetica,sans-Serif" font-size="10.00">generatePositionKeys</text>
</a>
</g>
</g>
<!-- Node5&#45;&gt;Node6 -->
<g id="edge5_Node000005_Node000006" class="edge">
<title>Node5&#45;&gt;Node6</title>
<g id="a_edge5_Node000005_Node000006"><a xlink:title=" ">
<path fill="none" stroke="#63b8ff" d="M659.75,-308.4C669.96,-308.05 680.98,-307.67 691.81,-307.29"/>
<polygon fill="#63b8ff" stroke="#63b8ff" points="691.61,-310.8 701.48,-306.96 691.37,-303.81 691.61,-310.8"/>
</a>
</g>
</g>
<!-- Node8 -->
<g id="Node000008" class="node">
<title>Node8</title>
<g id="a_Node000008"><a xlink:href="board_8cpp.html#addbaf4fbab51f8032e0e7aabbffeab96" target="_top" xlink:title="Validate that piece list array is consistent with board state.">
<polygon fill="white" stroke="#666666" points="801.38,-353 716.38,-353 716.38,-333 801.38,-333 801.38,-353"/>
<text xml:space="preserve" text-anchor="middle" x="758.88" y="-339.5" font-family="Helvetica,sans-Serif" font-size="10.00">isPieceListValid</text>
</a>
</g>
</g>
<!-- Node5&#45;&gt;Node8 -->
<g id="edge7_Node000005_Node000008" class="edge">
<title>Node5&#45;&gt;Node8</title>
<g id="a_edge7_Node000005_Node000008"><a xlink:title=" ">
<path fill="none" stroke="#63b8ff" d="M659.35,-320.44C673.81,-323.75 689.92,-327.44 704.85,-330.86"/>
<polygon fill="#63b8ff" stroke="#63b8ff" points="703.99,-334.25 714.52,-333.07 705.55,-327.43 703.99,-334.25"/>
</a>
</g>
</g>
<!-- Node6&#45;&gt;Node7 -->
<g id="edge6_Node000006_Node000007" class="edge">
<title>Node6&#45;&gt;Node7</title>
<g id="a_edge6_Node000006_Node000007"><a xlink:title=" ">
<path fill="none" stroke="#63b8ff" d="M795.95,-315.46C802.31,-317.89 808.74,-320.73 814.5,-324 833.25,-334.63 851.83,-350.64 864.84,-362.99"/>
<polygon fill="#63b8ff" stroke="#63b8ff" points="862.2,-365.31 871.8,-369.78 867.09,-360.3 862.2,-365.31"/>
</a>
</g>
</g>
<!-- Node8&#45;&gt;Node7 -->
<g id="edge8_Node000008_Node000007" class="edge">
<title>Node8&#45;&gt;Node7</title>
<g id="a_edge8_Node000008_Node000007"><a xlink:title=" ">
<path fill="none" stroke="#63b8ff" d="M793.74,-353.48C807.9,-357.87 824.53,-363.02 839.55,-367.66"/>
<polygon fill="#63b8ff" stroke="#63b8ff" points="838.1,-370.88 848.69,-370.5 840.17,-364.19 838.1,-370.88"/>
</a>
</g>
</g>
<!-- Node11&#45;&gt;Node5 -->
<g id="edge18_Node000011_Node000005" class="edge">
<title>Node11&#45;&gt;Node5</title>
<g id="a_edge18_Node000011_Node000005"><a xlink:title=" ">
<path fill="none" stroke="#63b8ff" d="M371.88,-340.34C423.37,-333.83 501.56,-323.94 554.56,-317.23"/>
<polygon fill="#63b8ff" stroke="#63b8ff" points="554.81,-320.73 564.29,-316 553.93,-313.79 554.81,-320.73"/>
</a>
</g>
</g>
<!-- Node11&#45;&gt;Node7 -->
<g id="edge19_Node000011_Node000007" class="edge">
<title>Node11&#45;&gt;Node7</title>
<g id="a_edge19_Node000011_Node000007"><a xlink:title=" ">
<path fill="none" stroke="#63b8ff" d="M372,-350.18C482.51,-356.85 736.55,-372.18 838.8,-378.36"/>
<polygon fill="#63b8ff" stroke="#63b8ff" points="838.51,-381.84 848.71,-378.95 838.94,-374.86 838.51,-381.84"/>
</a>
</g>
</g>
<!-- Node11&#45;&gt;Node12 -->
<g id="edge15_Node000011_Node000012" class="edge">
<title>Node11&#45;&gt;Node12</title>
<g id="a_edge15_Node000011_Node000012"><a xlink:title=" ">
<path fill="none" stroke="#63b8ff" d="M340.57,-336.65C360.35,-327.07 390.61,-312.48 417,-300 423.07,-297.13 429.55,-294.1 435.8,-291.18"/>
<polygon fill="#63b8ff" stroke="#63b8ff" points="437.01,-294.48 444.61,-287.09 434.06,-288.13 437.01,-294.48"/>
</a>
</g>
</g>
<!-- Node12&#45;&gt;Node5 -->
<g id="edge16_Node000012_Node000005" class="edge">
<title>Node12&#45;&gt;Node5</title>
<g id="a_edge16_Node000012_Node000005"><a xlink:title=" ">
<path fill="none" stroke="#63b8ff" d="M510.31,-285.56C524.88,-289.07 541.63,-293.11 557.26,-296.87"/>
<polygon fill="#63b8ff" stroke="#63b8ff" points="556.39,-300.26 566.93,-299.2 558.03,-293.46 556.39,-300.26"/>
</a>
</g>
</g>
<!-- Node12&#45;&gt;Node7 -->
<g id="edge17_Node000012_Node000007" class="edge">
<title>Node12&#45;&gt;Node7</title>
<g id="a_edge17_Node000012_Node000007"><a xlink:title=" ">
<path fill="none" stroke="#63b8ff" d="M510.34,-266.41C577.49,-252.44 715.76,-233.48 814.5,-286 844.39,-301.9 864.25,-337.42 874.46,-360.23"/>
<polygon fill="#63b8ff" stroke="#63b8ff" points="871.12,-361.31 878.23,-369.16 877.57,-358.59 871.12,-361.31"/>
</a>
</g>
</g>
<!-- Node13&#45;&gt;Node5 -->
<g id="edge22_Node000013_Node000005" class="edge">
<title>Node13&#45;&gt;Node5</title>
<g id="a_edge22_Node000013_Node000005"><a xlink:title=" ">
<path fill="none" stroke="#63b8ff" d="M480.33,-172.17C503.89,-196.89 564.42,-260.36 594.39,-291.8"/>
<polygon fill="#63b8ff" stroke="#63b8ff" points="591.5,-293.84 600.94,-298.66 596.57,-289.01 591.5,-293.84"/>
</a>
</g>
</g>
<!-- Node13&#45;&gt;Node7 -->
<g id="edge23_Node000013_Node000007" class="edge">
<title>Node13&#45;&gt;Node7</title>
<g id="a_edge23_Node000013_Node000007"><a xlink:title=" ">
<path fill="none" stroke="#63b8ff" d="M522.41,-158.89C607.04,-154.89 770.03,-152.04 814.5,-186 869.65,-228.12 880.35,-317.99 882.29,-359.35"/>
<polygon fill="#63b8ff" stroke="#63b8ff" points="878.79,-359.34 882.6,-369.22 885.78,-359.12 878.79,-359.34"/>
</a>
</g>
</g>
<!-- Node14&#45;&gt;Node4 -->
<g id="edge26_Node000014_Node000004" class="edge">
<title>Node14&#45;&gt;Node4</title>
<g id="a_edge26_Node000014_Node000004"><a xlink:title=" ">
<path fill="none" stroke="#63b8ff" d="M348.89,-476.38C359.21,-480.3 370.76,-485.02 381,-490 402.8,-500.62 426.38,-514.78 443.59,-525.64"/>
<polygon fill="#63b8ff" stroke="#63b8ff" points="441.33,-528.35 451.64,-530.79 445.1,-522.45 441.33,-528.35"/>
</a>
</g>
</g>
<!-- Node14&#45;&gt;Node5 -->
<g id="edge27_Node000014_Node000005" class="edge">
<title>Node14&#45;&gt;Node5</title>
<g id="a_edge27_Node000014_Node000005"><a xlink:title=" ">
<path fill="none" stroke="#63b8ff" d="M381.3,-455.65C423.37,-446.65 478.98,-430.72 522.25,-404 554.03,-384.38 582.18,-350.76 598.07,-329.49"/>
<polygon fill="#63b8ff" stroke="#63b8ff" points="600.73,-331.8 603.78,-321.65 595.06,-327.68 600.73,-331.8"/>
</a>
</g>
</g>
<!-- Node14&#45;&gt;Node7 -->
<g id="edge29_Node000014_Node000007" class="edge">
<title>Node14&#45;&gt;Node7</title>
<g id="a_edge29_Node000014_Node000007"><a xlink:title=" ">
<path fill="none" stroke="#63b8ff" d="M381.05,-458.23C421.31,-453.05 474.94,-445.95 522.25,-439 636.93,-422.15 771.72,-399.77 839.32,-388.36"/>
<polygon fill="#63b8ff" stroke="#63b8ff" points="839.6,-391.87 848.87,-386.75 838.43,-384.96 839.6,-391.87"/>
</a>
</g>
</g>
<!-- Node14&#45;&gt;Node10 -->
<g id="edge28_Node000014_Node000010" class="edge">
<title>Node14&#45;&gt;Node10</title>
<g id="a_edge28_Node000014_Node000010"><a xlink:title=" ">
<path fill="none" stroke="#63b8ff" d="M330.85,-476.28C343.42,-487.53 363.97,-506.19 381,-523 397.56,-539.34 397.57,-548.2 417,-561 418.96,-562.29 421.03,-563.51 423.15,-564.66"/>
<polygon fill="#63b8ff" stroke="#63b8ff" points="421.51,-567.76 432.04,-568.88 424.51,-561.43 421.51,-567.76"/>
</a>
</g>
</g>
<!-- Node15&#45;&gt;Node5 -->
<g id="edge32_Node000015_Node000005" class="edge">
<title>Node15&#45;&gt;Node5</title>
<g id="a_edge32_Node000015_Node000005"><a xlink:title=" ">
<path fill="none" stroke="#63b8ff" d="M372.2,-240.04C413.9,-239.27 473,-241.67 522.25,-257 547.04,-264.72 572.22,-280.48 589.53,-292.82"/>
<polygon fill="#63b8ff" stroke="#63b8ff" points="587.4,-295.6 597.53,-298.71 591.54,-289.96 587.4,-295.6"/>
</a>
</g>
</g>
<!-- Node15&#45;&gt;Node7 -->
<g id="edge33_Node000015_Node000007" class="edge">
<title>Node15&#45;&gt;Node7</title>
<g id="a_edge33_Node000015_Node000007"><a xlink:title=" ">
<path fill="none" stroke="#63b8ff" d="M352.69,-232.54C437.71,-208.09 665.9,-156.17 814.5,-251 853.01,-275.58 871,-329.5 878.31,-359.6"/>
<polygon fill="#63b8ff" stroke="#63b8ff" points="874.83,-360.07 880.43,-369.07 881.67,-358.55 874.83,-360.07"/>
</a>
</g>
</g>
<!-- Node15&#45;&gt;Node12 -->
<g id="edge31_Node000015_Node000012" class="edge">
<title>Node15&#45;&gt;Node12</title>
<g id="a_edge31_Node000015_Node000012"><a xlink:title=" ">
<path fill="none" stroke="#63b8ff" d="M366.51,-253.44C382.9,-257.06 401.34,-261.13 417.99,-264.81"/>
<polygon fill="#63b8ff" stroke="#63b8ff" points="417.19,-268.22 427.71,-266.96 418.7,-261.39 417.19,-268.22"/>
</a>
</g>
</g>
<!-- Node16&#45;&gt;Node5 -->
<g id="edge36_Node000016_Node000005" class="edge">
<title>Node16&#45;&gt;Node5</title>
<g id="a_edge36_Node000016_Node000005"><a xlink:title=" ">
<path fill="none" stroke="#63b8ff" d="M502.41,-96.45C509.58,-99.91 516.7,-104.37 522.25,-110 573.58,-162.07 598.28,-248.69 607.41,-288.63"/>
<polygon fill="#63b8ff" stroke="#63b8ff" points="603.98,-289.34 609.52,-298.37 610.82,-287.86 603.98,-289.34"/>
</a>
</g>
</g>
<!-- Node16&#45;&gt;Node7 -->
<g id="edge40_Node000016_Node000007" class="edge">
<title>Node16&#45;&gt;Node7</title>
<g id="a_edge40_Node000016_Node000007"><a xlink:title=" ">
<path fill="none" stroke="#63b8ff" d="M503.97,-75.52C543.61,-64.7 611.42,-51.44 667.25,-67 740.91,-87.53 767.58,-95.62 814.5,-156 863.4,-218.93 877.34,-316.76 881.2,-359.64"/>
<polygon fill="#63b8ff" stroke="#63b8ff" points="877.69,-359.67 881.97,-369.36 884.67,-359.11 877.69,-359.67"/>
</a>
</g>
</g>
<!-- Node17 -->
<g id="Node000017" class="node">
<title>Node17</title>
<g id="a_Node000017"><a xlink:href="validate_8cpp.html#aac5a1baab60b7b72d85de73be258f91b" target="_top" xlink:title="Checks if the given piece code is empty, valid, or OFFBOARD.">
<polygon fill="white" stroke="#666666" points="667.25,-20 558.25,-20 558.25,0 667.25,0 667.25,-20"/>
<text xml:space="preserve" text-anchor="middle" x="612.75" y="-6.5" font-family="Helvetica,sans-Serif" font-size="10.00">PceValidEmptyOffbrd</text>
</a>
</g>
</g>
<!-- Node16&#45;&gt;Node17 -->
<g id="edge37_Node000016_Node000017" class="edge">
<title>Node16&#45;&gt;Node17</title>
<g id="a_edge37_Node000016_Node000017"><a xlink:title=" ">
<path fill="none" stroke="#63b8ff" d="M486.78,-75.66C504.13,-64.73 532.66,-47.28 558.25,-34 564.15,-30.94 570.53,-27.87 576.75,-25.01"/>
<polygon fill="#63b8ff" stroke="#63b8ff" points="577.9,-28.33 585.59,-21.04 575.03,-21.95 577.9,-28.33"/>
</a>
</g>
</g>
<!-- Node18 -->
<g id="Node000018" class="node">
<title>Node18</title>
<g id="a_Node000018"><a xlink:href="validate_8cpp.html#ad7a2e012bffa6db3df97e7742c9d731d" target="_top" xlink:title="Checks if the given side identifier is valid.">
<polygon fill="white" stroke="#666666" points="641,-134 584.5,-134 584.5,-114 641,-114 641,-134"/>
<text xml:space="preserve" text-anchor="middle" x="612.75" y="-120.5" font-family="Helvetica,sans-Serif" font-size="10.00">SideValid</text>
</a>
</g>
</g>
<!-- Node16&#45;&gt;Node18 -->
<g id="edge38_Node000016_Node000018" class="edge">
<title>Node16&#45;&gt;Node18</title>
<g id="a_edge38_Node000016_Node000018"><a xlink:title=" ">
<path fill="none" stroke="#63b8ff" d="M509.56,-96.48C529.34,-101.81 553.3,-108.26 573.04,-113.58"/>
<polygon fill="#63b8ff" stroke="#63b8ff" points="572.09,-116.95 582.66,-116.17 573.91,-110.19 572.09,-116.95"/>
</a>
</g>
</g>
<!-- Node19 -->
<g id="Node000019" class="node">
<title>Node19</title>
<g id="a_Node000019"><a xlink:href="validate_8cpp.html#a48b5f0e20cf731ceeeb659fbc27b972c" target="_top" xlink:title="Checks if a given square index is within the 120&#45;based range.">
<polygon fill="white" stroke="#666666" points="638.75,-96 586.75,-96 586.75,-76 638.75,-76 638.75,-96"/>
<text xml:space="preserve" text-anchor="middle" x="612.75" y="-82.5" font-family="Helvetica,sans-Serif" font-size="10.00">SqIs120</text>
</a>
</g>
</g>
<!-- Node16&#45;&gt;Node19 -->
<g id="edge39_Node000016_Node000019" class="edge">
<title>Node16&#45;&gt;Node19</title>
<g id="a_edge39_Node000016_Node000019"><a xlink:title=" ">
<path fill="none" stroke="#63b8ff" d="M516.44,-86C535.37,-86 557.01,-86 574.88,-86"/>
<polygon fill="#63b8ff" stroke="#63b8ff" points="574.78,-89.5 584.78,-86 574.78,-82.5 574.78,-89.5"/>
</a>
</g>
</g>
<!-- Node20&#45;&gt;Node7 -->
<g id="edge43_Node000020_Node000007" class="edge">
<title>Node20&#45;&gt;Node7</title>
<g id="a_edge43_Node000020_Node000007"><a xlink:title=" ">
<path fill="none" stroke="#63b8ff" d="M341.56,-590.48C360.99,-599 390.18,-610.34 417,-615 592.6,-645.49 684.92,-684.37 814.5,-562 860.78,-518.3 875.87,-440.07 880.59,-402.41"/>
<polygon fill="#63b8ff" stroke="#63b8ff" points="884.03,-403.13 881.66,-392.81 877.08,-402.36 884.03,-403.13"/>
</a>
</g>
</g>
<!-- Node20&#45;&gt;Node10 -->
<g id="edge42_Node000020_Node000010" class="edge">
<title>Node20&#45;&gt;Node10</title>
<g id="a_edge42_Node000020_Node000010"><a xlink:title=" ">
<path fill="none" stroke="#63b8ff" d="M352.77,-580C369.16,-580 389.4,-580 408.35,-580"/>
<polygon fill="#63b8ff" stroke="#63b8ff" points="408.11,-583.5 418.11,-580 408.11,-576.5 408.11,-583.5"/>
</a>
</g>
</g>
</g>
</svg>
