<?xml version="1.0" encoding="UTF-8" standalone="no"?>
<!DOCTYPE svg PUBLIC "-//W3C//DTD SVG 1.1//EN"
 "http://www.w3.org/Graphics/SVG/1.1/DTD/svg11.dtd">
<!-- Generated by graphviz version 13.1.2 (20250808.2320)
 -->
<!-- Title: notation.cpp Pages: 1 -->
<svg width="379pt" height="252pt"
 viewBox="0.00 0.00 379.00 252.00" xmlns="http://www.w3.org/2000/svg" xmlns:xlink="http://www.w3.org/1999/xlink">
<g id="graph0" class="graph" transform="scale(1 1) rotate(0) translate(4 248)">
<title>notation.cpp</title>
<!-- Node1 -->
<g id="Node000001" class="node">
<title>Node1</title>
<g id="a_Node000001"><a xlink:title=" ">
<polygon fill="#999999" stroke="#666666" points="197.75,-244 128.5,-244 128.5,-224 197.75,-224 197.75,-244"/>
<text xml:space="preserve" text-anchor="middle" x="163.12" y="-230.5" font-family="Helvetica,sans-Serif" font-size="10.00">notation.cpp</text>
</a>
</g>
</g>
<!-- Node2 -->
<g id="Node000002" class="node">
<title>Node2</title>
<g id="a_Node000002"><a xlink:title=" ">
<polygon fill="#e0e0e0" stroke="#999999" points="42.25,-188 0,-188 0,-168 42.25,-168 42.25,-188"/>
<text xml:space="preserve" text-anchor="middle" x="21.12" y="-174.5" font-family="Helvetica,sans-Serif" font-size="10.00">cstdio</text>
</a>
</g>
</g>
<!-- Node1&#45;&gt;Node2 -->
<g id="edge1_Node000001_Node000002" class="edge">
<title>Node1&#45;&gt;Node2</title>
<g id="a_edge1_Node000001_Node000002"><a xlink:title=" ">
<path fill="none" stroke="#63b8ff" d="M138.39,-223.59C114.72,-214.59 78.89,-200.97 53.07,-191.15"/>
<polygon fill="#63b8ff" stroke="#63b8ff" points="54.34,-187.89 43.75,-187.6 51.85,-194.43 54.34,-187.89"/>
</a>
</g>
</g>
<!-- Node3 -->
<g id="Node000003" class="node">
<title>Node3</title>
<g id="a_Node000003"><a xlink:href="defs_8h.html" target="_top" xlink:title=" ">
<polygon fill="white" stroke="#666666" points="240.62,-132 197.62,-132 197.62,-112 240.62,-112 240.62,-132"/>
<text xml:space="preserve" text-anchor="middle" x="219.12" y="-118.5" font-family="Helvetica,sans-Serif" font-size="10.00">defs.h</text>
</a>
</g>
</g>
<!-- Node1&#45;&gt;Node3 -->
<g id="edge2_Node000001_Node000003" class="edge">
<title>Node1&#45;&gt;Node3</title>
<g id="a_edge2_Node000001_Node000003"><a xlink:title=" ">
<path fill="none" stroke="#63b8ff" d="M137,-223.53C109.54,-212.08 72.46,-191.4 89.12,-168 110.89,-137.43 154.92,-127.43 185.68,-124.27"/>
<polygon fill="#63b8ff" stroke="#63b8ff" points="185.95,-127.76 195.63,-123.46 185.38,-120.78 185.95,-127.76"/>
</a>
</g>
</g>
<!-- Node8 -->
<g id="Node000008" class="node">
<title>Node8</title>
<g id="a_Node000008"><a xlink:href="move__generator_8h.html" target="_top" xlink:title=" ">
<polygon fill="white" stroke="#666666" points="228.12,-188 98.12,-188 98.12,-168 228.12,-168 228.12,-188"/>
<text xml:space="preserve" text-anchor="middle" x="163.12" y="-174.5" font-family="Helvetica,sans-Serif" font-size="10.00">../move/move_generator.h</text>
</a>
</g>
</g>
<!-- Node1&#45;&gt;Node8 -->
<g id="edge8_Node000001_Node000008" class="edge">
<title>Node1&#45;&gt;Node8</title>
<g id="a_edge8_Node000001_Node000008"><a xlink:title=" ">
<path fill="none" stroke="#63b8ff" d="M163.12,-223.59C163.12,-217.01 163.12,-207.96 163.12,-199.73"/>
<polygon fill="#63b8ff" stroke="#63b8ff" points="166.63,-199.81 163.13,-189.81 159.63,-199.81 166.63,-199.81"/>
</a>
</g>
</g>
<!-- Node9 -->
<g id="Node000009" class="node">
<title>Node9</title>
<g id="a_Node000009"><a xlink:href="notation_8h.html" target="_top" xlink:title=" ">
<polygon fill="white" stroke="#666666" points="304.5,-188 245.75,-188 245.75,-168 304.5,-168 304.5,-188"/>
<text xml:space="preserve" text-anchor="middle" x="275.12" y="-174.5" font-family="Helvetica,sans-Serif" font-size="10.00">notation.h</text>
</a>
</g>
</g>
<!-- Node1&#45;&gt;Node9 -->
<g id="edge10_Node000001_Node000009" class="edge">
<title>Node1&#45;&gt;Node9</title>
<g id="a_edge10_Node000001_Node000009"><a xlink:title=" ">
<path fill="none" stroke="#63b8ff" d="M182.63,-223.59C199.87,-215.28 225.28,-203.03 245.11,-193.47"/>
<polygon fill="#63b8ff" stroke="#63b8ff" points="246.61,-196.63 254.1,-189.14 243.57,-190.33 246.61,-196.63"/>
</a>
</g>
</g>
<!-- Node10 -->
<g id="Node000010" class="node">
<title>Node10</title>
<g id="a_Node000010"><a xlink:href="setup_8h.html" target="_top" xlink:title=" ">
<polygon fill="white" stroke="#666666" points="371.25,-188 323,-188 323,-168 371.25,-168 371.25,-188"/>
<text xml:space="preserve" text-anchor="middle" x="347.12" y="-174.5" font-family="Helvetica,sans-Serif" font-size="10.00">setup.h</text>
</a>
</g>
</g>
<!-- Node1&#45;&gt;Node10 -->
<g id="edge12_Node000001_Node000010" class="edge">
<title>Node1&#45;&gt;Node10</title>
<g id="a_edge12_Node000001_Node000010"><a xlink:title=" ">
<path fill="none" stroke="#63b8ff" d="M195.18,-223.59C227.74,-214.04 278.05,-199.27 311.76,-189.38"/>
<polygon fill="#63b8ff" stroke="#63b8ff" points="312.44,-192.83 321.05,-186.65 310.47,-186.11 312.44,-192.83"/>
</a>
</g>
</g>
<!-- Node4 -->
<g id="Node000004" class="node">
<title>Node4</title>
<g id="a_Node000004"><a xlink:title=" ">
<polygon fill="#e0e0e0" stroke="#999999" points="133.88,-76 86.38,-76 86.38,-56 133.88,-56 133.88,-76"/>
<text xml:space="preserve" text-anchor="middle" x="110.12" y="-62.5" font-family="Helvetica,sans-Serif" font-size="10.00">stdlib.h</text>
</a>
</g>
</g>
<!-- Node3&#45;&gt;Node4 -->
<g id="edge3_Node000003_Node000004" class="edge">
<title>Node3&#45;&gt;Node4</title>
<g id="a_edge3_Node000003_Node000004"><a xlink:title=" ">
<path fill="none" stroke="#63b8ff" d="M200.14,-111.59C183.36,-103.28 158.63,-91.03 139.34,-81.47"/>
<polygon fill="#63b8ff" stroke="#63b8ff" points="141.13,-78.45 130.62,-77.15 138.02,-84.73 141.13,-78.45"/>
</a>
</g>
</g>
<!-- Node5 -->
<g id="Node000005" class="node">
<title>Node5</title>
<g id="a_Node000005"><a xlink:title=" ">
<polygon fill="#e0e0e0" stroke="#999999" points="196.75,-76 151.5,-76 151.5,-56 196.75,-56 196.75,-76"/>
<text xml:space="preserve" text-anchor="middle" x="174.12" y="-62.5" font-family="Helvetica,sans-Serif" font-size="10.00">stdio.h</text>
</a>
</g>
</g>
<!-- Node3&#45;&gt;Node5 -->
<g id="edge4_Node000003_Node000005" class="edge">
<title>Node3&#45;&gt;Node5</title>
<g id="a_edge4_Node000003_Node000005"><a xlink:title=" ">
<path fill="none" stroke="#63b8ff" d="M211.29,-111.59C205.16,-104.24 196.45,-93.8 189.01,-84.87"/>
<polygon fill="#63b8ff" stroke="#63b8ff" points="191.93,-82.9 182.84,-77.46 186.56,-87.38 191.93,-82.9"/>
</a>
</g>
</g>
<!-- Node6 -->
<g id="Node000006" class="node">
<title>Node6</title>
<g id="a_Node000006"><a xlink:href="board__data_8h.html" target="_top" xlink:title=" ">
<polygon fill="white" stroke="#666666" points="313.75,-76 214.5,-76 214.5,-56 313.75,-56 313.75,-76"/>
<text xml:space="preserve" text-anchor="middle" x="264.12" y="-62.5" font-family="Helvetica,sans-Serif" font-size="10.00">board/board_data.h</text>
</a>
</g>
</g>
<!-- Node3&#45;&gt;Node6 -->
<g id="edge5_Node000003_Node000006" class="edge">
<title>Node3&#45;&gt;Node6</title>
<g id="a_edge5_Node000003_Node000006"><a xlink:title=" ">
<path fill="none" stroke="#63b8ff" d="M221.7,-111.59C226.45,-104.08 235.03,-93.35 243.36,-84.3"/>
<polygon fill="#63b8ff" stroke="#63b8ff" points="245.62,-87 250.08,-77.38 240.6,-82.12 245.62,-87"/>
</a>
</g>
</g>
<!-- Node6&#45;&gt;Node3 -->
<g id="edge7_Node000006_Node000003" class="edge">
<title>Node6&#45;&gt;Node3</title>
<g id="a_edge7_Node000006_Node000003"><a xlink:title=" ">
<path fill="none" stroke="#63b8ff" d="M261.62,-76.3C256.9,-83.78 248.34,-94.5 240.01,-103.57"/>
<polygon fill="#63b8ff" stroke="#63b8ff" points="237.73,-100.89 233.28,-110.51 242.76,-105.76 237.73,-100.89"/>
</a>
</g>
</g>
<!-- Node7 -->
<g id="Node000007" class="node">
<title>Node7</title>
<g id="a_Node000007"><a xlink:title=" ">
<polygon fill="#e0e0e0" stroke="#999999" points="283,-20 245.25,-20 245.25,0 283,0 283,-20"/>
<text xml:space="preserve" text-anchor="middle" x="264.12" y="-6.5" font-family="Helvetica,sans-Serif" font-size="10.00">array</text>
</a>
</g>
</g>
<!-- Node6&#45;&gt;Node7 -->
<g id="edge6_Node000006_Node000007" class="edge">
<title>Node6&#45;&gt;Node7</title>
<g id="a_edge6_Node000006_Node000007"><a xlink:title=" ">
<path fill="none" stroke="#63b8ff" d="M264.12,-55.59C264.12,-49.01 264.12,-39.96 264.12,-31.73"/>
<polygon fill="#63b8ff" stroke="#63b8ff" points="267.63,-31.81 264.13,-21.81 260.63,-31.81 267.63,-31.81"/>
</a>
</g>
</g>
<!-- Node8&#45;&gt;Node3 -->
<g id="edge9_Node000008_Node000003" class="edge">
<title>Node8&#45;&gt;Node3</title>
<g id="a_edge9_Node000008_Node000003"><a xlink:title=" ">
<path fill="none" stroke="#63b8ff" d="M172.88,-167.59C180.75,-160.01 192.02,-149.13 201.47,-140.02"/>
<polygon fill="#63b8ff" stroke="#63b8ff" points="203.62,-142.81 208.39,-133.35 198.76,-137.77 203.62,-142.81"/>
</a>
</g>
</g>
<!-- Node9&#45;&gt;Node3 -->
<g id="edge11_Node000009_Node000003" class="edge">
<title>Node9&#45;&gt;Node3</title>
<g id="a_edge11_Node000009_Node000003"><a xlink:title=" ">
<path fill="none" stroke="#63b8ff" d="M265.37,-167.59C257.5,-160.01 246.23,-149.13 236.78,-140.02"/>
<polygon fill="#63b8ff" stroke="#63b8ff" points="239.49,-137.77 229.86,-133.35 234.63,-142.81 239.49,-137.77"/>
</a>
</g>
</g>
<!-- Node10&#45;&gt;Node3 -->
<g id="edge13_Node000010_Node000003" class="edge">
<title>Node10&#45;&gt;Node3</title>
<g id="a_edge13_Node000010_Node000003"><a xlink:title=" ">
<path fill="none" stroke="#63b8ff" d="M324.83,-167.59C304.52,-159.02 274.28,-146.27 251.34,-136.59"/>
<polygon fill="#63b8ff" stroke="#63b8ff" points="252.71,-133.37 242.13,-132.71 249.99,-139.82 252.71,-133.37"/>
</a>
</g>
</g>
</g>
</svg>
