<?xml version="1.0" encoding="UTF-8" standalone="no"?>
<!DOCTYPE svg PUBLIC "-//W3C//DTD SVG 1.1//EN"
 "http://www.w3.org/Graphics/SVG/1.1/DTD/svg11.dtd">
<!-- Generated by graphviz version 13.1.2 (20250808.2320)
 -->
<!-- Title: perft.cpp Pages: 1 -->
<svg width="663pt" height="252pt"
 viewBox="0.00 0.00 663.00 252.00" xmlns="http://www.w3.org/2000/svg" xmlns:xlink="http://www.w3.org/1999/xlink">
<g id="graph0" class="graph" transform="scale(1 1) rotate(0) translate(4 248)">
<title>perft.cpp</title>
<!-- Node1 -->
<g id="Node000001" class="node">
<title>Node1</title>
<g id="a_Node000001"><a xlink:title=" ">
<polygon fill="#999999" stroke="#666666" points="330.25,-244 276,-244 276,-224 330.25,-224 330.25,-244"/>
<text xml:space="preserve" text-anchor="middle" x="303.12" y="-230.5" font-family="Helvetica,sans-Serif" font-size="10.00">perft.cpp</text>
</a>
</g>
</g>
<!-- Node2 -->
<g id="Node000002" class="node">
<title>Node2</title>
<g id="a_Node000002"><a xlink:title=" ">
<polygon fill="#e0e0e0" stroke="#999999" points="42.25,-188 0,-188 0,-168 42.25,-168 42.25,-188"/>
<text xml:space="preserve" text-anchor="middle" x="21.12" y="-174.5" font-family="Helvetica,sans-Serif" font-size="10.00">cstdio</text>
</a>
</g>
</g>
<!-- Node1&#45;&gt;Node2 -->
<g id="edge1_Node000001_Node000002" class="edge">
<title>Node1&#45;&gt;Node2</title>
<g id="a_edge1_Node000001_Node000002"><a xlink:title=" ">
<path fill="none" stroke="#63b8ff" d="M275.58,-228.64C229.82,-221.26 135.32,-205.37 56.12,-188 55.3,-187.82 54.46,-187.63 53.62,-187.44"/>
<polygon fill="#63b8ff" stroke="#63b8ff" points="54.55,-184.06 44.01,-185.12 52.91,-190.87 54.55,-184.06"/>
</a>
</g>
</g>
<!-- Node3 -->
<g id="Node000003" class="node">
<title>Node3</title>
<g id="a_Node000003"><a xlink:href="defs_8h.html" target="_top" xlink:title=" ">
<polygon fill="white" stroke="#666666" points="388.12,-132 336.12,-132 336.12,-112 388.12,-112 388.12,-132"/>
<text xml:space="preserve" text-anchor="middle" x="362.12" y="-118.5" font-family="Helvetica,sans-Serif" font-size="10.00">../defs.h</text>
</a>
</g>
</g>
<!-- Node1&#45;&gt;Node3 -->
<g id="edge2_Node000001_Node000003" class="edge">
<title>Node1&#45;&gt;Node3</title>
<g id="a_edge2_Node000001_Node000003"><a xlink:title=" ">
<path fill="none" stroke="#63b8ff" d="M275.65,-233.51C207.06,-233.9 37.43,-228.91 89.12,-168 118.89,-132.93 256.89,-125.15 324.54,-123.45"/>
<polygon fill="#63b8ff" stroke="#63b8ff" points="324.49,-126.95 334.41,-123.24 324.34,-119.96 324.49,-126.95"/>
</a>
</g>
</g>
<!-- Node8 -->
<g id="Node000008" class="node">
<title>Node8</title>
<g id="a_Node000008"><a xlink:href="board_8h.html" target="_top" xlink:title=" ">
<polygon fill="white" stroke="#666666" points="652.25,-188 568,-188 568,-168 652.25,-168 652.25,-188"/>
<text xml:space="preserve" text-anchor="middle" x="610.12" y="-174.5" font-family="Helvetica,sans-Serif" font-size="10.00">../board/board.h</text>
</a>
</g>
</g>
<!-- Node1&#45;&gt;Node8 -->
<g id="edge8_Node000001_Node000008" class="edge">
<title>Node1&#45;&gt;Node8</title>
<g id="a_edge8_Node000001_Node000008"><a xlink:title=" ">
<path fill="none" stroke="#63b8ff" d="M330.4,-228.21C375.28,-220.33 467.8,-204.08 556.23,-188.51"/>
<polygon fill="#63b8ff" stroke="#63b8ff" points="556.82,-191.96 566.06,-186.78 555.6,-185.07 556.82,-191.96"/>
</a>
</g>
</g>
<!-- Node10 -->
<g id="Node000010" class="node">
<title>Node10</title>
<g id="a_Node000010"><a xlink:href="move__generator_8h.html" target="_top" xlink:title=" ">
<polygon fill="white" stroke="#666666" points="228.12,-188 98.12,-188 98.12,-168 228.12,-168 228.12,-188"/>
<text xml:space="preserve" text-anchor="middle" x="163.12" y="-174.5" font-family="Helvetica,sans-Serif" font-size="10.00">../move/move_generator.h</text>
</a>
</g>
</g>
<!-- Node1&#45;&gt;Node10 -->
<g id="edge11_Node000001_Node000010" class="edge">
<title>Node1&#45;&gt;Node10</title>
<g id="a_edge11_Node000001_Node000010"><a xlink:title=" ">
<path fill="none" stroke="#63b8ff" d="M278.74,-223.59C256.49,-215.01 223.36,-202.23 198.26,-192.55"/>
<polygon fill="#63b8ff" stroke="#63b8ff" points="199.7,-189.36 189.11,-189.02 197.18,-195.89 199.7,-189.36"/>
</a>
</g>
</g>
<!-- Node11 -->
<g id="Node000011" class="node">
<title>Node11</title>
<g id="a_Node000011"><a xlink:href="make__move_8h.html" target="_top" xlink:title=" ">
<polygon fill="white" stroke="#666666" points="359.88,-188 246.38,-188 246.38,-168 359.88,-168 359.88,-188"/>
<text xml:space="preserve" text-anchor="middle" x="303.12" y="-174.5" font-family="Helvetica,sans-Serif" font-size="10.00">../move/make_move.h</text>
</a>
</g>
</g>
<!-- Node1&#45;&gt;Node11 -->
<g id="edge13_Node000001_Node000011" class="edge">
<title>Node1&#45;&gt;Node11</title>
<g id="a_edge13_Node000001_Node000011"><a xlink:title=" ">
<path fill="none" stroke="#63b8ff" d="M303.12,-223.59C303.12,-217.01 303.12,-207.96 303.12,-199.73"/>
<polygon fill="#63b8ff" stroke="#63b8ff" points="306.63,-199.81 303.13,-189.81 299.63,-199.81 306.63,-199.81"/>
</a>
</g>
</g>
<!-- Node12 -->
<g id="Node000012" class="node">
<title>Node12</title>
<g id="a_Node000012"><a xlink:href="notation_8h.html" target="_top" xlink:title=" ">
<polygon fill="white" stroke="#666666" points="461.88,-188 378.38,-188 378.38,-168 461.88,-168 461.88,-188"/>
<text xml:space="preserve" text-anchor="middle" x="420.12" y="-174.5" font-family="Helvetica,sans-Serif" font-size="10.00">../util/notation.h</text>
</a>
</g>
</g>
<!-- Node1&#45;&gt;Node12 -->
<g id="edge15_Node000001_Node000012" class="edge">
<title>Node1&#45;&gt;Node12</title>
<g id="a_edge15_Node000001_Node000012"><a xlink:title=" ">
<path fill="none" stroke="#63b8ff" d="M323.5,-223.59C341.68,-215.21 368.55,-202.8 389.34,-193.21"/>
<polygon fill="#63b8ff" stroke="#63b8ff" points="390.6,-196.48 398.21,-189.11 387.67,-190.13 390.6,-196.48"/>
</a>
</g>
</g>
<!-- Node13 -->
<g id="Node000013" class="node">
<title>Node13</title>
<g id="a_Node000013"><a xlink:href="misc_8h.html" target="_top" xlink:title=" ">
<polygon fill="white" stroke="#666666" points="550.12,-188 480.12,-188 480.12,-168 550.12,-168 550.12,-188"/>
<text xml:space="preserve" text-anchor="middle" x="515.12" y="-174.5" font-family="Helvetica,sans-Serif" font-size="10.00">../util/misc.h</text>
</a>
</g>
</g>
<!-- Node1&#45;&gt;Node13 -->
<g id="edge17_Node000001_Node000013" class="edge">
<title>Node1&#45;&gt;Node13</title>
<g id="a_edge17_Node000001_Node000013"><a xlink:title=" ">
<path fill="none" stroke="#63b8ff" d="M330.41,-226.05C365.34,-217.15 426.4,-201.6 468.71,-190.82"/>
<polygon fill="#63b8ff" stroke="#63b8ff" points="469.54,-194.22 478.37,-188.36 467.81,-187.44 469.54,-194.22"/>
</a>
</g>
</g>
<!-- Node4 -->
<g id="Node000004" class="node">
<title>Node4</title>
<g id="a_Node000004"><a xlink:title=" ">
<polygon fill="#e0e0e0" stroke="#999999" points="276.88,-76 229.38,-76 229.38,-56 276.88,-56 276.88,-76"/>
<text xml:space="preserve" text-anchor="middle" x="253.12" y="-62.5" font-family="Helvetica,sans-Serif" font-size="10.00">stdlib.h</text>
</a>
</g>
</g>
<!-- Node3&#45;&gt;Node4 -->
<g id="edge3_Node000003_Node000004" class="edge">
<title>Node3&#45;&gt;Node4</title>
<g id="a_edge3_Node000003_Node000004"><a xlink:title=" ">
<path fill="none" stroke="#63b8ff" d="M343.14,-111.59C326.36,-103.28 301.63,-91.03 282.34,-81.47"/>
<polygon fill="#63b8ff" stroke="#63b8ff" points="284.13,-78.45 273.62,-77.15 281.02,-84.73 284.13,-78.45"/>
</a>
</g>
</g>
<!-- Node5 -->
<g id="Node000005" class="node">
<title>Node5</title>
<g id="a_Node000005"><a xlink:title=" ">
<polygon fill="#e0e0e0" stroke="#999999" points="339.75,-76 294.5,-76 294.5,-56 339.75,-56 339.75,-76"/>
<text xml:space="preserve" text-anchor="middle" x="317.12" y="-62.5" font-family="Helvetica,sans-Serif" font-size="10.00">stdio.h</text>
</a>
</g>
</g>
<!-- Node3&#45;&gt;Node5 -->
<g id="edge4_Node000003_Node000005" class="edge">
<title>Node3&#45;&gt;Node5</title>
<g id="a_edge4_Node000003_Node000005"><a xlink:title=" ">
<path fill="none" stroke="#63b8ff" d="M354.29,-111.59C348.16,-104.24 339.45,-93.8 332.01,-84.87"/>
<polygon fill="#63b8ff" stroke="#63b8ff" points="334.93,-82.9 325.84,-77.46 329.56,-87.38 334.93,-82.9"/>
</a>
</g>
</g>
<!-- Node6 -->
<g id="Node000006" class="node">
<title>Node6</title>
<g id="a_Node000006"><a xlink:href="board__data_8h.html" target="_top" xlink:title=" ">
<polygon fill="white" stroke="#666666" points="456.75,-76 357.5,-76 357.5,-56 456.75,-56 456.75,-76"/>
<text xml:space="preserve" text-anchor="middle" x="407.12" y="-62.5" font-family="Helvetica,sans-Serif" font-size="10.00">board/board_data.h</text>
</a>
</g>
</g>
<!-- Node3&#45;&gt;Node6 -->
<g id="edge5_Node000003_Node000006" class="edge">
<title>Node3&#45;&gt;Node6</title>
<g id="a_edge5_Node000003_Node000006"><a xlink:title=" ">
<path fill="none" stroke="#63b8ff" d="M364.7,-111.59C369.45,-104.08 378.03,-93.35 386.36,-84.3"/>
<polygon fill="#63b8ff" stroke="#63b8ff" points="388.62,-87 393.08,-77.38 383.6,-82.12 388.62,-87"/>
</a>
</g>
</g>
<!-- Node6&#45;&gt;Node3 -->
<g id="edge7_Node000006_Node000003" class="edge">
<title>Node6&#45;&gt;Node3</title>
<g id="a_edge7_Node000006_Node000003"><a xlink:title=" ">
<path fill="none" stroke="#63b8ff" d="M404.62,-76.3C399.9,-83.78 391.34,-94.5 383.01,-103.57"/>
<polygon fill="#63b8ff" stroke="#63b8ff" points="380.73,-100.89 376.28,-110.51 385.76,-105.76 380.73,-100.89"/>
</a>
</g>
</g>
<!-- Node7 -->
<g id="Node000007" class="node">
<title>Node7</title>
<g id="a_Node000007"><a xlink:title=" ">
<polygon fill="#e0e0e0" stroke="#999999" points="426,-20 388.25,-20 388.25,0 426,0 426,-20"/>
<text xml:space="preserve" text-anchor="middle" x="407.12" y="-6.5" font-family="Helvetica,sans-Serif" font-size="10.00">array</text>
</a>
</g>
</g>
<!-- Node6&#45;&gt;Node7 -->
<g id="edge6_Node000006_Node000007" class="edge">
<title>Node6&#45;&gt;Node7</title>
<g id="a_edge6_Node000006_Node000007"><a xlink:title=" ">
<path fill="none" stroke="#63b8ff" d="M407.12,-55.59C407.12,-49.01 407.12,-39.96 407.12,-31.73"/>
<polygon fill="#63b8ff" stroke="#63b8ff" points="410.63,-31.81 407.13,-21.81 403.63,-31.81 410.63,-31.81"/>
</a>
</g>
</g>
<!-- Node8&#45;&gt;Node3 -->
<g id="edge9_Node000008_Node000003" class="edge">
<title>Node8&#45;&gt;Node3</title>
<g id="a_edge9_Node000008_Node000003"><a xlink:title=" ">
<path fill="none" stroke="#63b8ff" d="M567.77,-167.78C520.43,-157.47 444.5,-140.94 399.35,-131.11"/>
<polygon fill="#63b8ff" stroke="#63b8ff" points="400.3,-127.73 389.78,-129.02 398.81,-134.57 400.3,-127.73"/>
</a>
</g>
</g>
<!-- Node9 -->
<g id="Node000009" class="node">
<title>Node9</title>
<g id="a_Node000009"><a xlink:title=" ">
<polygon fill="#e0e0e0" stroke="#999999" points="654.88,-132 565.38,-132 565.38,-112 654.88,-112 654.88,-132"/>
<text xml:space="preserve" text-anchor="middle" x="610.12" y="-118.5" font-family="Helvetica,sans-Serif" font-size="10.00">../test./validate.h</text>
</a>
</g>
</g>
<!-- Node8&#45;&gt;Node9 -->
<g id="edge10_Node000008_Node000009" class="edge">
<title>Node8&#45;&gt;Node9</title>
<g id="a_edge10_Node000008_Node000009"><a xlink:title=" ">
<path fill="none" stroke="#63b8ff" d="M610.12,-167.59C610.12,-161.01 610.12,-151.96 610.12,-143.73"/>
<polygon fill="#63b8ff" stroke="#63b8ff" points="613.63,-143.81 610.13,-133.81 606.63,-143.81 613.63,-143.81"/>
</a>
</g>
</g>
<!-- Node10&#45;&gt;Node3 -->
<g id="edge12_Node000010_Node000003" class="edge">
<title>Node10&#45;&gt;Node3</title>
<g id="a_edge12_Node000010_Node000003"><a xlink:title=" ">
<path fill="none" stroke="#63b8ff" d="M197.79,-167.59C233.41,-157.93 288.68,-142.93 325.13,-133.04"/>
<polygon fill="#63b8ff" stroke="#63b8ff" points="325.6,-136.54 334.33,-130.54 323.77,-129.78 325.6,-136.54"/>
</a>
</g>
</g>
<!-- Node11&#45;&gt;Node3 -->
<g id="edge14_Node000011_Node000003" class="edge">
<title>Node11&#45;&gt;Node3</title>
<g id="a_edge14_Node000011_Node000003"><a xlink:title=" ">
<path fill="none" stroke="#63b8ff" d="M313.4,-167.59C321.69,-160.01 333.57,-149.13 343.53,-140.02"/>
<polygon fill="#63b8ff" stroke="#63b8ff" points="345.84,-142.65 350.85,-133.32 341.11,-137.49 345.84,-142.65"/>
</a>
</g>
</g>
<!-- Node12&#45;&gt;Node3 -->
<g id="edge16_Node000012_Node000003" class="edge">
<title>Node12&#45;&gt;Node3</title>
<g id="a_edge16_Node000012_Node000003"><a xlink:title=" ">
<path fill="none" stroke="#63b8ff" d="M410.02,-167.59C401.87,-160.01 390.19,-149.13 380.41,-140.02"/>
<polygon fill="#63b8ff" stroke="#63b8ff" points="382.92,-137.58 373.22,-133.33 378.15,-142.71 382.92,-137.58"/>
</a>
</g>
</g>
<!-- Node13&#45;&gt;Node3 -->
<g id="edge18_Node000013_Node000003" class="edge">
<title>Node13&#45;&gt;Node3</title>
<g id="a_edge18_Node000013_Node000003"><a xlink:title=" ">
<path fill="none" stroke="#63b8ff" d="M488.47,-167.59C463.79,-158.88 426.85,-145.84 399.28,-136.11"/>
<polygon fill="#63b8ff" stroke="#63b8ff" points="400.49,-132.83 389.9,-132.8 398.16,-139.43 400.49,-132.83"/>
</a>
</g>
</g>
</g>
</svg>
