<?xml version="1.0" encoding="UTF-8" standalone="no"?>
<!DOCTYPE svg PUBLIC "-//W3C//DTD SVG 1.1//EN"
 "http://www.w3.org/Graphics/SVG/1.1/DTD/svg11.dtd">
<!-- Generated by graphviz version 13.1.2 (20250808.2320)
 -->
<!-- Title: setup.cpp Pages: 1 -->
<svg width="326pt" height="252pt"
 viewBox="0.00 0.00 326.00 252.00" xmlns="http://www.w3.org/2000/svg" xmlns:xlink="http://www.w3.org/1999/xlink">

<svg id="main" version="1.1" xmlns="http://www.w3.org/2000/svg" xmlns:xlink="http://www.w3.org/1999/xlink" xml:space="preserve">

<style type="text/css"><![CDATA[
.node, .edge {opacity: 0.7;}
.node.selected, .edge.selected {opacity: 1;}
.edge:hover path { stroke: red; }
.edge:hover polygon { stroke: red; fill: red; }
]]></style>
<script type="application/ecmascript" xlink:href="svg.min.js"/>
<svg id="graph" class="graph">
<g id="graph0" class="graph" transform="scale(1 1) rotate(0) translate(4 248)">
<title>setup.cpp</title>
<!-- Node1 -->
<g id="Node000001" class="node">
<title>Node1</title>
<g id="a_Node000001"><a xlink:title=" ">
<polygon fill="#999999" stroke="#666666" points="146.5,-244 87.75,-244 87.75,-224 146.5,-224 146.5,-244"/>
<text xml:space="preserve" text-anchor="middle" x="117.12" y="-230.5" font-family="Helvetica,sans-Serif" font-size="10.00">setup.cpp</text>
</a>
</g>
</g>
<!-- Node2 -->
<g id="Node000002" class="node">
<title>Node2</title>
<g id="a_Node000002"><a xlink:href="setup_8h.html" target="_top" xlink:title=" ">
<polygon fill="white" stroke="#666666" points="48.25,-188 0,-188 0,-168 48.25,-168 48.25,-188"/>
<text xml:space="preserve" text-anchor="middle" x="24.12" y="-174.5" font-family="Helvetica,sans-Serif" font-size="10.00">setup.h</text>
</a>
</g>
</g>
<!-- Node1&#45;&gt;Node2 -->
<g id="edge1_Node000001_Node000002" class="edge">
<title>Node1&#45;&gt;Node2</title>
<g id="a_edge1_Node000001_Node000002"><a xlink:title=" ">
<path fill="none" stroke="#63b8ff" d="M100.93,-223.59C86.88,-215.44 66.29,-203.48 49.97,-194"/>
<polygon fill="#63b8ff" stroke="#63b8ff" points="52.17,-191.23 41.76,-189.24 48.65,-197.29 52.17,-191.23"/>
</a>
</g>
</g>
<!-- Node8 -->
<g id="Node000008" class="node">
<title>Node8</title>
<g id="a_Node000008"><a xlink:title=" ">
<polygon fill="#e0e0e0" stroke="#999999" points="108.25,-188 66,-188 66,-168 108.25,-168 108.25,-188"/>
<text xml:space="preserve" text-anchor="middle" x="87.12" y="-174.5" font-family="Helvetica,sans-Serif" font-size="10.00">cstdio</text>
</a>
</g>
</g>
<!-- Node1&#45;&gt;Node8 -->
<g id="edge8_Node000001_Node000008" class="edge">
<title>Node1&#45;&gt;Node8</title>
<g id="a_edge8_Node000001_Node000008"><a xlink:title=" ">
<path fill="none" stroke="#63b8ff" d="M111.9,-223.59C108.03,-216.63 102.62,-206.89 97.84,-198.29"/>
<polygon fill="#63b8ff" stroke="#63b8ff" points="100.94,-196.66 93.03,-189.62 94.82,-200.06 100.94,-196.66"/>
</a>
</g>
</g>
<!-- Node9 -->
<g id="Node000009" class="node">
<title>Node9</title>
<g id="a_Node000009"><a xlink:title=" ">
<polygon fill="#e0e0e0" stroke="#999999" points="170.38,-188 125.88,-188 125.88,-168 170.38,-168 170.38,-188"/>
<text xml:space="preserve" text-anchor="middle" x="148.12" y="-174.5" font-family="Helvetica,sans-Serif" font-size="10.00">cstdlib</text>
</a>
</g>
</g>
<!-- Node1&#45;&gt;Node9 -->
<g id="edge9_Node000001_Node000009" class="edge">
<title>Node1&#45;&gt;Node9</title>
<g id="a_edge9_Node000001_Node000009"><a xlink:title=" ">
<path fill="none" stroke="#63b8ff" d="M122.52,-223.59C126.57,-216.55 132.24,-206.67 137.22,-198"/>
<polygon fill="#63b8ff" stroke="#63b8ff" points="140.09,-200.03 142.03,-189.61 134.02,-196.54 140.09,-200.03"/>
</a>
</g>
</g>
<!-- Node10 -->
<g id="Node000010" class="node">
<title>Node10</title>
<g id="a_Node000010"><a xlink:href="move__generator_8h.html" target="_top" xlink:title=" ">
<polygon fill="white" stroke="#666666" points="318.12,-188 188.12,-188 188.12,-168 318.12,-168 318.12,-188"/>
<text xml:space="preserve" text-anchor="middle" x="253.12" y="-174.5" font-family="Helvetica,sans-Serif" font-size="10.00">../move/move_generator.h</text>
</a>
</g>
</g>
<!-- Node1&#45;&gt;Node10 -->
<g id="edge10_Node000001_Node000010" class="edge">
<title>Node1&#45;&gt;Node10</title>
<g id="a_edge10_Node000001_Node000010"><a xlink:title=" ">
<path fill="none" stroke="#63b8ff" d="M140.81,-223.59C162.33,-215.05 194.33,-202.35 218.67,-192.68"/>
<polygon fill="#63b8ff" stroke="#63b8ff" points="219.84,-195.98 227.84,-189.04 217.26,-189.48 219.84,-195.98"/>
</a>
</g>
</g>
<!-- Node3 -->
<g id="Node000003" class="node">
<title>Node3</title>
<g id="a_Node000003"><a xlink:href="defs_8h.html" target="_top" xlink:title=" ">
<polygon fill="white" stroke="#666666" points="164.12,-132 112.12,-132 112.12,-112 164.12,-112 164.12,-132"/>
<text xml:space="preserve" text-anchor="middle" x="138.12" y="-118.5" font-family="Helvetica,sans-Serif" font-size="10.00">../defs.h</text>
</a>
</g>
</g>
<!-- Node2&#45;&gt;Node3 -->
<g id="edge2_Node000002_Node000003" class="edge">
<title>Node2&#45;&gt;Node3</title>
<g id="a_edge2_Node000002_Node000003"><a xlink:title=" ">
<path fill="none" stroke="#63b8ff" d="M43.98,-167.59C61.61,-159.24 87.63,-146.92 107.85,-137.34"/>
<polygon fill="#63b8ff" stroke="#63b8ff" points="109.21,-140.57 116.74,-133.13 106.21,-134.25 109.21,-140.57"/>
</a>
</g>
</g>
<!-- Node4 -->
<g id="Node000004" class="node">
<title>Node4</title>
<g id="a_Node000004"><a xlink:title=" ">
<polygon fill="#e0e0e0" stroke="#999999" points="52.88,-76 5.38,-76 5.38,-56 52.88,-56 52.88,-76"/>
<text xml:space="preserve" text-anchor="middle" x="29.12" y="-62.5" font-family="Helvetica,sans-Serif" font-size="10.00">stdlib.h</text>
</a>
</g>
</g>
<!-- Node3&#45;&gt;Node4 -->
<g id="edge3_Node000003_Node000004" class="edge">
<title>Node3&#45;&gt;Node4</title>
<g id="a_edge3_Node000003_Node000004"><a xlink:title=" ">
<path fill="none" stroke="#63b8ff" d="M119.14,-111.59C102.36,-103.28 77.63,-91.03 58.34,-81.47"/>
<polygon fill="#63b8ff" stroke="#63b8ff" points="60.13,-78.45 49.62,-77.15 57.02,-84.73 60.13,-78.45"/>
</a>
</g>
</g>
<!-- Node5 -->
<g id="Node000005" class="node">
<title>Node5</title>
<g id="a_Node000005"><a xlink:title=" ">
<polygon fill="#e0e0e0" stroke="#999999" points="115.75,-76 70.5,-76 70.5,-56 115.75,-56 115.75,-76"/>
<text xml:space="preserve" text-anchor="middle" x="93.12" y="-62.5" font-family="Helvetica,sans-Serif" font-size="10.00">stdio.h</text>
</a>
</g>
</g>
<!-- Node3&#45;&gt;Node5 -->
<g id="edge4_Node000003_Node000005" class="edge">
<title>Node3&#45;&gt;Node5</title>
<g id="a_edge4_Node000003_Node000005"><a xlink:title=" ">
<path fill="none" stroke="#63b8ff" d="M130.29,-111.59C124.16,-104.24 115.45,-93.8 108.01,-84.87"/>
<polygon fill="#63b8ff" stroke="#63b8ff" points="110.93,-82.9 101.84,-77.46 105.56,-87.38 110.93,-82.9"/>
</a>
</g>
</g>
<!-- Node6 -->
<g id="Node000006" class="node">
<title>Node6</title>
<g id="a_Node000006"><a xlink:href="board__data_8h.html" target="_top" xlink:title=" ">
<polygon fill="white" stroke="#666666" points="232.75,-76 133.5,-76 133.5,-56 232.75,-56 232.75,-76"/>
<text xml:space="preserve" text-anchor="middle" x="183.12" y="-62.5" font-family="Helvetica,sans-Serif" font-size="10.00">board/board_data.h</text>
</a>
</g>
</g>
<!-- Node3&#45;&gt;Node6 -->
<g id="edge5_Node000003_Node000006" class="edge">
<title>Node3&#45;&gt;Node6</title>
<g id="a_edge5_Node000003_Node000006"><a xlink:title=" ">
<path fill="none" stroke="#63b8ff" d="M140.7,-111.59C145.45,-104.08 154.03,-93.35 162.36,-84.3"/>
<polygon fill="#63b8ff" stroke="#63b8ff" points="164.62,-87 169.08,-77.38 159.6,-82.12 164.62,-87"/>
</a>
</g>
</g>
<!-- Node6&#45;&gt;Node3 -->
<g id="edge7_Node000006_Node000003" class="edge">
<title>Node6&#45;&gt;Node3</title>
<g id="a_edge7_Node000006_Node000003"><a xlink:title=" ">
<path fill="none" stroke="#63b8ff" d="M180.62,-76.3C175.9,-83.78 167.34,-94.5 159.01,-103.57"/>
<polygon fill="#63b8ff" stroke="#63b8ff" points="156.73,-100.89 152.28,-110.51 161.76,-105.76 156.73,-100.89"/>
</a>
</g>
</g>
<!-- Node7 -->
<g id="Node000007" class="node">
<title>Node7</title>
<g id="a_Node000007"><a xlink:title=" ">
<polygon fill="#e0e0e0" stroke="#999999" points="202,-20 164.25,-20 164.25,0 202,0 202,-20"/>
<text xml:space="preserve" text-anchor="middle" x="183.12" y="-6.5" font-family="Helvetica,sans-Serif" font-size="10.00">array</text>
</a>
</g>
</g>
<!-- Node6&#45;&gt;Node7 -->
<g id="edge6_Node000006_Node000007" class="edge">
<title>Node6&#45;&gt;Node7</title>
<g id="a_edge6_Node000006_Node000007"><a xlink:title=" ">
<path fill="none" stroke="#63b8ff" d="M183.12,-55.59C183.12,-49.01 183.12,-39.96 183.12,-31.73"/>
<polygon fill="#63b8ff" stroke="#63b8ff" points="186.63,-31.81 183.13,-21.81 179.63,-31.81 186.63,-31.81"/>
</a>
</g>
</g>
<!-- Node10&#45;&gt;Node3 -->
<g id="edge11_Node000010_Node000003" class="edge">
<title>Node10&#45;&gt;Node3</title>
<g id="a_edge11_Node000010_Node000003"><a xlink:title=" ">
<path fill="none" stroke="#63b8ff" d="M233.09,-167.59C215.31,-159.24 189.06,-146.92 168.66,-137.34"/>
<polygon fill="#63b8ff" stroke="#63b8ff" points="170.22,-134.21 159.68,-133.12 167.25,-140.54 170.22,-134.21"/>
</a>
</g>
</g>
</g>
</svg>
</svg>

<style type='text/css'>
<![CDATA[
[data-mouse-over-selected='false'] { opacity: 0.7; }
[data-mouse-over-selected='true']  { opacity: 1.0; }
]]>
</style>
<script type="application/ecmascript"><![CDATA[
document.addEventListener('DOMContentLoaded', (event) => {
  highlightEdges();
  highlightAdjacentNodes();
});
]]></script>
</svg>
