<?xml version="1.0" encoding="UTF-8" standalone="no"?>
<!DOCTYPE svg PUBLIC "-//W3C//DTD SVG 1.1//EN"
 "http://www.w3.org/Graphics/SVG/1.1/DTD/svg11.dtd">
<!-- Generated by graphviz version 13.1.2 (20250808.2320)
 -->
<!-- Title: S_BOARD Pages: 1 -->
<svg width="174pt" height="560pt"
 viewBox="0.00 0.00 174.00 560.00" xmlns="http://www.w3.org/2000/svg" xmlns:xlink="http://www.w3.org/1999/xlink">
<g id="graph0" class="graph" transform="scale(1 1) rotate(0) translate(4 556)">
<title>S_BOARD</title>
<!-- Node1 -->
<g id="Node000001" class="node">
<title>Node1</title>
<g id="a_Node000001"><a xlink:title=" ">
<polygon fill="#999999" stroke="none" points="109.62,-212 33.88,-212 33.88,0 109.62,0 109.62,-212"/>
<text xml:space="preserve" text-anchor="start" x="47.75" y="-198.5" font-family="Helvetica,sans-Serif" font-size="10.00">S_BOARD</text>
<text xml:space="preserve" text-anchor="start" x="37.88" y="-182.5" font-family="Helvetica,sans-Serif" font-size="10.00">+</text>
<text xml:space="preserve" text-anchor="start" x="47.88" y="-182.5" font-family="Helvetica,sans-Serif" font-size="10.00">pieces</text>
<text xml:space="preserve" text-anchor="start" x="37.88" y="-166.5" font-family="Helvetica,sans-Serif" font-size="10.00">+</text>
<text xml:space="preserve" text-anchor="start" x="47.88" y="-166.5" font-family="Helvetica,sans-Serif" font-size="10.00">pawns</text>
<text xml:space="preserve" text-anchor="start" x="37.88" y="-150.5" font-family="Helvetica,sans-Serif" font-size="10.00">+</text>
<text xml:space="preserve" text-anchor="start" x="47.88" y="-150.5" font-family="Helvetica,sans-Serif" font-size="10.00">KingSq</text>
<text xml:space="preserve" text-anchor="start" x="37.88" y="-134.5" font-family="Helvetica,sans-Serif" font-size="10.00">+</text>
<text xml:space="preserve" text-anchor="start" x="47.88" y="-134.5" font-family="Helvetica,sans-Serif" font-size="10.00">side</text>
<text xml:space="preserve" text-anchor="start" x="37.88" y="-118.5" font-family="Helvetica,sans-Serif" font-size="10.00">+</text>
<text xml:space="preserve" text-anchor="start" x="47.88" y="-118.5" font-family="Helvetica,sans-Serif" font-size="10.00">enPas</text>
<text xml:space="preserve" text-anchor="start" x="37.88" y="-102.5" font-family="Helvetica,sans-Serif" font-size="10.00">+</text>
<text xml:space="preserve" text-anchor="start" x="47.88" y="-102.5" font-family="Helvetica,sans-Serif" font-size="10.00">fiftyMove</text>
<text xml:space="preserve" text-anchor="start" x="37.88" y="-86.5" font-family="Helvetica,sans-Serif" font-size="10.00">+</text>
<text xml:space="preserve" text-anchor="start" x="47.88" y="-86.5" font-family="Helvetica,sans-Serif" font-size="10.00">ply</text>
<text xml:space="preserve" text-anchor="start" x="37.88" y="-70.5" font-family="Helvetica,sans-Serif" font-size="10.00">+</text>
<text xml:space="preserve" text-anchor="start" x="47.88" y="-70.5" font-family="Helvetica,sans-Serif" font-size="10.00">hisPly</text>
<text xml:space="preserve" text-anchor="start" x="37.88" y="-54.5" font-family="Helvetica,sans-Serif" font-size="10.00">+</text>
<text xml:space="preserve" text-anchor="start" x="47.88" y="-54.5" font-family="Helvetica,sans-Serif" font-size="10.00">castlePerm</text>
<text xml:space="preserve" text-anchor="start" x="37.88" y="-38.5" font-family="Helvetica,sans-Serif" font-size="10.00">+</text>
<text xml:space="preserve" text-anchor="start" x="47.88" y="-38.5" font-family="Helvetica,sans-Serif" font-size="10.00">posKey</text>
<text xml:space="preserve" text-anchor="start" x="47.88" y="-22.5" font-family="Helvetica,sans-Serif" font-size="10.00">and 9 more...</text>
<text xml:space="preserve" text-anchor="start" x="70.25" y="-6.5" font-family="Helvetica,sans-Serif" font-size="10.00"> </text>
<polygon fill="#666666" stroke="#666666" points="33.88,-194 33.88,-194 109.62,-194 109.62,-194 33.88,-194"/>
<polygon fill="#666666" stroke="#666666" points="33.88,-18 33.88,-18 45.88,-18 45.88,-18 33.88,-18"/>
<polygon fill="#666666" stroke="#666666" points="45.88,-18 45.88,-18 109.62,-18 109.62,-18 45.88,-18"/>
<polygon fill="none" stroke="#666666" points="33.88,0 33.88,-212 109.62,-212 109.62,0 33.88,0"/>
</a>
</g>
</g>
<!-- Node2 -->
<g id="Node000002" class="node">
<title>Node2</title>
<g id="a_Node000002"><a xlink:href="struct_s___u_n_d_o.html" target="_top" xlink:title=" ">
<polygon fill="white" stroke="none" points="67.5,-382 0,-382 0,-266 67.5,-266 67.5,-382"/>
<text xml:space="preserve" text-anchor="start" x="12.75" y="-368.5" font-family="Helvetica,sans-Serif" font-size="10.00">S_UNDO</text>
<text xml:space="preserve" text-anchor="start" x="4" y="-352.5" font-family="Helvetica,sans-Serif" font-size="10.00">+</text>
<text xml:space="preserve" text-anchor="start" x="14" y="-352.5" font-family="Helvetica,sans-Serif" font-size="10.00">move</text>
<text xml:space="preserve" text-anchor="start" x="4" y="-336.5" font-family="Helvetica,sans-Serif" font-size="10.00">+</text>
<text xml:space="preserve" text-anchor="start" x="14" y="-336.5" font-family="Helvetica,sans-Serif" font-size="10.00">castlePerm</text>
<text xml:space="preserve" text-anchor="start" x="4" y="-320.5" font-family="Helvetica,sans-Serif" font-size="10.00">+</text>
<text xml:space="preserve" text-anchor="start" x="14" y="-320.5" font-family="Helvetica,sans-Serif" font-size="10.00">enPas</text>
<text xml:space="preserve" text-anchor="start" x="4" y="-304.5" font-family="Helvetica,sans-Serif" font-size="10.00">+</text>
<text xml:space="preserve" text-anchor="start" x="14" y="-304.5" font-family="Helvetica,sans-Serif" font-size="10.00">fiftyMove</text>
<text xml:space="preserve" text-anchor="start" x="4" y="-288.5" font-family="Helvetica,sans-Serif" font-size="10.00">+</text>
<text xml:space="preserve" text-anchor="start" x="14" y="-288.5" font-family="Helvetica,sans-Serif" font-size="10.00">posKey</text>
<text xml:space="preserve" text-anchor="start" x="32.25" y="-272.5" font-family="Helvetica,sans-Serif" font-size="10.00"> </text>
<polygon fill="#666666" stroke="#666666" points="0,-364 0,-364 67.5,-364 67.5,-364 0,-364"/>
<polygon fill="#666666" stroke="#666666" points="0,-284 0,-284 12,-284 12,-284 0,-284"/>
<polygon fill="#666666" stroke="#666666" points="12,-284 12,-284 67.5,-284 67.5,-284 12,-284"/>
<polygon fill="none" stroke="#666666" points="0,-266 0,-382 67.5,-382 67.5,-266 0,-266"/>
</a>
</g>
</g>
<!-- Node2&#45;&gt;Node1 -->
<g id="edge1_Node000001_Node000002" class="edge">
<title>Node2&#45;&gt;Node1</title>
<g id="a_edge1_Node000001_Node000002"><a xlink:title=" ">
<path fill="none" stroke="#63b8ff" d="M41.68,-266.37C43.49,-254.35 45.48,-241.74 47.5,-230 47.8,-228.25 48.11,-226.48 48.42,-224.71"/>
<polygon fill="none" stroke="#63b8ff" points="48.43,-224.65 45.55,-218.04 50.55,-212.84 53.43,-219.45 48.43,-224.65"/>
</a>
</g>
<text xml:space="preserve" text-anchor="start" x="50.5" y="-235.5" font-family="Helvetica,sans-Serif" font-size="10.00" fill="grey">+history</text>
</g>
<!-- Node3 -->
<g id="Node000003" class="node">
<title>Node3</title>
<g id="a_Node000003"><a xlink:href="struct_s___h_a_s_h_t_a_b_l_e.html" target="_top" xlink:title=" ">
<polygon fill="white" stroke="none" points="164.38,-382 85.12,-382 85.12,-266 164.38,-266 164.38,-382"/>
<text xml:space="preserve" text-anchor="start" x="89.12" y="-368.5" font-family="Helvetica,sans-Serif" font-size="10.00">S_HASHTABLE</text>
<text xml:space="preserve" text-anchor="start" x="92.06" y="-352.5" font-family="Helvetica,sans-Serif" font-size="10.00">+</text>
<text xml:space="preserve" text-anchor="start" x="105" y="-352.5" font-family="Helvetica,sans-Serif" font-size="10.00">numEntries</text>
<text xml:space="preserve" text-anchor="start" x="92.06" y="-336.5" font-family="Helvetica,sans-Serif" font-size="10.00">+</text>
<text xml:space="preserve" text-anchor="start" x="105" y="-336.5" font-family="Helvetica,sans-Serif" font-size="10.00">newWrite</text>
<text xml:space="preserve" text-anchor="start" x="92.06" y="-320.5" font-family="Helvetica,sans-Serif" font-size="10.00">+</text>
<text xml:space="preserve" text-anchor="start" x="105" y="-320.5" font-family="Helvetica,sans-Serif" font-size="10.00">overWrite</text>
<text xml:space="preserve" text-anchor="start" x="92.06" y="-304.5" font-family="Helvetica,sans-Serif" font-size="10.00">+</text>
<text xml:space="preserve" text-anchor="start" x="105" y="-304.5" font-family="Helvetica,sans-Serif" font-size="10.00">hit</text>
<text xml:space="preserve" text-anchor="start" x="92.06" y="-288.5" font-family="Helvetica,sans-Serif" font-size="10.00">+</text>
<text xml:space="preserve" text-anchor="start" x="105" y="-288.5" font-family="Helvetica,sans-Serif" font-size="10.00">cut</text>
<text xml:space="preserve" text-anchor="start" x="123.25" y="-272.5" font-family="Helvetica,sans-Serif" font-size="10.00"> </text>
<polygon fill="#666666" stroke="#666666" points="85.12,-364 85.12,-364 164.38,-364 164.38,-364 85.12,-364"/>
<polygon fill="#666666" stroke="#666666" points="85.12,-284 85.12,-284 103,-284 103,-284 85.12,-284"/>
<polygon fill="#666666" stroke="#666666" points="103,-284 103,-284 164.38,-284 164.38,-284 103,-284"/>
<polygon fill="none" stroke="#666666" points="85.12,-266 85.12,-382 164.38,-382 164.38,-266 85.12,-266"/>
</a>
</g>
</g>
<!-- Node3&#45;&gt;Node1 -->
<g id="edge2_Node000001_Node000003" class="edge">
<title>Node3&#45;&gt;Node1</title>
<g id="a_edge2_Node000001_Node000003"><a xlink:title=" ">
<path fill="none" stroke="#63b8ff" d="M110.82,-266.25C107.61,-253.16 104.08,-238.77 100.5,-224.15"/>
<polygon fill="none" stroke="#63b8ff" points="100.55,-224.38 95.24,-219.5 97.69,-212.72 103.01,-217.6 100.55,-224.38"/>
</a>
</g>
<text xml:space="preserve" text-anchor="start" x="109.09" y="-235.5" font-family="Helvetica,sans-Serif" font-size="10.00" fill="grey">+HashTable</text>
</g>
<!-- Node4 -->
<g id="Node000004" class="node">
<title>Node4</title>
<g id="a_Node000004"><a xlink:href="struct_s___h_a_s_h_e_n_t_r_y.html" target="_top" xlink:title=" ">
<polygon fill="white" stroke="none" points="165.88,-552 83.62,-552 83.62,-436 165.88,-436 165.88,-552"/>
<text xml:space="preserve" text-anchor="start" x="87.62" y="-538.5" font-family="Helvetica,sans-Serif" font-size="10.00">S_HASHENTRY</text>
<text xml:space="preserve" text-anchor="start" x="95.44" y="-522.5" font-family="Helvetica,sans-Serif" font-size="10.00">+</text>
<text xml:space="preserve" text-anchor="start" x="113.25" y="-522.5" font-family="Helvetica,sans-Serif" font-size="10.00">posKey</text>
<text xml:space="preserve" text-anchor="start" x="95.44" y="-506.5" font-family="Helvetica,sans-Serif" font-size="10.00">+</text>
<text xml:space="preserve" text-anchor="start" x="113.25" y="-506.5" font-family="Helvetica,sans-Serif" font-size="10.00">move</text>
<text xml:space="preserve" text-anchor="start" x="95.44" y="-490.5" font-family="Helvetica,sans-Serif" font-size="10.00">+</text>
<text xml:space="preserve" text-anchor="start" x="113.25" y="-490.5" font-family="Helvetica,sans-Serif" font-size="10.00">score</text>
<text xml:space="preserve" text-anchor="start" x="95.44" y="-474.5" font-family="Helvetica,sans-Serif" font-size="10.00">+</text>
<text xml:space="preserve" text-anchor="start" x="113.25" y="-474.5" font-family="Helvetica,sans-Serif" font-size="10.00">depth</text>
<text xml:space="preserve" text-anchor="start" x="95.44" y="-458.5" font-family="Helvetica,sans-Serif" font-size="10.00">+</text>
<text xml:space="preserve" text-anchor="start" x="113.25" y="-458.5" font-family="Helvetica,sans-Serif" font-size="10.00">flags</text>
<text xml:space="preserve" text-anchor="start" x="123.25" y="-442.5" font-family="Helvetica,sans-Serif" font-size="10.00"> </text>
<polygon fill="#666666" stroke="#666666" points="83.62,-534 83.62,-534 165.88,-534 165.88,-534 83.62,-534"/>
<polygon fill="#666666" stroke="#666666" points="83.62,-454 83.62,-454 111.25,-454 111.25,-454 83.62,-454"/>
<polygon fill="#666666" stroke="#666666" points="111.25,-454 111.25,-454 165.88,-454 165.88,-454 111.25,-454"/>
<polygon fill="none" stroke="#666666" points="83.62,-436 83.62,-552 165.88,-552 165.88,-436 83.62,-436"/>
</a>
</g>
</g>
<!-- Node4&#45;&gt;Node3 -->
<g id="edge3_Node000003_Node000004" class="edge">
<title>Node4&#45;&gt;Node3</title>
<g id="a_edge3_Node000003_Node000004"><a xlink:title=" ">
<path fill="none" stroke="#63b8ff" d="M124.75,-436.12C124.75,-422.85 124.75,-408.56 124.75,-394.8"/>
<polygon fill="none" stroke="#63b8ff" points="124.75,-394.72 120.75,-388.72 124.75,-382.72 128.75,-388.72 124.75,-394.72"/>
</a>
</g>
<text xml:space="preserve" text-anchor="start" x="127.75" y="-405.5" font-family="Helvetica,sans-Serif" font-size="10.00" fill="grey">+pTable</text>
</g>
</g>
</svg>
