<?xml version="1.0" encoding="UTF-8" standalone="no"?>
<!DOCTYPE svg PUBLIC "-//W3C//DTD SVG 1.1//EN"
 "http://www.w3.org/Graphics/SVG/1.1/DTD/svg11.dtd">
<!-- Generated by graphviz version 13.1.2 (20250808.2320)
 -->
<!-- Title: S_HASHTABLE Pages: 1 -->
<svg width="90pt" height="294pt"
 viewBox="0.00 0.00 90.00 294.00" xmlns="http://www.w3.org/2000/svg" xmlns:xlink="http://www.w3.org/1999/xlink">

<svg id="main" version="1.1" xmlns="http://www.w3.org/2000/svg" xmlns:xlink="http://www.w3.org/1999/xlink" xml:space="preserve">

<style type="text/css"><![CDATA[
.node, .edge {opacity: 0.7;}
.node.selected, .edge.selected {opacity: 1;}
.edge:hover path { stroke: red; }
.edge:hover polygon { stroke: red; fill: red; }
]]></style>
<script type="application/ecmascript" xlink:href="svg.min.js"/>
<svg id="graph" class="graph">
<g id="graph0" class="graph" transform="scale(1 1) rotate(0) translate(4 290)">
<title>S_HASHTABLE</title>
<!-- Node1 -->
<g id="Node000001" class="node">
<title>Node1</title>
<g id="a_Node000001"><a xlink:title=" ">
<polygon fill="#999999" stroke="none" points="80.75,-116 1.5,-116 1.5,0 80.75,0 80.75,-116"/>
<text xml:space="preserve" text-anchor="start" x="5.5" y="-102.5" font-family="Helvetica,sans-Serif" font-size="10.00">S_HASHTABLE</text>
<text xml:space="preserve" text-anchor="start" x="8.44" y="-86.5" font-family="Helvetica,sans-Serif" font-size="10.00">+</text>
<text xml:space="preserve" text-anchor="start" x="21.38" y="-86.5" font-family="Helvetica,sans-Serif" font-size="10.00">numEntries</text>
<text xml:space="preserve" text-anchor="start" x="8.44" y="-70.5" font-family="Helvetica,sans-Serif" font-size="10.00">+</text>
<text xml:space="preserve" text-anchor="start" x="21.38" y="-70.5" font-family="Helvetica,sans-Serif" font-size="10.00">newWrite</text>
<text xml:space="preserve" text-anchor="start" x="8.44" y="-54.5" font-family="Helvetica,sans-Serif" font-size="10.00">+</text>
<text xml:space="preserve" text-anchor="start" x="21.38" y="-54.5" font-family="Helvetica,sans-Serif" font-size="10.00">overWrite</text>
<text xml:space="preserve" text-anchor="start" x="8.44" y="-38.5" font-family="Helvetica,sans-Serif" font-size="10.00">+</text>
<text xml:space="preserve" text-anchor="start" x="21.38" y="-38.5" font-family="Helvetica,sans-Serif" font-size="10.00">hit</text>
<text xml:space="preserve" text-anchor="start" x="8.44" y="-22.5" font-family="Helvetica,sans-Serif" font-size="10.00">+</text>
<text xml:space="preserve" text-anchor="start" x="21.38" y="-22.5" font-family="Helvetica,sans-Serif" font-size="10.00">cut</text>
<text xml:space="preserve" text-anchor="start" x="39.62" y="-6.5" font-family="Helvetica,sans-Serif" font-size="10.00"> </text>
<polygon fill="#666666" stroke="#666666" points="1.5,-98 1.5,-98 80.75,-98 80.75,-98 1.5,-98"/>
<polygon fill="#666666" stroke="#666666" points="1.5,-18 1.5,-18 19.38,-18 19.38,-18 1.5,-18"/>
<polygon fill="#666666" stroke="#666666" points="19.38,-18 19.38,-18 80.75,-18 80.75,-18 19.38,-18"/>
<polygon fill="none" stroke="#666666" points="1.5,0 1.5,-116 80.75,-116 80.75,0 1.5,0"/>
</a>
</g>
</g>
<!-- Node2 -->
<g id="Node000002" class="node">
<title>Node2</title>
<g id="a_Node000002"><a xlink:href="struct_s___h_a_s_h_e_n_t_r_y.html" target="_top" xlink:title=" ">
<polygon fill="white" stroke="none" points="82.25,-286 0,-286 0,-170 82.25,-170 82.25,-286"/>
<text xml:space="preserve" text-anchor="start" x="4" y="-272.5" font-family="Helvetica,sans-Serif" font-size="10.00">S_HASHENTRY</text>
<text xml:space="preserve" text-anchor="start" x="11.81" y="-256.5" font-family="Helvetica,sans-Serif" font-size="10.00">+</text>
<text xml:space="preserve" text-anchor="start" x="29.62" y="-256.5" font-family="Helvetica,sans-Serif" font-size="10.00">posKey</text>
<text xml:space="preserve" text-anchor="start" x="11.81" y="-240.5" font-family="Helvetica,sans-Serif" font-size="10.00">+</text>
<text xml:space="preserve" text-anchor="start" x="29.62" y="-240.5" font-family="Helvetica,sans-Serif" font-size="10.00">move</text>
<text xml:space="preserve" text-anchor="start" x="11.81" y="-224.5" font-family="Helvetica,sans-Serif" font-size="10.00">+</text>
<text xml:space="preserve" text-anchor="start" x="29.62" y="-224.5" font-family="Helvetica,sans-Serif" font-size="10.00">score</text>
<text xml:space="preserve" text-anchor="start" x="11.81" y="-208.5" font-family="Helvetica,sans-Serif" font-size="10.00">+</text>
<text xml:space="preserve" text-anchor="start" x="29.62" y="-208.5" font-family="Helvetica,sans-Serif" font-size="10.00">depth</text>
<text xml:space="preserve" text-anchor="start" x="11.81" y="-192.5" font-family="Helvetica,sans-Serif" font-size="10.00">+</text>
<text xml:space="preserve" text-anchor="start" x="29.62" y="-192.5" font-family="Helvetica,sans-Serif" font-size="10.00">flags</text>
<text xml:space="preserve" text-anchor="start" x="39.62" y="-176.5" font-family="Helvetica,sans-Serif" font-size="10.00"> </text>
<polygon fill="#666666" stroke="#666666" points="0,-268 0,-268 82.25,-268 82.25,-268 0,-268"/>
<polygon fill="#666666" stroke="#666666" points="0,-188 0,-188 27.62,-188 27.62,-188 0,-188"/>
<polygon fill="#666666" stroke="#666666" points="27.62,-188 27.62,-188 82.25,-188 82.25,-188 27.62,-188"/>
<polygon fill="none" stroke="#666666" points="0,-170 0,-286 82.25,-286 82.25,-170 0,-170"/>
</a>
</g>
</g>
<!-- Node2&#45;&gt;Node1 -->
<g id="edge1_Node000001_Node000002" class="edge">
<title>Node2&#45;&gt;Node1</title>
<g id="a_edge1_Node000001_Node000002"><a xlink:title=" ">
<path fill="none" stroke="#63b8ff" d="M41.12,-170.12C41.12,-156.85 41.12,-142.56 41.12,-128.8"/>
<polygon fill="none" stroke="#63b8ff" points="41.13,-128.72 37.13,-122.72 41.13,-116.72 45.13,-122.72 41.13,-128.72"/>
</a>
</g>
<text xml:space="preserve" text-anchor="start" x="44.12" y="-139.5" font-family="Helvetica,sans-Serif" font-size="10.00" fill="grey">+pTable</text>
</g>
</g>
</svg>
</svg>

<style type='text/css'>
<![CDATA[
[data-mouse-over-selected='false'] { opacity: 0.7; }
[data-mouse-over-selected='true']  { opacity: 1.0; }
]]>
</style>
<script type="application/ecmascript"><![CDATA[
document.addEventListener('DOMContentLoaded', (event) => {
  highlightEdges();
  highlightAdjacentNodes();
});
]]></script>
</svg>
