<?xml version="1.0" encoding="UTF-8" standalone="no"?>
<!DOCTYPE svg PUBLIC "-//W3C//DTD SVG 1.1//EN"
 "http://www.w3.org/Graphics/SVG/1.1/DTD/svg11.dtd">
<!-- Generated by graphviz version 13.1.2 (20250808.2320)
 -->
<!-- Title: S_HASHENTRY Pages: 1 -->
<svg width="90pt" height="124pt"
 viewBox="0.00 0.00 90.00 124.00" xmlns="http://www.w3.org/2000/svg" xmlns:xlink="http://www.w3.org/1999/xlink">
<g id="graph0" class="graph" transform="scale(1 1) rotate(0) translate(4 120)">
<title>S_HASHENTRY</title>
<!-- Node1 -->
<g id="Node000001" class="node">
<title>Node1</title>
<g id="a_Node000001"><a xlink:title=" ">
<polygon fill="#999999" stroke="none" points="82.25,-116 0,-116 0,0 82.25,0 82.25,-116"/>
<text xml:space="preserve" text-anchor="start" x="4" y="-102.5" font-family="Helvetica,sans-Serif" font-size="10.00">S_HASHENTRY</text>
<text xml:space="preserve" text-anchor="start" x="11.81" y="-86.5" font-family="Helvetica,sans-Serif" font-size="10.00">+</text>
<text xml:space="preserve" text-anchor="start" x="29.62" y="-86.5" font-family="Helvetica,sans-Serif" font-size="10.00">posKey</text>
<text xml:space="preserve" text-anchor="start" x="11.81" y="-70.5" font-family="Helvetica,sans-Serif" font-size="10.00">+</text>
<text xml:space="preserve" text-anchor="start" x="29.62" y="-70.5" font-family="Helvetica,sans-Serif" font-size="10.00">move</text>
<text xml:space="preserve" text-anchor="start" x="11.81" y="-54.5" font-family="Helvetica,sans-Serif" font-size="10.00">+</text>
<text xml:space="preserve" text-anchor="start" x="29.62" y="-54.5" font-family="Helvetica,sans-Serif" font-size="10.00">score</text>
<text xml:space="preserve" text-anchor="start" x="11.81" y="-38.5" font-family="Helvetica,sans-Serif" font-size="10.00">+</text>
<text xml:space="preserve" text-anchor="start" x="29.62" y="-38.5" font-family="Helvetica,sans-Serif" font-size="10.00">depth</text>
<text xml:space="preserve" text-anchor="start" x="11.81" y="-22.5" font-family="Helvetica,sans-Serif" font-size="10.00">+</text>
<text xml:space="preserve" text-anchor="start" x="29.62" y="-22.5" font-family="Helvetica,sans-Serif" font-size="10.00">flags</text>
<text xml:space="preserve" text-anchor="start" x="39.62" y="-6.5" font-family="Helvetica,sans-Serif" font-size="10.00"> </text>
<polygon fill="#666666" stroke="#666666" points="0,-98 0,-98 82.25,-98 82.25,-98 0,-98"/>
<polygon fill="#666666" stroke="#666666" points="0,-18 0,-18 27.62,-18 27.62,-18 0,-18"/>
<polygon fill="#666666" stroke="#666666" points="27.62,-18 27.62,-18 82.25,-18 82.25,-18 27.62,-18"/>
<polygon fill="none" stroke="#666666" points="0,0 0,-116 82.25,-116 82.25,0 0,0"/>
</a>
</g>
</g>
</g>
</svg>
